<svg version="1.1" xmlns="http://www.w3.org/2000/svg" xmlns:xlink="http://www.w3.org/1999/xlink" width="1317" height="542" viewBox="0,0,1317,542"><g fill="none" fill-rule="none" stroke="#ff00e2" stroke-width="1" stroke-linecap="butt" stroke-linejoin="none" stroke-miterlimit="none" stroke-dasharray="" stroke-dashoffset="0" font-family="none" font-weight="none" font-size="none" text-anchor="none" style="mix-blend-mode: normal"><g id="#ff00e2"><path d="M1006.61218,346.20339c-0.86366,0.42624 -1.73829,0.78007 -2.6198,1.06418v0h-11.47321v0c-0.26652,-0.08236 -0.53202,-0.17024 -0.79638,-0.26354v0c-0.76602,-0.27035 -1.51209,-0.58239 -2.23466,-0.93646v0h17.41654v0c0.76082,-0.36079 1.48201,-0.76194 2.16362,-1.2v0h-21.69115v0c-0.56551,-0.36987 -1.1118,-0.7698 -1.63676,-1.2v0h24.98649v0c0.46892,-0.38069 0.91481,-0.78119 1.33772,-1.2v0h-27.65286v0c-0.38307,-0.38104 -0.75173,-0.78101 -1.10493,-1.2v0h29.86566v0c0.32725,-0.38783 0.63754,-0.78816 0.93088,-1.2v0h-31.72788v0c-0.2756,-0.38614 -0.53932,-0.78612 -0.79052,-1.2v0h33.30611v0c0.2364,-0.39156 0.45894,-0.7918 0.66766,-1.2v0h-34.64638v0c-0.14027,-0.27165 -0.27554,-0.54863 -0.40566,-0.83094v0l-0.06002,-0.14234v0c-0.03188,-0.07573 -0.06328,-0.15129 -0.0942,-0.22672v0h35.77042v0c0.16963,-0.39388 0.32727,-0.79408 0.47294,-1.2v0h-36.69846v0c-0.13953,-0.40111 -0.26551,-0.80034 -0.37846,-1.2v0h16.68562l0.15566,0.05583c1.10031,0.36852 2.49556,0.33833 3.73224,-0.05583v0h16.89396v0c0.11634,-0.39787 0.22038,-0.798 0.31181,-1.2v0h-15.21347v0c0.39738,-0.36337 0.74857,-0.77156 1.03212,-1.2v0h14.41576v0c0.06512,-0.39872 0.11777,-0.79885 0.15768,-1.2v0h-13.98384v0c0.12129,-0.37508 0.19742,-0.78132 0.22974,-1.2v0h13.83512v0c0.01417,-0.3995 0.01555,-0.79963 0.00386,-1.2v0h-13.86307v0c-0.04724,-0.41041 -0.13404,-0.81601 -0.2592,-1.2v0h14.04789v0c-0.03803,-0.40026 -0.08937,-0.80038 -0.15429,-1.2v0h-14.51235v0c-0.3098,-0.45123 -0.64954,-0.84733 -0.98372,-1.2v0h15.25958v0c-0.09307,-0.40103 -0.20018,-0.80116 -0.32161,-1.2v0h-16.13461v0l-1.20583,-1.2v0h16.93001v0c-0.1528,-0.40186 -0.32063,-0.802 -0.50378,-1.2v0h-17.63206v0l-0.88651,-0.88222l0.23646,-0.31778h17.67717v0c-0.08066,-0.14602 -0.16295,-0.28956 -0.24953,-0.43517l-0.31223,-0.5251l0.1034,-0.23973v0h-16.3259v0l0.89291,-1.2v0h15.93127v0c0.15415,-0.39738 0.29791,-0.79747 0.4312,-1.2v0h-15.46956v0l0.61152,-0.82183l0.25752,-0.37817h14.9648v0c0.10998,-0.39802 0.20985,-0.7981 0.29951,-1.2v0h-14.58468v0c0.19031,-0.38947 0.35891,-0.79028 0.50543,-1.2v0h14.31567v0c0.06821,-0.39858 0.12645,-0.79866 0.17465,-1.2v0h-14.13031v0c0.09664,-0.39497 0.17387,-0.79563 0.23137,-1.2v0h14.01277v0c0.02782,-0.39909 0.04573,-0.79917 0.05365,-1.2v0h-13.95437v0c0.018,-0.39891 0.01703,-0.79951 -0.00319,-1.2v0h13.95137v0c-0.01201,-0.39957 -0.03397,-0.79964 -0.06597,-1.2v0h-14.00418v0c-0.05963,-0.4026 -0.13918,-0.80322 -0.23896,-1.2v0h14.11714v0c-0.05205,-0.40003 -0.1142,-0.80011 -0.18651,-1.2v0h-14.2993v0c-0.09054,-0.24793 -0.1895,-0.4935 -0.29695,-0.73622l-0.24518,-0.46378h14.59362v0c-0.09305,-0.4005 -0.19641,-0.80058 -0.31018,-1.2v0h-15.03781v0c-0.29568,-0.41867 -0.61489,-0.81955 -0.95416,-1.2v0h15.61803v0c-0.13579,-0.40099 -0.28222,-0.80107 -0.4394,-1.2v0h-16.39188v0c-0.50947,-0.44417 -1.04805,-0.84629 -1.60738,-1.2v0h17.49232v0c-0.08803,-0.19509 -0.17869,-0.38985 -0.27198,-0.58424l-0.02363,-0.04841c-0.09021,-0.19085 -0.18229,-0.37997 -0.27624,-0.56735v0h-19.41739v0c-2.3995,-0.80957 -5.20788,-0.8334 -7.80005,0v0h-19.48998v0c0.20362,-0.40565 0.41744,-0.80577 0.6414,-1.2v0h45.42586v0c-0.2318,-0.40906 -0.47287,-0.80907 -0.72284,-1.2v0h-43.97812v0c0.26127,-0.40732 0.53404,-0.80748 0.81823,-1.2v0h42.34436v0c-0.2967,-0.41121 -0.60384,-0.81123 -0.92095,-1.2v0h-40.49923v0c0.33548,-0.40983 0.68446,-0.81003 1.04683,-1.2v0h38.4094v0c-0.38388,-0.41467 -0.77999,-0.8147 -1.1876,-1.2v0h-36.02955v0c0.43984,-0.41407 0.89657,-0.81435 1.37007,-1.2v0h33.29537v0c-0.51469,-0.42115 -1.04467,-0.82121 -1.58873,-1.2v0h-30.10993v0c0.61059,-0.42283 1.24506,-0.82332 1.90322,-1.2v0h26.31426v0c-0.76041,-0.43774 -1.54316,-0.83788 -2.34549,-1.2v0h-21.62529v0c1.0103,-0.4716 2.02995,-0.87074 3.05523,-1.2v0h15.40736v0c-2.52388,-0.7856 -5.1332,-1.2 -7.76583,-1.2h-0.00001c-2.5441,0 -5.10996,0.387 -7.64152,1.2" fill-rule="nonzero" stroke-linejoin="miter" stroke-miterlimit="10"/><path d="M993.34365,331.66757c0.28731,0.42891 0.63609,0.83794 1.02132,1.2v0h-15.14576v0c-0.0516,-0.2377 -0.09883,-0.47636 -0.1418,-0.71643l-0.08656,-0.48357h14.3528v0c-0.10347,-0.15446 -0.19896,-0.3115 -0.28532,-0.46985v0c-0.09034,-0.23054 -0.17307,-0.47545 -0.24437,-0.73015v0h-15.82861v0c-0.61471,-0.37599 -1.21209,-0.7761 -1.79061,-1.2v0h17.38824v0c-0.04105,-0.39857 -0.04562,-0.80328 -0.00186,-1.2v0h-18.89902v0c-0.44758,-0.38413 -0.88146,-0.78419 -1.30079,-1.2v0h20.39803v0l0.20095,-1.2v0h-21.72974v0c-0.34162,-0.38818 -0.67156,-0.78822 -0.98928,-1.2v0h22.91997v0l0.20095,-1.2v0h-23.98928v0c-0.26476,-0.39061 -0.51918,-0.79064 -0.76285,-1.2v0h24.95307l0.02903,-0.17334l-3.82922,-1.02666v0h-21.82212v0c-0.2018,-0.38698 -0.39446,-0.78154 -0.57766,-1.18362l-0.00803,-0.01638h18.54457v0c-0.72636,-0.32837 -1.43133,-0.73106 -2.0975,-1.2v0h-16.99808v0c-0.17113,-0.39879 -0.33104,-0.79887 -0.47987,-1.2v0h16.01335v0c-0.39408,-0.37453 -0.76531,-0.77531 -1.10866,-1.2v0h-15.31615v0c-0.12579,-0.39926 -0.24086,-0.79933 -0.34539,-1.2v0h14.80784v0c-0.20072,-0.32323 -0.38582,-0.65696 -0.55364,-1.00042l-0.08976,-0.19958h-14.44577v0c-0.08324,-0.3997 -0.15617,-0.79977 -0.21896,-1.2v0h14.20862v0c-0.12819,-0.39622 -0.23653,-0.79692 -0.32529,-1.2v0h-14.04134v0c-0.04266,-0.40014 -0.07533,-0.80021 -0.09818,-1.2v0h13.93351v0c-0.04963,-0.4004 -0.08042,-0.80108 -0.09262,-1.2v0h-13.88011v0c-0.00333,-0.40058 0.00309,-0.80065 0.01911,-1.2v0h13.88063v0c0.02582,-0.40477 0.07107,-0.80551 0.1355,-1.2v0h-13.93907v0c0.03541,-0.40103 0.08043,-0.80111 0.13488,-1.2v0h14.06493v0c0.08257,-0.30176 0.17711,-0.59813 0.28349,-0.88797l0.12,-0.31203h-14.27559v0c0.07425,-0.40153 0.15803,-0.8016 0.25117,-1.2v0h14.59066v0c0.22285,-0.41013 0.47175,-0.8111 0.74444,-1.2v0h-15.02491v0c0.11392,-0.40207 0.23738,-0.80215 0.3702,-1.2v0h15.60609v0c0.37688,-0.42254 0.78326,-0.82412 1.21551,-1.2v0h-16.38999v0c0.15608,-0.40443 0.32146,-0.80454 0.4961,-1.2v0h17.5017v0c0.3857,-0.24501 0.78493,-0.47047 1.19589,-0.67405" fill-rule="nonzero" stroke-linejoin="miter" stroke-miterlimit="10"/><path d="M977.89672,332.36556c-4.96377,-2.64823 -9.12493,-6.8308 -11.59481,-12.16113c-6.53696,-13.57989 -0.63848,-29.73229 13.00188,-36.23828c13.64036,-6.50799 29.86468,-0.63565 36.39964,12.94424l0.03002,0.06177c3.34654,7.10777 3.37256,14.905 0.51839,21.64812c0.22217,0.37462 0.43433,0.76716 0.64049,1.17765c4.93575,10.15652 0.68052,22.61456 -9.75941,27.48658c-10.20175,4.91387 -22.71525,0.6775 -27.72505,-9.96523l-0.06806,-0.16141c-0.66851,-1.59611 -1.15287,-3.19421 -1.44309,-4.79231zM1001.11435,303.83882c-2.67803,-5.53159 -9.26104,-8.01642 -14.82526,-5.36221c-5.57423,2.66018 -8.08214,9.22397 -5.36207,14.8791c1.36904,2.95111 4.00904,4.96965 6.97329,5.76472l7.07538,1.897l-1.20492,7.19545c-0.14211,0.85285 0.06405,1.69176 0.40231,2.54063c1.09883,2.1939 3.74684,3.0906 6.00856,2.00261c2.27973,-1.06407 3.22845,-3.75016 2.20567,-5.8544c-0.38629,-0.76916 -0.90869,-1.31714 -1.48713,-1.89501l-4.92774,-4.9039l4.14715,-5.57343c2.25972,-3.03879 2.67604,-7.08785 0.99476,-10.69056z" fill-rule="evenodd" stroke-linejoin="round" stroke-miterlimit="2"/><path d="M206.60708,172.85815l-11.40867,-11.35809l-19.41474,19.32868l-19.61489,-19.32868l-11.40866,11.35809l19.61489,19.32867l-19.61489,19.52794l11.40866,11.35809l19.61489,-19.52794l19.41474,19.52794l11.40867,-11.35809l-19.41474,-19.52794z" fill-rule="nonzero" stroke-linejoin="round" stroke-miterlimit="2"/><path d="M196.99688,219.58905l-1.20534,1.2v0h-1.17155v0l-1.19305,-1.2v0h3.56994v0l1.20535,-1.2v0h-5.96833v0l-1.19304,-1.2v0h8.36671v0l1.20535,-1.2v0h-10.76511v0l-1.19304,-1.2v0h13.16349v0l1.20534,-1.2v0h-15.56187v0l-1.19305,-1.2v0h17.96027v0l0.68166,-0.67864v0l-0.51834,-0.52136v0h-19.31663v0l-1.19305,-1.2v0h19.31664v0l-1.19305,-1.2v0h-19.31663v0l-1.19304,-1.2v0h19.31663v0l-1.19304,-1.2v0h-19.31664v0l-1.19304,-1.2v0h19.31663v0l-1.19304,-1.2v0h-19.31664v0l-1.19304,-1.2v0h19.31664v0l-1.19305,-1.2v0h-38.21616v0l1.20534,-1.2v0h35.81778v0l-1.19305,-1.2v0h-33.41939v0l1.20535,-1.2v0h31.021v0l-1.19304,-1.2v0h-28.62262v0l1.20534,-1.2v0h26.22423v0l-1.19304,-1.2v0h-23.82585v0l1.20535,-1.2v0h21.42746v0l-1.00075,-1.00658v0l0.19428,-0.19342v0h-19.80617v0l-1.21777,-1.2v0h22.22928v0l1.20535,-1.2v0h-24.6524v0l-1.21777,-1.2v0h27.07551v0l1.20535,-1.2v0h-29.49863v0l-1.21777,-1.2v0h31.92174v0l1.20534,-1.2v0h-34.34485v0l-1.21777,-1.2v0h36.76797v0l1.20534,-1.2v0h-19.41565h-0.25984h-19.51559v0l-1.21777,-1.2v0h19.5156v0l-1.21777,-1.2v0h-19.5156v0l-1.21777,-1.2v0h19.5156v0l-1.21777,-1.2v0h-19.5156v0l-1.21777,-1.2v0h19.5156v0l-1.21777,-1.2v0h-19.5156v0l-1.21777,-1.2v0h19.5156v0l-1.21777,-1.2v0h-19.38489v0l1.20534,-1.2v0h16.96178v0l-1.21777,-1.2v0h-14.53867v0l1.20535,-1.2v0h12.11556v0l-1.21777,-1.2v0h-9.69245v0l1.20534,-1.2v0h7.26934v0l-1.21777,-1.2v0h-4.84623v0l1.20535,-1.2v0h2.42311v0l-1.21777,-1.2v0l-1.20534,1.2" fill-rule="nonzero" stroke-linejoin="miter" stroke-miterlimit="10"/><path d="M193.9974,164.38905l1.20101,-1.19569v0l1.20101,1.19569v0h-2.40202v0l-1.20535,1.2v0h4.81272v0l1.20534,1.2v0h-7.2234v0l-1.20534,1.2v0h9.63409v0l1.20534,1.2v0h-12.04478v0l-1.20534,1.2v0h14.45546v0l1.20535,1.2v0h-16.86615v0l-1.20534,1.2v0h19.27683l0.06941,0.0691l-1.13594,1.1309v0h-19.41565v0l-1.20534,1.2v0h19.41565v0l-1.20534,1.2v0h-19.41565v0l-1.20535,1.2v0h19.41565v0l-1.20534,1.2v0h-19.41565v0l-1.20534,1.2v0h19.41565v0l-1.20535,1.2v0h-19.41564v0l1.20534,-1.2" fill-rule="nonzero" stroke-linejoin="miter" stroke-miterlimit="10"/><path d="M175.78802,201.84728l-0.94596,0.94177v0h-19.41565v0l-1.20534,1.2v0h19.41564v0l-1.20534,1.2v0h-19.41564v0l-1.20535,1.2v0h19.41565v0l-1.20535,1.2v0h-19.41564v0l-1.20534,1.2v0h19.41564v0l-1.20534,1.2v0h-19.41565v0l-1.20534,1.2v0h19.41564v0l-1.20534,1.2v0h-18.06106v0l1.20534,1.2v0h15.65038v0l-1.20534,1.2v0h-13.23969v0l1.20534,1.2v0h10.829v0l-1.20534,1.2v0h-8.41832v0l1.20535,1.2v0h6.00763v0l-1.20535,1.2v0h-3.59694v0l1.20534,1.2v0h1.18626v0l1.20534,-1.2" fill-rule="nonzero" stroke-linejoin="miter" stroke-miterlimit="10"/></g></g></svg>