<svg version="1.1" xmlns="http://www.w3.org/2000/svg" xmlns:xlink="http://www.w3.org/1999/xlink" width="1317" height="542" viewBox="0,0,1317,542"><g fill="none" fill-rule="none" stroke="#000000" stroke-width="1" stroke-linecap="butt" stroke-linejoin="none" stroke-miterlimit="none" stroke-dasharray="" stroke-dashoffset="0" font-family="none" font-weight="none" font-size="none" text-anchor="none" style="mix-blend-mode: normal"><g id="#000000"><path d="M1104.56961,278.56168v1.2v0h-1.47658v0l-3.54825,-1.2v0h5.02483v0v-1.2v0h-8.57308v0l-0.53058,-0.17944v0c-1.00926,-0.34134 -2.01866,-0.68127 -3.02873,-1.02056v0h12.13239v0v-1.2v0h-28.19574v0c0.03107,-0.39932 0.06021,-0.79932 0.08739,-1.2v0h28.10835v0v-1.2v0h-28.03292v0c0.01341,-0.23167 0.02618,-0.46356 0.03829,-0.69566" fill-rule="nonzero" stroke-linejoin="miter" stroke-miterlimit="10"/><path d="M1090.43889,275.49139l-1.45321,-0.48686" fill-rule="nonzero" stroke-linejoin="miter" stroke-miterlimit="10"/><path d="M1084.92998,233.73857l-0.61114,-0.19933" fill-rule="nonzero" stroke-linejoin="miter" stroke-miterlimit="10"/><path d="M1076.16302,277.36168c0.0391,-0.39928 0.07626,-0.79928 0.11146,-1.2v0h12.61722v0l-0.02997,0.36908l-0.07006,0.83092h-12.62865v0c-0.03925,0.40074 -0.08046,0.80074 -0.12361,1.2v0h12.64195v0c-0.03865,0.40074 -0.07904,0.80074 -0.12116,1.2v0h-12.6566v0c-0.04741,0.40078 -0.09678,0.80078 -0.14811,1.2v0h12.67263v0c-0.04594,0.40077 -0.09363,0.80077 -0.14307,1.2v0h-12.69004v0c-0.05568,0.40082 -0.11334,0.80083 -0.17295,1.2v0h12.70884v0c-0.05334,0.4008 -0.10845,0.80081 -0.16531,1.2v0h-12.72903v0c-0.06408,0.40087 -0.13013,0.80087 -0.19815,1.2v0h12.75063v0c-0.06086,0.40084 -0.12348,0.80084 -0.18787,1.2v0h-12.77368v0c-0.07261,0.40091 -0.1472,0.80092 -0.22378,1.2v0h12.79815v0c-0.0685,0.40087 -0.13877,0.80087 -0.21082,1.2v0h-12.82411v0c-0.0813,0.40096 -0.16459,0.80097 -0.24988,1.2v0h12.85154v0c-0.07627,0.40091 -0.15433,0.80091 -0.23417,1.2v0h-12.8805v0c-0.09016,0.40101 -0.18233,0.80102 -0.27651,1.2v0h12.91099v0c-0.08419,0.40094 -0.17017,0.80095 -0.25796,1.2v0h-12.94307v0c-0.09922,0.40107 -0.20046,0.80108 -0.30372,1.2v0h12.97675v0c-0.09227,0.40098 -0.18635,0.80099 -0.28224,1.2v0h-13.01208v0c-0.10849,0.40113 -0.21902,0.80114 -0.33158,1.2v0h13.04909v0c-0.10052,0.40103 -0.20287,0.80103 -0.30704,1.2v0h-13.08783v0c-0.118,0.40119 -0.23806,0.8012 -0.36017,1.2v0h13.12836v0c-0.10896,0.40107 -0.21976,0.80107 -0.3324,1.2v0h-13.17072v0c-0.12778,0.40126 -0.25764,0.80127 -0.38957,1.2v0h13.21497v0c-0.1176,0.40112 -0.23708,0.80112 -0.3584,1.2v0h-13.26117v0c-0.13786,0.40134 -0.27782,0.80134 -0.41987,1.2v0h13.3094v0c-0.12648,0.40117 -0.25484,0.80117 -0.38507,1.2v0h-13.35973v0c-0.14827,0.40141 -0.29867,0.80142 -0.45119,1.2v0h13.41224v0c-0.1356,0.40122 -0.27309,0.80123 -0.41248,1.2v0h-13.46703v0c-0.15906,0.4015 -0.32028,0.80151 -0.48364,1.2v0h13.52417v0c-0.14499,0.40128 -0.29191,0.80128 -0.44073,1.2v0h-13.58378v0c-0.17027,0.40159 -0.34274,0.8016 -0.51737,1.2v0h13.64598v0c-0.15468,0.40134 -0.3113,0.80135 -0.46986,1.2v0h-13.71089v0c-0.18196,0.40169 -0.36614,0.8017 -0.55253,1.2v0h13.77862v0c-0.16469,0.40141 -0.33136,0.80141 -0.49999,1.2v0h-13.84935v0c-0.19419,0.4018 -0.39064,0.80181 -0.58933,1.2v0h13.92323v0c-0.17507,0.40148 -0.35215,0.80148 -0.53121,1.2v0h-14.00042v0c-0.20703,0.40192 -0.41637,0.80193 -0.62798,1.2v0h14.08114v0c-0.18585,0.40156 -0.37374,0.80156 -0.56364,1.2v0h-14.16556v0c-0.22056,0.40206 -0.44347,0.80207 -0.66872,1.2v0h14.25393v0c-0.19708,0.40164 -0.39622,0.80164 -0.59741,1.2v0h-14.34651v0c-0.2349,0.40221 -0.47221,0.80222 -0.7119,1.2v0h14.44355v0c-0.2088,0.40173 -0.41969,0.80174 -0.63268,1.2v0h-14.54537v0c-0.25017,0.40238 -0.50281,0.80239 -0.75788,1.2v0h14.65231v0c-0.22108,0.40183 -0.4443,0.80184 -0.66964,1.2v0h-14.76472v0c-0.26651,0.40257 -0.53555,0.80258 -0.80711,1.2v0h14.88302v0c-0.23398,0.40194 -0.47014,0.80194 -0.70847,1.2v0h-15.00768v0c-0.28412,0.40278 -0.57086,0.8028 -0.86018,1.2v0h15.13919v0c-0.24759,0.40206 -0.49741,0.80206 -0.74944,1.2v0h-15.27812v0c-0.30324,0.40303 -0.60918,0.80305 -0.9178,1.2v0h15.42511v0c-0.262,0.40219 -0.52627,0.8022 -0.79282,1.2v0h-15.58087v0c-0.32416,0.40332 -0.65113,0.80334 -0.98087,1.2v0h15.74621v0c-0.27732,0.40234 -0.55699,0.80235 -0.83898,1.2v0h-14.45249v0l1.39408,1.2v0h12.1952v0c-0.2937,0.40251 -0.58981,0.80251 -0.88831,1.2v0h-9.91281v0l1.39408,1.2v0h7.6044v0c-0.3113,0.40269 -0.62508,0.8027 -0.94133,1.2v0h-5.26899v0l1.39408,1.2v0h2.90548v0c-0.33033,0.40291 -0.66324,0.80292 -0.99869,1.2l-0.21626,0.25518l-0.29645,-0.25518v0l-1.39408,-1.2" fill-rule="nonzero" stroke-linejoin="miter" stroke-miterlimit="10"/><path d="M1074.18986,270.16168c0.51857,0.16686 1.03708,0.33401 1.55553,0.50145v0l0.87756,0.28341l-0.02166,0.41514h27.96832v0v-1.2v0h-30.37975v0c-1.24828,-0.40166 -2.49694,-0.80166 -3.74597,-1.2v0h34.12572v0v-1.2v0h-37.90544v0c-1.27103,-0.40171 -2.54245,-0.80171 -3.81425,-1.2v0h41.71969v0v-1.2v0h-45.56931v0c-1.29488,-0.40176 -2.59015,-0.80176 -3.88582,-1.2v0h49.45513v0v-1.2v0h-53.37806v0c1.30805,0.39821 2.6157,0.79821 3.92293,1.2" fill-rule="nonzero" stroke-linejoin="miter" stroke-miterlimit="10"/><path d="M1069.73054,228.86803l-0.26529,-0.70635v0h13.25937v0c-0.12791,-0.401 -0.25759,-0.80101 -0.38902,-1.2v0h-13.32105l-0.14813,-0.3944c-0.10111,-0.26922 -0.20304,-0.53775 -0.30579,-0.8056v0h13.37333v0c-0.13637,-0.40106 -0.27452,-0.80107 -0.41445,-1.2v0h-13.42648v0c-0.15895,-0.4016 -0.31975,-0.80161 -0.4824,-1.2v0h13.48142v0c-0.14509,-0.40114 -0.29198,-0.80114 -0.44067,-1.2v0h-13.53832v0c-0.16914,-0.4017 -0.34019,-0.8017 -0.51313,-1.2v0h13.59734v0c-0.1541,-0.40121 -0.31002,-0.80122 -0.46777,-1.2v0h-13.65867v0c-0.17989,-0.4018 -0.36174,-0.80181 -0.54553,-1.2v0h13.72252v0c-0.16343,-0.40129 -0.32872,-0.8013 -0.49585,-1.2v0h-13.78908v0c-0.19126,-0.40192 -0.38453,-0.80193 -0.57981,-1.2v0h13.85859v0c-0.17314,-0.40138 -0.34816,-0.80139 -0.52505,-1.2v0h-13.93127v0c-0.20333,-0.40205 -0.40875,-0.80206 -0.61623,-1.2v0h14.00741v0c-0.18325,-0.40147 -0.36842,-0.80148 -0.55548,-1.2v0h-14.08726v0c-0.21621,-0.4022 -0.43458,-0.80221 -0.65509,-1.2v0h14.17114v0c-0.19383,-0.40158 -0.3896,-0.80159 -0.58731,-1.2v0h-14.25939v0c-0.23003,-0.40236 -0.46229,-0.80237 -0.69678,-1.2v0h14.35235v0c-0.20493,-0.40169 -0.41185,-0.8017 -0.62075,-1.2v0h-14.4504v0c-0.24492,-0.40254 -0.49216,-0.80255 -0.74172,-1.2v0h14.55399v0c-0.21664,-0.40181 -0.4353,-0.80182 -0.65599,-1.2v0h-14.66358v0c-0.26106,-0.40275 -0.52456,-0.80276 -0.79048,-1.2v0h14.77969v0c-0.22903,-0.40195 -0.46014,-0.80196 -0.69331,-1.2v0h-14.90288v0c-0.2787,-0.40299 -0.55995,-0.803 -0.84374,-1.2v0h15.03378v0c-0.2422,-0.4021 -0.48654,-0.80211 -0.733,-1.2v0h-15.1731v0c-0.29811,-0.40326 -0.59891,-0.80327 -0.90239,-1.2v0h15.32162v0c-0.25629,-0.40227 -0.51477,-0.80228 -0.77545,-1.2v0h-15.48024v0c-0.31967,-0.40358 -0.64218,-0.8036 -0.96754,-1.2v0h15.64992v0c-0.27144,-0.40246 -0.54516,-0.80247 -0.82113,-1.2v0h-15.83181v0c-0.34387,-0.40397 -0.69078,-0.80398 -1.04072,-1.2v0h16.02719v0c-0.28784,-0.40268 -0.57803,-0.80269 -0.87057,-1.2v0h-16.23753v0c-0.37138,-0.40443 -0.74603,-0.80445 -1.12393,-1.2v0h16.46453v0c-0.30572,-0.40293 -0.6139,-0.80294 -0.92451,-1.2v0h-15.26956v0l1.20534,-1.2v0h13.11078v0c-0.32539,-0.40322 -0.65334,-0.80324 -0.98384,-1.2v0h-10.9216v0l1.20535,-1.2v0h8.70037v0c-0.34723,-0.40356 -0.69715,-0.80358 -1.04975,-1.2v0h-6.44528v0l1.20534,-1.2v0h4.1543v0c-0.37175,-0.40397 -0.74636,-0.80399 -1.12379,-1.2v0h-1.82516v0l0.9302,-0.92608v0c0.30005,0.3062 0.59838,0.6149 0.89496,0.92608" fill-rule="nonzero" stroke-linejoin="miter" stroke-miterlimit="10"/><path d="M976.7146,156.16168h0.3948v0c0.47176,0.39642 0.93798,0.79646 1.39869,1.2v0h-2.78091v0l-0.98742,1.2v0h5.11089v0c0.43514,0.39688 0.8651,0.79692 1.28989,1.2v0h-7.38819v0l-0.98742,1.2v0h9.61592v0c0.40271,0.39726 0.80054,0.7973 1.19348,1.2v0h-11.79681v0l-0.98742,1.2v0h13.93332v0c0.37362,0.39759 0.7426,0.79762 1.10692,1.2v0h-16.02765v0l-0.98742,1.2v0h18.08179v0c0.34723,0.39787 0.69001,0.7979 1.02834,1.2v0h-19.32075v0c0.46021,0.39587 0.91431,0.79592 1.3623,1.2v0h18.95003v0c0.32305,0.39812 0.64182,0.79815 0.95631,1.2v0h-18.6063v0c0.41972,0.39647 0.83374,0.79652 1.24205,1.2v0h18.28663v0c0.3007,0.39835 0.59727,0.79837 0.8897,1.2v0h-17.98852v0c0.38433,0.39696 0.76327,0.79701 1.13682,1.2v0h17.70984v0c0.27988,0.39855 0.55575,0.79857 0.82761,1.2v0h-17.44873v0c0.35285,0.39738 0.70057,0.79742 1.04315,1.2v0h17.20363v0c0.26036,0.39873 0.5168,0.79876 0.76934,1.2v0h-16.97311v0c0.32445,0.39773 0.64399,0.79777 0.95858,1.2v0h16.75597v0c0.24191,0.3989 0.48,0.79892 0.71427,1.2v0h-16.55115v0c0.2985,0.39804 0.59225,0.79808 0.88123,1.2v0h16.35771v0c0.22439,0.39906 0.44503,0.79908 0.66192,1.2v0h-16.1748v0c0.27453,0.39832 0.54444,0.79835 0.80972,1.2v0h16.00171v0c0.20764,0.39921 0.4116,0.79923 0.61186,1.2v0h-15.83776v0c0.25216,0.39856 0.49981,0.79859 0.74295,1.2v0h15.68238v0c0.19154,0.39935 0.37944,0.79937 0.56371,1.2v0h-15.53502v0c0.2311,0.39879 0.45778,0.79882 0.68003,1.2v0h15.39526v0c0.17599,0.39948 0.34839,0.7995 0.51718,1.2v0h-15.26265v0c0.2111,0.39899 0.41785,0.79902 0.62024,1.2v0h15.13683v0c0.16089,0.39961 0.31822,0.79963 0.47197,1.2v0h-15.01746v0c0.19197,0.39919 0.37963,0.79922 0.56298,1.2v0h14.90425v0c0.14616,0.39974 0.28876,0.79976 0.42781,1.2v0h-14.79692v0c0.17352,0.39937 0.34276,0.7994 0.50773,1.2v0h14.69525v0c0.1317,0.39986 0.25986,0.79988 0.38448,1.2v0h-14.599v0c0.1556,0.39955 0.30695,0.79958 0.45404,1.2v0h14.50803v0c0.11746,0.39998 0.23138,0.8 0.34176,1.2v0h-14.42213v0c0.13809,0.39972 0.27193,0.79975 0.40151,1.2v0h14.34119v0c0.10336,0.40011 0.20317,0.80013 0.29944,1.2v0h-14.26507v0c0.12084,0.39989 0.23744,0.79991 0.34976,1.2v0h14.19367v0c0.08933,0.40023 0.1751,0.80025 0.2573,1.2v0h-14.1269v0c0.10376,0.40005 0.20324,0.80008 0.29843,1.2v0h14.0647v0c0.0753,0.40036 0.147,0.80038 0.21513,1.2v0h-14.00415v0l0.27208,1.2h-0.55169h-58.69457v0c-1.81721,-0.40305 -3.63522,-0.80305 -5.45404,-1.2v0h59.48342v0c-1.57328,-0.40238 -3.14713,-0.80238 -4.72154,-1.2v0h-60.30579v0c-1.8784,-0.40322 -3.75765,-0.80322 -5.63777,-1.2v0h61.16137v0c-1.61438,-0.40249 -3.22937,-0.80248 -4.84498,-1.2v0h-62.05234v0c-1.94534,-0.40342 -3.89159,-0.80341 -5.83877,-1.2v0h62.98109v0c-1.65849,-0.4026 -3.31764,-0.8026 -4.97747,-1.2v0h-63.95022v0c-2.01897,-0.40364 -4.03893,-0.80363 -6.05988,-1.2v0h64.96265v0c-1.70598,-0.40272 -3.41269,-0.80272 -5.12014,-1.2v0h-66.02156v0c-2.10048,-0.40389 -4.20204,-0.80389 -6.30466,-1.2v0h67.13054v0c-1.75729,-0.40286 -3.51539,-0.80286 -5.27429,-1.2v0h-68.29352v0c-2.19136,-0.40418 -4.38389,-0.80417 -6.57758,-1.2v0h69.51494v0c-1.81296,-0.40301 -3.62679,-0.80301 -5.44152,-1.2v0h-70.79977v0c-2.29354,-0.40452 -4.58835,-0.80451 -6.88444,-1.2v0h72.48264l0.00829,0.0724l0.84104,0.18162v0c1.45132,0.31341 2.90206,0.62874 4.35224,0.94598" fill-rule="nonzero" stroke-linejoin="miter" stroke-miterlimit="10"/><path d="M943.82236,208.96168c-1.761,-0.40289 -3.52275,-0.80289 -5.28526,-1.2v0h67.97715v0c0.0541,0.40055 0.10456,0.80057 0.15138,1.2v0h-62.84327v0c1.73602,0.39718 3.47131,0.79718 5.20587,1.2v0h57.76888v0l0.03772,0.35532v0l0.79385,0.21422v0c0.77656,0.20956 1.55297,0.41971 2.32922,0.63046v0h-55.80014v0c1.68604,0.39731 3.37139,0.79731 5.05605,1.2v0h55.1391v0c1.44917,0.39792 2.8978,0.79792 4.34591,1.2v0h-54.49974v0c1.63966,0.39743 3.27866,0.79743 4.91701,1.2v0h53.88095v0c1.41778,0.39799 2.83507,0.79799 4.25187,1.2v0h-53.28169v0c1.59646,0.39754 3.1923,0.79754 4.78752,1.2v0h52.70095v0c1.38809,0.39805 2.77573,0.79805 4.16292,1.2v0h-52.13784v0c1.55611,0.39765 3.11163,0.79764 4.66656,1.2v0h51.59151v0c1.35997,0.39811 2.71953,0.79811 4.07867,1.2v0h-51.0612v0c1.5183,0.39774 3.03605,0.79774 4.55323,1.2v0h50.54614v0c1.33329,0.39817 2.6662,0.79817 3.99872,1.2v0h-50.04568v0c1.48279,0.39782 2.96506,0.79782 4.44678,1.2v0h49.55915v0c1.30794,0.39822 2.61551,0.79822 3.92273,1.2v0h-49.08597v0c1.44936,0.3979 2.89821,0.7979 4.34654,1.2v0h48.62557v0c1.2539,0.38899 2.50749,0.77964 3.76076,1.17193l0.08968,0.02807h-48.17744v0c1.41781,0.39798 2.83512,0.79798 4.25195,1.2v0h59.55271v0c0.12317,0.39906 0.2446,0.79906 0.36428,1.2v0h-55.71038v0c1.38797,0.39805 2.77546,0.79804 4.16249,1.2v0h51.90004v0c0.11122,0.38559 0.22083,0.77202 0.32881,1.15926l0.01136,0.04074h-48.12066v0c1.3597,0.39811 2.71895,0.79811 4.07774,1.2v0h46.11047v0c1.21847,0.3986 2.43602,0.79858 3.65283,1.2v0h-45.72631v0c1.33286,0.39817 2.66529,0.79817 3.99728,1.2v0h45.35147v0c1.19808,0.39853 2.39564,0.79851 3.59287,1.2v0h-44.98578v0c1.30735,0.39823 2.61428,0.79822 3.92079,1.2v0h44.62956v0l3.55511,1.2v0h-44.30075v0c1.28305,0.39828 2.5657,0.79828 3.84794,1.2v0h40.80927v0v1.2v0h-36.99647v0c1.25988,0.39833 2.51936,0.79833 3.77846,1.2v0h33.21801v0v1.2v0h-29.47309v0c1.23775,0.39837 2.47511,0.79837 3.71211,1.2v0h25.76098v0v1.2v0h-22.08094v0c1.21658,0.39842 2.4328,0.79842 3.64866,1.2v0h18.43228v0v1.2v0h-14.81432l0.22149,0.07379l0.82055,0.27344v0v0.85277v0h13.77228v0v1.2v0h-13.77228v0v1.2v0h13.77228v0v1.2v0h-13.77228v0v1.2v0h13.77228v0v1.2v0h-13.77228v0v1.2v0h13.77228v0v1.2v0h-13.77228v0v1.2v0h13.77228v0v1.2v0h-57.339v0c-1.33288,-0.40185 -2.66619,-0.80185 -3.99992,-1.2v0h45.74121v0c-1.2172,-0.40158 -2.43474,-0.80158 -3.65262,-1.2v0h-46.12849v0c-1.35987,-0.40191 -2.72017,-0.80191 -4.08092,-1.2v0h46.52545v0c-1.23831,-0.40163 -2.47697,-0.80163 -3.71599,-1.2v0h-46.9325v0c-1.3883,-0.40197 -2.77706,-0.80197 -4.16628,-1.2v0h47.35003v0c-1.26038,-0.40168 -2.52114,-0.80167 -3.78226,-1.2v0h-47.7785v0c-1.41832,-0.40204 -2.83713,-0.80204 -4.25641,-1.2v0h48.21836v0c-1.2835,-0.40173 -2.56738,-0.80172 -3.85165,-1.2v0h-48.67009v0c-1.45008,-0.40212 -2.90066,-0.80212 -4.35174,-1.2v0h49.13425v0c-1.30773,-0.40178 -2.61587,-0.80178 -3.9244,-1.2v0h-49.61136v0c-1.48374,-0.4022 -2.968,-0.8022 -4.45278,-1.2v0h50.10203v0c-1.33318,-0.40183 -2.66678,-0.80183 -4.00079,-1.2v0h-50.60687v0c-1.5195,-0.40228 -3.03955,-0.80228 -4.56014,-1.2v0h51.12657v0c-1.35994,-0.40189 -2.72032,-0.80189 -4.08113,-1.2v0h-51.66182v0c-1.55758,-0.40238 -3.11574,-0.80238 -4.67447,-1.2v0h52.21341v0c-1.38814,-0.40196 -2.77671,-0.80196 -4.16575,-1.2v0h-52.78216v0c-1.59825,-0.40248 -3.1971,-0.80248 -4.79656,-1.2v0h53.36891v0c-1.41789,-0.40203 -2.83624,-0.80202 -4.25507,-1.2v0h-53.97463v0c-1.6418,-0.40259 -3.28423,-0.80259 -4.92731,-1.2v0h54.60031v0c-1.44935,-0.4021 -2.89918,-0.8021 -4.34951,-1.2v0h-55.24706v0c-1.68858,-0.40272 -3.37785,-0.80271 -5.06779,-1.2v0h55.91603v0c-1.48268,-0.40218 -2.96587,-0.80218 -4.44958,-1.2v0h-56.60849v0c-1.73902,-0.40285 -3.47877,-0.80285 -5.21923,-1.2v0h57.32582v0c-1.51807,-0.40226 -3.03669,-0.80226 -4.55584,-1.2v0h-58.06948v0c-1.79361,-0.403 -3.58798,-0.803 -5.38311,-1.2v0h58.84109v0c-1.55575,-0.40236 -3.11206,-0.80235 -4.66895,-1.2v0h-59.64241v0c-1.85293,-0.40317 -3.70667,-0.80316 -5.56123,-1.2v0h60.47532v0c-1.59596,-0.40246 -3.19251,-0.80245 -4.78967,-1.2v0h-61.34192v0c-1.9177,-0.40336 -3.83628,-0.80335 -5.75573,-1.2v0h62.24449v0c-1.639,-0.40257 -3.27863,-0.80256 -4.91889,-1.2v0h-63.18552v0c-1.98881,-0.40357 -3.97856,-0.80356 -5.96925,-1.2v0h64.16779v0c-1.6852,-0.40269 -3.37107,-0.80268 -5.0576,-1.2v0h-65.19432v0c-2.06734,-0.40381 -4.1357,-0.8038 -6.20507,-1.2v0h66.26849v0c-1.73497,-0.40282 -3.47066,-0.80282 -5.20705,-1.2v0h-67.39402v0c-2.15467,-0.40408 -4.31043,-0.80408 -6.4673,-1.2v0h68.5751v0c-1.7888,-0.40297 -3.57834,-0.80296 -5.36864,-1.2v0h-69.81637v0c-2.25253,-0.4044 -4.50626,-0.8044 -6.7612,-1.2v0h71.12305v0c-1.84723,-0.40313 -3.69527,-0.80313 -5.54411,-1.2v0h-72.50105v0c-2.36323,-0.40478 -4.72778,-0.80477 -7.09365,-1.2v0h73.95703v0c-1.91098,-0.40331 -3.82283,-0.80331 -5.73553,-1.2v0h-75.49855v0c-2.48978,-0.40522 -4.98103,-0.80521 -7.47375,-1.2v0h77.13432v0c-1.98088,-0.40352 -3.96269,-0.80351 -5.94542,-1.2v0h-78.87429v0c-2.63634,-0.40576 -5.27433,-0.80575 -7.91396,-1.2v0h80.73v0c-2.05798,-0.40375 -4.11695,-0.80375 -6.17693,-1.2v0h-82.71488v0c-2.80874,-0.40643 -5.61935,-0.80642 -8.43182,-1.2v0h84.84471v0c-2.14358,-0.40402 -4.28825,-0.80401 -6.434,-1.2v0h-87.13815v0c-3.01551,-0.40728 -6.03315,-0.80726 -9.05295,-1.2v0h89.61748v0c-2.23936,-0.40433 -4.47991,-0.80432 -6.72163,-1.2v0h-92.30961v0c-3.26969,-0.40839 -6.54189,-0.80837 -9.81663,-1.2v0h95.24739v0c-2.34747,-0.40469 -4.69624,-0.80468 -7.04631,-1.2v0h-98.47152v0c-3.59255,-0.40991 -7.18813,-0.80988 -10.78676,-1.2v0h102.03315v0c-2.47078,-0.40512 -4.94299,-0.80511 -7.41665,-1.2v0h-105.99786v0c-4.02156,-0.41212 -8.04692,-0.81208 -12.0761,-1.2v0h110.45152v0c-2.61317,-0.40564 -5.22796,-0.80563 -7.84435,-1.2v0h-115.50971v0c-4.631,-0.41563 -9.26704,-0.81558 -13.90813,-1.2v0h121.33329v0c-2.78008,-0.40628 -5.56199,-0.80626 -8.34572,-1.2v0h-128.15592v0c-5.59681,-0.4221 -11.20097,-0.822 -16.8125,-1.2v0h136.33739v0c-2.97938,-0.40708 -5.96087,-0.80707 -8.94445,-1.2v0h-146.4789v0c-7.49781,-0.43803 -15.00877,-0.83779 -22.53296,-1.2v0h159.72102v0c-3.22301,-0.40813 -6.44847,-0.80811 -9.67639,-1.2v0h-178.78409v0c-15.67311,-0.55558 -31.4035,-0.95349 -47.19181,-1.2v0h215.86685v0c-3.53011,-0.40954 -7.06316,-0.80952 -10.59916,-1.2v0h-379.7214v0v-1.2v0h368.56082v0c-3.93381,-0.41158 -7.87128,-0.81154 -11.81241,-1.2v0h-356.74841v0v-1.2v0h344.16677v0c-4.49795,-0.41473 -9.00068,-0.81468 -13.50821,-1.2v0h-330.65856v0v-1.2v0h316.00453v0c-5.36708,-0.42033 -10.74096,-0.82024 -16.12169,-1.2v0h-299.88284v0v1.2" fill-rule="nonzero" stroke-linejoin="miter" stroke-miterlimit="10"/><path d="M926.18684,189.76168h-79.39681" fill-rule="nonzero" stroke-linejoin="miter" stroke-miterlimit="10"/><path d="M912.08261,188.02569l-1.7945,-0.36831" fill-rule="nonzero" stroke-linejoin="miter" stroke-miterlimit="10"/><path d="M892.14404,129.76168h0.18206v0c0.47063,0.39538 0.9372,0.79544 1.39966,1.2v0h-2.57233v0l-0.99062,1.2v0h4.9082v0c0.43548,0.39605 0.86714,0.7961 1.29493,1.2v0h-7.19374v0l-0.99062,1.2v0h9.4325v0c0.40512,0.39659 0.80661,0.79664 1.20442,1.2v0h-11.62753v0l-0.99062,1.2v0h13.78156v0c0.37842,0.39704 0.75334,0.79708 1.12475,1.2v0h-15.89692v0l-0.99062,1.2v0h17.97576v0c0.35456,0.39742 0.70576,0.79745 1.05356,1.2v0h-19.42367v0c0.46043,0.3948 0.91655,0.79487 1.36831,1.2v0h19.07591v0c0.33297,0.39774 0.66267,0.79778 0.98907,1.2v0h-18.75532v0c0.42269,0.39565 0.8413,0.79572 1.25579,1.2v0h18.45845v0c0.3132,0.39803 0.62322,0.79806 0.93,1.2v0h-18.18243v0c0.39049,0.39632 0.77709,0.79638 1.15973,1.2v0h17.92487v0c0.29492,0.39828 0.58671,0.79831 0.87534,1.2v0h-17.68376v0c0.36238,0.39687 0.721,0.79692 1.0758,1.2v0h17.45738v0c0.27787,0.39851 0.55264,0.79853 0.8243,1.2v0h-17.24427v0c0.33736,0.39732 0.67106,0.79737 1.00104,1.2v0h17.04318v0c0.26182,0.39871 0.52058,0.79874 0.77626,1.2v0h-16.85301v0c0.31474,0.39771 0.62589,0.79775 0.93339,1.2v0h16.67281v0c0.2466,0.3989 0.49017,0.79893 0.73068,1.2v0h-16.50175v0c0.294,0.39805 0.58445,0.79809 0.87131,1.2v0h16.33912v0c0.23207,0.39908 0.46112,0.7991 0.68713,1.2v0h-16.18426v0c0.27474,0.39834 0.54596,0.79838 0.81363,1.2v0h16.03663v0c0.21811,0.39924 0.4332,0.79927 0.64525,1.2v0h-15.89572v0c0.25667,0.39861 0.50984,0.79865 0.75946,1.2v0h15.76109v0c0.2046,0.3994 0.40618,0.79942 0.60471,1.2v0h-15.63235v0c0.23953,0.39886 0.47556,0.79889 0.70805,1.2v0h15.50915v0c0.19145,0.39955 0.37987,0.79957 0.56523,1.2v0h-15.3912v0c0.22313,0.39908 0.44274,0.79912 0.6588,1.2v0h15.2782v0c0.17858,0.3997 0.3541,0.79972 0.52654,1.2v0h-15.16991v0c0.20729,0.3993 0.41105,0.79933 0.61122,1.2v0h15.06613v0c0.16591,0.39984 0.32872,0.79986 0.48843,1.2v0h-14.96666v0c0.19187,0.3995 0.38016,0.79953 0.56484,1.2v0h14.87134v0c0.15335,0.39998 0.30358,0.8 0.45066,1.2v0h-14.78001v0c0.17674,0.39969 0.34985,0.79973 0.51929,1.2v0h14.69257v0c0.14085,0.40012 0.27853,0.80015 0.41302,1.2v0h-14.60888v0c0.16177,0.39989 0.31985,0.79992 0.4742,1.2v0h14.52887v0c0.12834,0.40026 0.25344,0.80029 0.3753,1.2v0h-14.45246v0c0.14685,0.40008 0.28994,0.80011 0.42921,1.2v0h14.37959v0c0.11573,0.40041 0.22816,0.80043 0.33728,1.2v0h-14.31023v0c0.13187,0.40027 0.25987,0.8003 0.38397,1.2v0h14.24434v0c0.10295,0.40056 0.20253,0.80058 0.29872,1.2v0h-14.1819v0c0.1167,0.40047 0.22943,0.8005 0.33815,1.2v0h14.12293v0c0.08994,0.40072 0.17641,0.80074 0.2594,1.2v0h-14.06743v0c0.10123,0.40067 0.19836,0.8007 0.29136,1.2v0h14.01544v0c0.07659,0.40088 0.14961,0.80091 0.21905,1.2v0h-13.96701l0.01571,0.07401l0.23826,1.12599v0h13.91144v0c0.06281,0.40105 0.12194,0.80108 0.17737,1.2v0h-86.4737v0c-2.47373,-0.40514 -4.94895,-0.80514 -7.42564,-1.2v0h76.71266v0c-1.97462,-0.4035 -3.95,-0.80349 -5.92617,-1.2v0h-78.4194v0c-2.61719,-0.40567 -5.23603,-0.80566 -7.85653,-1.2v0h80.23877v0c-2.05041,-0.40372 -4.10169,-0.80372 -6.15389,-1.2v0h-82.18363v0c-2.78555,-0.40632 -5.57298,-0.80631 -8.36228,-1.2v0h84.26901v0c-2.13454,-0.40398 -4.27009,-0.80397 -6.40669,-1.2v0h-86.51271v0c-2.9869,-0.40714 -5.97595,-0.80712 -8.96716,-1.2v0h88.93595v0c-2.22858,-0.40427 -4.45834,-0.80426 -6.68931,-1.2v0h-91.56425v0c-3.23353,-0.40821 -6.46958,-0.80819 -9.70815,-1.2v0h94.42876v0c-2.33457,-0.4046 -4.67052,-0.80459 -7.00787,-1.2v0h-97.56786v0c-3.54526,-0.40966 -7.09355,-0.80963 -10.64487,-1.2v0h101.23318l0.00463,0.03412l0.87385,0.1447v0c2.03478,0.33694 4.06846,0.67733 6.10107,1.02118" fill-rule="nonzero" stroke-linejoin="miter" stroke-miterlimit="10"/><path d="M807.61939,110.56168h-0.46546v0l-0.98601,1.2v0h2.84835v0c-0.46169,-0.40488 -0.92733,-0.80495 -1.39688,-1.2v0c-0.09174,-0.07719 -0.18363,-0.15418 -0.27567,-0.23098v0l-0.18979,0.23098" fill-rule="nonzero" stroke-linejoin="miter" stroke-miterlimit="10"/><path d="M804.19589,114.16168l0.98601,-1.2v0h5.17589v0c0.43391,0.39583 0.86419,0.79589 1.2908,1.2v0h-7.4527v0l-0.98601,1.2v0h9.68275v0c0.40367,0.39645 0.80392,0.79651 1.20071,1.2v0h-11.86948v0l-0.98601,1.2v0h14.01585v0c0.37747,0.39696 0.75168,0.79701 1.12261,1.2v0h-16.12447v0l-0.98602,1.2v0h18.19765v0c0.35438,0.39739 0.70563,0.79743 1.05373,1.2v0h-19.40213v0c0.45945,0.39454 0.9148,0.79462 1.36598,1.2v0h19.05827v0c0.33374,0.39775 0.66445,0.79779 0.99212,1.2v0h-18.74324v0c0.42174,0.3955 0.83965,0.79558 1.25367,1.2v0h18.45314v0c0.31505,0.39807 0.62716,0.79811 0.93631,1.2v0h-18.18477v0c0.39015,0.39626 0.77667,0.79632 1.15951,1.2v0h17.93549v0c0.29795,0.39835 0.59303,0.79839 0.88521,1.2v0h-17.70308v0c0.36301,0.39686 0.72254,0.79692 1.07855,1.2v0h17.48568v0c0.28215,0.39861 0.56148,0.79864 0.83796,1.2v0h-17.2817v0c0.33921,0.39736 0.67506,0.79742 1.0075,1.2v0h17.08976v0c0.26742,0.39884 0.53206,0.79887 0.79388,1.2v0h-16.90872v0c0.31798,0.39779 0.63267,0.79784 0.94404,1.2v0h16.73753v0c0.25358,0.39906 0.50439,0.79909 0.75241,1.2v0h-16.57533v0c0.29874,0.39817 0.59427,0.79821 0.88652,1.2v0h16.42133v0c0.24047,0.39926 0.47817,0.79929 0.71311,1.2v0h-16.27486v0c0.2811,0.3985 0.55901,0.79854 0.83369,1.2v0h16.13532v0c0.22795,0.39945 0.45316,0.79948 0.67559,1.2v0h-16.00219v0c0.26471,0.3988 0.52625,0.79884 0.78459,1.2v0h15.87498v0c0.21593,0.39964 0.42911,0.79967 0.6395,1.2v0h-15.75328v0c0.24933,0.39908 0.49549,0.79912 0.73846,1.2v0h15.63672v0c0.2043,0.39982 0.40583,0.79985 0.60456,1.2v0h-15.52496v0c0.23475,0.39934 0.46631,0.79938 0.69467,1.2v0h15.41772v0c0.19298,0.39999 0.38315,0.80002 0.5705,1.2v0h-15.31473v0c0.22078,0.39959 0.43836,0.79963 0.6527,1.2v0h15.21576v0c0.18187,0.40017 0.3609,0.8002 0.53707,1.2v0h-15.12058v0c0.20729,0.39983 0.41133,0.79987 0.61209,1.2v0h15.02902v0c0.17091,0.40035 0.33893,0.80038 0.50405,1.2v0h-14.94091v0c0.19412,0.40007 0.38494,0.80011 0.57242,1.2v0h14.85611v0c0.16002,0.40054 0.31708,0.80057 0.47119,1.2v0h-14.77449v0c0.18116,0.40031 0.35894,0.80035 0.53331,1.2v0h14.69593v0c0.14911,0.40073 0.2952,0.80076 0.43826,1.2v0h-14.62034v0c0.16828,0.40056 0.33309,0.8006 0.4944,1.2v0h14.54764v0c0.13811,0.40093 0.27312,0.80096 0.40501,1.2v0h-14.47777v0c0.15535,0.40082 0.30713,0.80086 0.45529,1.2v0h14.41068v0c0.12694,0.40115 0.25067,0.80118 0.37119,1.2v0h-14.34633v0c0.14225,0.40109 0.28079,0.80113 0.41559,1.2v0h14.2847v0c0.11549,0.40138 0.22765,0.80141 0.33648,1.2v0h-14.22579v0c0.12884,0.40138 0.25381,0.80143 0.37487,1.2v0h14.16961v0c0.10365,0.40164 0.20384,0.80167 0.30055,1.2v0h-14.11619v0c0.11494,0.4017 0.22583,0.80175 0.33261,1.2v0h14.06558v0c0.09129,0.40192 0.17896,0.80196 0.26298,1.2v0h-14.01784v0c0.10037,0.40206 0.19645,0.80211 0.2882,1.2v0h13.97307v0c0.07826,0.40224 0.15269,0.80228 0.22328,1.2v0h-13.93031v0l0.26022,1.2v0h13.87254v0c0.06434,0.40261 0.12462,0.80265 0.18082,1.2v0h-112.28554v0c-3.95669,-0.41175 -7.91713,-0.81172 -11.88135,-1.2v0h109.18397v0l-0.76614,-0.11942v0c-2.33982,-0.3647 -4.68102,-0.72489 -7.02363,-1.08058v0h-114.06267v0c-4.53509,-0.41504 -9.07511,-0.81499 -13.62009,-1.2v0h119.65866v0c-2.75792,-0.40616 -5.51778,-0.80615 -8.27962,-1.2v0h-126.18175v0c-5.43549,-0.42094 -10.87805,-0.82085 -16.32772,-1.2v0h133.95114v0c-2.95235,-0.40693 -5.90697,-0.80691 -8.86387,-1.2v0h-143.48768v0c-7.13951,-0.43473 -14.29118,-0.83454 -21.45509,-1.2v0h155.74197v0c-3.18893,-0.40792 -6.38054,-0.8079 -9.57486,-1.2v0h-172.81777v0c-13.01266,-0.50888 -26.0656,-0.90773 -39.15918,-1.2v0h205.40854l-0.03302,-0.59472c-0.01122,-0.20205 -0.02301,-0.40381 -0.03538,-0.60528" fill-rule="nonzero" stroke-linejoin="miter" stroke-miterlimit="10"/><path d="M762.99472,163.88912l-0.99961,-0.11974" fill-rule="nonzero" stroke-linejoin="miter" stroke-miterlimit="10"/><path d="M723.37908,90.16168h-1.50171v0l-0.99061,1.2v0h3.89711v0c-0.4646,-0.40197 -0.93287,-0.80197 -1.40479,-1.2v0c-0.29464,-0.2485 -0.5907,-0.49624 -0.88817,-0.74322v0l-0.61354,0.74322" fill-rule="nonzero" stroke-linejoin="miter" stroke-miterlimit="10"/><path d="M718.90553,93.76168l0.99061,-1.2v0h6.25706v0c0.44844,0.39808 0.8933,0.79807 1.33455,1.2v0h-8.58222v0l-0.99061,1.2v0h10.8733v0c0.42587,0.39812 0.84822,0.79812 1.26703,1.2v0h-13.13095v0l-0.99061,1.2v0h15.35581v0c0.40416,0.39816 0.80487,0.79816 1.20209,1.2v0h-17.54852v0l-0.99061,1.2v0h19.70966v0c0.38326,0.3982 0.76312,0.7982 1.13957,1.2v0h-19.92592v0c0.46471,0.39762 0.92551,0.79762 1.38233,1.2v0h19.65277v0c0.36312,0.39824 0.72292,0.79824 1.07936,1.2v0h-19.38945v0c0.43852,0.3977 0.87319,0.79769 1.30396,1.2v0h19.13556v0c0.34372,0.39828 0.68416,0.79828 1.02131,1.2v0h-18.89076v0c0.41351,0.39777 0.82323,0.79776 1.22912,1.2v0h18.65472v0c0.325,0.39832 0.64678,0.79831 0.96533,1.2v0h-18.42712v0c0.38959,0.39784 0.77545,0.79783 1.15755,1.2v0h18.20766v0c0.30694,0.39835 0.61072,0.79835 0.91132,1.2v0h-17.99606v0c0.36668,0.3979 0.72971,0.79789 1.08903,1.2v0h17.79203v0c0.28949,0.39838 0.57588,0.79838 0.85914,1.2v0h-17.59533v0c0.34473,0.39796 0.68586,0.79795 1.02335,1.2v0h17.40571v0c0.27264,0.39842 0.54222,0.79841 0.80873,1.2v0h-17.22293v0c0.32365,0.39802 0.64377,0.79801 0.96031,1.2v0h17.04678v0c0.25634,0.39845 0.50968,0.79844 0.76,1.2v0h-16.87705v0c0.30341,0.39807 0.60335,0.79807 0.89976,1.2v0h16.71352v0c0.24057,0.39848 0.4782,0.79847 0.71285,1.2v0h-16.55601v0c0.28394,0.39812 0.56446,0.79812 0.84152,1.2v0h16.40433v0c0.22531,0.39851 0.44773,0.7985 0.66722,1.2v0h-16.25831v0c0.2652,0.39817 0.52704,0.79817 0.78547,1.2v0h16.11778v0c0.21053,0.39853 0.41821,0.79853 0.62302,1.2v0h-15.98259v0c0.24714,0.39821 0.49098,0.79821 0.73147,1.2v0h15.85256v0c0.19621,0.39856 0.38962,0.79856 0.5802,1.2v0h-15.72758v0c0.22973,0.39826 0.45621,0.79826 0.67939,1.2v0h15.60746v0c0.18233,0.39859 0.3619,0.79859 0.53869,1.2v0h-15.49213v0c0.21292,0.3983 0.42264,0.7983 0.62912,1.2v0h15.3814v0c0.16886,0.39861 0.33501,0.79861 0.49842,1.2v0h-15.27519v0c0.19669,0.39834 0.39023,0.79834 0.58057,1.2v0h15.17335v0c0.1558,0.39864 0.30892,0.79864 0.45934,1.2v0h-15.07579v0c0.181,0.39838 0.35888,0.79838 0.53363,1.2v0h14.98239v0c0.14311,0.39866 0.28358,0.79866 0.4214,1.2v0h-14.89305v0c0.16581,0.39841 0.32856,0.79841 0.48822,1.2v0h14.80768v0c0.13079,0.39868 0.25897,0.79868 0.38455,1.2v0h-14.72615v0c0.15112,0.39845 0.29921,0.79845 0.44427,1.2v0h14.6484v0c0.11881,0.39871 0.23507,0.7987 0.34875,1.2v0h-14.57434v0c0.13688,0.39848 0.27079,0.79848 0.4017,1.2v0h14.50385v0c0.10717,0.39873 0.21183,0.79873 0.31394,1.2v0h-14.4369v0c0.12308,0.39851 0.24322,0.79851 0.36042,1.2v0h14.37336v0c0.09585,0.39875 0.18921,0.79875 0.28008,1.2v0h-14.31319v0c0.10969,0.39855 0.2165,0.79854 0.32039,1.2v0h14.25629v0c0.08483,0.39877 0.16721,0.79877 0.24713,1.2v0h-14.20261v0c0.09669,0.39858 0.19054,0.79857 0.28152,1.2v0h14.15208v0c0.07411,0.39879 0.14579,0.79879 0.21506,1.2v0h-14.10461v0c0.08408,0.3986 0.16534,0.7986 0.24379,1.2v0h14.06017v0c0.06366,0.39881 0.12495,0.79881 0.18384,1.2v0h-14.01868v0c0.07182,0.39863 0.14086,0.79863 0.20712,1.2v0h13.98009v0c0.05349,0.39883 0.10463,0.79883 0.15342,1.2v0h-13.94433v0c0.05989,0.39866 0.11707,0.79866 0.17149,1.2v0h13.91134v0c0.04358,0.39885 0.08483,0.79884 0.12377,1.2v0h-13.88109v0c0.0483,0.39868 0.09391,0.79868 0.13681,1.2v0h13.85352v0c0.03391,0.39886 0.06553,0.79886 0.09487,1.2v0h-13.82816v0l0.11512,1.2h-0.0244h-382.0389v0v-1.2v0h371.02654v0c-3.87382,-0.41126 -7.75081,-0.81122 -11.63114,-1.2v0h-359.3954v0v-1.2v0h347.03075v0c-4.41013,-0.41422 -8.82479,-0.81417 -13.2442,-1.2v0h-333.78655v0v-1.2v0h319.46148v0c-1.54031,-0.12362 -3.08123,-0.24554 -4.62277,-0.36579v0l-0.98843,-0.07711v0l-0.08509,-0.7571v0h-313.76519v0v-0.84327" fill-rule="nonzero" stroke-linejoin="miter" stroke-miterlimit="10"/><path d="M637.42109,77.65689l-0.41582,0.50479v0h1.01642v0c0.46712,0.39567 0.9309,0.79572 1.39133,1.2v0h-3.39626v0l-0.9885,1.2v0h5.72799v0c0.436,0.39625 0.86888,0.79629 1.29861,1.2v0h-8.01511v0l-0.9885,1.2v0h10.26064v0c0.40901,0.39673 0.81508,0.79676 1.21815,1.2v0h-12.4673v0l-0.9885,1.2v0h14.63742v0c0.38524,0.39712 0.76764,0.79715 1.14721,1.2v0h-16.77314v0l-0.9885,1.2v0h18.87633v0c0.36401,0.39746 0.7253,0.79749 1.08385,1.2v0h-19.54528v0c0.45795,0.39525 0.9124,0.79531 1.36332,1.2v0h19.23649v0c0.34483,0.39775 0.68705,0.79778 1.02661,1.2v0h-18.95086v0c0.42502,0.39595 0.84676,0.796 1.26517,1.2v0h18.6856v0c0.32734,0.398 0.65213,0.79803 0.97436,1.2v0h-18.43842v0c0.39677,0.39652 0.79043,0.79656 1.18093,1.2v0h18.20734v0c0.31125,0.39823 0.62001,0.79825 0.92627,1.2v0h-17.99066v0c0.37209,0.39698 0.7412,0.79702 1.10728,1.2v0h17.78696v0c0.29633,0.39843 0.59023,0.79846 0.88167,1.2v0h-17.59498v0c0.35017,0.39737 0.69747,0.79741 1.04185,1.2v0h17.41362v0c0.2824,0.39862 0.5624,0.79864 0.83999,1.2v0h-17.24195v0c0.33045,0.39771 0.6581,0.79775 0.98293,1.2v0h17.07912v0c0.2693,0.39878 0.53624,0.79881 0.8008,1.2v0h-16.9244v0c0.3125,0.398 0.62227,0.79804 0.92928,1.2v0h16.77713v0c0.25691,0.39894 0.51149,0.79896 0.76371,1.2v0h-16.63673v0c0.29599,0.39826 0.58931,0.79829 0.87991,1.2v0h16.50268v0c0.24513,0.39909 0.48795,0.79911 0.72843,1.2v0h-16.37452v0c0.28067,0.3985 0.5587,0.79852 0.83406,1.2v0h16.25183v0c0.23387,0.39922 0.46543,0.79924 0.69468,1.2v0h-16.13425v0c0.26633,0.39871 0.53005,0.79874 0.79113,1.2v0h16.02143v0c0.22305,0.39935 0.4438,0.79937 0.66224,1.2v0h-15.91308v0c0.25281,0.3989 0.50303,0.79893 0.75062,1.2v0h15.8089v0c0.2126,0.39948 0.4229,0.7995 0.6309,1.2v0h-15.70866v0c0.23997,0.39908 0.47734,0.79911 0.71211,1.2v0h15.61213v0c0.20246,0.3996 0.40263,0.79962 0.60048,1.2v0h-15.5191v0c0.22769,0.39925 0.45279,0.79928 0.67528,1.2v0h15.42938v0c0.19258,0.39971 0.38287,0.79973 0.57083,1.2v0h-15.34282v0c0.21587,0.39941 0.42915,0.79944 0.63982,1.2v0h15.25923v0c0.18292,0.39983 0.36351,0.79985 0.54177,1.2v0h-15.1785v0c0.20443,0.39957 0.40625,0.79959 0.60545,1.2v0h15.10049v0c0.17341,0.39994 0.34448,0.79996 0.5132,1.2v0h-15.02509v0c0.19328,0.39972 0.38394,0.79974 0.57195,1.2v0h14.95219v0c0.16402,0.40006 0.32568,0.80007 0.48497,1.2v0h-14.88169v0c0.18236,0.39987 0.36207,0.79989 0.53911,1.2v0h14.81352v0c0.15471,0.40017 0.30702,0.80019 0.45694,1.2v0h-14.74758v0c0.1716,0.40002 0.34053,0.80004 0.50674,1.2v0h14.68382v0c0.14544,0.40028 0.28845,0.8003 0.42902,1.2v0h-14.62219v0c0.16094,0.40016 0.31916,0.80019 0.47462,1.2v0h14.56261v0c0.13615,0.4004 0.26984,0.80042 0.40104,1.2v0h-14.50505v0c0.15031,0.40031 0.29785,0.80034 0.44258,1.2v0h14.44947v0c0.12682,0.40052 0.25112,0.80054 0.3729,1.2v0h-14.39583v0c0.13966,0.40046 0.27647,0.80049 0.41042,1.2v0h14.34413v0c0.11739,0.40065 0.23221,0.80067 0.34445,1.2v0h-14.29432v0c0.12891,0.40062 0.25491,0.80065 0.37797,1.2v0h14.24642v0c0.10782,0.40078 0.21301,0.8008 0.31555,1.2v0h-14.20041v0c0.118,0.40078 0.23301,0.80081 0.345,1.2v0h14.1563v0c0.09806,0.40091 0.19341,0.80094 0.28605,1.2v0h-14.11411v0c0.10686,0.40096 0.21062,0.80098 0.31128,1.2v0h14.07384v0c0.08804,0.40106 0.1733,0.80108 0.25576,1.2v0h-14.03553v0c0.0954,0.40114 0.18759,0.80117 0.27657,1.2v0h13.99922v0c0.07771,0.40122 0.15255,0.80124 0.22449,1.2v0h-13.96495v0c0.08352,0.40134 0.16373,0.80137 0.24059,1.2v0h13.93278v0c0.06699,0.40139 0.131,0.80141 0.19201,1.2v0h-13.90279v0c0.07113,0.40156 0.1388,0.80159 0.20298,1.2v0h13.87504v0c0.05579,0.40157 0.10848,0.8016 0.15806,1.2v0h-13.84751v0l0.14077,0.92429v0l-1.49605,-0.1049v0c-4.05816,-0.28456 -8.11941,-0.55765 -12.18394,-0.81939v0h-281.13839v0l1.3041,-0.09123v0c5.64049,-0.39414 11.289,-0.76378 16.94594,-1.10877v0h242.80429v0c-8.03464,-0.44301 -16.08346,-0.84271 -24.14812,-1.2v0h-196.95686v0c2.4566,-0.1219 4.91488,-0.23915 7.37488,-0.35174v0l1.26508,-0.0579v0l-0.07896,-0.79036v0h13.81407v0l-0.08361,-0.90872l-0.02719,-0.29128h-13.82594v0c-0.0429,-0.39907 -0.08837,-0.79909 -0.1364,-1.2v0h13.84204v0c-0.04222,-0.3992 -0.0867,-0.79921 -0.13345,-1.2v0h-13.85962v0c-0.05265,-0.39918 -0.1078,-0.79919 -0.16544,-1.2v0h13.87865v0c-0.05086,-0.39928 -0.10394,-0.79929 -0.15922,-1.2v0h-13.89906v0c-0.06211,-0.39928 -0.12666,-0.79929 -0.19364,-1.2v0h13.92085v0c-0.05928,-0.39936 -0.12073,-0.79937 -0.18434,-1.2v0h-13.94396v0c-0.07132,-0.39937 -0.14503,-0.79938 -0.22111,-1.2v0h13.96837v0c-0.06751,-0.39943 -0.13716,-0.79944 -0.20892,-1.2v0h-13.99408v0c-0.08033,-0.39946 -0.163,-0.79947 -0.24799,-1.2v0h14.02104v0c-0.07559,-0.3995 -0.15327,-0.79951 -0.23303,-1.2v0h-14.04925v0c-0.08917,-0.39954 -0.18064,-0.79956 -0.27438,-1.2v0h14.0787v0c-0.08353,-0.39957 -0.16912,-0.79958 -0.25675,-1.2v0h-14.10937v0c-0.09788,-0.39963 -0.19801,-0.79964 -0.30037,-1.2v0h14.14125v0c-0.09136,-0.39964 -0.18474,-0.79965 -0.28014,-1.2v0h-14.17435v0c-0.10647,-0.39971 -0.21516,-0.79972 -0.32605,-1.2v0h14.20865v0c-0.0991,-0.3997 -0.20019,-0.79972 -0.30328,-1.2v0h-14.24417v0c-0.11499,-0.39979 -0.23216,-0.7998 -0.3515,-1.2v0h14.28089v0c-0.10678,-0.39977 -0.21552,-0.79978 -0.32623,-1.2v0h-14.31884v0c-0.12346,-0.39987 -0.24907,-0.79988 -0.37682,-1.2v0h14.35801v0c-0.1144,-0.39983 -0.23076,-0.79984 -0.34905,-1.2v0h-14.39841v0c-0.1319,-0.39994 -0.26593,-0.79996 -0.40208,-1.2v0h14.44008v0c-0.122,-0.39989 -0.24593,-0.79991 -0.37178,-1.2v0h-14.48301v0c-0.14035,-0.40002 -0.28281,-0.80003 -0.42736,-1.2v0h14.52723v0c-0.12959,-0.39996 -0.2611,-0.79997 -0.3945,-1.2v0h-14.57275v0c-0.14883,-0.4001 -0.29974,-0.80011 -0.45273,-1.2v0h14.61962v0c-0.13719,-0.40002 -0.27628,-0.80003 -0.41725,-1.2v0h-14.66784v0c-0.15736,-0.40018 -0.31678,-0.80019 -0.47827,-1.2v0h14.71745v0c-0.14482,-0.40008 -0.29152,-0.80009 -0.4401,-1.2v0h-14.76848v0c-0.16597,-0.40025 -0.334,-0.80027 -0.50408,-1.2v0h14.82098v0c-0.1525,-0.40014 -0.30687,-0.80015 -0.4631,-1.2v0h-14.87497v0c-0.17469,-0.40033 -0.35144,-0.80035 -0.53022,-1.2v0h14.93052v0c-0.16024,-0.40021 -0.32235,-0.80022 -0.48631,-1.2v0h-14.98765v0c-0.18356,-0.40042 -0.36916,-0.80043 -0.55679,-1.2v0h15.04643v0c-0.16808,-0.40027 -0.33801,-0.80028 -0.50979,-1.2v0h-15.1069v0c-0.19259,-0.4005 -0.38723,-0.80052 -0.58389,-1.2v0h15.16914v0c-0.17602,-0.40034 -0.35389,-0.80035 -0.5336,-1.2v0h-15.23319v0c-0.20183,-0.40059 -0.40571,-0.8006 -0.61161,-1.2v0h15.29915v0c-0.18409,-0.4004 -0.37004,-0.80041 -0.55782,-1.2v0h-15.36706v0c-0.21131,-0.40068 -0.42467,-0.80069 -0.64006,-1.2v0h15.43703v0c-0.19232,-0.40047 -0.38648,-0.80048 -0.58249,-1.2v0h-15.50915v0c-0.22108,-0.40078 -0.4442,-0.80079 -0.66937,-1.2v0h15.58348v0c-0.20072,-0.40054 -0.4033,-0.80055 -0.60772,-1.2v0h-15.66016v0c-0.23117,-0.40088 -0.4644,-0.80089 -0.69968,-1.2v0h15.73927v0c-0.20934,-0.40062 -0.42054,-0.80063 -0.63359,-1.2v0h-15.82094v0c-0.24164,-0.40098 -0.48536,-0.801 -0.73114,-1.2v0h15.90531v0c-0.21819,-0.40069 -0.43825,-0.8007 -0.66017,-1.2v0h-15.99249v0c-0.25255,-0.4011 -0.5072,-0.80111 -0.76392,-1.2v0h16.08266v0c-0.22731,-0.40077 -0.4565,-0.80078 -0.68756,-1.2v0h-16.17596v0c-0.26396,-0.40122 -0.53004,-0.80124 -0.79822,-1.2v0h16.27259v0c-0.23674,-0.40086 -0.47538,-0.80087 -0.71589,-1.2v0h-16.3727v0c-0.27595,-0.40135 -0.55404,-0.80137 -0.83426,-1.2v0h16.47652v0c-0.24652,-0.40095 -0.49494,-0.80096 -0.74526,-1.2v0h-16.58428v0c-0.2886,-0.40149 -0.57939,-0.80151 -0.87234,-1.2v0h16.69622v0c-0.25669,-0.40104 -0.5153,-0.80105 -0.77584,-1.2v0h-16.8126v0c-0.30203,-0.40165 -0.60629,-0.80167 -0.91275,-1.2v0h16.93372v0c-0.26731,-0.40114 -0.53657,-0.80116 -0.80777,-1.2v0h-17.0599v0c-0.31637,-0.40183 -0.63499,-0.80184 -0.95588,-1.2v0h17.19149v0c-0.27843,-0.40125 -0.55886,-0.80127 -0.84124,-1.2v0h-17.32888v0c-0.33176,-0.40202 -0.66584,-0.80204 -1.00223,-1.2v0h17.47251v0c-0.29014,-0.40137 -0.5823,-0.80138 -0.87645,-1.2v0h-17.62282v0c-0.34839,-0.40224 -0.69918,-0.80226 -1.05234,-1.2v0h17.78038v0c-0.3025,-0.4015 -0.60706,-0.80151 -0.91365,-1.2v0h-17.94575v0c-0.36652,-0.40248 -0.73549,-0.80251 -1.10692,-1.2v0h18.11957v0c-0.31563,-0.40164 -0.63335,-0.80165 -0.95315,-1.2v0h-18.3026v0c-0.38642,-0.40277 -0.7754,-0.80279 -1.16692,-1.2v0h18.49566v0c-0.32962,-0.40179 -0.66139,-0.80181 -0.99528,-1.2v0h-18.69967v0c-0.4085,-0.4031 -0.81966,-0.80313 -1.23347,-1.2v0h18.91569v0c-0.34462,-0.40197 -0.69146,-0.80198 -1.04047,-1.2v0h-19.1449v0c-0.43326,-0.40349 -0.86932,-0.80352 -1.30816,-1.2v0h19.38871v0c-0.36081,-0.40216 -0.72388,-0.80218 -1.08921,-1.2v0h-19.64866v0c-0.4614,-0.40396 -0.92576,-0.804 -1.39306,-1.2v0h19.92661v0c-0.37838,-0.40237 -0.7591,-0.80239 -1.14215,-1.2v0h-18.23911v0l0.99382,-1.2v0h16.07487v0c-0.39759,-0.40262 -0.79763,-0.80264 -1.20007,-1.2v0h-13.88098v0l0.99382,-1.2v0h11.65597v0c-0.41879,-0.40291 -0.84011,-0.80293 -1.26396,-1.2v0h-9.3982v0l0.99382,-1.2v0h7.10585v0c-0.44238,-0.40324 -0.88743,-0.80327 -1.33513,-1.2v0h-4.7769v0l0.99382,-1.2v0h2.40912v0c-0.46896,-0.40364 -0.94073,-0.80367 -1.4153,-1.2v0l-0.99382,1.2" fill-rule="nonzero" stroke-linejoin="miter" stroke-miterlimit="10"/><path d="M598.54639,150.9604l-1.04759,-0.04204" fill-rule="nonzero" stroke-linejoin="miter" stroke-miterlimit="10"/><path d="M582.24658,150.36492l1.3986,0.04612l-0.0301,-0.24936h13.812l-0.02706,-0.28546c-0.02884,-0.30427 -0.05927,-0.60912 -0.09126,-0.91454v0h-13.83855v0c-0.04846,-0.39897 -0.09999,-0.79899 -0.15456,-1.2v0h13.85965v0c-0.04695,-0.3991 -0.09655,-0.79912 -0.14879,-1.2v0h-13.88278v0c-0.06003,-0.39911 -0.12304,-0.79913 -0.18899,-1.2v0h13.90786v0c-0.05701,-0.39921 -0.11661,-0.79922 -0.17878,-1.2v0h-13.93486v0c-0.07123,-0.39923 -0.14536,-0.79925 -0.22235,-1.2v0h13.96374v0c-0.0668,-0.39931 -0.13614,-0.79932 -0.20798,-1.2v0h-13.99443v0c-0.08212,-0.39936 -0.16706,-0.79937 -0.2548,-1.2v0h14.02692v0c-0.07636,-0.3994 -0.15519,-0.79942 -0.23649,-1.2v0h-14.06118v0c-0.09277,-0.39947 -0.18829,-0.79949 -0.28655,-1.2v0h14.09718v0c-0.08573,-0.3995 -0.17389,-0.79951 -0.26447,-1.2v0h-14.13491v0c-0.10322,-0.39958 -0.20914,-0.7996 -0.31774,-1.2v0h14.17437v0c-0.09495,-0.39959 -0.19229,-0.7996 -0.292,-1.2v0h-14.21554v0c-0.11353,-0.39969 -0.2297,-0.79971 -0.34851,-1.2v0h14.25841v0c-0.10406,-0.39967 -0.21047,-0.79969 -0.31921,-1.2v0h-14.303v0c-0.12374,-0.3998 -0.25009,-0.79982 -0.37902,-1.2v0h14.34932v0c-0.11308,-0.39976 -0.22847,-0.79977 -0.34616,-1.2v0h-14.39737v0c-0.1339,-0.39991 -0.27037,-0.79992 -0.40939,-1.2v0h14.44717v0c-0.12204,-0.39984 -0.24637,-0.79985 -0.37297,-1.2v0h-14.49875v0c-0.14405,-0.40001 -0.29064,-0.80003 -0.43974,-1.2v0h14.55214v0c-0.13099,-0.39992 -0.26424,-0.79993 -0.39973,-1.2v0h-14.60736v0c-0.15423,-0.40012 -0.31097,-0.80013 -0.4702,-1.2v0h14.66445v0c-0.13994,-0.4 -0.28212,-0.80002 -0.42652,-1.2v0h-14.72345v0c-0.16449,-0.40022 -0.33147,-0.80024 -0.50091,-1.2v0h14.78442v0c-0.14892,-0.40008 -0.30006,-0.8001 -0.45341,-1.2v0h-14.84741v0c-0.17487,-0.40033 -0.3522,-0.80035 -0.53199,-1.2v0h14.91247v0c-0.15797,-0.40017 -0.31815,-0.80018 -0.48052,-1.2v0h-14.97968v0c-0.18541,-0.40044 -0.37328,-0.80046 -0.56359,-1.2v0h15.0491v0c-0.16711,-0.40025 -0.33643,-0.80026 -0.50792,-1.2v0h-15.12082v0c-0.19618,-0.40055 -0.3948,-0.80057 -0.59586,-1.2v0h15.19493v0c-0.17638,-0.40033 -0.35496,-0.80035 -0.53571,-1.2v0h-15.2715v0c-0.20721,-0.40067 -0.41687,-0.80069 -0.62895,-1.2v0h15.35067v0c-0.18581,-0.40042 -0.37381,-0.80043 -0.56398,-1.2v0h-15.43254v0c-0.21856,-0.40079 -0.43957,-0.80081 -0.66302,-1.2v0h15.51721v0c-0.19544,-0.40051 -0.39306,-0.80052 -0.59286,-1.2v0h-15.60486v0c-0.23031,-0.40092 -0.46309,-0.80094 -0.69831,-1.2v0h15.69561v0c-0.2053,-0.4006 -0.41279,-0.80062 -0.62245,-1.2v0h-15.78963v0c-0.24253,-0.40106 -0.48754,-0.80108 -0.73501,-1.2v0h15.8871v0c-0.21543,-0.4007 -0.43306,-0.80071 -0.65287,-1.2v0h-15.9882v0c-0.25531,-0.40121 -0.51312,-0.80123 -0.7734,-1.2v0h16.09316v0c-0.22589,-0.4008 -0.45398,-0.80081 -0.68427,-1.2v0h-16.20219v0c-0.26873,-0.40137 -0.53998,-0.80139 -0.81374,-1.2v0h16.31555v0c-0.23671,-0.40091 -0.47564,-0.80092 -0.71679,-1.2v0h-16.43354v0c-0.28292,-0.40155 -0.5684,-0.80157 -0.85643,-1.2v0h16.55643v0c-0.24797,-0.40102 -0.49818,-0.80103 -0.75062,-1.2v0h-16.68459v0c-0.29802,-0.40174 -0.59865,-0.80176 -0.90187,-1.2v0h16.81836v0c-0.25972,-0.40114 -0.52171,-0.80116 -0.78596,-1.2v0h-16.95819v0c-0.3142,-0.40196 -0.63107,-0.80198 -0.95058,-1.2v0h17.1045v0c-0.27205,-0.40127 -0.5464,-0.80129 -0.82304,-1.2v0h-17.25781v0c-0.33167,-0.4022 -0.66608,-0.80222 -1.0032,-1.2v0h17.41871v0c-0.28504,-0.40141 -0.57242,-0.80143 -0.86212,-1.2v0h-17.5878v0c-0.3507,-0.40247 -0.70422,-0.8025 -1.06052,-1.2v0h17.76581v0c-0.2988,-0.40156 -0.59998,-0.80158 -0.90353,-1.2v0h-17.95353v0c-0.37162,-0.40279 -0.74614,-0.80282 -1.12356,-1.2v0h18.15188v0c-0.31345,-0.40173 -0.62933,-0.80175 -0.94763,-1.2v0h-18.36189v0c-0.39487,-0.40316 -0.79276,-0.80319 -1.19367,-1.2v0h18.58471v0c-0.32915,-0.40192 -0.66078,-0.80194 -0.9949,-1.2v0h-18.82173v0c-0.42104,-0.4036 -0.84525,-0.80364 -1.27263,-1.2v0h19.07446v0c-0.34607,-0.40213 -0.69471,-0.80215 -1.0459,-1.2v0h-19.34474v0c-0.45095,-0.40414 -0.90527,-0.80418 -1.36292,-1.2v0h19.63466v0c-0.36446,-0.40237 -0.73157,-0.80239 -1.10131,-1.2v0h-19.27495v0l0.991,-1.2v0h17.15301v0c-0.3846,-0.40264 -0.77195,-0.80267 -1.16203,-1.2v0h-14.99998v0l0.991,-1.2v0h12.81428v0c-0.40686,-0.40296 -0.81658,-0.80298 -1.22915,-1.2v0h-10.59413v0l0.991,-1.2v0h8.33755v0c-0.43173,-0.40333 -0.86646,-0.80336 -1.30419,-1.2v0h-6.04236v0l-0.991,1.2" fill-rule="nonzero" stroke-linejoin="miter" stroke-miterlimit="10"/><path d="M565.08416,175.36168c-17.86327,-0.45693 -35.80189,-0.71575 -53.81709,-0.78545v0c-20.75567,-0.08912 -41.42742,0.17856 -62.03727,0.78545v0h115.85436v0c12.06709,0.30867 24.09979,0.70774 36.09848,1.2v0h-183.6376v0c-7.6635,0.35439 -15.31998,0.7547 -22.97056,1.2v0h232.29695v0c6.99877,0.36717 13.98596,0.76699 20.96166,1.2v0h-281.78606v0v-1.2v0h13.77228v0v-1.2v0h-13.77228v0v-1.2v0h13.77228v0v-1.2v0h-13.77228v0v-1.2v0h13.77228v0v-1.2v0h-13.77228v0v-1.2v0h13.77228v0v-1.2v0h-13.77228v0v-1.2v0h13.77228v0v-1.2v0h-13.77228v0v-1.2v0h32.25955v0c7.91584,-0.44911 15.848,-0.84946 23.79417,-1.2v0h-56.05372v0v1.2" fill-rule="nonzero" stroke-linejoin="miter" stroke-miterlimit="10"/><path d="M553.34503,67.36168h-1.326v0l-0.991,1.2v0h3.7061v0c-0.45986,-0.40377 -0.9229,-0.8038 -1.3891,-1.2l-0.78212,-0.65858c0.26168,0.21832 0.52239,0.43786 0.78212,0.65858" fill-rule="nonzero" stroke-linejoin="miter" stroke-miterlimit="10"/><path d="M515.02518,149.08801l1.06769,0.00623v0c20.00832,0.11677 39.91529,0.46861 59.72257,1.06744v0h-136.18445v0c20.01965,-0.69006 40.10576,-1.06292 60.24497,-1.10328v0l1.3622,-0.00273l-0.01214,-0.09399h13.78512v0l-0.10376,-0.93351l-0.03008,-0.26649h-13.80627l-0.00717,-0.05548c-0.04893,-0.37879 -0.10131,-0.76034 -0.15713,-1.14452v0h13.82404v0c-0.05148,-0.39742 -0.10621,-0.79745 -0.16414,-1.2v0h-13.84403v0c-0.06417,-0.3974 -0.13188,-0.79744 -0.20312,-1.2v0h13.8661v0c-0.06274,-0.39772 -0.12852,-0.79775 -0.19734,-1.2v0h-13.89012v0c-0.07631,-0.39773 -0.15596,-0.79776 -0.23892,-1.2v0h13.91597v0c-0.07322,-0.39798 -0.14932,-0.798 -0.2283,-1.2v0h-13.94355v0c-0.08762,-0.39802 -0.1784,-0.79805 -0.27231,-1.2v0h13.97278v0c-0.08307,-0.39821 -0.1689,-0.79823 -0.25746,-1.2v0h-14.00357v0c-0.09827,-0.39828 -0.19955,-0.79831 -0.30379,-1.2v0h14.0359v0c-0.09242,-0.39841 -0.18748,-0.79844 -0.28515,-1.2v0h-14.06967v0c-0.10839,-0.39851 -0.21964,-0.79854 -0.33374,-1.2v0h14.10489v0c-0.10135,-0.3986 -0.20523,-0.79863 -0.31163,-1.2v0h-14.14151v0c-0.11809,-0.39872 -0.23892,-0.79874 -0.36249,-1.2v0h14.1795v0c-0.10995,-0.39877 -0.22234,-0.7988 -0.33716,-1.2v0h-14.21886v0c-0.12747,-0.39891 -0.25759,-0.79894 -0.39033,-1.2v0h14.25956v0c-0.11828,-0.39893 -0.23893,-0.79895 -0.36192,-1.2v0h-14.30161v0c-0.1366,-0.39909 -0.27576,-0.79911 -0.41746,-1.2v0h14.345v0c-0.12641,-0.39908 -0.25511,-0.7991 -0.38609,-1.2v0h-14.38975v0c-0.14556,-0.39926 -0.29359,-0.79928 -0.4441,-1.2v0h14.43586v0c-0.13437,-0.39922 -0.27098,-0.79924 -0.4098,-1.2v0h-14.48335v0c-0.1544,-0.39942 -0.31122,-0.79944 -0.47043,-1.2v0h14.53225v0c-0.14223,-0.39935 -0.28663,-0.79937 -0.4332,-1.2v0h-14.58257v0c-0.16318,-0.39957 -0.32872,-0.7996 -0.4966,-1.2v0h14.63436v0c-0.15001,-0.39948 -0.30215,-0.7995 -0.4564,-1.2v0h-14.68764v0c-0.17195,-0.39972 -0.34622,-0.79975 -0.52278,-1.2v0h14.74246v0c-0.15775,-0.3996 -0.31759,-0.79962 -0.47951,-1.2v0h-14.79886v0c-0.18078,-0.39987 -0.36382,-0.79989 -0.54912,-1.2v0h14.8569v0c-0.1655,-0.39972 -0.33306,-0.79974 -0.50266,-1.2v0h-14.91663v0c-0.18969,-0.40001 -0.38162,-0.80004 -0.57576,-1.2v0h14.97812v0c-0.17329,-0.39983 -0.34861,-0.79985 -0.52594,-1.2v0h-15.04144v0c-0.19876,-0.40016 -0.39972,-0.80018 -0.60287,-1.2v0h15.10665v0c-0.18116,-0.39995 -0.36431,-0.79997 -0.54945,-1.2v0h-15.17386v0c-0.20803,-0.40031 -0.41823,-0.80033 -0.63061,-1.2v0h15.24314v0c-0.18913,-0.40006 -0.38024,-0.80008 -0.57331,-1.2v0h-15.3146v0c-0.21756,-0.40046 -0.43728,-0.80048 -0.65915,-1.2v0h15.38835v0c-0.19725,-0.40018 -0.39646,-0.8002 -0.59762,-1.2v0h-15.46451v0c-0.22741,-0.40061 -0.45698,-0.80064 -0.68868,-1.2v0h15.54321v0c-0.20556,-0.4003 -0.41307,-0.80032 -0.62251,-1.2v0h-15.62457v0c-0.23765,-0.40078 -0.47746,-0.8008 -0.7194,-1.2v0h15.70878v0c-0.21409,-0.40042 -0.43012,-0.80044 -0.64808,-1.2v0h-15.79599v0c-0.24837,-0.40095 -0.4989,-0.80097 -0.75156,-1.2v0h15.88638v0c-0.2229,-0.40054 -0.44772,-0.80056 -0.67448,-1.2v0h-15.98017v0c-0.25966,-0.40113 -0.52148,-0.80116 -0.78545,-1.2v0h16.07757v0c-0.23202,-0.40067 -0.46598,-0.80069 -0.70187,-1.2v0h-16.17883v0c-0.27162,-0.40133 -0.54541,-0.80136 -0.82137,-1.2v0h16.28422v0c-0.24153,-0.4008 -0.485,-0.80082 -0.7304,-1.2v0h-16.39403v0c-0.28438,-0.40154 -0.57096,-0.80157 -0.85973,-1.2v0h16.5086v0c-0.25147,-0.40094 -0.5049,-0.80096 -0.76027,-1.2v0h-16.62829v0c-0.2981,-0.40178 -0.59844,-0.80181 -0.901,-1.2v0h16.75351v0c-0.26194,-0.40109 -0.52584,-0.80111 -0.7917,-1.2v0h-16.8847v0c-0.31298,-0.40205 -0.62824,-0.80208 -0.94576,-1.2v0h17.02237v0c-0.273,-0.40125 -0.54797,-0.80127 -0.82494,-1.2v0h-17.16711v0c-0.32926,-0.40235 -0.66087,-0.80238 -0.99478,-1.2v0h17.31954v0c-0.28476,-0.40143 -0.57154,-0.80145 -0.86032,-1.2v0h-17.48037v0c-0.34726,-0.40269 -0.69693,-0.80273 -1.04898,-1.2v0h17.65045v0c-0.29734,-0.40162 -0.59674,-0.80164 -0.89817,-1.2v0h-17.8307v0c-0.3674,-0.4031 -0.73729,-0.80314 -1.10965,-1.2v0h18.0222v0c-0.31089,-0.40183 -0.62388,-0.80186 -0.93895,-1.2v0h-18.22618v0c-0.39023,-0.40358 -0.78308,-0.80363 -1.1785,-1.2v0h18.44409v0c-0.32558,-0.40207 -0.65333,-0.80209 -0.9832,-1.2v0h-18.67759v0c-0.41656,-0.40417 -0.83587,-0.80423 -1.2579,-1.2v0h18.92866v0c-0.34166,-0.40234 -0.68554,-0.80237 -1.03161,-1.2v0h-19.19962v0c-0.4475,-0.40492 -0.89795,-0.80498 -1.3513,-1.2v0h19.49329v0c-0.35939,-0.40264 -0.72108,-0.80268 -1.08505,-1.2v0h-19.11073v0l0.99452,-1.2v0h17.00221v0c-0.37917,-0.403 -0.76072,-0.80304 -1.14465,-1.2v0h-14.86304v0l0.99453,-1.2v0h12.69128v0c-0.40148,-0.40343 -0.80548,-0.80347 -1.21196,-1.2v0h-10.4848v0l0.99453,-1.2v0h8.24118v0c-0.42702,-0.40394 -0.85669,-0.80398 -1.289,-1.2v0h-5.95766v0l-0.99452,1.2" fill-rule="nonzero" stroke-linejoin="miter" stroke-miterlimit="10"/><path d="M511.20933,188.27683c-13.63077,-0.05861 -27.22877,0.03807 -40.79789,0.28485v0h-104.36441v0v1.2v0h63.37846v0c-8.5137,0.34294 -17.01749,0.74337 -25.51234,1.2v0h-37.86612v0v1.2v0h17.54388v0c-3.39348,0.21826 -6.78566,0.44536 -10.17659,0.6812v0l-7.36729,0.5125v0v-1.1937" fill-rule="nonzero" stroke-linejoin="miter" stroke-miterlimit="10"/><path d="M511.20882,162.77095c-18.28818,-0.07824 -36.54865,0.12279 -54.75375,0.59073v0h-90.40804" fill-rule="nonzero" stroke-linejoin="miter" stroke-miterlimit="10"/><path d="M468.24417,61.36168h-1.25783v0l-0.99452,1.2v0h3.63108v0c-0.45675,-0.40458 -0.91633,-0.80462 -1.37873,-1.2l-0.73907,-0.62594c0.24715,0.20731 0.4935,0.41597 0.73907,0.62594" fill-rule="nonzero" stroke-linejoin="miter" stroke-miterlimit="10"/><path d="M418.4157,149.81119c-15.4117,0.7054 -30.76335,1.59412 -46.04896,2.66218l-7.51971,0.52606v41.64233l8.65057,-0.60177c45.63465,-3.17429 91.47145,-4.76243 137.70656,-4.56317c196.66333,0.76518 384.24175,24.20668 564.17237,82.32821c-1.27897,25.13326 -10.58203,48.36952 -24.98697,64.95631l11.3246,9.74803c15.62987,-17.99759 26.11583,-42.82398 28.34352,-69.88014c1.67727,0.56193 3.35055,1.12385 5.02382,1.68976l10.68811,3.61466v-42.51312l-5.49017,-1.85316c-4.98378,-1.68179 -9.97357,-3.33768 -14.97737,-4.96966c-5.51419,-19.71525 -15.71393,-38.27078 -28.95999,-51.46011l-10.58804,10.5411c9.36711,9.32559 16.91285,21.76568 21.9887,35.3097c-19.84307,-6.21108 -39.7762,-12.01167 -59.80141,-17.41573c-2.04555,-18.91221 -12.61558,-40.11597 -31.22971,-55.29596l-10.24778,12.45405c13.02789,10.62679 21.34821,24.82838 24.38051,38.32856c-21.02797,-5.42598 -42.16601,-10.42751 -63.41615,-15.01658c-2.41984,-20.7853 -15.49977,-45.80499 -35.37086,-62.061l-10.2678,12.43811c14.85128,12.15116 25.39329,30.09694 28.73983,46.06203c-21.71849,-4.45755 -43.53906,-8.49266 -65.47572,-12.12526c-2.7701,-20.17157 -16.52455,-48.32369 -37.87476,-65.71551l-10.23977,12.46202c16.43248,13.3866 27.8011,34.24961 31.31177,50.55345c-21.58039,-3.36359 -43.28887,-6.34459 -65.11344,-8.95894c-1.76734,-30.54529 -16.97889,-55.46334 -40.80898,-74.96737l-10.2678,12.43811c19.48079,15.94317 32.42062,36.02705 34.71436,60.64023c-21.82257,-2.42505 -43.75122,-4.48944 -65.79596,-6.20909c-2.87618,-25.2847 -18.88034,-58.3447 -43.7212,-78.63184l-10.25579,12.45006c20.55761,16.79004 34.33408,43.64096 37.55052,64.96627c-21.88262,-1.53434 -43.86331,-2.73591 -65.95809,-3.62264c-2.73808,-28.47692 -19.66092,-63.02542 -46.19307,-84.74727l-10.2718,12.4381c22.50109,18.41804 37.25429,47.36522 40.15649,71.71337c-21.93666,-0.72333 -44.00341,-1.14179 -66.18625,-1.27131c-2.96425,-26.3966 -21.14205,-66.16584 -48.75302,-88.84814l-10.29182,12.41817c23.77605,19.53392 39.88228,53.43085 42.81851,76.39411c-21.82857,0.04384 -43.6051,0.47823 -65.29157,1.28326c-3.08434,-33.10982 -22.37499,-73.13413 -52.50187,-97.86886l-10.28781,12.42216c26.54015,21.79159 43.74321,56.90801 46.6234,86.11623zM511.20416,163.97094c202.04942,0.7851 394.33541,25.65534 578.39317,87.00296v8.53052c-184.30795,-60.83153 -376.57393,-85.34308 -578.32512,-86.12818c-43.71519,-0.18731 -87.07812,1.20753 -130.2529,4.01916v-9.37141c42.99264,-2.83354 86.49968,-4.24036 130.18485,-4.05305z" fill-rule="evenodd" stroke-linejoin="round" stroke-miterlimit="2"/><path d="M381.09729,178.59286l-1.27798,0.08324" fill-rule="nonzero" stroke-linejoin="miter" stroke-miterlimit="10"/><path d="M313.8443,530.18161c10.17773,6.08953 22.07076,9.57865 34.69635,9.57865c10.05964,0 19.57486,-2.16401 28.12335,-6.0696c2.91822,0.32281 5.89047,0.49019 8.90476,0.49019c19.74499,0 37.88477,-7.04401 52.0195,-18.74284c5.30603,2.09626 11.06641,3.06868 16.89083,2.75384c11.25054,6.26289 24.21638,9.8118 38.17098,9.8118c38.86951,0 70.93986,-27.48857 77.78506,-64.12139c21.55637,17.27625 49.23539,27.06214 78.94595,25.82072c40.10645,-1.66585 74.35645,-23.21035 94.18751,-54.5248c0.50038,-0.22915 0.99476,-0.46828 1.48313,-0.71736c4.10712,1.28127 8.28229,2.34136 12.49749,3.16831c0.05404,0.01196 0.11008,0.02192 0.16412,0.03188c15.42771,2.96307 31.70008,3.02285 47.60015,-0.24509c16.02817,8.11207 34.75838,11.3023 53.88891,7.97657c0.16212,-0.0279 0.32626,-0.05779 0.49038,-0.08967c21.79455,-4.06899 39.81623,-15.70007 52.4238,-31.83453c0.14011,-0.18133 0.28022,-0.36466 0.41832,-0.54798c2.87618,-3.81592 5.42412,-7.76933 7.61178,-11.89212c12.05315,4.50737 25.21514,5.34628 37.47445,2.80366c10.536,11.52946 27.3888,16.27195 43.0607,10.70051l15.22356,-5.41203c9.99759,-3.55289 18.16779,-10.91771 22.71324,-20.47046c1.65526,-3.47717 2.78011,-7.14165 3.36856,-10.87587c5.9325,2.60439 12.46547,3.76012 19.04847,3.28388c6.59701,-0.47824 12.9058,-2.56653 18.40397,-6.00783c7.07938,37.19475 18.05771,73.80964 32.931,109.19706c-0.002,-0.00199 2.95625,7.03803 2.95625,7.03803c8.21624,19.55185 30.36506,29.28195 50.41028,22.14429l7.21948,-2.57052c33.81968,-12.04157 64.19274,-30.95178 89.61604,-55.03691c-0.004,0.00598 5.89648,-5.5814 5.89648,-5.5814c7.72987,-7.32099 12.20527,-17.41175 12.43144,-28.03256c0.22617,-10.61882 -3.81489,-20.89091 -11.22652,-28.53072l-5.66431,-5.83846c-20.23336,-20.84707 -32.52269,-49.16657 -32.52269,-80.2977c0,-42.44538 22.96344,-79.52056 57.09936,-99.68416l7.01132,-4.14471c9.17497,-5.42 15.79599,-14.26535 18.39196,-24.56734c2.59797,-10.30199 0.95673,-21.21173 -4.55946,-30.30418l-4.2112,-6.94437c-30.12688,-49.66075 -76.58414,-87.97537 -132.14433,-107.64479l-7.20147,-2.5486c-20.00719,-7.08187 -42.08996,2.62233 -50.31621,22.11241l-2.96225,7.0181c-12.29333,29.14246 -21.93866,59.11786 -28.93597,89.57746c-0.85265,-0.90068 -1.7153,-1.78343 -2.58596,-2.65222c-7.5077,-7.47442 -17.68943,-11.67491 -28.30549,-11.67491c-10.48396,0 -20.5436,4.09289 -28.02128,11.39196c-6.92326,-10.61682 -15.6639,-20.60198 -26.24593,-29.23014c-17.10299,-13.94654 -42.32213,-11.44975 -56.33277,5.57543l-0.08006,0.09764c-7.6438,-11.84629 -17.117,-22.86762 -28.19141,-31.92819c-17.08097,-13.97244 -42.30412,-11.5175 -56.34078,5.48775l-2.80613,3.39746c-7.26752,-10.47136 -15.90408,-20.21938 -25.79759,-28.27964c-8.21824,-6.6933 -18.77025,-9.86161 -29.33427,-8.80949c-10.56402,1.05212 -20.2774,6.23897 -26.9985,14.42078l-1.1829,1.4367c-7.70585,-10.07482 -16.85279,-19.38048 -27.2647,-27.90104c-8.20023,-6.71124 -18.74624,-9.90546 -29.31226,-8.87725c-10.56802,1.02821 -20.2914,6.19315 -27.03252,14.36101l-5.56623,6.73913c-6.8492,-8.83739 -14.60709,-16.99926 -23.19161,-24.01139c-8.20823,-6.70326 -18.75624,-9.88553 -29.32226,-8.84736c-10.56602,1.04016 -20.28541,6.21507 -27.01852,14.38891l-5.59825,6.79692c-6.82518,-8.5106 -14.47299,-16.37956 -22.87937,-23.26216c-8.20223,-6.71323 -18.74424,-9.90744 -29.31226,-8.88123c-10.56802,1.02621 -20.29141,6.18916 -27.03453,14.35503l-7.94002,9.61452c-6.30879,-7.74343 -13.23005,-14.86315 -20.71573,-21.01246c-8.18822,-6.72718 -18.72622,-9.93933 -29.29625,-8.93304c-10.56802,1.00828 -20.30141,6.15529 -27.05854,14.3092l-7.06937,8.53052c-6.65305,-7.89287 -13.95459,-15.2039 -21.85259,-21.68797c-8.19022,-6.72518 -18.73023,-9.93533 -29.29825,-8.92307c-10.56802,1.01226 -20.30141,6.16126 -27.05454,14.31716l-10.28781,12.42217c-0.82463,0.99433 -1.59321,2.01855 -2.30375,3.06668c-2.8942,-4.59704 -5.87446,-9.14426 -8.93679,-13.6317c0.004,0.00598 -2.17365,-3.18624 -2.17365,-3.18624c-6.82118,-9.9991 -17.82954,-16.37557 -29.93073,-17.33603l-3.86293,-0.30687c-6.24674,-0.49816 -12.74368,-0.75123 -19.24061,-0.75123c-149.06719,0 -269.88092,120.27817 -269.88092,268.68455c0,148.38446 120.75569,268.44144 269.80086,268.68454h0.06605c6.46691,0 12.66561,-0.24509 19.11451,-0.73927c-0.00801,0.00199 3.88095,-0.29491 3.88095,-0.29491c7.27352,-0.55595 14.15875,-3.06868 19.98117,-7.14962z" fill-rule="evenodd" stroke-linejoin="round" stroke-miterlimit="2"/></g></g></svg>