<?xml version="1.0" encoding="UTF-8" standalone="no"?>
<!DOCTYPE svg PUBLIC "-//W3C//DTD SVG 1.1//EN" "http://www.w3.org/Graphics/SVG/1.1/DTD/svg11.dtd">
<svg width="100%" height="100%" viewBox="0 0 658 272" version="1.1" xmlns="http://www.w3.org/2000/svg" xmlns:xlink="http://www.w3.org/1999/xlink" xml:space="preserve" xmlns:serif="http://www.serif.com/" style="fill-rule:evenodd;clip-rule:evenodd;stroke-linejoin:round;stroke-miterlimit:2;">
    <g transform="matrix(1,0,0,1,-37.4749,-159.052)">
        <path d="M59.762,297C59.762,360.428 111.165,411.734 174.593,411.838C177.305,411.838 179.905,411.734 182.61,411.526L184.553,411.377L185.645,409.762C207.381,377.617 220.138,338.839 220.138,297C220.138,255.158 207.48,216.378 185.64,184.231L184.552,182.629L182.622,182.475C180.017,182.267 177.309,182.162 174.6,182.162C111.17,182.162 59.762,233.57 59.762,297ZM180.05,190.393C178.259,190.289 176.429,190.238 174.6,190.238C115.63,190.238 67.838,238.03 67.838,297C67.838,355.972 115.635,403.666 174.6,403.762C176.442,403.762 178.232,403.71 180.047,403.605C200.246,373.072 212.062,336.454 212.062,297C212.062,257.545 200.342,220.926 180.05,190.393Z" style="fill:rgb(0,35,200);"/>
    </g>
    <g transform="matrix(1,0,0,1,-37.4749,-159.052)">
        <path d="M614.953,400.492L618.56,399.202C632.797,394.11 645.58,386.109 656.283,375.925L659.231,373.121L656.404,370.194C642.808,356.123 634.538,337.012 634.538,316C634.538,287.378 649.944,262.37 672.861,248.773L676.36,246.696L674.256,243.212C661.577,222.219 642.036,206.01 618.653,197.695L615.056,196.416L613.577,199.936C587.159,262.833 587.158,334.062 613.475,396.959L614.953,400.492ZM619.545,206.666C595.936,265.475 595.934,331.429 619.447,390.227C629.916,386.012 639.465,380.067 647.786,372.753C634.459,357.565 626.462,337.702 626.462,316C626.462,285.909 641.893,259.438 665.223,244.031C654.195,227.31 638.326,214.187 619.545,206.666Z" style="fill:rgb(0,35,200);"/>
    </g>
    <g transform="matrix(1,0,0,1,-37.4749,-159.052)">
        <path d="M387.254,364.696C382.132,373.086 373.129,378.924 362.532,379.366C352.005,379.808 342.452,374.944 336.526,367.071L330.074,371.929C337.548,381.856 349.595,387.992 362.87,387.434C376.271,386.876 387.668,379.514 394.146,368.904L387.254,364.696Z" style="fill:rgb(87,201,0);"/>
    </g>
    <g transform="matrix(1,0,0,1,-37.4749,-159.052)">
        <path d="M457.84,316.019C460.421,314.796 463.327,313.995 466.263,313.43C474.153,311.965 481.931,313.308 488.606,316.588C495.15,319.86 500.664,324.953 504.161,331.497L497.039,335.303C494.336,330.247 490.05,326.34 485.019,323.824C479.869,321.292 473.847,320.235 467.763,321.365C465.504,321.8 463.24,322.387 461.242,323.343L461.113,323.402C457.729,324.877 454.782,327.052 452.352,329.655L446.448,324.145C449.607,320.761 453.443,317.943 457.84,316.019Z" style="fill:rgb(87,201,0);"/>
    </g>
    <g transform="matrix(1,0,0,1,-37.4749,-159.052)">
        <path d="M438.803,352.944C433.65,354.543 428.23,354.713 423.165,353.735C416.881,352.496 410.935,349.303 406.41,344.6L400.59,350.2C406.265,356.097 413.719,360.104 421.619,361.662C427.97,362.887 434.75,362.657 441.197,360.656L438.803,352.944Z" style="fill:rgb(87,201,0);"/>
    </g>
    <g transform="matrix(1,0,0,1,-37.4749,-159.052)">
        <path d="M459.042,338.991C457.092,342.624 454.436,345.905 451.157,348.564L456.243,354.836C460.364,351.495 463.708,347.376 466.158,342.809L459.042,338.991Z" style="fill:rgb(87,201,0);"/>
    </g>
    <g transform="matrix(1,0,0,1,-37.4749,-159.052)">
        <path d="M464.498,327.684C466.665,326.151 469.281,325.516 471.668,325.666C475.271,325.816 478.734,327.6 481.024,330.806L481.06,330.86C481.968,332.223 482.557,333.594 482.859,335.108L474.941,336.692C474.848,336.23 474.652,335.818 474.381,335.403C473.634,334.382 472.511,333.784 471.29,333.733L471.248,333.73C470.535,333.685 469.771,333.84 469.094,334.324L469.04,334.36C468.363,334.811 467.897,335.432 467.657,336.107C467.551,336.505 467.438,336.9 467.438,337.3L459.362,337.3C459.362,336.176 459.602,335.045 459.883,333.921L459.969,333.623C460.729,331.345 462.233,329.213 464.498,327.684ZM464.498,327.684L464.453,327.714L464.56,327.64L464.498,327.684Z" style="fill:rgb(87,201,0);"/>
    </g>
    <g transform="matrix(1,0,0,1,-37.4749,-159.052)">
        <path d="M475.629,340.232C476.179,343.216 475.784,346.2 474.606,348.87C474.116,350.012 473.479,351.032 472.77,351.977C470.602,354.764 467.446,356.821 463.656,357.531C455.607,358.938 447.893,353.603 446.478,345.505C445.61,340.693 447.183,335.983 450.324,332.685L444.476,327.115C439.617,332.217 437.19,339.507 438.526,346.917C440.707,359.397 452.593,367.662 465.095,365.478C470.954,364.379 475.798,361.236 479.187,356.879C480.321,355.368 481.284,353.788 482.011,352.091C483.816,348 484.421,343.384 483.571,338.768L475.629,340.232Z" style="fill:rgb(87,201,0);"/>
    </g>
    <g transform="matrix(1,0,0,1,-37.4749,-159.052)">
        <path d="M518.54,343.302C521.87,342.414 525.567,343.098 528.526,345.392C530.419,346.83 531.752,348.772 532.497,350.858L540.103,348.142C538.848,344.628 536.581,341.37 533.443,338.985C528.433,335.102 522.13,333.986 516.46,335.498L518.54,343.302Z" style="fill:rgb(87,201,0);"/>
    </g>
    <g transform="matrix(1,0,0,1,-37.4749,-159.052)">
        <path d="M512.827,336.581C511.369,337.198 509.574,337.158 508.116,336.261C507.062,335.64 506.375,334.821 505.912,333.894L498.688,337.506C499.825,339.779 501.538,341.76 503.953,343.18C507.626,345.442 512.231,345.602 515.973,344.019L512.827,336.581Z" style="fill:rgb(87,201,0);"/>
    </g>
    <g transform="matrix(1,0,0,1,-37.4749,-159.052)">
        <path d="M362.142,324.423C373.457,327.184 382.991,335.913 386.198,347.94C386.565,349.226 386.829,350.355 387.003,351.571L394.997,350.429C394.771,348.845 394.435,347.374 393.983,345.791C390.009,330.887 378.143,320.016 364.058,316.577L362.142,324.423Z" style="fill:rgb(87,201,0);"/>
    </g>
    <g transform="matrix(1,0,0,1,-37.4749,-159.052)">
        <path d="M425.15,353.279C432.142,349.158 436.277,340.924 434.778,332.308C432.771,321.269 422.253,314.027 411.37,316.029C400.369,318.029 393.127,328.547 395.129,339.43C395.629,342.18 396.636,344.684 398.14,346.94L404.86,342.46C403.964,341.116 403.371,339.62 403.073,337.978C401.873,331.453 406.231,325.171 412.822,323.973C419.347,322.773 425.629,327.131 426.827,333.722C427.723,338.876 425.258,343.842 421.05,346.321L425.15,353.279Z" style="fill:rgb(87,201,0);"/>
    </g>
    <g transform="matrix(1,0,0,1,-37.4749,-159.052)">
        <path d="M355.242,318.322C345.227,325.528 343.014,339.57 350.341,349.584C352.192,352.053 354.392,354.104 356.823,355.562L360.977,348.638C359.408,347.696 358.008,346.347 356.83,344.777C352.186,338.43 353.573,329.472 359.958,324.878L355.242,318.322Z" style="fill:rgb(87,201,0);"/>
    </g>
    <g transform="matrix(1,0,0,1,-37.4749,-159.052)">
        <path d="M360.033,357.48C372.616,364.041 387.672,366.078 402.406,361.884L400.194,354.116C387.528,357.722 374.584,355.959 363.767,350.32L360.033,357.48Z" style="fill:rgb(87,201,0);"/>
    </g>
    <g transform="matrix(1,0,0,1,-37.4749,-159.052)">
        <path d="M296.49,308.031C295.359,305.158 294.794,301.989 294.967,298.704C295.575,286.177 306.269,276.559 318.835,277.169C331.351,277.898 340.941,288.479 340.333,300.996L340.33,301.052C340.05,305.538 338.474,309.666 336.04,313.093C339.557,317.927 341.522,323.978 341.132,330.412C340.74,337.87 337.391,344.505 332.257,349.157C333.56,351.718 334.207,354.664 334.032,357.727C333.507,367.04 325.642,374.128 316.273,373.732C306.96,373.207 299.872,365.342 300.268,355.988C300.322,354.957 300.486,353.926 300.736,352.923C291.842,348.056 286.046,338.365 286.667,327.596C287.07,319.644 290.834,312.724 296.49,308.031ZM332.268,300.577C332.646,292.506 326.44,285.701 318.404,285.233C310.331,284.841 303.425,291.023 303.032,299.112C302.876,302.076 303.659,304.883 305.062,307.223L307.097,310.613L303.75,312.718C298.625,315.941 295.063,321.475 294.731,328.033C294.236,336.612 299.514,344.203 307.186,347.008L311.434,348.561L309.412,352.606C308.847,353.735 308.403,355.071 308.334,356.37C308.128,361.258 311.84,365.393 316.67,365.666C321.558,365.872 325.693,362.16 325.969,357.27C326.104,354.898 325.314,352.655 323.823,351.029L320.626,347.541L324.573,344.932C329.443,341.712 332.738,336.261 333.069,329.956C333.399,324.525 331.335,319.508 327.879,315.888L325.198,313.079L327.9,310.29C330.35,307.761 332.024,304.369 332.268,300.577Z" style="fill:rgb(87,201,0);"/>
    </g>
    <g transform="matrix(1,0,0,1,-37.4749,-159.052)">
        <path d="M526.052,325.848C523.572,324.519 521.493,322.42 520.259,319.745C516.993,312.93 519.94,304.824 526.755,301.559C533.57,298.293 541.676,301.24 544.941,308.055L544.956,308.086C546.628,311.653 546.641,315.566 545.215,318.95C545.326,319.138 545.432,319.335 545.535,319.541C548.001,324.638 545.875,330.89 540.659,333.335C535.562,335.801 529.31,333.675 526.807,328.334L526.773,328.253C526.439,327.452 526.197,326.65 526.052,325.848ZM537.652,311.532C536.314,308.756 533.025,307.509 530.245,308.841C527.46,310.176 526.207,313.47 527.566,316.308C528.25,317.789 529.569,318.802 531.05,319.201L534.585,320.153L533.983,323.764C533.912,324.192 534.015,324.613 534.184,325.039C534.733,326.14 536.056,326.59 537.186,326.044C538.325,325.51 538.799,324.162 538.288,323.106C538.095,322.72 537.834,322.445 537.545,322.155L535.083,319.694L537.155,316.897C538.284,315.372 538.492,313.34 537.652,311.532Z" style="fill:rgb(255,0,226);"/>
    </g>
    <g transform="matrix(1,0,0,1,-37.4749,-159.052)">
        <path d="M270.536,399.634L265.266,401.743L234.442,325.57L274.829,309.244L304.285,382.037L304.359,382.408C304.359,382.408 304.938,385.417 304.938,387.1C304.938,397.94 296.24,406.638 285.4,406.638C279.372,406.638 274.104,403.914 270.536,399.634ZM296.514,384.362L270.371,319.756L244.958,330.03L269.734,391.257L273.755,389.649L275.501,392.689C277.499,396.166 281.108,398.562 285.4,398.562C291.76,398.562 296.862,393.46 296.862,387.1C296.862,386.281 296.635,384.991 296.514,384.362Z" style="fill:rgb(255,8,0);"/>
    </g>
    <g transform="matrix(1,0,0,1,-37.4749,-159.052)">
        <path d="M339.521,282.886L342.471,287.632C344.384,290.71 345.462,294.373 345.462,298.2C345.462,302.952 343.876,307.204 341.125,310.705L338.912,313.522L343.813,318.423L346.272,317.46C385.647,302.044 433.664,300.721 477.654,311.325L480.793,304.009C443.121,279.646 389.483,270.826 344.953,281.575L339.521,282.886ZM452.916,298.538C421.699,285.579 384.489,281.625 351.762,288.33C352.915,291.422 353.538,294.763 353.538,298.2C353.538,301.195 353.088,304.049 352.241,306.729C383.199,296.48 418.503,294.021 452.916,298.538Z" style="fill:rgb(255,8,0);"/>
    </g>
    <g transform="matrix(1,0,0,1,-37.4749,-159.052)">
        <path d="M247.462,263.263L247.462,257.824L362.18,258.9L361.996,276.573L274.527,275.813C276.709,279.527 277.938,283.865 277.938,288.6C277.938,302.941 266.323,314.438 252.1,314.438C237.877,314.438 226.262,302.823 226.262,288.6C226.262,275.948 235.372,265.425 247.462,263.263ZM255.538,265.976L255.538,270.837L251.603,270.937C241.995,271.181 234.338,278.993 234.338,288.6C234.338,298.377 242.323,306.362 252.1,306.362C261.877,306.362 269.862,298.459 269.862,288.6C269.862,283.017 267.362,278.239 263.317,275.084L260.71,273.051L263.415,267.64L354.004,268.427L354.02,266.9L255.538,265.976Z" style="fill:rgb(0,35,200);"/>
    </g>
    <g transform="matrix(1,0,0,1,-37.4749,-159.052)">
        <path d="M477.311,282.739L367.891,271.753L368.7,263.717L479.689,274.861L490.469,280.558C492.939,279.05 495.821,278.162 499,278.162C508.322,278.162 515.938,285.778 515.938,295.1C515.938,304.422 508.322,312.038 499,312.038C489.678,312.038 482.062,304.422 482.062,295.1C482.062,291.963 482.949,289.029 484.439,286.506L477.311,282.739ZM492.257,289.377C490.977,290.937 490.138,292.92 490.138,295.1C490.138,299.978 494.122,303.962 499,303.962C503.878,303.962 507.862,299.978 507.862,295.1C507.862,290.222 503.878,286.238 499,286.238C496.828,286.238 494.933,287.066 493.439,288.356L492.257,289.377Z" style="fill:rgb(0,35,200);"/>
    </g>
    <g transform="matrix(1,0,0,1,-37.4749,-159.052)">
        <path d="M229.764,368.472C231.642,364.921 235.34,362.562 239.6,362.562C245.718,362.562 250.738,367.582 250.738,373.7C250.738,375.447 250.356,377.085 249.655,378.55C251.47,381.616 252.54,385.144 252.637,388.896L252.638,389C252.638,400.424 243.324,409.738 231.9,409.738C228.94,409.738 226.141,409.09 223.614,407.967C221.102,410.789 217.469,412.538 213.4,412.538C205.894,412.538 199.662,406.448 199.662,398.8C199.662,391.915 204.785,386.103 211.535,385.188C213.239,376.308 220.639,369.412 229.764,368.472ZM244.561,389.059C244.476,386.077 243.396,383.328 241.636,381.109L239.488,378.401L241.833,375.861C242.361,375.289 242.662,374.537 242.662,373.7C242.662,372.018 241.282,370.638 239.6,370.638C238.084,370.638 236.836,371.729 236.576,373.202L235.988,376.538L232.6,376.538C232.37,376.538 231.982,376.484 231.712,376.44C224.823,376.54 219.238,382.187 219.238,389.1L219.238,394.067L214.536,393.283C214.157,393.22 213.779,393.138 213.4,393.138C210.248,393.138 207.738,395.706 207.738,398.8C207.738,401.952 210.306,404.462 213.4,404.462C215.735,404.462 217.713,403.052 218.589,401.009L220.551,396.431L224.624,399.298C226.671,400.739 229.17,401.662 231.9,401.662C238.856,401.662 244.53,396.007 244.561,389.059Z" style="fill:rgb(255,8,0);"/>
    </g>
    <g transform="matrix(1,0,0,1,-37.4749,-159.052)">
        <path d="M216.527,348.92L229.827,364.52L235.973,359.28L222.673,343.68L216.527,348.92Z" style="fill:rgb(255,8,0);"/>
    </g>
    <g transform="matrix(1,0,0,1,-37.4749,-159.052)">
        <path d="M140.7,245.8L135,240.1L125.3,249.8L115.5,240.1L109.8,245.8L119.6,255.5L109.8,265.3L115.5,271L125.3,261.2L135,271L140.7,265.3L131,255.5L140.7,245.8Z" style="fill:rgb(255,0,226);fill-rule:nonzero;"/>
    </g>
    <path d="M209.049,75.182C201.349,75.536 193.679,75.982 186.042,76.518L182.285,76.782L182.285,97.68L186.607,97.378C209.407,95.785 232.308,94.988 255.408,95.088C353.665,95.472 447.383,107.236 537.28,136.404C536.641,149.017 531.993,160.678 524.796,169.002L530.454,173.894C538.263,164.862 543.502,152.403 544.615,138.825C545.453,139.107 546.289,139.389 547.125,139.673L552.465,141.487L552.465,120.152L549.722,119.222C547.232,118.378 544.739,117.547 542.239,116.728C539.484,106.834 534.388,97.522 527.77,90.903L522.48,96.193C527.16,100.873 530.93,107.116 533.466,113.913C523.552,110.796 513.593,107.885 503.588,105.173C502.566,95.682 497.285,85.041 487.985,77.423L482.865,83.673C489.374,89.006 493.531,96.133 495.046,102.908C484.54,100.185 473.979,97.675 463.362,95.372C462.153,84.941 455.618,72.385 445.69,64.227L440.56,70.469C447.98,76.567 453.247,85.573 454.919,93.585C444.068,91.348 433.166,89.323 422.206,87.5C420.822,77.377 413.95,63.249 403.283,54.521L398.167,60.775C406.377,67.493 412.057,77.963 413.811,86.145C403.029,84.457 392.183,82.961 381.279,81.649C380.396,66.32 372.796,53.815 360.89,44.027L355.76,50.269C365.493,58.27 371.958,68.349 373.104,80.701C362.201,79.484 351.245,78.448 340.231,77.585C338.794,64.896 330.798,48.305 318.387,38.124L313.263,44.372C323.534,52.798 330.417,66.273 332.024,76.975C321.091,76.205 310.109,75.602 299.07,75.157C297.702,60.866 289.247,43.528 275.991,32.627L270.859,38.869C282.101,48.112 289.472,62.639 290.922,74.858C279.962,74.495 268.937,74.285 257.854,74.22C256.373,60.973 247.291,41.015 233.496,29.632L228.354,35.864C240.233,45.667 248.28,62.678 249.747,74.202C238.841,74.224 227.961,74.442 217.126,74.846C215.585,58.23 205.947,38.144 190.895,25.731L185.755,31.965C199.015,42.901 207.61,60.524 209.049,75.182ZM255.408,82.288C356.356,82.682 452.426,95.163 544.385,125.95L544.385,130.231C452.301,99.703 356.241,87.402 255.442,87.008C233.601,86.914 211.936,87.614 190.365,89.025L190.365,84.322C211.845,82.9 233.582,82.194 255.408,82.288Z"/>
    <g transform="matrix(1,0,0,1,-42.08,-447.88)">
        <path d="M198.883,713.949C203.968,717.005 209.91,718.756 216.218,718.756C221.244,718.756 225.998,717.67 230.269,715.71C231.727,715.872 233.212,715.956 234.718,715.956C244.583,715.956 253.646,712.421 260.708,706.55C263.359,707.602 266.237,708.09 269.147,707.932C274.768,711.075 281.246,712.856 288.218,712.856C307.638,712.856 323.661,699.061 327.081,680.677C337.851,689.347 351.68,694.258 366.524,693.635C386.562,692.799 403.674,681.987 413.582,666.272C413.832,666.157 414.079,666.037 414.323,665.912C416.375,666.555 418.461,667.087 420.567,667.502C420.594,667.508 420.622,667.513 420.649,667.518C428.357,669.005 436.487,669.035 444.431,667.395C452.439,671.466 461.797,673.067 471.355,671.398C471.436,671.384 471.518,671.369 471.6,671.353C482.489,669.311 491.493,663.474 497.792,655.377C497.862,655.286 497.932,655.194 498.001,655.102C499.438,653.187 500.711,651.203 501.804,649.134C507.826,651.396 514.402,651.817 520.527,650.541C525.791,656.327 534.211,658.707 542.041,655.911L549.647,653.195C554.642,651.412 558.724,647.716 560.995,642.922C561.822,641.177 562.384,639.338 562.678,637.464C565.642,638.771 568.906,639.351 572.195,639.112C575.491,638.872 578.643,637.824 581.39,636.097C584.927,654.763 590.412,673.138 597.843,690.897C597.842,690.896 599.32,694.429 599.32,694.429C603.425,704.241 614.491,709.124 624.506,705.542L628.113,704.252C645.01,698.209 660.185,688.719 672.887,676.632C672.885,676.635 675.833,673.831 675.833,673.831C679.695,670.157 681.931,665.093 682.044,659.763C682.157,654.434 680.138,649.279 676.435,645.445L673.605,642.515C663.496,632.053 657.356,617.841 657.356,602.218C657.356,580.917 668.829,562.311 685.884,552.192L689.387,550.112C693.971,547.392 697.279,542.953 698.576,537.783C699.874,532.613 699.054,527.138 696.298,522.575L694.194,519.09C679.142,494.168 655.931,474.94 628.172,465.069L624.574,463.79C614.578,460.236 603.545,465.106 599.435,474.887L597.955,478.409C591.813,493.034 586.994,508.077 583.498,523.363C583.072,522.911 582.641,522.468 582.206,522.032C578.455,518.281 573.368,516.173 568.064,516.173C562.826,516.173 557.8,518.227 554.064,521.89C550.605,516.562 546.238,511.551 540.951,507.221C532.406,500.222 519.806,501.475 512.806,510.019L512.766,510.068C508.947,504.123 504.214,498.592 498.681,494.045C490.147,487.033 477.545,488.265 470.532,496.799L469.13,498.504C465.499,493.249 461.184,488.357 456.241,484.312C452.135,480.953 446.863,479.363 441.585,479.891C436.307,480.419 431.454,483.022 428.096,487.128L427.505,487.849C423.655,482.793 419.085,478.123 413.883,473.847C409.786,470.479 404.517,468.876 399.238,469.392C393.958,469.908 389.1,472.5 385.732,476.599L382.951,479.981C379.529,475.546 375.653,471.45 371.364,467.931C367.263,464.567 361.993,462.97 356.714,463.491C351.435,464.013 346.579,466.61 343.215,470.712L340.418,474.123C337.008,469.852 333.187,465.903 328.987,462.449C324.889,459.08 319.622,457.477 314.342,457.992C309.062,458.507 304.204,461.098 300.835,465.196L296.868,470.021C293.716,466.135 290.258,462.562 286.518,459.476C282.427,456.1 277.162,454.488 271.881,454.993C266.601,455.499 261.738,458.082 258.362,462.174L254.83,466.455C251.506,462.494 247.858,458.825 243.912,455.571C239.82,452.196 234.554,450.585 229.274,451.093C223.994,451.601 219.131,454.185 215.757,458.278L210.617,464.512C210.205,465.011 209.821,465.525 209.466,466.051C208.02,463.744 206.531,461.462 205.001,459.21C205.003,459.213 203.915,457.611 203.915,457.611C200.507,452.593 195.007,449.393 188.961,448.911L187.031,448.757C183.91,448.507 180.664,448.38 177.418,448.38C102.941,448.38 42.58,508.741 42.58,583.218C42.58,657.684 102.912,717.934 177.378,718.056L177.411,718.056C180.642,718.056 183.739,717.933 186.961,717.685C186.957,717.686 188.9,717.537 188.9,717.537C192.534,717.258 195.974,715.997 198.883,713.949Z" style="fill:none;stroke:black;stroke-width:1px;"/>
    </g>
</svg>
