<svg version="1.1" xmlns="http://www.w3.org/2000/svg" xmlns:xlink="http://www.w3.org/1999/xlink" width="1317" height="542" viewBox="0,0,1317,542"><g fill="none" fill-rule="none" stroke="#57c900" stroke-width="1" stroke-linecap="butt" stroke-linejoin="none" stroke-miterlimit="none" stroke-dasharray="" stroke-dashoffset="0" font-family="none" font-weight="none" font-size="none" text-anchor="none" style="mix-blend-mode: normal"><g id="#57c900"><path d="M991.28423,380.20316c0.06976,0.15872 0.13822,0.31822 0.20545,0.4785v0l1.34597,-0.4785v0h-1.55142v0c-0.17803,-0.40507 -0.3645,-0.80505 -0.56037,-1.2v0h5.48728v0l3.37549,-1.2v0h-9.49648v0c-0.22791,-0.40554 -0.46736,-0.80553 -0.71947,-1.2v0h13.59145v0l1.50812,-0.53614v0c-0.08673,-0.22234 -0.17508,-0.44363 -0.2651,-0.66386v0h-15.65401v0c-0.2961,-0.40613 -0.60772,-0.80611 -0.93621,-1.2v0h16.07839v0c-0.17957,-0.40369 -0.36518,-0.80369 -0.55709,-1.2v0h-16.59357v0c-0.38908,-0.40685 -0.79893,-0.80683 -1.23116,-1.2v0h17.21817v0c-0.21305,-0.40401 -0.43319,-0.80401 -0.66069,-1.2v0h-17.97458v0c-0.10396,-0.08205 -0.20905,-0.16379 -0.31528,-0.24521v0c-0.44268,-0.33557 -0.88978,-0.65374 -1.34082,-0.95479v0h18.91068v0c-0.25326,-0.40439 -0.51487,-0.80439 -0.78513,-1.2v0h-20.10662v0c-0.83033,-0.45357 -1.67127,-0.85303 -2.52011,-1.2v0h21.76996v0c-0.30194,-0.40485 -0.61376,-0.80485 -0.93581,-1.2v0h-24.64225v0c-3.3967,-0.76579 -6.85352,-0.76158 -10.20758,-0.08526v0l-0.29843,-1.11474v0h34.12503v0c-0.3615,-0.40541 -0.73476,-0.80541 -1.12025,-1.2v0h-33.32604v0l-0.32126,-1.2v0h32.41895v0c-0.43538,-0.40611 -0.88497,-0.80612 -1.34929,-1.2v0h-31.39092v0l-0.32126,-1.2v0h30.22686v0c-0.1319,-0.10153 -0.26488,-0.20262 -0.39896,-0.30327v0c-0.39478,-0.30812 -0.79201,-0.60701 -1.19155,-0.89673v0h-28.95761v0l-0.32127,-1.2v0h27.53091v0c-0.65243,-0.42328 -1.31034,-0.82317 -1.97319,-1.2v0h-25.87898v0l-0.32126,-1.2v0h23.91326v0c-0.91667,-0.44184 -1.84133,-0.84158 -2.77262,-1.2v0h-21.4619v0l-0.32126,-1.2v0h18.08338v0c-3.04559,-0.80867 -6.14103,-1.2 -9.24037,-1.2v0v0" fill-rule="nonzero" stroke-linejoin="miter" stroke-miterlimit="10"/><path d="M962.8613,367.14522c6.66506,-1.76947 14.06468,-0.4065 19.98718,4.16463c3.78888,2.86543 6.4569,6.73515 7.94803,10.89181l15.22356,-5.41203c-2.51191,-7.00216 -7.04935,-13.49421 -13.33012,-18.24667c-10.02761,-7.73745 -22.64319,-9.96124 -33.99181,-6.94836z" fill-rule="evenodd" stroke-linejoin="round" stroke-miterlimit="2"/><path d="M957.7234,368.57395c-7.48969,3.15436 -16.70669,2.83554 -24.05827,-1.67183c-4.83367,-2.82956 -8.26227,-6.77699 -10.538,-11.30628l14.45898,-7.19744c0.9267,1.84718 2.30175,3.47916 4.41135,4.71659c2.91822,1.7874 6.51094,1.86711 9.42916,0.63765z" fill-rule="evenodd" stroke-linejoin="round" stroke-miterlimit="2"/><path d="M938.45142,367.97668c1.36832,0.53506 2.75246,0.9322 4.14208,1.2v0c3.02235,0.58245 6.07059,0.55305 9.03822,0v0c1.47322,-0.27455 2.92658,-0.67815 4.34704,-1.2v0h-17.52734v0c-0.87634,-0.34268 -1.74619,-0.74193 -2.60683,-1.2v0h19.81144v0l-0.50982,-1.2v0h-21.36646v0c-0.6499,-0.39116 -1.25952,-0.79073 -1.83334,-1.2v0h22.68999v0l-0.50982,-1.2v0h-23.72983v0c-0.46396,-0.39061 -0.90176,-0.79028 -1.3168,-1.2v0h24.53682v0l-0.50982,-1.2v0h-25.15482v0c-0.34062,-0.39069 -0.66508,-0.79044 -0.97591,-1.2v0h25.62092v0l-0.50982,-1.2v0h-25.96598v0c-0.26179,-0.39108 -0.51425,-0.7909 -0.75933,-1.2v0h26.21549v0l-0.50981,-1.2v0h-26.01279v0l2.41068,-1.2v0h15.14923v0c-0.41241,-0.18328 -0.82569,-0.39453 -1.23946,-0.63567l-0.87446,-0.56433h-10.62462v0l2.41069,-1.2v0h6.72636v0c-0.40732,-0.38929 -0.75528,-0.78515 -1.07455,-1.2v0h-3.24113v0l2.41069,-1.2v0c0.26848,0.42241 0.53738,0.81921 0.83044,1.2" fill-rule="nonzero" stroke-linejoin="miter" stroke-miterlimit="10"/><path d="M919.61074,348.41588c0.23513,0.38877 0.46588,0.78128 0.69219,1.17749v0l2.21319,-1.17749v0h-2.90538v0c-0.24435,-0.40403 -0.49344,-0.80403 -0.74721,-1.2v0h5.90809v0l2.2555,-1.2v0h-8.9553v0c-0.27459,-0.4044 -0.55422,-0.80441 -0.83881,-1.2v0h12.04962v0l2.2555,-1.2v0h-15.19392v0c-0.30865,-0.40486 -0.6227,-0.80486 -0.94205,-1.2v0h16.64011v0c-0.23116,-0.40327 -0.46588,-0.80326 -0.70412,-1.2v0h-16.93494v0c-0.34756,-0.40542 -0.70093,-0.80542 -1.06003,-1.2v0h17.25736v0c-0.25382,-0.40349 -0.51139,-0.80349 -0.7727,-1.2v0h-17.61051v0c-0.39275,-0.40611 -0.79184,-0.80612 -1.19716,-1.2v0h17.99811v0c-0.27878,-0.40374 -0.56155,-0.80374 -0.8483,-1.2v0h-18.42466v0c-0.44639,-0.40702 -0.89977,-0.80702 -1.36003,-1.2v0h18.89555v0c-0.30649,-0.40403 -0.61725,-0.80403 -0.93226,-1.2v0h-19.41741v0c-0.51183,-0.40822 -1.03153,-0.80823 -1.55893,-1.2v0h19.99844v0c-0.33752,-0.40438 -0.67964,-0.80437 -1.02631,-1.2v0h-20.64898v0c-0.59472,-0.40993 -1.1985,-0.80994 -1.81113,-1.2v0h21.3823v0c-0.37263,-0.40478 -0.75021,-0.80478 -1.13274,-1.2v0h-22.21575v0c-0.70544,-0.41251 -1.4217,-0.81253 -2.14849,-1.2v0h23.17269v0c-0.41282,-0.40528 -0.83106,-0.80528 -1.25468,-1.2v0h-24.31317v0c-0.90728,-0.42225 -1.82858,-0.82256 -2.76263,-1.2v0h25.75305v0c-0.45953,-0.40588 -0.92503,-0.80588 -1.39645,-1.2v0h-27.59791v0c-1.32337,-0.44612 -2.66816,-0.84692 -4.03107,-1.2v0h30.15237v0c-0.51478,-0.40665 -1.03623,-0.80665 -1.56428,-1.2v0h-34.43825v0c-5.54828,-0.84376 -11.30595,-0.89301 -17.07062,0v0h-34.44592v0c0.5304,-0.4075 1.06799,-0.8075 1.61325,-1.2v0h82.6808v0c-0.58167,-0.40764 -1.1709,-0.80764 -1.76762,-1.2v0h-79.18698v0c0.60923,-0.4088 1.22807,-0.8088 1.85716,-1.2v0h75.44284v0c-0.66511,-0.40899 -1.33897,-0.80899 -2.02151,-1.2v0h-71.41077v0c0.71731,-0.41065 1.44784,-0.81064 2.1924,-1.2v0h67.04354v0c-0.65879,-0.34997 -1.32517,-0.69201 -1.99906,-1.02613l-0.35637,-0.17387h-62.27698v0c0.68729,-0.32527 1.38631,-0.64218 2.09763,-0.95075l0.53495,-0.24925h57.04146v0c-0.96033,-0.42041 -1.93017,-0.82061 -2.90893,-1.2v0h-51.28127v0c1.12019,-0.43256 2.26292,-0.83126 3.42402,-1.2v0h44.52257v0c-1.31718,-0.4379 -2.64878,-0.83837 -3.99345,-1.2v0h-36.29646v0c1.78949,-0.45192 3.60875,-0.84757 5.44387,-1.2v0h25.60036v0c-4.1751,-0.787 -8.45485,-1.2 -12.80212,-1.2h-0.00001c-4.18651,0 -8.43565,0.38303 -12.71426,1.18391" fill-rule="nonzero" stroke-linejoin="miter" stroke-miterlimit="10"/><path d="M892.87016,358.11056c1.70129,9.19806 0.49037,18.39612 -3.12237,26.54804c-1.4551,3.38152 -3.38258,6.5299 -5.6523,9.54079c-6.78315,8.68196 -16.47851,14.94485 -28.20541,17.13477c-25.023,4.35194 -48.81307,-12.11728 -53.17838,-36.98552c-2.67403,-14.76551 2.18366,-29.29191 11.90904,-39.4584l11.70489,11.09905c-6.28677,6.57175 -9.43516,15.95711 -7.69784,25.54573c2.83215,16.13646 18.27187,26.76723 34.3821,23.96358c7.58576,-1.41478 13.90256,-5.51366 18.24185,-11.06717c1.41908,-1.88305 2.69405,-3.91555 3.67479,-6.19115c2.35779,-5.32037 3.1484,-11.26643 2.04756,-17.21249z" fill-rule="evenodd" stroke-linejoin="round" stroke-miterlimit="2"/><path d="M892.0576,360.59056c-0.04946,-0.35952 -0.10325,-0.71992 -0.16137,-1.08123v0l-5.89164,1.08123v0l-6.53881,1.2v0h12.74119v0c-0.0444,-0.39893 -0.09419,-0.79892 -0.14937,-1.2v0c-0.04946,-0.35952 -0.10325,-0.71992 -0.16137,-1.08123" fill-rule="nonzero" stroke-linejoin="miter" stroke-miterlimit="10"/><path d="M878.34372,361.99648c0.04635,0.33225 0.08763,0.66359 0.12382,0.99408v0h13.85698v0c0.0339,0.40101 0.06229,0.801 0.08517,1.2v0h-13.83292v0c0.02903,0.40114 0.05041,0.80111 0.06408,1.2v0h13.8211v0c0.0119,0.40094 0.01818,0.80093 0.01882,1.2v0h-13.82215v0c-0.00193,0.40097 -0.01179,0.80094 -0.02966,1.2v0h13.83667v0c-0.01078,0.40087 -0.0273,0.80085 -0.04957,1.2v0h-13.86522v0c-0.03429,0.40079 -0.0768,0.80075 -0.12756,1.2v0h13.9083v0c-0.03409,0.40079 -0.07404,0.80077 -0.11983,1.2v0h-13.96635v0c-0.06787,0.40059 -0.14419,0.80056 -0.22901,1.2v0h14.03976v0c-0.05797,0.4007 -0.12189,0.80068 -0.19176,1.2v0h-14.12885v0c-0.10243,0.40039 -0.21352,0.80035 -0.33332,1.2v0h14.23388v0c-0.08235,0.40061 -0.17073,0.80059 -0.26515,1.2v0h-14.35503v0c-0.1377,0.40018 -0.28424,0.80015 -0.43967,1.2v0h14.4924v0c-0.10713,0.40052 -0.22038,0.8005 -0.33974,1.2v0h-14.64601l-0.05576,0.1279c-0.15732,0.36216 -0.32226,0.71956 -0.49402,1.0721v0h14.81839v0c-0.13224,0.40042 -0.27065,0.8004 -0.41525,1.2v0h-15.02328v0c-0.22246,0.40714 -0.45332,0.8072 -0.69122,1.2v0h15.26122v0c-0.15757,0.40032 -0.32138,0.8003 -0.49143,1.2v0h-15.53217v0c-0.27183,0.40878 -0.55028,0.80885 -0.8336,1.2v0h15.8429v0c-0.17868,0.40405 -0.36395,0.80391 -0.5557,1.2v0h-16.21916v0c-0.33955,0.4077 -0.69064,0.80789 -1.05285,1.2v0h16.66551v0c-0.21254,0.40343 -0.43196,0.80327 -0.65812,1.2v0h-17.17668v0c-0.422,0.41069 -0.85683,0.81094 -1.30393,1.2v0h17.77051v0c-0.24697,0.40262 -0.50099,0.80245 -0.76192,1.2v0h-18.4729v0c-0.53938,0.41602 -1.09396,0.8164 -1.66291,1.2v0h19.32282v0c-0.28052,0.40165 -0.56812,0.80147 -0.86266,1.2v0h-20.38267v0c-0.74344,0.42843 -1.50757,0.82915 -2.29079,1.2v0h21.74444v0c-0.3281,0.40601 -0.66244,0.80606 -1.00297,1.2v0h-23.63431v0c0.98983,-0.35471 1.95502,-0.75594 2.89284,-1.2" fill-rule="nonzero" stroke-linejoin="miter" stroke-miterlimit="10"/><path d="M876.33345,352.35181c0.02949,0.07416 0.05949,0.15146 0.09109,0.23363v0l1.17305,-0.23363v0h-1.26414v0c-0.1591,-0.40014 -0.30312,-0.70897 -0.60191,-1.2v0h7.89127v0l6.02523,-1.2v0h-14.83924v0c-0.41766,-0.4414 -0.87647,-0.84309 -1.3666,-1.2v0h16.24906v0c-0.12473,-0.40935 -0.25913,-0.80661 -0.40809,-1.2v0h-18.00227v0c-0.93401,-0.37693 -1.91819,-0.60862 -2.90626,-0.6712l-0.09396,-0.00665c-1.16761,-0.05823 -2.49773,0.14213 -3.75097,0.67785v0h-17.52291v0c0.14769,-0.40421 0.30719,-0.80438 0.47873,-1.2v0h41.29138v0c-0.18314,-0.39277 -0.38569,-0.79005 -0.61252,-1.2v0h-40.11411v0c0.20654,-0.40578 0.42662,-0.80598 0.66047,-1.2v0h38.74339v0c-0.1885,-0.30029 -0.39036,-0.61001 -0.60712,-0.93175l-0.18689,-0.26825h-37.1808v0c0.28141,-0.40802 0.57892,-0.80825 0.89283,-1.2v0h35.37005v0c-0.33812,-0.41519 -0.68648,-0.81521 -1.0445,-1.2v0h-33.2869v0c0.38433,-0.41156 0.78896,-0.81188 1.2143,-1.2v0h30.87237v0c-0.45414,-0.4221 -0.92127,-0.82213 -1.40035,-1.2v0h-28.03877v0c0.42521,-0.32661 0.86771,-0.6424 1.32779,-0.94666v0c0.11994,-0.08596 0.24051,-0.17041 0.36168,-0.25334v0h24.67453v0c-0.67913,-0.44043 -1.37778,-0.84052 -2.09345,-1.2v0h-20.59281v0c-0.6774,0.35771 -1.34143,0.75729 -1.98827,1.2" fill-rule="nonzero" stroke-linejoin="miter" stroke-miterlimit="10"/><path d="M867.53003,333.15181v0v0c-2.35113,0 -4.74597,0.38549 -7.05182,1.2v0h14.96518v0c-2.06346,-0.69048 -4.22943,-1.07564 -6.44701,-1.14994v0c-0.48607,-0.03324 -0.97526,-0.05006 -1.46635,-0.05006" fill-rule="nonzero" stroke-linejoin="miter" stroke-miterlimit="10"/><path d="M863.23063,348.25537l-0.10781,0.07155v0c-0.19185,0.13248 -0.37869,0.27461 -0.55986,0.42489v0h-15.94225l-0.00398,0.01373c-0.10703,0.42612 -0.20391,0.81835 -0.29147,1.18627v0h15.04262v0c-0.3189,0.38409 -0.60493,0.78886 -0.85166,1.2v0h-14.45991v0c-0.08571,0.41495 -0.15771,0.80828 -0.21773,1.2v0h14.077l-0.05685,0.1462c-0.14196,0.5309 -0.20815,0.78157 -0.26589,1.0538l-0.08352,0.43354h-13.85297l0.03554,-0.43354c0.03789,-0.41204 0.0862,-0.80521 0.14669,-1.2" fill-rule="nonzero" stroke-linejoin="miter" stroke-miterlimit="10"/><path d="M861.00419,322.25398c-1.465,0.28125 -2.94132,0.5976 -4.40663,0.9619v0h-30.13991v0c-0.48207,0.39347 -0.9583,0.79347 -1.42908,1.2v0h27.378v0c-1.09931,0.36206 -2.17917,0.76009 -3.22929,1.2v0h-25.50206v0c-0.43314,0.39421 -0.86179,0.79421 -1.2863,1.2v0h24.10293v0c-0.8398,0.38501 -1.6575,0.78505 -2.45471,1.2v0h-22.87492v0c-0.29799,0.29821 -0.59401,0.59939 -0.8882,0.90353v0l0.31909,0.29647v0h21.26524v0c-0.66765,0.38864 -1.32068,0.78867 -1.96017,1.2v0h-18.01354v0l1.29153,1.2v0h14.93913v0c-0.55544,0.39087 -1.10068,0.79089 -1.63654,1.2v0h-12.01106v0l1.29154,1.2v0h9.20547v0c-0.47721,0.39238 -0.94714,0.7924 -1.4104,1.2v0h-6.50354v0l1.29153,1.2v0h3.89013v0c-0.42034,0.39347 -0.83542,0.79349 -1.24575,1.2v0c-0.21793,0.2159 -0.43452,0.43363 -0.64984,0.65319l-0.70301,-0.65319l-1.29153,-1.2" fill-rule="nonzero" stroke-linejoin="miter" stroke-miterlimit="10"/><path d="M858.01769,366.16285c-4.90372,9.10042 -11.5968,17.30813 -19.84506,23.96556l-10.17973,-12.49788c6.56298,-5.29845 11.87902,-11.83632 15.78198,-19.07561z" fill-rule="evenodd" stroke-linejoin="round" stroke-miterlimit="2"/><path d="M857.466,409.79056c-0.59039,0.13154 -1.18684,0.25252 -1.78928,0.36273v0c-6.08452,1.08287 -12.0384,0.89898 -17.64725,-0.36273v0h19.43653v0c1.49581,-0.33328 2.9527,-0.73439 4.3695,-1.2v0h-28.109v0c-1.07668,-0.35982 -2.1375,-0.76032 -3.1808,-1.2v0h34.51774v0c0.89612,-0.37319 1.77429,-0.77351 2.63415,-1.2v0h-39.76283v0c-0.75958,-0.37886 -1.50849,-0.77907 -2.24601,-1.2v0h44.26054v0c0.67151,-0.38348 1.33077,-0.78366 1.97757,-1.2v0h-48.22248v0c-0.49435,-0.3162 -0.98296,-0.64201 -1.46561,-0.97721l-0.31795,-0.22279h51.77379v0c0.54289,-0.38822 1.07623,-0.78833 1.59989,-1.2v0h-54.99496v0c-0.50341,-0.38994 -0.99826,-0.79 -1.48419,-1.2v0h57.9403v0c0.45589,-0.39094 0.90381,-0.79102 1.34366,-1.2v0h-60.6496v0c-0.42827,-0.39189 -0.8488,-0.79194 -1.26132,-1.2v0h63.1531v0c0.39134,-0.3927 0.77575,-0.79277 1.15316,-1.2v0h-26.82573v0c-0.14594,0.03023 -0.29228,0.05947 -0.43902,0.0877v0c-3.70734,0.62205 -7.428,0.56351 -10.98097,-0.0877v0h-27.2288v0c-0.36863,-0.39324 -0.73012,-0.79328 -1.08425,-1.2v0h23.72525v0c-1.01974,-0.35009 -2.01682,-0.7509 -2.98621,-1.2v0h-21.74671v0c-0.31917,-0.39423 -0.63166,-0.79426 -0.93728,-1.2v0h20.35935v0c-0.65845,-0.37662 -1.30064,-0.77692 -1.92473,-1.2v0h-19.30671v0c-0.27683,-0.39498 -0.54733,-0.795 -0.81135,-1.2v0h18.47335v0c-0.49009,-0.38406 -0.96922,-0.78431 -1.43653,-1.2v0h-17.79123v0c-0.23968,-0.39557 -0.47333,-0.79559 -0.7008,-1.2v0h17.2188v0c-0.38955,-0.38884 -0.76944,-0.78901 -1.1391,-1.2v0h-16.72978v0c-0.20647,-0.39605 -0.40715,-0.79607 -0.60191,-1.2v0h16.30653v0c-0.31765,-0.39158 -0.62641,-0.79171 -0.92586,-1.2v0h-15.93665v0c-0.17632,-0.39645 -0.34705,-0.79647 -0.51207,-1.2v0h15.61115v0c-0.26107,-0.39337 -0.51375,-0.79347 -0.75773,-1.2v0h-15.32336v0c-0.1486,-0.39678 -0.29177,-0.7968 -0.42942,-1.2v0h15.0682v0c-0.21372,-0.39463 -0.4194,-0.79471 -0.61676,-1.2v0h-14.84179v0c-0.12285,-0.39706 -0.2404,-0.79708 -0.35259,-1.2v0h14.64111v0c-0.17233,-0.39557 -0.33685,-0.79564 -0.49333,-1.2v0h-14.4638v0c-0.0987,-0.39731 -0.19224,-0.79732 -0.28053,-1.2v0h14.30803v0c-0.13495,-0.39631 -0.26225,-0.79637 -0.38169,-1.2v0h-14.17237v0c-0.05421,-0.28399 -0.10584,-0.56924 -0.15487,-0.85576l-0.06283,-0.34424h14.06098v0c-0.10034,-0.3969 -0.19313,-0.79696 -0.27816,-1.2v0h-13.98146v0c-0.06109,-0.40106 -0.1167,-0.80108 -0.16688,-1.2v0h13.92269v0c-0.06515,-0.40144 -0.12249,-0.80147 -0.17213,-1.2v0h-13.88554v0c-0.03977,-0.40118 -0.07406,-0.80119 -0.1029,-1.2v0h13.86168v0c-0.03482,-0.40169 -0.06182,-0.80172 -0.08116,-1.2v0h-13.85113v0c-0.01819,-0.4013 -0.03086,-0.80132 -0.03808,-1.2v0h13.85398v0c-0.00406,-0.40197 -0.00031,-0.80201 0.01113,-1.2v0h-13.87038v0c0.00376,-0.40144 0.01306,-0.80145 0.02785,-1.2v0h13.90058v0c0.0274,-0.40229 0.06267,-0.80233 0.10566,-1.2v0h-13.9449v0c0.02618,-0.40158 0.05795,-0.8016 0.09524,-1.2v0h14.00373v0c0.05993,-0.40265 0.1278,-0.8027 0.20347,-1.2v0h-14.07762v0c0.04919,-0.40175 0.10402,-0.80176 0.16443,-1.2v0h14.16723v0c0.09397,-0.40308 0.19602,-0.80313 0.30597,-1.2v0h-14.27336v0c0.07294,-0.40193 0.15159,-0.80195 0.23589,-1.2v0h14.39699v0c0.13012,-0.40359 0.2685,-0.80364 0.41494,-1.2v0h-14.53929v0c0.0976,-0.40213 0.201,-0.80215 0.31014,-1.2v0h14.70174v0c0.16918,-0.40422 0.34687,-0.80428 0.53284,-1.2v0h-14.88607v0c0.12339,-0.40235 0.25269,-0.80238 0.38783,-1.2v0h15.09441v0c0.21229,-0.40501 0.43343,-0.80508 0.66316,-1.2v0h-15.32937v0c0.15057,-0.40261 0.30717,-0.80264 0.46974,-1.2v0h15.59416v0c0.26119,-0.40605 0.53168,-0.80613 0.81119,-1.2v0h-15.89276v0c0.17946,-0.40292 0.36513,-0.80294 0.5569,-1.2v0h16.23018v0c0.31864,-0.40747 0.64726,-0.80757 0.98546,-1.2v0h-16.61282v0c0.2105,-0.40327 0.42739,-0.8033 0.65057,-1.2v0h14.96199v0l-1.2655,-1.2v0h-12.99613v0c0.24424,-0.40369 0.49511,-0.80372 0.75249,-1.2v0h10.97814v0l-1.26551,-1.2v0h-8.90541v0c0.28144,-0.4042 0.56981,-0.80423 0.86497,-1.2v0h6.77494v0l-1.2655,-1.2v0h-4.58331v0c0.32319,-0.40483 0.65366,-0.80487 0.99127,-1.2v0h2.32653v0l-1.2655,-1.2v0c-0.36107,0.39475 -0.71481,0.79479 -1.06103,1.2" fill-rule="nonzero" stroke-linejoin="miter" stroke-miterlimit="10"/><path d="M854.69517,336.02406c4.33729,-3.05473 9.57327,-4.32006 14.3509,-4.02116c7.21148,0.2989 14.14274,3.85377 18.72622,10.2422l0.07205,0.10761c1.81738,2.71598 2.99628,5.44789 3.60074,8.46476l-15.84804,3.15635c-0.18614,-0.9206 -0.57844,-1.74157 -1.12085,-2.56852c-1.49514,-2.03449 -3.74284,-3.22609 -6.1867,-3.32772l-0.08406,-0.00598c-1.42708,-0.08967 -2.95624,0.2192 -4.31127,1.18364l-0.10809,0.07173c-1.35503,0.89868 -2.28774,2.13612 -2.7681,3.48116c-0.21216,0.79307 -0.43833,1.58016 -0.43833,2.37722h-16.16427c0,-2.23974 0.48036,-4.49341 1.04279,-6.73315l0.17213,-0.59381c1.52116,-4.53925 4.53144,-8.78757 9.06488,-11.83433zM854.69517,336.02406l-0.09007,0.05978l0.21417,-0.14746z" fill-rule="evenodd" stroke-linejoin="round" stroke-miterlimit="2"/><path d="M847.67319,326.2854l-0.24199,0.11018" fill-rule="nonzero" stroke-linejoin="miter" stroke-miterlimit="10"/><path d="M843.56361,361.3711c0.23228,-0.39542 0.4622,-0.79534 0.69,-1.2v0l2.24652,1.2v0h-2.93652v0c-0.23769,0.40464 -0.47785,0.80455 -0.72073,1.2v0h5.90377v0l2.24652,1.2v0h-8.90461v0c-0.26028,0.40453 -0.52382,0.80444 -0.79091,1.2v0h11.94204v0l2.24651,1.2v0h-15.01924v0c-0.28697,0.40433 -0.57812,0.80423 -0.8738,1.2v0h16.38411v0c-0.22976,0.40393 -0.46132,0.80387 -0.69483,1.2v0h-16.60964v0c-0.31809,0.404 -0.64145,0.80388 -0.97045,1.2v0h16.85951v0c-0.24709,0.4039 -0.49647,0.80384 -0.74831,1.2v0h-17.13525v0c-0.35376,0.40352 -0.714,0.80339 -1.08114,1.2v0h17.43829v0c-0.26711,0.40383 -0.53706,0.80377 -0.81007,1.2v0h-17.7698v0c-0.39377,0.40288 -0.79533,0.80273 -1.20514,1.2v0h18.1306v0c-0.29008,0.4037 -0.58365,0.80363 -0.88096,1.2v0h-18.52113v0c-0.43744,0.40209 -0.88401,0.80193 -1.34021,1.2v0h18.94131v0c-0.31621,0.4035 -0.63665,0.80342 -0.96159,1.2v0h-18.63756v0l0.97742,1.2v0h16.65445v0c-0.34561,0.40321 -0.69628,0.80312 -1.05229,1.2v0h-14.62474v0l0.97742,1.2v0h12.54592v0c-0.37824,0.40283 -0.76244,0.80273 -1.1529,1.2v0h-10.4156v0l0.97742,1.2v0h8.23149v0c-0.41386,0.40235 -0.83461,0.80225 -1.26259,1.2v0h-5.99148v0l0.97742,1.2v0h3.6937v0c-0.45194,0.40178 -0.91174,0.80167 -1.37974,1.2v0c-0.26181,0.22283 -0.52618,0.44518 -0.79318,0.6671l-0.54336,-0.6671l-0.97742,-1.2" fill-rule="nonzero" stroke-linejoin="miter" stroke-miterlimit="10"/><path d="M841.36905,312.77983c5.16592,-2.43701 10.98234,-4.03311 16.8588,-5.15896c15.79199,-2.91923 31.35982,-0.2431 44.71996,6.29278c13.09795,6.51994 24.13433,16.66849 31.13364,29.70837l-14.25482,7.58402c-5.41011,-10.07482 -13.98862,-17.8601 -24.05827,-22.8736c-10.30783,-5.04538 -22.36098,-7.15161 -34.53823,-4.89992c-4.52143,0.8668 -9.05287,2.03649 -13.05191,3.94146l-0.25819,0.11756c-6.77314,2.93915 -12.67163,7.27317 -17.53532,12.46003l-11.81697,-10.97949c6.3228,-6.74312 14.00063,-12.3584 22.80131,-16.19225z" fill-rule="evenodd" stroke-linejoin="round" stroke-miterlimit="2"/><path d="M808.05776,401.72562c-12.9038,3.98729 -26.4741,4.44559 -39.18575,2.0046c-15.81201,-3.10454 -30.73134,-11.08908 -42.08996,-22.83972l11.64884,-11.15882c9.05688,9.37142 20.95792,15.73394 33.53547,18.20283c10.1377,1.94881 20.98593,1.61005 31.29976,-1.57619z" fill-rule="evenodd" stroke-linejoin="round" stroke-miterlimit="2"/><path d="M802.47263,387.84479l0.11542,0.37017v0h-1.46513" fill-rule="nonzero" stroke-linejoin="miter" stroke-miterlimit="10"/><path d="M799.67671,402.61496c-2.84791,0.564 -5.7005,0.96251 -8.55788,1.2v0h-12.85228v0c-2.94066,-0.23977 -5.88654,-0.64136 -8.83777,-1.2v0h30.24793v0c1.71511,-0.33966 3.42853,-0.73933 5.14028,-1.2v0h-40.71454v0c-1.39432,-0.36412 -2.77295,-0.76429 -4.1351,-1.2v0h46.3624v0l-0.37417,-1.2v0h-49.45829v0c-1.01949,-0.37954 -2.02897,-0.77961 -3.02808,-1.2v0h52.1122v0l-0.37417,-1.2v0h-54.44395v0c-0.82666,-0.38573 -1.64572,-0.78577 -2.45698,-1.2v0h56.52676v0l-0.37417,-1.2v0h-58.40933v0c-0.70322,-0.38907 -1.40021,-0.7891 -2.09082,-1.2v0h60.12598v0l-0.37417,-1.2v0h-61.70199v0c-0.61499,-0.39116 -1.22463,-0.79118 -1.82881,-1.2v0h63.15663v0l-0.37417,-1.2v0h-7.36856v0c-7.34782,1.26228 -14.76607,1.22843 -22.16136,0v0h-34.97508v0c-0.54754,-0.39259 -1.09035,-0.79261 -1.62834,-1.2v0h31.00512v0c-1.36604,-0.35786 -2.71559,-0.75818 -4.04714,-1.2v0h-28.50199v0c-0.49358,-0.39363 -0.98288,-0.79364 -1.46785,-1.2v0h26.65495v0c-0.96188,-0.37787 -1.91324,-0.778 -2.85349,-1.2v0h-25.20001v0c-0.44895,-0.39442 -0.894,-0.79443 -1.33508,-1.2v0h24.00844v0c-0.7677,-0.38508 -1.52727,-0.78516 -2.27838,-1.2v0h-23.00667v0c-0.41113,-0.39504 -0.81864,-0.79505 -1.22248,-1.2v0h22.14841v0c-0.64623,-0.3888 -1.28566,-0.78885 -1.91806,-1.2v0h-19.17512v0l1.2527,-1.2v0h16.14174v0c-0.56013,-0.39107 -1.11431,-0.79111 -1.66237,-1.2v0h-13.22667v0l1.25269,-1.2v0h10.41515v0c-0.4944,-0.39259 -0.98346,-0.79262 -1.46703,-1.2v0h-7.69542v0l1.2527,-1.2v0h5.05799v0c-0.44169,-0.39369 -0.87848,-0.79372 -1.31026,-1.2v0h-2.49504v0l1.2527,-1.2v0c0.40933,0.40585 0.82348,0.80587 1.24234,1.2" fill-rule="nonzero" stroke-linejoin="miter" stroke-miterlimit="10"/><path d="M778.2704,384.10407c-0.58636,0.41292 -1.1875,0.81277 -1.80359,1.2h-0.15208l-0.71025,-1.2v0h2.66592v0c0.55144,-0.38833 1.0898,-0.78821 1.61523,-1.2v0h-4.9914v0l-0.71025,-1.2v0h7.15709v0c0.44967,-0.39004 0.88904,-0.78996 1.31818,-1.2v0h-9.18551v0l-0.71025,-1.2v0h11.09478v0c0.37326,-0.39132 0.73811,-0.79125 1.09464,-1.2v0h-12.89967v0l-0.71025,-1.2v0h14.61239v0c0.31383,-0.39231 0.62065,-0.79226 0.92052,-1.2v0h-16.24315v0l-0.71025,-1.2v0h17.80058v0c0.26634,-0.3931 0.52673,-0.79305 0.78121,-1.2v0h-18.77042v0c0.55981,-0.38328 1.10152,-0.78281 1.62494,-1.2v0h17.86704v0c0.22758,-0.39374 0.45003,-0.7937 0.66737,-1.2v0h-17.13353v0c0.41883,-0.38582 0.82414,-0.78552 1.21584,-1.2v0h16.53565v0c0.11899,-0.2401 0.23631,-0.48231 0.35197,-0.72666l0.22038,-0.47334h-16.04684v0c0.32069,-0.38783 0.63086,-0.78763 0.93041,-1.2v0h15.64268v0c0.16669,-0.39745 0.32699,-0.79748 0.48077,-1.2v0h-15.30475v0c0.2493,-0.38941 0.49009,-0.78927 0.72235,-1.2v0h15.01892v0c0.13747,-0.39773 0.26861,-0.79776 0.39333,-1.2v0h-14.77369v0c0.09645,-0.19282 0.19119,-0.38789 0.28421,-0.58525v0c0.09575,-0.20315 0.18883,-0.4081 0.27921,-0.61475v0h14.56138v0c0.10954,-0.39799 0.21281,-0.79801 0.30971,-1.2v0h-14.38381v0c0.14836,-0.3949 0.28719,-0.79509 0.41628,-1.2v0h14.2366v0c0.08262,-0.39821 0.159,-0.79823 0.22906,-1.2v0h-14.11537v0c0.10524,-0.39633 0.20133,-0.7965 0.28809,-1.2v0h14.01691v0c0.05647,-0.39841 0.10672,-0.79843 0.15068,-1.2v0h-13.93886v0c0.06617,-0.39747 0.12336,-0.79762 0.1714,-1.2v0h13.87961v0c0.0309,-0.39859 0.05559,-0.79861 0.07399,-1.2v0h-13.8381v0c0.02918,-0.39844 0.04939,-0.79858 0.06045,-1.2v0h13.81376v0c0.00574,-0.39875 0.00526,-0.79877 -0.00151,-1.2v0h-13.80652v0c-0.00719,-0.39931 -0.0235,-0.79944 -0.04908,-1.2v0h13.81665v0c-0.01915,-0.3989 -0.04454,-0.79893 -0.07625,-1.2v0h-13.84486v0c-0.04416,-0.40014 -0.09773,-0.80027 -0.16085,-1.2v0h13.89226v0c-0.04391,-0.39905 -0.09409,-0.79907 -0.15061,-1.2v0h-13.9811v0c-0.09256,-0.40367 -0.19455,-0.80376 -0.3057,-1.2v0h14.09905v0c-0.01486,-0.08644 -0.03002,-0.17292 -0.04548,-0.25944l-0.17862,-0.94056h-14.24323v0c-0.135,-0.40462 -0.27961,-0.80472 -0.43348,-1.2v0h14.41474v0c-0.09456,-0.40319 -0.19504,-0.8032 -0.30134,-1.2v0h-14.6154v0c-0.18182,-0.40586 -0.37355,-0.80599 -0.57477,-1.2v0h14.8481v0c-0.12204,-0.40352 -0.25018,-0.80353 -0.38431,-1.2v0h-15.11671v0c-0.23579,-0.4076 -0.48197,-0.80776 -0.73805,-1.2v0h15.42652v0c-0.15174,-0.4039 -0.30979,-0.80392 -0.47404,-1.2v0h-15.7848v0c-0.30193,-0.41024 -0.61508,-0.81044 -0.93881,-1.2v0h16.20165v0c-0.18422,-0.40437 -0.37503,-0.8044 -0.57227,-1.2v0h-16.69161v0c-0.39099,-0.41475 -0.79467,-0.81504 -1.21008,-1.2v0h17.27641v0c-0.22029,-0.40496 -0.44748,-0.80498 -0.6814,-1.2v0h-17.99031v0c-0.42509,-0.33881 -0.8602,-0.66239 -1.30449,-0.96997v0c-0.11207,-0.07759 -0.22489,-0.15427 -0.33843,-0.23003v0h18.89214v0c-0.26108,-0.40569 -0.52945,-0.80572 -0.80491,-1.2v0h-20.08789v0c-0.83113,-0.44616 -1.69183,-0.84703 -2.57672,-1.2v0h21.79102v0c-0.30829,-0.40665 -0.62437,-0.80669 -0.948,-1.2v0h-24.71422v0c-3.25196,-0.73444 -6.70103,-0.85502 -10.12488,-0.25531" fill-rule="nonzero" stroke-linejoin="miter" stroke-miterlimit="10"/><path d="M775.93937,387.02586c13.99463,-8.2117 22.27091,-24.61915 19.27063,-41.7878c-4.01705,-21.99683 -25.06903,-36.42758 -46.85157,-32.4383c-22.01872,3.98529 -36.51372,24.94395 -32.50668,46.62993c1.00076,5.47978 3.01628,10.46937 6.02657,14.96478l13.45022,-8.92706c-1.79336,-2.67812 -2.98027,-5.65911 -3.57672,-8.93104c-2.40182,-13.00202 6.3208,-25.51983 19.51282,-27.90702c13.05992,-2.39118 25.63346,6.29277 28.03128,19.42631c1.79336,10.2701 -3.14038,20.16559 -11.56278,25.10536z" fill-rule="evenodd" stroke-linejoin="round" stroke-miterlimit="2"/><path d="M755.76625,313.30407h0.00001v0c3.24252,0 6.41178,0.41381 9.46136,1.2v0h-19.1604v0c-1.37251,0.33292 -2.70817,0.73432 -4.00494,1.2v0h26.98244v0c0.97116,0.36177 1.92711,0.76227 2.86617,1.2v0h-32.80007v0c-0.81943,0.37355 -1.62103,0.77396 -2.40425,1.2v0h37.56858v0c0.6898,0.37951 1.36904,0.77973 2.03702,1.2v0h-41.6565v0c-0.61153,0.3839 -1.21048,0.78412 -1.79651,1.2v0h45.25275v0c0.54869,0.38712 1.0872,0.7872 1.61499,1.2v0h-48.46854v0c-0.49127,0.38865 -0.97244,0.7888 -1.44329,1.2v0h51.37413v0c0.45317,0.3901 0.89737,0.79016 1.33221,1.2v0h-54.01861v0c-0.40887,0.39137 -0.80909,0.79148 -1.20051,1.2v0h56.43819v0c0.38125,0.392 0.75435,0.79204 1.11901,1.2v0h-58.66047v0c-0.34683,0.39315 -0.68597,0.79323 -1.0173,1.2v0h24.67061v0c-1.29256,0.30759 -2.54772,0.71089 -3.75612,1.2v0h-21.85475v0c-0.29719,0.39439 -0.58737,0.79447 -0.87042,1.2v0h20.16559v0c-0.69283,0.37147 -1.36571,0.77222 -2.0165,1.2v0h-18.95545v0c-0.25601,0.39599 -0.50485,0.79604 -0.74638,1.2v0h18.0244v0c-0.49415,0.38396 -0.97256,0.78436 -1.43411,1.2v0h-17.27991v0c-0.21883,0.39656 -0.43076,0.79661 -0.63563,1.2v0h16.67078v0c-0.37719,0.38936 -0.74052,0.78963 -1.08925,1.2v0h-16.16556v0c-0.18493,0.39703 -0.36313,0.79707 -0.53449,1.2v0h15.74359v0c-0.15054,0.20166 -0.29769,0.40539 -0.44137,0.61109v0c-0.13557,0.1941 -0.26837,0.39043 -0.39837,0.58891v0h-15.39062v0c-0.15349,0.39743 -0.30038,0.79747 -0.44059,1.2v0h15.09445v0c-0.22588,0.39305 -0.44129,0.79325 -0.64595,1.2v0h-14.8443v0c-0.12391,0.39777 -0.24133,0.7978 -0.35218,1.2v0h14.63223v0c-0.17304,0.39488 -0.33628,0.79505 -0.48945,1.2v0h-14.45237v0c-0.09574,0.39806 -0.18508,0.7981 -0.26791,1.2v0h14.30039v0c-0.12763,0.39622 -0.24581,0.79637 -0.35435,1.2v0h-14.17302v0c-0.06863,0.39833 -0.13089,0.79836 -0.18671,1.2v0h14.06784v0c-0.08657,0.39728 -0.16388,0.79741 -0.23173,1.2v0h-13.98311v0c-0.04228,0.39857 -0.07823,0.7986 -0.10775,1.2v0h13.91763v0c-0.04791,0.39817 -0.0866,0.79829 -0.11586,1.2v0h-13.87065v0c-0.01647,0.39878 -0.02659,0.79881 -0.0303,1.2v0h13.84183v0c-0.01026,0.39895 -0.01117,0.79907 -0.00258,1.2v0h-13.8312v0c0.00903,0.39898 0.02442,0.79901 0.04625,1.2v0h13.83911v0c0.02755,0.39968 0.06465,0.7998 0.11151,1.2v0h-13.86625v0c0.0344,0.39917 0.07519,0.7992 0.12246,1.2v0h13.91367l0.04279,0.24957c0.06047,0.32527 0.12419,0.64177 0.19131,0.95043v0h-13.98717v0c0.0598,0.39935 0.12605,0.79937 0.19883,1.2v0h14.07665v0c0.10907,0.41248 0.22547,0.81157 0.34966,1.2v0h-14.19964v0c0.08144,0.40735 0.16706,0.80713 0.257,1.2v0h14.36341v0c0.15626,0.40833 0.32264,0.8071 0.49976,1.2v0h-14.56945v0c0.10626,0.4069 0.21765,0.80663 0.33432,1.2v0h14.81758v0c0.2083,0.40087 0.42893,0.79948 0.6626,1.2v0h-15.10137v0c0.1361,0.40593 0.27838,0.8056 0.42705,1.2v0h13.30708v0l-1.80802,1.2v0h-11.02039v0c0.1703,0.40432 0.34788,0.80394 0.53296,1.2v0h8.67942v0l-1.80802,1.2v0h-6.28242v0c0.20685,0.40213 0.42192,0.80171 0.64547,1.2v0h3.82894v0l-1.80802,1.2v0h-1.31989v0c0.12561,0.20701 0.25359,0.41401 0.38398,0.62118v0l0.93591,-0.62118" fill-rule="nonzero" stroke-linejoin="miter" stroke-miterlimit="10"/><path d="M725.44035,391.13765l-0.27802,-0.972v0c-1.30695,0.35101 -2.61247,0.67489 -3.91623,0.972v0c-2.04129,0.46518 -4.07824,0.86472 -6.10949,1.2v0c-3.69437,0.6098 -7.3699,1.00704 -11.01843,1.2v0h22.00863v0l-0.34323,-1.2v0l-0.34323,-1.2v0l-0.27802,-0.972" fill-rule="nonzero" stroke-linejoin="miter" stroke-miterlimit="10"/><path d="M719.39794,405.53765c-2.65993,0.49721 -5.31067,0.89643 -7.95018,1.2v0h-25.39001v0c-2.6389,-0.30621 -5.25854,-0.70709 -7.85664,-1.2v0h41.19683v0c1.87728,-0.35091 3.75914,-0.75064 5.64485,-1.2v0h-52.391v0c-1.51737,-0.36865 -3.02664,-0.76883 -4.52733,-1.2v0h60.74821v0l-0.34323,-1.2v0h-64.31624v0c-1.16784,-0.38122 -2.33012,-0.78131 -3.48662,-1.2v0h67.45962v0l-0.34323,-1.2v0h-70.28686v0c-0.97871,-0.38666 -1.95305,-0.78671 -2.92287,-1.2v0h72.8665v0l-0.34323,-1.2v0h-75.24514v0c-0.85514,-0.38969 -1.7066,-0.78972 -2.55428,-1.2v0h77.45619v0l-0.34324,-1.2v0h-79.16359v0l0.6286,-1.2v0h45.78961v0c-3.6883,-0.19568 -7.33986,-0.59868 -10.94583,-1.2v0h-34.21519v0l0.6286,-1.2v0h27.55238v0c-1.56798,-0.36259 -3.12611,-0.76285 -4.67363,-1.2v0h-22.25016v0l0.6286,-1.2v0h17.68115v0c-1.16054,-0.37924 -2.3146,-0.77935 -3.46183,-1.2v0h-13.59072v0l0.62859,-1.2v0h9.84529v0c-0.95591,-0.38571 -1.90676,-0.78577 -2.85235,-1.2v0h-6.36434v0l0.62859,-1.2v0h3.09494v0c-0.82641,-0.38915 -1.64857,-0.78919 -2.46634,-1.2v0l-0.6286,1.2" fill-rule="nonzero" stroke-linejoin="miter" stroke-miterlimit="10"/><path d="M713.88425,418.16097c-12.96584,21.14199 -35.77716,35.81185 -62.59953,36.92375c-26.57017,1.1119 -50.68248,-11.11498 -65.64184,-30.89599l12.9138,-9.68028c11.86101,15.68811 30.98153,25.38034 52.05153,24.49959c21.2101,-0.88075 39.22979,-12.51382 49.48157,-29.23213z" fill-rule="evenodd" stroke-linejoin="round" stroke-miterlimit="2"/><path d="M707.06968,381.34619l-6.48168,0.92185v0c-0.05438,-0.31684 -0.10907,-0.62228 -0.16542,-0.92185v0h6.6471v0l7.14837,-1.01667l-0.03017,-0.18333h-14.00705v0c-0.08464,-0.39269 -0.17551,-0.78829 -0.27582,-1.2v0h14.0732v0c-0.07463,-0.40475 -0.1522,-0.80258 -0.23427,-1.2v0h-14.14558v0c-0.10057,-0.37772 -0.20978,-0.77517 -0.32949,-1.2v0h14.21331v0c-0.09009,-0.39223 -0.18587,-0.79023 -0.28875,-1.2v0h-14.26088v0c-0.11396,-0.40198 -0.2313,-0.80198 -0.35198,-1.2v0h14.3005v0c-0.10353,-0.38513 -0.2136,-0.78376 -0.33117,-1.2v0h-14.34523v0c-0.13002,-0.4021 -0.26349,-0.80211 -0.40035,-1.2v0h14.41464v0c-0.10993,-0.40166 -0.22264,-0.80166 -0.33812,-1.2v0h-14.50188v0c-0.14684,-0.40224 -0.29719,-0.80225 -0.45099,-1.2v0h14.59511v0c-0.1231,-0.40174 -0.24903,-0.80175 -0.37777,-1.2v0h-14.69459v0c-0.16451,-0.40239 -0.3326,-0.8024 -0.50421,-1.2v0h14.80063v0c-0.13679,-0.40183 -0.27646,-0.80184 -0.41898,-1.2v0h-14.91357v0c-0.18318,-0.40256 -0.37001,-0.80257 -0.56044,-1.2v0h15.0338v0c-0.15106,-0.40193 -0.30504,-0.80194 -0.46192,-1.2v0h-15.16169v0c-0.20299,-0.40276 -0.40973,-0.80277 -0.62014,-1.2v0h15.29773v0c-0.16596,-0.40204 -0.33492,-0.80205 -0.50681,-1.2v0h-15.4424v0c-0.22416,-0.40298 -0.45216,-0.80299 -0.68393,-1.2v0h15.59628v0c-0.1816,-0.40216 -0.36625,-0.80217 -0.5539,-1.2v0h-15.75996v0c-0.24693,-0.40324 -0.49781,-0.80325 -0.75257,-1.2v0h15.93418v0c-0.19806,-0.4023 -0.39923,-0.8023 -0.60347,-1.2v0h-16.1197v0c-0.27162,-0.40353 -0.54732,-0.80355 -0.82702,-1.2v0h16.31741v0c-0.21547,-0.40245 -0.43411,-0.80245 -0.65589,-1.2v0h-16.52832v0c-0.29865,-0.40389 -0.60152,-0.8039 -0.90854,-1.2v0h16.75355v0c-0.23395,-0.40262 -0.47117,-0.80262 -0.7116,-1.2v0h-16.99441v0c-0.32857,-0.40431 -0.66154,-0.80432 -0.99882,-1.2v0h17.2524v0c-0.25369,-0.40281 -0.51074,-0.80281 -0.77109,-1.2v0h-17.52924v0c-0.36214,-0.40482 -0.72889,-0.80484 -1.10014,-1.2v0h17.82694v0c-0.2749,-0.40302 -0.55325,-0.80303 -0.835,-1.2v0h-18.14786v0c-0.40043,-0.40547 -0.80572,-0.80549 -1.21575,-1.2v0h18.49474v0c-0.29784,-0.40327 -0.59925,-0.80328 -0.90416,-1.2v0h-18.8709v0c-0.44501,-0.40629 -0.89519,-0.80631 -1.35039,-1.2v0h19.28028v0c-0.32285,-0.40356 -0.64939,-0.80357 -0.97957,-1.2v0h-19.72771v0c-0.49829,-0.40738 -1.00215,-0.80741 -1.5114,-1.2v0h20.21909v0c-0.35037,-0.40391 -0.70458,-0.80392 -1.06257,-1.2v0h-20.7618v0c-0.56425,-0.4089 -1.1346,-0.80894 -1.71082,-1.2v0h21.36518v0c-0.38097,-0.40432 -0.76598,-0.80433 -1.15492,-1.2v0h-22.04133v0c-0.65001,-0.41117 -1.30689,-0.81122 -1.97029,-1.2v0h22.80631v0c-0.41547,-0.40481 -0.83517,-0.80483 -1.25901,-1.2v0h-23.68199v0c-0.77009,-0.41488 -1.54819,-0.81495 -2.33383,-1.2v0h24.69936v0c-0.45495,-0.40543 -0.91439,-0.80545 -1.37821,-1.2v0h-25.90451v0c-0.96054,-0.42208 -1.93116,-0.82221 -2.91104,-1.2v0h27.37062v0c-0.50105,-0.40622 -1.0069,-0.80624 -1.51743,-1.2v0h-29.22597v0c-1.21418,-0.39653 -2.44064,-0.75946 -3.67792,-1.08807l0.02746,-0.11193h31.2797v0c-0.55623,-0.40726 -1.11767,-0.80728 -1.68415,-1.2v0h-29.30121v0l0.29435,-1.2v0h27.22551v0c-0.62452,-0.40869 -1.25477,-0.80872 -1.89055,-1.2v0h-25.04062v0l0.29435,-1.2v0h22.73154v0c-0.71297,-0.41078 -1.43241,-0.81082 -2.15806,-1.2v0h-20.27914v0l0.29435,-1.2v0h17.65824v0c-0.8356,-0.41414 -1.67879,-0.8142 -2.52921,-1.2v0h-14.83468v0l0.29434,-1.2v0h11.75988v0c-1.02565,-0.4204 -2.06086,-0.8205 -3.10502,-1.2v0h-8.36051v0l0.29434,-1.2v0h4.51602v0c-1.39356,-0.43619 -2.80125,-0.83641 -4.22167,-1.2v0l-0.29435,1.2" fill-rule="nonzero" stroke-linejoin="miter" stroke-miterlimit="10"/><path d="M699.68335,412.61443c0.26825,-0.39696 0.53218,-0.79699 0.79174,-1.2v0l1.97415,1.2v0h-2.76589v0c-0.27247,0.40319 -0.54939,0.80322 -0.83072,1.2v0h5.57076v0l1.97415,1.2v0h-8.41658v0c-0.3003,0.40361 -0.60526,0.80364 -0.91482,1.2v0h11.30555v0l1.97415,1.2v0h-14.24016v0c-0.33143,0.40411 -0.66776,0.80414 -1.00893,1.2v0h17.09318v0c-0.25461,0.40255 -0.51262,0.80256 -0.774,1.2v0h-17.37985v0c-0.36686,0.40473 -0.73892,0.80477 -1.11611,1.2v0h17.69117v0c-0.27544,0.40279 -0.55441,0.80281 -0.83687,1.2v0h-18.03022v0c-0.40803,0.40552 -0.82165,0.80557 -1.24078,1.2v0h18.40063v0c-0.29815,0.40307 -0.59996,0.80309 -0.90541,1.2v0h-18.80688v0c-0.45717,0.40656 -0.92044,0.80662 -1.38971,1.2v0h19.25441v0c-0.32313,0.40341 -0.6501,0.80343 -0.98087,1.2v0h-19.75003v0c-0.5179,0.408 -1.0426,0.80807 -1.57399,1.2v0h20.30236v0c-0.35092,0.4038 -0.70589,0.80383 -1.06486,1.2v0h-20.92249v0c-0.59666,0.41011 -1.20115,0.8102 -1.81329,1.2v0h21.62506v0c-0.38226,0.40428 -0.76882,0.80431 -1.15962,1.2v0h-22.42992v0c-0.70631,0.41353 -1.42206,0.81366 -2.14701,1.2v0h23.36496v0c-0.41817,0.40488 -0.84096,0.80491 -1.26828,1.2v0h-24.47114v0c-0.87789,0.42 -1.76821,0.82021 -2.67051,1.2v0h25.81251v0c-0.46014,0.40563 -0.92527,0.80566 -1.39532,1.2v0h-27.49834v0c-1.21803,0.4369 -2.45591,0.83739 -3.71272,1.2v0h29.74329v0c-0.51042,0.40661 -1.02633,0.80666 -1.54765,1.2v0h-33.09753v0c-3.14842,0.63643 -6.40034,1.04088 -9.74276,1.19257v0c-0.06752,0.00258 -0.13502,0.00506 -0.20249,0.00743v0h41.40629v0c-0.57263,0.40796 -1.15144,0.80802 -1.73631,1.2v0h-84.55726v0c0.61515,0.40899 1.23648,0.80904 1.86386,1.2v0h80.84362v0c-0.65311,0.40992 -1.31336,0.80999 -1.98062,1.2v0h-76.86908v0c0.70828,0.41142 1.42378,0.81149 2.14633,1.2v0h72.58862v0c-0.76417,0.41302 -1.53698,0.81312 -2.31824,1.2v0h-67.94149v0c0.8424,0.4155 1.69373,0.81561 2.55372,1.2v0h62.84243v0c-0.93424,0.41866 -1.87978,0.81882 -2.83633,1.2v0h-57.16477v0c1.0644,0.42377 2.14105,0.82396 3.22949,1.2v0h50.70536v0c-1.25238,0.43215 -2.52221,0.83248 -3.80891,1.2v0h-43.09762v0c1.56739,0.44957 3.15694,0.8501 4.76726,1.2v0h33.53181v0c-2.37174,0.5106 -4.79505,0.9125 -7.26658,1.2v0h-19.11606v0c4.21829,0.50428 8.55679,0.66996 12.99336,0.47134v0c2.07157,-0.07944 4.11308,-0.23757 6.1227,-0.47134" fill-rule="nonzero" stroke-linejoin="miter" stroke-miterlimit="10"/><path d="M653.66253,313.89173c28.19141,6.85271 51.94144,28.51478 59.89548,58.21319c0.90469,3.15436 1.5772,6.08555 2.02954,9.2419l-16.00015,2.2756c-0.34826,-2.42306 -0.87667,-4.67276 -1.61123,-7.2353c-6.41887,-23.96557 -25.50135,-41.35938 -48.14855,-46.86108z" fill-rule="evenodd" stroke-linejoin="round" stroke-miterlimit="2"/><path d="M653.08008,381.12962c21.65044,11.23654 47.55811,14.74958 72.90936,7.56409l4.42737,15.47888c-29.49039,8.35716 -59.62528,4.29814 -84.8104,-8.77562z" fill-rule="evenodd" stroke-linejoin="round" stroke-miterlimit="2"/><path d="M645.4563,330.43269c-12.7797,9.15422 -15.55582,27.00436 -6.26076,39.65169c2.35779,3.12846 5.15992,5.81654 8.3003,7.69361l-8.31431,13.79708c-4.86569,-2.90528 -9.26904,-6.99219 -12.97385,-11.91204c-14.66514,-19.95437 -10.23577,-47.93512 9.80945,-62.29413z" fill-rule="evenodd" stroke-linejoin="round" stroke-miterlimit="2"/><path d="M639.54364,388.64921l-0.72313,1.2h-0.14988c-0.60452,-0.38762 -1.19507,-0.78682 -1.77363,-1.2v0h2.64664v0l0.72314,-1.2v0h-4.96589v0c-0.489,-0.38699 -0.97021,-0.78645 -1.44498,-1.2v0h7.13401v0l0.72314,-1.2v0h-9.17487v0c-0.40738,-0.3876 -0.81075,-0.78724 -1.21101,-1.2v0h11.10901v0l0.72314,-1.2v0h-12.95367v0c-0.35033,-0.38862 -0.69889,-0.78837 -1.04631,-1.2v0h14.72312v0l0.72314,-1.2v0h-16.42908v0c-0.30995,-0.38969 -0.61945,-0.78951 -0.92897,-1.2v0h18.08118v0l0.53541,-0.88847v0c-0.15326,-0.10287 -0.30509,-0.20668 -0.45557,-0.31153v0h-19.02642v0c-0.2763,-0.39731 -0.54485,-0.79735 -0.80568,-1.2v0h18.22719v0c-0.47695,-0.38289 -0.94224,-0.78164 -1.39925,-1.2v0h-17.57796v0c-0.23967,-0.39771 -0.47203,-0.79775 -0.69713,-1.2v0h17.0394v0c-0.37242,-0.3831 -0.74115,-0.78236 -1.10819,-1.2v0h-16.57792v0c-0.20641,-0.39806 -0.4059,-0.7981 -0.5985,-1.2v0h16.16705v0c-0.27099,-0.33602 -0.54204,-0.68325 -0.81394,-1.04259l-0.11333,-0.15741h-15.79203v0c-0.17585,-0.39837 -0.34509,-0.79841 -0.50775,-1.2v0h15.48515v0c-0.2546,-0.3954 -0.49904,-0.79555 -0.73332,-1.2v0h-15.21668v0c-0.14746,-0.39865 -0.28856,-0.79869 -0.42334,-1.2v0h14.98105v0c-0.20613,-0.39656 -0.40288,-0.79669 -0.59024,-1.2v0h-14.77391v0c-0.12079,-0.3989 -0.23545,-0.79894 -0.344,-1.2v0h14.59183v0c-0.16406,-0.39749 -0.31928,-0.79761 -0.46564,-1.2v0h-14.4321v0c-0.09552,-0.39914 -0.18508,-0.79918 -0.26872,-1.2v0h14.2926v0c-0.12625,-0.39829 -0.24401,-0.7984 -0.35327,-1.2v0h-14.17167v0c-0.07135,-0.39936 -0.13689,-0.7994 -0.19666,-1.2v0h14.06805v0c-0.09121,-0.399 -0.17415,-0.79911 -0.24882,-1.2v0h-13.98083v0c-0.04803,-0.39958 -0.09038,-0.79961 -0.12707,-1.2v0h13.90938v0c-0.05784,-0.39966 -0.1075,-0.79976 -0.149,-1.2v0h-13.85339v0c-0.02536,-0.39979 -0.04512,-0.79982 -0.05933,-1.2v0h13.81276v0c-0.02519,-0.4003 -0.04221,-0.80041 -0.05107,-1.2v0h-13.78765v0c-0.00312,-0.39999 -0.00073,-0.80003 0.00716,-1.2v0h13.77848v0c0.00757,-0.40097 0.02342,-0.80108 0.04755,-1.2v0h-13.78591v0c0.01886,-0.4002 0.04319,-0.80023 0.07296,-1.2v0h13.81088v0c0.04134,-0.40168 0.09118,-0.80179 0.14953,-1.2v0h-13.85464v0c0.04077,-0.40041 0.08698,-0.80044 0.1386,-1.2v0h13.91723v0c0.07589,-0.40308 0.15963,-0.80312 0.25116,-1.2v0h-13.99686l0.007,-0.04454c0.06105,-0.38706 0.12663,-0.77223 0.19675,-1.15546v0h14.09623v0c0.11094,-0.40354 0.23014,-0.80359 0.35753,-1.2v0h-14.21803v0c0.0845,-0.40225 0.17413,-0.80227 0.26886,-1.2v0h14.36393v0c0.14966,-0.40411 0.30809,-0.80416 0.47522,-1.2v0h-14.53593v0c0.10761,-0.40247 0.22059,-0.80249 0.33895,-1.2v0h14.73644v0c0.1933,-0.40483 0.39602,-0.80488 0.60809,-1.2v0h-14.96836v0c0.13266,-0.40272 0.27099,-0.80274 0.415,-1.2v0h15.23527v0c0.24371,-0.40575 0.4977,-0.80581 0.76188,-1.2v0h-15.54152v0c0.16005,-0.40301 0.32612,-0.80303 0.49822,-1.2v0h15.89255v0c0.30381,-0.40699 0.61908,-0.80707 0.94566,-1.2v0h-16.2952v0c0.19031,-0.40334 0.38704,-0.80337 0.59021,-1.2v0h16.75821v0c0.37857,-0.40875 0.77025,-0.80885 1.17486,-1.2v0h-17.29295v0c0.2241,-0.40374 0.45511,-0.80377 0.69305,-1.2v0h17.91456v0c0.3408,-0.2938 0.68957,-0.58182 1.04623,-0.86391l-0.24284,-0.33609h-17.96855v0c0.26235,-0.40423 0.53221,-0.80426 0.8096,-1.2v0h16.2919v0l-0.86706,-1.2v0h-14.55062v0c0.30637,-0.40483 0.62098,-0.80487 0.94386,-1.2v0h12.73971v0l-0.86705,-1.2v0h-10.85329v0c0.35804,-0.4056 0.72526,-0.80564 1.10167,-1.2v0h8.88456v0l-0.86705,-1.2v0h-6.8255v0c0.42023,-0.4066 0.85088,-0.80665 1.29193,-1.2v0h4.66652v0l-0.86706,-1.2v0h-2.39608v0c0.4976,-0.40798 1.00727,-0.80804 1.52903,-1.2v0l0.86705,1.2" fill-rule="nonzero" stroke-linejoin="miter" stroke-miterlimit="10"/><path d="M602.16593,439.01443c0.54507,0.40738 1.09561,0.80742 1.65151,1.2v0h41.9775v0c-3.5211,-0.12481 -6.96178,-0.53206 -10.30214,-1.2v0h-33.32687v0c-0.5261,-0.3932 -1.04712,-0.79324 -1.56294,-1.2v0h29.93851v0c-1.26735,-0.36209 -2.51777,-0.76253 -3.75006,-1.2v0h-27.67167v0c-0.47498,-0.39419 -0.9453,-0.79423 -1.41087,-1.2v0h25.9683v0c-0.9116,-0.37948 -1.81216,-0.77967 -2.70116,-1.2v0h-24.61186v0c-0.4323,-0.39495 -0.86026,-0.79498 -1.28384,-1.2v0h23.49239v0c-0.7335,-0.38609 -1.4584,-0.7862 -2.17437,-1.2v0h-22.54552v0c-0.39577,-0.39555 -0.78748,-0.79557 -1.17508,-1.2v0h21.7301v0c-0.62003,-0.38957 -1.2328,-0.78965 -1.83809,-1.2v0h-21.0181v0c-0.3639,-0.39603 -0.72396,-0.79605 -1.08012,-1.2v0h20.38959v0c-0.53863,-0.39172 -1.07088,-0.79178 -1.59656,-1.2v0h-19.82984v0c-0.33563,-0.39643 -0.6676,-0.79644 -0.99587,-1.2v0h19.3277v0c-0.47591,-0.39317 -0.94605,-0.79322 -1.41026,-1.2v0h-18.87451v0c-0.05002,-0.06397 -0.09995,-0.12803 -0.14979,-0.19217v0l1.34448,-1.00783v0h16.34858v0c-0.4252,-0.39423 -0.84506,-0.79427 -1.25947,-1.2v0h-13.48827v0l1.60084,-1.2v0h10.69371v0c-0.38272,-0.39503 -0.76045,-0.79506 -1.13309,-1.2v0h-7.95979v0l1.60084,-1.2v0h5.28211v0c-0.34619,-0.39565 -0.68766,-0.79568 -1.02433,-1.2v0h-2.65694v0l1.60084,-1.2h0.08097h-0.08097" fill-rule="nonzero" stroke-linejoin="miter" stroke-miterlimit="10"/><path d="M560.68787,236.5009v0v0c-3.54206,0 -6.97832,0.4144 -10.27076,1.2v0h20.61348v0c-2.55653,-0.60352 -5.21026,-0.98938 -7.94665,-1.13712v0c-0.80372,-0.04208 -1.60255,-0.06288 -2.39607,-0.06288" fill-rule="nonzero" stroke-linejoin="miter" stroke-miterlimit="10"/><path d="M553.85395,426.1009c1.37262,0.24669 2.78184,0.40915 4.22447,0.48201v0c2.58883,0.12251 5.10013,-0.04757 7.51226,-0.48201v0h-11.73673v0c-1.60263,-0.28803 -3.15534,-0.69087 -4.65306,-1.2v0h21.03716v0c1.03108,-0.35025 2.03877,-0.75113 3.02107,-1.2v0h-27.07199v0c-0.80281,-0.36841 -1.58691,-0.76892 -2.35136,-1.2v0h31.78823v0c0.67306,-0.37679 1.33221,-0.77712 1.97673,-1.2v0h-35.72479v0c-0.57646,-0.38201 -1.14016,-0.78226 -1.69062,-1.2v0h39.12497v0c0.51386,-0.38517 1.01711,-0.78536 1.50933,-1.2v0h-42.12344v0c-0.45353,-0.38767 -0.89689,-0.78784 -1.32981,-1.2v0h44.80401v0c0.41683,-0.39037 0.82315,-0.79045 1.21855,-1.2v0h-47.22143v0c-0.18982,-0.1997 -0.37738,-0.40185 -0.56264,-0.60638v0c-0.17754,-0.19601 -0.35268,-0.39389 -0.52539,-0.59362v0h49.41287v0c0.3434,-0.3923 0.67724,-0.79236 1.00122,-1.2v0h-51.40483v0c-0.31006,-0.39358 -0.61104,-0.79365 -0.90267,-1.2v0h25.4741l0.08693,0.00598c0.47669,0.01536 0.9521,0.01316 1.42516,-0.00598v0h26.23057v0c0.28413,-0.39363 0.55939,-0.79369 0.82552,-1.2v0h-20.99958v0c0.92228,-0.33666 1.81257,-0.7386 2.66061,-1.2v0h19.08747v0c0.23412,-0.39461 0.45988,-0.79466 0.67707,-1.2v0h-17.84164v0c0.52721,-0.37523 1.03111,-0.77584 1.50847,-1.2v0h16.94348v0c0.19053,-0.39536 0.37311,-0.7954 0.54753,-1.2v0h-16.26616v0c0.35547,-0.38334 0.69605,-0.78386 1.02054,-1.2v0h15.73377v0c0.15161,-0.39595 0.29556,-0.79599 0.4317,-1.2v0h-15.303v0c0.25759,-0.38943 0.50196,-0.78978 0.73232,-1.2v0h14.94848v0c0.11616,-0.39644 0.22491,-0.79647 0.32611,-1.2v0h-14.65427v0c0.18618,-0.3928 0.35992,-0.79307 0.52062,-1.2v0h14.41003v0c0.08337,-0.39683 0.15953,-0.79686 0.22835,-1.2v0h-14.20885v0c0.12711,-0.39501 0.2421,-0.79523 0.34446,-1.2v0h14.04623v0c0.05264,-0.39717 0.09823,-0.79719 0.13666,-1.2v0h-13.9193v0c0.07409,-0.39662 0.13606,-0.79682 0.18546,-1.2v0h13.82652l0.01539,-0.27959c0.01883,-0.30782 0.03338,-0.61464 0.04369,-0.92041v0h-13.77941v0c0.016,-0.40067 0.01916,-0.80092 0.00977,-1.2v0h13.78839v0c-0.00103,-0.40193 -0.00945,-0.80196 -0.02515,-1.2v0h-13.82929v0c-0.03482,-0.40224 -0.08226,-0.8025 -0.14195,-1.2v0h13.90142v0c-0.03098,-0.40217 -0.06947,-0.8022 -0.11538,-1.2v0h-14.00514v0c-0.08702,-0.40408 -0.18678,-0.80436 -0.2989,-1.2v0h14.1421v0c-0.06224,-0.40244 -0.13213,-0.80247 -0.20961,-1.2v0h-14.31547v0c-0.14463,-0.4065 -0.30261,-0.80683 -0.4735,-1.2v0h14.53039v0c-0.09516,-0.40275 -0.19818,-0.80278 -0.30897,-1.2v0h-14.79482v0c-0.21447,-0.41016 -0.44367,-0.81059 -0.68705,-1.2v0h15.12089v0c-0.1302,-0.40311 -0.26852,-0.80315 -0.41484,-1.2v0h-15.52742v0c-0.30421,-0.40651 -0.62531,-0.7976 -0.96253,-1.17147l-0.02627,-0.02853h16.04544v0c-0.16798,-0.40354 -0.34439,-0.80358 -0.52909,-1.2v0h-16.62113v0l-1.10478,-1.2v0h17.13589l-0.39333,-0.76308l0.48721,-0.43692v0h-18.33456v0l-1.10478,-1.2v0h20.74581v0c0.41484,-0.39362 0.82312,-0.79366 1.22468,-1.2v0h-22.78908v0l1.82349,-1.2v0h22.11495v0c0.36624,-0.39457 0.72637,-0.79461 1.08025,-1.2v0h-21.3717v0l1.82349,-1.2v0h20.56458v0c0.3248,-0.3953 0.64383,-0.79533 0.95698,-1.2v0h-19.7245v0c0.55131,-0.38543 1.09263,-0.78562 1.62342,-1.2v0h19.00249v0c0.28859,-0.39587 0.57169,-0.7959 0.84919,-1.2v0h-18.38983v0c0.45151,-0.38946 0.89438,-0.78959 1.32823,-1.2v0h17.86147v0c0.25633,-0.39634 0.50738,-0.79637 0.75309,-1.2v0h-17.40004v0c0.37976,-0.39187 0.75172,-0.79197 1.1156,-1.2v0h16.99303v0c0.22714,-0.39673 0.44919,-0.79676 0.66608,-1.2v0h-16.63113v0c0.32373,-0.39347 0.64023,-0.79355 0.94926,-1.2v0h16.30722v0c0.20036,-0.39706 0.3958,-0.79708 0.58623,-1.2v0h-16.01581v0c0.2775,-0.39462 0.54817,-0.79469 0.81181,-1.2v0h15.75254v0c0.17554,-0.39734 0.34628,-0.79736 0.51215,-1.2v0h-15.51396v0c0.23781,-0.39548 0.46908,-0.79554 0.69364,-1.2v0h15.29724v0c0.1523,-0.39759 0.29991,-0.7976 0.44276,-1.2v0h-15.1001v0c0.2027,-0.39616 0.39908,-0.79621 0.58899,-1.2v0h14.92066v0c0.13036,-0.3978 0.25613,-0.79782 0.37723,-1.2v0h-14.75738v0c0.17091,-0.39671 0.33565,-0.79675 0.4941,-1.2v0h14.60896v0c0.1095,-0.39799 0.21448,-0.798 0.31488,-1.2v0h-14.47437v0c0.14155,-0.39716 0.27706,-0.7972 0.4064,-1.2v0h14.35271v0c0.08954,-0.39816 0.17462,-0.79817 0.25519,-1.2v0h-14.24326v0c0.11401,-0.39754 0.22206,-0.79758 0.32403,-1.2v0h14.14543v0c0.07033,-0.39831 0.13625,-0.79832 0.19772,-1.2v0h-14.05874v0c0.08783,-0.39788 0.16974,-0.79791 0.24564,-1.2v0h13.98279v0c0.05174,-0.39845 0.09912,-0.79846 0.14209,-1.2v0h-13.91729v0c0.06264,-0.39817 0.11939,-0.7982 0.17016,-1.2v0h13.862v0c0.03367,-0.39857 0.06301,-0.79859 0.08799,-1.2v0h-13.81677v0c0.03815,-0.39843 0.07043,-0.79846 0.09673,-1.2v0h13.78878v0c0.02193,-0.40097 0.03918,-0.80098 0.05179,-1.2v0h-13.78336v0c0.0125,-0.40097 0.01862,-0.80101 0.01845,-1.2v0h13.78894v0c0.00122,-0.14471 0.00182,-0.28928 0.00182,-0.43372v-0.00001c0,-0.25587 -0.00191,-0.51129 -0.00571,-0.76627v0h-13.80451v0c-0.01284,-0.40123 -0.032,-0.80127 -0.05737,-1.2v0h13.82995v0c-0.01539,-0.40119 -0.03547,-0.8012 -0.06018,-1.2v0h-13.86518v0c-0.0383,-0.40151 -0.08287,-0.80155 -0.13361,-1.2v0h13.91016v0c-0.03442,-0.40131 -0.07355,-0.80133 -0.11732,-1.2v0h-13.96497v0c-0.06413,-0.40182 -0.13451,-0.80186 -0.21104,-1.2v0h14.02972v0c-0.05382,-0.40144 -0.11237,-0.80146 -0.17558,-1.2v0h-14.1046v0c-0.09061,-0.40217 -0.1875,-0.80221 -0.29053,-1.2v0h14.18993v0c-0.07367,-0.40159 -0.1521,-0.8016 -0.23522,-1.2v0h-14.28608v0c-0.11812,-0.40256 -0.24255,-0.80261 -0.37316,-1.2v0h14.39357v0c-0.09409,-0.40175 -0.19298,-0.80176 -0.2966,-1.2v0h-14.51304v0c-0.14709,-0.40303 -0.30056,-0.80309 -0.46029,-1.2v0h14.64527v0c-0.11521,-0.40192 -0.23527,-0.80194 -0.36011,-1.2v0h-14.79126v0c-0.17811,-0.40359 -0.36275,-0.80365 -0.55374,-1.2v0h14.95219v0c-0.13719,-0.40212 -0.27929,-0.80214 -0.42623,-1.2v0h-15.12952v0c-0.21201,-0.40428 -0.43072,-0.80435 -0.65596,-1.2v0h15.32503v0c-0.16021,-0.40235 -0.32542,-0.80237 -0.49554,-1.2v0h-15.54093v0c-0.24996,-0.40516 -0.50689,-0.80524 -0.77058,-1.2v0h15.7799v0c-0.18452,-0.4026 -0.37413,-0.80262 -0.56875,-1.2v0h-16.04531v0c-0.29379,-0.40632 -0.59493,-0.80641 -0.90315,-1.2v0h16.34137v0c-0.21041,-0.40289 -0.42602,-0.80292 -0.64676,-1.2v0h-16.67342v0c-0.34651,-0.40795 -0.70089,-0.80806 -1.06286,-1.2v0h17.04835v0c-0.23826,-0.40324 -0.48189,-0.80327 -0.73076,-1.2v0h-17.45918v0l-1.15042,-1.2v0h17.83415v0c-0.26859,-0.40365 -0.5427,-0.80368 -0.82224,-1.2v0h-18.16232v0l-1.15042,-1.2v0h18.44358l-0.25194,-0.34293l0.50581,-0.70554l0.10819,-0.15153h-18.35888v0l1.16774,-1.2v0h18.01688v0c0.26361,-0.39605 0.5212,-0.79607 0.77259,-1.2v0h-17.62172v0l1.16775,-1.2v0h17.17586v0c0.23037,-0.39646 0.45487,-0.79648 0.67337,-1.2v0h-16.72096v0c0.34925,-0.3904 0.69028,-0.79056 1.02255,-1.2v0h16.32522v0c0.19976,-0.39681 0.39379,-0.79683 0.58196,-1.2v0h-15.97822v0c0.28984,-0.39267 0.5718,-0.7928 0.84546,-1.2v0h15.67145v0c0.17126,-0.3971 0.33689,-0.79712 0.4968,-1.2v0h-15.39855v0c0.24111,-0.39421 0.47454,-0.79432 0.69995,-1.2v0h15.1548v0c0.14447,-0.39736 0.28342,-0.79737 0.41674,-1.2v0h-14.93655v0c0.19893,-0.39533 0.3903,-0.79542 0.57382,-1.2v0h14.74105v0c0.11908,-0.39758 0.23273,-0.79759 0.34084,-1.2v0h-14.56613v0c0.16098,-0.39619 0.31446,-0.79627 0.46017,-1.2v0h14.4102v0c0.09487,-0.39777 0.18436,-0.79778 0.26841,-1.2v0h-14.27201v0c0.12581,-0.39688 0.24411,-0.79695 0.35466,-1.2v0h14.15067v0c0.07163,-0.39794 0.13795,-0.79795 0.19888,-1.2v0h-14.04555v0c0.09242,-0.39745 0.17728,-0.79752 0.25436,-1.2v0h13.95623v0c0.0492,-0.3981 0.09315,-0.79811 0.13176,-1.2v0h-13.8825v0c0.06011,-0.39794 0.11257,-0.798 0.15717,-1.2v0h13.82431l0.03237,-0.52104c0.01204,-0.22673 0.02235,-0.45305 0.03094,-0.67896v0h-13.77843l0.001,-0.01412c0.01612,-0.39627 0.02452,-0.79163 0.02534,-1.18588v0h13.78171v0c0.00453,-0.4014 0.00365,-0.80142 -0.0026,-1.2v0h-13.80004v0c-0.01484,-0.40145 -0.03749,-0.80152 -0.06781,-1.2v0h13.83271v0c-0.01724,-0.40155 -0.03994,-0.80157 -0.06802,-1.2v0h-13.87963v0c-0.04643,-0.40195 -0.10065,-0.80202 -0.1625,-1.2v0h13.94085v0c-0.03952,-0.40172 -0.08455,-0.80174 -0.135,-1.2v0h-14.01659v0c-0.07887,-0.40251 -0.16556,-0.80259 -0.25991,-1.2v0h14.10729v0c-0.06246,-0.4019 -0.13048,-0.80193 -0.20398,-1.2v0h-14.21362v0c-0.11289,-0.40317 -0.2337,-0.80326 -0.36226,-1.2v0h14.3365v0c-0.08622,-0.40211 -0.17807,-0.80213 -0.27547,-1.2v0h-14.47718v0c-0.14943,-0.40398 -0.30698,-0.80408 -0.47246,-1.2v0h14.6373v0c-0.111,-0.40235 -0.22773,-0.80237 -0.35009,-1.2v0h-14.81897v0c-0.18987,-0.40501 -0.38819,-0.80513 -0.59473,-1.2v0h15.02491v0c-0.13706,-0.40261 -0.27994,-0.80264 -0.42858,-1.2v0h-15.25863v0c-0.23635,-0.40639 -0.48164,-0.80652 -0.73561,-1.2v0h15.52466v0c-0.1647,-0.40292 -0.33538,-0.80295 -0.51193,-1.2v0h-15.82896v0c-0.29247,-0.40836 -0.59467,-0.80853 -0.90625,-1.2v0h16.17942v0c-0.19434,-0.40329 -0.39483,-0.80332 -0.60136,-1.2v0h-16.5868v0c-0.07981,-0.08991 -0.16014,-0.17929 -0.241,-0.26813v0c-0.28812,-0.31656 -0.58372,-0.62726 -0.88649,-0.93187v0h17.06542v0c-0.22653,-0.40372 -0.45941,-0.80376 -0.69854,-1.2v0h-17.63193v0c-0.46225,-0.4135 -0.93852,-0.81374 -1.42792,-1.2v0h18.30915v0c-0.26199,-0.40425 -0.53061,-0.80429 -0.80571,-1.2v0h-19.13154v0c-0.61245,-0.4211 -1.24205,-0.8215 -1.88735,-1.2v0h20.15491v0c-0.30177,-0.40491 -0.6105,-0.80495 -0.92604,-1.2v0h-21.47958v0c-0.92012,-0.44365 -1.86605,-0.84463 -2.83421,-1.2v0h23.32127v0c-0.28823,-0.33664 -0.58155,-0.66936 -0.87986,-0.99806v0c-0.06126,-0.0675 -0.12271,-0.13482 -0.18436,-0.20194v0h-26.36962v0c-1.53686,-0.33711 -3.11274,-0.56201 -4.71542,-0.66469v0c-2.68069,-0.11312 -5.32392,0.1221 -7.86726,0.66469v0h-26.4472v0c0.37566,-0.40672 0.75905,-0.80677 1.14993,-1.2v0h63.10697v0c-0.40266,-0.40788 -0.81274,-0.80796 -1.23009,-1.2v0h-60.63816v0c0.2176,-0.20301 0.43729,-0.40401 0.65902,-0.60299v0c0.22431,-0.20129 0.45049,-0.4003 0.67853,-0.59701v0h57.97147v0c-0.47263,-0.41001 -0.95373,-0.81011 -1.44307,-1.2v0h-55.07822v0c0.51878,-0.41162 1.04625,-0.81173 1.58209,-1.2v0h51.91944v0c-0.5691,-0.41346 -1.14831,-0.81361 -1.73732,-1.2v0h-48.44164v0c0.63518,-0.41627 1.28097,-0.81644 1.93692,-1.2v0h44.56797v0c-0.7189,-0.42003 -1.45093,-0.82027 -2.1956,-1.2v0h-40.18074v0c0.83372,-0.42634 1.68204,-0.82666 2.54413,-1.2v0h35.08241v0c-1.01512,-0.43738 -2.05105,-0.83793 -3.10662,-1.2v0h-28.88901v0c-1.04691,0.36188 -2.07629,0.7624 -3.08678,1.2" fill-rule="nonzero" stroke-linejoin="miter" stroke-miterlimit="10"/><path d="M531.61673,410.5009c0.24041,0.40531 0.4896,0.80536 0.74735,1.2v0h20.84334v0c-0.89824,-0.33852 -1.76591,-0.74069 -2.59425,-1.2v0h-18.99644v0c-0.23433,-0.39506 -0.46033,-0.79511 -0.67777,-1.2v0h17.77827v0c-0.52368,-0.37606 -1.02539,-0.77677 -1.50229,-1.2v0h-16.88842v0c-0.19163,-0.39577 -0.37525,-0.79581 -0.55071,-1.2v0h16.21005l-0.18505,-0.20216c-0.28898,-0.32072 -0.56725,-0.65367 -0.83422,-0.99784v0h-15.68285v0c-0.15314,-0.39633 -0.29856,-0.79637 -0.43608,-1.2v0h15.26343v0c-0.25462,-0.38911 -0.49587,-0.78951 -0.72307,-1.2v0h-14.92273v0c-0.11778,-0.3968 -0.22805,-0.79683 -0.33065,-1.2v0h14.64278v0c-0.18304,-0.39277 -0.35373,-0.79308 -0.51152,-1.2v0h-14.41193v0c-0.0848,-0.39718 -0.16225,-0.79722 -0.2322,-1.2v0h14.22247v0c-0.12482,-0.39515 -0.23769,-0.7954 -0.33819,-1.2v0h-14.06932v0c-0.05362,-0.39752 -0.10001,-0.79755 -0.13904,-1.2v0h13.94923v0c-0.07298,-0.3969 -0.13408,-0.79712 -0.1829,-1.2v0h-13.86038v0c-0.02382,-0.3978 -0.0405,-0.79783 -0.04993,-1.2v0h13.80201v0c-0.02365,-0.39832 -0.03519,-0.79854 -0.03424,-1.2v0h-13.77434v0c0.00493,-0.39805 0.01693,-0.79808 0.03611,-1.2v0h13.7991v0c0.04072,-0.39867 0.09683,-0.7994 0.16662,-1.2v0h-13.87958v0c0.0374,-0.40147 0.08323,-0.8013 0.13723,-1.2v0h13.99123v0c0.09663,-0.40309 0.20552,-0.80384 0.32491,-1.2v0h-14.12871v0c0.07079,-0.40049 0.14963,-0.80032 0.23625,-1.2v0h14.29025v0c0.14778,-0.40869 0.30537,-0.80959 0.47063,-1.2v0h-14.4779v0l0.20055,-0.79722v0l-0.74666,-0.40278v0h15.5714l0.0765,-0.15455l0.52492,-1.04545v0h-18.28864v0c-0.64792,-0.38715 -1.28643,-0.78728 -1.91517,-1.2v0h20.80633v0l0.60253,-1.2v0h-23.16002v0c-0.54593,-0.39029 -1.08378,-0.79038 -1.6133,-1.2v0h25.37584v0l0.60252,-1.2v0h-27.47315v0c-0.47098,-0.39227 -0.93475,-0.79234 -1.39112,-1.2v0h28.8489v0l-3.29703,-1.2v0h-26.85095v0c-0.41211,-0.39363 -0.81763,-0.79369 -1.21639,-1.2v0h24.7703v0l-0.11899,-0.04331v0c-0.94932,-0.34959 -1.88325,-0.73582 -2.79967,-1.15669v0h-22.99295v0c-0.3637,-0.39462 -0.72127,-0.79467 -1.07256,-1.2v0h21.67029v0c-0.69817,-0.37981 -1.38422,-0.78014 -2.05709,-1.2v0h-20.62229v0c-0.32254,-0.39538 -0.63929,-0.79543 -0.95013,-1.2v0h19.76043v0c-0.55099,-0.38673 -1.09175,-0.78693 -1.62164,-1.2v0h-19.0338v0c-0.28662,-0.39599 -0.56772,-0.79602 -0.8432,-1.2v0h18.41028v0c-0.45476,-0.39032 -0.90034,-0.79047 -1.33629,-1.2v0h-17.86828v0c-0.25463,-0.39647 -0.50397,-0.7965 -0.7479,-1.2v0h17.39262v0c-0.38335,-0.39253 -0.75819,-0.79264 -1.12415,-1.2v0h-16.97219v0c-0.22566,-0.39688 -0.44618,-0.79691 -0.6615,-1.2v0h16.59871v0c-0.32614,-0.39403 -0.64421,-0.79412 -0.9539,-1.2v0h-16.26584v0c-0.19905,-0.39722 -0.3931,-0.79724 -0.5821,-1.2v0h15.96865v0c-0.16135,-0.22945 -0.32007,-0.46057 -0.47612,-0.69332v0c-0.11256,-0.16787 -0.22384,-0.33677 -0.33384,-0.50668v0h-15.70324v0c-0.17431,-0.39751 -0.34375,-0.79753 -0.50825,-1.2v0h15.46598v0c-0.23544,-0.39516 -0.46413,-0.79524 -0.68591,-1.2v0h-15.25312v0c-0.15108,-0.39776 -0.29738,-0.79779 -0.43885,-1.2v0h15.06162v0c-0.19923,-0.396 -0.392,-0.79607 -0.57816,-1.2v0h-14.88902v0c-0.12908,-0.39799 -0.25345,-0.79801 -0.37307,-1.2v0h14.7333v0c-0.1669,-0.39666 -0.32754,-0.79673 -0.48179,-1.2v0h-14.59283v0c-0.10806,-0.39819 -0.21148,-0.79821 -0.31021,-1.2v0h14.46624v0c-0.13733,-0.39721 -0.26854,-0.79727 -0.39351,-1.2v0h-14.35244v0c-0.08785,-0.39836 -0.17112,-0.79838 -0.24974,-1.2v0h14.25053v0c-0.10974,-0.39767 -0.21344,-0.79773 -0.31101,-1.2v0h-14.15976v0c-0.0683,-0.39853 -0.13204,-0.79854 -0.19118,-1.2v0h14.07956v0c-0.08355,-0.39807 -0.16112,-0.79812 -0.2326,-1.2v0h-14.00946v0c-0.04926,-0.39867 -0.094,-0.79869 -0.13416,-1.2v0h13.94912v0c-0.05832,-0.39843 -0.11067,-0.79847 -0.15696,-1.2v0h-13.89828v0c-0.03064,-0.39881 -0.05677,-0.79883 -0.07834,-1.2v0h13.85677v0c-0.03369,-0.39874 -0.06141,-0.79879 -0.08305,-1.2v0h-13.82451v0c-0.01233,-0.39894 -0.02016,-0.79895 -0.02344,-1.2v0h13.80151v0c-0.00938,-0.39904 -0.01273,-0.79908 -0.00996,-1.2v0h-13.78781v0c0.00575,-0.39905 0.016,-0.79907 0.03079,-1.2v0h13.78355l0.02931,-0.64404c0.01057,-0.18568 0.02242,-0.371 0.03554,-0.55596v0h-13.79067l0.01168,-0.19118c0.01588,-0.33732 0.03484,-0.6736 0.05686,-1.00882v0h13.82559v0c0.04081,-0.40188 0.08764,-0.80191 0.14039,-1.2v0h-13.87375v0c0.03537,-0.4016 0.07516,-0.80161 0.11929,-1.2v0h13.93226v0c0.06592,-0.40213 0.13789,-0.80217 0.21581,-1.2v0h-14.00136v0c0.05376,-0.40172 0.11197,-0.80174 0.17458,-1.2v0h14.08129v0c0.09192,-0.40243 0.18996,-0.80246 0.29399,-1.2v0h-14.1724v0c0.07274,-0.40186 0.14999,-0.80188 0.23169,-1.2v0h14.2751v0c0.11913,-0.40277 0.24445,-0.8028 0.37584,-1.2v0h-14.38991v0c0.09243,-0.40202 0.18944,-0.80203 0.29096,-1.2v0h14.51742v0c0.14791,-0.40316 0.30213,-0.8032 0.46251,-1.2v0h-14.65841v0c0.11296,-0.40219 0.23057,-0.80221 0.35277,-1.2v0h14.81375v0c0.17878,-0.40364 0.36401,-0.80368 0.55554,-1.2v0h-14.9845v0c0.13448,-0.40239 0.2737,-0.8024 0.41761,-1.2v0h15.17197v0c0.21243,-0.40422 0.4315,-0.80427 0.65706,-1.2v0h-15.37767v0c0.1572,-0.40261 0.31925,-0.80263 0.48608,-1.2v0h15.60348v0c0.24984,-0.40495 0.5066,-0.805 0.77007,-1.2v0h-15.85165v0c0.18135,-0.40286 0.36768,-0.80288 0.5589,-1.2v0h16.12493v0c0.2925,-0.40589 0.59226,-0.80596 0.89904,-1.2v0h-16.42675v0c0.20724,-0.40316 0.41961,-0.80318 0.63701,-1.2v0h16.7613v0c0.34271,-0.40717 0.69317,-0.80725 1.05107,-1.2v0h-17.13396v0c0.23528,-0.40351 0.47585,-0.80353 0.72162,-1.2v0h17.55154v0c0.40447,-0.40901 0.81736,-0.80911 1.23831,-1.2v0h-18.02301v0c0.26598,-0.40392 0.53747,-0.80395 0.81435,-1.2v0h18.56027v0c0.48534,-0.41186 0.98014,-0.812 1.48389,-1.2v0h-19.17977v0c0.30007,-0.40443 0.6059,-0.80445 0.91737,-1.2v0h19.90487v0c0.45485,-0.31492 0.91611,-0.62031 1.38344,-0.91588v0l0.45377,-0.28412v0h-20.76842v0c0.33857,-0.40506 0.6832,-0.80509 1.03377,-1.2v0h21.65118v0l1.91653,-1.2v0h-22.46938v0c0.38295,-0.40586 0.77236,-0.8059 1.16808,-1.2v0h22.52302v0l-0.72356,-1.2v0h-20.55549v0c0.43549,-0.40692 0.87796,-0.80697 1.32721,-1.2v0h18.50472v0l-0.72356,-1.2v0h-16.36207v0l0.56901,-0.4672l-0.29143,-0.7328h15.36093v0l-0.37945,-0.6293v0c-0.11255,-0.18853 -0.22324,-0.37878 -0.332,-0.5707v0h-15.10923v0c-0.14583,-0.3978 -0.28593,-0.79781 -0.42022,-1.2v0h14.88553v0c-0.19995,-0.39405 -0.39199,-0.7942 -0.57578,-1.2v0h-14.69111v0c-0.1201,-0.39797 -0.23453,-0.79798 -0.34317,-1.2v0h14.52159v0c-0.159,-0.39543 -0.31027,-0.79556 -0.45351,-1.2v0h-14.3737v0c-0.09523,-0.39812 -0.1848,-0.79813 -0.26863,-1.2v0h14.24495v0c-0.12229,-0.39648 -0.2369,-0.79659 -0.34358,-1.2v0h-14.13356v0c-0.07106,-0.39825 -0.13649,-0.79826 -0.19621,-1.2v0h14.03818v0c-0.08809,-0.39732 -0.16848,-0.79742 -0.24092,-1.2v0h-13.95794v0c-0.04749,-0.39837 -0.08937,-0.79839 -0.12556,-1.2v0h13.8923v0c-0.05525,-0.39803 -0.10268,-0.79813 -0.14208,-1.2v0h-13.84102v0c-0.02442,-0.39849 -0.04324,-0.7985 -0.05638,-1.2v0h13.80415v0c-0.02288,-0.39865 -0.03776,-0.79875 -0.04444,-1.2v0h-13.78198v0c-0.00176,-0.39859 0.00205,-0.7986 0.01155,-1.2v0h13.77504v0c0.00545,-0.2235 0.01349,-0.44727 0.02415,-0.67127l0.03386,-0.52873h-13.78791v0c0.00284,-0.05508 0.00579,-0.11019 0.00884,-0.16532v0c0.01537,-0.34623 0.03469,-0.69113 0.05792,-1.03468v0h13.83234v0c0.04529,-0.40215 0.09844,-0.80222 0.15929,-1.2v0h-13.89411v0c0.03817,-0.40195 0.08172,-0.80197 0.13059,-1.2v0h13.97163v0c0.07812,-0.40268 0.16414,-0.80275 0.25787,-1.2v0h-14.06523v0c0.06076,-0.40214 0.12697,-0.80215 0.19857,-1.2v0h14.1755v0c0.11252,-0.4033 0.23303,-0.80338 0.36133,-1.2v0h-14.30326v0c0.08427,-0.40234 0.17409,-0.80236 0.26937,-1.2v0h14.44961v0c0.14938,-0.40406 0.30692,-0.80415 0.4724,-1.2v0h-14.61599v0c0.10892,-0.40258 0.22349,-0.8026 0.34363,-1.2v0h14.80429v0c0.18996,-0.40503 0.38836,-0.80513 0.59494,-1.2v0h-15.01695v0c0.13495,-0.40285 0.27569,-0.80288 0.42211,-1.2v0h15.25709v0c0.23621,-0.40632 0.48129,-0.80644 0.73493,-1.2v0h-15.52877v0c0.16271,-0.40317 0.33136,-0.8032 0.50584,-1.2v0h15.83728v0c0.2914,-0.40815 0.59234,-0.80829 0.90242,-1.2v0h-16.18966v0c0.19261,-0.40355 0.39134,-0.80358 0.59608,-1.2v0h16.59534v0c0.36168,-0.41097 0.73394,-0.81116 1.11628,-1.2v0h-17.06745v0c0.22522,-0.404 0.4568,-0.80403 0.69459,-1.2v0h17.62477l0.07736,-0.0696c0.43414,-0.38921 0.88107,-0.76618 1.33998,-1.1304v0h-18.29446v0c0.26133,-0.40456 0.52928,-0.80459 0.80373,-1.2v0h19.11284v0c0.61204,-0.42163 1.24164,-0.82198 1.8872,-1.2v0h-20.13672v0c0.30205,-0.40525 0.61109,-0.80529 0.92694,-1.2v0h21.46868v0c0.92759,-0.44477 1.88143,-0.84568 2.85739,-1.2v0h-23.33077v0c-0.33884,0.39428 -0.67067,0.79433 -0.9953,1.2" fill-rule="nonzero" stroke-linejoin="miter" stroke-miterlimit="10"/><path d="M518.42384,296.86257c-2.26372,-5.72487 -3.39457,-12.03957 -3.04831,-18.58542c1.21692,-24.96189 22.62117,-44.12717 47.77227,-42.91166c25.05102,1.45264 44.24559,22.53684 43.02867,47.4788l-0.006,0.11159c-0.56043,8.93901 -3.71482,17.16467 -8.58652,23.99347c7.03934,9.63246 10.97232,21.68996 10.19173,34.51065c-0.7846,14.86116 -7.48768,28.08238 -17.76348,37.35217c2.60798,5.10317 3.90296,10.9735 3.55269,17.07698c-1.0508,18.55752 -16.79274,32.68141 -35.54498,31.89232c-18.64015,-1.04614 -32.82693,-16.71831 -32.03433,-35.35753c0.10808,-2.05442 0.43633,-4.10884 0.93671,-6.10746c-17.80152,-9.69821 -29.40232,-29.00895 -28.15938,-50.46777c0.80661,-15.84553 8.34033,-29.63465 19.66093,-38.98614zM590.03421,282.00938c0.75657,-16.08265 -11.66486,-29.64262 -27.74907,-30.57518c-16.15827,-0.78112 -29.98076,11.53743 -30.76736,27.65595c-0.31224,5.90621 1.25496,11.49957 4.06309,16.16236l4.07309,6.75507l-6.69909,4.19452c-10.25779,6.4223 -17.3872,17.44961 -18.0517,30.51739c-0.99075,17.09492 9.57327,32.2211 24.92893,37.81048l8.50245,3.09458l-4.04707,8.06026c-1.13086,2.2497 -2.01954,4.91187 -2.15764,7.50032c-0.41231,9.74006 7.01733,17.97966 16.68467,18.52365c9.78343,0.41049 18.05971,-6.98623 18.61213,-16.73027c0.27021,-4.72656 -1.31099,-9.19607 -4.29526,-12.43611l-6.39886,-6.95035l7.9,-5.19881c9.7474,-6.41632 16.34241,-17.27825 17.00491,-29.84189c0.6605,-10.82207 -3.47064,-20.81918 -10.38789,-28.03256l-5.36607,-5.59734l5.40811,-5.55749c4.90372,-5.0394 8.25426,-11.79846 8.74263,-19.35458z" fill-rule="evenodd" stroke-linejoin="round" stroke-miterlimit="2"/></g></g></svg>