<svg version="1.1" xmlns="http://www.w3.org/2000/svg" xmlns:xlink="http://www.w3.org/1999/xlink" width="1317" height="542" viewBox="0,0,1317,542"><g fill="none" fill-rule="none" stroke="#ff0800" stroke-width="1" stroke-linecap="butt" stroke-linejoin="none" stroke-miterlimit="none" stroke-dasharray="" stroke-dashoffset="0" font-family="none" font-weight="none" font-size="none" text-anchor="none" style="mix-blend-mode: normal"><g id="#ff0800"><path d="M876.21504,301.06706c1.37163,0.31358 2.74146,0.63288 4.1094,0.95787v0l0.41281,-0.95787v0h-4.52221v0c-1.79233,-0.40977 -3.58774,-0.80978 -5.386,-1.2v0h10.42538v0l0.51716,-1.2v0h-16.63209v0c-2.01248,-0.41225 -4.02826,-0.81227 -6.04704,-1.2v0h23.19629v0l0.51717,-1.2v0h-30.19063v0c-2.33297,-0.41642 -4.66952,-0.81644 -7.00922,-1.2v0h37.71701v0l0.51717,-1.2v0h-45.92657v0c-2.86875,-0.42481 -5.7415,-0.82486 -8.61743,-1.2v0h55.06116v0l0.51716,-1.2v0h-65.55549v0c-4.09294,-0.45072 -8.19046,-0.85086 -12.29025,-1.2v0h78.36291v0l0.41333,-0.95908v0c-0.12572,-0.08039 -0.25152,-0.1607 -0.37741,-0.24092v0h-96.32852v0c5.97668,0.29081 11.9556,0.69125 17.92969,1.2" fill-rule="nonzero" stroke-linejoin="miter" stroke-miterlimit="10"/><path d="M873.49772,281.86706c-0.70447,-0.40252 -1.41124,-0.80252 -2.12027,-1.2v0h-180.11423v0c-2.34847,0.38111 -4.69022,0.78109 -7.02478,1.2v0h189.25928v0c0.69577,0.39755 1.38929,0.79755 2.08054,1.2v0h-197.74239v0c-1.97577,0.38621 -3.94602,0.7862 -5.91049,1.2v0h205.69498v0c0.6705,0.39767 1.33881,0.79767 2.00488,1.2v0h-213.20815v0c-1.72857,0.38914 -3.45241,0.78913 -5.17131,1.2v0h220.34825v0c0.64677,0.39778 1.29138,0.79779 1.9338,1.2v0h-227.16545v0c-1.54877,0.39103 -3.09334,0.79102 -4.63356,1.2v0h90.48135v0c-5.83172,0.28967 -11.64316,0.68924 -17.42754,1.2v0h-77.46776v0c-1.41012,0.39236 -2.81645,0.79236 -4.21885,1.2v0h69.89642v0c-3.16976,0.36581 -6.32987,0.76574 -9.47919,1.2v0h-64.46112v0c-1.29879,0.39335 -2.59409,0.79334 -3.88581,1.2v0h60.22541v0c-2.40666,0.37956 -4.80636,0.77953 -7.19857,1.2v0h-56.76881v0c-0.34632,0.11311 -0.69236,0.22669 -1.03814,0.34077v0l-2.23338,0.73681v0l0.34354,-1.07758v0h-14.89455v0c0.1902,-0.39673 0.37425,-0.79677 0.55203,-1.2v0h14.72507v0c0.12673,-0.39853 0.24879,-0.79851 0.36618,-1.2v0h-14.58458v0c0.16034,-0.39711 0.31468,-0.79714 0.46289,-1.2v0h14.45736v0c0.10645,-0.39847 0.20833,-0.79846 0.30562,-1.2v0h-14.34248v0c0.13239,-0.39743 0.25887,-0.79746 0.37934,-1.2v0h14.23919v0c0.0868,-0.39843 0.16913,-0.79841 0.24696,-1.2v0h-14.14687v0c0.10592,-0.39771 0.20601,-0.79774 0.30019,-1.2v0h14.06504v0c0.0678,-0.39839 0.13123,-0.79837 0.19026,-1.2v0h-13.99335v0c0.08062,-0.39795 0.15548,-0.79798 0.22449,-1.2v0h13.93153v0c0.04948,-0.39836 0.09469,-0.79834 0.1356,-1.2v0h-13.87944v0c0.05624,-0.39817 0.10677,-0.79819 0.15149,-1.2v0h13.83699v0c0.03184,-0.39833 0.05951,-0.79832 0.08299,-1.2v0h-13.80417v0c0.03257,-0.39836 0.05946,-0.79838 0.08058,-1.2v0h13.78105v0c0.01489,-0.39831 0.02572,-0.7983 0.03245,-1.2v0h-13.76774v0c0.00784,-0.33039 0.01178,-0.66181 0.01178,-0.99421l-0.00053,-0.20579h13.76443v0c-0.00145,-0.40104 -0.00716,-0.80105 -0.01709,-1.2v0h-13.77139v0c-0.01399,-0.40071 -0.03392,-0.80077 -0.05971,-1.2v0h13.78838v0c-0.01859,-0.40111 -0.04148,-0.80111 -0.06863,-1.2v0h-13.81505v0c-0.03779,-0.40105 -0.08145,-0.80111 -0.13089,-1.2v0h13.85111v0c-0.03611,-0.40118 -0.07657,-0.80118 -0.12133,-1.2v0h-13.8964v0c-0.06174,-0.40141 -0.12931,-0.80147 -0.20261,-1.2v0h13.95085v0c-0.05406,-0.40125 -0.11251,-0.80126 -0.17533,-1.2v0h-14.01449v0c-0.08616,-0.40181 -0.17815,-0.80187 -0.27586,-1.2v0h14.08747v0c-0.0725,-0.40133 -0.14944,-0.80133 -0.23081,-1.2v0h-14.17008v0c-0.11145,-0.40226 -0.22876,-0.80233 -0.35183,-1.2v0h14.26275v0c-0.09148,-0.40141 -0.18748,-0.80142 -0.28796,-1.2v0h-14.36607v0c-0.13809,-0.40279 -0.28212,-0.80285 -0.43198,-1.2v0h14.48082v0c-0.11109,-0.4015 -0.22677,-0.80151 -0.347,-1.2v0h-14.608v0c-0.16669,-0.40341 -0.33947,-0.80348 -0.51819,-1.2v0h14.74889v0c-0.13141,-0.4016 -0.26748,-0.80161 -0.40818,-1.2v0h-14.90506v0c-0.19813,-0.40417 -0.40254,-0.80425 -0.6131,-1.2v0h15.07877v0l-0.4351,-1.15676" fill-rule="nonzero" stroke-linejoin="miter" stroke-miterlimit="10"/><path d="M812.99154,277.06706c-5.02077,-0.4745 -10.04539,-0.87471 -15.06994,-1.2v0h-64.34313v0c-4.87927,0.32439 -9.74205,0.72419 -14.58456,1.2v0h93.99763v0c3.78636,0.35784 7.57053,0.75793 11.35081,1.2v0h-116.2156v0c-3.01445,0.36992 -6.01983,0.76987 -9.01521,1.2v0h134.77466v0l6.52228,0.85345v0l-2.06715,-0.85345v0h30.87473v0c-0.73233,-0.40267 -1.467,-0.80267 -2.20398,-1.2v0h-31.57727v0l-2.90652,-1.2v0h32.23564v0c-0.76229,-0.40283 -1.52698,-0.80283 -2.29402,-1.2v0h-32.8747v0c-1.00223,-0.40457 -2.00747,-0.80457 -3.01565,-1.2v0h33.54865v0c-0.79468,-0.40302 -1.59181,-0.80302 -2.39135,-1.2v0h-34.26261v0c-1.06402,-0.40506 -2.13116,-0.80506 -3.20134,-1.2v0h35.02085v0c-0.82989,-0.40323 -1.6623,-0.80323 -2.49717,-1.2v0h-35.82828v0c-1.13547,-0.40566 -2.2742,-0.80567 -3.41608,-1.2v0h36.69066v0c-0.86842,-0.40347 -1.73942,-0.80347 -2.61295,-1.2v0h-37.6148v0c-1.21967,-0.40643 -2.44275,-0.80644 -3.66911,-1.2v0h38.60877v0c-0.91089,-0.40375 -1.82444,-0.80375 -2.74059,-1.2v0h-39.68228v0c-1.32128,-0.40744 -2.64614,-0.80745 -3.97443,-1.2v0h40.84713v0c-0.95811,-0.40408 -1.91897,-0.80408 -2.8825,-1.2v0h-42.11785v0c-1.44778,-0.40881 -2.89937,-0.80882 -4.35455,-1.2v0h43.51263v0c-1.01115,-0.40446 -2.02513,-0.80447 -3.04188,-1.2v0h-45.05456v0c-1.61219,-0.41079 -3.22847,-0.81081 -4.84854,-1.2v0h46.77368v0c-1.07144,-0.40493 -2.14582,-0.80494 -3.22305,-1.2v0h-48.71002v0c-1.83976,-0.41391 -3.68396,-0.81393 -5.53218,-1.2v0h50.91863v0c-1.14096,-0.40551 -2.28497,-0.80552 -3.43195,-1.2v0h-53.47829v0c-2.18826,-0.41952 -4.38148,-0.81956 -6.57895,-1.2v0h56.50789v0c-1.22256,-0.40623 -2.44833,-0.80624 -3.67718,-1.2v0h-60.20056v0c-2.83587,-0.43266 -5.6775,-0.83274 -8.5234,-1.2v0h64.90676v0c-1.32054,-0.40718 -2.64444,-0.80719 -3.97158,-1.2v0h-71.39497v0c3.49119,0.35062 6.97869,0.75076 10.45979,1.2" fill-rule="nonzero" stroke-linejoin="miter" stroke-miterlimit="10"/><path d="M653.14726,238.66706c3.98441,-0.46936 7.98837,-0.86915 12.00806,-1.2v0h59.44716v0c4.15934,0.33192 8.31567,0.73214 12.46495,1.2v0h-83.92017v0c-3.04893,0.35916 -6.0864,0.75907 -9.11072,1.2v0h102.59603v0c2.6897,0.37168 5.37509,0.77174 8.05508,1.2v0h-118.25427v0c-2.21987,0.37738 -4.43175,0.77734 -6.63494,1.2v0h131.97361v0c2.13455,0.38211 4.26502,0.78214 6.39083,1.2v0h-144.3083v0c-1.81243,0.38432 -3.61846,0.78429 -5.4177,1.2v0h155.58818v0c1.81767,0.38694 3.63152,0.78696 5.44119,1.2v0h-166.07293v0l-4.99421,1.2v0h176.16225v0c1.60489,0.38973 3.20618,0.78974 4.80364,1.2v0h-182.45657v0l0.74921,1.2v0h186.26087v0c1.44863,0.39154 2.89386,0.79155 4.33552,1.2v0h-82.25774v0c-14.34491,-0.85346 -28.68697,-0.86317 -42.83958,0v0h-64.74986v0l0.74921,1.2v0h49.48774v0c-3.33841,0.34967 -6.6624,0.74954 -9.96944,1.2v0h-38.76908v0l0.74921,1.2v0h29.98416v0c-2.30462,0.37478 -4.59986,0.77474 -6.88481,1.2v0h-22.35014v0l0.06992,0.11198v0c0.22227,0.3584 0.43926,0.72114 0.65084,1.08802v0h15.52107v0l1.16649,-0.23742v0c1.64168,-0.33414 3.28906,-0.65498 4.94182,-0.96258" fill-rule="nonzero" stroke-linejoin="miter" stroke-miterlimit="10"/><path d="M618.31349,314.26706c-0.22877,0.08848 -0.4574,0.1772 -0.68589,0.26615v0l-2.39519,0.93385v0h-2.50227v0l-1.20535,-1.2v0h6.7887v0c1.04692,-0.40492 2.09675,-0.80492 3.14945,-1.2v0h-11.14349v0l-1.20534,-1.2v0h15.59644v0c1.11461,-0.40543 2.23233,-0.80543 3.3531,-1.2v0h-20.15489v0l-1.20534,-1.2v0h24.82715v0c1.19345,-0.40606 2.39023,-0.80606 3.59027,-1.2v0h-29.62276l-0.56139,-0.5589l0.50588,-0.6411v0h33.40285v0c1.28698,-0.40686 2.57757,-0.80685 3.87168,-1.2v0h-36.32763v0l0.94691,-1.2v0h39.41448v0c1.40063,-0.40791 2.80523,-0.8079 4.21366,-1.2v0h-42.68124v0l0.42034,-0.5327v0c0.17315,-0.22081 0.34415,-0.44325 0.51295,-0.6673v0h46.16294v0c1.54315,-0.40933 3.09071,-0.80932 4.64252,-1.2v0h-49.93315v0c0.27718,-0.39541 0.54771,-0.79546 0.8114,-1.2v0h54.02435v0c1.72973,-0.41139 3.46448,-0.81137 5.20406,-1.2v0h-58.47431v0c0.23977,-0.39602 0.47311,-0.79606 0.69989,-1.2v0h63.33389v0c1.99,-0.41463 3.98594,-0.81461 5.98752,-1.2v0h-68.67304v0c-0.20972,0.40368 -0.42588,0.80372 -0.64837,1.2" fill-rule="nonzero" stroke-linejoin="miter" stroke-miterlimit="10"/><path d="M615.42349,244.1451c89.12767,-21.41896 196.4852,-3.84382 271.88645,44.70304l-6.28277,14.57821c-88.04685,-21.13003 -184.15383,-18.49376 -262.96367,12.22489l-4.92174,1.91891l-9.80945,-9.76596l4.42936,-5.61329c5.50618,-6.97626 8.6806,-15.44899 8.6806,-24.91805c0,-7.62586 -2.15764,-14.92492 -5.98655,-21.05829l-5.90448,-9.4571zM831.51357,277.94637c-62.48144,-25.82271 -136.95799,-33.70164 -202.46173,-20.34094c2.30775,6.16126 3.5547,12.81869 3.5547,19.66742c0,5.96798 -0.90068,11.655 -2.59597,16.99529c61.96305,-20.42264 132.6247,-25.32256 201.503,-16.32177z" fill-rule="evenodd" stroke-linejoin="round" stroke-miterlimit="2"/><path d="M489.8927,491.63936c2.04757,0.33745 4.16197,0.51215 6.33429,0.51215v0c2.18009,0 4.30608,-0.17474 6.36814,-0.51215v0h-12.70243v0c-1.73381,-0.28574 -3.41971,-0.68816 -5.0523,-1.2v0h22.85035v0c1.12658,-0.34972 2.22895,-0.7505 3.30521,-1.2v0h-29.4254v0c-0.87045,-0.36778 -1.72308,-0.76821 -2.55697,-1.2v0h34.57084v0c0.73644,-0.37646 1.4588,-0.77674 2.16638,-1.2v0h-38.8748v0c-0.629,-0.38152 -1.24592,-0.78172 -1.8503,-1.2v0h42.60207v0c0.56437,-0.38488 1.11814,-0.78504 1.66092,-1.2v0h-45.89906v0c-0.49875,-0.38723 -0.98796,-0.78736 -1.46731,-1.2v0h48.85691v0c0.45918,-0.38901 0.90957,-0.78912 1.35089,-1.2v0h-51.53693v0c-0.41242,-0.39035 -0.81673,-0.79045 -1.21271,-1.2v0h53.98273v0c0.38589,-0.39247 0.76291,-0.79254 1.13082,-1.2v0h-56.22596v0c-0.29574,-0.33272 -0.58632,-0.67102 -0.87164,-1.01475" fill-rule="nonzero" stroke-linejoin="miter" stroke-miterlimit="10"/><path d="M474.89528,302.03936l-0.48775,-1.2v0l-2.98176,1.2v0h3.46951v0l0.48774,1.2v0h-6.93901v0l-2.98176,1.2v0h10.40852v0l0.48775,1.2v0h-13.87803v0l-2.98176,1.2v0h17.34754v0l0.48774,1.2v0h-20.81704v0l-2.98176,1.2v0h24.28655v0l0.48775,1.2v0h-27.75606v0l-2.98176,1.2v0h31.22557v0l0.48774,1.2v0h-34.69507v0l-2.98176,1.2v0h38.16458v0l0.48775,1.2v0h-41.63409v0l-2.98176,1.2v0h45.1036v0l0.48774,1.2v0h-48.5731v0l-2.98175,1.2v0h36.69715v0l-2.98145,1.2v0h-36.69746v0l-2.98176,1.2v0h36.69778v0l-2.98145,1.2v0h-36.69809v0l-2.98176,1.2v0h36.6984v0l-2.98145,1.2v0h-36.69871v0l-2.98176,1.2v0h36.69903v0l-2.98145,1.2v0h-36.69934v0l-2.98176,1.2v0h36.69965v0l-2.98145,1.2v0h-36.69996v0l-2.98176,1.2v0h36.70028v0l-2.98145,1.2v0h-36.70059v0l-1.08315,0.43591v0l0.31057,0.76409v0h34.49172v0l-2.98144,1.2v0h-31.02253v0l0.48775,1.2v0h27.55333v0l-2.98145,1.2v0h-24.08412v0l0.48775,1.2v0h20.61492v0l-2.98144,1.2v0h-17.14573v0l0.48775,1.2v0h14.84501v0l0.48776,1.2v0h-14.84502v0l0.48775,1.2v0h14.84502v0l0.48775,1.2v0h-14.84501v0l0.48775,1.2v0h14.84501v0l0.48775,1.2v0h-14.84501v0l0.48775,1.2v0h14.84502v0l0.48775,1.2v0h-14.84502v0l0.48775,1.2v0h14.84502v0l0.48775,1.2v0h-14.84501v0l0.48775,1.2v0h14.84501v0l0.48776,1.2v0h-14.84502v0l0.48775,1.2v0h14.84502v0l0.48775,1.2v0h-14.84502v0l0.48775,1.2v0h14.84502v0l0.48775,1.2v0h-14.84501v0l0.48775,1.2v0h14.84502v0l0.48775,1.2v0h-14.84502v0l0.48775,1.2v0h14.84502v0l0.48775,1.2v0h-14.84502v0l0.48775,1.2v0h14.84502v0l0.48776,1.2v0h-14.84503v0l0.48776,1.2v0h14.84502v0l0.48775,1.2v0h-14.84502v0l0.48775,1.2v0h14.84502v0l0.48775,1.2v0h-14.84502v0l0.48775,1.2v0h14.84503v0l0.48775,1.2v0h-14.84503v0l0.48776,1.2v0h14.84502v0l0.48775,1.2v0h-14.84502v0l0.48775,1.2v0h14.84502v0l0.48776,1.2v0h-14.84503v0l0.48775,1.2v0h14.84503v0l0.48775,1.2v0h-14.84503v0l0.48776,1.2v0h14.84502v0l0.48775,1.2v0h-14.84502v0l0.48775,1.2v0h14.84503v0l0.48775,1.2v0h-14.84503v0l0.48775,1.2v0h14.84503v0l0.48775,1.2v0h-14.84503v0l0.48776,1.2v0h14.84502v0l0.48776,1.2v0h-14.84503v0l0.48775,1.2v0h14.84503v0l0.48775,1.2v0h-14.84503v0l0.48775,1.2v0h14.84503v0l0.48775,1.2v0h-14.84503v0l0.48775,1.2v0h14.84504v0l0.48775,1.2v0h-14.84503v0l0.48775,1.2v0h14.84503v0l0.48775,1.2v0h-14.84503v0l0.48775,1.2v0h14.84503v0l0.48776,1.2v0h-14.84504v0l0.48775,1.2v0h14.84504v0l0.48775,1.2v0h-14.84503v0l0.48775,1.2v0h14.84503v0l0.48775,1.2v0h-14.84503v0l0.48775,1.2v0h14.84504v0l0.48775,1.2v0h-14.84504v0l0.48775,1.2v0h14.84504v0l0.48775,1.2v0h-14.84503v0l0.48775,1.2v0h14.84503v0l0.48776,1.2v0h-14.84504v0l0.48775,1.2v0h14.84504v0l0.48775,1.2v0h-14.84504v0l0.48775,1.2v0h14.84504v0l0.48775,1.2v0h-14.84504v0l0.48776,1.2v0h14.84504v0l0.48775,1.2v0h-14.84504v0l0.48775,1.2v0h14.84504v0l0.48775,1.2v0h-14.84504v0l0.48775,1.2v0h14.84504v0l0.48776,1.2v0h-14.84505v0l0.48776,1.2v0h14.84504v0l0.48775,1.2v0h-14.84504v0l0.48775,1.2v0h14.84504v0l0.48775,1.2v0h-14.84504v0l0.48775,1.2v0h14.84505v0l0.48775,1.2v0h-14.84505v0l0.48776,1.2v0h14.84504v0l0.48775,1.2v0h-14.84504v0l0.48775,1.2v0h14.84504v0l0.48776,1.2v0h-14.84505v0l0.48775,1.2v0h14.84505v0l0.48775,1.2v0h-14.84505v0l0.48776,1.2v0h14.84504v0l0.48775,1.2v0h-14.84504v0l0.48775,1.2v0h14.84505v0l0.48775,1.2v0h-14.84505v0l0.48775,1.2v0h14.84505v0l0.48775,1.2v0h-14.84505v0l0.48775,1.2v0h14.84505v0l0.48776,1.2v0h-14.84505v0l0.48775,1.2v0h14.84505v0l0.48775,1.2v0h-14.84505v0l0.48775,1.2v0h14.84505v0l0.48775,1.2v0h-14.84505v0l0.48775,1.2v0h14.84506v0l0.48775,1.2v0h-14.84505v0l0.48775,1.2v0h14.84505v0l0.48775,1.2v0h-14.84505v0l0.48775,1.2v0h14.84505v0l0.48776,1.2v0h-14.84506v0l0.48775,1.2v0h14.84506v0l0.48775,1.2v0h-14.84505v0l0.48775,1.2v0h25.08398v0l-0.69228,-1.2v0h-9.39578v0l3.01411,-1.2v0h5.68939v0l-0.69228,-1.2v0h-1.98301v0l1.61262,-0.64203v0l0.37039,0.64203" fill-rule="nonzero" stroke-linejoin="miter" stroke-miterlimit="10"/><path d="M466.87774,318.83936l-0.07022,-0.17276l0.07022,0.17276h14.846v0l0.48775,1.2v0h-14.84601v0l0.48775,1.2v0h14.84601v0l0.48774,1.2v0h-14.846v0l0.48774,1.2v0h14.84601v0l0.48775,1.2v0h-14.84601v0l0.48774,1.2v0h14.84602v0l0.48774,1.2v0h-14.84601v0l0.48774,1.2v0h14.84602v0l0.48775,1.2v0h-14.84602v0l0.48774,1.2v0h14.84602v0l0.48775,1.2v0h-14.84602v0l0.48774,1.2v0h14.84603v0l0.48775,1.2v0h-14.84603v0l0.48775,1.2v0h14.84602v0l0.48775,1.2v0h-14.84603v0l0.48775,1.2v0h14.84603v0l0.48775,1.2v0h-14.84604v0l0.48775,1.2v0h14.84603v0l0.48775,1.2v0h-14.84604v0l0.48775,1.2v0h14.84604v0l0.48775,1.2v0h-14.84605v0l0.48775,1.2v0h14.84604v0l0.48775,1.2v0h-14.84605v0l0.48775,1.2v0h14.84605v0l0.48775,1.2v0h-14.84605v0l0.48774,1.2v0h14.84605v0l0.48775,1.2v0h-14.84605v0l0.48774,1.2v0h14.84606v0l0.48775,1.2v0h-14.84606v0l0.48774,1.2v0h14.84606v0l0.48775,1.2v0h-14.84606v0l0.48774,1.2v0h14.84607v0l0.48774,1.2v0h-14.84606v0l0.48775,1.2v0h14.84606v0l0.48775,1.2v0h-14.84607v0l0.48775,1.2v0h14.84607v0l0.48774,1.2v0h-14.84607v0l0.48775,1.2v0h14.84607v0l0.48775,1.2v0h-14.84608v0l0.48775,1.2v0h14.84608v0l0.48774,1.2v0h-14.84608v0l0.48775,1.2v0h14.84608v0l0.48775,1.2v0h-14.84609v0l0.48775,1.2v0h14.84609v0l0.48774,1.2v0h-14.84608v0l0.48774,1.2v0h14.84609v0l0.48775,1.2v0h-14.84609v0l0.48774,1.2v0h14.8461v0l0.48774,1.2v0h-14.84609v0l0.48774,1.2v0h14.8461v0l0.48775,1.2v0h-14.8461v0l0.48774,1.2v0h14.8461v0l0.48775,1.2v0h-14.8461v0l0.48774,1.2v0h14.84611v0l0.48775,1.2v0h-14.84611v0l0.48775,1.2v0h14.8461v0l0.48775,1.2v0h-14.84611v0l0.48775,1.2v0h14.84611v0l0.48775,1.2v0h-14.84612v0l0.48775,1.2v0h14.84611v0l0.48775,1.2v0h-14.84612v0l0.48775,1.2v0h14.84612v0l0.48775,1.2v0h-14.84613v0l0.48775,1.2v0h14.84612v0l0.48775,1.2v0h-14.84613v0l0.48775,1.2v0h14.84613v0l0.48775,1.2v0h-14.84613v0l0.48774,1.2v0h14.84613v0l0.48775,1.2v0h-14.84613v0l0.48774,1.2v0h14.84614v0l0.48775,1.2v0h-14.84614v0l0.48774,1.2v0h14.84614v0l0.48775,1.2v0h-14.84614v0l0.48774,1.2v0h14.84615v0l0.48774,1.2v0h-14.84614v0l0.48774,1.2v0h14.84615v0l0.48775,1.2v0h-14.84615v0l0.48775,1.2v0h14.84615v0l0.48774,1.2v0h-14.84615v0l0.48775,1.2v0h14.84615v0l0.48775,1.2v0h-14.84616v0l0.48775,1.2v0h14.84616v0l0.48774,1.2v0h-14.84616v0l0.48775,1.2v0h14.84616v0l0.48775,1.2v0h-14.84617v0l0.48775,1.2v0h14.84617v0l0.48774,1.2v0h-14.84617v0l0.48775,1.2v0h14.84617v0l0.48775,1.2v0h-14.84617v0l0.48774,1.2v0h14.84618v0l0.48774,1.2v0h-14.84617v0l0.48774,1.2v0h14.84618v0l0.48775,1.2v0h-14.84618v0l0.48774,1.2v0h14.84619v0l0.48774,1.2v0h-14.84618v0l0.48774,1.2v0h14.84619v0l0.48775,1.2v0h-14.84619v0l0.48775,1.2v0h14.84618v0l0.48775,1.2v0h-14.84619v0l0.48775,1.2v0h14.84619v0l0.48775,1.2v0h-14.8462v0l0.48775,1.2v0h14.84619v0l0.48775,1.2v0h-14.8462v0l0.48775,1.2v0h14.8462v0l0.42186,1.0379l0.03248,0.1621h-14.8128v0l0.48775,1.2v0h14.55502v0c0.05786,0.31983 0.13006,0.72912 0.20901,1.2v0h-14.27629v0l0.48775,1.2v0h13.98183v0c0.05921,0.38375 0.11883,0.78691 0.17628,1.2v0h-13.89489v0c0.0648,0.36524 0.13359,0.77262 0.19981,1.2v0h13.8512v0c0.04838,0.40188 0.09258,0.80458 0.13042,1.2v0h-13.81218v0c0.05106,0.40567 0.09502,0.81124 0.1269,1.2v0h13.78012v0c0.02492,0.41685 0.03894,0.81394 0.03894,1.17982l-0.00001,0.02018h-13.76427v0c-0.00034,0.40167 -0.01094,0.80179 -0.03152,1.2v0h13.77721v0c-0.01228,0.40197 -0.03061,0.80199 -0.05493,1.2v0h-13.81484v0c-0.04131,0.40245 -0.09274,0.80257 -0.154,1.2v0h13.87692v0c-0.03708,0.40219 -0.08031,0.80221 -0.12961,1.2v0h-13.96359v0c-0.0833,0.40336 -0.17671,0.80349 -0.27991,1.2v0h14.0754v0c-0.06293,0.40244 -0.13212,0.80246 -0.20749,1.2v0h-14.2134v0c-0.12779,0.40449 -0.26582,0.80464 -0.41374,1.2v0h14.37927v0c-0.09008,0.40272 -0.18658,0.80275 -0.28938,1.2v0h-14.57543v0c-0.1769,0.40599 -0.36438,0.80616 -0.56201,1.2v0h14.8053v0c-0.11889,0.40305 -0.24437,0.80308 -0.37632,1.2v0h-15.07366v0c-0.23417,0.40812 -0.47953,0.80833 -0.73556,1.2v0h15.38713v0c-0.1498,0.40344 -0.30639,0.80348 -0.46966,1.2v0h-15.7551v0c-0.30633,0.41148 -0.62497,0.81176 -0.95522,1.2v0h16.19104v0c-0.18339,0.40392 -0.37385,0.80395 -0.57123,1.2v0h-16.71517v0c-0.06659,0.06798 -0.13357,0.1355 -0.20093,0.20256v0c-0.34407,0.34255 -0.70027,0.67523 -1.06784,0.99744v0h17.35811v0c-0.22049,0.40449 -0.44836,0.80453 -0.68349,1.2v0h-18.16125v0c-0.571,0.42409 -1.16362,0.82471 -1.7756,1.2v0h19.19213v0c-0.26226,0.40522 -0.53233,0.80527 -0.81006,1.2v0h-20.5846v0c-0.9601,0.46121 -1.9563,0.86317 -2.98139,1.2v0h22.68569v0c-0.31047,0.40617 -0.62931,0.80623 -0.95632,1.2v0h-28.3395v0c-0.32116,0.01298 -0.64351,0.01954 -0.96686,0.01954v0c-0.3177,0 -0.63391,-0.00656 -0.94852,-0.01954v0h-28.03579l-0.40007,-0.48199l-1.20976,0.48199v0h-10.50571v0l0.48776,1.2v0h7.00602v0l-3.01192,1.2v0h-3.50635v0l0.48775,1.2h0.00668l3.01192,-1.2" fill-rule="nonzero" stroke-linejoin="miter" stroke-miterlimit="10"/><path d="M466.4764,479.39501l-10.54801,4.2025l-61.69485,-151.78591l80.83538,-32.53195l58.95677,145.05075l0.14811,0.73928c0,0 1.15888,5.99587 1.15888,9.3495c0,21.60029 -17.40922,38.93233 -39.10569,38.93233c-12.06516,0 -22.60917,-5.42797 -29.75059,-13.9565zM518.47188,448.96331l-52.32573,-128.73696l-50.86463,20.47246l49.58966,122.0038l8.04811,-3.20418l3.49465,6.05765c3.99904,6.92843 11.22253,11.70282 19.81305,11.70282c12.72967,0 22.94142,-10.16648 22.94142,-22.83972c0,-1.63198 -0.45435,-4.20249 -0.69653,-5.45587z" fill-rule="evenodd" stroke-linejoin="round" stroke-miterlimit="2"/><path d="M454.15164,476.03936l0.48775,1.2v0h34.20299v0c-0.99541,-0.33701 -1.96223,-0.73905 -2.89597,-1.2v0h-31.79477v0l-0.48775,-1.2v0h30.13334v0c-0.59954,-0.37546 -1.18202,-0.77611 -1.74599,-1.2v0h-28.8751v0l-0.48775,-1.2v0h27.88564v0c-0.4398,-0.38554 -0.86595,-0.78591 -1.27762,-1.2v0h-27.09578v0l-0.48775,-1.2v0h26.46444v0c-0.3413,-0.39024 -0.67056,-0.7905 -0.98718,-1.2v0h-25.96501v0l-0.48775,-1.2v0h25.57923v0c-0.26901,-0.39299 -0.52682,-0.79319 -0.77299,-1.2v0h-25.29399v0l0.48775,1.2" fill-rule="nonzero" stroke-linejoin="miter" stroke-miterlimit="10"/><path d="M411.6306,407.9236c-2.19577,-0.78119 -4.56583,-1.2 -7.07322,-1.2v0c-2.55992,0 -4.99007,0.41748 -7.23007,1.2v0h14.30329v0c0.94131,0.33489 1.85058,0.73637 2.72492,1.2v0h-19.79275v0c-0.69015,0.36243 -1.35621,0.76308 -1.99593,1.2v0h23.77501v0c0.54818,0.37409 1.07964,0.77454 1.59351,1.2v0h-26.9514v0c-0.45301,0.3801 -0.88952,0.78039 -1.30853,1.2v0h29.59518l0.17858,0.17584c0.33397,0.33249 0.65629,0.67398 0.9665,1.02416v0h-31.846v0c-0.32877,0.38675 -0.64418,0.78693 -0.94563,1.2v0h33.78087v0c0.29923,0.39074 0.58432,0.79086 0.85472,1.2v0h-35.44902v0c-0.24531,0.39025 -0.479,0.79037 -0.70064,1.2v0h36.88565v0c0.22283,0.39271 0.43273,0.7928 0.62929,1.2v0h-40.50931v0c-1.87554,0.27431 -3.70222,0.67721 -5.47427,1.2v0h46.51559v0c0.1596,0.39407 0.30713,0.79415 0.44223,1.2v0h-16.9641v0c-0.95817,-0.44356 -2.02595,-0.70738 -3.07769,-0.70738v0c-1.0642,0 -2.14967,0.26418 -3.11084,0.70738v0h-27.26755v0c-0.91799,0.36706 -1.81886,0.76752 -2.7017,1.2v0h28.14502v0c-0.37546,0.34779 -0.72101,0.75415 -1.02659,1.2v0h-29.38007v0c-0.666,0.38133 -1.32046,0.78155 -1.96294,1.2v0h30.66159v0c-0.18007,0.38879 -0.33072,0.7918 -0.44717,1.2v0h-31.95597v0c-0.53185,0.38718 -1.05459,0.78731 -1.56795,1.2v0h33.27242v0l-0.21246,1.2v0h-34.48629v0c-0.21792,0.19177 -0.43398,0.38589 -0.64815,0.58233v0c-0.2221,0.20371 -0.44183,0.40961 -0.65916,0.61767v0h35.58115v0l-0.21246,1.2v0h-36.57236v0c-0.37854,0.39307 -0.7489,0.79312 -1.11085,1.2v0h37.47076l-0.04413,0.24924h-5.77494v0c-0.378,0.00568 -1.05851,-0.09418 -1.58517,-0.17979l-0.20952,-0.01536c-2.47742,0.05354 -4.9007,0.45173 -7.20412,1.14591v0h-23.6796v0c-0.32425,0.39417 -0.64089,0.79421 -0.94973,1.2v0h21.3999v0c-0.81447,0.36256 -1.60766,0.76341 -2.37612,1.2v0h-19.90247v0c-0.27811,0.39499 -0.54904,0.79503 -0.81265,1.2v0h18.79547v0c-0.55526,0.38063 -1.09419,0.78102 -1.61526,1.2v0h-17.93112v0c-0.23781,0.39564 -0.46879,0.79567 -0.69281,1.2v0h17.23531v0c-0.25749,0.2391 -0.50958,0.4831 -0.75603,0.73183l-0.45203,0.46817h-16.66516v0c-0.20184,0.39616 -0.39714,0.79619 -0.58577,1.2v0h16.19092v0c-0.32322,0.38977 -0.63576,0.79 -0.93711,1.2v0h-15.78988v0c-0.16919,0.39658 -0.33206,0.79661 -0.4885,1.2v0h15.44656v0c-0.25635,0.39251 -0.50288,0.79268 -0.73921,1.2v0h-15.1502v0c-0.13913,0.39694 -0.27211,0.79696 -0.39887,1.2v0h14.89305v0c-0.20273,0.39432 -0.39616,0.79446 -0.57997,1.2v0h-14.66949v0c-0.11111,0.39724 -0.21624,0.79727 -0.3153,1.2v0h14.47533v0c-0.15684,0.39562 -0.30467,0.79575 -0.44323,1.2v0h-14.30749v0c-0.06455,0.3028 -0.12571,0.60707 -0.18343,0.91276l-0.05424,0.28724h14.16481v0c-0.11563,0.39663 -0.22241,0.79674 -0.32009,1.2v0h-17.65196v0c-1.27545,0.30974 -2.50661,0.71208 -3.6898,1.2v0h21.07994v0c-0.07725,0.39744 -0.14568,0.79754 -0.20507,1.2v0h-23.38318v0c-0.67662,0.3707 -1.33447,0.77123 -1.97273,1.2v0h25.20654v0c-0.04041,0.39813 -0.07193,0.79823 -0.09437,1.2v0h-26.75553v0c-0.48381,0.383 -0.95453,0.78327 -1.41174,1.2v0h28.12754l-0.00072,0.08087v1.11913v0h-29.36247v0c-0.30787,0.31837 -0.60868,0.64472 -0.90226,0.97875l-0.1924,0.22125h30.45713v0v1.2v0h-31.43219v0c-0.30098,0.39265 -0.59057,0.79273 -0.86842,1.2v0h32.30061v0v1.2v0h-33.0726v0c-0.23857,0.39398 -0.46657,0.79405 -0.68373,1.2v0h20.72445v0c-1.16431,0.24905 -2.28292,0.6604 -3.31221,1.2v0h-18.01438v0c-0.18539,0.39496 -0.36082,0.79502 -0.52605,1.2v0h16.66549v0c-0.40836,0.31532 -0.79227,0.65272 -1.14759,1.00898l-0.18611,0.19102h-15.78633v0c-0.13855,0.39572 -0.26759,0.79577 -0.38691,1.2v0h15.17299v0c-0.27888,0.38192 -0.53845,0.78302 -0.77642,1.2v0h-14.71911v0c-0.09622,0.39632 -0.18327,0.79636 -0.26098,1.2v0h14.37496v0c-0.17251,0.39081 -0.32657,0.79156 -0.46059,1.2v0h-14.11618v0c-0.05719,0.39681 -0.10547,0.79685 -0.1447,1.2v0h13.93069v0c-0.08828,0.39576 -0.1575,0.79639 -0.20637,1.2v0h-13.8137v0c-0.0206,0.39721 -0.03251,0.79725 -0.03558,1.2v0h13.7654l-0.00192,0.20955c0,0.33155 0.01425,0.662 0.04204,0.99045v0h-13.78866v0c0.01443,0.40313 0.03766,0.80317 0.06951,1.2v0h13.88158v0c0.0755,0.40556 0.17104,0.80617 0.28521,1.2v0h-14.0431v0c0.05091,0.40358 0.11086,0.80361 0.17968,1.2v0h14.27652v0c0.16448,0.41104 0.34924,0.81182 0.55242,1.2v0h-14.59121v0c0.0901,0.40412 0.18957,0.80416 0.2982,1.2v0h15.00632v0c0.28324,0.42224 0.58929,0.82352 0.91515,1.2v0h-15.56001v0c0.13295,0.40479 0.2757,0.80484 0.42799,1.2v0h16.33479v0c0.5093,0.43871 1.06351,0.84101 1.65275,1.2v0h-17.48918v0c0.18086,0.40566 0.37206,0.80572 0.57332,1.2v0h19.46877v0c1.28941,0.4446 2.66017,0.69191 4.04051,0.69191v0c1.39401,0 2.7833,-0.24903 4.07314,-0.69191v0h58.11536v0c-0.51487,0.4128 -1.03939,0.81294 -1.57321,1.2v0h-83.47083v0c0.23597,0.40682 0.48302,0.80689 0.74081,1.2v0h80.98039v0c-0.6461,0.41862 -1.30441,0.81883 -1.97438,1.2v0h-78.16996v0c0.30186,0.40845 0.61583,0.80854 0.94149,1.2v0h74.95109v0c-0.89019,0.43282 -1.79852,0.83327 -2.72388,1.2v0h-29.48809v0c1.13204,0.45165 2.28492,0.85259 3.45889,1.2v0h22.53161v0c-1.80611,0.52665 -3.66693,0.92957 -5.57512,1.2v0h-11.47857v0c1.84844,0.26695 3.74464,0.40512 5.68938,0.40512v0c1.97127,0 3.90336,-0.13786 5.78919,-0.40512" fill-rule="nonzero" stroke-linejoin="miter" stroke-miterlimit="10"/><path d="M409.48037,422.3236h15.47733v0c0.10483,0.39508 0.19819,0.79514 0.27979,1.2v0h-14.70639v0c0.25672,0.37206 0.48511,0.77567 0.67788,1.2v0h14.23369v0c0.05577,0.39584 0.10051,0.7959 0.13398,1.2v0h-13.93591v0c0.10612,0.39415 0.18024,0.79653 0.21754,1.2v0h13.78404v0c0.00531,0.19715 0.00799,0.3952 0.00799,0.59411l-0.00763,0.60589h-13.78369v0c-0.03578,0.4042 -0.10636,0.80615 -0.20742,1.2v0h13.92933v0c-0.03167,0.4049 -0.07417,0.80481 -0.12744,1.2v0h-14.21307v0c-0.18192,0.42126 -0.39746,0.82413 -0.64028,1.2v0h14.65572v0c-0.07903,0.4048 -0.1699,0.8047 -0.27254,1.2v0h-15.33983v0l-1.1128,1.2v0h16.10037v0c-0.13276,0.40459 -0.27839,0.80448 -0.43686,1.2v0h-16.77632v0l-1.11281,1.2v0h17.36283l-0.06677,0.13861l-0.28141,0.57871v0l0.28863,0.48268v0h-17.07277v0l0.95608,1.2v0h16.81117v0c0.22116,0.39684 0.43573,0.79686 0.64361,1.2v0h-16.49869v0l0.95608,1.2v0h16.13715v0c0.18883,0.39712 0.37126,0.79713 0.54721,1.2v0h-15.77076v0c0.282,0.39186 0.55466,0.79205 0.81758,1.2v0h15.45464v0c0.15863,0.39735 0.31103,0.79737 0.45712,1.2v0h-15.1795v0c0.2273,0.39389 0.44577,0.79405 0.65504,1.2v0h14.93856v0c0.1302,0.39756 0.25431,0.79757 0.37227,1.2v0h-14.72684v0c0.18125,0.39533 0.35392,0.79546 0.51773,1.2v0h14.54066v0c0.10326,0.39774 0.20056,0.79775 0.29184,1.2v0h-14.3773v0c0.14038,0.39641 0.27232,0.79653 0.39556,1.2v0h14.2348v0c0.07758,0.39791 0.14931,0.79792 0.21513,1.2v0h-14.11178v0c0.10265,0.39728 0.19687,0.79739 0.28243,1.2v0h14.00736v0c0.05297,0.39805 0.10019,0.79806 0.14161,1.2v0h-13.92103v0c0.06667,0.39801 0.12483,0.79811 0.17428,1.2v0h13.85265v0c0.02929,0.39818 0.0529,0.79819 0.07081,1.2v0h-13.80235v0c0.03143,0.39865 0.05418,0.79875 0.06808,1.2v0h13.76684l0.00007,0.0761c0,0.3761 -0.0052,0.75075 -0.01555,1.1239v0h-13.79246v0c-0.02298,0.40178 -0.05507,0.80187 -0.09604,1.2v0h13.83728v0c-0.02319,0.40185 -0.05237,0.80187 -0.08744,1.2v0h-13.90098v0c-0.05999,0.40246 -0.12903,0.80256 -0.20691,1.2v0h13.9837v0c-0.04783,0.40206 -0.10172,0.80208 -0.16156,1.2v0h-14.08592v0c-0.09835,0.40327 -0.20581,0.80338 -0.32214,1.2v0h14.20844v0c-0.07338,0.40229 -0.1529,0.80232 -0.23845,1.2v0h-14.35251v0c-0.13931,0.40425 -0.2879,0.80438 -0.4455,1.2v0h14.51985v0c-0.10008,0.40256 -0.20639,0.80259 -0.31884,1.2v0h-14.71287v0c-0.18465,0.40554 -0.37892,0.80568 -0.5825,1.2v0h14.93474v0c-0.12822,0.40287 -0.2628,0.8029 -0.40364,1.2v0h-15.18979v0c-0.23726,0.40732 -0.48473,0.80749 -0.74202,1.2v0h15.48375v0c-0.15819,0.40323 -0.32291,0.80326 -0.49404,1.2v0h-15.82451v0c-0.3024,0.41 -0.61599,0.81023 -0.94027,1.2v0h16.22299v0c-0.19051,0.40366 -0.38775,0.8037 -0.59158,1.2v0h-16.69478v0c-0.192,0.20343 -0.38712,0.40343 -0.58527,0.59987v0c-0.20499,0.20323 -0.41379,0.40331 -0.62626,0.60013v0h17.26265v0c-0.22585,0.40419 -0.45869,0.80423 -0.69837,1.2v0h-17.95534v0c-0.52139,0.41875 -1.06066,0.81919 -1.61626,1.2v0h18.81548v0c-0.26521,0.40484 -0.53774,0.80488 -0.8174,1.2v0h-19.91734v0c-0.76832,0.43668 -1.56137,0.83764 -2.3757,1.2v0h21.41025v0c-0.31001,0.40568 -0.62776,0.80573 -0.95302,1.2v0h-23.69601v0c-2.40886,0.72086 -4.94904,1.1125 -7.54584,1.1125v0c-2.55242,0 -5.03899,-0.40202 -7.38799,-1.1125v0h-18.60127v0c-0.22224,0.41079 -0.46748,0.81203 -0.7331,1.2v0h56.93519v0c-0.36246,0.40679 -0.73319,0.80685 -1.11197,1.2v0h-56.74678v0c-0.36855,0.42719 -0.7625,0.82935 -1.17728,1.2v0h56.72048v0c-0.42781,0.40964 -0.86384,0.80974 -1.30783,1.2v0h-57.00823l0.35041,-0.2274c0.43148,-0.29147 0.84788,-0.61758 1.24517,-0.9726" fill-rule="nonzero" stroke-linejoin="miter" stroke-miterlimit="10"/><path d="M384.87043,417.30015c3.75885,-7.07589 11.16048,-11.77655 19.68695,-11.77655c12.2453,0 22.29293,10.0031 22.29293,22.19411c0,3.48115 -0.76458,6.7451 -2.16765,9.66433c3.63276,6.10946 5.77438,13.13952 5.96853,20.61593l0.00201,0.20724c0,22.764 -18.64216,41.32351 -41.50752,41.32351c-5.9245,0 -11.52675,-1.29124 -16.58459,-3.52898c-5.02782,5.62325 -12.29935,9.10839 -20.44353,9.10839c-15.02341,0 -27.49688,-12.13522 -27.49688,-27.37498c0,-13.71938 10.25379,-25.30064 23.76405,-27.12391c3.41059,-17.69471 18.22183,-31.436 36.4857,-33.30909zM414.48692,458.32277c-0.17013,-5.94207 -2.33177,-11.41986 -5.85444,-15.84154l-4.29927,-5.39609l4.69356,-5.06132c1.0568,-1.13979 1.65926,-2.63826 1.65926,-4.30611c0,-3.35163 -2.76209,-6.10149 -6.12865,-6.10149c-3.0343,0 -5.53219,2.17398 -6.05259,5.10915l-1.1769,6.64747h-6.78115c-0.46035,0 -1.23694,-0.1076 -1.77735,-0.19528c-13.78847,0.19926 -24.96695,11.45174 -24.96695,25.22691v9.89748l-9.41115,-1.56224c-0.75858,-0.12554 -1.51515,-0.28893 -2.27373,-0.28893c-6.30879,0 -11.3326,5.11712 -11.3326,11.28237c0,6.28082 5.1399,11.28236 11.3326,11.28236c4.67355,0 8.63256,-2.80963 10.38589,-6.88061l3.92698,-9.12233l8.15219,5.71292c4.09711,2.8714 9.09891,4.71061 14.56306,4.71061c13.92257,0 25.27919,-11.26842 25.34124,-25.11333z" fill-rule="evenodd" stroke-linejoin="round" stroke-miterlimit="2"/><path d="M384.31669,406.78646l0.81417,0.95073v0l1.12008,-0.95073v0h-1.93425v0l-1.02763,-1.2v0h4.37562v0l1.41375,-1.2v0h-6.817v0l-1.02763,-1.2v0h9.25838v0l1.41375,-1.2v0h-11.69977v0l-1.02763,-1.2v0h14.14114v0l1.41375,-1.2v0h-16.58252v0l-1.02763,-1.2v0h18.08323v0l-1.02763,-1.2v0h-18.08324v0l-1.02763,-1.2v0h18.08324v0l-1.02763,-1.2v0h-18.08324v0l-1.02763,-1.2v0h18.08323v0l-1.02763,-1.2v0h-18.08323v0l-1.02764,-1.2v0h18.08324v0l-1.02763,-1.2v0h-18.08324v0l-1.02763,-1.2v0h18.08324v0l-1.02764,-1.2v0h-18.08323v0l-1.02764,-1.2v0h18.08324v0l-1.02763,-1.2v0h-18.08324v0l-1.02763,-1.2v0h18.08324v0l-1.02764,-1.2v0h-18.08323v0l-1.02763,-1.2v0h18.08323v0l-1.02763,-1.2v0h-18.08324v0l-1.02763,-1.2v0h18.08324v0l-1.02763,-1.2v0h-17.08966v0l1.41375,-1.2v0h14.64827v0l-1.02763,-1.2v0h-12.2069v0l1.41375,-1.2v0h9.76552v0l-1.02763,-1.2v0h-7.32414v0l1.41375,-1.2v0h4.88275v0l-1.02763,-1.2v0h-2.44138v0l1.41375,-1.2v0l1.02763,1.2" fill-rule="nonzero" stroke-linejoin="miter" stroke-miterlimit="10"/><path d="M376.15046,481.1236c0.76907,0.43342 1.56559,0.83503 2.38585,1.2v0h-14.80763v0l0.51658,-1.2v0h11.9052v0c-0.66894,-0.37699 -1.31712,-0.77805 -1.9421,-1.2v0h-9.44652v0l0.51657,-1.2v0h7.21053v0l-1.71237,-1.2v0h-4.98158v0l0.51657,-1.2v0h2.75264v0l-1.71237,-1.2v0h-0.52369" fill-rule="nonzero" stroke-linejoin="miter" stroke-miterlimit="10"/><path d="M373.04661,494.90235l-0.80232,-0.35689" fill-rule="nonzero" stroke-linejoin="miter" stroke-miterlimit="10"/><path d="M370.67766,367.89844l26.62021,31.0853l-12.30134,10.44147l-26.62021,-31.0853z" fill-rule="evenodd" stroke-linejoin="round" stroke-miterlimit="2"/><path d="M354.39649,465.5236c0.06466,0.01115 0.12845,0.02197 0.19131,0.03231v0l7.03433,1.16769v0l0.98031,0.16273v-0.16273v-1.2v0h-8.20595v0c-0.68609,-0.11826 -1.46993,-0.27282 -2.27893,-0.27282" fill-rule="nonzero" stroke-linejoin="miter" stroke-miterlimit="10"/><path d="M344.22383,502.7236c2.4818,0.77339 5.12657,1.18453 7.89373,1.18453v0c2.80907,0 5.48352,-0.40947 7.98159,-1.18453v0h-15.87532v0c-1.07122,-0.33382 -2.11207,-0.73513 -3.1193,-1.2v0h22.11782v0c0.7822,-0.36176 1.54264,-0.7623 2.27979,-1.2v0h-26.68832v0c-0.63402,-0.3736 -1.25202,-0.77399 -1.85305,-1.2v0h30.37569v0c0.52876,-0.37962 1.04331,-0.77986 1.54296,-1.2v0h-33.48538v0c-0.46474,-0.38386 -0.91763,-0.78407 -1.35814,-1.2v0h36.17433v0c0.39989,-0.38633 0.78864,-0.78647 1.16582,-1.2v0h-38.53572" fill-rule="nonzero" stroke-linejoin="miter" stroke-miterlimit="10"/></g></g></svg>