<svg version="1.1" xmlns="http://www.w3.org/2000/svg" xmlns:xlink="http://www.w3.org/1999/xlink" width="1317" height="542" viewBox="0,0,1317,542"><g fill="none" fill-rule="none" stroke="none" stroke-width="1" stroke-linecap="butt" stroke-linejoin="round" stroke-miterlimit="2" stroke-dasharray="" stroke-dashoffset="0" font-family="none" font-weight="none" font-size="none" text-anchor="none" style="mix-blend-mode: normal"><g><path d="M371.7923,63.69496l10.28781,-12.42216c30.12688,24.73473 49.41753,64.75904 52.50187,97.86886c21.68647,-0.80503 43.463,-1.23942 65.29157,-1.28326c-2.93623,-22.96326 -19.04246,-56.86019 -42.81851,-76.39411l10.29182,-12.41817c27.61097,22.6823 45.78877,62.45154 48.75302,88.84814c22.18284,0.12952 44.24959,0.54798 66.18625,1.27131c-2.9022,-24.34815 -17.6554,-53.29533 -40.15649,-71.71337l10.2718,-12.4381c26.53215,21.72185 43.45499,56.27035 46.19307,84.74727c22.09478,0.88673 44.07547,2.0883 65.95809,3.62264c-3.21644,-21.32531 -16.99291,-48.17623 -37.55052,-64.96627l10.25579,-12.45006c24.84086,20.28714 40.84502,53.34714 43.7212,78.63184c22.04474,1.71965 43.97339,3.78404 65.79596,6.20909c-2.29374,-24.61318 -15.23357,-44.69706 -34.71436,-60.64023l10.2678,-12.43811c23.83009,19.50403 39.04164,44.42208 40.80898,74.96737c21.82457,2.61435 43.53305,5.59535 65.11344,8.95894c-3.51067,-16.30384 -14.87929,-37.16685 -31.31177,-50.55345l10.23977,-12.46202c21.35021,17.39182 35.10466,45.54394 37.87476,65.71551c21.93666,3.6326 43.75723,7.66771 65.47572,12.12526c-3.34654,-15.96509 -13.88855,-33.91087 -28.73983,-46.06203l10.2678,-12.43811c19.87109,16.25601 32.95102,41.2757 35.37086,62.061c21.25014,4.58907 42.38818,9.5906 63.41615,15.01658c-3.0323,-13.50018 -11.35262,-27.70177 -24.38051,-38.32856l10.24778,-12.45405c18.61413,15.17999 29.18416,36.38375 31.22971,55.29596c20.02521,5.40406 39.95834,11.20465 59.80141,17.41573c-5.07585,-13.54402 -12.62159,-25.98411 -21.9887,-35.3097l10.58804,-10.5411c13.24606,13.18933 23.4458,31.74486 28.95999,51.46011c5.0038,1.63198 9.99359,3.28787 14.97737,4.96966l5.49017,1.85316v42.51312l-10.68811,-3.61466c-1.67327,-0.56591 -3.34655,-1.12783 -5.02382,-1.68976c-2.22769,27.05616 -12.71365,51.88255 -28.34352,69.88014l-11.3246,-9.74803c14.40494,-16.58679 23.708,-39.82305 24.98697,-64.95631c-179.93062,-58.12153 -367.50904,-81.56303 -564.17237,-82.32821c-46.23511,-0.19926 -92.07191,1.38888 -137.70656,4.56317l-8.65057,0.60177v-41.64233l7.51971,-0.52606c15.28561,-1.06806 30.63726,-1.95678 46.04896,-2.66218c-2.88019,-29.20822 -20.08325,-64.32464 -46.6234,-86.11623zM381.01931,168.02399v9.37141c43.17478,-2.81163 86.53771,-4.20647 130.2529,-4.01916c201.75119,0.7851 394.01717,25.29665 578.32512,86.12818v-8.53052c-184.05776,-61.34762 -376.34375,-86.21786 -578.39317,-87.00296c-43.68517,-0.18731 -87.19221,1.21951 -130.18485,4.05305z" fill="#000000" fill-rule="evenodd" stroke="none"/><path d="M187.19234,192.18682l19.41474,19.52794l-11.40867,11.35809l-19.41474,-19.52794l-19.61489,19.52794l-11.40866,-11.35809l19.61489,-19.52794l-19.61489,-19.32867l11.40866,-11.35809l19.61489,19.32868l19.41474,-19.32868l11.40867,11.35809z" fill="#ff00e2" fill-rule="nonzero" stroke="none"/><path d="M615.42349,244.1451c89.12767,-21.41896 196.4852,-3.84382 271.88645,44.70304l-6.28277,14.57821c-88.04685,-21.13003 -184.15383,-18.49376 -262.96367,12.22489l-4.92174,1.91891l-9.80945,-9.76596l4.42936,-5.61329c5.50618,-6.97626 8.6806,-15.44899 8.6806,-24.91805c0,-7.62586 -2.15764,-14.92492 -5.98655,-21.05829l-5.90448,-9.4571zM831.51357,277.94637c-62.48144,-25.82271 -136.95799,-33.70164 -202.46173,-20.34094c2.30775,6.16126 3.5547,12.81869 3.5547,19.66742c0,5.96798 -0.90068,11.655 -2.59597,16.99529c61.96305,-20.42264 132.6247,-25.32256 201.503,-16.32177z" fill="#ff0800" fill-rule="evenodd" stroke="none"/><path d="M880.34064,246.46454l-219.00629,-21.89122l1.61923,-16.01292l222.14668,22.20606l21.57638,11.35211c4.94375,-3.00491 10.71214,-4.77438 17.07497,-4.77438c18.65817,0 33.90174,15.176 33.90174,33.75146c0,18.57546 -15.24357,33.75145 -33.90174,33.75145c-18.65817,0 -33.90175,-15.17599 -33.90175,-33.75145c0,-6.25093 1.77536,-12.09736 4.75762,-17.12481zM910.25536,259.69173c-2.56195,3.10853 -4.24122,7.05995 -4.24122,11.40392c0,9.72013 7.97406,17.65884 17.73747,17.65884c9.76341,0 17.73746,-7.93871 17.73746,-17.65884c0,-9.72013 -7.97405,-17.65884 -17.73746,-17.65884c-4.3473,0 -8.14019,1.64992 -11.13046,4.22043z" fill="#0023c8" fill-rule="evenodd" stroke="none"/><path d="M377.86111,258.14344c0,28.34142 23.24765,51.48602 51.71527,51.48602c28.46762,0 51.71527,-22.90947 51.71527,-51.48602c0,-9.43518 -2.45987,-18.07929 -6.82719,-25.47998l175.07093,1.51441l0.36828,-35.21605l-229.61034,-2.14408v10.838c-24.19837,4.3081 -42.43222,25.27673 -42.43222,50.4877zM633.57127,214.903l-0.03202,3.04277l-181.31568,-1.56821l-5.41411,10.78221l5.21797,4.05105c8.09615,6.2868 13.09994,15.80767 13.09994,26.93262c0,19.64551 -15.98213,35.3934 -35.55099,35.3934c-19.56886,0 -35.551,-15.91129 -35.551,-35.3934c0,-19.14336 15.32564,-34.70991 34.55624,-35.19612l7.87598,-0.19927v-9.68626z" fill="#0023c8" fill-rule="evenodd" stroke="none"/><path d="M44.60807,274.88168c0,126.38962 102.88412,228.62436 229.83652,228.8316c5.42812,0 10.63207,-0.20724 16.04618,-0.62171l3.88895,-0.2969l2.18566,-3.21813c43.50503,-64.05364 69.03842,-141.3245 69.03842,-224.69486c0,-83.37634 -25.33524,-160.6512 -69.04843,-224.70882l-2.17765,-3.19222l-3.86293,-0.30687c-5.21396,-0.41447 -10.63407,-0.6237 -16.05619,-0.6237c-126.9564,0 -229.85053,102.43801 -229.85053,228.83161zM349.43953,274.88168c0,78.6179 -23.64996,151.58465 -64.07866,212.42614c-3.63276,0.20923 -7.21547,0.31284 -10.90227,0.31284c-118.01961,-0.19129 -213.68626,-95.2286 -213.68626,-212.73898c0,-117.5064 95.65664,-212.73899 213.68626,-212.73899c3.66078,0 7.32356,0.10162 10.90828,0.30886c40.61484,60.84149 64.07265,133.81024 64.07265,212.43013z" fill="#0023c8" fill-rule="evenodd" stroke="none"/><path d="M818.56774,328.97208l11.81697,10.97949c4.86369,-5.18686 10.76218,-9.52088 17.53532,-12.46003l0.25819,-0.11756c3.99904,-1.90497 8.53048,-3.07466 13.05191,-3.94146c12.17725,-2.25169 24.2304,-0.14546 34.53823,4.89992c10.06965,5.0135 18.64816,12.79878 24.05827,22.8736l14.25482,-7.58402c-6.99931,-13.03988 -18.03569,-23.18843 -31.13364,-29.70837c-13.36014,-6.53588 -28.92797,-9.21201 -44.71996,-6.29278c-5.87646,1.12585 -11.69288,2.72195 -16.8588,5.15896c-8.80068,3.83385 -16.47851,9.44913 -22.80131,16.19225z" fill="#57c900" fill-rule="evenodd" stroke="none"/><path d="M649.82762,329.52604c22.6472,5.5017 41.72968,22.89551 48.14855,46.86108c0.73456,2.56254 1.26297,4.81224 1.61123,7.2353l16.00015,-2.2756c-0.45234,-3.15635 -1.12485,-6.08754 -2.02954,-9.2419c-7.95404,-29.69841 -31.70407,-51.36048 -59.89548,-58.21319z" fill="#57c900" fill-rule="evenodd" stroke="none"/><path d="M645.4563,330.43269c-12.7797,9.15422 -15.55582,27.00436 -6.26076,39.65169c2.35779,3.12846 5.15992,5.81654 8.3003,7.69361l-8.31431,13.79708c-4.86569,-2.90528 -9.26904,-6.99219 -12.97385,-11.91204c-14.66514,-19.95437 -10.23577,-47.93512 9.80945,-62.29413z" fill="#57c900" fill-rule="evenodd" stroke="none"/><path d="M498.76291,335.84871c-1.24294,21.45882 10.35786,40.76956 28.15938,50.46777c-0.50038,1.99862 -0.82863,4.05304 -0.93671,6.10746c-0.7926,18.63922 13.39418,34.31139 32.03433,35.35753c18.75224,0.78909 34.49418,-13.3348 35.54498,-31.89232c0.35027,-6.10348 -0.94471,-11.97381 -3.55269,-17.07698c10.2758,-9.26979 16.97888,-22.49101 17.76348,-37.35217c0.78059,-12.82069 -3.15239,-24.87819 -10.19173,-34.51065c4.8717,-6.8288 8.02609,-15.05446 8.58652,-23.99347l0.006,-0.11159c1.21692,-24.94196 -17.97765,-46.02616 -43.02867,-47.4788c-25.1511,-1.21551 -46.55535,17.94977 -47.77227,42.91166c-0.34626,6.54585 0.78459,12.86055 3.04831,18.58542c-11.3206,9.35149 -18.85432,23.14061 -19.66093,38.98614zM581.29158,301.36396l-5.40811,5.55749l5.36607,5.59734c6.91725,7.21338 11.04839,17.21049 10.38789,28.03256c-0.6625,12.56364 -7.25751,23.42557 -17.00491,29.84189l-7.9,5.19881l6.39886,6.95035c2.98427,3.24004 4.56547,7.70955 4.29526,12.43611c-0.55242,9.74404 -8.8287,17.14076 -18.61213,16.73027c-9.66734,-0.54399 -17.09698,-8.78359 -16.68467,-18.52365c0.1381,-2.58845 1.02678,-5.25062 2.15764,-7.50032l4.04707,-8.06026l-8.50245,-3.09458c-15.35566,-5.58938 -25.91968,-20.71556 -24.92893,-37.81048c0.6645,-13.06778 7.79391,-24.09509 18.0517,-30.51739l6.69909,-4.19452l-4.07309,-6.75507c-2.80813,-4.66279 -4.37533,-10.25615 -4.06309,-16.16236c0.7866,-16.11852 14.60909,-28.43707 30.76736,-27.65595c16.08421,0.93256 28.50564,14.49253 27.74907,30.57518c-0.48837,7.55612 -3.83891,14.31518 -8.74263,19.35458z" fill="#57c900" fill-rule="evenodd" stroke="none"/><path d="M979.33981,337.15787l0.06806,0.16141c5.0098,10.64273 17.5233,14.8791 27.72505,9.96523c10.43993,-4.87202 14.69516,-17.33006 9.75941,-27.48658c-0.20616,-0.41049 -0.41832,-0.80303 -0.64049,-1.17765c2.85417,-6.74312 2.82815,-14.54035 -0.51839,-21.64812l-0.03002,-0.06177c-6.53496,-13.57989 -22.75928,-19.45223 -36.39964,-12.94424c-13.64036,6.50599 -19.53884,22.65839 -13.00188,36.23828c2.46988,5.33033 6.63104,9.5129 11.59481,12.16113c0.29022,1.5981 0.77458,3.1962 1.44309,4.79231zM1000.11959,314.52938l-4.14715,5.57343l4.92774,4.9039c0.57844,0.57787 1.10084,1.12585 1.48713,1.89501c1.02278,2.10424 0.07406,4.79033 -2.20567,5.8544c-2.26172,1.08799 -4.90973,0.19129 -6.00856,-2.00261c-0.33826,-0.84887 -0.54442,-1.68778 -0.40231,-2.54063l1.20492,-7.19545l-7.07538,-1.897c-2.96425,-0.79507 -5.60425,-2.81361 -6.97329,-5.76472c-2.72007,-5.65513 -0.21216,-12.21892 5.36207,-14.8791c5.56422,-2.65421 12.14723,-0.16938 14.82526,5.36221c1.68128,3.60271 1.26496,7.65177 -0.99476,10.69056z" fill="#ff00e2" fill-rule="evenodd" stroke="none"/><path d="M845.63029,347.85839l-0.17213,0.59381c-0.56243,2.23974 -1.04279,4.49341 -1.04279,6.73315h16.16427c0,-0.79706 0.22617,-1.58415 0.43833,-2.37722c0.48036,-1.34504 1.41307,-2.58248 2.7681,-3.48116l0.10809,-0.07173c1.35503,-0.96444 2.88419,-1.27331 4.31127,-1.18364l0.08406,0.00598c2.44386,0.10163 4.69156,1.29323 6.1867,3.32772c0.54241,0.82695 0.93471,1.64792 1.12085,2.56852l15.84804,-3.15635c-0.60446,-3.01687 -1.78336,-5.74878 -3.60074,-8.46476l-0.07205,-0.10761c-4.58348,-6.38843 -11.51474,-9.9433 -18.72622,-10.2422c-4.77763,-0.2989 -10.01361,0.96643 -14.3509,4.02116c-4.53344,3.04676 -7.54372,7.29508 -9.06488,11.83433zM854.81927,335.93638l-0.21417,0.14746l0.09007,-0.05978z" fill="#57c900" fill-rule="evenodd" stroke="none"/><path d="M876.97409,361.02779c1.10084,5.94606 0.31023,11.89212 -2.04756,17.21249c-0.98074,2.2756 -2.25571,4.3081 -3.67479,6.19115c-4.33929,5.55351 -10.65609,9.65239 -18.24185,11.06717c-16.11023,2.80365 -31.54995,-7.82712 -34.3821,-23.96358c-1.73732,-9.58862 1.41107,-18.97398 7.69784,-25.54573l-11.70489,-11.09905c-9.72538,10.16649 -14.58307,24.69289 -11.90904,39.4584c4.36531,24.86824 28.15538,41.33746 53.17838,36.98552c11.7269,-2.18992 21.42226,-8.45281 28.20541,-17.13477c2.26972,-3.01089 4.1972,-6.15927 5.6523,-9.54079c3.61274,-8.15192 4.82366,-17.34998 3.12237,-26.54804z" fill="#57c900" fill-rule="evenodd" stroke="none"/><path d="M858.01769,366.16285c-4.90372,9.10042 -11.5968,17.30813 -19.84506,23.96556l-10.17973,-12.49788c6.56298,-5.29845 11.87902,-11.83632 15.78198,-19.07561z" fill="#57c900" fill-rule="evenodd" stroke="none"/><path d="M962.8613,367.14522c6.66506,-1.76947 14.06468,-0.4065 19.98718,4.16463c3.78888,2.86543 6.4569,6.73515 7.94803,10.89181l15.22356,-5.41203c-2.51191,-7.00216 -7.04935,-13.49421 -13.33012,-18.24667c-10.02761,-7.73745 -22.64319,-9.96124 -33.99181,-6.94836z" fill="#57c900" fill-rule="evenodd" stroke="none"/><path d="M957.7234,368.57395c-7.48969,3.15436 -16.70669,2.83554 -24.05827,-1.67183c-4.83367,-2.82956 -8.26227,-6.77699 -10.538,-11.30628l14.45898,-7.19744c0.9267,1.84718 2.30175,3.47916 4.41135,4.71659c2.91822,1.7874 6.51094,1.86711 9.42916,0.63765z" fill="#57c900" fill-rule="evenodd" stroke="none"/><path d="M358.37632,378.33991l26.62021,31.0853l12.30134,-10.44147l-26.62021,-31.0853z" fill="#ff0800" fill-rule="evenodd" stroke="none"/><path d="M775.93937,387.02586c13.99463,-8.2117 22.27091,-24.61915 19.27063,-41.7878c-4.01705,-21.99683 -25.06903,-36.42758 -46.85157,-32.4383c-22.01872,3.98529 -36.51372,24.94395 -32.50668,46.62993c1.00076,5.47978 3.01628,10.46937 6.02657,14.96478l13.45022,-8.92706c-1.79336,-2.67812 -2.98027,-5.65911 -3.57672,-8.93104c-2.40182,-13.00202 6.3208,-25.51983 19.51282,-27.90702c13.05992,-2.39118 25.63346,6.29277 28.03128,19.42631c1.79336,10.2701 -3.14038,20.16559 -11.56278,25.10536z" fill="#57c900" fill-rule="evenodd" stroke="none"/><path d="M645.60641,395.39697c25.18512,13.07376 55.32001,17.13278 84.8104,8.77562l-4.42737,-15.47888c-25.35125,7.18549 -51.25892,3.67245 -72.90936,-7.56409z" fill="#57c900" fill-rule="evenodd" stroke="none"/><path d="M808.05776,401.72562c-12.9038,3.98729 -26.4741,4.44559 -39.18575,2.0046c-15.81201,-3.10454 -30.73134,-11.08908 -42.08996,-22.83972l11.64884,-11.15882c9.05688,9.37142 20.95792,15.73394 33.53547,18.20283c10.1377,1.94881 20.98593,1.61005 31.29976,-1.57619z" fill="#57c900" fill-rule="evenodd" stroke="none"/><path d="M384.87043,417.30015c3.75885,-7.07589 11.16048,-11.77655 19.68695,-11.77655c12.2453,0 22.29293,10.0031 22.29293,22.19411c0,3.48115 -0.76458,6.7451 -2.16765,9.66433c3.63276,6.10946 5.77438,13.13952 5.96853,20.61593l0.00201,0.20724c0,22.764 -18.64216,41.32351 -41.50752,41.32351c-5.9245,0 -11.52675,-1.29124 -16.58459,-3.52898c-5.02782,5.62325 -12.29935,9.10839 -20.44353,9.10839c-15.02341,0 -27.49688,-12.13522 -27.49688,-27.37498c0,-13.71938 10.25379,-25.30064 23.76405,-27.12391c3.41059,-17.69471 18.22183,-31.436 36.4857,-33.30909zM414.48692,458.32277c-0.17013,-5.94207 -2.33177,-11.41986 -5.85444,-15.84154l-4.29927,-5.39609l4.69356,-5.06132c1.0568,-1.13979 1.65926,-2.63826 1.65926,-4.30611c0,-3.35163 -2.76209,-6.10149 -6.12865,-6.10149c-3.0343,0 -5.53219,2.17398 -6.05259,5.10915l-1.1769,6.64747h-6.78115c-0.46035,0 -1.23694,-0.1076 -1.77735,-0.19528c-13.78847,0.19926 -24.96695,11.45174 -24.96695,25.22691v9.89748l-9.41115,-1.56224c-0.75858,-0.12554 -1.51515,-0.28893 -2.27373,-0.28893c-6.30879,0 -11.3326,5.11712 -11.3326,11.28237c0,6.28082 5.1399,11.28236 11.3326,11.28236c4.67355,0 8.63256,-2.80963 10.38589,-6.88061l3.92698,-9.12233l8.15219,5.71292c4.09711,2.8714 9.09891,4.71061 14.56306,4.71061c13.92257,0 25.27919,-11.26842 25.34124,-25.11333z" fill="#ff0800" fill-rule="evenodd" stroke="none"/><path d="M713.88425,418.16097c-12.96584,21.14199 -35.77716,35.81185 -62.59953,36.92375c-26.57017,1.1119 -50.68248,-11.11498 -65.64184,-30.89599l12.9138,-9.68028c11.86101,15.68811 30.98153,25.38034 52.05153,24.49959c21.2101,-0.88075 39.22979,-12.51382 49.48157,-29.23213z" fill="#57c900" fill-rule="evenodd" stroke="none"/><path d="M1155.83383,481.10471l7.21948,-2.57052c28.49564,-10.14656 54.08106,-26.08972 75.50333,-46.38284l5.90048,-5.58739l-5.6583,-5.83247c-27.21266,-28.03854 -43.76523,-66.12002 -43.76523,-107.98952c0,-57.03354 30.83541,-106.86566 76.70424,-133.95968l7.00332,-4.13873l-4.2112,-6.94238c-25.37727,-41.83164 -64.48896,-74.13046 -111.2905,-90.69932l-7.19947,-2.5486l-2.96024,7.01412c-52.87615,125.33152 -52.87816,267.26578 -0.20416,392.5973zM1256.45022,169.33315c-46.69546,30.70071 -77.5809,83.44808 -77.5809,143.40882c0,43.24443 16.00615,82.82438 42.6804,113.0887c-16.65465,14.57422 -35.76715,26.4205 -56.72106,34.81951c-47.06173,-117.16366 -47.05773,-248.5867 0.19615,-365.77228c37.59054,14.9867 69.35265,41.1362 91.42541,74.45525z" fill="#0023c8" fill-rule="evenodd" stroke="none"/><path d="M496.22699,493.35151c21.69647,0 39.10569,-17.33204 39.10569,-38.93233c0,-3.35363 -1.15888,-9.3495 -1.15888,-9.3495l-0.14811,-0.73928l-58.95677,-145.05075l-80.83538,32.53195l61.69485,151.78591l10.54801,-4.2025c7.14142,8.52853 17.68543,13.9565 29.75059,13.9565zM519.16841,454.41918c0,12.67324 -10.21175,22.83972 -22.94142,22.83972c-8.59052,0 -15.81401,-4.77439 -19.81305,-11.70282l-3.49465,-6.05765l-8.04811,3.20418l-49.58966,-122.0038l50.86463,-20.47246l52.32573,128.73696c0.24218,1.25338 0.69653,3.82389 0.69653,5.45587z" fill="#ff0800" fill-rule="evenodd" stroke="none"/><path d="M293.86313,537.33123c0,0 -3.88896,0.2969 -3.88095,0.29491c-6.4489,0.49418 -12.6476,0.73927 -19.11451,0.73927h-0.06605c-149.04517,-0.2431 -269.80086,-120.30008 -269.80086,-268.68454c0,-148.40638 120.81373,-268.68455 269.88092,-268.68455c6.49693,0 12.99387,0.25307 19.24061,0.75123l3.86293,0.30687c12.10119,0.96046 23.10955,7.33693 29.93073,17.33603c0,0 2.17765,3.19222 2.17365,3.18624c3.06233,4.48744 6.04259,9.03466 8.93679,13.6317c0.71054,-1.04813 1.47912,-2.07235 2.30375,-3.06668l10.28781,-12.42217c6.75313,-8.1559 16.48652,-13.3049 27.05454,-14.31716c10.56802,-1.01226 21.10803,2.19789 29.29825,8.92307c7.898,6.48407 15.19954,13.7951 21.85259,21.68797l7.06937,-8.53052c6.75713,-8.15391 16.49052,-13.30092 27.05854,-14.3092c10.57003,-1.00629 21.10803,2.20586 29.29625,8.93304c7.48568,6.14931 14.40694,13.26903 20.71573,21.01246l7.94002,-9.61452c6.74312,-8.16587 16.46651,-13.32882 27.03453,-14.35503c10.56802,-1.02621 21.11003,2.168 29.31226,8.88123c8.40638,6.8826 16.05419,14.75156 22.87937,23.26216l5.59825,-6.79692c6.73311,-8.17384 16.4525,-13.34875 27.01852,-14.38891c10.56602,-1.03817 21.11403,2.1441 29.32226,8.84736c8.58452,7.01213 16.34241,15.174 23.19161,24.01139l5.56623,-6.73913c6.74112,-8.16786 16.4645,-13.3328 27.03252,-14.36101c10.56602,-1.02821 21.11203,2.16601 29.31226,8.87725c10.41191,8.52056 19.55885,17.82622 27.2647,27.90104l1.1829,-1.4367c6.7211,-8.18181 16.43448,-13.36866 26.9985,-14.42078c10.56402,-1.05212 21.11603,2.11619 29.33427,8.80949c9.89351,8.06026 18.53007,17.80828 25.79759,28.27964l2.80613,-3.39746c14.03666,-17.00525 39.25981,-19.46019 56.34078,-5.48775c11.07441,9.06057 20.54761,20.0819 28.19141,31.92819l0.08006,-0.09764c14.01064,-17.02518 39.22978,-19.52197 56.33277,-5.57543c10.58203,8.62816 19.32267,18.61332 26.24593,29.23014c7.47768,-7.29907 17.53732,-11.39196 28.02128,-11.39196c10.61606,0 20.79779,4.20049 28.30549,11.67491c0.87066,0.86879 1.73331,1.75154 2.58596,2.65222c6.99731,-30.4596 16.64264,-60.435 28.93597,-89.57746l2.96225,-7.0181c8.22625,-19.49008 30.30902,-29.19428 50.31621,-22.11241l7.20147,2.5486c55.56019,19.66942 102.01745,57.98404 132.14433,107.64479l4.2112,6.94437c5.51619,9.09245 7.15743,20.00219 4.55946,30.30418c-2.59597,10.30199 -9.21699,19.14734 -18.39196,24.56734l-7.01132,4.14471c-34.13592,20.1636 -57.09936,57.23878 -57.09936,99.68416c0,31.13113 12.28933,59.45063 32.52269,80.2977l5.66431,5.83846c7.41163,7.63981 11.45269,17.9119 11.22652,28.53072c-0.22617,10.62081 -4.70157,20.71157 -12.43144,28.03256c0,0 -5.90048,5.58738 -5.89648,5.5814c-25.4233,24.08513 -55.79636,42.99534 -89.61604,55.03691l-7.21948,2.57052c-20.04522,7.13766 -42.19404,-2.59244 -50.41028,-22.14429c0,0 -2.95825,-7.04002 -2.95625,-7.03803c-14.87329,-35.38742 -25.85162,-72.00231 -32.931,-109.19706c-5.49817,3.4413 -11.80696,5.52959 -18.40397,6.00783c-6.583,0.47624 -13.11597,-0.67949 -19.04847,-3.28388c-0.58845,3.73422 -1.7133,7.3987 -3.36856,10.87587c-4.54545,9.55275 -12.71565,16.91757 -22.71324,20.47046l-15.22356,5.41203c-15.6719,5.57144 -32.5247,0.82895 -43.0607,-10.70051c-12.25931,2.54262 -25.4213,1.70371 -37.47445,-2.80366c-2.18766,4.12279 -4.7356,8.0762 -7.61178,11.89212c-0.1381,0.18332 -0.27821,0.36665 -0.41832,0.54798c-12.60757,16.13446 -30.62925,27.76554 -52.4238,31.83453c-0.16412,0.03188 -0.32826,0.06177 -0.49038,0.08967c-19.13053,3.32573 -37.86074,0.1355 -53.88891,-7.97657c-15.90007,3.26794 -32.17244,3.20816 -47.60015,0.24509c-0.05404,-0.00996 -0.11008,-0.01992 -0.16412,-0.03188c-4.2152,-0.82695 -8.39037,-1.88704 -12.49749,-3.16831c-0.48837,0.24908 -0.98275,0.48821 -1.48313,0.71736c-19.83106,31.31445 -54.08106,52.85895 -94.18751,54.5248c-29.71056,1.24142 -57.38958,-8.54447 -78.94595,-25.82072c-6.8452,36.63282 -38.91555,64.12139 -77.78506,64.12139c-13.9546,0 -26.92044,-3.54891 -38.17098,-9.8118c-5.82442,0.31484 -11.5848,-0.65758 -16.89083,-2.75384c-14.13473,11.69883 -32.27451,18.74284 -52.0195,18.74284c-3.01429,0 -5.98654,-0.16738 -8.90476,-0.49019c-8.54849,3.90559 -18.06371,6.0696 -28.12335,6.0696c-12.62559,0 -24.51862,-3.48912 -34.69635,-9.57865c-5.82242,4.08094 -12.70765,6.59367 -19.98117,7.14962z" fill="none" fill-rule="evenodd" stroke="#000000"/></g></g></svg>