<?xml version="1.0" encoding="UTF-8" standalone="no"?>
<!DOCTYPE svg PUBLIC "-//W3C//DTD SVG 1.1//EN" "http://www.w3.org/Graphics/SVG/1.1/DTD/svg11.dtd">
<svg width="100%" height="100%" viewBox="0 0 1663 926" version="1.1" xmlns="http://www.w3.org/2000/svg" xmlns:xlink="http://www.w3.org/1999/xlink" xml:space="preserve" xmlns:serif="http://www.serif.com/" style="fill-rule:evenodd;clip-rule:evenodd;stroke-linecap:round;stroke-linejoin:round;stroke-miterlimit:1.5;">
    <g transform="matrix(0.956486,0,0,0.956486,249.538,38.7186)">
        <path d="M276.42,-14.571C277.207,-14.571 316.487,6.555 334.537,32.748C352.587,58.94 371.629,65.221 387.171,97.481C402.714,129.741 500.891,367.551 570.079,376.723C593.364,379.81 620.591,384.964 643.98,326.815C682.792,295.504 717.286,307.184 782.327,265.265C801.654,235.986 851.686,231.097 851.686,231.097C851.686,231.097 890.472,253.275 926.465,347.079C958.826,370.073 1048.47,423.241 1059.29,423.241C1070.1,423.241 1098.81,401.196 1152.35,421.399C1187.62,441.759 1250.36,501.805 1279.04,551.839C1295.2,580.022 1298.77,611.398 1298.47,631.971C1298.01,663.149 1306.69,692.479 1288.48,711.117C1270.27,729.754 1197.96,761.15 1185.2,769.964C1172.44,778.778 1040.96,800.811 1029.48,801.541C1017.99,802.27 901.659,928.017 746.632,913.712C800.215,847.948 867.748,821.63 883.389,818.08C896.837,815.028 771.764,862.026 601.132,709.093C581.782,706.543 534.825,755.304 443.818,747.899C457.187,739.117 522.185,673.502 533.337,641.571C521.938,629.13 526.097,631.578 514.427,617.245C502.823,602.96 488.901,595.137 471.434,601.314C449.166,601.314 225.45,765.859 55.854,682.817C3.376,647.065 14.785,645.269 14.785,645.269C14.785,645.269 195.879,668.331 177.412,584.292C173.078,573.773 142.772,558.801 142.772,558.801C142.772,558.801 264.466,557.173 272.011,538.128C271.41,526.44 153.511,504.344 109.009,518.623C71.303,525.229 11.051,558.803 -7.389,580.705C-23.713,600.094 -34.598,611.663 -34.598,611.663C-34.598,611.663 -12.445,516.309 35.202,474.877C97.204,413.632 264.254,358.732 405.438,385.781C417.33,346.237 323.461,126.09 289.805,53.045C267.411,4.443 226.856,-33.507 226.856,-33.507C226.856,-33.507 275.632,-14.571 276.42,-14.571Z" style="fill:none;stroke:black;stroke-width:1.05px;"/>
    </g>
</svg>
