<?xml version="1.0" encoding="UTF-8" standalone="no"?>
<!DOCTYPE svg PUBLIC "-//W3C//DTD SVG 1.1//EN" "http://www.w3.org/Graphics/SVG/1.1/DTD/svg11.dtd">
<svg width="100%" height="100%" viewBox="0 0 1251 1567" version="1.1" xmlns="http://www.w3.org/2000/svg" xmlns:xlink="http://www.w3.org/1999/xlink" xml:space="preserve" xmlns:serif="http://www.serif.com/" style="fill-rule:evenodd;clip-rule:evenodd;stroke-miterlimit:10;">
    <g>
        <g transform="matrix(4.08486,0,0,4.12443,-673.836,316.913)">
            <g id="_-000000" serif:id="#000000">
                <g>
                    <g transform="matrix(1,0,0,1,170.569,6.77544)">
                        <path d="M35.48,221.52C42.959,213.532 61.294,189.115 62.018,188.149C62.061,188.241 62.104,188.333 62.148,188.424C62.108,188.328 62.068,188.232 62.029,188.135C62.036,188.125 62.04,188.12 62.04,188.12C62.04,188.12 62.021,188.088 61.985,188.028C61.909,187.842 61.834,187.656 61.76,187.47L61.66,187.38C61.729,187.531 61.799,187.681 61.869,187.831C60.91,186.203 56.179,178.028 54.33,172.146C56.106,175.911 58.674,179.252 61.86,181.94C65.153,184.815 68.861,187.175 72.86,188.94L74.34,189.64L75.87,190.23C76.93,190.6 77.93,191.05 78.93,191.36C81.03,191.98 83.11,192.64 85.25,193.05C87.369,193.546 89.512,193.934 91.67,194.21C93.82,194.52 95.99,194.72 98.16,194.86C106.845,195.446 115.567,194.605 123.98,192.37L127.12,191.53C127.68,191.39 128.16,191.26 128.68,191.16C129.162,191.031 129.664,190.994 130.16,191.05C130.35,191.11 130.4,191.18 130.59,191.45L131.05,192.12L131.98,193.45L133.83,196.12C136.283,199.68 138.76,203.227 141.26,206.76L142.2,208.11L142.13,206.46C142.126,206.367 142.122,206.274 142.118,206.181L142.12,206.18C142.119,206.179 142.119,206.178 142.118,206.177C141.914,201.421 141.768,196.646 141.69,191.89L141.69,188.26C141.682,187.082 141.769,185.904 141.95,184.74L142,184.59C142.05,184.54 142,184.59 142,184.59L142.35,184.32L143.07,183.75C143.56,183.37 144.03,182.98 144.5,182.58C145.42,181.77 146.32,180.92 147.17,180.03C150.649,176.528 153.343,172.325 155.07,167.7C155.931,165.403 156.6,163.038 157.07,160.63C157.57,158.264 157.679,155.831 157.392,153.43C157.654,154.409 157.897,155.436 158.118,156.512C157.859,159.752 157.843,163.007 158.07,166.25L158.35,171.25L158.69,176.2C158.91,179.49 159.19,182.82 159.12,186.06C158.986,187.676 158.65,189.268 158.12,190.8C157.647,192.373 157.12,193.93 156.54,195.47C155.377,198.543 154.041,201.547 152.54,204.47C151.809,205.936 150.994,207.358 150.1,208.73C149.228,210.111 148.223,211.404 147.1,212.59C145.959,213.719 144.629,214.64 143.17,215.31C142.432,215.644 141.674,215.931 140.9,216.17C140.127,216.427 139.339,216.637 138.54,216.8C135.312,217.436 132.038,217.807 128.75,217.91C127.05,218 125.4,218 123.75,218L121.27,218L118.79,217.92L116.31,217.83L113.84,217.67C113.01,217.62 112.19,217.57 111.36,217.49L108.9,217.21C102.333,216.487 95.864,215.049 89.61,212.92C86.483,211.893 83.435,210.64 80.49,209.17C77.533,207.751 74.768,205.963 72.26,203.85C71.03,202.779 69.929,201.567 68.98,200.24C68.01,198.92 67.11,197.53 66.27,196.12C64.773,193.622 63.397,191.054 62.148,188.424C63.286,191.175 64.576,193.861 66.01,196.47C66.83,197.92 67.65,199.34 68.65,200.71C69.585,202.111 70.694,203.388 71.95,204.51C74.49,206.696 77.296,208.554 80.3,210.04C83.275,211.542 86.369,212.796 89.55,213.79C95.907,215.728 102.443,217.018 109.06,217.64C115.659,218.293 122.289,218.597 128.92,218.55C132.252,218.525 135.577,218.224 138.86,217.65C139.688,217.499 140.506,217.298 141.31,217.05C142.123,216.825 142.918,216.541 143.69,216.2C145.259,215.513 146.687,214.54 147.9,213.33C149.057,212.1 150.092,210.761 150.99,209.33C151.908,207.93 152.742,206.478 153.49,204.98C154.992,202.013 156.327,198.965 157.49,195.85C158.11,194.29 158.62,192.72 159.11,191.12C159.637,189.495 159.992,187.819 160.17,186.12C160.27,184.43 160.24,182.81 160.22,181.12C160.2,179.43 160.13,177.78 160.13,176.12L159.94,171.12L159.63,166.12C159.578,165.169 159.504,164.22 159.405,163.273C162.865,164.25 181.674,169.624 183.58,171.53C183.58,171.53 199.82,184.15 209.19,221.53C218.56,258.91 216.98,253.35 220.66,256.53C224.34,259.71 226.66,261.53 226.66,264.42C226.66,267.31 218.98,273.36 209.15,274.67C209.15,274.67 158.3,289.05 89.66,286.33C89.337,286.359 89.014,286.387 88.69,286.414C88.245,282.403 87.732,278.402 87.22,274.47C86.7,270.48 86.94,266.39 86.62,262.29C86.39,264.33 86.16,266.41 86.06,268.41C86.041,268.737 86.027,269.063 86.017,269.39C85.477,266.329 84.45,263.371 82.97,260.63C83.173,262.411 83.558,264.167 84.12,265.87C84.601,267.431 85.23,268.941 86,270.38C85.996,271.786 86.072,273.192 86.23,274.59C86.695,278.595 87.507,282.552 88.658,286.416C69.473,287.993 50.18,285.065 32.32,277.86C30.11,259.57 31.9,239.57 35.48,221.52ZM54.15,171.55C52.361,165.332 58.438,154.159 59.093,152.981C60.051,153.814 61.073,154.573 62.15,155.25C64.209,156.694 66.342,158.029 68.54,159.25C70.732,160.479 73.007,161.551 75.35,162.46C76.51,162.95 77.7,163.36 78.91,163.72C80.12,164.08 81.32,164.45 82.55,164.72C83.249,164.879 83.949,165.032 84.651,165.178C85.022,167.48 85.645,169.734 86.508,171.9C86.591,172.27 86.674,172.639 86.756,173.006C85.248,173.564 83.889,174.468 82.79,175.65C81.525,176.995 80.542,178.579 79.9,180.31C79.289,182.04 78.952,183.856 78.9,185.69C78.88,186.59 78.85,187.5 79.02,188.39C79.16,189.125 79.274,189.861 79.422,190.591C77.32,189.91 75.253,189.122 73.23,188.23C69.29,186.499 65.608,184.23 62.29,181.49C58.926,178.781 56.169,175.394 54.2,171.55L54.153,171.561C54.152,171.557 54.151,171.554 54.15,171.55ZM79.52,188.37C79.59,187.49 79.6,186.6 79.69,185.73C79.78,184.863 79.92,184.001 80.11,183.15C80.21,182.73 80.27,182.3 80.4,181.88L80.81,180.65C81.4,179.027 82.255,177.513 83.34,176.17C84.305,174.965 85.471,173.938 86.784,173.133C86.971,173.974 87.152,174.81 87.31,175.65C87.51,176.58 87.65,177.49 87.78,178.44C87.91,179.39 87.98,180.31 88.07,181.31C88.647,179.412 88.723,177.396 88.29,175.46C88.209,175.052 88.113,174.647 88.002,174.246C88.318,174.565 88.651,174.867 89,175.15C89.943,176.01 90.945,176.802 92,177.52C93.076,178.292 94.32,178.796 95.63,178.99C96.93,179.11 98.17,179.18 99.44,179.18C101.96,179.267 104.48,179.39 107,179.55L114.55,180.1C117.07,180.26 119.59,180.39 122.12,180.47L125.93,180.47C126.293,180.466 126.655,180.426 127.01,180.35C127.387,180.196 127.728,179.964 128.01,179.67C128.46,179.181 128.865,178.652 129.22,178.09C130.402,176.204 131.457,174.242 132.377,172.216C132.438,172.519 132.505,172.82 132.58,173.12C132.779,173.979 133.044,174.821 133.37,175.64C133.671,176.483 134.136,177.259 134.74,177.92C134.46,177.08 134.28,176.26 134.11,175.41C133.94,174.56 133.74,173.73 133.54,172.89C133.277,171.706 132.951,170.538 132.565,169.389C132.308,167.258 132.032,165.128 131.729,163.003C132.117,162.599 132.494,162.184 132.86,161.76C133.076,161.523 133.29,161.284 133.502,161.043C135.335,161.319 137.134,161.788 138.87,162.44C140.714,163.126 142.444,164.087 144,165.29C144.779,165.89 145.502,166.559 146.16,167.29C146.808,168.024 147.39,168.814 147.9,169.65C148.931,171.354 149.736,173.186 150.294,175.098C149.169,176.616 147.918,178.042 146.55,179.36C145.71,180.22 144.8,181.02 143.89,181.8C143.43,182.19 142.97,182.57 142.49,182.94L141.78,183.5L141.41,183.78C141.294,183.888 141.199,184.017 141.13,184.16L141.03,184.45C140.821,185.689 140.718,186.944 140.72,188.2L140.72,191.87C140.747,196.199 140.938,200.52 141.156,204.833C138.953,201.758 136.734,198.69 134.5,195.63L132.59,193L131.59,191.69L131.12,191.03C131.01,190.91 131.01,190.83 130.83,190.68C130.686,190.555 130.515,190.466 130.33,190.42C129.747,190.347 129.154,190.395 128.59,190.56C128.05,190.68 127.53,190.82 127,190.97L123.89,191.89C119.737,193.105 115.478,193.926 111.17,194.34C106.865,194.73 102.535,194.73 98.23,194.34C93.931,193.949 89.666,193.244 85.47,192.23C83.46,191.788 81.473,191.251 79.516,190.621C79.501,189.86 79.461,189.111 79.52,188.37ZM150.06,173.62C149.995,173.111 149.885,172.609 149.73,172.12L149.24,170.66C149.055,170.181 148.834,169.716 148.58,169.27C148.103,168.346 147.53,167.474 146.87,166.67C146.186,165.886 145.43,165.17 144.61,164.53C142.968,163.265 141.107,162.312 139.12,161.72C137.322,161.176 135.45,160.921 133.573,160.961C134.99,159.341 136.313,157.625 137.6,155.91C140.582,151.892 143.314,147.694 145.78,143.34C147.01,141.16 148.24,138.98 149.3,136.7C150.413,134.442 151.2,132.038 151.64,129.56C150.54,131.81 149.36,133.99 148.21,136.17C147.06,138.35 145.9,140.54 144.64,142.68C142.13,146.95 139.43,151.13 136.53,155.13C135.07,157.12 133.55,159.07 131.92,160.92C130.349,162.794 128.56,164.472 126.59,165.92C125.677,166.623 124.593,167.068 123.45,167.21C122.23,167.3 120.99,167.36 119.76,167.36C117.31,167.4 114.8,167.34 112.31,167.27C107.35,167.057 102.4,166.673 97.46,166.12C92.529,165.611 87.633,164.803 82.8,163.7C81.59,163.39 80.4,163.1 79.23,162.7C78.06,162.3 76.89,161.93 75.75,161.46C73.453,160.558 71.213,159.52 69.04,158.35C66.86,157.18 64.75,155.91 62.7,154.51C60.666,153.121 58.721,151.644 56.552,150.39C54.079,148.108 50.569,145.128 49.42,145.44C47.58,145.94 41.53,148.12 36.01,146.84C30.49,145.56 17.34,144.95 15.76,129.75C14.18,114.55 26.02,114.75 26.02,114.75C26.02,114.75 4.19,86.12 13.13,56.91C22.07,27.7 54.13,7.74 89.13,11.42C117.951,14.45 127.108,29.442 134.742,46.965L137.2,54.03C138.03,56.39 138.85,58.75 139.64,61.12C141.321,65.804 142.749,70.574 143.92,75.41C145.08,80.3 146.56,85.08 148.08,89.84C149.6,94.6 151.19,99.34 152.91,104.04L148.78,89.63C147.542,85.186 146.193,80.767 145.127,76.303C145.444,75.994 145.892,75.827 146.36,75.88C147.07,76.02 147.707,76.406 148.16,76.97C149.135,78.038 149.652,79.445 149.6,80.89C149.58,81.248 149.527,81.603 149.44,81.95C149.326,82.367 149.296,82.802 149.35,83.23C149.439,83.783 149.822,84.243 150.35,84.43C150.636,84.545 150.955,84.545 151.24,84.43C151.465,84.318 151.666,84.161 151.83,83.97C152.828,82.696 153.46,81.175 153.66,79.57C153.874,77.975 153.656,76.352 153.03,74.87C152.406,73.403 151.41,72.124 150.14,71.16C147.646,69.593 145.432,67.62 143.59,65.323C143.924,64.769 144.342,64.268 144.83,63.84C145.446,63.298 146.163,62.883 146.94,62.62C147.442,62.454 147.96,62.342 148.483,62.284C148.687,62.473 148.886,62.668 149.08,62.87C153.03,67.17 158.55,72.43 157.5,81.63C156.45,90.83 154.08,95.83 151.5,97.63C151.5,97.63 158.6,119.46 149.13,137.34C149.13,137.34 154.376,142.222 157.365,153.33L157.28,153.33C157.483,155.747 157.277,158.181 156.67,160.53C156.138,162.893 155.43,165.213 154.55,167.47C153.462,170.191 152.031,172.752 150.297,175.094C150.231,174.603 150.152,174.111 150.06,173.62ZM97.35,167.14C102.27,167.69 107.27,168.05 112.27,168.26C114.77,168.36 117.26,168.44 119.77,168.44C121.02,168.43 122.27,168.4 123.53,168.33C124.875,168.187 126.159,167.69 127.25,166.89C128.806,165.773 130.258,164.52 131.59,163.148C131.687,165.772 131.825,168.397 131.989,171.013C130.895,173.249 129.663,175.416 128.3,177.5C127.965,177.996 127.594,178.468 127.19,178.91C127.035,179.076 126.852,179.215 126.65,179.32C126.386,179.371 126.119,179.398 125.85,179.4L122.1,179.4L114.54,179.27C111.98,179.24 109.53,179.21 106.98,179.12C104.43,179.03 101.94,178.87 99.43,178.62C98.18,178.49 96.91,178.37 95.7,178.19C94.522,177.929 93.412,177.425 92.44,176.71C91.44,176.01 90.44,175.24 89.44,174.44C88.965,174.069 88.517,173.665 88.1,173.23C87.738,172.748 87.423,172.232 87.16,171.69C86.617,170.567 86.153,169.407 85.77,168.22C85.427,167.233 85.119,166.226 84.823,165.214C88.962,166.073 93.143,166.716 97.35,167.14ZM144.87,75.2C144.339,72.745 143.671,70.321 142.87,67.94C142.817,67.777 142.763,67.614 142.709,67.451C142.85,66.895 143.051,66.354 143.31,65.84C143.392,65.669 143.482,65.503 143.579,65.341C144.382,66.549 145.257,67.708 146.2,68.81C146.711,69.386 147.266,69.921 147.86,70.41C148.44,70.93 149.13,71.33 149.66,71.78C151.904,73.661 153.034,76.556 152.66,79.46C152.481,80.873 151.948,82.218 151.11,83.37C150.9,83.64 150.73,83.64 150.61,83.64C150.406,83.55 150.262,83.361 150.23,83.14C150.11,82.62 150.38,81.79 150.38,80.98C150.363,79.361 149.692,77.817 148.52,76.7C147.953,76.127 147.202,75.773 146.4,75.7C145.896,75.665 145.426,75.868 145.107,76.218C145.026,75.879 144.947,75.54 144.87,75.2ZM140.39,60.86C139.365,58.135 138.297,55.421 137.188,52.726C137.986,54.634 138.79,56.559 139.62,58.49C142.72,58.68 145.661,59.872 148.01,61.864C146.629,61.741 145.231,62.177 144.153,63.116C143.139,63.998 142.526,65.22 142.398,66.513C141.763,64.616 141.102,62.732 140.39,60.86ZM100.91,113.04C102.32,110.495 101.541,107.294 99.12,105.68C100.342,107.938 100.958,110.473 100.91,113.04ZM99.419,119.401C99.749,120.408 100.524,121.208 101.52,121.57C100.546,120.013 99.966,118.242 99.83,116.41C99.241,117.291 99.09,118.394 99.419,119.401ZM122.63,109.74C123.054,110.708 123.388,111.712 123.63,112.74C124.05,111.624 124.002,110.386 123.498,109.306C122.993,108.226 122.075,107.395 120.95,107C121.599,107.856 122.162,108.773 122.63,109.74ZM107.37,119.2C107.92,118.97 108.45,118.79 109.16,118.49C108.517,118.066 107.706,117.989 106.995,118.283C106.284,118.578 105.765,119.206 105.61,119.96C106.32,119.66 106.82,119.43 107.37,119.2ZM118.8,113.15C119.22,112.93 119.59,112.74 120.22,112.46C119.69,112.017 118.945,111.937 118.333,112.256C117.721,112.575 117.36,113.232 117.42,113.92C118,113.57 118.38,113.37 118.8,113.15ZM126,95.9C129.564,95.899 132.912,94.188 135,91.3C136.072,89.976 136.954,88.508 137.62,86.94C136.632,88.287 135.563,89.572 134.42,90.79C132.272,93.287 129.232,94.845 125.95,95.13C124.294,95.356 122.62,95.426 120.95,95.34C122.59,95.81 124.297,95.999 126,95.9ZM74.41,119.04C76.143,118.957 77.861,118.675 79.53,118.2C81.166,117.533 82.647,116.536 83.88,115.27C85.125,114.09 86.263,112.802 87.28,111.42C86.007,112.54 84.703,113.63 83.37,114.69C82.73,115.16 82.07,115.71 81.37,116.16C80.715,116.624 79.998,116.994 79.24,117.26C77.636,117.709 76.002,118.043 74.35,118.26L69.35,118.99C71.033,119.129 72.724,119.145 74.41,119.04ZM81.74,89.29C78.2,85.61 70.09,83.98 61.83,89.88C53.57,95.78 55.04,108.61 55.04,108.61L59.856,111.379C59.622,111.218 58.691,110.296 58.29,105.68C57.83,100.38 58.33,92.42 67.43,88.57C76.53,84.72 84.53,93.57 84.53,93.57C84.53,93.57 85.28,92.97 81.74,89.29ZM59.91,111.41L59.856,111.379C59.891,111.403 59.91,111.41 59.91,111.41ZM117.47,66.59C128.08,60.54 136.2,71.99 136.2,71.99L136.2,69.53C136.2,69.53 135.17,68.21 130.89,65.21C126.61,62.21 116.59,62.54 112.46,68.33C108.33,74.12 110.83,84.12 110.83,84.12C110.83,84.12 109.16,71.99 117.47,66.59ZM125.27,44.75L124.81,44.62L123.88,44.4C123.26,44.26 122.63,44.13 122,44.02C120.74,43.81 119.48,43.61 118.2,43.5C115.636,43.245 113.052,43.296 110.5,43.65C109.86,43.76 109.21,43.84 108.59,44.04C107.97,44.24 107.33,44.39 106.73,44.65C105.493,45.103 104.331,45.736 103.28,46.53C101.109,48.096 99.711,50.517 99.44,53.18L99.44,53.64L99.83,53.37C101.709,52.077 103.72,50.987 105.83,50.12C107.941,49.265 110.098,48.527 112.29,47.91C114.49,47.3 116.67,46.63 118.92,46.2C120.03,45.93 121.16,45.74 122.28,45.53L124.06,45.21C124.568,45.108 125.033,45.014 125.486,44.945C125.531,44.947 125.572,44.944 125.604,44.927C125.646,44.921 125.688,44.916 125.73,44.91C125.586,44.832 125.431,44.778 125.27,44.75ZM125.315,44.921C124.808,44.95 124.72,44.85 124.72,44.85C124.72,44.85 125.275,44.915 125.315,44.921ZM42.07,89.79C42.07,89.781 42.07,89.773 42.07,89.764C42.067,89.773 42.063,89.781 42.06,89.79L42.07,89.79ZM42.07,89.472C42.062,89.562 41.984,89.689 42.069,89.69C42.069,89.715 42.07,89.739 42.07,89.764C43.053,87.138 44.381,84.655 46.02,82.38C47.631,80.118 49.427,77.994 51.39,76.03C53.33,74.032 55.49,72.26 57.83,70.75C60.178,69.256 62.816,68.274 65.57,67.87L66.13,67.8L65.69,67.47C65.038,66.988 64.312,66.617 63.54,66.37C62.775,66.11 61.977,65.959 61.17,65.92C59.551,65.878 57.942,66.181 56.45,66.81C53.55,68.159 50.978,70.12 48.91,72.56C46.814,74.933 45.125,77.636 43.91,80.56C42.711,83.38 42.086,86.41 42.07,89.472ZM18.69,124.44C18.918,122.973 19.787,121.683 21.06,120.92C22.329,120.247 23.865,120.324 25.06,121.12C26.388,122.015 27.806,122.769 29.29,123.37C30.97,123.84 32.64,123.25 33.75,123.92C34.295,124.283 34.659,124.861 34.75,125.51C34.893,126.25 34.987,126.998 35.03,127.75C35.077,128.565 35.26,129.365 35.57,130.12C35.892,130.867 36.353,131.546 36.93,132.12C38.062,133.239 39.579,133.883 41.17,133.92C38.062,133.48 35.759,130.809 35.78,127.67C35.786,126.872 35.719,126.076 35.58,125.29C35.448,124.385 34.935,123.581 34.17,123.08C33.4,122.681 32.535,122.504 31.67,122.57C30.938,122.612 30.204,122.548 29.49,122.38C28.093,121.804 26.754,121.098 25.49,120.27C24.751,119.866 23.931,119.63 23.09,119.58C22.225,119.543 21.371,119.781 20.65,120.26C19.259,121.186 18.356,122.687 18.19,124.35C18.076,125.936 18.376,127.524 19.06,128.96C18.583,127.503 18.456,125.955 18.69,124.44ZM25.59,129.45C25.946,131.848 26.846,134.133 28.22,136.13C29.58,138.204 31.655,139.706 34.05,140.35C35.248,140.625 36.492,140.625 37.69,140.35C38.854,140.045 39.899,139.397 40.69,138.49C38.855,139.917 36.436,140.35 34.22,139.65C32.082,138.91 30.25,137.482 29.01,135.59C27.716,133.705 26.802,131.585 26.32,129.35C26.061,128.224 25.917,127.075 25.89,125.92C25.842,124.754 25.899,123.586 26.06,122.43C25.37,124.704 25.209,127.105 25.59,129.45ZM80.04,142.46C80.66,143.18 81.3,143.87 81.95,144.55C83.25,145.92 84.62,147.22 86.04,148.45C88.857,150.992 91.973,153.182 95.32,154.97C97.032,155.831 98.832,156.502 100.69,156.97C102.52,157.44 104.36,157.89 106.23,158.21C109.968,158.927 113.778,159.196 117.58,159.01C121.439,158.873 125.2,157.758 128.51,155.77C128.927,155.526 129.322,155.244 129.69,154.93C130.07,154.62 130.45,154.33 130.82,154.02L131.82,152.96C132.162,152.625 132.473,152.26 132.75,151.87C133.338,151.118 133.88,150.33 134.37,149.51C134.62,149.1 134.88,148.7 135.11,148.28L135.76,147.02C137.445,143.626 138.756,140.058 139.67,136.38C140.625,132.729 141.326,129.017 141.77,125.27L141.77,125.12L141.63,125.12C138.897,124.713 136.13,124.579 133.37,124.72C130.61,124.82 127.87,125.04 125.13,125.32C119.652,125.928 114.21,126.832 108.83,128.03C103.452,129.232 98.16,130.792 92.99,132.7C87.775,134.553 82.831,137.095 78.29,140.26C78.805,141.045 79.391,141.782 80.04,142.46ZM78.401,140.273C80.691,138.782 83.098,137.48 85.6,136.38C88.09,135.24 90.65,134.24 93.23,133.32C98.408,131.521 103.687,130.028 109.04,128.85C114.39,127.69 119.77,126.62 125.2,125.85C127.92,125.48 130.65,125.19 133.39,125.07C134.772,124.975 136.158,124.96 137.54,125.024L137.388,127.792C133.229,130.134 128.917,132.191 124.48,133.95L121.12,135.28C120,135.71 118.84,136.06 117.72,136.5C116.6,136.94 115.46,137.31 114.31,137.69C113.16,138.07 112.03,138.5 110.87,138.84C108.56,139.56 106.24,140.21 103.87,140.71C101.5,141.21 99.12,141.63 96.75,142.05L82.73,144.86C82.549,144.688 82.369,144.514 82.19,144.34C80.827,143.081 79.561,141.721 78.401,140.273ZM141.42,125.418C140.953,129.085 140.201,132.71 139.17,136.26C138.182,139.871 136.808,143.364 135.07,146.68L134.4,147.9C134.322,148.036 134.24,148.171 134.156,148.304C132.643,148.763 131.142,149.283 129.68,149.85C128.03,150.49 126.37,151.24 124.78,151.96C123.142,152.555 121.441,152.958 119.71,153.16C117.97,153.41 116.21,153.6 114.45,153.65C112.69,153.7 110.92,153.77 109.17,153.7C107.417,153.657 105.673,153.446 103.96,153.07C100.617,152.362 97.157,152.453 93.86,153.332C93.399,153.073 92.943,152.805 92.491,152.53C93.451,150.732 94.569,149.022 95.83,147.42C97.095,145.817 98.7,144.516 100.53,143.61C101.454,143.161 102.449,142.873 103.47,142.76C104.513,142.63 105.567,142.63 106.61,142.76C108.72,142.99 110.76,143.61 112.88,143.99C115.041,144.5 117.307,144.333 119.37,143.51C121.41,142.51 122.97,141.04 124.88,140.51C126.855,139.968 128.948,140.041 130.88,140.72C132.856,141.418 134.707,142.431 136.36,143.72L136.42,143.64C134.93,142.068 133.137,140.812 131.15,139.95C129.08,139.069 126.778,138.897 124.6,139.46C122.34,140.08 120.78,141.74 118.98,142.62C117.089,143.424 115.015,143.697 112.98,143.41C110.88,143.22 108.8,142.72 106.69,142.41C102.284,141.28 97.651,143.112 95.21,146.95C94.003,148.639 93.044,150.49 92.359,152.449C90.258,151.159 88.262,149.701 86.39,148.09C85.165,147.087 83.986,146.05 82.853,144.977C87.585,144.616 92.286,143.922 96.92,142.9C99.25,142.37 101.59,141.7 103.92,141.07C105.09,140.75 106.27,140.48 107.44,140.17C108.61,139.86 109.78,139.55 110.96,139.27C115.682,138.136 120.322,136.686 124.85,134.93C129.378,133.147 133.691,130.863 137.71,128.12L137.82,128.04L137.82,127.93L137.66,125.03C138.919,125.093 140.174,125.223 141.42,125.418ZM133.66,149.08C133.164,149.861 132.623,150.612 132.04,151.33C131.773,151.692 131.472,152.027 131.14,152.33L130.19,153.33C129.84,153.62 129.47,153.89 129.12,154.18C128.772,154.475 128.397,154.736 128,154.96C124.806,156.814 121.201,157.844 117.51,157.96C113.79,158.153 110.061,157.905 106.4,157.22C104.56,156.9 102.74,156.49 100.92,156.07C99.109,155.678 97.348,155.084 95.67,154.3C95.093,154.008 94.522,153.703 93.958,153.388C95.485,153.169 97.028,153.083 98.57,153.13C100.321,153.134 102.063,153.373 103.75,153.84C107.262,154.668 110.882,154.948 114.48,154.67C116.272,154.582 118.058,154.398 119.83,154.12C121.64,153.866 123.408,153.376 125.09,152.66C128.039,151.101 131.041,149.734 134.087,148.412C133.946,148.633 133.802,148.853 133.66,149.08ZM63.69,189.2C64.891,190.599 66.231,191.873 67.69,193C66.771,191.403 65.685,189.908 64.45,188.54C63.249,187.144 61.909,185.874 60.45,184.75C61.379,186.338 62.464,187.829 63.69,189.2ZM194.24,214.04C194.321,217.145 194.601,220.241 195.08,223.31C196.183,229.426 197.916,235.411 200.25,241.17C202.51,246.93 205.08,252.57 207.51,258.24C208.865,260.998 209.873,263.914 210.51,266.92C210.75,268.422 210.513,269.961 209.83,271.32C209.122,272.707 208.234,273.995 207.19,275.15C208.291,274.052 209.23,272.803 209.98,271.44C210.759,270.047 211.084,268.446 210.91,266.86C210.367,263.787 209.443,260.794 208.16,257.95C205.92,252.2 203.37,246.56 201.16,240.81C198.818,235.115 197.029,229.208 195.82,223.17C195.264,220.142 194.893,217.083 194.71,214.01C194.44,210.93 194.19,207.85 193.88,204.77C193.97,207.86 194.11,210.95 194.24,214.04ZM146.96,284.82C146.96,280.41 146.89,276.01 146.74,271.6C146.59,267.19 146.46,262.79 146.22,258.39C145.98,253.99 145.66,249.59 145.42,245.19C145.198,241.12 145.07,237.042 144.965,232.964C147.091,236.609 149.097,240.351 151,244.12C153.05,248.18 155.01,252.32 156.76,256.51C158.51,260.7 160.19,264.91 161.76,269.22C163.33,273.53 164.78,277.85 166.14,282.22L166.23,282.22C165.18,277.77 163.95,273.37 162.51,269.02C161.07,264.67 159.43,260.39 157.67,256.16C155.91,251.93 153.91,247.8 151.79,243.74C149.687,239.713 147.388,235.794 144.94,231.974C144.94,231.972 144.94,231.971 144.94,231.97L144.938,231.971C144.919,231.94 144.899,231.91 144.88,231.88L144.34,231.05L144.4,232.05C144.67,236.45 144.89,240.85 145.04,245.26C145.19,249.67 145.23,254.07 145.36,258.48C145.49,262.89 145.7,267.29 145.95,271.69C146.2,276.09 146.47,280.49 146.83,284.89L146.96,284.82ZM72.93,98.31C73.351,97.626 73.914,97.039 74.58,96.59C74.898,96.357 75.232,96.146 75.58,95.96L76.11,95.69L76.67,95.5C77.559,95.158 78.507,95.104 79.43,95.278C78.825,95.637 78.42,96.296 78.42,97.05C78.42,97.413 78.514,97.755 78.679,98.051C78.594,98.044 78.507,98.04 78.42,98.04C76.763,98.04 75.42,99.383 75.42,101.04C75.42,102.697 76.763,104.04 78.42,104.04C80.077,104.04 81.42,102.697 81.42,101.04C81.42,100.299 81.151,99.621 80.706,99.098C81.738,98.985 82.54,98.111 82.54,97.05C82.54,96.97 82.535,96.891 82.527,96.813C83.339,97.521 83.989,98.418 84.36,99.42C84.904,101.02 84.756,102.774 83.95,104.26C83.081,105.68 81.693,106.706 80.08,107.12C78.522,107.549 76.863,107.407 75.4,106.72C73.838,106.047 72.64,104.736 72.11,103.12C71.696,101.473 71.994,99.727 72.93,98.31ZM75.07,107.24C76.617,108.269 78.56,108.507 80.31,107.88C81.995,107.234 83.38,105.987 84.2,104.38C85.015,102.801 85.249,100.984 84.86,99.25C84.774,98.805 84.626,98.374 84.42,97.97C84.221,97.562 83.969,97.182 83.67,96.84C83.112,96.134 82.435,95.532 81.67,95.06C80.077,94.049 78.107,93.828 76.33,94.46L75.68,94.71L75.08,95.04C74.683,95.257 74.308,95.512 73.96,95.8C73.239,96.373 72.674,97.12 72.32,97.97C71.632,99.601 71.523,101.418 72.01,103.12C72.516,104.809 73.599,106.267 75.07,107.24ZM115.2,79.84C115.525,79.133 115.995,78.503 116.58,77.99C116.871,77.727 117.178,77.484 117.5,77.26L117.98,76.93L118.5,76.68C119.321,76.242 120.235,76.078 121.15,76.138C120.67,76.503 120.36,77.08 120.36,77.73C120.36,78.172 120.503,78.581 120.746,78.912C119.182,78.966 117.93,80.252 117.93,81.83C117.93,83.443 119.237,84.75 120.85,84.75C122.463,84.75 123.77,83.443 123.77,81.83C123.77,80.977 123.405,80.21 122.822,79.676C123.704,79.468 124.36,78.676 124.36,77.73C124.36,77.561 124.339,77.397 124.3,77.24C125.172,77.826 125.911,78.615 126.39,79.54C127.107,81.019 127.172,82.731 126.57,84.26C125.903,85.734 124.686,86.889 123.18,87.48C121.731,88.084 120.113,88.148 118.62,87.66C117.031,87.197 115.717,86.076 115.01,84.58C114.405,83.043 114.474,81.323 115.2,79.84ZM114.92,84.62C115.636,86.168 116.871,87.416 118.41,88.15C120.023,88.965 121.927,88.965 123.54,88.15C125.09,87.327 126.28,85.959 126.88,84.31C127.465,82.695 127.465,80.925 126.88,79.31C126.602,78.468 126.109,77.713 125.45,77.12C124.821,76.511 124.09,76.017 123.29,75.66C121.629,74.879 119.702,74.901 118.06,75.72C117.86,75.82 117.66,75.92 117.47,76.04L116.93,76.42C116.565,76.675 116.229,76.97 115.93,77.3C115.296,77.931 114.837,78.717 114.6,79.58C114.138,81.235 114.251,82.997 114.92,84.58L114.92,84.62Z" style="fill:none;fill-rule:nonzero;stroke:black;stroke-width:1.99px;"/>
                    </g>
                    <g transform="matrix(1,0,0,1,169.753,7.41593)">
                        <path d="M46.55,18.98C46.55,18.98 54.24,23.92 60.55,35.49C60.55,35.49 49.06,42.21 45.02,48.04C45.02,48.04 60.88,49.57 72.94,54.99C85,60.41 87.74,61.39 88.63,61.47C89.52,61.55 96,41.47 96.97,33.55C97.94,25.63 98.26,24.81 92.97,25.62C87.68,26.43 81.56,27.97 81.56,27.97C81.56,27.97 74.31,13.12 67.35,12.43C60.39,11.74 46.55,18.98 46.55,18.98Z" style="fill:rgb(157,180,206);fill-rule:nonzero;"/>
                    </g>
                </g>
            </g>
        </g>
        <g id="_-9db4ce" serif:id="#9db4ce">
        </g>
        <g transform="matrix(21.8295,0,0,21.8295,-3696.18,-1601.41)">
            <path d="M202.342,84.36L203.662,84.264L203.662,75.624L202.342,75.72L202.342,79.332L197.662,79.332L197.662,75.624L196.342,75.72L196.342,84.36L197.662,84.264L197.662,80.46L202.342,80.46L202.342,84.36Z" style="fill-rule:nonzero;"/>
            <path d="M209.23,81C208.974,80.52 208.668,80.164 208.312,79.932C207.956,79.7 207.522,79.584 207.01,79.584C206.714,79.584 206.424,79.638 206.14,79.746C205.856,79.854 205.602,80.012 205.378,80.22C205.154,80.428 204.976,80.678 204.844,80.97C204.712,81.262 204.646,81.584 204.646,81.936C204.646,82.704 204.876,83.316 205.336,83.772C205.796,84.228 206.382,84.456 207.094,84.456C207.462,84.456 207.796,84.4 208.096,84.288C208.396,84.176 208.662,83.996 208.894,83.748L208.462,82.728C208.23,82.984 208.01,83.168 207.802,83.28C207.594,83.392 207.366,83.448 207.118,83.448C206.726,83.448 206.406,83.292 206.158,82.98L209.23,81ZM205.822,82.14C205.79,82.068 205.774,81.98 205.774,81.876C205.774,81.5 205.904,81.192 206.164,80.952C206.424,80.712 206.682,80.592 206.938,80.592C207.25,80.592 207.53,80.676 207.778,80.844L205.822,82.14Z" style="fill-rule:nonzero;"/>
            <path d="M212.17,81.564C211.898,81.284 211.538,81.144 211.09,81.144C210.666,81.144 210.3,81.294 209.992,81.594C209.684,81.894 209.53,82.292 209.53,82.788C209.53,83.3 209.666,83.706 209.938,84.006C210.21,84.306 210.582,84.456 211.054,84.456C211.342,84.456 211.586,84.408 211.786,84.312C211.986,84.216 212.122,84.068 212.194,83.868L212.218,83.868L212.218,84.36L213.298,84.264L213.298,80.844C213.298,80.42 213.158,80.12 212.878,79.944C212.598,79.768 212.138,79.68 211.498,79.68C211.226,79.68 210.878,79.708 210.454,79.764L210.13,80.844C210.186,80.836 210.262,80.82 210.358,80.796C210.774,80.724 211.074,80.688 211.258,80.688C211.602,80.688 211.84,80.73 211.972,80.814C212.104,80.898 212.17,81.032 212.17,81.216L212.17,81.564ZM210.706,82.8C210.706,82.624 210.772,82.484 210.904,82.38C211.036,82.276 211.214,82.224 211.438,82.224C211.662,82.224 211.84,82.276 211.972,82.38C212.104,82.484 212.17,82.624 212.17,82.8C212.17,83.232 211.926,83.448 211.438,83.448C210.95,83.448 210.706,83.232 210.706,82.8Z" style="fill-rule:nonzero;"/>
            <path d="M214.402,79.776L214.402,84.36L215.578,84.264L215.578,81.888C215.578,81.496 215.658,81.21 215.818,81.03C215.978,80.85 216.25,80.76 216.634,80.76L216.898,80.76L216.898,79.584C216.618,79.584 216.366,79.634 216.142,79.734C215.918,79.834 215.738,79.972 215.602,80.148L215.578,80.148L215.578,79.68L214.402,79.776Z" style="fill-rule:nonzero;"/>
            <path d="M217.042,80.808L217.486,80.808L217.486,82.836C217.486,83.356 217.652,83.74 217.984,83.988C218.316,84.236 218.778,84.36 219.37,84.36L219.622,84.36L219.622,83.28L219.454,83.28C219.198,83.28 219.002,83.212 218.866,83.076C218.73,82.94 218.662,82.724 218.662,82.428L218.662,80.808L219.622,80.808L219.622,79.728L218.662,79.728L218.662,77.7L217.486,78.276L217.486,79.728L217.042,79.728L217.042,80.808Z" style="fill-rule:nonzero;"/>
            <path d="M196.342,96.312L198.874,96.312C199.65,96.312 200.29,96.094 200.794,95.658C201.298,95.222 201.55,94.628 201.55,93.876C201.55,93.396 201.424,92.984 201.172,92.64C200.92,92.296 200.558,92.056 200.086,91.92L200.086,91.896C200.502,91.76 200.838,91.52 201.094,91.176C201.35,90.832 201.478,90.404 201.478,89.892C201.478,89.204 201.242,88.662 200.77,88.266C200.298,87.87 199.618,87.672 198.73,87.672L196.342,87.672L196.342,96.312ZM197.662,92.46L198.49,92.46C199.026,92.46 199.45,92.586 199.762,92.838C200.074,93.09 200.23,93.432 200.23,93.864C200.23,94.28 200.104,94.612 199.852,94.86C199.6,95.108 199.226,95.232 198.73,95.232L197.662,95.232L197.662,92.46ZM197.662,88.752L198.946,88.752C199.282,88.752 199.568,88.864 199.804,89.088C200.04,89.312 200.158,89.592 200.158,89.928C200.158,90.376 200.01,90.742 199.714,91.026C199.418,91.31 199.022,91.452 198.526,91.452L197.662,91.452L197.662,88.752Z" style="fill-rule:nonzero;"/>
            <path d="M206.794,93C206.538,92.52 206.232,92.164 205.876,91.932C205.52,91.7 205.086,91.584 204.574,91.584C204.278,91.584 203.988,91.638 203.704,91.746C203.42,91.854 203.166,92.012 202.942,92.22C202.718,92.428 202.54,92.678 202.408,92.97C202.276,93.262 202.21,93.584 202.21,93.936C202.21,94.704 202.44,95.316 202.9,95.772C203.36,96.228 203.946,96.456 204.658,96.456C205.026,96.456 205.36,96.4 205.66,96.288C205.96,96.176 206.226,95.996 206.458,95.748L206.026,94.728C205.794,94.984 205.574,95.168 205.366,95.28C205.158,95.392 204.93,95.448 204.682,95.448C204.29,95.448 203.97,95.292 203.722,94.98L206.794,93ZM203.386,94.14C203.354,94.068 203.338,93.98 203.338,93.876C203.338,93.5 203.468,93.192 203.728,92.952C203.988,92.712 204.246,92.592 204.502,92.592C204.814,92.592 205.094,92.676 205.342,92.844L203.386,94.14Z" style="fill-rule:nonzero;"/>
            <path d="M207.298,96.36L208.474,96.264L208.474,93.804C208.474,93.492 208.544,93.24 208.684,93.048C208.824,92.856 209.006,92.76 209.23,92.76C209.726,92.76 209.974,93.076 209.974,93.708L209.974,96.36L211.15,96.264L211.15,92.988C211.15,92.564 211.008,92.224 210.724,91.968C210.44,91.712 210.086,91.584 209.662,91.584C209.414,91.584 209.192,91.636 208.996,91.74C208.8,91.844 208.634,92.02 208.498,92.268L208.474,92.268L208.474,91.68L207.298,91.776L207.298,96.36Z" style="fill-rule:nonzero;"/>
            <path d="M215.974,92.256C215.59,91.808 215.078,91.584 214.438,91.584C213.734,91.584 213.148,91.798 212.68,92.226C212.212,92.654 211.978,93.252 211.978,94.02C211.978,94.788 212.212,95.386 212.68,95.814C213.148,96.242 213.734,96.456 214.438,96.456C214.766,96.456 215.046,96.418 215.278,96.342C215.51,96.266 215.742,96.12 215.974,95.904L215.974,96.36L217.15,96.264L217.15,87.624L215.974,87.72L215.974,92.256ZM215.974,94.02C215.974,94.412 215.844,94.736 215.584,94.992C215.324,95.248 214.99,95.376 214.582,95.376C214.158,95.376 213.814,95.248 213.55,94.992C213.286,94.736 213.154,94.412 213.154,94.02C213.154,93.628 213.286,93.304 213.55,93.048C213.814,92.792 214.158,92.664 214.582,92.664C214.99,92.664 215.324,92.792 215.584,93.048C215.844,93.304 215.974,93.628 215.974,94.02Z" style="fill-rule:nonzero;"/>
            <path d="M222.562,93C222.306,92.52 222,92.164 221.644,91.932C221.288,91.7 220.854,91.584 220.342,91.584C220.046,91.584 219.756,91.638 219.472,91.746C219.188,91.854 218.934,92.012 218.71,92.22C218.486,92.428 218.308,92.678 218.176,92.97C218.044,93.262 217.978,93.584 217.978,93.936C217.978,94.704 218.208,95.316 218.668,95.772C219.128,96.228 219.714,96.456 220.426,96.456C220.794,96.456 221.128,96.4 221.428,96.288C221.728,96.176 221.994,95.996 222.226,95.748L221.794,94.728C221.562,94.984 221.342,95.168 221.134,95.28C220.926,95.392 220.698,95.448 220.45,95.448C220.058,95.448 219.738,95.292 219.49,94.98L222.562,93ZM219.154,94.14C219.122,94.068 219.106,93.98 219.106,93.876C219.106,93.5 219.236,93.192 219.496,92.952C219.756,92.712 220.014,92.592 220.27,92.592C220.582,92.592 220.862,92.676 221.11,92.844L219.154,94.14Z" style="fill-rule:nonzero;"/>
            <path d="M223.066,91.776L223.066,96.36L224.242,96.264L224.242,93.888C224.242,93.496 224.322,93.21 224.482,93.03C224.642,92.85 224.914,92.76 225.298,92.76L225.562,92.76L225.562,91.584C225.282,91.584 225.03,91.634 224.806,91.734C224.582,91.834 224.402,91.972 224.266,92.148L224.242,92.148L224.242,91.68L223.066,91.776Z" style="fill-rule:nonzero;"/>
        </g>
        <g transform="matrix(1.24632,0,0,2.88029,-0.764669,-8.31037)">
            <rect x="3.104" y="4.42" width="995.247" height="540.904" style="fill:rgb(235,235,235);"/>
        </g>
    </g>
</svg>
