<?xml version="1.0" encoding="UTF-8" standalone="no"?>
<!DOCTYPE svg PUBLIC "-//W3C//DTD SVG 1.1//EN" "http://www.w3.org/Graphics/SVG/1.1/DTD/svg11.dtd">
<svg width="100%" height="100%" viewBox="0 0 300 300" version="1.1" xmlns="http://www.w3.org/2000/svg" xmlns:xlink="http://www.w3.org/1999/xlink" xml:space="preserve" xmlns:serif="http://www.serif.com/" style="fill-rule:evenodd;clip-rule:evenodd;stroke-linecap:round;stroke-linejoin:round;stroke-miterlimit:1.5;">
    <g transform="matrix(1.04205,0,0,1.08106,-6.91503,10.7292)">
        <path d="M244.54,263C243.04,263.002 241.543,262.861 240.07,262.58C230.234,260.48 222.323,253.112 219.53,243.45C218.6,245.538 218.789,247.961 220.03,249.88C220.146,250.047 220.208,250.246 220.208,250.45C220.208,250.999 219.757,251.45 219.208,251.45C219.206,251.45 219.203,251.45 219.2,251.45C219.028,251.449 218.859,251.405 218.71,251.32C215.027,249.211 212.36,245.687 211.33,241.57C210.535,238.086 211.018,234.429 212.69,231.27C208.994,230.887 205.811,228.456 204.47,224.99C204.433,224.884 204.414,224.772 204.414,224.66C204.414,224.111 204.865,223.66 205.414,223.66C205.416,223.66 205.418,223.66 205.42,223.66C205.493,223.651 205.567,223.651 205.64,223.66C206.182,223.781 206.735,223.842 207.29,223.84C209.65,223.725 211.932,222.957 213.88,221.62C215.148,220.772 216.357,219.84 217.5,218.83C218.626,217.846 219.808,216.928 221.04,216.08C221.097,215.737 221.19,215.402 221.32,215.08L221.39,214.92C224.72,206.02 233.27,200.51 239.86,197.46C243.46,195.79 247.23,194.46 250.86,193.1C255.096,191.674 259.247,190.005 263.29,188.1C264.91,187.3 266.62,186.26 267.03,184.68C267.44,183.1 266.3,181.28 265.57,180.4C262.57,176.81 257.9,175.24 253.37,173.72C244.32,177.518 234.642,179.6 224.83,179.86L223.33,179.86C217.398,179.766 211.483,179.201 205.64,178.17C199.331,177.219 193.086,175.884 186.94,174.17C185.429,177.286 183.4,180.123 180.94,182.56L180.77,182.73C177.921,185.865 174.274,188.171 170.22,189.4C168.132,189.977 165.976,190.266 163.81,190.26C162.285,190.244 160.763,190.14 159.25,189.95C152.17,189.16 144.57,188.5 136.03,187.95C134.016,188.79 131.956,189.515 129.86,190.12C125.843,191.262 121.71,191.953 117.54,192.18C111.24,192.59 104.82,192.8 98.45,192.8C95.87,192.8 93.26,192.8 90.69,192.7C73.55,192.25 62.21,191.7 49.25,188.02C33.89,183.65 21.9,176.69 13.61,167.33C13.423,167.116 13.335,166.832 13.37,166.55C13.404,166.262 13.561,166.003 13.8,165.84C17.431,163.442 20.632,160.451 23.27,156.99C19.638,155.234 16.362,152.82 13.61,149.87C13.427,149.683 13.324,149.432 13.324,149.17C13.324,148.623 13.773,148.172 14.32,148.17L14.53,148.17C15.99,148.48 17.478,148.634 18.97,148.63C23.701,148.627 28.314,147.144 32.16,144.39C37.229,140.687 40.62,135.114 41.58,128.91C41.922,126.181 42.039,123.428 41.93,120.68C41.803,117.727 41.94,114.769 42.34,111.84C43.54,104.67 47.87,97.61 55.59,90.25C60.592,85.731 66.025,81.711 71.81,78.25C73.556,57.101 89.313,39.585 110.16,35.62C113.243,35.043 116.373,34.755 119.51,34.76C128.493,34.901 137.359,36.828 145.59,40.43C156.42,44.97 166.15,51.51 175.98,58.43C177.886,57.763 179.891,57.425 181.91,57.43C186.244,57.542 190.507,58.564 194.42,60.43C197.06,61.63 199.61,63.08 202.07,64.43C204.894,66.124 207.816,67.65 210.82,69C215.816,71.071 221.172,72.138 226.58,72.14C230.168,72.132 233.739,71.647 237.2,70.7L237.46,70.7C237.672,70.699 237.878,70.766 238.05,70.89C238.299,71.06 238.451,71.339 238.46,71.64C238.94,81.14 236.54,90.23 231.7,97.23C231.361,97.731 231.047,98.248 230.76,98.78C242.2,103.15 251.52,111.52 257.76,123.07C263.887,134.523 265.691,147.808 262.84,160.48L263.67,161.07C272.04,167.07 280.67,173.21 285.53,182.49C287.62,186.49 288.11,189.98 286.99,192.82C285.37,196.91 280.99,198.74 276.93,200.14L243.73,211.67C240.13,212.92 236.1,214.32 233.24,217.06C234.226,217.713 235.147,218.46 235.99,219.29C236.6,219.85 237.23,220.43 237.91,220.94C239.226,221.894 240.815,222.399 242.44,222.38C244.587,222.419 246.657,221.563 248.15,220.02C248.341,219.814 248.609,219.698 248.89,219.7C249.047,219.697 249.202,219.735 249.34,219.81C249.741,220.012 249.958,220.46 249.87,220.9C249.355,223.332 248.096,225.544 246.27,227.23C250.262,228.15 253.839,230.366 256.44,233.53C257.228,234.544 257.963,235.599 258.64,236.69C259.548,238.242 260.639,239.679 261.89,240.97C263.501,242.37 265.547,243.172 267.68,243.24C268.546,243.278 269.4,243.021 270.1,242.51C270.278,242.357 270.505,242.272 270.74,242.27C270.98,242.273 271.21,242.362 271.39,242.52C271.76,242.839 271.845,243.384 271.59,243.8C270.348,245.817 268.811,247.638 267.03,249.2C267.208,249.509 267.208,249.891 267.03,250.2C262.293,258.097 253.749,262.96 244.54,263Z" style="fill:rgb(181,31,74);fill-rule:nonzero;"/>
    </g>
    <g transform="matrix(1.04205,0,0,1.08106,-6.91503,10.7292)">
        <path d="M119.53,35.68C128.378,35.832 137.109,37.732 145.22,41.27C156.22,45.87 166.12,52.6 175.85,59.43C177.794,58.705 179.855,58.343 181.93,58.36C186.126,58.501 190.245,59.523 194.02,61.36C199.64,63.92 204.74,67.54 210.43,69.93C218.986,73.485 228.482,74.111 237.43,71.71C237.88,80.48 235.85,89.44 230.85,96.71C230.279,97.565 229.764,98.457 229.31,99.38C241.41,103.67 250.75,112.3 256.86,123.6C262.983,135.037 264.699,148.333 261.68,160.95C270.45,167.22 279.68,173.44 284.61,182.95C286.14,185.88 287.24,189.38 286.03,192.45C284.56,196.17 280.35,197.88 276.58,199.19L243.4,210.7C239.09,212.19 234.58,213.83 231.62,217.29C233.91,218.29 235.3,220.21 237.31,221.71C238.799,222.794 240.599,223.369 242.44,223.35C244.866,223.38 247.2,222.41 248.89,220.67C248.256,223.635 246.424,226.21 243.83,227.78C248.453,228.261 252.705,230.543 255.66,234.13C257.66,236.56 258.94,239.52 261.21,241.67C263.004,243.245 265.294,244.144 267.68,244.21C268.786,244.251 269.871,243.896 270.74,243.21C268.536,246.798 265.374,249.701 261.61,251.59L266.19,249.68C261.617,257.269 253.4,261.945 244.54,262C243.101,262.002 241.664,261.868 240.25,261.6C230.3,259.71 221.54,250.96 220.03,240.94C217.61,243.535 217.266,247.475 219.2,250.45C215.754,248.479 213.259,245.182 212.3,241.33C211.444,237.506 212.216,233.493 214.43,230.26C214.13,230.26 213.83,230.31 213.54,230.31C209.938,230.263 206.71,228.014 205.42,224.65C206.033,224.794 206.661,224.865 207.29,224.86C209.838,224.742 212.303,223.918 214.41,222.48C217.09,220.79 219.27,218.38 221.95,216.7C222.002,216.224 222.127,215.758 222.32,215.32C225.32,207.42 232.63,201.96 240.32,198.41C248.01,194.86 256.25,192.77 263.8,189.01C265.61,188.1 267.55,186.9 268.06,184.94C268.57,182.98 267.6,181.21 266.39,179.76C263.14,175.86 258.17,174.27 253.39,172.65C244.36,176.501 234.683,178.608 224.87,178.86L223.3,178.86C217.422,178.761 211.561,178.203 205.77,177.19C199.223,176.185 192.747,174.765 186.38,172.94C184.888,176.242 182.811,179.247 180.25,181.81C178.56,183.5 175.25,186.98 169.98,188.4C167.977,188.951 165.908,189.227 163.83,189.22C162.342,189.201 160.857,189.101 159.38,188.92C153.94,188.31 146.3,187.57 135.88,186.92C133.834,187.784 131.737,188.523 129.6,189.13C125.657,190.245 121.602,190.916 117.51,191.13C112.51,191.45 106.07,191.74 98.51,191.74C96.05,191.74 93.51,191.74 90.77,191.64C73.28,191.18 62.26,190.64 49.58,187C36.25,183.2 23.58,177 14.42,166.61C18.494,163.92 22.031,160.495 24.85,156.51C20.886,154.793 17.321,152.273 14.38,149.11C15.909,149.429 17.468,149.59 19.03,149.59C23.969,149.584 28.784,148.035 32.8,145.16C38.066,141.278 41.587,135.465 42.59,129C43.46,123.37 42.41,117.57 43.35,111.95C44.73,103.68 50.24,96.7 56.3,90.95C61.375,86.342 66.899,82.255 72.79,78.75C74.285,57.845 89.78,40.432 110.37,36.52C113.391,35.956 116.457,35.675 119.53,35.68M119.52,33.71C116.323,33.701 113.132,33.996 109.99,34.59C88.894,38.606 72.879,56.21 70.87,77.59C65.164,81.022 59.806,85.001 54.87,89.47C47,97 42.61,104.22 41.38,111.61C40.965,114.591 40.821,117.603 40.95,120.61C41.056,123.301 40.942,125.997 40.61,128.67C39.671,134.6 36.437,139.93 31.61,143.5C27.933,146.133 23.523,147.553 19,147.56C17.579,147.561 16.161,147.413 14.77,147.12C14.63,147.105 14.49,147.105 14.35,147.12C14.349,147.12 14.349,147.12 14.348,147.12C13.251,147.12 12.348,148.023 12.348,149.12C12.348,149.648 12.558,150.155 12.93,150.53C15.497,153.239 18.478,155.524 21.76,157.3C19.315,160.257 16.452,162.841 13.26,164.97C12.79,165.294 12.48,165.804 12.41,166.37C12.338,166.938 12.513,167.51 12.89,167.94C21.31,177.45 33.45,184.51 49,188.94C62.08,192.67 73.48,193.21 90.69,193.66C93.27,193.72 95.89,193.76 98.48,193.76C104.87,193.76 111.32,193.55 117.65,193.14C121.885,192.908 126.081,192.204 130.16,191.04C132.22,190.446 134.246,189.742 136.23,188.93C144.66,189.49 152.17,190.15 159.16,190.93C160.713,191.12 162.275,191.224 163.84,191.24C170.581,191.328 177.035,188.47 181.5,183.42L181.67,183.25C184,180.931 185.953,178.262 187.46,175.34C193.381,176.966 199.391,178.248 205.46,179.18C211.349,180.216 217.311,180.785 223.29,180.88L224.82,180.88C234.629,180.621 244.307,178.56 253.37,174.8C257.86,176.31 262.07,177.8 264.81,181.06C265.3,181.65 266.41,183.17 266.07,184.45C265.73,185.73 264.19,186.57 262.86,187.24C258.849,189.14 254.732,190.81 250.53,192.24C246.86,193.57 243.07,194.94 239.43,196.63C229.74,201.12 223.17,207.35 220.43,214.63L220.37,214.79C220.273,215.024 220.193,215.265 220.13,215.51C218.99,216.314 217.892,217.175 216.84,218.09C215.73,219.072 214.554,219.978 213.32,220.8C211.536,222.04 209.44,222.757 207.27,222.87C206.789,222.873 206.309,222.819 205.84,222.71C205.694,222.696 205.546,222.696 205.4,222.71C204.826,222.711 204.279,222.959 203.9,223.39C203.415,223.935 203.266,224.703 203.51,225.39C204.808,228.759 207.695,231.275 211.21,232.1C209.887,235.177 209.579,238.596 210.33,241.86C211.43,246.248 214.274,250.003 218.2,252.25C218.503,252.426 218.849,252.516 219.2,252.51C220.297,252.509 221.199,251.607 221.199,250.51C221.199,250.289 221.162,250.069 221.09,249.86C225.101,256.914 231.944,261.925 239.88,263.62C241.416,263.913 242.976,264.06 244.54,264.06C254.069,264.034 262.924,259.035 267.87,250.89C268.078,250.568 268.189,250.193 268.19,249.81L268.19,249.59C269.825,248.081 271.245,246.355 272.41,244.46C272.632,244.129 272.751,243.739 272.75,243.34C272.75,242.243 271.847,241.34 270.75,241.34L270.68,241.34C270.229,241.353 269.795,241.519 269.45,241.81C268.929,242.161 268.307,242.333 267.68,242.3C265.803,242.23 264.004,241.524 262.58,240.3C261.39,239.06 260.349,237.683 259.48,236.2C258.785,235.081 258.03,233.999 257.22,232.96C254.854,230.06 251.696,227.909 248.13,226.77C249.48,225.146 250.413,223.216 250.85,221.15C251.037,220.284 250.628,219.393 249.85,218.97C249.568,218.826 249.256,218.75 248.94,218.75C248.382,218.749 247.849,218.981 247.47,219.39C246.147,220.712 244.339,221.435 242.47,221.39C241.061,221.409 239.683,220.974 238.54,220.15C237.9,219.67 237.32,219.15 236.7,218.57C236.08,217.99 235.54,217.49 234.89,216.99C237.52,214.91 240.97,213.71 244.09,212.63L277.29,201.09C281.52,199.62 286.18,197.68 287.95,193.2C289.18,190.07 288.67,186.32 286.44,182.03C281.51,172.55 272.75,166.31 264.28,160.27L264,160C266.697,147.283 264.812,134.013 258.68,122.55C252.53,111.15 243.42,102.79 232.25,98.23C232.35,98.06 232.46,97.89 232.56,97.75C237.56,90.57 239.99,81.26 239.5,71.54C239.468,70.939 239.166,70.384 238.68,70.03C238.337,69.782 237.924,69.648 237.5,69.65C237.324,69.649 237.149,69.672 236.98,69.72C233.603,70.634 230.119,71.094 226.62,71.09C221.346,71.09 216.122,70.05 211.25,68.03C208.289,66.719 205.411,65.229 202.63,63.57C200.14,62.16 197.57,60.7 194.89,59.48C190.852,57.537 186.449,56.467 181.97,56.34C180.015,56.329 178.069,56.616 176.2,57.19C166.47,50.37 156.8,43.92 146.03,39.41C137.681,35.752 128.684,33.797 119.57,33.66L119.52,33.71ZM220.68,249C220.58,248.829 220.49,248.652 220.41,248.47L220.68,249Z" style="fill:rgb(181,31,74);fill-rule:nonzero;"/>
    </g>
    <g transform="matrix(1.04205,0,0,1.08106,-6.91503,10.7292)">
        <path d="M175.24,167.81C173.5,168.719 171.867,169.82 170.37,171.09C170.36,171.214 170.254,171.31 170.13,171.31C170.048,171.373 169.932,171.373 169.85,171.31C167.26,171.18 164.74,171.01 162.29,172.07C159.84,173.13 157.12,176.23 159.68,178.6C163,181.67 170.325,180.72 174.625,180.56C175.938,178.895 175.96,178.54 177.16,177.18C178.697,175.514 179.857,173.535 180.56,171.38C181.69,167.33 178.36,166.29 175.24,167.81Z" style="fill:rgb(137,46,66);fill-rule:nonzero;"/>
    </g>
    <g transform="matrix(1.04205,0,0,1.08106,-6.91503,10.7292)">
        <path d="M185.9,164.67C185.02,159.39 182.26,155.67 177.2,153.97C177.111,154 177.018,154.015 176.924,154.015C176.452,154.015 176.064,153.627 176.064,153.155C176.064,153.072 176.076,152.99 176.1,152.91C180.93,135.06 172.01,115.05 152.1,113.53C142.84,112.82 131.99,116.89 125.68,123.75C121.6,128.18 119.33,133.69 118.12,139.51C117.12,144.37 117.68,148.8 117.28,153.61C117.269,153.706 117.245,153.8 117.21,153.89C122.48,155.48 127.5,158.09 130.57,162.43C133.77,166.99 132.34,170.21 129.21,172.35C131.21,172.47 133.53,173.15 134.42,174.67C135.045,175.532 134.986,176.723 134.28,177.52C133.28,178.6 131.88,177.76 130.87,178.52C127.7,180.89 133.76,180.88 134.49,181.14C135.685,181.573 136.667,182.451 137.23,183.59C137.707,184.65 137.829,185.835 137.58,186.97C147.15,187.63 154.27,188.32 159.42,188.9C162.952,189.445 166.558,189.268 170.02,188.38C171.378,188.009 172.687,187.479 173.92,186.8L173.92,182.99C168.97,183.99 157.64,183.41 156.52,177.34C155.32,170.77 165.45,167.41 170.03,170.68C172.03,167.95 176.54,163.83 179.96,165.11C180.884,165.487 181.656,166.163 182.15,167.03C183.96,170.27 181.25,176.09 175.73,181.64C175.73,182.31 175.82,182.98 175.87,183.64L175.99,185.49C177.523,184.386 178.953,183.144 180.26,181.78C181.766,180.296 183.108,178.653 184.26,176.88C185.64,172.93 186.66,169.2 185.9,164.67ZM143.9,143.03C142.25,144.74 138.11,145.19 136.34,143.42C135.754,142.833 135.424,142.037 135.424,141.208C135.424,140.331 135.793,139.493 136.44,138.9C137.764,137.782 139.541,137.352 141.23,137.74C143.53,138.24 146.08,140.8 143.92,143L143.9,143.03ZM169.62,139.36C168.13,140.81 164.97,141.06 163.43,139.56C162.13,138.28 162.84,136.68 164.04,135.69C165.202,134.568 166.856,134.109 168.43,134.47C170.94,135.05 171.37,137.67 169.64,139.36L169.62,139.36Z" style="fill:rgb(249,147,168);fill-rule:nonzero;"/>
    </g>
    <g transform="matrix(1.04205,0,0,1.08106,-6.91503,10.7292)">
        <path d="M118.92,93.06C114.72,90.66 110.29,92.99 107.06,95.82C101.95,100.32 99.71,106.4 97.92,112.71C100.505,112.288 103.159,112.716 105.48,113.93C105.81,109.71 107.57,105.47 111,103.21C114.73,100.75 118,103.04 118.91,106.46C120.178,104.753 121.843,103.38 123.76,102.46C123.14,98.81 122.65,95.2 118.92,93.06Z" style="fill:rgb(249,147,168);fill-rule:nonzero;"/>
    </g>
    <g transform="matrix(1.04205,0,0,1.08106,-6.91503,10.7292)">
        <path d="M178.6,101C179.41,103.3 178.38,105.49 176.6,107.14C179.96,106.51 183.6,107.02 186.01,109.39C189.15,112.47 188.2,116.58 185.78,119.62C187.136,120.079 188.351,120.878 189.31,121.94C197.69,119.87 201.07,112.78 194.62,106.34C190.471,102.062 184.486,100.067 178.6,101Z" style="fill:rgb(249,147,168);fill-rule:nonzero;"/>
    </g>
    <g transform="matrix(1.04205,0,0,1.08106,-6.91503,10.7292)">
        <path d="M237.46,71.67C228.511,74.065 219.017,73.439 210.46,69.89C204.77,67.5 199.67,63.89 194.05,61.32C190.003,59.348 185.552,58.344 181.05,58.39C176.457,59.106 171.977,60.413 167.72,62.28C161,65.45 154.29,69 148.64,73.86C148.615,73.875 148.586,73.884 148.556,73.884C148.469,73.884 148.396,73.811 148.396,73.724C148.396,73.694 148.405,73.665 148.42,73.64C155.266,66.332 163.819,60.834 173.31,57.64C164.39,51.43 155.24,45.45 145.22,41.25C134.22,36.65 122.05,34.25 110.37,36.5C93.579,39.676 79.866,51.916 74.81,68.24C73.918,72.474 73.383,76.776 73.21,81.1C73.02,89.33 72.21,97.49 71.86,105.7C71.86,105.8 71.7,105.8 71.7,105.7C71.36,97.36 70.51,88.7 70.7,80.07C65.568,83.219 60.746,86.849 56.3,90.91C50.24,96.69 44.73,103.67 43.35,111.91C42.41,117.53 43.46,123.33 42.59,128.96C41.572,135.424 38.036,141.23 32.76,145.1C27.449,148.942 20.766,150.394 14.34,149.1C16.508,151.372 18.974,153.339 21.67,154.95C23.21,155.5 24.76,156.02 26.37,156.48C29.782,157.337 32.935,159.008 35.56,161.35C35.592,161.383 35.609,161.428 35.609,161.474C35.609,161.572 35.528,161.654 35.429,161.654C35.398,161.654 35.367,161.646 35.34,161.63C31.77,159.38 27.75,158.87 23.77,157.94C21.113,161.3 17.944,164.223 14.38,166.6C23.57,177 36.21,183.17 49.54,187C62.22,190.61 73.24,191.18 90.73,191.64C101.73,191.92 110.92,191.55 117.51,191.13C121.602,190.916 125.657,190.245 129.6,189.13C131.598,188.562 133.562,187.877 135.48,187.08C136.1,184.88 134.99,183.08 132.41,182.24C131.945,182.135 131.474,182.055 131,182C129.87,181.74 127.84,181.38 128,179.76C128.12,178.59 129.69,178.05 130.61,177.7C130.98,177.55 131.86,177.51 132.13,177.24C133.65,175.76 131.79,174.54 130.6,174.06C129.628,173.712 128.623,173.468 127.6,173.33C124.806,174.64 121.804,175.452 118.73,175.73C118.41,175.73 118.36,175.26 118.65,175.18C122.06,174.3 129.79,172.42 130.17,167.84C130.45,164.55 126.54,161.03 124.28,159.29C119.47,155.59 113.69,153.74 107.91,152.16C107.83,152.16 107.84,152.01 107.91,152.02C110.481,152.347 113.03,152.835 115.54,153.48C115,147.55 114.69,142.34 116.2,136.43C117.623,130.58 120.626,125.231 124.88,120.97C132.525,113.862 142.814,110.282 153.22,111.11C173.56,113.24 184.35,133.88 178.12,152.58C185.4,153.39 188.56,159.93 188.72,166.89C190.503,164.903 192.044,162.711 193.31,160.36C194.716,157.495 195.78,154.474 196.48,151.36C191.19,154.7 183.74,151.92 180.83,146.67C180.72,146.45 181.02,146.2 181.18,146.4C182.542,148.115 184.4,149.368 186.5,149.99C187.79,141.78 193.19,134.23 197.83,127.55C202.04,121.48 206.83,115.63 213.13,111.69C209.891,111.892 206.688,112.483 203.59,113.45C202.95,113.65 202.23,112.82 202.66,112.25C209.66,103 219.48,98.56 230.36,97.52C230.53,97.22 230.71,96.94 230.88,96.7C235.88,89.4 237.91,80.44 237.46,71.67ZM133.75,111.91C133.55,112.3 133.05,112 133.11,111.63C133.54,108.68 132.96,104.91 129.56,103.98C128.176,103.663 126.725,103.807 125.43,104.39C125.274,104.549 125.063,104.642 124.84,104.65C123.792,105.15 122.817,105.789 121.94,106.55C120.816,107.545 119.809,108.666 118.94,109.89C118.94,110.04 118.88,110.19 118.84,110.34C118.772,110.625 118.539,110.842 118.25,110.89C116.873,113.014 115.752,115.293 114.91,117.68C114.879,117.74 114.817,117.778 114.75,117.778C114.651,117.778 114.57,117.697 114.57,117.598C114.57,117.595 114.57,117.593 114.57,117.59C114.977,114.788 115.796,112.062 117,109.5C116.7,108.08 116.77,106.39 115.8,105.3C113.9,103.14 111.09,106.14 109.96,107.7C108.425,109.923 107.354,112.433 106.81,115.08C106.895,115.426 106.822,115.793 106.61,116.08C106.407,117.233 106.29,118.4 106.26,119.57C106.26,119.669 106.179,119.75 106.08,119.75C105.981,119.75 105.9,119.669 105.9,119.57C105.632,118.508 105.468,117.423 105.41,116.33L105.29,116.26C101.93,113.93 96.19,114.06 93.61,117.57C91.03,121.08 93.21,126.36 95.54,129.32C95.7,129.51 95.54,129.87 95.25,129.7C91.25,126.8 88.69,120.81 91.72,116.31C92.839,114.701 94.478,113.525 96.36,112.98C97.08,104.04 102.26,93.85 110.93,90.47C118.69,87.47 126.27,93.92 125.93,101.65L126.21,101.58C132.42,100.32 136.59,106.5 133.75,111.91ZM190.57,123.82C191.128,124.917 191.221,126.193 190.83,127.36C189.73,130.42 185.83,130.21 183.24,129.81C183.139,129.78 183.069,129.686 183.069,129.58C183.069,129.474 183.139,129.38 183.24,129.35C185.01,129.06 188.1,128.83 188.87,126.89C189.93,124.18 186.75,122.17 184.87,120.66C183.88,121.683 182.715,122.519 181.43,123.13C181.21,123.24 180.92,122.94 181.15,122.76C184.74,119.91 188.8,113.13 183.15,110.07C180.53,108.65 176.59,108.56 173.43,109.2C172.786,109.486 172.116,109.71 171.43,109.87C171.397,109.879 171.363,109.884 171.328,109.884C171.125,109.884 170.958,109.717 170.958,109.514C170.958,109.379 171.032,109.255 171.15,109.19C174.23,107.19 179.61,102.66 174.69,99.19C171.78,97.12 167.07,98.36 164.17,99.86C164.14,99.877 164.105,99.887 164.07,99.887C163.959,99.887 163.868,99.796 163.868,99.685C163.868,99.613 163.907,99.546 163.97,99.51C167.55,96.8 173.97,95.02 177.34,98.98C177.542,99.215 177.729,99.462 177.9,99.72C184.76,96.48 193.9,101.18 198.08,106.8C203.58,114.22 198.7,121.89 190.57,123.82Z" style="fill:rgb(255,200,206);fill-rule:nonzero;"/>
    </g>
    <g transform="matrix(1.04205,0,0,1.08106,-6.91503,10.7292)">
        <path d="M228.319,99.582C216.759,101.098 209.837,107.399 206,111.13C209.204,110.499 212.465,110.204 215.73,110.25C216.066,110.256 216.338,110.534 216.338,110.87C216.338,111.086 216.225,111.288 216.04,111.4C208.9,115.98 203.6,122.77 199.04,129.81C194.9,136.18 190.2,142.75 189.04,150.42C191.634,150.592 194.24,150.481 196.81,150.09C196.9,149.89 197.26,149.88 197.3,150.09C197.306,150.106 197.306,150.124 197.3,150.14C197.446,150.274 197.471,150.497 197.36,150.66C197.573,152.786 197.386,154.933 196.81,156.99C197.776,157.07 198.748,157.05 199.71,156.93C199.277,151.963 199.838,146.958 201.36,142.21C204.36,133.07 210.86,125.68 218.18,119.69C218.35,119.56 218.58,119.78 218.42,119.93C212.02,126.27 206.27,133.33 203.68,142.12C201.09,150.91 200.8,160.8 204.09,169.37C204.17,169.58 203.85,169.69 203.74,169.52C201.742,166.283 200.45,162.661 199.95,158.89C198.727,159.075 197.48,159.037 196.27,158.78C194.85,163.036 192.21,166.782 188.68,169.55C188.569,170.823 188.365,172.086 188.07,173.33" style="fill:rgb(249,147,168);fill-rule:nonzero;"/>
    </g>
    <g transform="matrix(1.04205,0,0,1.08106,-6.91503,10.7292)">
        <path d="M261.21,241.67C258.94,239.52 257.62,236.56 255.66,234.13C252.705,230.543 248.453,228.261 243.83,227.78C246.424,226.21 248.256,223.635 248.89,220.67C245.805,223.772 240.882,224.197 237.31,221.67C235.83,220.56 234.68,219.24 233.26,218.21C229.52,216.36 225.67,215.56 221.4,216.99C218.96,218.64 216.9,220.83 214.4,222.4C211.72,224.09 208.49,225.27 205.4,224.57C206.803,228.232 210.494,230.533 214.4,230.18C212.186,233.413 211.414,237.426 212.27,241.25C213.229,245.102 215.724,248.399 219.17,250.37C217.236,247.395 217.58,243.455 220,240.86C221.51,250.86 230.27,259.63 240.22,261.52C250.457,263.266 260.777,258.551 266.16,249.67L261.58,251.58C265.344,249.691 268.506,246.788 270.71,243.2C268.35,245.26 263.47,243.82 261.21,241.67Z" style="fill:rgb(255,200,206);fill-rule:nonzero;"/>
    </g>
    <g transform="matrix(1.04205,0,0,1.08106,-6.91503,10.7292)">
        <path d="M171.23,154.099C171.237,154.643 171.337,155.177 171.54,155.69C172.77,158.8 177.54,160 182.12,158.18C182.41,158.07 182.69,157.94 182.97,157.81" style="fill:rgb(224,87,117);fill-rule:nonzero;"/>
    </g>
    <g transform="matrix(1.04205,0,0,1.08106,-6.91503,10.7292)">
        <path d="M177.21,146.77C176.385,147.125 175.501,147.345 174.82,147.827" style="fill:rgb(224,87,117);fill-rule:nonzero;"/>
    </g>
    <g transform="matrix(1.04205,0,0,1.08106,-6.91503,10.7292)">
        <path d="M135.192,158.429C131.967,158.134 129.815,158.819 128.12,159.72" style="fill:rgb(224,87,117);fill-rule:nonzero;"/>
    </g>
    <g transform="matrix(1.04205,0,0,1.08106,-6.91503,10.7292)">
        <path d="M131.13,170.56C131.953,170.729 132.79,170.816 133.63,170.82C138.56,170.82 142.56,168 142.56,164.6C142.56,163.681 142.599,162.442 141.758,162.023" style="fill:rgb(224,87,117);fill-rule:nonzero;"/>
    </g>
    <g transform="matrix(1.04205,0,0,1.08106,-6.91503,10.7292)">
        <path d="M167.58,150.22C167.128,151.326 166.887,152.506 166.87,153.7C166.756,154.89 166.989,156.089 167.54,157.15C167.75,157.5 168.12,157.85 168.54,157.74C168.696,157.684 168.834,157.587 168.94,157.46C170.12,156.27 170.66,154.6 171.76,153.35C172.32,152.71 173.01,152.2 173.62,151.62C174.273,151.076 174.758,150.358 175.02,149.55C175.268,148.718 174.987,147.814 174.31,147.27C173.792,146.98 173.203,146.842 172.61,146.87C170.413,146.862 168.419,148.19 167.58,150.22Z" style="fill:rgb(137,46,66);fill-rule:nonzero;"/>
    </g>
    <g transform="matrix(1.04205,0,0,1.08106,-6.91503,10.7292)">
        <path d="M145.42,163.12C146.415,163.642 147.495,163.981 148.61,164.12C148.931,164.153 149.254,164.09 149.54,163.94C149.986,163.621 150.206,163.068 150.1,162.53C149.988,162.002 149.752,161.508 149.41,161.09C147.801,158.892 145.507,157.288 142.89,156.53C141.355,156.048 139.714,156.013 138.16,156.43C136.595,156.864 135.318,158.004 134.71,159.51C134.51,159.991 134.471,160.525 134.6,161.03C135.1,162.63 137.79,161.71 139.03,161.73C141.231,161.769 143.402,162.241 145.42,163.12Z" style="fill:rgb(137,46,66);fill-rule:nonzero;"/>
    </g>
    <g transform="matrix(1.04205,0,0,1.08106,-4.47663,36.3288)">
        <path d="M151.62,45.382C151.62,45.382 165.294,36.048 173.473,34.466" style="fill:none;stroke:black;stroke-width:0.94px;"/>
    </g>
    <g transform="matrix(1.04205,0,0,1.08106,-4.47663,36.3288)">
        <path d="M20.535,133.076C20.535,133.076 26.787,134.64 29.289,135.354" style="fill:none;stroke:black;stroke-width:0.94px;"/>
    </g>
    <g transform="matrix(1.04205,0,0,1.08106,-4.47663,36.3288)">
        <path d="M69.753,56.062L69.357,71.918" style="fill:none;stroke:black;stroke-width:0.94px;"/>
    </g>
    <g transform="matrix(1.04205,0,0,1.08106,-4.47663,36.3288)">
        <path d="M206.213,106.954C206.213,106.954 194.248,121.138 199.918,141.753" style="fill:none;stroke:black;stroke-width:0.94px;"/>
    </g>
    <g transform="matrix(1.04205,0,0,1.08106,-4.47663,36.3288)">
        <path d="M166.221,133.574L165.477,133.171L166.836,133.258L164.975,131.906L167.134,132.136L164.996,130.528L168.044,130.881L165.242,129.334L168.642,129.775L165.692,127.702L169.424,129.025L166.384,125.952L170.208,128.3L167.38,124.995L168.431,124.549L170.697,127.792L171.37,127.356L169.23,124.103L170.218,123.814L171.871,126.55L172.272,125.628L171.09,123.949L172.233,124.45" style="fill:none;stroke:black;stroke-width:0.94px;"/>
    </g>
    <g transform="matrix(1.04205,0,0,1.08106,-4.47663,36.3288)">
        <path d="M132.765,137.255L132.799,135.658L133.379,134.715L133.459,137.566L134.266,137.554L134.161,134.227L135.063,133.42L134.963,137.661L136.102,137.427L135.878,133.421L137.017,132.879L137.033,137.417L137.866,137.578L137.974,132.966L139.173,133.141L138.889,137.587L139.818,137.803L140.163,133.643L141.124,133.751L140.947,138.077L141.907,138.39L142.143,134.002L143.293,134.488L142.719,138.54L143.333,139.11L143.972,134.938L144.818,135.727L144.063,139.428L144.949,139.682L145.409,136.291L146.021,136.9L145.707,139.838L146.474,139.936L146.594,137.826L147.236,138.943L147.131,139.638" style="fill:none;stroke:black;stroke-width:0.94px;"/>
    </g>
    <g transform="matrix(1.04205,0,0,1.08106,-4.47663,36.3288)">
        <path d="M167.887,147.121C167.887,147.121 176.16,139.45 178.869,143.956C181.578,148.462 172.429,157.851 172.429,157.851C172.429,157.851 163.179,158.695 159.56,157.551C152.094,155.193 154.208,144.766 167.887,147.121Z" style="fill:none;stroke:black;stroke-width:0.94px;"/>
    </g>
    <g transform="matrix(1.04205,0,0,1.08106,-4.47663,36.3288)">
        <path d="M172.762,161.548L172.373,158.371C172.373,158.371 165.548,159.387 162.585,158.604C159.622,157.822 158.876,157.561 158.876,157.561" style="fill:none;stroke:black;stroke-width:0.94px;"/>
    </g>
    <g transform="matrix(3.47944,0,0,3.47944,-108.692,-68.5818)">
        <path d="M36.438,22.367L36.438,21.934L40.231,21.934L40.231,22.379L39.611,22.379C39.182,22.379 38.967,22.481 38.967,22.684C38.967,22.785 38.998,22.875 39.061,22.953L41.262,26.371L42.83,23.456C42.901,23.3 42.936,23.16 42.936,23.035C42.936,22.598 42.682,22.379 42.175,22.379L41.777,22.379L41.777,21.934L45.078,21.934L45.078,22.367C44.688,22.367 44.384,22.436 44.165,22.572C43.947,22.709 43.74,22.957 43.545,23.316L41.566,26.98L41.566,29.708C41.566,29.997 41.769,30.141 42.175,30.141L42.912,30.141L42.912,30.586L38.944,30.586L38.944,30.141L39.728,30.141C40.126,30.141 40.325,29.997 40.325,29.708L40.325,27.05L37.644,22.871C37.511,22.676 37.355,22.543 37.176,22.473C36.996,22.403 36.75,22.367 36.438,22.367Z" style="fill-rule:nonzero;"/>
        <path d="M48.052,24.931C48.801,24.931 49.424,25.201 49.919,25.739C50.415,26.278 50.663,26.984 50.663,27.858C50.663,28.717 50.409,29.413 49.902,29.948C49.394,30.483 48.774,30.75 48.04,30.75C47.307,30.75 46.696,30.479 46.208,29.936C45.72,29.394 45.476,28.697 45.476,27.846C45.476,26.996 45.718,26.297 46.202,25.751C46.686,25.205 47.303,24.931 48.052,24.931ZM48.052,25.353C47.576,25.353 47.207,25.562 46.946,25.979C46.684,26.397 46.553,27 46.553,27.788C46.553,28.623 46.682,29.255 46.94,29.685C47.197,30.114 47.572,30.328 48.064,30.328C48.555,30.328 48.932,30.11 49.193,29.673C49.455,29.236 49.586,28.6 49.586,27.765C49.586,26.976 49.451,26.377 49.182,25.967C48.912,25.558 48.536,25.353 48.052,25.353Z" style="fill-rule:nonzero;"/>
        <path d="M51.026,25.095L52.969,25.002L52.969,28.631C52.969,29.068 53.08,29.413 53.303,29.667C53.525,29.921 53.816,30.047 54.175,30.047C54.604,30.047 54.973,29.866 55.281,29.503C55.589,29.14 55.744,28.697 55.744,28.174L55.744,26.114C55.744,25.88 55.666,25.722 55.509,25.64C55.353,25.558 55.111,25.517 54.784,25.517L54.784,25.095L56.715,25.002L56.715,29.509C56.715,29.93 56.934,30.141 57.371,30.141L57.722,30.141L57.722,30.539L55.872,30.586L55.755,29.509C55.427,29.891 55.098,30.182 54.766,30.381C54.434,30.58 54.097,30.68 53.753,30.68C53.191,30.68 52.758,30.494 52.454,30.124C52.149,29.753 51.997,29.212 51.997,28.502L51.997,26.114C51.997,25.887 51.913,25.731 51.746,25.645C51.578,25.56 51.338,25.517 51.026,25.517L51.026,25.095Z" style="fill-rule:nonzero;"/>
        <path d="M60.403,25.786L60.146,25.786L59.818,24.03C59.787,23.858 59.757,23.686 59.73,23.515C59.703,23.343 59.689,23.187 59.689,23.046C59.689,22.555 59.88,22.309 60.263,22.309C60.442,22.309 60.59,22.369 60.707,22.49C60.825,22.611 60.883,22.773 60.883,22.976C60.883,23.093 60.862,23.273 60.819,23.515C60.776,23.757 60.747,23.928 60.731,24.03L60.403,25.786Z" style="fill-rule:nonzero;"/>
        <path d="M62.838,25.517L62.838,25.095L64.805,25.002L64.805,27.214C65.024,26.473 65.281,25.919 65.578,25.552C65.874,25.185 66.241,25.002 66.678,25.002C66.975,25.002 67.211,25.093 67.387,25.277C67.562,25.46 67.65,25.712 67.65,26.032C67.65,26.25 67.591,26.43 67.474,26.57C67.357,26.711 67.205,26.781 67.018,26.781C66.846,26.781 66.707,26.721 66.602,26.6C66.497,26.479 66.444,26.321 66.444,26.125C66.444,26.016 66.471,25.903 66.526,25.786C66.581,25.669 66.608,25.599 66.608,25.575C66.608,25.56 66.592,25.544 66.561,25.528C66.553,25.528 66.534,25.525 66.503,25.517C66.167,25.517 65.826,25.843 65.478,26.494C65.131,27.146 64.957,27.835 64.957,28.561L64.957,29.731C64.957,30.005 65.164,30.141 65.578,30.141L66.28,30.141L66.28,30.586L62.873,30.586L62.873,30.141L63.412,30.141C63.794,30.141 63.986,30.016 63.986,29.766L63.986,26.278C63.986,25.77 63.763,25.517 63.318,25.517L62.838,25.517Z" style="fill-rule:nonzero;"/>
        <path d="M72.684,28.924L73.07,29.087C72.501,30.196 71.677,30.75 70.6,30.75C69.859,30.75 69.24,30.486 68.745,29.96C68.249,29.433 68.001,28.752 68.001,27.917C68.001,27.035 68.243,26.317 68.727,25.763C69.211,25.208 69.824,24.931 70.565,24.931C71.314,24.931 71.913,25.195 72.362,25.722C72.811,26.248 73.035,26.976 73.035,27.905L69.102,27.905C69.102,28.209 69.121,28.479 69.16,28.713C69.199,28.947 69.266,29.15 69.359,29.322C69.679,29.923 70.175,30.223 70.846,30.223C71.611,30.223 72.224,29.79 72.684,28.924ZM69.102,27.46L71.478,27.46C71.775,27.46 71.923,27.265 71.923,26.875C71.923,26.438 71.792,26.065 71.531,25.757C71.269,25.448 70.951,25.294 70.577,25.294C70.14,25.294 69.785,25.485 69.511,25.868C69.238,26.25 69.102,26.781 69.102,27.46Z" style="fill-rule:nonzero;"/>
        <path d="M79.708,25.891C79.708,25.923 79.775,26.051 79.907,26.278C79.978,26.395 80.013,26.5 80.013,26.594C80.013,26.984 79.81,27.179 79.404,27.179C79.201,27.179 79.035,27.119 78.907,26.998C78.778,26.877 78.713,26.703 78.713,26.477C78.713,26.071 78.94,25.714 79.392,25.405C79.845,25.097 80.411,24.943 81.09,24.943C81.707,24.943 82.192,25.078 82.547,25.347C82.903,25.616 83.08,25.965 83.08,26.395L83.08,29.404C83.08,29.911 83.236,30.165 83.548,30.165C83.634,30.165 83.714,30.151 83.788,30.124C83.863,30.096 83.943,30.051 84.028,29.989L84.251,30.305C83.97,30.602 83.658,30.75 83.314,30.75C82.776,30.75 82.389,30.422 82.155,29.766C81.812,30.125 81.515,30.371 81.266,30.504C80.961,30.668 80.59,30.75 80.153,30.75C79.615,30.75 79.195,30.633 78.895,30.399C78.594,30.165 78.444,29.852 78.444,29.462C78.444,28.908 78.766,28.438 79.41,28.051C80.054,27.665 80.953,27.405 82.108,27.273L82.108,26.453C82.108,26.133 81.989,25.872 81.751,25.669C81.513,25.466 81.215,25.365 80.856,25.365C80.551,25.365 80.284,25.425 80.054,25.546C79.824,25.667 79.708,25.782 79.708,25.891ZM82.108,28.455L82.108,27.671C81.203,27.796 80.546,27.985 80.136,28.239C79.726,28.492 79.521,28.861 79.521,29.345C79.521,29.642 79.601,29.874 79.761,30.042C79.921,30.209 80.138,30.293 80.411,30.293C80.864,30.293 81.26,30.12 81.599,29.772C81.939,29.425 82.108,28.986 82.108,28.455Z" style="fill-rule:nonzero;"/>
        <path d="M96.754,30.773L96.38,30.773L95.935,29.31C95.63,29.802 95.285,30.168 94.899,30.41C94.512,30.652 94.058,30.773 93.535,30.773C92.364,30.773 91.394,30.354 90.626,29.515C89.857,28.676 89.472,27.601 89.472,26.289C89.472,24.986 89.882,23.889 90.702,23C91.482,22.157 92.391,21.735 93.429,21.735C93.859,21.735 94.257,21.817 94.624,21.981C94.889,22.098 95.213,22.305 95.595,22.602L96.075,21.735L96.473,21.735L96.684,25.201L96.321,25.201C96.017,24.186 95.638,23.431 95.186,22.935C94.733,22.44 94.179,22.192 93.523,22.192C92.579,22.192 91.872,22.645 91.404,23.55C91.248,23.854 91.133,24.231 91.059,24.68C90.985,25.128 90.947,25.665 90.947,26.289C90.947,29.005 91.794,30.364 93.488,30.364C94.12,30.364 94.629,30.166 95.016,29.772C95.402,29.378 95.595,28.869 95.595,28.245L95.595,27.448C95.595,27.175 95.385,27.039 94.963,27.039L94.226,27.039L94.226,26.629L97.867,26.629L97.867,27.039L97.375,27.039C96.961,27.039 96.754,27.187 96.754,27.484L96.754,30.773Z" style="fill-rule:nonzero;"/>
        <path d="M102.866,28.924L103.252,29.087C102.682,30.196 101.859,30.75 100.782,30.75C100.04,30.75 99.422,30.486 98.926,29.96C98.43,29.433 98.183,28.752 98.183,27.917C98.183,27.035 98.425,26.317 98.908,25.763C99.392,25.208 100.005,24.931 100.747,24.931C101.496,24.931 102.095,25.195 102.544,25.722C102.992,26.248 103.217,26.976 103.217,27.905L99.283,27.905C99.283,28.209 99.303,28.479 99.342,28.713C99.381,28.947 99.447,29.15 99.541,29.322C99.861,29.923 100.356,30.223 101.027,30.223C101.792,30.223 102.405,29.79 102.866,28.924ZM99.283,27.46L101.66,27.46C101.956,27.46 102.105,27.265 102.105,26.875C102.105,26.438 101.974,26.065 101.712,25.757C101.451,25.448 101.133,25.294 100.758,25.294C100.321,25.294 99.966,25.485 99.693,25.868C99.42,26.25 99.283,26.781 99.283,27.46Z" style="fill-rule:nonzero;"/>
        <path d="M108.977,27.32L108.977,29.673C108.977,29.985 109.152,30.141 109.504,30.141L109.878,30.141L109.878,30.586L107.104,30.586L107.104,30.141L107.408,30.141C107.806,30.141 108.005,30.005 108.005,29.731L108.005,27.203C108.005,26.18 107.654,25.669 106.951,25.669C106.538,25.669 106.198,25.841 105.933,26.184C105.667,26.527 105.535,26.965 105.535,27.495L105.535,29.673C105.535,29.845 105.578,29.965 105.664,30.036C105.749,30.106 105.906,30.141 106.132,30.141L106.413,30.141L106.413,30.586L103.65,30.586L103.65,30.141L104.071,30.141C104.399,30.141 104.563,30.005 104.563,29.731L104.563,26.137C104.563,25.911 104.507,25.757 104.393,25.675C104.28,25.593 104.079,25.536 103.79,25.505L103.79,25.095L105.359,25.002C105.398,25.181 105.437,25.384 105.476,25.61C105.515,25.837 105.535,26.024 105.535,26.172C105.816,25.766 106.099,25.47 106.384,25.283C106.668,25.095 107.006,25.002 107.396,25.002C108.161,25.002 108.661,25.423 108.895,26.266C109.426,25.423 110.077,25.002 110.85,25.002C111.342,25.002 111.728,25.173 112.009,25.517C112.29,25.86 112.43,26.34 112.43,26.957L112.43,29.673C112.43,29.985 112.633,30.141 113.039,30.141L113.308,30.141L113.308,30.586L110.557,30.586L110.557,30.141L110.815,30.141C111.244,30.141 111.459,29.985 111.459,29.673L111.459,26.957C111.459,26.559 111.361,26.246 111.166,26.02C110.971,25.794 110.706,25.681 110.37,25.681C109.972,25.681 109.64,25.854 109.375,26.202C109.109,26.549 108.977,26.922 108.977,27.32Z" style="fill-rule:nonzero;"/>
    </g>
    <rect x="1.116" y="1.043" width="297.094" height="297.637" style="fill:rgb(235,235,235);"/>
    <path d="M135.362,212.609C135.994,206.908 131.703,208.177 127.617,205.374C126.611,203.892 132.017,202.718 132.805,201.525C132.423,198.572 126.23,197.347 126.23,197.347C126.23,197.347 138.12,189.213 114.56,177.169C105.524,121.921 189.812,113.178 177.868,175.532C188.585,180.674 188.78,188.82 187.678,196.436" style="fill:none;stroke:black;stroke-width:1px;"/>
    <path d="M231.825,117.052C231.825,117.052 212.75,120.343 205.795,131.974C211.348,130.841 216.549,130.318 217.248,130.842C199.44,141.94 188.221,169.74 188.812,173.991C188.656,174.054 192.743,174.707 192.85,174.707C192.957,174.707 198.224,173.485 198.224,173.485C198.224,173.485 197.588,186.792 189.405,192.606" style="fill:none;stroke:black;stroke-width:1px;"/>
    <path d="M168.493,116.175C184.816,115.03 176.642,127.457 174.019,127.654C195.973,125.647 185.195,140.855 184.976,141.088C189.701,139.57 194.269,151.127 186.476,150.648" style="fill:none;stroke:black;stroke-width:1px;"/>
    <path d="M178.705,118.997C187.146,114.548 215.584,131.746 191.524,143.595" style="fill:none;stroke:black;stroke-width:1px;"/>
    <path d="M90.117,147.597C83.386,131.445 99.224,133.283 103.314,134.857C109.115,114.653 116.793,123.456 116.165,128.871C127.622,113.79 134.004,125.458 132.547,129.494" style="fill:none;stroke:black;stroke-width:1px;"/>
    <path d="M114.646,132.056L116.491,127.462" style="fill:none;stroke:black;stroke-width:1px;"/>
    <path d="M123.449,122.251C127.038,110.562 102.317,94.925 94.15,133.224" style="fill:none;stroke:black;stroke-width:1px;"/>
</svg>
