<?xml version="1.0" encoding="UTF-8" standalone="no"?>
<!DOCTYPE svg PUBLIC "-//W3C//DTD SVG 1.1//EN" "http://www.w3.org/Graphics/SVG/1.1/DTD/svg11.dtd">
<svg width="100%" height="100%" viewBox="0 0 180 256" version="1.1" xmlns="http://www.w3.org/2000/svg" xmlns:xlink="http://www.w3.org/1999/xlink" xml:space="preserve" xmlns:serif="http://www.serif.com/" style="fill-rule:evenodd;clip-rule:evenodd;stroke-linecap:round;stroke-linejoin:round;stroke-miterlimit:1.5;">
    <g id="accent" transform="matrix(0.465225,0,0,0.465225,12.8495,97.2858)">
        <g>
            <path d="M162.104,287.688C163.669,286.024 164.967,285.075 165.999,284.842C166.199,284.809 167.481,285.524 169.845,286.989C172.342,288.521 174.922,289.237 177.585,289.137L182.929,288.188C185.16,287.722 186.941,287.688 188.272,288.088C189.138,288.354 190.32,289.17 191.818,290.535C193.25,291.833 194.315,293.015 195.014,294.081C196.246,295.945 195.913,298.192 194.016,300.823C192.251,303.253 189.221,304.934 184.927,305.866L174.14,306.566C169.012,306.266 165.051,304.818 162.254,302.221C159.324,299.524 158.342,296.128 159.307,292.033C159.574,290.801 160.506,289.353 162.104,287.688" style="fill:rgb(102,68,151);fill-rule:nonzero;"/>
            <path d="M103.025,5.579C105.556,5.579 106.838,6.362 106.871,7.927C106.904,8.792 106.355,10.407 105.223,12.771C104.557,14.202 103.542,15.651 102.177,17.115L98.381,20.811C97.582,21.543 95.435,24.223 91.939,28.851C89.608,31.881 87.311,33.596 85.047,33.995L76.258,33.745C74.26,32.813 72.945,30.749 72.313,27.553C72.013,26.254 71.913,24.357 72.013,21.86C72.113,18.897 72.546,17.149 73.311,16.616C74.343,15.917 75.758,15.467 77.556,15.268C79.787,14.968 81.302,14.668 82.101,14.369L85.796,11.372C87.528,9.674 89.858,8.376 92.788,7.477C96.916,6.212 100.329,5.579 103.025,5.579" style="fill:rgb(102,68,151);fill-rule:nonzero;"/>
            <path d="M279.862,245.589L281.26,244.84C281.56,244.84 282.009,245.107 282.608,245.639C282.941,245.939 283.74,246.322 285.006,246.788C286.171,247.254 286.92,247.687 287.253,248.086C288.684,249.884 288.668,252.231 287.203,255.128C285.871,257.691 284.04,260.222 281.71,262.719C279.246,265.415 276.666,267.579 273.969,269.211C271.871,270.476 269.258,270.975 266.128,270.709C263.432,270.476 260.718,269.727 257.988,268.462C256.756,267.896 255.574,266.93 254.443,265.565C253.011,263.834 252.478,262.169 252.844,260.571C253.544,257.641 256.074,255.561 260.435,254.329C262.866,253.63 266.644,252.881 271.772,252.081C273.503,251.682 275.001,250.766 276.266,249.335C278.23,247.171 279.429,245.922 279.862,245.589" style="fill:rgb(102,68,151);fill-rule:nonzero;"/>
            <path d="M325.257,168.383C326.422,168.882 326.822,170.214 326.455,172.378L325.057,177.222C324.458,179.12 322.943,180.901 320.513,182.565C317.616,184.297 315.519,185.695 314.22,186.76C311.257,189.257 307.578,191.089 303.184,192.254C297.69,193.685 294.394,192.537 293.296,188.808C292.497,186.045 293.196,182.183 295.393,177.222C297.357,172.794 299.238,169.914 301.036,168.582C301.769,168.05 302.901,167.817 304.432,167.883L307.778,168.433C310.275,169.331 313.521,169.398 317.516,168.632L325.257,168.383" style="fill:rgb(102,68,151);fill-rule:nonzero;"/>
            <path d="M324.857,91.675C326.056,92.008 326.772,92.99 327.005,94.622C327.205,96.053 326.988,97.269 326.356,98.267L325.507,99.066L324.608,99.865C324.508,100.032 324.441,100.348 324.408,100.814L324.108,101.663C323.309,102.629 321.911,103.478 319.913,104.21C317.916,104.976 316.368,105.192 315.269,104.859C312.805,104.16 311.54,102.712 311.474,100.515C311.407,99.216 311.84,97.452 312.772,95.221C313.305,93.856 314.936,92.774 317.666,91.975L324.857,91.675" style="fill:rgb(102,68,151);fill-rule:nonzero;"/>
            <path d="M199.809,79.44C201.873,75.745 204.237,72.815 206.9,70.651C210.396,67.821 212.293,68.87 212.593,73.797C212.859,78.058 216.106,81.504 222.331,84.134L228.823,86.831C230.854,87.863 231.953,88.995 232.119,90.227C232.353,92.091 231.803,93.673 230.471,94.971C229.639,95.804 228.091,96.769 225.827,97.868C223.397,99.066 221.782,99.999 220.983,100.664C219.485,101.896 218.752,103.361 218.786,105.059C218.786,106.358 219.218,107.623 220.084,108.855L222.431,111.751C224.196,113.948 223.996,116.346 221.832,118.942C220.167,120.94 220.334,122.338 222.331,123.137C223.696,123.67 226.443,124.036 230.571,124.236L239.81,124.935C242.64,125.501 243.822,126.566 243.356,128.131L241.258,134.324C240.36,137.087 239.86,139.368 239.76,141.166C239.394,146.526 242.141,149.872 248,151.203C251.929,152.102 253.177,154.133 251.746,157.296L246.202,165.436C245.17,167.034 244.172,168.999 243.206,171.329L241.059,176.673C239.361,180.368 236.714,182.649 233.118,183.514C231.054,184.014 229.423,185.096 228.224,186.76C227.159,188.292 226.743,189.773 226.976,191.205C227.142,192.204 227.991,193.819 229.523,196.049C230.921,198.113 231.603,199.745 231.57,200.943C231.57,203.673 229.706,206.12 225.977,208.284C221.416,210.848 214.907,212.33 206.451,212.729C204.087,212.862 203.321,214.627 204.153,218.023L205.552,222.917C206.118,224.981 206.417,226.712 206.451,228.11C206.484,229.942 204.52,232.305 200.558,235.202C196.463,238.132 194.332,240.729 194.165,242.992C193.832,247.088 192.617,249.451 190.52,250.084L187.224,250.284L183.378,250.184L169.745,250.633C164.917,251.199 162.071,252.797 161.205,255.427C160.34,258.091 157.41,260.022 152.416,261.22C147.289,262.452 143.576,261.836 141.279,259.373C139.215,257.175 136.701,255.544 133.738,254.479L126.497,252.731C126.098,252.664 124.623,249.298 119.635,248.993C115.146,248.719 114.213,248.194 114.197,248.347C113.678,253.214 113.246,254.845 111.315,256.177C108.985,257.741 100.628,257.184 97.232,256.326C94.575,255.655 93.47,252.198 90.94,251.033C89.708,250.433 87.577,249.751 84.548,248.985C82.051,248.353 80.27,247.604 79.204,246.738C77.64,245.506 76.641,243.575 76.208,240.945C75.043,233.387 70.998,229.009 64.073,227.811L55.932,226.762C53.003,226.196 50.889,225.114 49.59,223.516C48.059,221.618 46.893,219.687 46.094,217.723C44.763,214.46 45.145,212.28 47.243,211.181C49.84,209.849 50.389,207.718 48.891,204.789L46.943,200.993C46.311,199.428 46.161,198.047 46.494,196.848L47.734,193.523" style="fill:rgb(81,48,142);fill-rule:nonzero;"/>
            <path d="M41.528,175.967C35.754,174.826 32.548,172.165 31.911,167.983L31.462,161.491C31.162,158.961 30.297,156.98 28.865,155.548C25.802,152.518 26.435,147.774 30.763,141.315C31.704,139.874 32.711,138.547 33.784,137.334" style="fill:rgb(81,48,142);fill-rule:nonzero;"/>
            <path d="M50.516,118.463L50.539,108.755C51.038,99.932 54.135,95.637 59.828,95.87C62.891,96.003 65.304,94.372 67.069,90.976C68.9,87.48 69.566,82.969 69.067,77.443C68.967,76.144 68.367,74.579 67.269,72.748C66.27,70.984 65.771,69.968 65.771,69.702C65.804,67.738 70.615,66.772 80.203,66.805C89.658,66.805 95.102,67.521 96.533,68.953C99.463,71.883 102.493,73.347 105.622,73.347C108.752,73.347 110.317,71.766 110.317,68.603C110.317,66.572 111.815,65.091 114.811,64.159C117.808,63.26 120.671,63.393 123.401,64.558C129.46,67.188 135.27,65.99 140.83,60.962L146.723,54.87C148.82,52.672 150.518,51.374 151.817,50.975C156.444,49.609 160.473,50.692 163.902,54.221C166.932,57.35 170.011,63.027 173.141,71.25C175.438,77.343 179.816,81.388 186.275,83.385C189.138,84.251 191.752,84.384 194.115,83.785C196.679,83.119 198.577,81.671 199.809,79.44" style="fill:rgb(81,48,142);fill-rule:nonzero;"/>
            <path d="M172.442,296.578C174.206,295.679 176.187,295.196 178.384,295.129L185.426,294.081C188.489,293.648 190.287,293.831 190.819,294.63C192.417,297.094 191.469,299.424 187.973,301.622C184.544,303.752 180.532,304.685 175.937,304.418C173.041,304.218 171.01,303.636 169.845,302.67C168.813,301.805 168.58,300.773 169.146,299.574C169.645,298.442 170.744,297.443 172.442,296.578" style="fill:rgb(81,48,142);fill-rule:nonzero;"/>
            <path d="M275.667,264.966C273.536,266.231 271.672,266.814 270.074,266.714C268.842,266.647 266.877,265.981 264.181,264.716L261.834,263.967C261.234,263.568 261.118,262.602 261.484,261.071C262.183,258.207 264.114,256.526 267.277,256.027L276.865,254.978C281.393,253.879 283.557,254.529 283.358,256.926C283.125,259.323 280.561,262.003 275.667,264.966" style="fill:rgb(81,48,142);fill-rule:nonzero;"/>
            <path d="M298.739,180.168C298.839,178.437 299.771,176.939 301.536,175.674C302.102,175.241 303.566,175.258 305.93,175.724L310.225,176.073C313.588,174.375 316.351,173.959 318.515,174.825C320.38,175.557 321.079,176.656 320.613,178.121C320.047,179.885 318.748,180.984 316.717,181.417C313.987,181.983 312.123,182.699 311.124,183.564C309.226,185.196 307.229,186.011 305.131,186.011C303.3,186.011 301.752,185.412 300.487,184.213C299.255,183.048 298.672,181.7 298.739,180.168" style="fill:rgb(81,48,142);fill-rule:nonzero;"/>
            <path d="M321.412,96.07C322.044,96.27 322.41,96.769 322.51,97.568C322.61,98.334 322.51,98.983 322.211,99.516L321.312,100.315L321.162,100.814L321.012,101.264C320.613,101.763 319.897,102.213 318.865,102.612L316.418,102.912C315.152,102.546 314.503,101.796 314.47,100.664C314.437,99.965 314.67,99.05 315.169,97.918C315.435,97.219 316.284,96.669 317.716,96.27L321.412,96.07" style="fill:rgb(81,48,142);fill-rule:nonzero;"/>
            <path d="M88.793,16.966C90.491,16.966 91.906,17.798 93.038,19.463C94.136,21.094 94.269,22.309 93.437,23.108L89.442,28.102C87.977,30 86.529,31.082 85.097,31.348L79.604,31.148C78.339,30.582 77.506,29.301 77.107,27.303C76.441,23.841 77.49,21.177 80.253,19.313C82.517,17.748 85.364,16.966 88.793,16.966" style="fill:rgb(81,48,142);fill-rule:nonzero;"/>
            <path d="M285.705,134.923C291.298,133.292 295.06,131.81 296.991,130.478C298.822,129.213 300.187,128.681 301.086,128.88C301.819,129.014 302.418,129.679 302.884,130.878L304.182,134.773C304.882,136.471 305.797,137.803 306.929,138.768C308.194,139.834 308.094,141.465 306.629,143.662C305.331,145.593 303.367,147.475 300.737,149.306C298.073,151.17 295.776,152.235 293.845,152.502C291.681,152.835 290.649,151.986 290.749,149.955C290.849,148.024 289.85,146.775 287.752,146.209L281.31,145.81L275.917,145.261C274.751,144.661 274.868,143.33 276.266,141.265C278.297,138.302 281.443,136.188 285.705,134.923" style="fill:rgb(81,48,142);fill-rule:nonzero;"/>
            <path d="M267.427,215.176C272.221,216.608 276.815,217.39 281.21,217.523C287.636,217.69 289.35,219.637 286.354,223.366C285.222,224.764 283.641,226.096 281.61,227.361C279.645,228.593 277.997,229.309 276.666,229.509C275.7,229.642 274.152,229.642 272.021,229.509C269.824,229.376 268.143,229.376 266.977,229.509C262.816,230.008 259.27,232.505 256.34,237C252.145,243.425 249.415,244.99 248.15,241.694C247.817,240.795 247.501,239.147 247.201,236.75C246.935,234.586 246.669,233.288 246.402,232.855C245.537,231.556 243.456,230.025 240.16,228.26C237.696,226.962 236.597,225.314 236.864,223.316C237.496,218.855 239.244,216.524 242.107,216.325C243.106,216.258 244.122,216.458 245.154,216.924C246.053,217.39 246.619,217.856 246.852,218.322C247.684,219.987 249.915,220.586 253.544,220.12C257.173,219.621 259.903,218.339 261.734,216.275C262.599,215.309 263.465,214.777 264.331,214.677L267.427,215.176" style="fill:rgb(81,48,142);fill-rule:nonzero;"/>
            <path d="M162.753,40.537C158.991,42.601 155.945,42.202 153.614,39.339C152.782,38.306 150.735,38.223 147.472,39.089C144.043,40.021 141.529,39.821 139.931,38.49C137.7,36.692 135.053,35.51 131.99,34.944C129.027,34.411 127.113,34.628 126.247,35.593C125.415,36.559 124.999,36.309 124.999,34.844C124.999,33.379 125.448,31.748 126.347,29.95C129.044,24.69 133.023,23.125 138.283,25.256L145.225,25.955C148.154,25.622 151.084,24.007 154.014,21.111C156.411,18.713 159.174,17.099 162.304,16.266C165.334,15.501 166.848,15.867 166.848,17.365C166.848,18.331 166.099,19.929 164.601,22.159C163.07,24.357 162.304,25.938 162.304,26.904L161.904,31.148C162.137,32.813 163.652,34.428 166.449,35.993C166.915,36.259 166.765,36.892 165.999,37.89C165.167,38.889 164.085,39.771 162.753,40.537" style="fill:rgb(81,48,142);fill-rule:nonzero;"/>
            <g transform="matrix(1.00854,0,0,1.01076,-4.66966,-2.23506)">
                <path d="M325.806,133.725C327.737,129.297 328.087,126.999 326.855,126.833L312.672,125.085C310.208,124.819 308.211,124.103 306.679,122.938C305.814,122.272 304.882,121.206 303.883,119.741C303.15,118.543 302.518,117.86 301.985,117.694C299.921,117.061 298.19,116.678 296.791,116.545C294.927,116.346 293.395,116.562 292.197,117.194C290.765,117.927 289.75,119.325 289.151,121.389C288.318,124.186 286.654,126.533 284.157,128.431C281.693,130.362 278.73,131.56 275.267,132.027C271.838,132.493 268.542,132.126 265.379,130.928C261.65,129.53 258.754,127.149 256.69,123.787C254.359,120.024 253.194,115.563 253.194,110.403C253.194,106.74 253.86,103.228 255.192,99.865C256.623,96.203 258.771,93.007 261.634,90.277C265.396,86.681 270.24,84.018 276.166,82.287C276.166,80.123 276.766,78.458 277.964,77.293C279.229,76.127 281.16,75.495 283.757,75.395L292.047,75.944L303.283,76.494C304.615,76.327 305.581,75.711 306.18,74.646C306.546,73.947 306.729,73.114 306.729,72.149C306.729,70.118 306.047,68.17 304.682,66.306C303.117,64.142 301.103,62.927 298.639,62.66C288.684,61.628 281.36,61.995 276.666,63.759C273.47,64.991 269.241,68.237 263.981,73.497L261.834,75.595C258.771,78.691 255.857,80.106 253.094,79.84C250.597,79.607 248.183,77.875 245.853,74.646C244.421,72.615 243.705,70.584 243.705,68.553C243.705,67.588 243.988,66.223 244.554,64.458L245.054,62.511C245.054,61.978 244.704,61.495 244.005,61.062L242.906,61.861L240.11,63.659C238.945,64.192 237.679,64.458 236.314,64.458C234.883,64.458 233.884,63.859 233.318,62.66C232.852,61.728 232.752,60.58 233.018,59.215C233.285,57.949 233.768,56.884 234.467,56.018C235.033,55.319 236.081,54.504 237.613,53.571L239.461,52.323C239.893,51.923 240.043,51.59 239.91,51.324C239.577,50.558 238.978,50.059 238.112,49.826L234.966,49.526L231.62,49.277C230.388,48.944 229.456,48.294 228.823,47.329C228.091,46.197 228.008,45.032 228.574,43.833C229.373,42.168 231.42,40.704 234.716,39.438C237.413,38.373 240.26,37.641 243.256,37.241C246.053,36.875 248.283,36.309 249.948,35.543C251.646,34.777 252.611,33.878 252.844,32.846C253.277,31.015 251.746,28.901 248.25,26.504C245.886,24.873 240.692,23.891 232.669,23.558C225.045,23.225 219.302,23.574 215.44,24.606C212.776,25.272 210.795,26.637 209.497,28.701C208.764,29.9 208.082,31.814 207.449,34.444L206.65,37.391C206.284,38.29 205.801,38.956 205.202,39.389C203.604,40.554 201.623,40.87 199.259,40.337C197.961,40.104 196.762,39.622 195.664,38.889C194.532,38.157 193.683,37.308 193.117,36.342C192.717,35.71 192.467,34.744 192.368,33.446L192.368,33.096L191.918,33.196C191.286,33.396 190.004,34.112 188.073,35.343L183.778,37.79C182.28,38.523 181.098,38.806 180.232,38.639C178.501,38.373 176.32,36.958 173.69,34.395C170.794,31.598 169.129,28.984 168.696,26.554C167.964,22.592 173.574,17.199 185.526,10.374C187.257,9.375 188.006,8.493 187.773,7.727C187.473,6.595 185.692,5.579 182.43,4.68C178.934,3.715 174.839,3.232 170.144,3.232C166.216,3.232 162.321,4.531 158.459,7.127C156.294,8.592 153.698,10.906 150.668,14.069L148.521,16.167L147.172,16.966C145.94,17.232 144.475,16.633 142.777,15.168C141.313,13.936 140.031,12.421 138.932,10.623C135.037,11.189 131.691,11.938 128.894,12.871C124.3,14.402 119.755,16.699 115.261,19.762C113.43,20.994 111.998,22.392 110.966,23.957C109.767,25.788 109.201,27.669 109.268,29.6C109.335,31.531 109.917,33.379 111.016,35.144C112.115,36.941 113.529,38.24 115.261,39.039C116.959,39.871 117.841,41.203 117.908,43.034L117.908,43.134C117.908,44.466 117.475,45.797 116.609,47.129C115.743,48.461 114.645,49.493 113.313,50.225C111.049,51.424 108.918,51.324 106.921,49.926C105.023,48.627 103.575,48.211 102.576,48.677C101.311,49.376 100.678,51.274 100.678,54.37C100.678,55.835 99.829,56.934 98.131,57.666C96.101,58.499 93.37,58.665 89.941,58.166C86.512,57.666 84.132,56.751 82.8,55.419C81.268,53.888 78.106,51.624 73.311,48.627C68.351,45.531 64.489,43.467 61.725,42.435C60.261,41.869 58.429,42.318 56.232,43.783C54.068,45.248 52.087,47.246 50.289,49.776C48.591,52.24 47.726,54.204 47.692,55.669C47.659,56.168 47.892,56.834 48.392,57.666L49.54,59.464C50.606,61.595 51.305,63.343 51.638,64.708C51.904,66.006 51.338,68.337 49.94,71.699C48.408,75.428 46.694,77.909 44.796,79.14C42.998,80.272 41.3,80.256 39.702,79.091C37.072,77.193 34.392,76.127 31.662,75.894C28.898,75.661 26.302,76.261 23.871,77.692C21.574,79.124 19.859,81.055 18.727,83.485C17.595,85.916 17.229,88.463 17.629,91.126C17.928,93.09 18.644,95.371 19.776,97.968L23.122,104.909C25.619,109.77 27.234,113.382 27.966,115.746C29.198,119.775 29.265,123.287 28.166,126.283C27.2,128.88 25.636,130.645 23.472,131.577C21.341,132.476 18.744,132.493 15.681,131.627C14.782,131.361 13.8,130.162 12.735,128.031C11.969,126.533 10.82,123.77 9.289,119.741L7.591,115.397C6.026,122.055 4.961,127.166 4.395,130.728C3.496,136.122 3.046,141.332 3.046,146.359C3.046,150.155 3.279,153.967 3.745,157.795C4.012,160.059 5.094,163.672 6.992,168.632L10.537,176.972C10.804,177.505 11.186,177.855 11.686,178.021L13.883,178.371C17.745,178.737 21.174,180.235 24.171,182.865C27.367,185.695 29.048,188.974 29.215,192.703L29.215,192.953C29.215,193.985 28.898,194.767 28.266,195.3L25.02,195.75L22.373,195.45C22.173,196.149 22.223,197.098 22.523,198.296L23.372,201.043C23.971,203.24 24.67,205.022 25.469,206.387L26.618,207.336L28.416,207.635L30.563,208.085C31.329,208.484 31.762,209.2 31.861,210.232C32.028,212.429 32.977,215.709 34.708,220.07C36.606,224.931 38.37,227.994 40.002,229.259C40.701,229.792 42.382,230.391 45.046,231.057C48.575,231.889 51.171,232.838 52.836,233.903C55.666,235.735 57.364,238.465 57.93,242.094L57.98,242.593C57.98,243.259 57.73,243.975 57.231,244.74L55.533,246.788C54.334,248.12 53.519,249.168 53.086,249.934C52.287,251.266 51.887,252.664 51.887,254.129C51.887,254.895 51.987,255.694 52.187,256.526C53.652,262.519 60.394,268.329 72.412,273.955C76.94,276.086 81.502,277.834 86.096,279.199C90.357,280.431 93.354,280.997 95.085,280.897C99.147,280.664 101.644,279.698 102.576,278C103.308,276.735 103.658,273.489 103.625,268.262L103.625,266.564C103.625,265.998 103.858,265.532 104.324,265.166C105.156,264.533 106.788,264.383 109.218,264.716L118.357,266.714L120.205,267.163C122.668,267.729 125.515,269.411 128.744,272.207C130.609,273.839 133.489,276.735 137.384,280.897C138.516,282.128 140.131,282.928 142.228,283.294L149.27,282.994C151.833,282.428 154.097,281.529 156.061,280.297C157.992,279.099 159.174,277.85 159.607,276.552L160.156,274.904C161.422,270.676 163.203,267.729 165.5,266.065C169.329,263.301 176.037,261.803 185.626,261.57C186.824,261.537 187.989,262.086 189.121,263.218L192.268,267.213C193.799,269.344 194.964,270.825 195.763,271.658C197.228,273.189 198.71,274.138 200.208,274.504C205.202,275.736 209.563,275.903 213.292,275.004C220.051,273.372 226.227,268.528 231.82,260.471C224.862,262.735 219.202,262.885 214.84,260.921C211.977,259.622 209.88,257.575 208.548,254.778C207.183,251.882 206.767,248.819 207.299,245.589C207.832,242.493 208.964,240.446 210.695,239.447C215.157,236.916 219.102,235.568 222.531,235.402C227.492,235.169 231.82,237.266 235.515,241.694C237.646,244.224 240.909,245.806 245.304,246.438C249.698,247.038 253.594,246.455 256.989,244.69C258.754,243.791 260.219,242.709 261.384,241.444L263.831,238.048C265.329,235.685 266.844,234.003 268.376,233.005C269.94,232.006 271.722,231.456 273.719,231.357L279.013,231.706L285.305,231.956C287.569,231.59 289.583,230.424 291.348,228.46C293.845,225.73 295.593,221.718 296.592,216.425C297.557,211.131 297.257,207.402 295.693,205.238C294.661,203.84 293.063,203.657 290.898,204.689C287.736,206.154 284.123,207.152 280.062,207.685L270.773,208.234L267.027,208.384C265.795,208.517 264.747,208.151 263.881,207.286L262.283,204.739L261.334,202.991C261.068,202.691 260.752,202.558 260.385,202.591C259.486,204.889 257.639,206.603 254.842,207.735C252.745,208.567 250.464,209.017 248,209.083C245.67,209.117 243.972,208.8 242.906,208.135C241.242,207.102 240.176,205.588 239.71,203.59L239.461,201.493C239.461,198.696 240.509,195.716 242.607,192.553C243.506,191.188 245.137,190.073 247.501,189.207C248.899,188.675 251.396,188.009 254.992,187.21C259.686,186.178 263.282,185.179 265.779,184.213C269.94,182.582 273.336,180.435 275.967,177.771C271.172,178.204 267.294,177.522 264.331,175.724C262.4,174.525 261.001,172.977 260.136,171.079C259.37,169.415 259.104,167.683 259.337,165.886C259.536,164.121 260.169,162.789 261.234,161.89C264.031,159.56 267.677,158.195 272.171,157.795L284.756,158.195L294.095,158.694C297.324,158.628 299.987,158.128 302.085,157.196C303.716,156.464 304.748,155.814 305.181,155.248C305.614,154.716 305.83,153.834 305.83,152.602C305.83,150.837 306.413,149.422 307.578,148.357C308.311,147.691 309.742,146.875 311.873,145.91C315.069,144.478 317.533,143.063 319.264,141.665C321.961,139.601 324.142,136.954 325.806,133.725M330.301,126.234C330.767,127.998 330.134,130.562 328.403,133.924C326.539,137.587 324.042,140.633 320.912,143.063C319.114,144.462 316.534,145.943 313.172,147.508C311.274,148.373 309.859,149.572 308.927,151.104C308.061,152.568 307.845,153.95 308.277,155.248C308.81,156.747 307.112,158.028 303.184,159.094C298.556,160.326 292.347,160.609 284.556,159.943C276.133,159.177 269.807,159.726 265.579,161.591C261.218,163.489 259.936,166.418 261.734,170.38C263.864,175.075 268.975,176.789 277.065,175.524C278.097,175.358 278.913,175.457 279.512,175.824C280.211,176.256 280.211,176.922 279.512,177.821C276.782,181.25 272.937,183.881 267.976,185.712C265.979,186.411 261.784,187.476 255.391,188.908L248.4,190.706C246.236,191.471 244.788,192.404 244.055,193.502C242.557,195.799 241.641,198.063 241.308,200.294C240.876,203.257 241.708,205.371 243.805,206.636C245.137,207.435 246.968,207.702 249.299,207.435C251.33,207.202 253.111,206.67 254.642,205.837C255.408,205.438 256.29,204.489 257.289,202.991L259.486,199.695C260.752,198.163 262.216,199.162 263.881,202.691L265.13,205.388C265.629,206.32 266.195,206.753 266.828,206.686L270.773,206.537L279.762,205.987C283.691,205.454 287.153,204.489 290.149,203.091C291.914,202.258 293.579,202.059 295.143,202.491C296.342,202.824 297.224,203.39 297.79,204.189C299.688,206.753 300.32,210.881 299.688,216.574C299.022,222.401 297.307,226.829 294.544,229.858C291.048,233.687 285.788,235.119 278.763,234.153L273.919,233.804C272.154,233.903 270.623,234.37 269.325,235.202C268.459,235.768 267.693,236.45 267.027,237.249L265.329,239.696L262.633,243.342C261.334,244.774 259.719,245.989 257.788,246.988C254.126,248.885 249.732,249.368 244.604,248.436C239.544,247.537 235.832,245.656 233.468,242.793C230.638,239.397 227.492,237.649 224.029,237.549C220.767,237.449 216.605,238.831 211.544,241.694C210.246,242.426 209.397,243.991 208.997,246.388C208.565,248.985 208.947,251.532 210.146,254.029C211.345,256.559 213.492,258.391 216.588,259.522C220.55,261.021 225.178,260.754 230.471,258.723C235.133,256.992 236.797,257.175 235.465,259.273C225.378,275.087 213.892,281.396 201.007,278.2C199.109,277.734 197.262,276.802 195.464,275.403C193.866,274.171 192.451,272.673 191.219,270.909L188.023,266.514C186.691,264.849 185.659,264.034 184.927,264.067C175.904,264.3 169.728,265.615 166.399,268.012C164.535,269.344 163.003,272.007 161.804,276.003L161.305,277.651C160.673,279.482 159.174,281.246 156.811,282.944C154.547,284.542 152.149,285.608 149.619,286.14L140.98,286.39C138.083,285.924 135.969,284.975 134.637,283.543L127.046,274.754C124.316,271.791 121.919,270.076 119.855,269.61L117.908,269.111C110.184,267.08 106.005,266.464 105.373,267.263C105.706,273.888 105.522,278 104.823,279.598C103.758,282.162 100.745,283.46 95.784,283.494C93.753,283.527 90.541,282.961 86.146,281.796C81.152,280.431 76.324,278.716 71.663,276.652C58.879,270.925 51.604,264.383 49.84,257.025C49.24,254.562 49.523,252.248 50.689,250.084C51.221,249.152 52.403,247.653 54.234,245.589L55.733,243.841C56.099,243.275 56.249,242.793 56.182,242.393C55.716,239.33 54.218,237.266 51.688,236.201L44.396,234.503L40.801,233.604C39.469,233.238 38.52,232.821 37.954,232.355C36.056,230.89 34.242,227.228 32.511,221.369C31.146,216.807 30.347,213.145 30.114,210.382C30.08,210.016 29.864,209.766 29.464,209.633L27.717,209.383L25.419,208.984C24.554,208.651 23.871,208.068 23.372,207.236C22.44,205.671 21.541,203.424 20.675,200.494C19.61,197.065 19.41,194.901 20.076,194.002C20.608,193.269 21.774,193.119 23.572,193.552C25.436,194.018 26.651,194.018 27.217,193.552C27.617,193.219 27.717,192.404 27.517,191.105L26.818,188.608C26.185,187.276 24.986,185.878 23.222,184.413C20.991,182.649 17.629,181.55 13.134,181.117L9.688,180.618C8.29,180.252 7.374,179.636 6.942,178.77C6.342,177.505 5.377,174.525 4.045,169.831C2.614,164.704 1.748,160.858 1.448,158.295L0.549,152.252C0.183,149.922 0,148.041 0,146.609C0,141.482 0.583,135.805 1.748,129.58L5.543,112.75C5.876,111.352 6.442,111.019 7.241,111.751C8.207,112.683 9.439,115.147 10.937,119.142C11.802,121.373 12.701,123.42 13.634,125.285C14.832,127.715 15.714,129.014 16.28,129.18C19.01,129.946 21.174,130.096 22.772,129.629C24.47,129.097 25.719,127.765 26.518,125.634C27.483,123.037 27.284,119.875 25.919,116.146C25.386,114.714 23.705,111.235 20.875,105.708L17.129,98.567C15.831,95.804 15.015,93.423 14.682,91.426C14.249,88.463 14.849,85.333 16.48,82.037C18.111,78.741 20.242,76.294 22.872,74.696C25.403,73.164 28.332,72.732 31.662,73.397C34.625,73.997 37.654,75.412 40.751,77.642L43.847,77.692C45.445,76.627 46.827,74.413 47.992,71.05C49.024,68.087 49.424,66.09 49.191,65.057C48.991,64.159 48.175,62.544 46.744,60.213C45.512,58.182 44.912,56.568 44.946,55.369C44.979,53.571 46.128,51.324 48.392,48.627C50.489,46.097 52.786,44 55.283,42.335C56.915,41.27 58.213,40.537 59.178,40.138C60.577,39.572 61.725,39.472 62.624,39.838C65.421,40.937 69.3,43.101 74.26,46.33C78.921,49.393 82.084,51.757 83.749,53.422C84.814,54.487 86.912,55.353 90.041,56.018C93.304,56.718 95.784,56.718 97.482,56.018C98.448,55.619 98.93,55.07 98.93,54.37C98.93,52.206 99.064,50.542 99.33,49.376C99.63,47.845 100.196,46.863 101.028,46.43L104.174,46.53C105.339,46.929 106.588,47.595 107.92,48.527L112.464,48.677C113.529,48.111 114.428,47.279 115.161,46.18C115.86,45.115 116.193,44.083 116.16,43.084C116.126,41.952 115.594,41.136 114.562,40.637C112.597,39.738 110.949,38.573 109.618,37.141C107.886,35.31 106.937,33.296 106.771,31.099C106.371,26.105 108.519,22.01 113.213,18.813C121.37,13.253 128.611,9.691 134.937,8.126L138.932,7.677C139.798,7.843 140.68,8.459 141.579,9.525L144.525,13.32C145.657,14.718 146.423,15.368 146.823,15.268L149.419,12.871C153.182,8.909 155.895,6.295 157.56,5.03C161.755,1.801 165.949,0.186 170.144,0.186C174.706,0.186 179,0.852 183.029,2.183C187.19,3.548 189.521,5.163 190.02,7.028C190.486,8.626 189.454,10.157 186.924,11.622C180.499,15.284 176.004,18.547 173.44,21.41C171.643,23.341 170.877,24.939 171.143,26.204C171.509,28.335 172.908,30.649 175.338,33.146C177.535,35.477 179.267,36.742 180.532,36.941C181.464,37.075 183.661,36.043 187.124,33.845L189.471,32.097C190.337,31.398 190.969,30.982 191.369,30.849C192.934,30.316 193.899,30.649 194.265,31.848L195.314,35.343C195.747,36.043 196.496,36.742 197.561,37.441C198.56,38.14 199.459,38.573 200.258,38.739C201.989,39.072 203.271,38.806 204.103,37.94C204.736,37.274 205.285,35.976 205.751,34.045C206.484,31.049 207.366,28.701 208.398,27.003C210.129,24.14 212.527,22.309 215.589,21.51L233.418,20.961C241.475,21.66 246.852,22.942 249.548,24.806C253.677,27.669 255.441,30.383 254.842,32.946C254.443,34.511 253.277,35.893 251.346,37.091C249.249,38.423 246.619,39.289 243.456,39.688C240.659,40.021 238.112,40.537 235.815,41.236C232.319,42.302 230.438,43.55 230.172,44.982C229.872,46.746 231.62,47.745 235.416,47.978C239.744,48.244 242.207,49.027 242.807,50.325C243.239,51.224 242.99,52.123 242.057,53.022C241.325,53.721 240.343,54.304 239.111,54.77C237.247,55.469 235.882,56.917 235.016,59.115C234.117,61.412 234.883,62.561 237.313,62.561C238.478,62.561 239.577,62.111 240.609,61.212L243.456,58.615L244.305,58.565C246.469,59.564 247.534,60.596 247.501,61.662C247.468,62.294 247.035,63.409 246.202,65.008C245.703,66.572 245.453,67.804 245.453,68.703C245.487,70.301 246.103,71.933 247.301,73.597C249.299,76.427 251.28,77.942 253.244,78.142C255.308,78.341 257.722,77.126 260.485,74.496L264.181,70.101C265.779,68.037 267.044,66.606 267.976,65.807C271.971,62.344 276.915,60.347 282.808,59.814L299.388,60.563C302.185,60.863 304.565,62.178 306.53,64.508C308.361,66.739 309.276,69.136 309.276,71.699C309.276,73.464 308.81,75.029 307.878,76.394C306.912,77.759 305.697,78.608 304.232,78.941L290.948,77.792C284.323,76.926 280.394,77.193 279.163,78.591C278.796,78.991 278.63,79.623 278.663,80.489L278.913,83.136C278.98,83.602 278.763,83.901 278.264,84.035C272.404,85.666 267.56,88.146 263.731,91.476C260.668,94.206 258.488,97.235 257.189,100.565C255.658,104.46 255.142,108.638 255.641,113.099C256.107,116.895 257.189,120.158 258.887,122.888C262.216,128.314 267.593,130.528 275.018,129.53C281.41,128.731 285.322,125.851 286.753,120.89C287.12,119.625 287.736,118.393 288.601,117.194C289.467,115.996 290.349,115.147 291.248,114.648C292.646,113.915 294.477,113.732 296.741,114.098L302.784,115.746C303.417,115.946 303.966,116.312 304.432,116.845L305.631,118.493C306.629,119.991 307.395,120.973 307.928,121.439C309.126,122.505 310.774,123.137 312.872,123.337L320.912,123.886L327.804,124.386C329.169,124.519 330.001,125.135 330.301,126.234" style="fill:rgb(102,68,151);fill-rule:nonzero;"/>
            </g>
        </g>
        <g transform="matrix(2.1495,0,0,2.1495,-27.6201,-209.116)">
            <path d="M37.355,26.883L37.228,46.851" style="fill:none;stroke:black;stroke-width:1px;"/>
        </g>
        <g transform="matrix(2.1495,0,0,2.1495,-27.6201,-209.116)">
            <path d="M58.082,26.943C58.082,26.943 47.118,36.633 57.69,46.284" style="fill:none;stroke:black;stroke-width:1px;"/>
        </g>
        <g transform="matrix(2.1495,0,0,2.1495,-27.6201,-209.116)">
            <path d="M71.368,28.008L72.474,29.507L72.309,27.85" style="fill:none;stroke:black;stroke-width:1px;"/>
        </g>
        <g transform="matrix(2.1495,0,0,2.1495,-27.6201,-209.116)">
            <path d="M70.473,46.215L72.427,44.282L72.451,45.883" style="fill:none;stroke:black;stroke-width:1px;"/>
        </g>
        <g transform="matrix(2.1495,0,0,2.1495,-27.6201,-209.116)">
            <path d="M78.58,27.108L78.812,46.989" style="fill:none;stroke:black;stroke-width:1px;"/>
        </g>
        <g transform="matrix(2.1495,0,0,2.1495,-27.6201,-209.116)">
            <path d="M84.534,34.158C84.534,34.158 87.992,33.611 87.93,38.12C87.867,42.629 87.83,47.142 87.83,47.142" style="fill:none;stroke:black;stroke-width:1px;"/>
        </g>
        <g transform="matrix(2.1495,0,0,2.1495,-27.6201,-209.116)">
            <path d="M95.58,35.074C95.58,35.074 91.351,39.932 95.129,45.945" style="fill:none;stroke:black;stroke-width:1px;"/>
        </g>
        <g transform="matrix(2.1495,0,0,2.1495,-27.6201,-209.116)">
            <path d="M104.021,35.806C104.021,35.806 107.493,39.72 103.881,45.762" style="fill:none;stroke:black;stroke-width:1px;"/>
        </g>
        <g transform="matrix(2.1495,0,0,2.1495,7.29043,-209.175)">
            <path d="M95.58,35.074C95.58,35.074 91.351,39.932 95.129,45.945" style="fill:none;stroke:black;stroke-width:1px;"/>
        </g>
        <g transform="matrix(2.1495,0,0,2.1495,7.29043,-209.175)">
            <path d="M104.021,35.806C104.021,35.806 107.493,39.72 103.881,45.762" style="fill:none;stroke:black;stroke-width:1px;"/>
        </g>
        <g transform="matrix(2.1495,0,0,2.1495,-53.2905,-139.475)">
            <path d="M95.58,35.074C95.58,35.074 91.351,39.932 95.129,45.945" style="fill:none;stroke:black;stroke-width:1px;"/>
        </g>
        <g transform="matrix(2.1495,0,0,2.1495,-53.2905,-139.475)">
            <path d="M104.021,35.806C104.021,35.806 107.493,39.72 103.881,45.762" style="fill:none;stroke:black;stroke-width:1px;"/>
        </g>
        <g transform="matrix(2.1495,0,0,2.1495,-27.6201,-209.116)">
            <path d="M126.162,35.914C126.162,35.914 125.09,39.843 129.784,40.343C134.477,40.844 134.387,44.844 133.499,46.231" style="fill:none;stroke:black;stroke-width:1px;"/>
        </g>
        <g transform="matrix(2.1495,0,0,2.1495,-27.6201,-209.116)">
            <path d="M126.109,46.964L125.402,46.117L126.109,46.964Z" style="fill:none;stroke:black;stroke-width:1px;"/>
        </g>
        <g transform="matrix(2.1495,0,0,2.1495,-27.6201,-209.116)">
            <path d="M133.045,34.143L133.858,35.169L133.045,34.143Z" style="fill:none;stroke:black;stroke-width:1px;"/>
        </g>
        <g transform="matrix(2.1495,0,0,2.1495,-27.6201,-209.116)">
            <path d="M146.159,34.327C146.159,34.327 147.812,35.443 147.659,37.042" style="fill:none;stroke:black;stroke-width:1px;"/>
        </g>
        <g transform="matrix(2.1495,0,0,2.1495,-27.6201,-209.116)">
            <path d="M139.391,35.352C139.391,35.352 135.948,39.551 139.334,44.546C142.719,49.542 145.184,46.925 145.184,46.925" style="fill:none;stroke:black;stroke-width:1px;"/>
        </g>
        <g transform="matrix(2.1495,0,0,2.1495,-27.6201,-209.116)">
            <path d="M116.685,78.017L117.643,79.288" style="fill:none;stroke:black;stroke-width:1px;"/>
        </g>
        <g transform="matrix(2.1495,0,0,2.1495,-27.6201,-209.116)">
            <path d="M117.813,77.965L116.476,79.174" style="fill:none;stroke:black;stroke-width:1px;"/>
        </g>
        <g transform="matrix(2.1495,0,0,2.1495,-27.6201,-209.116)">
            <path d="M108.053,66.653L108.22,79.125L109.31,79.267" style="fill:none;stroke:black;stroke-width:1px;"/>
        </g>
        <g transform="matrix(2.1495,0,0,2.1495,-27.6201,-209.116)">
            <path d="M98.999,66.396L99.453,77.37C99.453,77.37 99.897,80.515 103.379,79.408" style="fill:none;stroke:black;stroke-width:1px;"/>
        </g>
        <g transform="matrix(2.1495,0,0,2.1495,-27.6201,-209.116)">
            <path d="M62.232,58.623L68.79,69.756L68.912,79.122" style="fill:none;stroke:black;stroke-width:1px;"/>
        </g>
        <g transform="matrix(2.1495,0,0,2.1495,-27.6201,-209.116)">
            <path d="M76.542,58.563L77.228,58.434L76.412,59.494" style="fill:none;stroke:black;stroke-width:1px;"/>
        </g>
        <g transform="matrix(2.1495,0,0,2.1495,-27.6201,-209.116)">
            <path d="M116.58,61.087L117.95,60.961L116.391,62.641L118.026,62.598L116.741,63.854L117.581,63.937L116.818,64.795L117.615,64.901L117.15,67.104" style="fill:none;stroke:black;stroke-width:1px;"/>
        </g>
    </g>
    <rect x="0.896" y="1.04" width="177.967" height="252.726" style="fill:rgb(235,235,235);"/>
</svg>
