<?xml version="1.0" encoding="UTF-8" standalone="no"?>
<svg
   xmlns:dc="http://purl.org/dc/elements/1.1/"
   xmlns:cc="http://creativecommons.org/ns#"
   xmlns:rdf="http://www.w3.org/1999/02/22-rdf-syntax-ns#"
   xmlns:svg="http://www.w3.org/2000/svg"
   xmlns="http://www.w3.org/2000/svg"
   xmlns:sodipodi="http://sodipodi.sourceforge.net/DTD/sodipodi-0.dtd"
   xmlns:inkscape="http://www.inkscape.org/namespaces/inkscape"
   width="210mm"
   height="297mm"
   viewBox="0 0 210 297"
   version="1.1"
   id="svg8"
   inkscape:version="1.0beta2 (2b71d25, 2019-12-03)"
   sodipodi:docname="robin-valentines-day-card.svg">
  <defs
     id="defs2" />
  <sodipodi:namedview
     inkscape:window-maximized="0"
     inkscape:window-y="0"
     inkscape:window-x="0"
     inkscape:window-height="1178"
     inkscape:window-width="1920"
     showgrid="false"
     inkscape:document-rotation="0"
     inkscape:current-layer="g955"
     inkscape:document-units="mm"
     inkscape:cy="612.87168"
     inkscape:cx="239.18201"
     inkscape:zoom="1.2503679"
     inkscape:pageshadow="2"
     inkscape:pageopacity="0.0"
     borderopacity="1.0"
     bordercolor="#666666"
     pagecolor="#ffffff"
     id="base" />
  <metadata
     id="metadata5">
    <rdf:RDF>
      <cc:Work
         rdf:about="">
        <dc:format>image/svg+xml</dc:format>
        <dc:type
           rdf:resource="http://purl.org/dc/dcmitype/StillImage" />
        <dc:title />
      </cc:Work>
    </rdf:RDF>
  </metadata>
  <g
     id="layer1"
     inkscape:groupmode="layer"
     inkscape:label="Layer 1">
    <g
       transform="translate(2.2227354)"
       style="stroke:#000000;stroke-width:0.1;stroke-miterlimit:4;stroke-dasharray:none;stroke-opacity:1"
       id="g955">
      <ellipse
         style="fill:none;stroke:#000000;stroke-width:0.1;stroke-miterlimit:4;stroke-dasharray:none;stroke-opacity:1"
         id="path847"
         cx="79.658516"
         cy="162.05968"
         rx="5.5462317"
         ry="2.6207469" />
      <path
         style="fill:none;stroke:#000000;stroke-width:0.1;stroke-linecap:butt;stroke-linejoin:miter;stroke-miterlimit:4;stroke-dasharray:none;stroke-opacity:1"
         d="m 82.644947,159.80461 c 2.07222,-15.35879 2.925485,-28.61447 35.349613,-35.4406 0,0 0.32835,1.35944 -0.97516,4.11354 1.8479,-0.80784 3.43499,-0.84484 4.9977,-2.31601 1.50948,1.08347 -0.60948,5.60718 -0.60948,5.60718 0,0 1.0841,0.61986 2.07222,0.12189 0.34946,1.57768 -1.21895,3.29117 -1.21895,3.29117 0,0 1.13791,0.67898 2.80359,0.48758 -0.2503,2.68258 -3.16928,4.63202 -3.16928,4.63202 l 1.34085,1.09706 c 0,0 -10.72678,17.30912 -37.909408,20.35649"
         id="path849"
         inkscape:connector-curvature="0"
         sodipodi:nodetypes="ccccccccccc" />
      <path
         sodipodi:nodetypes="ccccccccccc"
         inkscape:connector-curvature="0"
         id="path849-2"
         d="m 76.635357,159.73825 c -1.996159,-15.3609 -2.818105,-28.6184 -34.052097,-35.44547 0,0 -0.316298,1.35963 0.939368,4.1141 -1.780072,-0.80794 -3.308908,-0.84495 -4.814258,-2.31632 -1.454074,1.08362 0.58711,5.60795 0.58711,5.60795 0,0 -1.04431,0.61994 -1.996159,0.12191 -0.336634,1.57789 1.174207,3.29161 1.174207,3.29161 0,0 -1.096143,0.67908 -2.700685,0.48766 0.241114,2.68295 3.052953,4.63266 3.052953,4.63266 l -1.291633,1.0972 c 0,0 10.33305,17.3115 36.51793,20.35929"
         style="fill:none;stroke:#000000;stroke-width:0.1;stroke-linecap:butt;stroke-linejoin:miter;stroke-miterlimit:4;stroke-dasharray:none;stroke-opacity:1" />
      <path
         style="fill:none;stroke:#000000;stroke-width:0.1;stroke-linecap:butt;stroke-linejoin:miter;stroke-miterlimit:4;stroke-dasharray:none;stroke-opacity:1"
         d="m 116.38125,124.55016 -0.491,-2.22156 c 0,0 12.07775,-13.12175 4.29223,-35.142646 -27.771038,8.01945 -28.838427,16.364136 -30.448014,15.693476 -1.609588,-0.67067 -15.954376,-1.67427 -20.246605,0.26826 -1.672876,-1.05218 -15.308435,-12.848397 -33.272158,-13.279091 0.159793,23.651231 7.754273,32.883381 7.754273,32.883381 l 0.154079,1.59216"
         id="path5596"
         inkscape:connector-curvature="0"
         sodipodi:nodetypes="cccccccc" />
      <path
         style="fill:none;stroke:#000000;stroke-width:0.1;stroke-linecap:butt;stroke-linejoin:miter;stroke-miterlimit:4;stroke-dasharray:none;stroke-opacity:1"
         d="m 101.88688,142.71609 c -4.266622,5.6246 -12.199243,0.3235 -12.199243,0.3235 l -0.09821,0.4964 c 0,0 7.829818,5.3231 12.669753,-0.50964"
         id="path5598"
         inkscape:connector-curvature="0"
         sodipodi:nodetypes="cccc" />
      <path
         style="fill:none;stroke:#000000;stroke-width:0.1;stroke-linecap:butt;stroke-linejoin:miter;stroke-miterlimit:4;stroke-dasharray:none;stroke-opacity:1"
         d="m 90.60436,143.63805 -0.271714,1.75379"
         id="path5600"
         inkscape:connector-curvature="0" />
      <path
         style="fill:none;stroke:#000000;stroke-width:0.1;stroke-linecap:butt;stroke-linejoin:miter;stroke-miterlimit:4;stroke-dasharray:none;stroke-opacity:1"
         d="m 93.593218,144.79901 -0.172908,2.14901"
         id="path5602"
         inkscape:connector-curvature="0" />
      <path
         style="fill:none;stroke:#000000;stroke-width:0.1;stroke-linecap:butt;stroke-linejoin:miter;stroke-miterlimit:4;stroke-dasharray:none;stroke-opacity:1"
         d="m 96.359762,145.29303 0.123507,1.90201"
         id="path5604"
         inkscape:connector-curvature="0" />
      <path
         style="fill:none;stroke:#000000;stroke-width:0.1;stroke-linecap:butt;stroke-linejoin:miter;stroke-miterlimit:4;stroke-dasharray:none;stroke-opacity:1"
         d="m 99.323918,144.77431 0.691632,1.63028"
         id="path5606"
         inkscape:connector-curvature="0" />
      <path
         style="fill:none;stroke:#000000;stroke-width:0.1;stroke-linecap:butt;stroke-linejoin:miter;stroke-miterlimit:4;stroke-dasharray:none;stroke-opacity:1"
         d="m 101.12711,143.58865 c 1.28447,1.21036 1.38327,1.30916 1.38327,1.30916"
         id="path5608"
         inkscape:connector-curvature="0" />
      <path
         inkscape:connector-curvature="0"
         id="path5600-6"
         d="m 90.936755,143.73961 -0.271714,1.75379"
         style="fill:none;stroke:#000000;stroke-width:0.1;stroke-linecap:butt;stroke-linejoin:miter;stroke-miterlimit:4;stroke-dasharray:none;stroke-opacity:1" />
      <path
         inkscape:connector-curvature="0"
         id="path5602-0"
         d="m 93.90481,144.85593 -0.172908,2.14901"
         style="fill:none;stroke:#000000;stroke-width:0.1;stroke-linecap:butt;stroke-linejoin:miter;stroke-miterlimit:4;stroke-dasharray:none;stroke-opacity:1" />
      <path
         inkscape:connector-curvature="0"
         id="path5604-9"
         d="m 96.037199,145.30259 0.123507,1.90201"
         style="fill:none;stroke:#000000;stroke-width:0.1;stroke-linecap:butt;stroke-linejoin:miter;stroke-miterlimit:4;stroke-dasharray:none;stroke-opacity:1" />
      <path
         inkscape:connector-curvature="0"
         id="path5606-4"
         d="m 99.030916,144.87523 0.691632,1.63028"
         style="fill:none;stroke:#000000;stroke-width:0.1;stroke-linecap:butt;stroke-linejoin:miter;stroke-miterlimit:4;stroke-dasharray:none;stroke-opacity:1" />
      <path
         inkscape:connector-curvature="0"
         id="path5608-1"
         d="m 100.90888,143.80914 c 1.28447,1.21036 1.38327,1.30916 1.38327,1.30916"
         style="fill:none;stroke:#000000;stroke-width:0.1;stroke-linecap:butt;stroke-linejoin:miter;stroke-miterlimit:4;stroke-dasharray:none;stroke-opacity:1" />
      <path
         sodipodi:nodetypes="cccc"
         inkscape:connector-curvature="0"
         id="path5598-3"
         d="m 56.714798,142.64967 c 4.240733,5.6246 12.125225,0.3235 12.125225,0.3235 l 0.09761,0.4964 c 0,0 -7.782316,5.3231 -12.59288,-0.50964"
         style="fill:none;stroke:#000000;stroke-width:0.1;stroke-linecap:butt;stroke-linejoin:miter;stroke-miterlimit:4;stroke-dasharray:none;stroke-opacity:1" />
      <path
         inkscape:connector-curvature="0"
         id="path5600-7"
         d="m 67.928862,143.57163 0.270066,1.75379"
         style="fill:none;stroke:#000000;stroke-width:0.1;stroke-linecap:butt;stroke-linejoin:miter;stroke-miterlimit:4;stroke-dasharray:none;stroke-opacity:1" />
      <path
         inkscape:connector-curvature="0"
         id="path5602-8"
         d="m 64.958139,144.73259 0.171859,2.14901"
         style="fill:none;stroke:#000000;stroke-width:0.1;stroke-linecap:butt;stroke-linejoin:miter;stroke-miterlimit:4;stroke-dasharray:none;stroke-opacity:1" />
      <path
         inkscape:connector-curvature="0"
         id="path5604-8"
         d="m 62.208383,145.22661 -0.122761,1.90201"
         style="fill:none;stroke:#000000;stroke-width:0.1;stroke-linecap:butt;stroke-linejoin:miter;stroke-miterlimit:4;stroke-dasharray:none;stroke-opacity:1" />
      <path
         inkscape:connector-curvature="0"
         id="path5606-3"
         d="m 59.262207,144.70789 -0.687433,1.63028"
         style="fill:none;stroke:#000000;stroke-width:0.1;stroke-linecap:butt;stroke-linejoin:miter;stroke-miterlimit:4;stroke-dasharray:none;stroke-opacity:1" />
      <path
         inkscape:connector-curvature="0"
         id="path5608-8"
         d="m 57.469958,143.52223 c -1.276676,1.21036 -1.374877,1.30916 -1.374877,1.30916"
         style="fill:none;stroke:#000000;stroke-width:0.1;stroke-linecap:butt;stroke-linejoin:miter;stroke-miterlimit:4;stroke-dasharray:none;stroke-opacity:1" />
      <path
         style="fill:none;stroke:#000000;stroke-width:0.1;stroke-linecap:butt;stroke-linejoin:miter;stroke-miterlimit:4;stroke-dasharray:none;stroke-opacity:1"
         d="m 67.598484,143.67319 0.270065,1.75379"
         id="path5600-6-1"
         inkscape:connector-curvature="0" />
      <path
         style="fill:none;stroke:#000000;stroke-width:0.1;stroke-linecap:butt;stroke-linejoin:miter;stroke-miterlimit:4;stroke-dasharray:none;stroke-opacity:1"
         d="m 64.648437,144.78951 0.171859,2.14901"
         id="path5602-0-5"
         inkscape:connector-curvature="0" />
      <path
         style="fill:none;stroke:#000000;stroke-width:0.1;stroke-linecap:butt;stroke-linejoin:miter;stroke-miterlimit:4;stroke-dasharray:none;stroke-opacity:1"
         d="m 62.528986,145.23617 -0.122761,1.90201"
         id="path5604-9-3"
         inkscape:connector-curvature="0" />
      <path
         style="fill:none;stroke:#000000;stroke-width:0.1;stroke-linecap:butt;stroke-linejoin:miter;stroke-miterlimit:4;stroke-dasharray:none;stroke-opacity:1"
         d="m 59.55343,144.80881 -0.687434,1.63028"
         id="path5606-4-5"
         inkscape:connector-curvature="0" />
      <path
         style="fill:none;stroke:#000000;stroke-width:0.1;stroke-linecap:butt;stroke-linejoin:miter;stroke-miterlimit:4;stroke-dasharray:none;stroke-opacity:1"
         d="m 57.686864,143.74272 c -1.276677,1.21036 -1.374877,1.30916 -1.374877,1.30916"
         id="path5608-1-4"
         inkscape:connector-curvature="0" />
      <path
         style="fill:none;stroke:#000000;stroke-width:0.1;stroke-linecap:butt;stroke-linejoin:miter;stroke-miterlimit:4;stroke-dasharray:none;stroke-opacity:1"
         d="m 97.114396,106.59695 c 6.703184,3.0246 14.060334,10.87223 14.060334,10.87223 0,0 8.00445,-10.2931 6.70318,-23.215898 -11.19922,1.798413 -20.763514,12.343668 -20.763514,12.343668 z"
         id="path5745"
         inkscape:connector-curvature="0"
         sodipodi:nodetypes="cccc" />
      <path
         sodipodi:nodetypes="cccc"
         inkscape:connector-curvature="0"
         id="path5745-5"
         d="m 62.673678,106.74339 c -9.228481,2.39507 -15.505259,11.35334 -15.505259,11.35334 0,0 -6.17962,-10.63735 -4.895934,-22.96603 11.047886,1.715732 20.401193,11.61269 20.401193,11.61269 z"
         style="fill:none;stroke:#000000;stroke-width:0.1;stroke-linecap:butt;stroke-linejoin:miter;stroke-miterlimit:4;stroke-dasharray:none;stroke-opacity:1" />
      <path
         style="fill:none;stroke:#000000;stroke-width:0.1;stroke-linecap:butt;stroke-linejoin:miter;stroke-miterlimit:4;stroke-dasharray:none;stroke-opacity:1"
         d="m 63.331361,159.61876 c -6.480737,5.09115 -5.479311,14.71141 -5.479311,14.71141 1.056477,-0.41772 1.043313,-0.39748 2.40099,-0.27601 -0.0476,2.29516 -1.628443,11.60654 1.113949,15.07022 0.581789,-1.54912 1.493446,-1.62922 1.493446,-1.62922 0,0 -0.150659,6.65356 5.403738,13.77689"
         id="path5762"
         inkscape:connector-curvature="0"
         sodipodi:nodetypes="cccccc" />
      <path
         style="fill:none;stroke:#000000;stroke-width:0.1;stroke-linecap:butt;stroke-linejoin:miter;stroke-miterlimit:4;stroke-dasharray:none;stroke-opacity:1"
         d="m 91.255309,161.02047 c 3.69559,4.16931 2.710758,13.5031 2.710758,13.5031 0,0 -0.414213,-0.25917 -2.26541,-0.2952 0.707139,1.00892 1.715136,9.92827 -0.0085,15.08945 -1.34978,-1.64316 -1.924407,-1.57583 -1.924407,-1.57583 0,0 0.404967,7.65309 -4.251441,13.31763"
         id="path5764"
         inkscape:connector-curvature="0"
         sodipodi:nodetypes="cccccc" />
      <path
         style="fill:none;stroke:#000000;stroke-width:0.1;stroke-linecap:butt;stroke-linejoin:miter;stroke-miterlimit:4;stroke-dasharray:none;stroke-opacity:1"
         d="m 102.36883,157.35474 c 12.08332,14.39137 24.43818,25.52432 24.43818,25.52432 0,0 21.44177,21.04673 11.94756,43.71719 -10.5756,25.25262 -44.998864,25.92045 -58.052796,26.32018 C 67.647843,253.31616 34.947867,246.66731 24.57395,234.19924 5.2584971,210.98463 20.500919,192.7901 20.500919,192.7901 c 0,0 8.281829,13.30524 19.550547,13.98407 11.268717,0.67884 16.349402,-3.81675 32.855778,-6.10954 10.45411,-1.45211 38.676536,4.41857 47.518686,15.47751"
         id="path5766"
         inkscape:connector-curvature="0"
         sodipodi:nodetypes="ccszscssc" />
      <path
         style="fill:none;stroke:#000000;stroke-width:0.1;stroke-linecap:butt;stroke-linejoin:miter;stroke-miterlimit:4;stroke-dasharray:none;stroke-opacity:1"
         d="m 97.000938,203.43726 c 2.036514,-10.18257 12.292042,-15.80633 12.292042,-15.80633"
         id="path5768"
         inkscape:connector-curvature="0"
         sodipodi:nodetypes="cc" />
      <path
         style="fill:none;stroke:#000000;stroke-width:0.1;stroke-linecap:butt;stroke-linejoin:miter;stroke-miterlimit:4;stroke-dasharray:none;stroke-opacity:1"
         d="m 52.236758,205.5292 c -1.849068,2.95448 -3.345832,4.33664 -7.936094,8.03007 1.830037,1.27806 3.895487,1.78852 5.526074,4.07632 -4.504623,4.41386 -6.201627,4.81482 -9.911041,6.38108 1.249613,1.56626 4.162389,3.70191 5.973779,6.38108 -1.950318,0.9553 -7.929344,1.63381 -10.861416,2.44382 3.846023,5.1282 4.802339,11.43471 4.802339,11.43471"
         id="path5770"
         inkscape:connector-curvature="0"
         sodipodi:nodetypes="ccccccc" />
    </g>
    <g
       style="stroke:#000000;stroke-opacity:1;stroke-width:0.1;stroke-miterlimit:4;stroke-dasharray:none"
       id="g920">
      <circle
         style="fill:none;stroke:#000000;stroke-width:0.1;stroke-opacity:1;stroke-miterlimit:4;stroke-dasharray:none"
         id="path872"
         cx="80.207809"
         cy="162.16687"
         r="124.80037" />
      <circle
         r="122.30436"
         cy="161.925"
         cx="79.904167"
         id="path872-6"
         style="fill:none;stroke:#000000;stroke-width:0.1;stroke-opacity:1;stroke-miterlimit:4;stroke-dasharray:none" />
    </g>
    <g
       style="stroke:#000000;stroke-width:0.377953;stroke-miterlimit:4;stroke-dasharray:none;stroke-opacity:1"
       transform="matrix(0.264583,0,0,0.264583,9.3290344,111.197)"
       id="g998">
      <g
         style="stroke:#000000;stroke-width:0.377953;stroke-miterlimit:4;stroke-dasharray:none;stroke-opacity:1"
         id="g973">
        <path
           sodipodi:nodetypes="csscccssccc"
           style="fill:none;stroke:#000000;stroke-width:0.561017;stroke-miterlimit:4;stroke-dasharray:none;stroke-opacity:1"
           inkscape:connector-curvature="0"
           d="m 74.318962,24.234283 c 2.549432,-2.773747 3.954396,-6.459178 3.954396,-10.38143 0,-8.0952545 -6.056859,-14.68135558 -13.501599,-14.68135558 -3.60707,0 -6.997772,1.52618 -9.547204,4.29992698 l -1.150162,1.250663 -1.150163,-1.250663 c -2.549432,-2.77374698 -5.938711,-4.29992698 -9.547203,-4.29992698 -7.44474,0 -13.501599,6.58610108 -13.501599,14.68135558 0,3.920704 1.404963,7.607683 3.954396,10.38143 l 20.244569,22.01352 z"
           id="path957" />
        <path
           id="path957-0"
           d="m 23.400652,-26.380911 c 2.549432,-2.77374 3.954396,-6.45918 3.954396,-10.38143 0,-8.09525 -6.056859,-14.68135 -13.501599,-14.68135 -3.60707,0 -6.9977718,1.52618 -9.5472038,4.29992 l -1.150162,1.25067 -1.150163,-1.25067 c -2.549432,-2.77374 -5.938711,-4.29992 -9.547203,-4.29992 -7.4447412,0 -13.5016002,6.5861 -13.5016002,14.68135 0,3.92071 1.404964,7.60769 3.954396,10.38143 L 3.1560832,-4.3673904 Z"
           inkscape:connector-curvature="0"
           style="fill:none;stroke:#000000;stroke-width:0.561017;stroke-miterlimit:4;stroke-dasharray:none;stroke-opacity:1"
           sodipodi:nodetypes="csscccssccc" />
        <path
           id="path957-6"
           d="m 68.685529,-104.89149 c 2.549432,-2.77374 3.954396,-6.45918 3.954396,-10.38143 0,-8.09525 -6.056859,-14.68135 -13.501599,-14.68135 -3.60707,0 -6.997772,1.52618 -9.547204,4.29992 l -1.150162,1.25067 -1.150163,-1.25067 c -2.549432,-2.77374 -5.938711,-4.29992 -9.547203,-4.29992 -7.444741,0 -13.5016,6.5861 -13.5016,14.68135 0,3.92071 1.404964,7.60769 3.954396,10.38143 l 20.24457,22.01352 z"
           inkscape:connector-curvature="0"
           style="fill:none;stroke:#000000;stroke-width:0.561017;stroke-miterlimit:4;stroke-dasharray:none;stroke-opacity:1"
           sodipodi:nodetypes="csscccssccc" />
        <g
           inkscape:label="Hershey Text"
           style="fill:none;stroke:#000000;stroke-linecap:round;stroke-linejoin:round"
           id="g1116">
          <g
             transform="translate(26.5748,816.021)"
             id="g1084">
            <path
               inkscape:connector-curvature="0"
               d="M 220,662 V 0 M 662,662 V 0 M 220,346 h 442"
               style="stroke-width:0.0198in"
               transform="scale(0.138091,-0.138091)"
               id="path1074" />
            <path
               inkscape:connector-curvature="0"
               d="M 567,441 V 0 m 0,346 -63,64 -63,31 H 346 L 284,410 220,346 189,252 V 189 L 220,94.5 284,31.5 346,0 h 95 l 63,31.5 63,63"
               style="stroke-width:0.0198in"
               transform="matrix(0.138091,0,0,-0.138091,95.6971,0)"
               id="path1076" />
            <path
               inkscape:connector-curvature="0"
               d="m 220,441 v -661 m 0,566 64,64 62,31 h 95 l 63,-31 63,-64 31,-94 V 189 L 567,94.5 504,31.5 441,0 h -95 l -62,31.5 -64,63"
               style="stroke-width:0.0198in"
               transform="matrix(0.138091,0,0,-0.138091,178.275,0)"
               id="path1078" />
            <path
               inkscape:connector-curvature="0"
               d="m 220,441 v -661 m 0,566 64,64 62,31 h 95 l 63,-31 63,-64 31,-94 V 189 L 567,94.5 504,31.5 441,0 h -95 l -62,31.5 -64,63"
               style="stroke-width:0.0198in"
               transform="matrix(0.138091,0,0,-0.138091,260.854,0)"
               id="path1080" />
            <path
               inkscape:connector-curvature="0"
               d="M 158,441 346,0 M 536,441 346,0 l -62,-126 -64,-63 -62,-31 h -32"
               style="stroke-width:0.0198in"
               transform="matrix(0.138091,0,0,-0.138091,343.432,0)"
               id="path1082" />
          </g>
          <g
             transform="translate(-80.0315,988.635)"
             id="g1106">
            <path
               inkscape:connector-curvature="0"
               transform="scale(0.138091,-0.138091)"
               d="M 126,662 378,0 M 630,662 378,0"
               style="stroke-width:0.0198in"
               id="path1086" />
            <path
               inkscape:connector-curvature="0"
               transform="matrix(0.138091,0,0,-0.138091,78.2976,0)"
               d="M 567,441 V 0 m 0,346 -63,64 -63,31 H 346 L 284,410 220,346 189,252 V 189 L 220,94.5 284,31.5 346,0 h 95 l 63,31.5 63,63"
               style="stroke-width:0.0198in"
               id="path1088" />
            <path
               inkscape:connector-curvature="0"
               transform="matrix(0.138091,0,0,-0.138091,160.876,0)"
               d="M 220,662 V 0"
               style="stroke-width:0.0198in"
               id="path1090" />
            <path
               inkscape:connector-curvature="0"
               transform="matrix(0.138091,0,0,-0.138091,195.675,0)"
               d="m 189,252 h 378 v 63 l -31,63 -32,32 -63,31 H 346 L 284,410 220,346 189,252 V 189 L 220,94.5 284,31.5 346,0 h 95 l 63,31.5 63,63"
               style="stroke-width:0.0198in"
               id="path1092" />
            <path
               inkscape:connector-curvature="0"
               transform="matrix(0.138091,0,0,-0.138091,273.973,0)"
               d="M 220,441 V 0 m 0,315 95,95 63,31 h 94 l 64,-31 31,-95 V 0"
               style="stroke-width:0.0198in"
               id="path1094" />
            <path
               inkscape:connector-curvature="0"
               transform="matrix(0.138091,0,0,-0.138091,356.551,0)"
               d="M 252,662 V 126 L 284,31.5 346,0 h 64 M 158,441 h 220"
               style="stroke-width:0.0198in"
               id="path1096" />
            <path
               inkscape:connector-curvature="0"
               transform="matrix(0.138091,0,0,-0.138091,408.749,0)"
               d="m 189,662 31,-32 32,32 -32,31 -31,-31 M 220,441 V 0"
               style="stroke-width:0.0198in"
               id="path1098" />
            <path
               inkscape:connector-curvature="0"
               transform="matrix(0.138091,0,0,-0.138091,443.548,0)"
               d="M 220,441 V 0 m 0,315 95,95 63,31 h 94 l 64,-31 31,-95 V 0"
               style="stroke-width:0.0198in"
               id="path1100" />
            <path
               inkscape:connector-curvature="0"
               transform="matrix(0.138091,0,0,-0.138091,526.127,0)"
               d="m 189,252 h 378 v 63 l -31,63 -32,32 -63,31 H 346 L 284,410 220,346 189,252 V 189 L 220,94.5 284,31.5 346,0 h 95 l 63,31.5 63,63"
               style="stroke-width:0.0198in"
               id="path1102" />
            <path
               inkscape:connector-curvature="0"
               transform="matrix(0.138091,0,0,-0.138091,604.424,0)"
               d="m 536,346 -32,64 -94,31 h -95 l -95,-31 -31,-64 31,-62 64,-32 157,-32 63,-31 32,-63 V 94.5 L 504,31.5 410,0 h -95 l -95,31.5 -31,63"
               style="stroke-width:0.0198in"
               id="path1104" />
          </g>
          <g
             transform="translate(137.393,1161.25)"
             id="g1114">
            <path
               inkscape:connector-curvature="0"
               d="M 220,662 V 0 m 0,662 h 221 l 95,-32 62,-63 32,-63 32,-94 V 252 L 630,158 598,94.5 536,31.5 441,0 H 220"
               style="stroke-width:0.0198in"
               transform="scale(0.138091,-0.138091)"
               id="path1108" />
            <path
               inkscape:connector-curvature="0"
               d="M 567,441 V 0 m 0,346 -63,64 -63,31 H 346 L 284,410 220,346 189,252 V 189 L 220,94.5 284,31.5 346,0 h 95 l 63,31.5 63,63"
               style="stroke-width:0.0198in"
               transform="matrix(0.138091,0,0,-0.138091,91.4162,0)"
               id="path1110" />
            <path
               inkscape:connector-curvature="0"
               d="M 158,441 346,0 M 536,441 346,0 l -62,-126 -64,-63 -62,-31 h -32"
               style="stroke-width:0.0198in"
               transform="matrix(0.138091,0,0,-0.138091,173.995,0)"
               id="path1112" />
          </g>
        </g>
      </g>
    </g>
  </g>
</svg>
