<?xml version="1.0" encoding="UTF-8" standalone="no"?>
<!DOCTYPE svg PUBLIC "-//W3C//DTD SVG 1.1//EN" "http://www.w3.org/Graphics/SVG/1.1/DTD/svg11.dtd">
<svg width="100%" height="100%" viewBox="0 0 600 1600" version="1.1" xmlns="http://www.w3.org/2000/svg" xmlns:xlink="http://www.w3.org/1999/xlink" xml:space="preserve" xmlns:serif="http://www.serif.com/" style="fill-rule:evenodd;clip-rule:evenodd;stroke-linecap:round;stroke-linejoin:round;stroke-miterlimit:1.5;">
    <g transform="matrix(0.993708,0,0,0.993708,-25.4879,41.0948)">
        <path d="M306.281,648.189L326.306,660.768L326.306,685.927L306.281,698.506L286.257,685.927L286.257,660.768L306.281,648.189Z" style="fill:none;stroke:black;stroke-width:1.01px;"/>
    </g>
    <g transform="matrix(0.993708,0,0,0.993708,-1.63839,-0.887715)">
        <path d="M306.281,648.189L326.306,660.768L326.306,685.927L306.281,698.506L286.257,685.927L286.257,660.768L306.281,648.189Z" style="fill:none;stroke:black;stroke-width:1.01px;"/>
    </g>
    <g transform="matrix(0.993708,0,0,0.993708,23.4966,41.0317)">
        <path d="M306.281,648.189L326.306,660.768L326.306,685.927L306.281,698.506L286.257,685.927L286.257,660.768L306.281,648.189Z" style="fill:none;stroke:black;stroke-width:1.01px;"/>
    </g>
    <g>
        <path d="M304.126,230.408C304.126,230.408 478.033,300.802 472.932,778.129C470.403,1014.89 431.615,1382.98 302.216,1381.96C138.76,1380.68 134.839,851.931 134.085,775.935C129.364,299.713 304.126,230.408 304.126,230.408Z" style="fill:none;fill-rule:nonzero;stroke:black;stroke-width:1px;stroke-linecap:butt;stroke-linejoin:miter;stroke-miterlimit:10;"/>
        <path d="M304.139,230.906L303.024,642.114" style="fill:none;fill-rule:nonzero;stroke:black;stroke-width:1px;stroke-linecap:butt;stroke-linejoin:miter;stroke-miterlimit:10;"/>
        <g transform="matrix(1,0,0,1,-1.48643,741.342)">
            <path d="M304.051,-47.859L303.929,638.564" style="fill:none;fill-rule:nonzero;stroke:black;stroke-width:1px;stroke-linecap:butt;stroke-linejoin:miter;stroke-miterlimit:10;"/>
        </g>
        <g transform="matrix(1,0,0,1,1.62517,84.8334)">
            <path d="M290,1266C290,1260.48 294.477,1256 300,1256C305.523,1256 310,1260.48 310,1266C310,1271.52 305.523,1276 300,1276C294.477,1276 290,1271.52 290,1266Z" style="fill:none;fill-rule:nonzero;stroke:black;stroke-width:1px;stroke-linecap:butt;stroke-linejoin:miter;stroke-miterlimit:10;"/>
        </g>
        <g transform="matrix(1,0,0,1,1.62517,84.8334)">
            <path d="M292,1266C292,1261.58 295.582,1258 300,1258C304.418,1258 308,1261.58 308,1266C308,1270.42 304.418,1274 300,1274C295.582,1274 292,1270.42 292,1266Z" style="fill:none;fill-rule:nonzero;stroke:black;stroke-width:1px;stroke-linecap:butt;stroke-linejoin:miter;stroke-miterlimit:10;"/>
        </g>
    </g>
</svg>
