<?xml version="1.0" encoding="UTF-8" standalone="no"?>
<!DOCTYPE svg PUBLIC "-//W3C//DTD SVG 1.1//EN" "http://www.w3.org/Graphics/SVG/1.1/DTD/svg11.dtd">
<svg width="100%" height="100%" viewBox="0 0 600 1600" version="1.1" xmlns="http://www.w3.org/2000/svg" xmlns:xlink="http://www.w3.org/1999/xlink" xml:space="preserve" xmlns:serif="http://www.serif.com/" style="fill-rule:evenodd;clip-rule:evenodd;stroke-linecap:round;stroke-linejoin:round;stroke-miterlimit:1.5;">
    <g transform="matrix(1.31997,-4.42994e-18,3.85121e-18,-1.17897,-115.84,1535.8)">
        <g transform="matrix(0.757593,-2.84663e-18,2.47474e-18,-0.848198,87.7596,1302.66)">
            <path d="M378.274,937.643C378.116,907.991 417.95,908.437 418.005,938.546L417.287,999.391C417.394,1022.67 378.329,1026.58 378.47,998.228L378.316,947.307L378.274,937.643Z" style="fill:none;stroke:black;stroke-width:1px;"/>
        </g>
        <g transform="matrix(0.757593,-2.84663e-18,2.47474e-18,-0.848198,87.7596,1302.66)">
            <path d="M417.374,999.607C418.449,969.414 378.333,967.15 378.375,935.04" style="fill:none;stroke:black;stroke-width:1px;"/>
        </g>
        <g transform="matrix(0.784464,-2.9476e-18,2.49637e-18,-0.855609,77.1649,1309.56)">
            <path d="M378.274,937.643C378.116,907.991 417.95,908.437 418.005,938.546L417.287,999.391C417.394,1022.67 378.329,1026.58 378.47,998.228L378.316,947.307L378.274,937.643Z" style="fill:none;stroke:black;stroke-width:0.98px;"/>
        </g>
        <g transform="matrix(0.784464,-2.9476e-18,2.49637e-18,-0.855609,77.3809,1309.17)">
            <path d="M417.374,999.607C418.449,969.414 378.333,967.15 378.375,935.04" style="fill:none;stroke:black;stroke-width:0.98px;"/>
        </g>
        <g transform="matrix(0.810415,-3.04511e-18,2.52245e-18,-0.864548,66.9151,1318.15)">
            <path d="M378.274,937.643C378.116,907.991 417.95,908.437 418.005,938.546L417.287,999.391C417.394,1022.67 378.329,1026.58 378.47,998.228L378.316,947.307L378.274,937.643Z" style="fill:none;stroke:black;stroke-width:0.96px;"/>
        </g>
        <g transform="matrix(0.770299,-2.89437e-18,2.45988e-18,-0.843102,82.4848,1296.67)">
            <path d="M417.374,999.607C418.449,969.414 378.333,967.15 378.375,935.04" style="fill:none;stroke:black;stroke-width:0.99px;"/>
        </g>
        <g transform="matrix(0.694196,-2.60842e-18,2.32635e-18,-0.797338,107.036,1232.04)">
            <ellipse cx="301.907" cy="1371.71" rx="13.642" ry="13.297" style="fill:none;"/>
        </g>
        <g transform="matrix(0.833035,-3.1301e-18,2.79163e-18,-0.956806,64.997,1450.49)">
            <ellipse cx="301.907" cy="1371.71" rx="13.642" ry="13.297" style="fill:none;"/>
        </g>
        <g transform="matrix(0.757593,-2.84663e-18,2.47474e-18,-0.848198,87.7596,1302.66)">
            <path d="M293.59,226.043L294.867,1403.74L309.757,1403.3L308.338,225.676L296.195,230.239L308.347,233.474L293.603,238.181L308.357,241.745L293.609,243.991L308.366,248.943L293.621,254.188L308.376,257.474L293.63,262.893L308.387,266.763L293.641,272.919L308.401,278.219L293.651,282.146L308.411,286.718L293.666,295.918L308.427,299.688L293.676,305.661L308.446,315.243L293.692,320.218L308.459,326.739L293.703,330.32L308.471,336.649L293.716,342.38L308.484,347.362L293.732,356.649L308.5,360.702L293.744,368.146L308.517,374.938L293.758,380.777L308.53,385.424L293.771,392.646L308.545,398.01L293.782,403.491L308.559,409.028L293.794,414.376L308.573,420.723L293.805,424.645L308.586,431.821L293.817,435.387L308.604,446.789L293.834,450.685L308.617,457.647L293.847,462.686L308.632,469.651L293.859,473.809L308.647,482.169L293.87,483.848L308.66,493.198L293.882,495.471L308.671,502.568L293.894,506.679L308.685,514.271L293.907,518.696L308.699,525.784L293.919,529.684L308.713,537.212L293.934,543.473L308.726,548.049L293.947,555.001L308.742,561.154L293.959,566.064L308.758,574.365L293.973,579.037L308.77,584.163L293.984,589.476L308.784,596.277L293.998,602.174L308.801,609.849L294.011,614.584L308.814,620.846L294.025,626.771L308.827,631.59L294.035,636.759L308.841,643.624L294.048,647.953L308.853,653.513L294.06,659.489L308.871,668.379L294.078,676.259L308.886,681.096L294.091,687.796L308.908,699.235L294.107,702.531L308.921,709.472L294.123,717.458L308.937,722.681L296.635,729.694L308.949,732.921L294.147,739.76L308.964,745.105L294.158,750.073L308.976,755.189L294.169,760.069L308.989,765.993L294.181,770.576L309.004,778.548L294.192,780.722L309.012,785.72L294.205,792.778L309.025,796.041L294.216,803.247L309.04,808.825L294.231,816.915L309.058,823.837L294.244,829.106L309.071,833.855L294.257,841.35L309.085,846.181L294.271,854.273L309.099,857.4L294.278,860.383L309.11,866.986L294.291,872.49L309.122,876.246L294.301,881.794L309.135,887.253L294.313,893.063L309.147,896.99L294.325,904.137L309.162,909.894L294.337,914.42L309.175,920.241L294.348,925.345L309.187,930.933L294.36,935.701L309.202,943.288L294.373,947.801L309.213,952.332L294.385,958.877L309.227,963.94L294.398,970.728L309.244,977.513L294.41,982.555L309.256,987.97L294.422,993.027L309.267,996.838L294.434,1004.22L309.282,1009.3L294.446,1015.3L309.296,1021.21L294.458,1026.82L309.309,1031.62L294.472,1039.16L309.326,1045.5L294.484,1049.99L309.336,1054.13L294.496,1061.87L309.348,1064.27L294.508,1072.49L309.363,1076.6L294.518,1082L309.376,1087.68L294.531,1093.88L309.388,1097.65L294.542,1103.65L309.404,1110.35L294.555,1116.09L309.418,1121.93L294.567,1126.55L309.434,1135.19L294.58,1138.61L309.445,1144.19L294.592,1150.19L309.457,1154.36L294.603,1160.02L309.469,1164.52L294.615,1171.03L309.482,1175.59L294.625,1180.67L309.497,1187.79L294.636,1190.06L309.508,1196.69L294.646,1199.93L309.521,1207.67L294.661,1213.47L309.536,1220.49L294.672,1224.11L309.549,1231.08L294.685,1235.47L309.561,1241.06L294.695,1244.79L309.575,1252.31L294.706,1255.38L309.587,1262.06L294.719,1267.27L309.6,1273.01L294.732,1279.2L309.611,1282.59L294.746,1291.82L309.628,1296.31L294.755,1299.94L309.642,1308.05L294.769,1313.58L309.655,1318.77L294.784,1326.59L309.669,1330.8L294.796,1338.25L309.681,1340.28L294.807,1348.32L309.693,1350.47L294.823,1363.12L309.711,1365.52L294.833,1372.07L309.724,1376.43L294.845,1382.87L309.737,1386.67L294.856,1392.9L309.747,1395.37L294.863,1400.17L302.704,1407.04L306.01,1400.11" style="fill:none;stroke:black;stroke-width:1px;"/>
        </g>
    </g>
    <g>
        <path d="M302.262,225.382C420.826,224.742 466.259,467.471 472.314,778.416C476.484,992.582 456.81,1143.07 428.313,1242.09C427.509,1244.88 423.363,1247.35 422.541,1250.07C409.764,1292.25 394.485,1353.48 394.485,1353.48C394.485,1353.48 370.004,1363.73 363.192,1390.3C319.116,1391.59 302.576,1410.7 302.576,1410.7C302.576,1410.7 284.618,1390.19 241.886,1389.18C233.886,1363.23 211.618,1355.04 211.618,1355.04C211.618,1355.04 194.562,1290.19 181.527,1244.8C180.68,1241.85 175.259,1238.75 174.444,1235.71C153.998,1159.32 128.417,982.934 132.369,774.491C137.832,486.362 175.077,226.069 302.262,225.382Z" style="fill:none;fill-rule:nonzero;stroke:black;stroke-width:1.5px;stroke-linecap:butt;stroke-linejoin:miter;stroke-miterlimit:10;"/>
    </g>
</svg>
