<?xml version="1.0" encoding="UTF-8" standalone="no"?>
<!DOCTYPE svg PUBLIC "-//W3C//DTD SVG 1.1//EN" "http://www.w3.org/Graphics/SVG/1.1/DTD/svg11.dtd">
<svg width="100%" height="100%" viewBox="0 0 600 1600" version="1.1" xmlns="http://www.w3.org/2000/svg" xmlns:xlink="http://www.w3.org/1999/xlink" xml:space="preserve" xmlns:serif="http://www.serif.com/" style="fill-rule:evenodd;clip-rule:evenodd;stroke-miterlimit:10;">
    <g>
        <path d="M305.927,168.987C440.368,157.335 483.228,595.35 482.914,779.35C482.876,801.656 494.576,1149.2 368.425,1420.37C357.638,1421.87 330.436,1425.61 287.851,1388.78C258.364,1359.75 232.416,1355.39 218.745,1336.92C136.42,1194.16 133.515,801.967 133.088,775.929C130.276,604.357 175.354,162.13 305.927,168.987Z" style="fill:none;fill-rule:nonzero;stroke:black;stroke-width:1px;"/>
        <g transform="matrix(1,0,0,1,-23.3355,-36.5057)">
            <ellipse cx="330.371" cy="728.626" rx="105.376" ry="105.092" style="fill:none;stroke:black;stroke-width:0.75px;stroke-linecap:round;stroke-linejoin:round;stroke-miterlimit:1.5;"/>
        </g>
        <g transform="matrix(1,0,0,1,-23.7193,127.26)">
            <ellipse cx="330.371" cy="728.626" rx="105.376" ry="105.092" style="fill:none;stroke:black;stroke-width:0.75px;stroke-linecap:round;stroke-linejoin:round;stroke-miterlimit:1.5;"/>
        </g>
        <path d="M242.402,773.837C242.464,773.682 243.179,773.113 243.301,773.238C243.438,773.379 243.553,774.833 243.685,774.76C243.886,774.649 243.887,774.212 243.909,774.038C244.001,773.31 244.046,772.564 244.139,771.834C244.139,771.833 244.342,771.153 244.414,771.346C244.83,772.454 244.152,774.08 244.676,775.129C244.729,775.235 245.49,775.873 245.645,775.682C245.822,775.464 245.908,774.818 245.95,774.566C246.135,773.467 246.374,772.198 246.654,771.159C246.702,770.983 246.915,770.304 247.22,770.457C247.479,770.586 247.503,771.516 247.503,771.743C247.503,773.032 247.313,774.516 247.04,775.767C246.877,776.514 247.222,776.716 247.548,777.23C247.605,777.321 248.201,777.68 248.296,777.498C249.371,775.429 249.378,772.844 249.021,770.537C248.862,769.516 248.784,768.296 250.046,768.61C251.159,768.887 250.948,770.635 250.948,771.451C250.948,772.047 250.67,772.538 250.534,773.101C250.168,774.626 248.83,778.255 250.619,779.144C250.954,779.31 251.031,778.701 251.083,778.516C251.295,777.762 251.395,776.995 251.521,776.235C251.639,775.522 251.774,774.81 251.921,774.092C252.035,773.538 252.127,772.969 252.219,772.417C252.288,771.999 252.281,771.57 252.334,771.151C252.488,769.933 252.895,766.517 254.89,767.013C255.29,767.113 255.241,767.73 255.207,768.028C255.068,769.218 254.389,770.18 253.976,771.282C253.205,773.337 252.897,775.443 252.54,777.574C252.376,778.55 251.761,779.658 252.375,780.628C252.677,781.106 253.622,781.132 254.09,781.367C254.383,781.513 254.45,780.927 254.487,780.758C254.696,779.81 254.843,778.894 254.991,777.935C255.328,775.762 255.331,773.508 255.604,771.317C255.752,770.131 256.399,769.005 256.595,767.824C256.779,766.714 256.649,766.167 257.573,765.469C257.716,765.361 258.107,765.129 258.336,765.244C258.491,765.321 258.401,766.013 258.401,766.155C258.401,767.12 258.265,768.087 258.265,769.049C258.265,770.039 257.913,770.961 257.792,771.932C257.706,772.621 257.678,773.367 257.55,774.045C257.376,774.969 257.122,775.897 256.923,776.803C256.742,777.63 256.993,778.568 256.886,779.409C256.742,780.526 256.252,782.34 257.693,782.731C258.115,782.846 258.51,782.248 258.66,781.934C259.152,780.904 259.421,779.525 259.555,778.393C259.689,777.264 259.916,776.148 260.029,775.007C260.231,772.985 260.603,771.03 260.856,769.032C261.063,767.408 260.259,765.697 260.672,764.028C260.782,763.584 262.077,762.215 262.641,762.704C262.94,762.962 262.964,763.944 262.982,764.237C263.065,765.562 262.944,766.708 262.742,768.012C262.578,769.069 262.472,770.09 262.339,771.151C262.214,772.145 261.648,773.031 261.484,774.007C261.403,774.485 261.538,775.029 261.378,775.501C260.987,776.655 260.92,777.629 260.726,778.789C260.611,779.475 260.31,780.149 260.469,780.878C260.53,781.158 260.732,781.38 260.781,781.674C260.836,782.003 260.593,782.727 260.743,783.002C260.955,783.388 261.35,783.99 261.466,784.418C261.634,785.038 261.517,785.18 262.112,785.397C262.725,785.619 262.93,784.718 263.032,784.355C263.427,782.951 263.451,781.388 263.55,779.939C263.656,778.381 264.166,776.861 264.363,775.307C264.655,773.015 264.522,770.716 264.901,768.435C265.131,767.046 264.636,765.508 264.938,764.118C265.093,763.405 265.344,762.674 265.597,761.975C265.64,761.858 265.652,761.49 265.727,761.414C265.856,761.283 266.106,761.237 266.287,761.056C266.463,760.879 267.021,760.201 267.334,760.358C267.828,760.605 267.638,761.305 267.638,761.838C267.638,763.46 267.438,764.838 267.175,766.42C266.758,768.922 266.601,771.434 266.601,774.039C266.601,775.406 266.965,777.101 266.543,778.409C266.345,779.022 266.065,779.43 265.815,779.991C265.652,780.356 265.529,780.693 265.338,781.043C264.813,782.006 263.533,784.544 264.624,785.636C265.03,786.042 266.456,785.369 266.642,784.892C267.416,782.897 268.319,781.072 268.74,778.961C269.431,775.49 269.962,772.23 269.962,768.665C269.962,767.253 268.857,765.758 269.221,764.395C269.436,763.588 269.729,762.509 270.291,761.939C270.391,761.838 270.328,761.354 270.328,761.186C270.328,760.749 270.415,760.57 270.67,760.227C270.8,760.054 271.774,758.801 272.037,759.106C272.276,759.382 272.264,759.953 272.321,760.287C272.53,761.532 272.497,762.783 272.593,764.062C272.73,765.886 272.702,767.712 272.423,769.505C272.3,770.296 272.379,771.055 272.085,771.833C271.757,772.705 271.104,773.451 270.721,774.317C270.271,775.337 270.012,776.412 269.592,777.433C269.158,778.49 269.436,780.156 269.288,781.264C269.151,782.298 268.364,783.3 268.133,784.349C268.021,784.859 268.125,785.639 267.946,786.124C267.809,786.497 267.259,787.676 267.618,788.035" style="fill:none;stroke:black;stroke-width:0.75px;stroke-linecap:round;stroke-linejoin:round;stroke-miterlimit:1.5;"/>
        <path d="M267.618,788.035C268.639,788.446 269.042,788.747 269.917,789.301C270.072,789.399 270.57,789.753 270.764,789.654C270.897,789.587 271.01,789.163 271.071,789.039C271.52,788.138 271.679,787.457 271.8,786.432C271.905,785.55 272.244,784.702 272.354,783.824C272.497,782.684 272.259,781.493 272.354,780.347C272.43,779.427 272.687,778.48 272.687,777.563" style="fill:none;stroke:black;stroke-width:0.75px;stroke-linecap:round;stroke-linejoin:round;stroke-miterlimit:1.5;"/>
        <path d="M272.751,777.489C272.751,775.865 273.759,774.255 274.181,772.658C274.492,771.485 274.784,770.234 275.088,769.085C275.351,768.092 275.157,766.563 275.243,765.53C275.38,763.868 275.746,762.019 275.746,760.392C275.746,759.464 275.943,758.947 276.617,758.44C276.745,758.343 277.076,758.011 277.298,758.195C277.676,758.51 277.815,759.299 277.954,759.733C278.51,761.462 278.609,763.08 278.609,764.905C278.609,766.881 278.772,768.928 278.609,770.894C278.269,774.992 277.219,779.039 276.803,783.122C276.644,784.68 276.079,786.225 275.84,787.766C275.798,788.036 275.459,789.045 275.659,789.318C276.426,790.366 277.416,790.836 278.715,790.611C281.229,790.176 281.149,786.352 281.149,784.626C281.149,783.958 281.212,783.984 281.257,783.317C281.548,779.025 281.323,774.618 281.829,770.353C282.089,768.166 281.499,765.915 281.771,763.734C281.985,762.016 281.777,759.144 283.113,757.799C283.468,757.443 284.501,756.674 285.083,757.063C285.374,757.257 285.386,758.345 285.437,758.692C285.682,760.344 285.899,762.044 285.899,763.715C285.899,768.016 286.193,772.315 286.193,776.63C286.193,778.736 286.308,780.866 285.96,782.945C285.606,785.064 285.812,787.319 285.353,789.405C285.27,789.784 285.141,791.224 285.538,791.442C285.907,791.645 286.526,792.097 287.039,791.807C288.47,790.997 288.27,787.907 288.27,786.666L288.27,779.916C288.27,776.548 288.544,773.304 288.755,769.959C288.907,767.557 289.079,765.17 289.345,762.783C289.408,762.209 289.272,761.611 289.345,761.038C289.451,760.2 289.805,759.393 289.943,758.558C289.986,758.301 289.881,758.005 289.943,757.753C290.105,757.098 290.273,756.47 290.68,755.925C290.864,755.678 291.469,755.542 291.469,755.179C291.469,755.078 291.469,755.383 291.469,755.484C291.469,755.76 291.45,756.037 291.469,756.313C291.525,757.117 292.099,757.917 292.099,758.72L292.099,765.84C292.099,767.936 291.867,770.007 291.867,772.087C291.867,775.725 291.534,779.471 291.184,783.084C291.068,784.291 290.78,785.546 290.511,786.725C290.423,787.111 290.367,787.501 290.259,787.883C290.237,787.959 290.156,788.324 290.156,788.262C290.156,788.179 290.156,788.428 290.156,788.51L290.156,789.187C290.156,789.884 290.078,790.56 290.078,791.257C290.078,791.661 289.923,792.487 290.078,792.913C290.422,793.859 291.821,794.454 292.748,794.454C293.009,794.454 293.556,794.563 293.78,794.406C295.394,793.279 295.798,790.2 296.083,788.486C296.384,786.68 296.451,784.816 296.653,782.996C296.796,781.714 296.863,780.394 297.083,779.123C297.284,777.965 297.553,776.803 297.853,775.668C298.181,774.426 298.986,773.209 298.652,771.871C298.463,771.119 298.056,770.403 297.732,769.696C297.498,769.185 297.3,768.174 296.784,767.891C296.475,767.721 296.215,768.204 296.13,768.4C295.746,769.276 295.64,770.066 295.493,771.02C295.15,773.255 294.368,775.47 294.147,777.706C294.014,779.048 294.379,780.349 294.379,781.677L294.379,784.628C294.379,785.09 294.334,785.481 294.221,785.901C294.216,785.918 294.034,786.248 293.97,786.114C293.196,784.513 293.691,782.478 293.542,780.775C293.408,779.243 293.291,777.585 293.444,776.05C293.578,774.705 294.336,773.509 294.432,772.141C294.626,769.377 294.432,766.529 294.432,763.758C294.432,762.866 294.195,761.597 294.432,760.706C294.63,759.964 294.907,759.327 295.034,758.56C295.19,757.619 295.342,756.352 296.335,755.849C296.937,755.544 297.227,757.679 297.227,757.879C297.227,759.137 297.069,760.563 297.227,761.821C297.331,762.655 297.646,763.485 297.811,764.312C297.811,764.312 297.945,764.989 297.945,764.989C298.004,765.256 297.831,766.993 298.783,766.328C299.342,765.937 299.533,764.936 299.705,764.351C300.019,763.283 299.908,762.128 299.908,761.029C299.908,759.845 300.007,758.61 299.908,757.429C299.81,756.254 299.05,753.949 300.587,753.385C301.152,753.177 301.568,755.307 301.624,755.617C302.106,758.293 302.214,760.924 302.214,763.636C302.214,766.623 302.483,769.743 302.214,772.712C302.087,774.115 301.687,775.521 301.451,776.908C300.987,779.629 300.696,782.082 299.97,784.7C299.726,785.58 299.487,786.482 299.325,787.384C299.179,788.198 299.078,788.99 298.914,789.805C298.82,790.276 298.76,790.751 298.681,791.225C298.502,792.293 298.51,793.359 298.333,794.412C298.254,794.886 297.983,795.666 298.553,795.764C298.759,795.799 300.059,795.914 300.238,795.764C300.722,795.356 300.938,794.555 301.165,793.985C302.01,791.87 302.362,789.686 302.645,787.417C303.051,784.164 303.671,780.935 304.155,777.692C304.436,775.8 304.606,773.901 305.012,772.032C305.167,771.319 305.012,770.41 305.012,769.699C305.012,767.428 304.809,765.196 304.809,762.944C304.809,762.195 304.794,761.433 304.742,760.686C304.742,760.686 304.545,759.118 304.545,759.118C304.484,758.137 304.467,757.158 304.467,756.171C304.467,756.16 304.37,755.107 304.467,755.026C304.565,754.944 304.818,755.081 304.941,754.988C305.344,754.685 305.435,754.394 305.976,754.3C306.332,754.238 306.798,753.987 307.195,754.131C307.549,754.259 307.582,755.306 307.62,755.606C307.823,757.198 307.886,758.755 307.886,760.393L307.886,761.959C307.886,765.307 308.044,768.555 308.277,771.882C308.372,773.24 308.375,774.591 308.375,775.956C308.375,776.473 308.503,777.218 308.375,777.736C307.692,780.499 306.826,783.185 306.266,785.982C306.132,786.653 306.096,787.353 305.932,788.01C305.523,789.642 305.626,791.568 305.626,793.261C305.626,793.958 305.257,794.831 306.137,795.066C306.631,795.197 307.353,795.066 307.858,795.066C307.918,795.066 308.312,795.112 308.352,795.066C308.92,794.406 308.809,793.02 309.049,792.217C309.643,790.223 309.874,788.371 309.874,786.286C309.874,784.389 309.869,782.544 310.147,780.662C310.259,779.898 310.205,778.699 310.55,778.002C310.828,777.437 310.47,776.008 310.441,775.461C310.385,774.377 310.452,773.298 310.368,772.212C310.07,768.343 310.313,764.388 309.675,760.612C309.389,758.915 309.911,757.746 310.355,756.165C310.624,755.21 310.965,753.977 312.138,753.977C312.371,753.977 312.522,754.62 312.58,754.751C312.959,755.612 313.069,756.613 313.325,757.522C314.038,760.055 314.237,762.514 314.374,765.194C314.577,769.172 314.875,773.12 315.272,777.09C315.449,778.862 315.709,780.616 315.709,782.397C315.709,782.921 315.851,783.751 315.732,784.263C315.554,785.024 315.114,785.803 314.857,786.543C314.66,787.11 314.537,787.727 314.392,788.308C313.959,790.035 314.122,791.861 313.748,793.567C313.671,793.919 312.906,794.885 313.172,795.151C314.244,796.223 316.314,795.951 317.728,796.186C318.752,796.356 318.878,795.42 319.37,794.646C320.184,793.363 320.016,792.453 320.161,790.991C320.272,789.878 320.42,788.455 320.093,787.371C319.03,783.837 319.168,779.972 318.734,776.276C318.577,774.942 318.379,773.615 318.02,772.324C317.893,771.864 317.785,771.056 317.357,770.847C317.207,770.774 317.357,770.512 317.357,770.344L317.357,768.647C317.357,766.453 317.43,764.346 317.647,762.176C317.836,760.287 317.522,758.621 318.207,756.858C318.329,756.543 318.363,755.416 318.764,755.315C320.671,754.836 320.551,756.101 320.691,757.752C320.805,759.109 320.825,760.454 320.825,761.825C320.825,764.204 320.627,766.675 320.825,769.047C320.975,770.829 321.857,772.628 322.553,774.24C322.713,774.613 322.553,775.053 322.553,775.459L322.553,778.094C322.553,780.377 322.402,782.726 322.773,784.965C322.877,785.594 322.881,786.225 322.961,786.859C323.023,787.346 323.118,787.832 323.198,788.317C323.277,788.793 323.177,789.362 323.293,789.827C323.446,790.444 323.964,790.81 324.325,791.292C324.408,791.404 324.469,792.013 324.539,792.063C324.955,792.358 325.868,792.967 326.494,792.653C326.893,792.452 327.111,791.168 327.182,790.746C327.53,788.657 326.966,786.49 326.966,784.396L326.966,775.664C326.966,773.836 327.132,771.897 326.908,770.085C326.86,769.69 326.37,768.977 326.208,768.496C325.549,766.534 325.184,764.482 324.433,762.568C324.058,761.612 324.186,760.296 324.186,759.284C324.186,758.122 324.061,756.887 324.311,755.748C324.398,755.352 324.736,754.093 325.216,753.963C325.903,753.776 326.122,754.407 326.368,754.972C326.89,756.169 327.77,757.186 328.149,758.451C328.29,758.921 328.416,759.383 328.535,759.858C328.703,760.526 328.866,761.209 328.984,761.891C329.317,763.817 329.276,765.748 329.416,767.68C329.709,771.722 329.718,775.813 330.053,779.869C330.171,781.294 330.125,782.761 330.515,784.149C330.867,785.397 331.288,786.717 331.487,788.006C331.657,789.112 331.607,790.186 332.95,790.417C335.418,790.841 335.386,787.276 335.386,785.755L335.386,783.073C335.386,782.213 335.396,781.395 335.278,780.54C335.099,779.246 334.442,778.038 334.309,776.74C334.124,774.922 334.525,773.039 334.309,771.225C334.061,769.139 333.984,767.067 333.625,765.009C333.354,763.46 333.512,761.746 333.512,760.148C333.512,760.025 333.324,758.605 333.399,758.524C333.464,758.454 334.006,758.524 334.121,758.524C334.495,758.524 336.089,758.244 336.43,758.524C336.923,758.93 336.558,759.797 336.558,760.436L336.558,765.245C336.558,769.675 336.92,774.092 337.478,778.453C337.817,781.099 338.391,783.55 338.112,786.33C337.965,787.805 338.052,789.316 338.052,790.797C338.052,791.051 337.823,792.348 338.321,792.472C339.223,792.696 339.577,792.016 340.108,791.482C341.489,790.092 341.064,787.544 341.675,785.855C342.103,784.671 341.816,782.845 341.889,781.549C342.147,776.943 342.228,772.012 341.898,767.382C341.829,766.407 341.386,765.372 341.098,764.584C340.936,764.141 341.098,763.212 341.098,762.743C341.098,762.317 340.978,761.708 341.172,761.315C341.306,761.045 342.164,760.92 342.443,760.858C343.283,760.674 344.145,761.543 344.455,762.247C345.132,763.787 345.061,765.508 345.061,767.153C345.061,772.049 345.206,776.909 345.206,781.801C345.206,783.503 344.584,785.158 344.46,786.874C344.45,787.013 344.209,788.135 344.382,788.279C344.704,788.546 345.854,787.879 346.119,787.804C346.677,787.646 347.53,787.526 348.001,787.172C348.95,786.457 349.229,785.072 349.399,783.966C349.604,782.628 349.497,781.235 349.497,779.885L349.497,776.906C349.497,774.07 349.361,771.602 349.003,768.799C348.828,767.43 348.681,765.769 350.389,765.467C352.355,765.12 352.325,768.054 352.432,769.358C352.757,773.287 352.865,777.178 352.865,781.116C352.865,782.105 352.845,783.052 353.007,784.007C353.027,784.124 353.052,784.472 353.177,784.535C353.482,784.687 353.896,784.343 354.177,784.296C354.376,784.263 354.857,784.335 355.009,784.182C355.194,783.996 355.249,783.528 355.296,783.287C355.482,782.357 355.596,781.413 355.674,780.473C355.866,778.169 355.674,775.825 355.674,773.509L355.674,771.583C355.674,771.071 355.458,769.933 355.702,769.439C355.757,769.327 356.164,769.31 356.264,769.288C356.793,769.171 357.232,768.843 357.709,768.713C358.519,768.492 358.716,769.999 358.869,770.541C359.596,773.131 359.015,775.168 359.015,777.829C359.015,778.486 359.072,779.152 359.072,779.798C359.072,779.873 359.039,780.514 359.148,780.514" style="fill:none;stroke:black;stroke-width:0.75px;stroke-linecap:round;stroke-linejoin:round;stroke-miterlimit:1.5;"/>
        <path d="M359.13,780.699C359.445,780.699 359.931,780.801 360.223,780.699C360.745,780.519 361.128,779.719 361.367,779.292C362.228,777.75 362.786,776.357 363.211,774.653C363.399,773.899 363.421,773.148 363.421,772.37C363.421,772.081 363.527,771.72 363.234,771.613C361.488,770.976 361.831,773.627 361.831,774.736C361.831,775.158 361.766,775.862 362.203,776.138C362.869,776.56 363.753,776.704 364.508,776.8C364.787,776.836 365.228,777.032 365.525,776.923C365.921,776.777 366.378,776.317 366.79,776.11C367.316,775.846 368.082,775.686 368.248,775.016C368.327,774.697 368.255,774.26 368.132,773.979C367.92,773.492 367.159,772.516 366.469,772.86C366.082,773.052 365.857,773.931 365.798,774.312C365.779,774.436 365.54,775.262 365.692,775.413C365.846,775.566 366.288,775.624 366.482,775.678C367.618,775.998 368.036,775.687 368.412,774.514C368.555,774.067 368.831,773.337 368.651,772.845C368.586,772.664 368.116,772.578 367.953,772.486C367.304,772.118 366.857,771.81 366.078,771.712C365.125,771.592 364.186,770.84 363.341,770.434C362.395,769.98 361.653,769.848 360.686,769.696C357.934,769.265 355.485,767.294 353.157,765.981C352.592,765.663 352.377,764.937 351.814,764.619C350.557,763.91 349.089,763.362 347.733,762.853C347.029,762.589 346.447,762.089 345.743,761.824C344.424,761.329 343.125,761.046 341.714,761.046" style="fill:none;stroke:black;stroke-width:0.75px;stroke-linecap:round;stroke-linejoin:round;stroke-miterlimit:1.5;"/>
        <path d="M305.927,168.987L306.471,586.573" style="fill:none;stroke:black;stroke-width:1px;stroke-linecap:round;stroke-linejoin:round;stroke-miterlimit:1.5;"/>
        <path d="M306.455,961.246L306.586,1402.97" style="fill:none;stroke:black;stroke-width:1px;stroke-linecap:round;stroke-linejoin:round;stroke-miterlimit:1.5;"/>
    </g>
</svg>
