<?xml version="1.0" encoding="UTF-8" standalone="no"?>
<!DOCTYPE svg PUBLIC "-//W3C//DTD SVG 1.1//EN" "http://www.w3.org/Graphics/SVG/1.1/DTD/svg11.dtd">
<svg width="100%" height="100%" viewBox="0 0 600 1600" version="1.1" xmlns="http://www.w3.org/2000/svg" xmlns:xlink="http://www.w3.org/1999/xlink" xml:space="preserve" xmlns:serif="http://www.serif.com/" style="fill-rule:evenodd;clip-rule:evenodd;stroke-linecap:round;stroke-linejoin:round;stroke-miterlimit:1.5;">
    <g transform="matrix(1.10062,0,0,1.11689,-31.8919,-70.407)">
        <ellipse cx="305.645" cy="557.878" rx="21.352" ry="21.041" style="fill:none;stroke:black;stroke-width:0.9px;"/>
        <g transform="matrix(0.908579,0,0,0.895343,28.9763,63.0384)">
            <path d="M304.113,533.77C302.608,533.77 301.238,533.696 299.776,534.059C298.922,534.271 290.829,539.318 289.657,541.389C287.466,545.26 285.744,550.181 286.341,554.973C286.547,556.625 287.82,560.754 288.651,562.233C289.845,564.353 292.372,566.624 294.274,568.017C296.243,569.458 303.811,572.137 304.934,571.788C306.173,571.403 314.74,568.752 315.743,567.897C316.865,566.94 319.689,565.738 320.469,564.529C322.04,562.094 322.199,560.008 323.3,557.311C323.732,556.251 323.53,554.732 323.53,553.62C323.53,549.491 322.155,546.533 319.761,543.468C318.803,542.242 318.039,540.46 316.797,539.49C315.774,538.691 314.683,538.458 313.58,537.907C313.263,537.748 312.749,537.429 312.416,537.371C307.041,536.444 301.624,537.555 297.174,540.872C295.486,542.13 294.628,544.695 294.082,546.623C293.271,549.491 292.32,557.715 293.87,560.47C294.46,561.52 295.626,562.167 296.526,562.87C297.33,563.499 297.859,564.533 298.766,565.044C300.25,565.88 301.895,565.796 303.529,566.048C305.67,566.379 308.639,566.383 310.691,565.577C311.371,565.31 312.071,564.577 312.66,564.152C313.507,563.54 314.676,562.932 315.242,562.021C317.102,559.028 317.225,550.197 315.597,547.07C314.335,544.648 308.711,541.047 305.998,541.368C304.66,541.527 303.61,542.054 302.411,542.541C300.57,543.289 299.911,543.687 299.306,545.64C298.944,546.808 296.129,551.62 296.643,554.212C297.169,556.863 300.05,561.183 305.415,562.955" style="fill:none;stroke:black;stroke-width:1px;"/>
        </g>
        <g transform="matrix(0.908579,0,0,0.895343,28.9763,63.0384)">
            <path d="M305.292,563.122C307.745,563.122 310.691,562.121 312.205,560.089C312.467,559.738 313.055,559.582 313.248,559.193C313.672,558.334 313.599,557.08 313.599,556.112C313.599,555.002 313.655,553.871 313.472,552.79C313.342,552.021 312.68,551.387 312.229,550.808C311.056,549.303 309.535,548.083 307.556,547.756C306.811,547.633 305.579,547.464 304.804,547.655C303.847,547.891 302.921,548.906 302.348,549.667C301.979,550.156 301.287,550.866 301.135,551.469C300.299,554.799 302.376,559.076 305.954,559.533C306.68,559.626 307.976,559.812 308.659,559.469C310.08,558.757 311.557,556.412 310.624,554.775C310.426,554.427 309.818,554.032 309.52,553.734C308.345,552.559 305.474,550.578 303.839,552.203C302.451,553.582 303.815,554.881 304.998,555.546C305.469,555.811 306.019,556.266 306.643,556.037C308.232,555.453 305.645,554.526 305.333,554.526" style="fill:none;stroke:black;stroke-width:1px;"/>
        </g>
    </g>
    <g>
        <path d="M304.126,230.408C322.327,230.289 478.12,344.045 472.314,778.416C464.245,1382.04 304.268,1399.23 304.268,1399.23C304.268,1399.23 145.344,1392.99 130.595,775.935C119.954,330.754 285.574,230.529 304.126,230.408Z" style="fill:none;fill-rule:nonzero;stroke:rgb(255,0,0);stroke-width:1px;stroke-linecap:butt;stroke-linejoin:miter;stroke-miterlimit:10;"/>
        <g transform="matrix(0.92674,0,0,0.977641,22.4469,19.2736)">
            <path d="M304.126,230.408C322.327,230.289 478.12,344.045 472.314,778.416C464.245,1382.04 304.268,1399.23 304.268,1399.23C304.268,1399.23 145.344,1392.99 130.595,775.935C119.954,330.754 285.574,230.529 304.126,230.408Z" style="fill:none;fill-rule:nonzero;stroke:rgb(255,0,0);stroke-width:1px;stroke-linecap:butt;stroke-linejoin:miter;stroke-miterlimit:10;"/>
        </g>
        <path d="M293.021,258.255C290.623,258.255 301.385,257.315 303.508,257.913C310.482,259.877 316.307,258.946 321.651,264.291C322.67,265.309 325.607,266.948 324.542,269.039C324.12,269.866 322.123,269.787 321.412,269.897C317.171,270.55 313.303,271.008 308.977,271.008C303.681,271.008 300.046,273.06 295.206,274.275C286.559,276.447 276.659,274.333 269.871,280.977C267.601,283.199 260.91,288.609 261.947,292.47C262.154,293.237 265.43,293.918 266.09,294.083C270.282,295.131 275.505,295.129 279.83,294.764C285.944,294.249 292.226,293.122 298.246,292.117C301.651,291.549 305.65,292.117 309.109,292.117C317.694,292.117 326.392,292.008 334.827,293.31C339.502,294.031 342.162,295.298 345.872,297.965C347.315,299.002 349.674,300.244 348.852,302.481C347.253,306.834 341.858,305.754 338.211,306.586C334.819,307.36 331.526,308.741 328.12,309.419C324.021,310.236 320.338,313.109 315.973,313.467C307.472,314.166 298.805,313.04 290.29,313.748C280.598,314.553 271.241,317.018 261.583,317.964C259.491,318.169 257.497,318.29 255.374,318.29C251.157,318.29 234.156,319.729 237.066,327.919C237.765,329.886 241.926,330.64 243.565,331.101C250.866,333.158 257.799,333.801 265.516,333.801L288.994,333.801C310.255,333.801 331.13,330.193 352.356,330.193C362.309,330.193 374.01,330.341 371.814,343.422C371.337,346.265 366.838,349.048 364.51,350.072C356.537,353.579 348.425,355.491 339.8,356.925C318.622,360.447 295.272,363.021 273.626,361.191C263.259,360.315 253.866,358.671 243.345,358.671C241.296,358.671 239.065,358.415 237.039,358.671C235.083,358.918 233.179,359.589 231.222,359.833C223.269,360.826 206.564,365.429 209.438,376.981C210.073,379.529 214.138,379.698 216.068,380.419C224.896,383.719 234.04,383.656 243.394,383.061C256.938,382.199 270.028,377.864 283.53,377.132C290.942,376.731 298.541,377.848 305.927,377.132C312.528,376.493 319.415,375.299 326.088,375.852C333.661,376.479 340.475,377.612 348.111,376.974C354.294,376.458 360.815,376.924 366.964,377.365C375.426,377.972 382.737,376.808 388.841,384.396C391.215,387.348 389.298,390.818 390.693,393.592C391.465,395.124 393.615,400.799 392.242,402.451C390.126,404.994 385.052,405.254 382.13,405.7C372.927,407.107 363.834,408.181 354.594,408.948C346.469,409.623 338.521,411.59 330.401,412.337C321.316,413.173 310.513,412.412 301.39,411.759C294.94,411.297 288.764,408.4 282.472,407.072C269.927,404.427 257.385,403.097 244.604,403.097L233.781,403.097C224.953,403.097 210.798,400.839 203.182,406.294C201.594,407.432 200.578,411.025 199.878,412.805C199.57,413.59 197.784,415.608 197.784,415.988" style="fill:none;stroke:black;stroke-width:1px;"/>
        <path d="M197.379,416.719C194.97,418.651 195.192,421.824 193.877,424.403C193.709,424.734 193.512,426.933 193.735,427.035C196.798,428.427 202.336,427.362 205.701,427.362C211.517,427.362 217.467,429.137 223.252,429.721C229.574,430.359 236.351,429.721 242.704,429.721C258.063,429.721 272.905,431.383 288.15,432.065C297.414,432.48 306.644,431.847 315.892,432.609C324.83,433.346 333.595,435.688 342.51,436.429C355.036,437.471 368.082,436.429 380.658,436.429C388.722,436.429 396.869,436.722 405.011,436.722C407.879,436.722 412.54,435.815 415.267,436.722C419.02,437.97 420.496,442.69 421.303,445.94C423.79,455.959 415.06,457.208 406.976,458.026C398.229,458.912 390,461.66 381.091,461.66C378.127,461.66 374.906,461.52 371.978,461.66C362.734,462.103 353.253,463.106 344.007,463.912C329.071,465.215 314.261,462.377 299.447,462.377C278.011,462.377 256.437,463.082 235.19,460.894C228.11,460.165 220.716,460.601 213.558,460.601C209.568,460.601 205.401,460.104 201.587,461.369C197.326,462.782 192.249,465.497 191.024,470.329C190.323,473.096 189.058,475.634 189.746,478.787C191.304,485.937 204.028,484.381 208.84,484.71C216.982,485.265 225.17,486.33 233.357,486.786C255.989,488.047 278.368,486.141 300.755,484.187C311.676,483.233 322.825,484.965 333.762,484.187C346.161,483.304 358.455,482.818 370.923,482.818C384.447,482.818 400.032,484.341 411.181,493.042C413.483,494.839 420.444,499.657 418.43,503.666C416.438,507.633 408.437,507.754 404.741,507.754C390.376,507.754 377.027,503.157 362.691,503.157C346.445,503.157 329.479,501.844 313.282,503.157C304.083,503.903 295.016,505.958 285.807,506.624C273.688,507.5 261.794,507.219 249.715,509.376C240.355,511.049 231.377,514.509 222.047,516.256C211.042,518.317 199.639,518.558 188.779,520.414C186.513,520.802 180.064,521.385 178.584,523.699C176.254,527.343 176.401,530.02 175.735,534.001C174.881,539.097 172.665,543.786 171.995,548.989C171.878,549.903 171.283,552.041 171.754,552.977C172.121,553.707 174.384,554.033 175.007,554.208C178.971,555.324 184.343,554.448 188.5,554.448C194.364,554.448 198.935,552.095 204.577,550.849C216.701,548.172 230.5,544.991 242.869,544.991C253.094,544.991 259.575,534.434 268.676,539.881C273.338,542.671 270.355,555.491 268.078,559.221C264.285,565.433 260.619,565.731 254.168,566.262C243.961,567.104 233.968,570.072 223.796,571.085C212.692,572.19 201.35,572.553 190.203,573.48C180.65,574.275 165.82,573.464 165.82,585.694C165.82,587.069 165.541,588.749 166.051,590.055C167.349,593.376 172.979,594.383 175.909,595.027C185.361,597.106 195.709,598.23 205.384,597.018C217.055,595.556 228.471,591.513 240.307,590.85C256.772,589.927 273.583,591.739 290.012,590.355C296.541,589.805 302.778,589.284 309.386,589.284C316.84,589.284 324.447,589.696 331.831,588.942C335.845,588.532 340.469,590.136 343.451,586.605C349.944,578.914 351.633,570.77 350.506,560.633C349.941,555.547 346.714,551.258 346.078,546.222C345.944,545.159 345.198,542.045 346.026,541.069C348.254,538.442 352.41,536.649 355.443,535.128C357.351,534.171 359.628,533.262 361.779,533.046C365.309,532.693 369.001,532.312 372.545,532.312C379.595,532.312 386.924,532.667 393.918,531.924C401.812,531.086 410.068,530.753 417.984,530.753C420.726,530.753 423.873,529.885 425.408,532.609C432.899,545.898 412.082,542.813 404.574,542.813L398.161,542.813C395.642,542.813 392.628,542.558 390.075,542.813C386.052,543.213 383.067,545.29 379.587,547.027C376.077,548.779 364.994,554.075 367.441,559.689C369.182,563.682 379.312,564.312 382.683,564.76C396.613,566.61 409.949,570.463 423.663,572.821C427.208,573.431 437.546,573.7 439.042,577.813C440.363,581.442 431.855,584.789 429.096,586.459C426.487,588.039 424.377,590.089 421.509,591.408C409.944,596.726 395.61,595.461 383.256,595.461L378.627,595.461C377.51,595.461 367.319,594.236 366.425,596.014C365.404,598.043 368.903,599.167 370.164,599.797C374.721,602.075 379.938,604.559 384.788,606.116C395.723,609.627 406.973,610.5 418.277,611.846C421.811,612.267 426.862,612.096 429.572,614.782C432.559,617.742 438.335,620.466 440.451,623.985C443.534,629.109 436.386,635.225 432.448,636.689C422.376,640.434 413.786,635.404 404.391,632.935C396.126,630.764 387.279,632.492 379.223,630.19C368.266,627.058 359.94,618.937 349.284,615.081C340.985,612.078 329.763,614.834 321.023,614.296C315.098,613.931 309.173,612.259 303.246,611.709C295.579,610.997 287.073,611.271 279.37,611.709C270.445,612.216 261.855,615.949 253.046,617.246C244.323,618.531 235.567,618.298 226.843,619.583C218.75,620.776 209.869,622.394 202.177,625.274C198.817,626.532 194.875,626.584 191.639,628.198C187.079,630.472 183.292,634.51 179.468,637.751C173.746,642.601 168.154,647.876 169.419,655.924C170.307,661.579 179.58,660.684 183.502,661.664C195.101,664.561 204.867,671.418 216.934,672.925C247.314,676.719 277.534,669.99 307.737,668.638C334.021,667.462 360.625,668.638 386.944,668.638C391.611,668.638 396.85,667.105 401.534,666.386C412.536,664.697 422.712,665.299 433.235,667.61C435.581,668.125 441.702,668.724 443.162,671.032C444.3,672.831 443.048,675.665 443.49,677.72C444.169,680.883 445.913,685.199 444.774,688.5C443.746,691.478 438.651,694.204 436.319,695.611C423.77,703.182 408.465,704.735 394.191,706.754C378.995,708.904 363.436,709.191 348.284,711.668C328.424,714.914 306.699,717.768 286.538,715.606C268.391,713.661 250.789,708.068 232.393,708.068C221.578,708.068 210.627,706.532 199.866,705.653C194.508,705.216 184.377,702.781 179.357,705.928C176.711,707.588 174.607,711.843 173.084,714.536C170.951,718.305 168.047,720.428 168.047,725.031" style="fill:none;stroke:black;stroke-width:1px;"/>
        <path d="M167.184,725.135C167.184,727.794 164.346,730.581 163.397,733.147C162.456,735.689 163.397,740.318 163.397,742.927C163.397,746.217 163.046,749.83 163.585,753.041C164.784,760.18 172.422,764.836 178.269,767.758C182.278,769.762 185.394,770.532 189.83,771.12C196.623,772.021 203.549,771.584 210.391,771.613C219.778,771.653 228.866,769.392 238.165,769.524C254.49,769.757 272.244,769.446 288.409,767.14C298.346,765.722 307.8,760.699 317.822,759.452C332.491,757.626 347.502,760.114 362.215,758.957C371.817,758.202 381.652,757.839 391.158,759.682C403.819,762.138 414.984,765.116 426.618,770.934C431.904,773.576 438.288,775.969 442.299,780.494C445.056,783.604 446.219,788.118 448.037,791.762C448.896,793.485 450.818,800.247 448.958,801.719C442.799,806.592 430.761,805.64 423.596,806.594C419.577,807.129 419.718,806.909 415.646,807.573C411.401,808.265 407.371,810.004 403.029,810.275C397.046,810.648 389.731,811.165 383.823,809.851C374.216,807.714 364.783,803.867 354.799,803.593C325.02,802.774 294.135,802.095 264.403,803.593C251.402,804.248 238.815,806.126 225.76,806.126C214.837,806.126 203.566,806.919 193.673,811.829C187.654,814.816 182.653,820.433 177.998,825.061C174.869,828.171 169.934,834.901 172.39,839.844C172.764,840.597 174.95,840.579 175.507,840.649C179.589,841.159 183.802,840.546 187.868,841.279C205.499,844.456 223.934,844.754 241.823,844.754C258.302,844.754 274.957,844.003 291.417,844.754C305.193,845.382 318.51,849.451 332.263,850.244C347.275,851.109 362.591,850.244 377.632,850.244C385.185,850.244 393.129,849.561 400.68,850.244C409.6,851.051 418.739,856.027 426.553,859.947C432.287,862.823 440.867,862.935 445.163,868.25C446.959,870.472 441.945,878.351 440.772,880.103C437.873,884.434 433.015,884.81 428.528,886.25C420.025,888.978 413.576,892.504 404.25,893.138C394.325,893.813 384.1,893.138 374.155,893.138C365.463,893.138 356.232,894.079 347.591,893.138C332.246,891.468 317.837,885.081 302.279,884.101C278.716,882.617 254.611,884.101 230.986,884.101C222.014,884.101 215.525,887.047 206.92,889.195C197.687,891.499 188.633,891.788 179.967,896.115C175.708,898.241 171.131,901.531 168.966,905.83C168.405,906.943 168.155,912.137 170.164,912.137" style="fill:none;stroke:black;stroke-width:1px;"/>
        <path d="M170.666,913.562C170.666,915.261 169.671,921.312 170.854,922.428C177.108,928.331 190.642,928.074 198.466,928.686C206.7,929.331 214.554,931.951 222.939,931.951C253.325,931.951 283.362,930.076 313.744,930.076C317.198,930.076 320.84,928.571 324.362,928.313C335.67,927.484 347.601,928.149 358.823,929.042C366.155,929.625 373.703,928.846 381.008,929.586C390.723,930.571 400.525,932.969 409.421,937.182C414.108,939.402 418.267,942.761 422.909,945.082C426.545,946.9 435.948,952.547 433.042,958.36C431.175,962.093 421.775,961.342 418.774,961.342C405.147,961.342 391.507,962.376 377.892,962.376C359.099,962.376 338.841,960.108 320.299,963.515C313.2,964.82 306.563,968.348 299.338,969.551C287.191,971.574 275.088,972.531 262.789,973.13C253.978,973.56 244.33,974.868 235.567,973.696C230.617,973.033 225.433,970.368 220.674,968.88C203.323,963.458 186.695,962.433 168.711,965.421C165.944,965.881 165.101,978.484 169.038,981.303C170.774,982.545 177.938,989.547 179.273,990.882C179.968,991.577 183.495,991.614 184.506,991.992C188.979,993.662 193.156,995.207 197.967,996.006C203.479,996.921 209.059,997.169 214.629,997.145C219.54,997.124 225.193,997.962 230.119,997.145C239.214,995.637 248.419,992.577 257.384,990.43C269.01,987.645 280.14,985.511 292.125,985.57C302.097,985.62 312.136,985.64 322.116,985.57C332.645,985.497 341.625,988.569 351.866,990.28C360.713,991.758 370.818,991.983 379.393,994.729C387.501,997.325 396.409,1002.58 403.216,1007.5C408.487,1011.31 418.774,1017.45 419.719,1024.96C421.593,1039.84 400.038,1043.6 389.594,1044.82C387.823,1045.03 382.298,1045.76 380.821,1045.85L371.015,1045.85C342.247,1045.85 312.812,1044.09 284.088,1045.85C268.493,1046.8 253.597,1051.61 238.131,1053.32C232.597,1053.94 232.777,1053.87 227.268,1053.87C215.969,1053.87 195.818,1050.61 193.462,1064.66C193.189,1066.29 192.599,1072.62 194.494,1073.82C197.979,1076.03 206.613,1074.19 210.284,1074.19L247.413,1074.19C254.734,1074.19 262.174,1073.68 269.373,1075.28C283.103,1078.33 296.055,1084.11 310.266,1085C325.187,1085.92 340.271,1084.17 355.198,1085C362.964,1085.42 370.536,1087.3 378.162,1088.57C381.045,1089.05 384.001,1089.79 386.905,1090.08C390.962,1090.48 395.543,1089.19 399.449,1090.66C403.106,1092.03 405.93,1095 408.983,1097.29C412.413,1099.87 416.416,1102.55 417.194,1107.11C417.62,1109.61 417.919,1114.97 416.852,1117.35C415.779,1119.74 409.544,1121.24 407.426,1122.3C399.211,1126.39 391.234,1130.13 382.306,1132.78C358.97,1139.71 335.525,1139.98 311.364,1139.98L240.409,1139.98C227.459,1139.98 214.703,1139.82 201.882,1141.1C200.584,1141.22 191.611,1140.57 190.956,1141.85C188.655,1146.34 192.548,1157.42 195.931,1160.29C201.033,1164.62 206.903,1165.39 213.042,1167.37C220.689,1169.84 227.731,1173.35 235.762,1174.79C267.147,1180.39 298.518,1172.09 329.868,1172.09C335.364,1172.09 341.401,1171.4 346.871,1172.09C352.81,1172.85 358.12,1178.22 362.816,1181.31C370.877,1186.61 378.943,1192.06 385.735,1198.86C387.241,1200.36 378.671,1202.39 378.482,1202.42C369.419,1203.89 361.305,1206.23 352.01,1206.23C344.286,1206.23 336.077,1205.4 328.473,1207.11C325.105,1207.87 322.14,1210.45 318.912,1211.11C314.422,1212.02 308.901,1211.87 304.35,1211.5C289.58,1210.29 275.197,1205.13 260.364,1203.92C255.95,1203.56 249.055,1203.14 244.977,1205.43C243.302,1206.37 242.132,1210.32 240.291,1210.55C238.639,1210.76 232.284,1211.82 232.284,1214.34" style="fill:none;stroke:black;stroke-width:1px;"/>
        <path d="M231.815,1214.77C227.012,1216.68 227.419,1223.46 227.419,1227.61C227.419,1230 226.19,1233.73 227.284,1235.92C231.242,1243.86 243.702,1246.27 251.371,1246.75C267.798,1247.77 283.246,1243.97 299.436,1242.98C306.121,1242.58 315.259,1241.91 321.866,1242.98C326.009,1243.66 330.166,1244.88 334.368,1245.24C340.667,1245.78 347.256,1245.24 353.589,1245.24C362.015,1245.24 372.429,1243.33 379.847,1247.55C381.911,1248.73 384.73,1250.97 385.179,1253.58C385.764,1256.99 379.838,1257.84 377.473,1259.02C373.902,1260.8 372.111,1264.46 368.605,1266.41C364.599,1268.64 359.716,1269.82 355.424,1271.36C345.302,1275.01 333.506,1273.65 322.944,1273.65C306.704,1273.65 290.402,1274.38 274.083,1274.38C267.781,1274.38 261.3,1275.88 255.41,1278.17C253.207,1279.03 249.838,1280.74 249.236,1283.13C247.013,1291.96 261.274,1296.73 267.846,1298.99C286.137,1305.28 308.883,1305.16 328.009,1303.79C333.48,1303.4 338.782,1301.63 344.298,1301.63L364.44,1301.63C367.059,1301.63 371.63,1300.28 372.482,1303.7C373.178,1306.5 369.892,1306.93 368.345,1308.48C362.871,1313.95 357.11,1317.3 349.696,1319.76C341.299,1322.55 331.27,1319.98 322.518,1320.71C312.107,1321.58 301.868,1324.05 291.5,1325.28C286.107,1325.91 280.541,1325.13 275.169,1325.8C273.602,1326 270.644,1326.15 269.442,1327.35C268.434,1328.36 268.408,1330.62 268.068,1331.97C266.885,1336.66 270.014,1341.51 271.626,1345.65C277.694,1361.25 296.475,1376 314.427,1371.49C324.924,1368.86 329.002,1359.05 333.311,1350.38C336.834,1343.29 346.081,1334.94 340.515,1326.58" style="fill:none;stroke:black;stroke-width:1px;"/>
        <g transform="matrix(1,0,0,1,-1.48643,741.342)">
            <path d="M305.941,-510.727L305.984,-212.432" style="fill:none;fill-rule:nonzero;stroke:black;stroke-width:1px;stroke-linecap:butt;stroke-linejoin:miter;stroke-miterlimit:10;"/>
        </g>
        <g transform="matrix(1,0,0,1,-1.48643,741.342)">
            <path d="M305.703,-164.916L305.25,657.146" style="fill:none;fill-rule:nonzero;stroke:black;stroke-width:1px;stroke-linecap:butt;stroke-linejoin:miter;stroke-miterlimit:10;"/>
        </g>
        <g transform="matrix(1,0,0,1,3.68585,86.9651)">
            <path d="M290,1266C290,1260.48 294.477,1256 300,1256C305.523,1256 310,1260.48 310,1266C310,1271.52 305.523,1276 300,1276C294.477,1276 290,1271.52 290,1266Z" style="fill:none;fill-rule:nonzero;stroke:black;stroke-width:1px;stroke-linecap:butt;stroke-linejoin:miter;stroke-miterlimit:10;"/>
        </g>
        <g transform="matrix(1,0,0,1,3.68585,86.9651)">
            <path d="M292,1266C292,1261.58 295.582,1258 300,1258C304.418,1258 308,1261.58 308,1266C308,1270.42 304.418,1274 300,1274C295.582,1274 292,1270.42 292,1266Z" style="fill:none;fill-rule:nonzero;stroke:black;stroke-width:1px;stroke-linecap:butt;stroke-linejoin:miter;stroke-miterlimit:10;"/>
        </g>
    </g>
</svg>
