<?xml version="1.0" encoding="UTF-8" standalone="no"?>
<!DOCTYPE svg PUBLIC "-//W3C//DTD SVG 1.1//EN" "http://www.w3.org/Graphics/SVG/1.1/DTD/svg11.dtd">
<svg width="100%" height="100%" viewBox="0 0 241 341" version="1.1" xmlns="http://www.w3.org/2000/svg" xmlns:xlink="http://www.w3.org/1999/xlink" xml:space="preserve" xmlns:serif="http://www.serif.com/" style="fill-rule:evenodd;clip-rule:evenodd;stroke-linecap:round;stroke-linejoin:round;stroke-miterlimit:1.5;">
    <g transform="matrix(1,0,0,1,219.664,-0.454114)">
        <g id="frame" transform="matrix(0.405377,0,0,0.406616,-219.477,-0.567512)">
            <rect x="0.598" y="2.513" width="592.255" height="836.557" style="fill:rgb(235,235,235);"/>
        </g>
        <g id="leaves" transform="matrix(0.405871,0,0,0.405871,-219.771,0.0577189)">
            <g transform="matrix(1,0,0,1,-0.159207,108.34)">
                <path d="M85.741,177.066L87.895,175.891L85.992,178.457L90.208,175.923L86.982,180.059L93.361,175.807L88.258,181.903L95.372,176.052L89.333,184.2L98.601,176.963L90.388,185.418L101.968,176.969L91.466,188.141L104.869,177.958L92.872,191.229L108.45,179.376L93.82,194.268L112.404,180.539L94.902,197.048L115.27,180.996L95.053,199.905L118.14,181.919L95.594,202.873L120.912,182.85L95.713,206.36L122.996,184.168L96.105,209.703L125.399,185.328L95.867,212.666L127.903,186.514L96.11,215.751L130.925,188.443L95.746,219.115L132.955,190.26L95.743,222.11L135.225,192.161L94.543,225.677L137.822,193.59L93.921,229.21L140.338,196.688L93.181,231.799L142.541,199.036L93.211,234.689L145.084,201.911L92.355,237.453L146.647,203.724L91.504,241.329L148.545,205.743L90.121,244.677L150.234,207.592L89.849,247.097L151.763,209.61L89.296,249.1L153.362,211.76L88.461,251.841L154.787,213.983L87.833,254.859L156.201,216.878L86.885,258.059L157.58,219.79L85.777,261.23L158.879,222.332L84.271,264.551L160.837,224.507L83.28,267.154L161.868,228.971L82.395,270.11L163.405,232.105L80.929,272.882L164.927,236.03L79.988,276.103L165.632,239.037L78.931,278.889L166.691,242.313L77.522,281.824L167.837,245.341L75.719,284.782L168.986,249.38L74.597,287.943L169.487,253.246L73.861,291.453L170.143,256.646L72.64,294.555L171.408,260.007L71.222,297.796L172.649,263.113L70.162,301.604L173.364,267.144L68.71,304.619L173.667,270.81L66.878,307.997L174.796,274.131L65.913,311.056L175.292,277.781L64.56,313.962L176.347,280.889L63.433,316.926L177.22,284.561L61.976,320.142L178.216,287.802L61.442,323.114L178.843,290.158L60.462,326.461L179.816,293.092L60.211,329.888L180.482,296.931L58.838,333.997L181.299,300.272L58.168,337.019L182.313,303.417L57.108,340.587L183.746,306.746L56.6,344.037L184.51,309.509L56.96,347.748L185.676,311.971L56.377,352.208L186.565,315.477L55.684,356.577L187.688,319.231L54.948,360.569L189.466,322.946L54.978,363.86L191.299,325.584L54.63,366.492L192.414,328.303L54.597,368.893L193.857,331.288L54.456,372.294L195.756,333.47L54.629,376.294L196.537,336.548L55.017,380.386L198.011,338.635L55.397,383.547L200.221,340.92L56.136,387.189L201.77,342.771L56.406,390.82L204.198,345.185L57.079,394.259L206.267,347.449L57.513,397.737L208.237,348.97L58.506,401.633L210.057,351.241L60.254,405.782L212.409,352.699L61.38,408.715L214.155,354.096L62.192,412.704L216.353,355.863L63.995,415.848L218.273,357.254L65.549,419.186L220.487,358.668L68.435,421.029L222.008,360.027L71.752,423.263L223.93,360.825L75.31,424.841L223.571,363.091L77.728,427.008L220.322,367.077L81.496,428.668L216.638,370.835L84.391,429.965L213.877,374.319L88.614,431.227L210.62,377.735L92.89,432.74L207.269,381.423L96.273,434.096L203.027,385.231L100.323,434.872L198.877,389.252L104.567,435.883L194.759,393.528L109.146,436.55L188.415,398.674L113.799,437.117L184.077,402.883L118.276,437.426L178.694,407.113L123.266,438.156L172.582,412.408L127.696,438.229L162.742,420.116L132.251,438.091L152.574,427.773L136.168,438.241L143.238,435.776L139.299,438.602" style="fill:none;stroke:black;stroke-width:1px;"/>
            </g>
            <g transform="matrix(-0.51921,0.912823,0.761402,0.433083,64.8267,99.8248)">
                <path d="M85.741,177.066L87.895,175.891L85.992,178.457L90.208,175.923L86.982,180.059L93.981,174.718L88.258,181.903L95.991,174.964L89.333,184.2L99.22,175.874L90.388,185.418L102.588,175.88L91.466,188.141L105.488,176.869L92.872,191.229L109.07,178.288L93.82,194.268L113.024,179.45L94.902,197.048L115.27,180.996L95.053,199.905L118.14,181.919L95.594,202.873L119.893,182.817L95.713,206.36L121.991,184.92L96.105,209.703L123.676,186.808L95.867,212.666L123.891,190.83L96.11,215.751L124.363,193.576L95.746,219.115L126.393,195.392L95.743,222.11L127.419,199.02L94.543,225.677L127.806,202.411L93.921,229.21L128.562,205.89L93.181,231.799L129.883,209.028L93.211,234.689L130.728,213.179L92.355,237.453L131.395,216.152L91.504,241.329L132.005,219.325L90.121,244.677L133.695,221.174L89.849,247.097L135.224,223.192L89.296,249.1L135.224,223.192L88.461,251.841L135.415,226.238L87.833,254.859L136.829,229.133L86.885,258.059L138.892,230.322L85.777,261.23L139.579,232.529L84.271,264.551L141.537,234.704L83.28,267.154L143.046,237.743L82.395,270.11L145.342,241.749L80.929,272.882L147.433,244.064L79.988,276.103L148.138,247.071L78.931,278.889L150.41,248.767L77.522,281.824L152.281,251.986L75.719,284.782L155.999,255.011L74.597,287.943L156.501,258.877L73.861,291.453L159.584,261.238L72.64,294.555L163.123,263.29L71.222,297.796L164.363,266.395L70.162,301.604L165.078,270.426L68.71,304.619L169.94,273.325L66.878,307.997L171.069,276.646L65.913,311.056L171.565,280.296L64.56,313.962L175.711,280.917L63.433,316.926L177.85,283.778L61.976,320.142L180.305,286.531L61.442,323.114L182.835,289.016L60.462,326.461L185.42,292.308L60.211,329.888L187.767,294.982L58.838,333.997L189.919,298.143L58.168,337.019L193.244,300.706L57.108,340.587L195.512,303.354L56.6,344.037L197.804,306.186L56.96,347.748L198.127,309.827L56.377,352.208L186.367,316.451L55.684,356.577L120.153,339.069L54.948,360.569L114.427,343.909L54.978,363.86L112.845,347.976L54.63,366.492L110.914,351.874L54.597,368.893L109.923,355.905L54.456,372.294L109.281,359.272L54.629,376.294L108.712,362.345L55.017,380.386L107.664,366.368L55.397,383.547L106.809,370.871L56.136,387.189L105.803,375.918L56.406,390.82L106.033,379.958L57.079,394.259L104.562,383.212L57.513,397.737L106.532,384.733L58.506,401.633L105.308,388.512L60.254,405.782L103.634,392.254L61.38,408.715L105.38,393.652L62.192,412.704L103.434,396.68L63.995,415.848L105.354,398.071L65.549,419.186L105.64,400.869L68.435,421.029L104.494,403.653L70.258,424.997L106.416,404.45L72.524,428.454L106.056,406.716L74.943,430.622L102.808,410.702L77.625,433.86L99.123,414.461L80.59,437.144" style="fill:none;stroke:black;stroke-width:1.03px;"/>
            </g>
            <g transform="matrix(1,0,0,1,-0.159207,108.34)">
                <path d="M84.846,206.248L87.318,205.321L85.036,208.533L87.884,208.599L85.645,210.731L87.728,211.559L85.465,214.059L87.615,213.67L85.679,215.693L87.48,215.374L85.181,217.901L87.367,217.597L84.843,220.906L87.396,219.968L84.906,222.998L87.043,222.118L84.791,225.461L86.856,224.631L83.965,228.455L85.732,227.748L83.327,231.216L85.282,230.388L82.845,234.302L84.903,233.227L82.109,237.785L84.34,236.491L80.756,241.586L82.817,240.606L80.002,243.452L82.566,242.543L79.108,246.919L81.664,245.928L78.352,249.263L80.786,248.991L77.179,252.262L79.602,252.022L76.595,254.986L78.491,255.142L74.973,258.282L77.459,257.548L73.456,261.73L76.109,261.185L72,265.657L74.701,264.297L69.968,269.665L73.567,268.104L68.222,273.949L71.529,272.626L66.249,277.367L69.512,276.835L64.537,281.188L68.119,279.949L63.062,284.389L66.914,283.138L61.02,288.297L65.301,286.317L59.152,291.694L63.73,291.33L57.23,295.917L61.778,295.527L54.224,300.97L59.398,299.982L51.241,305.965L57.148,304.771L48.339,310.864L55.204,309.01L45.848,315.375L53.582,314.165L43.517,319.079L51.981,318.724L41.43,324.56L50.106,323.882L38.946,328.26L49.379,328.424L37.116,332.949L47.846,333.118L35.719,337.568L46.882,338.475L35.236,341.973L46.307,342.299L33.602,346.561L45.283,346.547L33.633,350.483L45.014,350.872L33.703,355.12L44.728,353.957L33.093,358.453L43.522,358.443L33.581,361.86L43.567,362.01L33.693,365.204L43.339,365.797L34.297,368.93L43.597,369.419L35.133,372.802L42.871,373.274L34.977,375.968L43.272,375.925L35.655,379.143L43.649,378.803L36.641,381.777L43.578,381.494L37.601,384.708L44.204,384.268L38.33,386.829L44.585,387.181L39.88,390.055L45.589,391.014L41.333,393.212L44.922,393.524L43.192,395.067L46.62,395.406L43.411,396.855L47.011,397.779L45.284,399.573L47.583,401.665L47.495,399.439L45.792,401.227L48.434,404.286" style="fill:none;stroke:black;stroke-width:1px;"/>
            </g>
            <g transform="matrix(1,0,0,1,-0.159207,108.34)">
                <path d="M323.304,194.252L322.101,193.937L323.268,194.816L324.206,194.479L324.157,195.103L325.065,194.379L324.912,195.777L325.857,194.658L325.857,195.959L326.706,195.237L326.706,196.645L327.856,195.211L327.503,196.732L329.178,195.607L328.34,197.215L330.067,196.015L328.86,197.663L331.531,196.217L329.884,198.565L332.797,196.441L330.966,199.182L334.134,196.817L332.042,199.919L335.487,197.154L333.06,200.591L336.698,197.588L333.666,201.347L337.94,197.924L334.7,202.081L339.339,198.165L335.807,202.899L340.578,198.785L336.973,203.781L341.958,199.34L337.878,204.559L343.19,199.794L339.04,205.458L344.353,200.091L339.666,206.364L345.681,200.762L340.692,207.156L346.883,201.101L341.753,208.028L348.125,201.761L342.733,208.909L349.384,202.189L343.581,209.868L350.614,202.719L344.455,210.757L351.629,203.432L345.46,211.593L352.764,203.911L346.425,212.44L353.813,204.638L347.237,213.249L355.072,205.07L348.068,214.341L355.92,205.648L348.654,215.032L356.86,206.052L349.409,215.744L357.865,206.784L349.917,216.444L358.854,207.347L350.528,217.2L359.894,207.969L351.131,218.051L360.86,208.491L351.601,218.583L361.702,208.941L352.034,219.423L362.386,209.518L352.493,220.031L363.121,210.011L352.982,220.671L363.933,210.588L353.456,221.33L364.663,211.196L354.099,222.026L365.375,211.749L354.431,222.773L366.047,212.247L354.893,223.349L366.686,212.745L355.335,224.073L367.348,213.182L355.789,224.759L368.118,213.701L356.17,225.343L368.588,214.147L356.571,226.14L369.096,214.668L357.047,226.68L369.673,215.082L357.444,227.271L370.147,215.642L357.817,227.866L370.653,216.124L358.138,228.481L371.163,216.617L358.495,229.014L371.637,217.228L358.83,229.717L372.229,217.827L359.213,230.467L372.824,218.266L359.511,231.114L373.459,218.756L359.711,231.689L373.894,219.244L360.042,232.245L374.418,219.775L360.303,232.743L374.956,220.253L360.682,233.438L375.367,220.837L360.945,234.201L375.863,221.384L361.195,234.832L376.375,221.857L361.484,235.403L376.781,222.403L361.647,235.894L377.196,222.917L361.754,236.462L377.629,223.39L361.931,236.983L378.056,223.763L362.199,237.421L378.419,224.222L362.355,237.91L378.749,224.639L362.504,238.375L379.143,225.139L362.693,238.847L379.542,225.658L362.873,239.449L379.953,226.106L363.036,239.959L380.259,226.491L363.11,240.479L380.485,226.942L363.274,240.929L380.746,227.353L363.405,241.376L381.094,227.639L364.176,241.564L363.512,241.67L381.372,228.02L363.699,242.117L381.544,228.427L363.763,242.621L381.81,228.79L363.89,243.076L382.106,229.104L364.043,243.572L382.281,229.477L364.124,244.083L382.656,229.921L364.253,244.518L382.792,230.464L364.342,244.965L383.083,230.854L364.44,245.35L383.379,231.214L364.585,245.696L383.657,231.584L364.592,246.11L383.834,232.015L364.729,246.445L383.947,232.439L364.776,246.689L384.241,232.81L364.812,247.055L384.413,233.158L364.967,247.52L384.559,233.581L365.045,247.99L384.758,234.032L365.126,248.397L384.978,234.455L365.266,248.831L385.188,234.828L365.357,249.309L385.368,235.343L365.544,249.807L385.613,235.783L365.524,250.311L385.759,236.299L365.609,250.769L385.982,236.809L365.657,251.267L386.179,237.298L365.788,251.766L386.409,237.694L365.79,252.257L386.548,238.116L365.841,252.76L386.665,238.526L365.916,253.281L386.828,239.034L365.957,253.8L386.979,239.505L366.013,254.343L387.215,240.032L366.137,254.769L387.364,240.643L366.138,255.178L387.49,241.26L366.162,255.642L387.596,241.753L366.372,255.91L387.738,242.178L367,255.908L387.917,242.659L367.818,255.701L388.059,243.234L368.699,255.555L388.135,243.858L369.69,255.429L388.245,244.471L370.794,255.249L388.346,244.963L371.982,254.982L388.316,245.498L373.134,254.768L388.47,246.067L374.151,254.597L388.553,246.677L375.659,254.333L388.604,247.394L377.097,254.088L388.746,248.046L378.23,253.93L388.757,248.623L379.396,253.877L388.74,249.235L380.646,253.675L388.744,249.932L381.888,253.545L388.806,250.578L383.321,253.363L388.818,251.153L384.556,253.311L388.786,251.687L386.266,252.97L388.701,252.212L387.537,252.934L388.773,252.737L388.826,253.19L373.505,255.002L388.714,253.616" style="fill:none;stroke:black;stroke-width:1px;"/>
            </g>
            <g transform="matrix(1,0,0,1,-0.159207,108.34)">
                <path d="M33.197,339.519L33.716,337.759L32.031,341.406L33.106,340.01L31.238,343.316L33.21,340.783L30.748,344.65L32.891,342.342L30.148,346.181L32.505,343.917L29.331,348.19L32.06,345.617L28.87,349.848L31.692,347.224L27.788,352.585L31.587,348.933L30.644,355.032L30.366,351.179L27.435,354.714L26.388,356.896L29.941,353.142L30.885,356.436L29.037,354.847L30.709,357.19L27.635,356.079L26.011,358.08L28.067,357.332L30.976,358.414L30.987,364.466L29.555,359.328L26.098,359.083L23.569,367.096L27.497,360.798L30.896,366.427L27.437,364.769L22.761,370.588L28.366,367.777L31.356,370.431L31.455,373.125L28.436,370.161L21.99,374.231L20.929,377.383L28.076,372.489L32.299,376.107L33.159,379.594L28.26,376.305L20.687,380.559L20.016,383.521L28.547,378.943L33.377,380.5L34.341,383.779L28.372,379.959L35.064,386.709L26.122,381.25L20.23,384.386L26.821,383.116L20.01,386.592L29.096,383.98L19.57,388.974L31.046,385.45L19.008,390.503L34.59,387.335L19.3,392.411L36.719,389.563L19.417,394.644L37.464,391.155L19.597,396.362L37.635,393.153L19.639,398.218L38.829,394.796L19.295,399.667L39.476,396.635L19.392,401.187L40.49,397.421L19.915,402.758L40.903,398.974L19.598,404.536L42.224,400.777L20.041,406.284L43.802,401.935L20.202,407.849L44.73,403.367L20.446,409.225L45.844,404.671L20.843,410.898L46.574,405.909L21.072,412.915L47.395,406.955L21.242,414.507L48.43,407.914L21.255,416.319L49.267,408.824L21.082,417.81L49.73,409.914L21.206,419.247L50.454,410.994L21.801,420.472L51.019,411.885L21.803,421.932L51.296,413.084L22.237,423.028L51.284,414.118L22.847,424.268L51.874,415.225L22.693,425.444L52.028,415.994L23.1,426.527L52.645,417.159L23.1,427.502L53.017,418.248L23.33,428.697L53.32,419.176L23.801,430.003L53.741,420.271L24.232,430.726L53.978,421.14L24.27,431.708L54.302,421.814L24.369,432.575L54.638,422.612L24.833,433.579L54.953,423.473L25.089,434.37L55.408,424.375L25.273,435.07L55.781,425.035L25.731,435.895L56.211,425.848L26.042,436.521L56.439,426.683L26.33,437.243L57.131,427.67L26.879,437.955L57.234,428.636L27.161,438.919L57.852,429.485L27.655,439.753L58.42,430.245L28.113,440.642L58.758,430.924L28.56,441.481L58.899,431.81L28.776,442.57L59.232,432.606L29.286,443.271L59.924,433.161L29.448,443.942L60.311,434.001L29.969,444.724L60.754,434.86L30.357,445.58L61.23,435.449L30.787,446.459L61.548,436.172L31.1,447.35L62.074,436.89L31.332,447.998L62.515,437.69L32.015,448.972L62.947,438.63L32.689,449.536L63.701,439.803L33.431,451.018L64.08,440.634L33.96,451.94L64.763,441.639L34.305,453.056L65.523,442.209L35.398,453.845L65.914,443.427L35.428,454.573L66.596,443.882L36.082,455.967L67.081,444.449L36.804,456.743L67.709,445.173L37.966,458.042L68.275,446.331L38.441,459.06L69.153,446.945L39.278,459.932L69.697,447.911L40.305,460.785L70.487,448.504L40.822,461.658L71.137,449.373L41.351,462.503L71.754,449.766L42.516,463.472L72.233,450.767L43.411,464.773L72.887,451.379L44.714,466.064L73.612,452.139L46.277,467.321L74.376,453.103L47.404,468.685L75.277,453.719L48.57,469.801L75.812,454.373L49.566,470.878L76.646,455.134L50.858,471.912L77.525,455.629L51.84,472.899L78.322,456.45L53.053,473.923L79.314,457.3L54.597,475.04L80.022,457.688L55.808,476.18L80.65,457.946L57.026,477.179L81.182,458.55L58.425,478.041L81.67,458.916L60.103,478.598L82.282,459.709L61.388,479.89L83.212,460.134L62.267,480.492L83.915,460.783L64.112,480.951L84.627,461.304L65.424,481.743L85.745,461.791L66.959,482.888L86.288,462.587L68.397,483.809L87.303,463.073L69.876,484.698L88.055,463.994L71.633,485.212L89.184,464.329L73.023,485.756L90.131,464.856L74.491,486.259L91.101,465.361L75.902,486.77L92.024,465.696L77.424,487.601L92.925,466.364L78.871,488.229L93.684,466.838L80.259,488.172L94.791,467.22L81.906,488.767L95.886,467.601L83.21,488.613L96.89,467.824L84.726,488.128L97.829,468.257L87.287,486.3L98.648,468.768L90.882,482.65L99.579,469.013L94.259,479.021L100.639,469.215L97.321,476.271L101.652,469.848L99.861,473.63L102.41,470.238L102.003,471.965L103.179,470.664" style="fill:none;stroke:black;stroke-width:1px;"/>
            </g>
            <g transform="matrix(1,0,0,1,-0.159207,108.34)">
                <path d="M63.589,420.44C63.589,420.44 98.18,444.018 138.66,440.434C138.841,440.418 126.638,450.2 126.539,450.281C120.936,454.855 109.112,464.912 109.112,464.912C109.112,464.912 100.279,461.157 98.345,460.055C75.558,447.066 64.721,423.04 64.336,422.103C63.86,420.942 64.709,421.824 64.709,421.824L65.738,422.434L64.95,422.808L65.99,422.681L65.104,423.265L66.25,422.888L65.155,423.572L66.792,422.929L65.502,424.259L67.433,422.996L65.873,424.743L67.96,423.353L66.133,425.615L68.607,423.784L66.516,426.001L69.249,424.234L66.896,426.824L69.86,424.667L67.433,427.402L70.31,424.954L67.71,427.838L70.731,425.192L68.154,428.58L71.317,425.556L68.669,429.507L71.873,425.851L68.862,429.927L72.307,426.421L69.05,430.363L72.876,426.306L69.498,430.618L73.529,426.808L69.759,431.175L74.188,427.073L70.119,431.721L74.751,427.322L70.416,432.339L75.37,427.542L70.831,432.957L75.892,427.852L71.053,433.588L76.566,428.215L71.39,434.229L77.317,428.593L71.869,434.935L77.855,428.814L72.19,435.403L78.317,429.093L72.659,435.846L78.784,429.335L72.925,436.46L79.296,429.392L73.199,436.874L79.93,429.808L73.708,437.276L80.431,429.976L73.968,437.842L80.953,430.256L74.305,438.399L81.56,430.427L74.805,438.926L82.148,430.802L75.159,439.557L82.744,430.979L75.632,439.956L83.327,431.179L75.962,440.532L84.01,431.394L76.407,441.116L84.64,431.856L76.793,441.611L85.213,431.987L77.305,441.917L85.859,432.187L77.544,442.449L86.405,432.444L77.933,442.899L86.832,432.615L78.289,443.194L87.446,432.841L78.576,443.61L88.074,433.026L79.041,444.14L88.856,433.242L79.563,444.641L89.449,433.52L80.032,445.222L90.202,433.621L80.457,445.671L90.917,433.83L80.822,446.023L91.53,434.036L81.122,446.49L92.18,434.263L81.49,446.84L92.918,434.602L81.983,447.359L93.574,434.801L82.582,447.905L94.229,435.006L83.075,448.425L95.036,435.23L83.428,448.889L95.671,435.382L83.91,449.345L96.389,435.606L84.258,449.765L97.09,435.748L84.85,450.207L97.799,435.882L85.532,450.612L98.415,436.029L86.068,451.126L99.044,436.182L86.807,451.649L99.806,436.504L87.292,452.185L100.773,436.561L87.882,452.648L101.869,437.02L88.494,453.298L102.744,437.181L88.977,453.741L103.789,437.263L89.708,454.32L104.505,437.944L90.502,454.803L105.581,437.724L91.271,455.443L106.627,437.97L92.19,455.931L107.375,438.471L92.793,456.256L108.264,438.622L93.53,456.844L109.284,438.786L94.539,457.613L110.315,438.945L95.409,458.118L111.47,439.112L96.038,458.644L112.511,439.255L96.722,459.099L113.298,439.358L97.587,459.453L114.177,439.467L98.345,460.055L114.887,439.551L99.154,460.354L115.739,439.647L99.982,460.655L116.69,439.749L100.739,461.028L117.577,439.837L101.379,461.424L118.48,439.922L102.266,461.725L119.357,439.999L102.974,462.213L120.369,440.081L104.02,462.779L121.643,440.174L105.149,463.081L123.124,440.27L106.029,463.505L124.153,440.327L106.86,464.071L125.423,440.389L107.558,464.295L126.418,440.43L108.577,464.408L127.748,440.475L110.009,464.056L128.891,440.504L111.786,462.884L129.974,440.525L114.725,460.229L131.205,440.54L118.186,457.361L132.436,440.545L122.018,453.865L133.416,440.543L124.95,451.316L134.516,440.533L128.481,448.135L135.526,440.518L132.264,445.313L136.529,440.497L134.796,443.272L137.55,440.47" style="fill:none;stroke:black;stroke-width:1px;"/>
            </g>
            <g transform="matrix(1,0,0,1,-0.159207,108.34)">
                <path d="M132.879,172.124L131.447,173.401L134.062,173.216L131.447,173.401L134.126,174.955L132.955,174.276L131.685,174.664L133.306,175.38L134.916,175.766L131.796,176.05L134.64,176.711L132.072,176.844L134.347,177.512L132.078,177.917L134.751,178.339L132.39,179.376L135.144,179.563L132.634,180.78L134.815,180.664L133.109,181.856L134.757,181.813L133.828,182.48L135.393,182.675L134.573,182.573L135.365,183.923" style="fill:none;stroke:black;stroke-width:1px;"/>
            </g>
            <g transform="matrix(1,0,0,1,-0.159207,108.34)">
                <path d="M259.661,248.608L198.066,309.225L252.045,258.317L198.408,312.578L249.487,263.289L199.596,315.755L248.551,266.854L201.014,317.965L246.6,272.272L202.63,320.92L244.717,277.273L203.702,323.652L242.432,282.773L204.918,325.49L240.788,287.54L206.436,328.316L240.537,291.113L208.154,330.532L239.046,297.091L209.701,333.026L237.799,303.263L211.54,335.32L235.785,308.578L213.795,337.964L234.926,313.863L216.321,340.471L233.551,320.164L218.343,342.583L232.218,325.066L220.732,344.723L230.639,333.09L222.636,346.519L229.418,339.329L224.31,348.129L228.408,345.089L226.055,349.699L228.04,348.783L227.656,351.313" style="fill:none;stroke:black;stroke-width:1px;"/>
            </g>
            <g transform="matrix(1,0,0,1,-0.159207,108.34)">
                <path d="M33.58,337.955C32.559,340.78 18.736,376.597 20.191,389.616C21.647,402.636 31.27,347.563 31.27,347.563C31.27,347.563 24.966,386.362 49.89,409.435" style="fill:none;stroke:black;stroke-width:1px;"/>
            </g>
        </g>
        <g id="words" transform="matrix(3.30066,0,0,3.30066,-548.792,-183.82)">
            <g transform="matrix(12,0,0,12,111.78,71.627)">
                <rect x="0.08" y="-0.737" width="0.05" height="0.737" style="fill-rule:nonzero;"/>
            </g>
            <g transform="matrix(12,0,0,12,119.055,71.627)">
                <path d="M0.375,0.019C0.282,0.019 0.202,-0.019 0.137,-0.094C0.07,-0.17 0.037,-0.261 0.037,-0.368C0.037,-0.475 0.07,-0.566 0.137,-0.642C0.202,-0.718 0.282,-0.755 0.375,-0.755C0.452,-0.755 0.517,-0.735 0.57,-0.693C0.623,-0.653 0.656,-0.598 0.668,-0.529L0.619,-0.529C0.61,-0.581 0.582,-0.623 0.535,-0.657C0.49,-0.691 0.436,-0.708 0.375,-0.708C0.296,-0.708 0.228,-0.675 0.171,-0.609C0.115,-0.542 0.087,-0.461 0.087,-0.368C0.087,-0.274 0.115,-0.194 0.171,-0.127C0.228,-0.06 0.296,-0.027 0.375,-0.027C0.443,-0.027 0.499,-0.047 0.543,-0.087C0.588,-0.127 0.613,-0.18 0.619,-0.246L0.668,-0.246C0.662,-0.166 0.631,-0.101 0.578,-0.053C0.525,-0.005 0.457,0.019 0.375,0.019Z" style="fill-rule:nonzero;"/>
            </g>
            <g transform="matrix(12,0,0,12,127.358,71.627)">
                <path d="M0.129,-0L0.08,-0L0.08,-0.737L0.129,-0.737L0.129,-0.43C0.146,-0.465 0.171,-0.494 0.204,-0.516C0.236,-0.537 0.271,-0.548 0.309,-0.548C0.359,-0.548 0.402,-0.529 0.437,-0.492C0.473,-0.455 0.491,-0.411 0.491,-0.359L0.491,-0L0.441,-0L0.441,-0.349C0.441,-0.392 0.428,-0.429 0.402,-0.458C0.377,-0.489 0.346,-0.504 0.309,-0.504C0.269,-0.504 0.232,-0.489 0.199,-0.46C0.165,-0.431 0.142,-0.393 0.129,-0.345L0.129,-0Z" style="fill-rule:nonzero;"/>
            </g>
            <g transform="matrix(12,0,0,12,134.096,71.627)">
                <path d="M0.294,0.009C0.219,0.009 0.159,-0.016 0.114,-0.066C0.069,-0.116 0.046,-0.182 0.046,-0.265C0.046,-0.35 0.069,-0.419 0.114,-0.471C0.159,-0.522 0.219,-0.548 0.294,-0.548C0.369,-0.548 0.429,-0.522 0.475,-0.471C0.519,-0.419 0.542,-0.35 0.542,-0.265C0.542,-0.182 0.519,-0.116 0.475,-0.066C0.429,-0.016 0.369,0.009 0.294,0.009ZM0.294,-0.032C0.354,-0.032 0.402,-0.053 0.439,-0.096C0.474,-0.138 0.492,-0.194 0.492,-0.265C0.492,-0.337 0.474,-0.395 0.439,-0.439C0.402,-0.482 0.354,-0.504 0.294,-0.504C0.234,-0.504 0.186,-0.482 0.15,-0.439C0.114,-0.395 0.096,-0.337 0.096,-0.265C0.096,-0.194 0.114,-0.138 0.15,-0.096C0.186,-0.053 0.234,-0.032 0.294,-0.032Z" style="fill-rule:nonzero;"/>
            </g>
            <g transform="matrix(12,0,0,12,141.147,71.627)">
                <path d="M0.294,0.009C0.219,0.009 0.159,-0.016 0.114,-0.066C0.069,-0.116 0.046,-0.182 0.046,-0.265C0.046,-0.35 0.069,-0.419 0.114,-0.471C0.159,-0.522 0.219,-0.548 0.294,-0.548C0.369,-0.548 0.429,-0.522 0.475,-0.471C0.519,-0.419 0.542,-0.35 0.542,-0.265C0.542,-0.182 0.519,-0.116 0.475,-0.066C0.429,-0.016 0.369,0.009 0.294,0.009ZM0.294,-0.032C0.354,-0.032 0.402,-0.053 0.439,-0.096C0.474,-0.138 0.492,-0.194 0.492,-0.265C0.492,-0.337 0.474,-0.395 0.439,-0.439C0.402,-0.482 0.354,-0.504 0.294,-0.504C0.234,-0.504 0.186,-0.482 0.15,-0.439C0.114,-0.395 0.096,-0.337 0.096,-0.265C0.096,-0.194 0.114,-0.138 0.15,-0.096C0.186,-0.053 0.234,-0.032 0.294,-0.032Z" style="fill-rule:nonzero;"/>
            </g>
            <g transform="matrix(12,0,0,12,148.198,71.627)">
                <path d="M0.239,0.014C0.182,0.014 0.135,-0.003 0.096,-0.036C0.056,-0.069 0.036,-0.109 0.036,-0.157L0.082,-0.157C0.082,-0.121 0.097,-0.09 0.128,-0.065C0.159,-0.04 0.195,-0.027 0.239,-0.027C0.288,-0.027 0.328,-0.039 0.359,-0.061C0.389,-0.084 0.404,-0.114 0.404,-0.152C0.404,-0.18 0.388,-0.204 0.357,-0.224C0.325,-0.243 0.283,-0.255 0.23,-0.26C0.173,-0.265 0.129,-0.28 0.096,-0.307C0.062,-0.333 0.045,-0.366 0.045,-0.405C0.045,-0.449 0.062,-0.483 0.096,-0.507C0.13,-0.531 0.177,-0.543 0.239,-0.543C0.297,-0.543 0.344,-0.53 0.379,-0.504C0.414,-0.479 0.432,-0.444 0.432,-0.401L0.385,-0.401C0.379,-0.434 0.364,-0.459 0.338,-0.477C0.312,-0.495 0.279,-0.504 0.239,-0.504C0.194,-0.504 0.158,-0.495 0.132,-0.477C0.105,-0.459 0.092,-0.435 0.092,-0.405C0.092,-0.377 0.108,-0.353 0.14,-0.333C0.172,-0.314 0.214,-0.302 0.267,-0.297C0.323,-0.292 0.367,-0.275 0.401,-0.247C0.434,-0.219 0.451,-0.184 0.451,-0.142C0.451,-0.094 0.431,-0.057 0.393,-0.029C0.354,-0 0.303,0.014 0.239,0.014Z" style="fill-rule:nonzero;"/>
            </g>
            <g transform="matrix(12,0,0,12,154.041,71.627)">
                <path d="M0.283,0.019C0.212,0.019 0.155,-0.007 0.112,-0.058C0.069,-0.111 0.047,-0.179 0.047,-0.265C0.047,-0.35 0.069,-0.419 0.112,-0.471C0.155,-0.522 0.212,-0.548 0.283,-0.548C0.354,-0.548 0.412,-0.524 0.455,-0.477C0.498,-0.43 0.519,-0.367 0.519,-0.288L0.519,-0.265L0.097,-0.265C0.097,-0.193 0.114,-0.135 0.148,-0.092C0.182,-0.049 0.227,-0.027 0.283,-0.027C0.325,-0.027 0.364,-0.039 0.398,-0.061C0.432,-0.084 0.456,-0.114 0.47,-0.152L0.519,-0.152C0.511,-0.103 0.484,-0.062 0.44,-0.03C0.395,0.002 0.343,0.019 0.283,0.019ZM0.097,-0.312L0.47,-0.312L0.47,-0.33C0.465,-0.379 0.446,-0.421 0.41,-0.455C0.373,-0.488 0.331,-0.504 0.283,-0.504C0.235,-0.504 0.193,-0.487 0.158,-0.453C0.121,-0.419 0.101,-0.376 0.097,-0.325L0.097,-0.312Z" style="fill-rule:nonzero;"/>
            </g>
            <g transform="matrix(12,0,0,12,124.28,85.222)">
                <path d="M0.345,-0L0.288,-0L0.288,-0.32L0.005,-0.737L0.076,-0.737L0.316,-0.378L0.548,-0.737L0.619,-0.737L0.345,-0.32L0.345,-0Z" style="fill-rule:nonzero;"/>
            </g>
            <g transform="matrix(12,0,0,12,131.763,85.222)">
                <path d="M0.294,0.009C0.219,0.009 0.159,-0.016 0.114,-0.066C0.069,-0.116 0.046,-0.182 0.046,-0.265C0.046,-0.35 0.069,-0.419 0.114,-0.471C0.159,-0.522 0.219,-0.548 0.294,-0.548C0.369,-0.548 0.429,-0.522 0.475,-0.471C0.519,-0.419 0.542,-0.35 0.542,-0.265C0.542,-0.182 0.519,-0.116 0.475,-0.066C0.429,-0.016 0.369,0.009 0.294,0.009ZM0.294,-0.032C0.354,-0.032 0.402,-0.053 0.439,-0.096C0.474,-0.138 0.492,-0.194 0.492,-0.265C0.492,-0.337 0.474,-0.395 0.439,-0.439C0.402,-0.482 0.354,-0.504 0.294,-0.504C0.234,-0.504 0.186,-0.482 0.15,-0.439C0.114,-0.395 0.096,-0.337 0.096,-0.265C0.096,-0.194 0.114,-0.138 0.15,-0.096C0.186,-0.053 0.234,-0.032 0.294,-0.032Z" style="fill-rule:nonzero;"/>
            </g>
            <g transform="matrix(12,0,0,12,138.814,85.222)">
                <path d="M0.253,0.014C0.204,0.014 0.161,-0.002 0.125,-0.035C0.09,-0.067 0.072,-0.106 0.072,-0.152L0.072,-0.529L0.122,-0.529L0.122,-0.152C0.122,-0.118 0.135,-0.088 0.16,-0.063C0.186,-0.039 0.217,-0.027 0.253,-0.027C0.296,-0.027 0.335,-0.044 0.369,-0.077C0.403,-0.11 0.424,-0.152 0.434,-0.202L0.434,-0.529L0.483,-0.529L0.483,-0L0.434,-0L0.434,-0.093C0.419,-0.061 0.395,-0.035 0.361,-0.015C0.329,0.004 0.293,0.014 0.253,0.014Z" style="fill-rule:nonzero;"/>
            </g>
            <g transform="matrix(12,0,0,12,145.567,85.222)">
                <path d="M0.08,-0L0.08,-0.076L0.142,-0.076L0.142,-0L0.08,-0ZM0.081,-0.737L0.142,-0.737L0.142,-0.491L0.123,-0.207L0.099,-0.207L0.081,-0.491L0.081,-0.737Z" style="fill-rule:nonzero;"/>
            </g>
        </g>
    </g>
</svg>
