<?xml version="1.0" encoding="UTF-8" standalone="no"?>
<!DOCTYPE svg PUBLIC "-//W3C//DTD SVG 1.1//EN" "http://www.w3.org/Graphics/SVG/1.1/DTD/svg11.dtd">
<svg width="100%" height="100%" viewBox="0 0 241 341" version="1.1" xmlns="http://www.w3.org/2000/svg" xmlns:xlink="http://www.w3.org/1999/xlink" xml:space="preserve" xmlns:serif="http://www.serif.com/" style="fill-rule:evenodd;clip-rule:evenodd;">
    <g transform="matrix(1,0,0,1,219.664,-0.454114)">
        <g id="frame" transform="matrix(0.405377,0,0,0.406616,-219.477,-0.567512)">
            <rect x="0.598" y="2.513" width="592.255" height="836.557" style="fill:rgb(235,235,235);"/>
        </g>
        <g id="lines" transform="matrix(1,0,0,1,-177.528,-250.921)">
            <g transform="matrix(0.405871,0,0,0.405871,-42.3076,294.951)">
                <path d="M50.413,408.521L47.268,404.893L44.397,401.14L41.33,396.49L39.085,392.491L37.128,388.376L35.454,384.15L34.064,379.811L32.961,375.361L32.145,370.798L31.536,365.171L31.438,355.433L32.481,345.243L34.614,334.791" style="fill:none;fill-rule:nonzero;stroke:rgb(0,0,255);stroke-width:1px;"/>
            </g>
            <g transform="matrix(0.405871,0,0,0.405871,-42.3076,294.951)">
                <path d="M62.788,419.562L70.684,424.723L78.608,428.862L87.148,432.402L97.142,435.571L106.712,437.753L117.497,439.335L128.548,440.064L139.788,439.945" style="fill:none;fill-rule:nonzero;stroke:rgb(0,0,255);stroke-width:1px;"/>
            </g>
            <g transform="matrix(0.405871,0,0,0.405871,-42.3076,294.951)">
                <path d="M109.121,465.685L127.68,449.781L186.171,402.383L192.46,396.868L202.39,387.641L211.932,377.98L219.023,370.073L225.967,361.407L215.917,353.784L211.291,349.718L206.431,344.9L202.723,340.705L199.438,336.451L196.577,332.133L194.081,327.669L191.693,322.689L188.996,316.19L184.014,301.673L180.099,287.873L170.035,248.532L166.632,237.022L163.893,229.329L160.154,221.135L155.647,213.302L149.736,205.028L140.601,194.478L138.734,191.456L136.973,187.261L136.024,183.574L135.583,180.611L135.348,176.402L135.443,173.051L136.546,164.637L137.6,160.011L138.881,155.736L141.665,149.089L143.563,145.77L145.139,143.508L146.837,141.445L149.302,138.998L151.946,136.904L154.25,135.416L156.081,134.61L157.44,134.495L158.091,134.754L159.376,136.067L160.63,138.431L163.564,145.42L166.691,151.211L170.2,156.229L174.087,160.477L176.888,162.879L180.628,165.4L184.325,167.249L188.986,168.923L194.592,170.435L200.272,171.622L214.884,173.751L232.823,175.306L259.649,176.763L268.511,177.694L277.038,178.965L284.22,180.359L291.142,182.019L296.871,183.647L303.44,185.836L303.16,185.825L310.976,186.322L318.507,187.152L325.752,188.315L332.714,189.806L339.388,191.634L344.885,193.462L350.169,195.535L355.246,197.853L360.114,200.416L364.771,203.221L372.765,208.999L377.52,213.117L380.84,216.352L383.851,219.626L387.171,223.776L390.007,227.985L391.922,231.395L393.526,234.844L394.815,238.335L395.795,241.861L396.58,246.326L396.856,249.94L396.783,253.935L409.704,253.809L423.223,254.289L438.266,255.598L447.259,256.81L446.968,257.009L454.906,252.223L463.807,247.979L475.454,243.43L488.171,239.33L496.484,237.299L504.636,236.115L508.169,235.975L511.342,236.136L514.153,236.602L516.608,237.369L518.811,238.496L520.971,240.121L523.608,242.863L525.67,245.629L527.691,248.896L530.152,253.697L532.551,259.286L534.421,264.328L538.094,276.254L541.091,288.983L543.164,301.746L544.316,314.545L544.278,313.851L550.686,325L557.283,338.135L563.204,351.851L568.772,367.114L573.576,383.036L577.393,398.605L580.394,414.05L582.257,428.074L582.838,435.995L582.978,444.262L582.645,451.038L581.882,457.271L580.873,462.19L579.354,466.743L577.165,471.312L574.756,475.245L570.782,480.507L566.587,485.133L561.727,489.776L555.354,495.109L549.061,499.794L541.049,505.169L533.325,509.893L524.312,514.97L528.283,521.841L532.309,529.471L536.028,537.255L539.439,545.189L542.209,552.368L545.031,560.586L547.808,569.893L549.751,577.471L551.645,586.141L553.228,594.961L554.377,602.928L555.378,612.032L556.068,621.287L556.446,630.688L556.31,649.117" style="fill:none;fill-rule:nonzero;stroke:rgb(0,0,255);stroke-width:1px;"/>
            </g>
            <g transform="matrix(0.405871,0,0,0.405871,-42.3076,294.951)">
                <path d="M550.493,645.773L550.374,629.186L549.926,621.087L549.11,612.084L547.965,603.194L546.67,595.385L545.118,587.668L543.059,579.089L540.675,570.622L538.28,563.188L532.709,548.593L529.533,541.425L525.649,533.469L521.44,525.626L517.357,518.644L508.74,522.912L500.014,526.907L491.34,530.546L481.76,534.173L473.192,537.066L463.73,539.863L455.267,542.003L447.787,543.61L439.418,545.084L432.023,546.096L424.666,546.828L415.783,547.364L405.435,547.697L395.214,547.728L386.12,547.5L375.139,546.891L364.309,545.925L353.629,544.594L343.096,542.899L333.648,541.047L323.403,538.662L313.444,535.949L303.951,532.906L295.337,529.639L288.523,526.599L282.381,523.388L276.919,520.009L271.502,515.937L267.485,512.194L263.721,507.705L260.5,502.351L259.743,499.588L259.862,498.989L260.594,498.324L261.133,498.299L262.534,498.845L265.433,501.143L271.092,506.878L275.963,510.965L283.04,515.741L290.347,519.729L297.589,523.024L305.534,526.088L314.179,528.921L323.532,531.516L334.808,534.142L346.3,536.337L356.952,537.966L368.7,539.321L380.577,540.238L393.596,540.739L406.773,540.725L418.041,540.312L426.743,539.709L435.171,538.767L444.548,537.293L453.943,535.367L462.417,533.252L472.785,530.171L482.233,526.897L490.749,523.567L500.224,519.438L510.669,514.379L520.18,509.305L528.773,504.332L537.677,498.716L544.67,493.852L550.921,489.041L557.15,483.599L562.991,477.563L567.606,471.603L569.637,468.332L571.286,465.083L573.296,459.302L574.819,450.19L575.225,445.187L575.39,439.006L574.819,426.554L573.278,413.938L570.516,399.056L566.272,381.737L561.811,367.118L556.649,352.992L550.784,339.354L544.674,327.07L537.951,315.213L528.255,299.754L526.367,296.329L524.823,292.835L524.385,291.024L524.441,290.205L525.033,289.554L525.698,289.582L527.635,290.867L530.377,293.78L537.257,303.031L536.441,296.819L535.177,290.047L533.51,283.167L531.76,277.179L529.344,270.092L526.392,262.595L523.723,256.736L521.125,251.936L517.606,247.002L516.139,245.521L514.224,244.144L512.823,243.563L510.519,243.129L507.63,243.031L504.153,243.269L498.981,244.039L492.888,245.335L478.174,249.418L466.37,253.592L460.981,255.938L456.268,258.379L466.559,260.641L476.455,263.368L482.271,265.592L483.588,266.495L483.84,267.259L466.262,266.208L457.385,264.622L447.49,263.165L430.584,261.425L413.583,260.606L396.478,260.714L377.653,261.866L368.43,262.871L359.392,264.163L350.547,265.743L341.895,267.612L333.428,269.766L325.003,272.256" style="fill:none;fill-rule:nonzero;stroke:rgb(0,0,255);stroke-width:1px;"/>
            </g>
            <g transform="matrix(0.405871,0,0,0.405871,-42.3076,294.951)">
                <path d="M318.542,266.779L328.259,263.824L339.563,260.924L353.086,258.169L358.99,257.192L359.014,257.468L357.89,249.758L355.891,242.338L353.419,236.091L349.77,229.224L345.859,223.457L340.564,217.144L334.391,211.124L327.195,205.329L322.814,202.314L317.439,199.061L307.558,194.138L301.406,191.648L295.904,189.736L290.193,188.031L283.267,186.305L272.874,184.323L261.9,182.915L253.871,182.271L231.121,181.077L213.056,179.266L205.125,178.069L197.926,176.682L191.462,175.103L186.405,173.562L181.913,171.875L177.613,169.851L173.337,167.266L170.2,164.903L166.628,161.573L162.86,157.031L160.15,152.791L157.079,146.572L155.766,144.67L155.209,144.334L154.53,144.348L152.629,145.661L148.871,150.045L146.186,154.195L143.665,159.598L142.152,164.455L141.171,169.63L140.772,175.334L141.15,180.622L142.33,185.349L143.419,187.919L145.317,191.035L154.348,201.358L160.819,210.287L166.485,219.924L170.939,229.294L174.115,237.61L177.739,248.91L181.415,261.849L187.316,284.172L190.989,296.385L195.856,310.056L198.734,316.926L201.308,322.374L206.347,331.268L209.008,335.103L211.967,338.832L215.227,342.463L218.788,345.996L222.647,349.428L227.675,353.413L228.558,354.064L229.419,347.274L231.604,334.346L234.167,321.257L236.871,309.037L240.722,293.752L244.7,280.467L248.752,269.374L250.804,264.65L253.297,259.702L255.391,256.183L257.506,253.214L260.069,250.37L262.226,248.606L264.842,247.212L267.829,246.519L271.659,246.452L275.234,246.879L280.343,248.017L286.166,249.824L292.697,252.303L297.816,254.53L308.188,259.884L313.329,263.071L318.101,266.443L322.51,270.001L327.318,274.486L330.36,277.729L332.416,280.729L332.587,281.661L332.458,281.983L331.845,282.354L330.924,282.361L328.942,281.675L325.171,279.469L313.84,271.384L307.113,267.315L298.076,262.703L287.543,258.288L279.065,255.476L273.407,254.341L271.131,254.219L269.229,254.387L267.811,254.793L266.372,255.619L263.774,258.214L261.463,261.611L258.668,266.937L256.189,272.669L253.202,280.722L250.558,288.794L247.375,299.575L244.406,310.679L239.956,329.847L236.415,348.398L234.525,360.29L232.658,374.331L229.654,404.827L228.67,409.295L227.759,410.958L227.077,411.263L226.331,410.948L225.68,410.142L224.951,408.066L224.52,404.939L224.419,399.14L224.899,388.905L225.827,376.502L228.428,353.871" style="fill:none;fill-rule:nonzero;stroke:rgb(0,0,255);stroke-width:1px;"/>
            </g>
            <g transform="matrix(0.405871,0,0,0.405871,-42.3076,294.951)">
                <path d="M226.107,373.522L218.676,382.203L209.337,391.57L198.108,401.598L185.138,412.219L199.813,413.143L204.183,414.019L208.9,415.332L212.352,416.802L214.544,418.434L215.469,420.087L215.794,422.524L215.605,424.982L215.017,427.892L213.028,434.069L209.817,441.632L205.388,450.572L199.106,462.012L193.874,470.556L189.116,477.258L184.833,482.122L181.538,484.825L178.593,486.177L176.016,486.303L171.671,485.672L164.377,483.648L156.589,480.77L145.755,476.05L138.528,472.254L134.981,469.929L132.981,468.287L131.206,466.242L130.54,464.813L130.53,462.527L131.136,459.977L134.305,452.211L134.455,452.207L120.715,463.892L108.939,474.604L98.735,484.664L90.352,493.775L82.603,503.18L75.796,512.537L69.455,522.684L64.633,531.932L61.072,540.294L58.26,548.719L56.043,557.701L54.506,566.973L53.652,576.536L53.477,586.386L53.984,596.527L55.172,606.958L57.266,618.762L60.326,631.578L63.603,642.041L67.256,650.91L71.29,658.197L73.695,661.559L75.702,663.894L77.785,665.915L79.946,667.624L85.278,670.638" style="fill:none;fill-rule:nonzero;stroke:rgb(0,0,255);stroke-width:1px;"/>
            </g>
            <g transform="matrix(0.405871,0,0,0.405871,-42.3076,294.951)">
                <path d="M85.345,678.342L80.352,676.199L76.01,673.839L73.002,671.738L69.574,668.671L66.345,665.008L63.81,661.506L60.949,656.758L58.284,651.418L55.823,645.486L53.557,638.959L51.169,630.594L49.338,622.785L47.738,614.294L46.673,606.972L45.913,599.752L45.43,591.624L45.507,578.7L45.994,571.886L46.792,565.173L49.093,552.977L50.777,546.555L52.71,540.546L55.01,534.593L57.29,529.488L59.853,524.383L63.201,518.423L70.442,507.344L79.399,495.789L73.086,494.433L66.657,492.283L59.31,488.876L52.881,485.067L46.036,480.122L40.083,474.933L34.645,469.278L29.725,463.153L25.324,456.567L21.437,449.511L18.002,441.829L15.145,433.719L13.156,426.243L11.601,417.741L10.733,409.036L10.536,401.024L10.831,393.765L11.447,387.305L12.403,380.746L13.691,374.086L15.316,367.325L17.589,359.474L22.617,345.422L27.512,334.101L33.237,322.528L38.542,312.878L52.727,288.552L61.769,271.457L69.189,255.371L71.941,248.452L74.14,242.173L75.908,236.287L77.501,229.578L78.394,224.276L78.941,218.268L78.958,213.554L78.576,209.104L77.599,204.118L76.174,199.628L76.111,197.66L76.496,197.072L77.036,196.82L80.107,196.82L83.668,197.555L87.453,199.044" style="fill:none;fill-rule:nonzero;stroke:rgb(0,0,255);stroke-width:1px;"/>
            </g>
            <g transform="matrix(0.405871,0,0,0.405871,-42.3076,294.951)">
                <path d="M88.195,204.019L85.548,202.843L83.055,202.713L84.379,215.529L84.151,221.034L83.395,227.008L82.11,233.451L79.991,241.389L77.179,249.94L73.674,259.1L67.732,272.844L60.743,287.081L53.823,299.775L43.389,317.644L37.226,329.346L31.501,341.815L26.812,353.983L22.908,366.824L21.311,373.589L20.068,380.253L19.178,386.815L18.643,393.268L18.464,399.623L18.636,405.87L19.756,416.347L21.913,426.516L23.653,432.308L25.425,437.189L29.641,446.507L34.771,455.264L37.653,459.358L40.745,463.258L44.047,466.97L47.559,470.489L55.217,476.953L62.672,481.961L70.127,485.879L77.438,488.607L84.326,490.144L92.835,481.099L103.97,470.37" style="fill:none;fill-rule:nonzero;stroke:rgb(0,0,255);stroke-width:1px;"/>
            </g>
            <g transform="matrix(0.405871,0,0,0.405871,-42.3076,294.951)">
                <path d="M72.953,543.806L70.988,547.367L69.031,551.671L67.83,555.467L67.424,557.981L67.445,560.208L67.872,561.85L68.74,563.636L70.575,566.231L74.784,570.59L80.737,575.506L89.747,581.865L96.718,586.113L101.333,588.34L104.87,589.366L106.474,589.411L107.325,589.198L109.59,587.804L111.558,585.826L113.123,583.84L117.087,577.534L121.475,568.881L125.334,560.082L128.11,552.599L129.669,546.751L130.012,542.532L129.725,541.036L129.077,539.853L126.808,537.864L123.173,535.998L117.007,533.928L110.364,532.338L107.325,531.736L84.631,530.689L82.001,532.454L79.298,535.031L75.817,539.398L72.953,543.806Z" style="fill:none;fill-rule:nonzero;stroke:rgb(0,0,255);stroke-width:1px;"/>
            </g>
            <g transform="matrix(0.405871,0,0,0.405871,-42.3076,294.951)">
                <path d="M53.855,594.832L57.136,601.615L60.669,607.207L64.759,612.329L69.406,616.987L74.606,621.175L81.234,625.384L87.628,628.567L94.575,631.284L102.64,633.654L110.459,635.248L119.472,636.298L127.68,636.568L137.365,636.112L146.217,634.953L154.127,633.112L160.521,630.843" style="fill:none;fill-rule:nonzero;stroke:rgb(0,0,255);stroke-width:1px;"/>
            </g>
            <g transform="matrix(0.405871,0,0,0.405871,-42.3076,294.951)">
                <path d="M168.691,661.251L165.361,665.029" style="fill:none;fill-rule:nonzero;stroke:rgb(0,0,255);stroke-width:1px;"/>
            </g>
            <g transform="matrix(0.405871,0,0,0.405871,-42.3076,294.951)">
                <path d="M171.404,667.305L167.476,671.09L168.932,677.621L169.363,682.12L169.216,683.692L168.827,684.82L167.633,685.769L164.604,686.308L161.516,686.126L156.312,685.1L150.797,683.416L147.618,682.015L145.286,680.506L143.798,678.892L143.069,676.99L142.947,674.504L143.552,671.727L144.361,669.711L146.179,666.444L148.598,663.064L151.081,660.459L152.737,659.209L155.22,658.071L156.876,657.802L159.145,658.082L161.169,659.143L162.423,660.295L163.599,661.797L165.221,664.707L167.542,671.325" style="fill:none;fill-rule:nonzero;stroke:rgb(0,0,255);stroke-width:1px;"/>
            </g>
            <g transform="matrix(0.405871,0,0,0.405871,-42.3076,294.951)">
                <path d="M145.643,680.776L140.254,681.816" style="fill:none;fill-rule:nonzero;stroke:rgb(0,0,255);stroke-width:1px;"/>
            </g>
            <g transform="matrix(0.405871,0,0,0.405871,-42.3076,294.951)">
                <path d="M139.217,676.041L142.908,675.39" style="fill:none;fill-rule:nonzero;stroke:rgb(0,0,255);stroke-width:1px;"/>
            </g>
            <g transform="matrix(0.405871,0,0,0.405871,-42.3076,294.951)">
                <path d="M119.657,666.076L116.404,669.711L114.829,672.323L114.191,674.011L113.883,675.653L113.932,677.116L114.654,679.245L115.564,680.618L117.581,682.607L120.372,684.519L123.936,686.347L128.376,688.21L132.312,689.561L135.429,690.234L137.726,690.234L139.203,689.561L140.082,688.157L140.464,685.864L140.355,682.681L139.75,678.605L138.72,673.948L137.512,670.096L136.073,666.955L134.406,664.525L132.512,662.805L131.122,662.053L129.626,661.615L128.009,661.531L125.421,662.147L123.586,663.057L119.657,666.076Z" style="fill:none;fill-rule:nonzero;stroke:rgb(0,0,255);stroke-width:1px;"/>
            </g>
            <g transform="matrix(0.405871,0,0,0.405871,-42.3076,294.951)">
                <path d="M113.95,677.186L110.196,676.92" style="fill:none;fill-rule:nonzero;stroke:rgb(0,0,255);stroke-width:1px;"/>
            </g>
            <g transform="matrix(0.405871,0,0,0.405871,-42.3076,294.951)">
                <path d="M110.889,683.304L118.775,683.493" style="fill:none;fill-rule:nonzero;stroke:rgb(0,0,255);stroke-width:1px;"/>
            </g>
            <g transform="matrix(0.405871,0,0,0.405871,-42.3076,294.951)">
                <path d="M101.817,660.96L100.111,660.785L98.319,660.96L95.465,661.877L92.415,663.583L89.204,666.051L86.613,668.702L84.921,671.3L84.13,673.849L84.2,676.105L84.666,677.302L85.489,678.542L87.397,680.478L90.114,682.509L93.64,684.631L98.98,687.282L102.443,688.532L105.385,689.11L107.797,689.015L109.114,688.577L110,687.989L110.487,687.142L110.788,685.864L110.718,680.765L109.51,673.205L108.022,667.977L106.124,664.178L104.432,662.263L103.175,661.433L101.817,660.96Z" style="fill:none;fill-rule:nonzero;stroke:rgb(0,0,255);stroke-width:1px;"/>
            </g>
            <g transform="matrix(0.405871,0,0,0.405871,-42.3076,294.951)">
                <path d="M195.72,682.064L192.446,680.177L189.679,678.254L186.987,675.968L183.975,672.792L181.643,669.791L179.476,666.468L177.091,662.045L175.288,658.008L173.642,653.642L171.888,647.976L169.489,637.492L167.745,625.709L166.586,611.247L166.229,595.665L166.635,581.585L167.77,568.489L169.626,556.381L172.21,545.259L174.052,539.226L175.827,534.324L178.828,527.429L185.267,515.485L187.284,510.944L187.894,508.139L187.666,507.389L186.71,507.06L185.842,507.333L184.823,508.013L181.636,511.49L177.525,517.506L173.985,523.511L170.816,529.772L168.33,535.5L166.11,541.464L163.9,548.561L162.041,555.964L160.703,562.69L159.632,569.652L158.827,576.844L158.025,591.929L158.294,607.949L158.876,617.029L159.642,624.526L160.833,632.751L162.157,639.649L163.739,646.271L165.585,652.609L168.036,659.598L170.298,664.994L172.728,669.854L175.323,674.182L178.078,677.974L181.002,681.234L184.091,683.962L187.403,686.224L191.045,688.178L195.713,690.079" style="fill:none;fill-rule:nonzero;stroke:rgb(0,0,255);stroke-width:1px;"/>
            </g>
            <g transform="matrix(0.405871,0,0,0.405871,-42.3076,294.951)">
                <path d="M199.55,677.358L197.768,679.063L196.402,680.821L195.145,683.559L194.83,685.447L194.9,687.152L195.821,690.349L197.187,692.986L199.13,695.829L204.771,702.181L206.578,703.771L208.886,705.224L210.15,705.574L211.267,705.427L213.102,704.037L215.136,701.19L217.153,697.307L218.844,693.007L219.741,689.327L219.905,686.599L219.699,684.414L218.778,681.308L217.132,678.409L214.901,676.017L213.27,674.879L210.602,673.849L207.758,673.611L204.964,674.119L202.229,675.369L199.55,677.358Z" style="fill:none;fill-rule:nonzero;stroke:rgb(0,0,255);stroke-width:1px;"/>
            </g>
            <g transform="matrix(0.405871,0,0,0.405871,-42.3076,294.951)">
                <path d="M219.881,687.796L221.194,687.828" style="fill:none;fill-rule:nonzero;stroke:rgb(0,0,255);stroke-width:1px;"/>
            </g>
            <g transform="matrix(0.405871,0,0,0.405871,-42.3076,294.951)">
                <path d="M222.024,693.592L218.641,693.599" style="fill:none;fill-rule:nonzero;stroke:rgb(0,0,255);stroke-width:1px;"/>
            </g>
            <g transform="matrix(0.405871,0,0,0.405871,-42.3076,294.951)">
                <path d="M224.478,680.247L222.164,684.442L221.485,686.399L221.131,688.259L221.096,690.023L221.383,691.729L222.321,694.246L223.277,695.875L225.203,698.252L226.817,699.789L229.727,702.023L232.129,703.501L234.279,704.601L237.035,705.529L239.224,705.602L240.439,705.126L242.123,703.235L243.587,699.909L244.76,695.185L245.135,691.004L244.959,688.027L244.14,683.994L243.065,681.227L241.01,678.016L239.451,676.392L237.795,675.194L236.041,674.424L234.185,674.081L231.611,674.319L229.136,675.425L226.758,677.4L224.265,680.576L217.867,676.812L213.13,673.426L209.302,670.274L205.584,666.825L201.263,662.291L197.782,658.187L193.745,652.864L190.005,647.342L186.671,641.918L182.736,634.666L179.574,627.957L176.723,621.007L173.894,612.893L171.46,604.468L169.629,596.719L167.945,587.71L166.772,579.369" style="fill:none;fill-rule:nonzero;stroke:rgb(0,0,255);stroke-width:1px;"/>
            </g>
            <g transform="matrix(0.405871,0,0,0.405871,-42.3076,294.951)">
                <path d="M185.645,582.247L185.852,585.111L186.675,588.455L188.114,592.283L190.173,596.593L196.143,606.657L204.834,618.986L212.44,628.433L215.682,631.876L218.554,634.467L221.05,636.207L223.172,637.093L224.923,637.124L226.345,636.358L227.984,634.631L229.794,631.49L231.443,627.187L232.69,622.708L234.836,611.328L236.671,595.07L237.652,578.031L237.704,570.271L237.487,564.641L237.035,559.767L236.184,554.924L235.214,551.723L233.74,548.884L232.553,547.616L230.834,547.045L228.428,547.213L225.329,548.124L221.537,549.769L217.058,552.154L206.27,558.986L197.39,565.681L193.881,568.808L190.992,571.788L188.723,574.621L187.078,577.31L186.052,579.852L185.645,582.247Z" style="fill:none;fill-rule:nonzero;stroke:rgb(0,0,255);stroke-width:1px;"/>
            </g>
            <g transform="matrix(0.405871,0,0,0.405871,-42.3076,294.951)">
                <path d="M164.478,546.566L161.551,541.719L158.452,537.195L150.213,526.998L147.275,522.919L146.025,520.615L145.65,519.442L145.636,518.56L145.997,517.971L147.208,517.989L149.208,519.176L154.278,523.752L160.889,530.966L167.031,538.869" style="fill:none;fill-rule:nonzero;stroke:rgb(0,0,255);stroke-width:1px;"/>
            </g>
            <g transform="matrix(0.405871,0,0,0.405871,-42.3076,294.951)">
                <path d="M178.205,417.786L196.01,419.047L199.165,419.709L203.948,421.078L206.193,422.146L207.293,423.242L207.517,424.863L207.303,427.055L206.652,429.818L204.025,437.052L199.641,446.573L193.685,458.02L188.734,466.666L183.884,474.001L179.899,478.624L178.229,479.919L177.119,480.441L173.232,479.891L167.006,478.032L160.217,475.392L151.827,471.666L145.412,468.42L141.711,466.165L138.867,463.777L138.023,462.208L138.482,459.092L139.862,454.466L141.924,449.108L144.148,444.343L178.169,417.779" style="fill:none;fill-rule:nonzero;stroke:rgb(0,0,255);stroke-width:1px;"/>
            </g>
            <g transform="matrix(0.405871,0,0,0.405871,-42.3076,294.951)">
                <path d="M226.937,411.228L228.131,413.896L230.046,416.624L232.336,418.581L233.992,419.376L236.668,419.796L238.579,419.562L240.596,418.917L243.426,417.426L246.157,415.353L248.699,412.762L251.052,409.652L252.687,406.984L254.221,404.025L256.095,399.631L257.593,395.152L258.784,390.495L260.16,381.65L260.545,372.216L260.255,365.598L257.607,331.552L256.725,313.89L256.637,293.031L257.047,280.022L257.656,269.167" style="fill:none;fill-rule:nonzero;stroke:rgb(0,0,255);stroke-width:1px;"/>
            </g>
            <g transform="matrix(0.405871,0,0,0.405871,-42.3076,294.951)">
                <path d="M365.986,256.208L378.119,254.916L389.139,254.229L389.209,250.538L388.936,246.886L388.316,243.273L387.349,239.697L386.04,236.164L384.383,232.673L382.384,229.217L380.038,225.803L375.101,219.924L368.434,213.621L361.903,208.705L354.777,204.405L347.06,200.721L338.743,197.653L329.839,195.199L320.279,193.354L325.728,196.512L330.185,199.425L334.454,202.531L339.101,206.302L346.153,212.998L349.612,216.877L352.743,220.876L357.561,228.359L359.778,232.677L361.672,237.11L363.234,241.662L364.473,246.326L365.384,251.106L365.968,256.001" style="fill:none;fill-rule:nonzero;stroke:rgb(0,0,255);stroke-width:1px;"/>
            </g>
            <g transform="matrix(0.405871,0,0,0.405871,-42.3076,294.951)">
                <path d="M439.499,292.054L432.524,295.969L426.557,299.628L420.734,303.686L416.994,306.789L414.266,309.639L412.547,312.234L411.84,314.573L412.074,316.842L413.643,320.123L415.268,322.227L417.407,324.433L423.227,329.157L430.286,333.811L437.528,337.802L443.011,340.11L448.572,341.5L450.54,341.651L452.203,341.437L454.465,340.604L456.786,339.147L459.168,337.067L461.605,334.36L464.101,331.034L466.654,327.077L471.259,318.655L476.532,307.09L480.076,297.051L481.242,292.516L481.988,288.356L482.236,285.544L482.005,282.281L481.053,280.162L480.577,279.714L479.382,279.196L474.956,278.933L468.811,279.812L462.484,281.612L455.263,284.371L448.369,287.505L439.499,292.054Z" style="fill:none;fill-rule:nonzero;stroke:rgb(0,0,255);stroke-width:1px;"/>
            </g>
            <g transform="matrix(0.405871,0,0,0.405871,-42.3076,294.951)">
                <path d="M412.736,347.152L410.754,342.799L408.352,338.713L407.253,337.407L406.22,336.591L404.654,336.29L403.278,336.657L400.803,337.995L396.73,341.248L392.661,345.758L391.233,348.101L390.704,349.512L390.567,351.259L391.145,353.325L392.406,355.909L394.356,359.012L398.88,365.083L402.116,368.939L404.633,371.404L405.621,372.115L406.64,372.507L407.302,372.482L408.832,371.849L411.658,369.457L415.128,365.185L416.171,363.382L416.773,361.789L416.896,359.866L416.339,357.086L414.739,352.198L412.736,347.152Z" style="fill:none;fill-rule:nonzero;stroke:rgb(0,0,255);stroke-width:1px;"/>
            </g>
            <g transform="matrix(0.405871,0,0,0.405871,-42.3076,294.951)">
                <path d="M367.607,347.022L363.769,343.727L360.786,341.577L358.654,340.576L357.705,340.548L357.176,341.017L357.344,342.502L358.661,344.907L361.129,348.23L367.32,355.615L370.342,359.695L373.682,364.835L377.933,372.528L379.387,374.716L381.439,376.642L382.731,377.017L383.351,376.933L383.865,376.649L384.488,375.606L384.401,372.85L383.088,368.669L381.186,364.558L378.508,360.097L374.516,354.568L371.102,350.524L367.607,347.022Z" style="fill:none;fill-rule:nonzero;stroke:rgb(0,0,255);stroke-width:1px;"/>
            </g>
            <g transform="matrix(0.405871,0,0,0.405871,-42.3076,294.951)">
                <path d="M334.31,363.326L330.984,365.938L327.836,369.664L324.884,374.436L322.205,380.2L319.964,386.692L318.161,393.912L316.967,400.678L316.053,409.015L315.762,417.121L316.018,424.023L316.75,430.742L318.024,437.546L319.579,443.131L321.904,449.112L324.226,453.492L327.167,457.663L316.55,455.944L307.393,453.773L303.825,452.582L300.933,451.318L299.203,450.323L297.491,448.933L296.643,447.848L296.178,446.717L295.589,441.615L295.274,433.964L295.586,426.19L296.234,420.28L297.239,414.295L298.594,408.244L300.306,402.12L302.19,396.56L304.655,390.365L307.341,384.696L310.247,379.552L313.374,374.93L316.147,371.481L319.793,367.738L322.58,365.504L325.283,363.924L328.76,362.828L331.267,362.765L334.275,363.301" style="fill:none;fill-rule:nonzero;stroke:rgb(0,0,255);stroke-width:1px;"/>
            </g>
            <g transform="matrix(0.405871,0,0,0.405871,-42.3076,294.951)">
                <path d="M360.653,387.823L365.268,396.462L369.26,405.618L372.629,415.29L375.125,424.436L377.167,434.517L378.119,442.511L378.137,449.066L377.727,452.169L377.016,454.802L375.878,456.696L373.378,458.279L369.519,459.396L365.265,459.97L360.065,460.223L352.582,460.1L336.079,458.748L333.736,456.182L331.649,453.233L329.79,449.875L328.165,446.111L326.764,441.941L325.598,437.36L324.786,433.05L324.058,427.339L323.581,416.463L324.212,405.061L325.066,398.261L326.053,392.648L327.262,387.511L328.683,382.854L330.325,378.67L331.796,375.669L333.673,372.542L335.186,370.578L336.723,369.079L338.285,368.046L339.871,367.472L342.297,367.486L344.756,368.47L347.886,371.187L350.785,374.128L355.775,380.312L360.653,387.823Z" style="fill:none;fill-rule:nonzero;stroke:rgb(0,0,255);stroke-width:1px;"/>
            </g>
            <g transform="matrix(0.405871,0,0,0.405871,-42.3076,294.951)">
                <path d="M298.993,385.985L294.64,395.863L291.622,404.673L289.451,413.413L288.04,423.039L287.697,428.771L287.7,433.523L288.05,439.195L288.632,443.898L289.675,448.954L290.789,450.859L292.536,452.691L294.917,454.452L299.081,456.689L305.191,459.088L311.224,460.982L317.79,462.593L324.891,463.927L339.307,465.643L346.832,466.098L353.916,466.207L360.558,465.969L367.401,465.282L372.713,464.267L375.98,463.29L379.376,461.7L381.684,459.788L382.426,458.71L383.28,456.626L384.594,451.633L385.185,446.958L385.29,440.729L384.734,433.827L383.774,427.573L382.335,420.896L380.465,414.18L377.797,406.469L374.996,399.683L371.638,392.662L368.01,386.02L364.89,381.002L361.024,375.602L357.025,370.875L352.9,366.827L349.364,363.967L345.733,361.578L342.014,359.656L338.208,358.206L334.307,357.226L330.431,356.753L327.472,356.897L323.816,357.751L320.213,359.351L317.366,361.172L313.854,364.121L311.077,367.02L307.656,371.313L304.956,375.291L302.284,379.745L298.993,385.985Z" style="fill:none;fill-rule:nonzero;stroke:rgb(0,0,255);stroke-width:1px;"/>
            </g>
            <g transform="matrix(0.405871,0,0,0.405871,-42.3076,294.951)">
                <path d="M465.737,370.9L460.26,381.261L457.452,388.327L456.818,390.782L456.496,393.52L456.653,395.176L457.41,396.864L459.85,398.944L465.201,401.696L471.682,404.211L480.415,407.008L486.361,408.441L491.099,409.043L494.632,408.819L495.707,408.497L496.88,407.814L498.011,406.242L498.613,404.508L499.191,399.631L498.929,392.858L497.825,384.202L495.665,372.941L493.525,365.112L491.155,359.092L489.884,356.76L488.557,354.88L486.214,352.751L484.225,351.949L482.194,351.98L479.396,353.273L476.269,355.958L472.806,360.038L469.799,364.306L465.737,370.9Z" style="fill:none;fill-rule:nonzero;stroke:rgb(0,0,255);stroke-width:1px;"/>
            </g>
            <g transform="matrix(0.405871,0,0,0.405871,-42.3076,294.951)">
                <path d="M515.46,347.94L516.962,342.214L517,339.889L516.507,339.28L515.652,339.494L514.605,340.488L511.923,344.802L509.419,350.331L507.854,355.328L506.923,360.374L506.618,365.08L507.063,368.732L507.406,369.51L508.39,370.395L509.685,370.424L510.267,370.112L510.782,369.569L511.604,367.801L512.144,365.108L513.324,355.934L514.259,351.861L515.46,347.94Z" style="fill:none;fill-rule:nonzero;stroke:rgb(0,0,255);stroke-width:1px;"/>
            </g>
            <g transform="matrix(0.405871,0,0,0.405871,-42.3076,294.951)">
                <path d="M530.222,357.747C530.222,357.747 532.577,358.103 536.084,364.002C537.332,366.1 538.85,369.667 538.85,369.667L541.298,376.53L543.399,384.469L545.115,393.181L546.12,400.583L546.694,408.801L546.694,415.773L546.127,423.494L545.129,430.035C545.129,430.035 544.373,435.384 543.112,438.537" style="fill:none;fill-rule:nonzero;stroke:rgb(0,0,255);stroke-width:1px;"/>
            </g>
            <g transform="matrix(0.405871,0,0,0.405871,-41.0841,292.015)">
                <path d="M532.746,360.599C536.596,363.005 539.466,369.665 542.627,378.942C544.191,383.529 545.596,388.175 546.777,392.875C548.632,400.257 550.023,413.493 550.023,413.493L550.023,420.465L549.456,428.186L548.458,434.727L546.578,442.5" style="fill:none;fill-rule:nonzero;stroke:rgb(0,0,255);stroke-width:1px;"/>
            </g>
            <g transform="matrix(0.405871,0,0,0.405871,-42.3076,294.951)">
                <path d="M566.492,454.729L566.163,449.154L565.316,447.123L564.503,446.857L563.75,447.645L563.092,449.483L561.888,456.57L560.876,459.718L558.796,463.188L555.564,466.403L549.303,470.675L540.255,475.749L529.095,481.152L516.93,486.39L501.968,491.891L494.702,494.08L487.933,495.75L481.585,496.923L473.328,498.037L465.169,498.786L456.394,499.287L443.071,499.567L428.532,499.357L413.944,498.723L397.066,497.567L375.164,495.54L356.696,493.449L339.717,491.089L326.645,488.799L319.12,487.157L312.838,485.466L308.3,483.925L304.371,482.15L299.126,478.21L298.03,476.873L295.919,473.49L292.172,465.647L290.929,463.717L289.878,462.744L289.024,462.733L288.446,463.556L288.264,466.126L289.286,472.048L290.817,476.904L292.084,479.587L293.846,482.517L296.601,485.732L299.798,487.84L305.573,490.393L312.145,492.567L319.978,494.608L332.045,497.06L347.42,499.441L363.909,501.412L384.047,503.278L404.998,504.781L424.032,505.667L440.308,505.954L455.995,505.677L466.626,505.075L476.284,504.133L484.971,502.855L492.373,501.325L500.102,499.22L509.29,496.139L519.108,492.276L528.486,488.13L539.32,482.871L547.906,478.224L554.727,473.966L559.787,470.101L562.423,467.453L565.05,463.125L566.065,459.386L566.492,454.729Z" style="fill:none;fill-rule:nonzero;stroke:rgb(0,0,255);stroke-width:1px;"/>
            </g>
            <g transform="matrix(0.405871,0,0,0.405871,-42.3076,294.951)">
                <path d="M502.602,478.869L505.357,474.278L505.816,472.471L505.62,471.522L505.095,471.351L504.307,471.487L503.257,471.939L500.945,473.329L499.223,474.67L497.353,476.901L496.453,479.166L496.505,480.035L496.894,480.721L497.615,481.229L499.163,481.435L500.823,480.648L502.602,478.869Z" style="fill:none;fill-rule:nonzero;stroke:rgb(0,0,255);stroke-width:1px;"/>
            </g>
            <g transform="matrix(0.405871,0,0,0.405871,-42.3076,294.951)">
                <path d="M457.865,485.427L460.281,486.247L461.251,486.247L462.063,485.974L462.722,485.427L463.205,484.534L463.212,483.557L462.746,482.5L461.135,480.819L458.478,479.495L456.16,478.869L452.094,478.736L451.993,479.481L452.385,480.486L454.003,482.615L455.747,484.146L457.865,485.427Z" style="fill:none;fill-rule:nonzero;stroke:rgb(0,0,255);stroke-width:1px;"/>
            </g>
            <g transform="matrix(0.405871,0,0,0.405871,-42.3076,294.951)">
                <path d="M484.929,533.018L481.557,536.061L478.913,538.862L474.172,545.147L470.149,552.326L467.999,557.27L466.482,561.479L465.082,566.192L463.765,571.76L462.27,581.382L461.626,592.458L462.032,604.052L463.499,615.891L465.912,627.043L468.909,636.529L471.077,641.922L473.094,646.243L475.597,650.935L478.083,654.986L480.678,658.645L483.381,661.916L486.197,664.791L489.117,667.277L492.146,669.367L495.868,671.328" style="fill:none;fill-rule:nonzero;stroke:rgb(0,0,255);stroke-width:1px;"/>
            </g>
            <g transform="matrix(0.405871,0,0,0.405871,-42.3076,294.951)">
                <path d="M490.931,680.989L485.608,680.849L481.144,680.275L477.001,679.273L472.449,677.509L469.011,675.569L465.302,672.764L461.027,668.758L457.364,664.672L452.494,658.292L448.239,651.835L443.386,643.455L438.68,634.253L435.416,626.9L432.989,620.268L431.396,614.36L430.636,609.087" style="fill:none;fill-rule:nonzero;stroke:rgb(0,0,255);stroke-width:1px;"/>
            </g>
            <g transform="matrix(0.405871,0,0,0.405871,-42.3076,294.951)">
                <path d="M423.546,613.457L424.785,619.774L426.774,626.031L430.094,634.131L434.53,643.245L440.199,653.53L445.098,661.373L449.934,668.107L454.706,673.73L458.243,677.221L462.326,680.51L466.433,682.975L470.94,684.897L475.846,686.27L481.151,687.093L486.855,687.369L492.916,687.103" style="fill:none;fill-rule:nonzero;stroke:rgb(0,0,255);stroke-width:1px;"/>
            </g>
            <g transform="matrix(0.405871,0,0,0.405871,-42.3076,294.951)">
                <path d="M490.665,685.1L491.127,685.888L491.992,686.609L494.926,687.856L499.471,688.84L507.416,689.698L513.432,689.866L517.585,689.418L518.961,688.962L519.868,688.353L520.404,687.054L519.998,684.26L518.877,681.487L517.06,678.139L513.646,672.907L511.118,669.549L508.831,667.011L506.786,665.291L505.557,664.598L504.433,664.269L503.32,664.311L502.08,664.749L500.095,666.149L497.955,668.446L495.661,671.636L492.776,676.528L491.358,679.673L490.612,682.323L490.49,683.819L490.665,685.1Z" style="fill:none;fill-rule:nonzero;stroke:rgb(0,0,255);stroke-width:1px;"/>
            </g>
            <g transform="matrix(0.405871,0,0,0.405871,-42.3076,294.951)">
                <path d="M515.964,676.374L519.07,675.373" style="fill:none;fill-rule:nonzero;stroke:rgb(0,0,255);stroke-width:1px;"/>
            </g>
            <g transform="matrix(0.405871,0,0,0.405871,-42.3076,294.951)">
                <path d="M521.927,680.327L518.832,681.395" style="fill:none;fill-rule:nonzero;stroke:rgb(0,0,255);stroke-width:1px;"/>
            </g>
            <g transform="matrix(0.405871,0,0,0.405871,-42.3076,294.951)">
                <path d="M542.632,670.152L544.831,668.611" style="fill:none;fill-rule:nonzero;stroke:rgb(0,0,255);stroke-width:1px;"/>
            </g>
            <g transform="matrix(0.405871,0,0,0.405871,-42.3076,294.951)">
                <path d="M540.836,664.71L540.037,665.267" style="fill:none;fill-rule:nonzero;stroke:rgb(0,0,255);stroke-width:1px;"/>
            </g>
            <g transform="matrix(0.405871,0,0,0.405871,-42.3076,294.951)">
                <path d="M531.725,656.632L529.795,656.888L527.831,658.11L525.828,660.295L523.79,663.443L521.083,668.867L519.707,672.456L519.07,675.331L519.059,676.85L519.374,678.055L520.449,679.378L522.253,680.492L525.796,681.721L529.312,682.446L535.24,683.139L539.551,683.297L542.783,683.066L544.943,682.442L545.784,681.809L546.162,681.028L546.015,678.608L544.299,673.716L541.697,668.306L538.731,663.117L536.651,660.214L534.078,657.665L532.873,656.961L531.725,656.632Z" style="fill:none;fill-rule:nonzero;stroke:rgb(0,0,255);stroke-width:1px;"/>
            </g>
            <g transform="matrix(0.405871,0,0,0.405871,-42.3076,294.951)">
                <path d="M543.795,653.221L541.771,657.623L540.797,661.531L540.871,664.948L541.302,666.472L541.883,667.228L543.777,668.257L545.724,668.867L552.979,670.145L564.654,669.749L565.018,668.264L564.752,666.055L563.859,663.124L562.343,659.468L560.266,655.228L558.151,651.597L556.075,648.841L554.716,647.486L553.375,646.516L552.052,645.935L550.749,645.742L549.548,646.043L548.252,646.939L546.859,648.435L543.795,653.221Z" style="fill:none;fill-rule:nonzero;stroke:rgb(0,0,255);stroke-width:1px;"/>
            </g>
            <g transform="matrix(0.405871,0,0,0.405871,-42.3076,294.951)">
                <path d="M508.898,584.87L505.483,590.689L502.805,595.935L501.194,599.72L499.842,603.936L499.23,607.581L499.335,610.911L500.133,614.704L501.177,617.305L503.158,620.457L505.82,623.241L509.157,625.657L513.17,627.709L519.595,629.95L524.126,630.885L527.862,630.962L530.811,630.184L532.337,629.19L533.3,628.08L534.82,624.694L535.913,618.783L536.273,610.757L535.902,600.617L534.803,589.166L533.339,581.183L532.099,576.963L531.035,574.379L529.435,571.7L528.094,570.271L527.134,569.596L525.6,568.99L524.511,568.864L522.456,569.312L519.497,571.252L516.1,574.733L512.273,579.75L508.898,584.87Z" style="fill:none;fill-rule:nonzero;stroke:rgb(0,0,255);stroke-width:1px;"/>
            </g>
            <g transform="matrix(0.405871,0,0,0.405871,-42.3076,294.951)">
                <path d="M364.62,656.607L372.474,649.919L378.774,643.578L384.562,636.774L390.427,628.609L400.319,624.883L410.246,620.499L418.93,616.066L428.112,610.698L437.678,604.258L446.996,596.978L449.867,594.342L451.657,592.304L452.245,591.281L452.224,590.248L451.271,589.937L450.182,590.15L446.908,591.586L442.171,594.366L431.858,601.142L424.232,605.732L415.548,610.425L406.643,614.69L397.515,618.527L389.104,621.616L380.518,624.358L370.762,627.001L359.69,629.428L348.877,631.235L338.341,632.429L329.096,632.979L319.089,633.007L309.354,632.422L299.9,631.224L290.663,629.396" style="fill:none;fill-rule:nonzero;stroke:rgb(0,0,255);stroke-width:1px;"/>
            </g>
            <g transform="matrix(0.405871,0,0,0.405871,-42.3076,294.951)">
                <path d="M288.765,636.627L298.212,638.511L308.489,639.796L319.131,640.374L330.129,640.244L341.492,639.408L354.298,637.688L366.126,635.423L377.99,632.481L374.32,637.331L369.782,642.548L365.597,646.747L361.196,650.644" style="fill:none;fill-rule:nonzero;stroke:rgb(0,0,255);stroke-width:1px;"/>
            </g>
            <g transform="matrix(0.405871,0,0,0.405871,-42.3076,294.951)">
                <path d="M347.14,653.484L343.67,657.402L342.539,659.213L341.814,660.921L341.489,662.536L341.569,664.045L342,665.288L342.777,666.31L344.693,667.792L347.515,669.217L354.224,671.454L358.776,672.543L362.376,673.142L365.699,673.181L367.082,672.638L367.754,671.202L367.803,668.734L367.229,665.232L366.031,660.697L363.731,654.591L362.152,651.863L360.425,649.839L359.196,648.879L357.897,648.235L356.507,648.018L354.956,648.235L353.24,648.89L351.37,649.986L347.14,653.484Z" style="fill:none;fill-rule:nonzero;stroke:rgb(0,0,255);stroke-width:1px;"/>
            </g>
            <g transform="matrix(0.405871,0,0,0.405871,-42.3076,294.951)">
                <path d="M341.489,662.732L340.207,663.19" style="fill:none;fill-rule:nonzero;stroke:rgb(0,0,255);stroke-width:1px;"/>
            </g>
            <g transform="matrix(0.405871,0,0,0.405871,-42.3076,294.951)">
                <path d="M341.706,669.087L344.987,667.96" style="fill:none;fill-rule:nonzero;stroke:rgb(0,0,255);stroke-width:1px;"/>
            </g>
            <g transform="matrix(0.405871,0,0,0.405871,-42.3076,294.951)">
                <path d="M333.627,653.876L331.299,653.736L328.774,654.499L326.053,656.163L323.133,658.729L320.419,661.825L318.721,664.665L318.038,667.249L318.311,669.43L319.411,671.199L321.428,672.932L323.28,674.067L326.824,675.74L331.358,677.407L335.595,678.657L338.705,679.2L340.68,679.039L341.37,678.542L341.902,677.407L342.301,674.154L341.804,669.581L340.844,665.291L339.542,661.275L337.598,657.255L335.984,655.235L334.836,654.366L333.627,653.876Z" style="fill:none;fill-rule:nonzero;stroke:rgb(0,0,255);stroke-width:1px;"/>
            </g>
            <g transform="matrix(0.405871,0,0,0.405871,-42.3076,294.951)">
                <path d="M318.252,666.044L315.279,666.044" style="fill:none;fill-rule:nonzero;stroke:rgb(0,0,255);stroke-width:1px;"/>
            </g>
            <g transform="matrix(0.405871,0,0,0.405871,-42.3076,294.951)">
                <path d="M315.605,670.4L318.872,670.502" style="fill:none;fill-rule:nonzero;stroke:rgb(0,0,255);stroke-width:1px;"/>
            </g>
            <g transform="matrix(0.405871,0,0,0.405871,-42.3076,294.951)">
                <path d="M308.832,654.139L306.08,653.932L303.191,654.499L301.195,655.305L298.09,657.154L294.868,659.843L292.599,662.536L291.727,664.223L291.384,666.601L291.993,668.411L293.481,670.351L295.848,672.428L299.094,674.634L303.219,676.945L308.23,679.207L311.077,680.054L313.139,680.173L314.081,679.851L314.694,679.14L315.468,676.36L315.601,670.33L315.034,664.167L314.197,660.435L313.006,657.556L312.012,656.107L310.86,655.035L308.832,654.139Z" style="fill:none;fill-rule:nonzero;stroke:rgb(0,0,255);stroke-width:1px;"/>
            </g>
            <g transform="matrix(0.405871,0,0,0.405871,-42.3076,294.951)">
                <path d="M300.719,655.553L300.159,653.242L300.092,651.236L300.383,649.149L301.031,646.985L303.069,642.937L304.35,641.291L306.234,639.576" style="fill:none;fill-rule:nonzero;stroke:rgb(0,0,255);stroke-width:1px;"/>
            </g>
            <g transform="matrix(0.405871,0,0,0.405871,-42.3076,294.951)">
                <path d="M292.669,662.438L289.244,661.051L286.415,659.535L284.076,657.854L281.888,655.574" style="fill:none;fill-rule:nonzero;stroke:rgb(0,0,255);stroke-width:1px;"/>
            </g>
            <g transform="matrix(0.405871,0,0,0.405871,-42.3076,294.951)">
                <path d="M278.522,662.571L280.778,664.43L284.304,666.465L288.67,668.236L292.704,669.448" style="fill:none;fill-rule:nonzero;stroke:rgb(0,0,255);stroke-width:1px;"/>
            </g>
            <g transform="matrix(0.405871,0,0,0.405871,-42.3076,294.951)">
                <path d="M267.99,679.294L272.388,673.163L277.714,664.115L281.958,655.42L285.295,647.213L288.169,638.644L290.827,628.7L292.914,618.307L294.427,607.602L295.309,597.101L295.558,586.831L295.173,576.802L294.15,567.008L292.298,556.51L289.444,545.547L288.019,541.299L286.716,538.27L285.54,536.46L284.493,535.865L283.897,536.12L283.334,537.304L283.257,541.394L283.971,546.562L286.072,557.214L287.101,563.899L287.928,571.637L288.411,580.468L288.457,587.429L288.155,595.483L287.48,603.642L286.426,611.906L284.962,620.425L283.127,628.682L280.932,636.631L278.372,644.275L275.452,651.607L271.733,659.489L268.042,666.167L264.176,672.256" style="fill:none;fill-rule:nonzero;stroke:rgb(0,0,255);stroke-width:1px;"/>
            </g>
            <g transform="matrix(0.405871,0,0,0.405871,-42.3076,294.951)">
                <path d="M258.98,669.094L256.35,669.217L253.833,670.372L251.43,672.561L249.14,675.786L247.537,678.909L246.245,682.817L245.922,686.424L246.125,688.119L246.549,689.379L247.859,691.147L249.977,692.772L252.905,694.25L256.637,695.577C256.637,695.577 257.576,695.901 258.062,695.987C266.945,697.548 270.395,696.775 270.395,696.775L270.882,695.91L271.145,694.656L270.994,690.993L269.541,684.246L267.699,678.524L266.148,675.17L263.809,671.829L262.524,670.645L261.165,669.781L258.98,669.094Z" style="fill:none;fill-rule:nonzero;stroke:rgb(0,0,255);stroke-width:1px;"/>
            </g>
            <g transform="matrix(0.405871,0,0,0.405871,-42.3076,294.951)">
                <path d="M245.957,684.729L244.445,685.149" style="fill:none;fill-rule:nonzero;stroke:rgb(0,0,255);stroke-width:1px;"/>
            </g>
            <g transform="matrix(0.405871,0,0,0.405871,-42.3076,294.951)">
                <path d="M245.135,690.986L247.256,690.472" style="fill:none;fill-rule:nonzero;stroke:rgb(0,0,255);stroke-width:1px;"/>
            </g>
            <g transform="matrix(0.405871,0,0,0.405871,-42.3076,294.951)">
                <path d="M517.165,392.284L516.895,400.835L517.018,410.069L517.589,418.893L518.559,427.031L519.805,433.887L521.328,439.206L522.746,442.347L523.524,443.551L524.774,444.889L526.255,445.771L527.498,446.143L531.497,446.328L536.767,445.439L540.984,444.406L548.981,441.335L554.846,438.579L559.471,435.676L562.861,432.626L564.678,430.081L565.704,427.44L566.814,421.067L567.347,414.572L567.336,408.906L566.783,402.18L565.848,396.318L564.213,389.364L562.35,383.306L559.633,376.121L556.229,368.631L553.053,362.706L549.849,357.723L546.617,353.679L543.357,350.576L540.073,348.412L538.087,347.568L535.426,346.966L532.975,346.959L530.863,347.495L528.899,348.57L527.078,350.181L525.408,352.331L524.252,354.295L522.841,357.383L521.573,361.008L519.487,369.87L518.145,379.391L517.165,392.284Z" style="fill:none;fill-rule:nonzero;stroke:rgb(0,0,255);stroke-width:1px;"/>
            </g>
            <g transform="matrix(0.293127,0,0,0.358618,18.8105,313.922)">
                <path d="M552.476,440.137L559.471,435.676L562.861,432.626L564.678,430.081L565.704,427.44L566.814,421.067L567.347,414.572L567.336,408.906L566.783,402.18L565.848,396.318L564.213,389.364L562.35,383.306L559.633,376.121L556.229,368.631L553.053,362.706L549.849,357.723L546.617,353.679L543.357,350.576L540.073,348.412L538.087,347.568L535.426,346.966L532.975,346.959" style="fill:none;fill-rule:nonzero;stroke:rgb(0,0,255);stroke-width:1px;"/>
            </g>
            <g transform="matrix(0.293127,0,0,0.358618,18.8105,313.922)">
                <path d="M525.634,351.906L524.252,354.295L522.841,357.383L521.573,361.008L519.487,369.87L518.145,379.391L517.165,392.284L516.895,400.835L517.018,410.069L517.589,418.893L518.559,427.031L519.805,433.887L521.328,439.206L522.746,442.347L523.524,443.551L524.774,444.889L526.255,445.771L527.498,446.143L531.497,446.328L536.767,445.439L543.489,443.612" style="fill:none;fill-rule:nonzero;stroke:rgb(0,0,255);stroke-width:1px;"/>
            </g>
            <g transform="matrix(0.405871,0,0,0.405871,-42.3076,294.951)">
                <path d="M527.526,290.772L528.272,286.034L528.717,281.248L528.976,269.101" style="fill:none;fill-rule:nonzero;stroke:rgb(0,0,255);stroke-width:1px;"/>
            </g>
            <g transform="matrix(0.405871,0,0,0.405871,-42.3076,294.951)">
                <path d="M140.8,194.744L135.401,190.178L128.685,185.73L121.125,181.865L112.707,178.615L107.486,177.085L103.459,176.175L95.797,175.18L92.166,175.1L88.707,175.313L86.171,175.719L84.771,176.273L84.498,176.605L84.956,178.475L89.05,185.629L90.976,189.988L92.691,195.482L93.703,200.546L94.358,206.866L94.435,213.624L93.945,220.831L92.881,228.478L91.511,235.383L89.382,243.854L84.235,259.958L80.093,271.254L75.646,282.554L64.952,307.664L60.792,319.573L58.292,328.075L56.233,336.437L54.615,344.666L53.564,351.753L52.706,360.71L52.409,370.462L52.734,379.058L53.613,387.48L55.056,395.73L57.055,403.808L59.615,411.711L62.511,418.945L66.632,427.293L71.944,435.848L77.386,442.904L83.447,449.35L89.932,455.033L96.662,459.746L103.641,463.49L108.864,465.856" style="fill:none;fill-rule:nonzero;stroke:rgb(0,0,255);stroke-width:1px;"/>
            </g>
            <g transform="matrix(0.405871,0,0,0.405871,-42.3076,294.951)">
                <path d="M103.887,470.435L92.142,465.391L85.681,461.553L79.669,457.068L74.108,451.938L68.992,446.164L64.885,440.578L60.613,433.589L56.341,424.958L53.022,416.596L50.084,407.366L47.808,398.093L46.183,388.712L45.213,379.223L44.898,369.622L45.237,359.908L46.102,351.073L47.682,341.15L49.916,331.118L52.804,320.974L55.214,313.809L58.362,305.552L71.717,275.162L78.447,258.106L81.511,249.141L83.902,241.091L85.765,233.643L87.337,225.425L88.265,217.721L88.546,210.525L88.178,203.841L87.166,197.668L85.783,192.783L83.927,188.273L81.595,184.137L75.838,175.884L74.865,173.657L74.791,172.669L74.998,172.134L76.08,171.181L78.048,170.393L83.542,169.413L89.894,169.101L97.552,169.686L104.6,171.017L111.978,173.111L120.127,176.189L126.808,179.4" style="fill:none;fill-rule:nonzero;stroke:rgb(0,0,255);stroke-width:1px;"/>
            </g>
            <g transform="matrix(0.405871,0,0,0.405871,-42.3076,294.951)">
                <path d="M131.829,182.32L136.462,185.506" style="fill:none;fill-rule:nonzero;stroke:rgb(0,0,255);stroke-width:1px;"/>
            </g>
            <g transform="matrix(0.405871,0,0,0.405871,-42.3076,294.951)">
                <path d="M135.397,173.923L132.939,171.819L132.127,171.538L131.465,171.619L130.912,172.232L130.649,173.37L130.677,175.03L131.857,182.509L126.787,179.238L125.876,172.683L125.876,171.367L126.342,168.096L127.042,166.482L128.054,165.323L128.748,164.941L130.47,164.826L132.645,165.565L136.01,167.76L135.268,167.161" style="fill:none;fill-rule:nonzero;stroke:rgb(0,0,255);stroke-width:1px;"/>
            </g>
            <g transform="matrix(0.405871,0,0,0.405871,-42.3076,294.951)">
                <path d="M85.562,203.395L84.049,204.361L85.562,203.395Z" style="fill:none;stroke:black;stroke-width:1px;stroke-linecap:round;stroke-linejoin:round;stroke-miterlimit:1.5;"/>
            </g>
        </g>
    </g>
</svg>
