<?xml version="1.0" encoding="UTF-8" standalone="no"?>
<!DOCTYPE svg PUBLIC "-//W3C//DTD SVG 1.1//EN" "http://www.w3.org/Graphics/SVG/1.1/DTD/svg11.dtd">
<svg width="100%" height="100%" viewBox="0 0 596 842" version="1.1" xmlns="http://www.w3.org/2000/svg" xmlns:xlink="http://www.w3.org/1999/xlink" xml:space="preserve" xmlns:serif="http://www.serif.com/" style="fill-rule:evenodd;clip-rule:evenodd;">
    <g id="_1" serif:id="1">
        <g transform="matrix(1,0,0,1,-0.159207,108.34)">
            <path d="M50.413,408.521L47.268,404.893L44.397,401.14L41.33,396.49L39.085,392.491L37.128,388.376L35.454,384.15L34.064,379.811L32.961,375.361L32.145,370.798L31.536,365.171L31.438,355.433L32.481,345.243L34.614,334.791" style="fill:none;fill-rule:nonzero;stroke:rgb(0,0,255);stroke-width:1px;"/>
        </g>
        <g transform="matrix(1,0,0,1,-0.159207,108.34)">
            <path d="M62.788,419.562L70.684,424.723L78.608,428.862L87.148,432.402L97.142,435.571L106.712,437.753L117.497,439.335L128.548,440.064L139.788,439.945" style="fill:none;fill-rule:nonzero;stroke:rgb(0,0,255);stroke-width:1px;"/>
        </g>
        <g transform="matrix(1,0,0,1,-0.159207,108.34)">
            <path d="M109.121,465.685L127.68,449.781L186.171,402.383L192.46,396.868L202.39,387.641L211.932,377.98L219.023,370.073L225.967,361.407L215.917,353.784L211.291,349.718L206.431,344.9L202.723,340.705L199.438,336.451L196.577,332.133L194.081,327.669L191.693,322.689L188.996,316.19L184.014,301.673L180.099,287.873L170.035,248.532L166.632,237.022L163.893,229.329L160.154,221.135L155.647,213.302L149.736,205.028L140.601,194.478L138.734,191.456L136.973,187.261L136.024,183.574L135.583,180.611L135.348,176.402L135.443,173.051L136.546,164.637L137.6,160.011L138.881,155.736L141.665,149.089L143.563,145.77L145.139,143.508L146.837,141.445L149.302,138.998L151.946,136.904L154.25,135.416L156.081,134.61L157.44,134.495L158.091,134.754L159.376,136.067L160.63,138.431L163.564,145.42L166.691,151.211L170.2,156.229L174.087,160.477L176.888,162.879L180.628,165.4L184.325,167.249L188.986,168.923L194.592,170.435L200.272,171.622L214.884,173.751L232.823,175.306L259.649,176.763L268.511,177.694L277.038,178.965L284.22,180.359L291.142,182.019L296.871,183.647L303.44,185.836L303.16,185.825L310.976,186.322L318.507,187.152L325.752,188.315L332.714,189.806L339.388,191.634L344.885,193.462L350.169,195.535L355.246,197.853L360.114,200.416L364.771,203.221L372.765,208.999L377.52,213.117L380.84,216.352L383.851,219.626L387.171,223.776L390.007,227.985L391.922,231.395L393.526,234.844L394.815,238.335L395.795,241.861L396.58,246.326L396.856,249.94L396.783,253.935L409.704,253.809L423.223,254.289L438.266,255.598L447.259,256.81L446.968,257.009L454.906,252.223L463.807,247.979L475.454,243.43L488.171,239.33L496.484,237.299L504.636,236.115L508.169,235.975L511.342,236.136L514.153,236.602L516.608,237.369L518.811,238.496L520.971,240.121L523.608,242.863L525.67,245.629L527.691,248.896L530.152,253.697L532.551,259.286L534.421,264.328L538.094,276.254L541.091,288.983L543.164,301.746L544.316,314.545L544.278,313.851L550.686,325L557.283,338.135L563.204,351.851L568.772,367.114L573.576,383.036L577.393,398.605L580.394,414.05L582.257,428.074L582.838,435.995L582.978,444.262L582.645,451.038L581.882,457.271L580.873,462.19L579.354,466.743L577.165,471.312L574.756,475.245L570.782,480.507L566.587,485.133L561.727,489.776L555.354,495.109L549.061,499.794L541.049,505.169L533.325,509.893L524.312,514.97L528.283,521.841L532.309,529.471L536.028,537.255L539.439,545.189L542.209,552.368L545.031,560.586L547.808,569.893L549.751,577.471L551.645,586.141L553.228,594.961L554.377,602.928L555.378,612.032L556.068,621.287L556.446,630.688L556.31,649.117" style="fill:none;fill-rule:nonzero;stroke:rgb(0,0,255);stroke-width:1px;"/>
        </g>
        <g transform="matrix(1,0,0,1,-0.159207,108.34)">
            <path d="M550.493,645.773L550.374,629.186L549.926,621.087L549.11,612.084L547.965,603.194L546.67,595.385L545.118,587.668L543.059,579.089L540.675,570.622L538.28,563.188L532.709,548.593L529.533,541.425L525.649,533.469L521.44,525.626L517.357,518.644L508.74,522.912L500.014,526.907L491.34,530.546L481.76,534.173L473.192,537.066L463.73,539.863L455.267,542.003L447.787,543.61L439.418,545.084L432.023,546.096L424.666,546.828L415.783,547.364L405.435,547.697L395.214,547.728L386.12,547.5L375.139,546.891L364.309,545.925L353.629,544.594L343.096,542.899L333.648,541.047L323.403,538.662L313.444,535.949L303.951,532.906L295.337,529.639L288.523,526.599L282.381,523.388L276.919,520.009L271.502,515.937L267.485,512.194L263.721,507.705L260.5,502.351L259.743,499.588L259.862,498.989L260.594,498.324L261.133,498.299L262.534,498.845L265.433,501.143L271.092,506.878L275.963,510.965L283.04,515.741L290.347,519.729L297.589,523.024L305.534,526.088L314.179,528.921L323.532,531.516L334.808,534.142L346.3,536.337L356.952,537.966L368.7,539.321L380.577,540.238L393.596,540.739L406.773,540.725L418.041,540.312L426.743,539.709L435.171,538.767L444.548,537.293L453.943,535.367L462.417,533.252L472.785,530.171L482.233,526.897L490.749,523.567L500.224,519.438L510.669,514.379L520.18,509.305L528.773,504.332L537.677,498.716L544.67,493.852L550.921,489.041L557.15,483.599L562.991,477.563L567.606,471.603L569.637,468.332L571.286,465.083L573.296,459.302L574.819,450.19L575.225,445.187L575.39,439.006L574.819,426.554L573.278,413.938L570.516,399.056L566.272,381.737L561.811,367.118L556.649,352.992L550.784,339.354L544.674,327.07L537.951,315.213L528.255,299.754L526.367,296.329L524.823,292.835L524.385,291.024L524.441,290.205L525.033,289.554L525.698,289.582L527.635,290.867L530.377,293.78L537.257,303.031L536.441,296.819L535.177,290.047L533.51,283.167L531.76,277.179L529.344,270.092L526.392,262.595L523.723,256.736L521.125,251.936L517.606,247.002L516.139,245.521L514.224,244.144L512.823,243.563L510.519,243.129L507.63,243.031L504.153,243.269L498.981,244.039L492.888,245.335L478.174,249.418L466.37,253.592L460.981,255.938L456.268,258.379L466.559,260.641L476.455,263.368L482.271,265.592L483.588,266.495L483.84,267.259L466.262,266.208L457.385,264.622L447.49,263.165L430.584,261.425L413.583,260.606L396.478,260.714L377.653,261.866L368.43,262.871L359.392,264.163L350.547,265.743L341.895,267.612L333.428,269.766L325.003,272.256" style="fill:none;fill-rule:nonzero;stroke:rgb(0,0,255);stroke-width:1px;"/>
        </g>
        <g transform="matrix(1,0,0,1,-0.159207,108.34)">
            <path d="M318.542,266.779L328.259,263.824L339.563,260.924L353.086,258.169L358.99,257.192L359.014,257.468L357.89,249.758L355.891,242.338L353.419,236.091L349.77,229.224L345.859,223.457L340.564,217.144L334.391,211.124L327.195,205.329L322.814,202.314L317.439,199.061L307.558,194.138L301.406,191.648L295.904,189.736L290.193,188.031L283.267,186.305L272.874,184.323L261.9,182.915L253.871,182.271L231.121,181.077L213.056,179.266L205.125,178.069L197.926,176.682L191.462,175.103L186.405,173.562L181.913,171.875L177.613,169.851L173.337,167.266L170.2,164.903L166.628,161.573L162.86,157.031L160.15,152.791L157.079,146.572L155.766,144.67L155.209,144.334L154.53,144.348L152.629,145.661L148.871,150.045L146.186,154.195L143.665,159.598L142.152,164.455L141.171,169.63L140.772,175.334L141.15,180.622L142.33,185.349L143.419,187.919L145.317,191.035L154.348,201.358L160.819,210.287L166.485,219.924L170.939,229.294L174.115,237.61L177.739,248.91L181.415,261.849L187.316,284.172L190.989,296.385L195.856,310.056L198.734,316.926L201.308,322.374L206.347,331.268L209.008,335.103L211.967,338.832L215.227,342.463L218.788,345.996L222.647,349.428L227.675,353.413L228.558,354.064L229.419,347.274L231.604,334.346L234.167,321.257L236.871,309.037L240.722,293.752L244.7,280.467L248.752,269.374L250.804,264.65L253.297,259.702L255.391,256.183L257.506,253.214L260.069,250.37L262.226,248.606L264.842,247.212L267.829,246.519L271.659,246.452L275.234,246.879L280.343,248.017L286.166,249.824L292.697,252.303L297.816,254.53L308.188,259.884L313.329,263.071L318.101,266.443L322.51,270.001L327.318,274.486L330.36,277.729L332.416,280.729L332.587,281.661L332.458,281.983L331.845,282.354L330.924,282.361L328.942,281.675L325.171,279.469L313.84,271.384L307.113,267.315L298.076,262.703L287.543,258.288L279.065,255.476L273.407,254.341L271.131,254.219L269.229,254.387L267.811,254.793L266.372,255.619L263.774,258.214L261.463,261.611L258.668,266.937L256.189,272.669L253.202,280.722L250.558,288.794L247.375,299.575L244.406,310.679L239.956,329.847L236.415,348.398L234.525,360.29L232.658,374.331L229.654,404.827L228.67,409.295L227.759,410.958L227.077,411.263L226.331,410.948L225.68,410.142L224.951,408.066L224.52,404.939L224.419,399.14L224.899,388.905L225.827,376.502L228.428,353.871" style="fill:none;fill-rule:nonzero;stroke:rgb(0,0,255);stroke-width:1px;"/>
        </g>
        <g transform="matrix(1,0,0,1,-0.159207,108.34)">
            <path d="M226.107,373.522L218.676,382.203L209.337,391.57L198.108,401.598L185.138,412.219L199.813,413.143L204.183,414.019L208.9,415.332L212.352,416.802L214.544,418.434L215.469,420.087L215.794,422.524L215.605,424.982L215.017,427.892L213.028,434.069L209.817,441.632L205.388,450.572L199.106,462.012L193.874,470.556L189.116,477.258L184.833,482.122L181.538,484.825L178.593,486.177L176.016,486.303L171.671,485.672L164.377,483.648L156.589,480.77L145.755,476.05L138.528,472.254L134.981,469.929L132.981,468.287L131.206,466.242L130.54,464.813L130.53,462.527L131.136,459.977L134.305,452.211L134.455,452.207L120.715,463.892L108.939,474.604L98.735,484.664L90.352,493.775L82.603,503.18L75.796,512.537L69.455,522.684L64.633,531.932L61.072,540.294L58.26,548.719L56.043,557.701L54.506,566.973L53.652,576.536L53.477,586.386L53.984,596.527L55.172,606.958L57.266,618.762L60.326,631.578L63.603,642.041L67.256,650.91L71.29,658.197L73.695,661.559L75.702,663.894L77.785,665.915L79.946,667.624L85.278,670.638" style="fill:none;fill-rule:nonzero;stroke:rgb(0,0,255);stroke-width:1px;"/>
        </g>
        <g transform="matrix(1,0,0,1,-0.159207,108.34)">
            <path d="M85.345,678.342L80.352,676.199L76.01,673.839L73.002,671.738L69.574,668.671L66.345,665.008L63.81,661.506L60.949,656.758L58.284,651.418L55.823,645.486L53.557,638.959L51.169,630.594L49.338,622.785L47.738,614.294L46.673,606.972L45.913,599.752L45.43,591.624L45.507,578.7L45.994,571.886L46.792,565.173L49.093,552.977L50.777,546.555L52.71,540.546L55.01,534.593L57.29,529.488L59.853,524.383L63.201,518.423L70.442,507.344L79.399,495.789L73.086,494.433L66.657,492.283L59.31,488.876L52.881,485.067L46.036,480.122L40.083,474.933L34.645,469.278L29.725,463.153L25.324,456.567L21.437,449.511L18.002,441.829L15.145,433.719L13.156,426.243L11.601,417.741L10.733,409.036L10.536,401.024L10.831,393.765L11.447,387.305L12.403,380.746L13.691,374.086L15.316,367.325L17.589,359.474L22.617,345.422L27.512,334.101L33.237,322.528L38.542,312.878L52.727,288.552L61.769,271.457L69.189,255.371L71.941,248.452L74.14,242.173L75.908,236.287L77.501,229.578L78.394,224.276L78.941,218.268L78.958,213.554L78.576,209.104L77.599,204.118L76.174,199.628L76.111,197.66L76.496,197.072L77.036,196.82L80.107,196.82L83.668,197.555L87.453,199.044" style="fill:none;fill-rule:nonzero;stroke:rgb(0,0,255);stroke-width:1px;"/>
        </g>
        <g transform="matrix(1,0,0,1,-0.159207,108.34)">
            <path d="M88.195,204.019L85.548,202.843L83.055,202.713L84.379,215.529L84.151,221.034L83.395,227.008L82.11,233.451L79.991,241.389L77.179,249.94L73.674,259.1L67.732,272.844L60.743,287.081L53.823,299.775L43.389,317.644L37.226,329.346L31.501,341.815L26.812,353.983L22.908,366.824L21.311,373.589L20.068,380.253L19.178,386.815L18.643,393.268L18.464,399.623L18.636,405.87L19.756,416.347L21.913,426.516L23.653,432.308L25.425,437.189L29.641,446.507L34.771,455.264L37.653,459.358L40.745,463.258L44.047,466.97L47.559,470.489L55.217,476.953L62.672,481.961L70.127,485.879L77.438,488.607L84.326,490.144L92.835,481.099L103.97,470.37" style="fill:none;fill-rule:nonzero;stroke:rgb(0,0,255);stroke-width:1px;"/>
        </g>
        <g transform="matrix(1,0,0,1,-0.159207,108.34)">
            <path d="M72.953,543.806L70.988,547.367L69.031,551.671L67.83,555.467L67.424,557.981L67.445,560.208L67.872,561.85L68.74,563.636L70.575,566.231L74.784,570.59L80.737,575.506L89.747,581.865L96.718,586.113L101.333,588.34L104.87,589.366L106.474,589.411L107.325,589.198L109.59,587.804L111.558,585.826L113.123,583.84L117.087,577.534L121.475,568.881L125.334,560.082L128.11,552.599L129.669,546.751L130.012,542.532L129.725,541.036L129.077,539.853L126.808,537.864L123.173,535.998L117.007,533.928L110.364,532.338L107.325,531.736L84.631,530.689L82.001,532.454L79.298,535.031L75.817,539.398L72.953,543.806Z" style="fill:none;fill-rule:nonzero;stroke:rgb(0,0,255);stroke-width:1px;"/>
        </g>
        <g transform="matrix(1,0,0,1,-0.159207,108.34)">
            <path d="M53.855,594.832L57.136,601.615L60.669,607.207L64.759,612.329L69.406,616.987L74.606,621.175L81.234,625.384L87.628,628.567L94.575,631.284L102.64,633.654L110.459,635.248L119.472,636.298L127.68,636.568L137.365,636.112L146.217,634.953L154.127,633.112L160.521,630.843" style="fill:none;fill-rule:nonzero;stroke:rgb(0,0,255);stroke-width:1px;"/>
        </g>
        <g transform="matrix(1,0,0,1,-0.159207,108.34)">
            <path d="M168.691,661.251L165.361,665.029" style="fill:none;fill-rule:nonzero;stroke:rgb(0,0,255);stroke-width:1px;"/>
        </g>
        <g transform="matrix(1,0,0,1,-0.159207,108.34)">
            <path d="M171.404,667.305L167.476,671.09L168.932,677.621L169.363,682.12L169.216,683.692L168.827,684.82L167.633,685.769L164.604,686.308L161.516,686.126L156.312,685.1L150.797,683.416L147.618,682.015L145.286,680.506L143.798,678.892L143.069,676.99L142.947,674.504L143.552,671.727L144.361,669.711L146.179,666.444L148.598,663.064L151.081,660.459L152.737,659.209L155.22,658.071L156.876,657.802L159.145,658.082L161.169,659.143L162.423,660.295L163.599,661.797L165.221,664.707L167.542,671.325" style="fill:none;fill-rule:nonzero;stroke:rgb(0,0,255);stroke-width:1px;"/>
        </g>
        <g transform="matrix(1,0,0,1,-0.159207,108.34)">
            <path d="M145.643,680.776L140.254,681.816" style="fill:none;fill-rule:nonzero;stroke:rgb(0,0,255);stroke-width:1px;"/>
        </g>
        <g transform="matrix(1,0,0,1,-0.159207,108.34)">
            <path d="M139.217,676.041L142.908,675.39" style="fill:none;fill-rule:nonzero;stroke:rgb(0,0,255);stroke-width:1px;"/>
        </g>
        <g transform="matrix(1,0,0,1,-0.159207,108.34)">
            <path d="M119.657,666.076L116.404,669.711L114.829,672.323L114.191,674.011L113.883,675.653L113.932,677.116L114.654,679.245L115.564,680.618L117.581,682.607L120.372,684.519L123.936,686.347L128.376,688.21L132.312,689.561L135.429,690.234L137.726,690.234L139.203,689.561L140.082,688.157L140.464,685.864L140.355,682.681L139.75,678.605L138.72,673.948L137.512,670.096L136.073,666.955L134.406,664.525L132.512,662.805L131.122,662.053L129.626,661.615L128.009,661.531L125.421,662.147L123.586,663.057L119.657,666.076Z" style="fill:none;fill-rule:nonzero;stroke:rgb(0,0,255);stroke-width:1px;"/>
        </g>
        <g transform="matrix(1,0,0,1,-0.159207,108.34)">
            <path d="M113.95,677.186L110.196,676.92" style="fill:none;fill-rule:nonzero;stroke:rgb(0,0,255);stroke-width:1px;"/>
        </g>
        <g transform="matrix(1,0,0,1,-0.159207,108.34)">
            <path d="M110.889,683.304L118.775,683.493" style="fill:none;fill-rule:nonzero;stroke:rgb(0,0,255);stroke-width:1px;"/>
        </g>
        <g transform="matrix(1,0,0,1,-0.159207,108.34)">
            <path d="M101.817,660.96L100.111,660.785L98.319,660.96L95.465,661.877L92.415,663.583L89.204,666.051L86.613,668.702L84.921,671.3L84.13,673.849L84.2,676.105L84.666,677.302L85.489,678.542L87.397,680.478L90.114,682.509L93.64,684.631L98.98,687.282L102.443,688.532L105.385,689.11L107.797,689.015L109.114,688.577L110,687.989L110.487,687.142L110.788,685.864L110.718,680.765L109.51,673.205L108.022,667.977L106.124,664.178L104.432,662.263L103.175,661.433L101.817,660.96Z" style="fill:none;fill-rule:nonzero;stroke:rgb(0,0,255);stroke-width:1px;"/>
        </g>
        <g transform="matrix(1,0,0,1,-0.159207,108.34)">
            <path d="M195.72,682.064L192.446,680.177L189.679,678.254L186.987,675.968L183.975,672.792L181.643,669.791L179.476,666.468L177.091,662.045L175.288,658.008L173.642,653.642L171.888,647.976L169.489,637.492L167.745,625.709L166.586,611.247L166.229,595.665L166.635,581.585L167.77,568.489L169.626,556.381L172.21,545.259L174.052,539.226L175.827,534.324L178.828,527.429L185.267,515.485L187.284,510.944L187.894,508.139L187.666,507.389L186.71,507.06L185.842,507.333L184.823,508.013L181.636,511.49L177.525,517.506L173.985,523.511L170.816,529.772L168.33,535.5L166.11,541.464L163.9,548.561L162.041,555.964L160.703,562.69L159.632,569.652L158.827,576.844L158.025,591.929L158.294,607.949L158.876,617.029L159.642,624.526L160.833,632.751L162.157,639.649L163.739,646.271L165.585,652.609L168.036,659.598L170.298,664.994L172.728,669.854L175.323,674.182L178.078,677.974L181.002,681.234L184.091,683.962L187.403,686.224L191.045,688.178L195.713,690.079" style="fill:none;fill-rule:nonzero;stroke:rgb(0,0,255);stroke-width:1px;"/>
        </g>
        <g transform="matrix(1,0,0,1,-0.159207,108.34)">
            <path d="M199.55,677.358L197.768,679.063L196.402,680.821L195.145,683.559L194.83,685.447L194.9,687.152L195.821,690.349L197.187,692.986L199.13,695.829L204.771,702.181L206.578,703.771L208.886,705.224L210.15,705.574L211.267,705.427L213.102,704.037L215.136,701.19L217.153,697.307L218.844,693.007L219.741,689.327L219.905,686.599L219.699,684.414L218.778,681.308L217.132,678.409L214.901,676.017L213.27,674.879L210.602,673.849L207.758,673.611L204.964,674.119L202.229,675.369L199.55,677.358Z" style="fill:none;fill-rule:nonzero;stroke:rgb(0,0,255);stroke-width:1px;"/>
        </g>
        <g transform="matrix(1,0,0,1,-0.159207,108.34)">
            <path d="M219.881,687.796L221.194,687.828" style="fill:none;fill-rule:nonzero;stroke:rgb(0,0,255);stroke-width:1px;"/>
        </g>
        <g transform="matrix(1,0,0,1,-0.159207,108.34)">
            <path d="M222.024,693.592L218.641,693.599" style="fill:none;fill-rule:nonzero;stroke:rgb(0,0,255);stroke-width:1px;"/>
        </g>
        <g transform="matrix(1,0,0,1,-0.159207,108.34)">
            <path d="M224.478,680.247L222.164,684.442L221.485,686.399L221.131,688.259L221.096,690.023L221.383,691.729L222.321,694.246L223.277,695.875L225.203,698.252L226.817,699.789L229.727,702.023L232.129,703.501L234.279,704.601L237.035,705.529L239.224,705.602L240.439,705.126L242.123,703.235L243.587,699.909L244.76,695.185L245.135,691.004L244.959,688.027L244.14,683.994L243.065,681.227L241.01,678.016L239.451,676.392L237.795,675.194L236.041,674.424L234.185,674.081L231.611,674.319L229.136,675.425L226.758,677.4L224.265,680.576L217.867,676.812L213.13,673.426L209.302,670.274L205.584,666.825L201.263,662.291L197.782,658.187L193.745,652.864L190.005,647.342L186.671,641.918L182.736,634.666L179.574,627.957L176.723,621.007L173.894,612.893L171.46,604.468L169.629,596.719L167.945,587.71L166.772,579.369" style="fill:none;fill-rule:nonzero;stroke:rgb(0,0,255);stroke-width:1px;"/>
        </g>
        <g transform="matrix(1,0,0,1,-0.159207,108.34)">
            <path d="M185.645,582.247L185.852,585.111L186.675,588.455L188.114,592.283L190.173,596.593L196.143,606.657L204.834,618.986L212.44,628.433L215.682,631.876L218.554,634.467L221.05,636.207L223.172,637.093L224.923,637.124L226.345,636.358L227.984,634.631L229.794,631.49L231.443,627.187L232.69,622.708L234.836,611.328L236.671,595.07L237.652,578.031L237.704,570.271L237.487,564.641L237.035,559.767L236.184,554.924L235.214,551.723L233.74,548.884L232.553,547.616L230.834,547.045L228.428,547.213L225.329,548.124L221.537,549.769L217.058,552.154L206.27,558.986L197.39,565.681L193.881,568.808L190.992,571.788L188.723,574.621L187.078,577.31L186.052,579.852L185.645,582.247Z" style="fill:none;fill-rule:nonzero;stroke:rgb(0,0,255);stroke-width:1px;"/>
        </g>
        <g transform="matrix(1,0,0,1,-0.159207,108.34)">
            <path d="M164.478,546.566L161.551,541.719L158.452,537.195L150.213,526.998L147.275,522.919L146.025,520.615L145.65,519.442L145.636,518.56L145.997,517.971L147.208,517.989L149.208,519.176L154.278,523.752L160.889,530.966L167.031,538.869" style="fill:none;fill-rule:nonzero;stroke:rgb(0,0,255);stroke-width:1px;"/>
        </g>
        <g transform="matrix(1,0,0,1,-0.159207,108.34)">
            <path d="M178.205,417.786L196.01,419.047L199.165,419.709L203.948,421.078L206.193,422.146L207.293,423.242L207.517,424.863L207.303,427.055L206.652,429.818L204.025,437.052L199.641,446.573L193.685,458.02L188.734,466.666L183.884,474.001L179.899,478.624L178.229,479.919L177.119,480.441L173.232,479.891L167.006,478.032L160.217,475.392L151.827,471.666L145.412,468.42L141.711,466.165L138.867,463.777L138.023,462.208L138.482,459.092L139.862,454.466L141.924,449.108L144.148,444.343L178.169,417.779" style="fill:none;fill-rule:nonzero;stroke:rgb(0,0,255);stroke-width:1px;"/>
        </g>
        <g transform="matrix(1,0,0,1,-0.159207,108.34)">
            <path d="M226.937,411.228L228.131,413.896L230.046,416.624L232.336,418.581L233.992,419.376L236.668,419.796L238.579,419.562L240.596,418.917L243.426,417.426L246.157,415.353L248.699,412.762L251.052,409.652L252.687,406.984L254.221,404.025L256.095,399.631L257.593,395.152L258.784,390.495L260.16,381.65L260.545,372.216L260.255,365.598L257.607,331.552L256.725,313.89L256.637,293.031L257.047,280.022L257.656,269.167" style="fill:none;fill-rule:nonzero;stroke:rgb(0,0,255);stroke-width:1px;"/>
        </g>
        <g transform="matrix(1,0,0,1,-0.159207,108.34)">
            <path d="M365.986,256.208L378.119,254.916L389.139,254.229L389.209,250.538L388.936,246.886L388.316,243.273L387.349,239.697L386.04,236.164L384.383,232.673L382.384,229.217L380.038,225.803L375.101,219.924L368.434,213.621L361.903,208.705L354.777,204.405L347.06,200.721L338.743,197.653L329.839,195.199L320.279,193.354L325.728,196.512L330.185,199.425L334.454,202.531L339.101,206.302L346.153,212.998L349.612,216.877L352.743,220.876L357.561,228.359L359.778,232.677L361.672,237.11L363.234,241.662L364.473,246.326L365.384,251.106L365.968,256.001" style="fill:none;fill-rule:nonzero;stroke:rgb(0,0,255);stroke-width:1px;"/>
        </g>
        <g transform="matrix(1,0,0,1,-0.159207,108.34)">
            <path d="M439.499,292.054L432.524,295.969L426.557,299.628L420.734,303.686L416.994,306.789L414.266,309.639L412.547,312.234L411.84,314.573L412.074,316.842L413.643,320.123L415.268,322.227L417.407,324.433L423.227,329.157L430.286,333.811L437.528,337.802L443.011,340.11L448.572,341.5L450.54,341.651L452.203,341.437L454.465,340.604L456.786,339.147L459.168,337.067L461.605,334.36L464.101,331.034L466.654,327.077L471.259,318.655L476.532,307.09L480.076,297.051L481.242,292.516L481.988,288.356L482.236,285.544L482.005,282.281L481.053,280.162L480.577,279.714L479.382,279.196L474.956,278.933L468.811,279.812L462.484,281.612L455.263,284.371L448.369,287.505L439.499,292.054Z" style="fill:none;fill-rule:nonzero;stroke:rgb(0,0,255);stroke-width:1px;"/>
        </g>
        <g transform="matrix(1,0,0,1,-0.159207,108.34)">
            <path d="M412.736,347.152L410.754,342.799L408.352,338.713L407.253,337.407L406.22,336.591L404.654,336.29L403.278,336.657L400.803,337.995L396.73,341.248L392.661,345.758L391.233,348.101L390.704,349.512L390.567,351.259L391.145,353.325L392.406,355.909L394.356,359.012L398.88,365.083L402.116,368.939L404.633,371.404L405.621,372.115L406.64,372.507L407.302,372.482L408.832,371.849L411.658,369.457L415.128,365.185L416.171,363.382L416.773,361.789L416.896,359.866L416.339,357.086L414.739,352.198L412.736,347.152Z" style="fill:none;fill-rule:nonzero;stroke:rgb(0,0,255);stroke-width:1px;"/>
        </g>
        <g transform="matrix(1,0,0,1,-0.159207,108.34)">
            <path d="M367.607,347.022L363.769,343.727L360.786,341.577L358.654,340.576L357.705,340.548L357.176,341.017L357.344,342.502L358.661,344.907L361.129,348.23L367.32,355.615L370.342,359.695L373.682,364.835L377.933,372.528L379.387,374.716L381.439,376.642L382.731,377.017L383.351,376.933L383.865,376.649L384.488,375.606L384.401,372.85L383.088,368.669L381.186,364.558L378.508,360.097L374.516,354.568L371.102,350.524L367.607,347.022Z" style="fill:none;fill-rule:nonzero;stroke:rgb(0,0,255);stroke-width:1px;"/>
        </g>
        <g transform="matrix(1,0,0,1,-0.159207,108.34)">
            <path d="M334.31,363.326L330.984,365.938L327.836,369.664L324.884,374.436L322.205,380.2L319.964,386.692L318.161,393.912L316.967,400.678L316.053,409.015L315.762,417.121L316.018,424.023L316.75,430.742L318.024,437.546L319.579,443.131L321.904,449.112L324.226,453.492L327.167,457.663L316.55,455.944L307.393,453.773L303.825,452.582L300.933,451.318L299.203,450.323L297.491,448.933L296.643,447.848L296.178,446.717L295.589,441.615L295.274,433.964L295.586,426.19L296.234,420.28L297.239,414.295L298.594,408.244L300.306,402.12L302.19,396.56L304.655,390.365L307.341,384.696L310.247,379.552L313.374,374.93L316.147,371.481L319.793,367.738L322.58,365.504L325.283,363.924L328.76,362.828L331.267,362.765L334.275,363.301" style="fill:none;fill-rule:nonzero;stroke:rgb(0,0,255);stroke-width:1px;"/>
        </g>
        <g transform="matrix(1,0,0,1,-0.159207,108.34)">
            <path d="M360.653,387.823L365.268,396.462L369.26,405.618L372.629,415.29L375.125,424.436L377.167,434.517L378.119,442.511L378.137,449.066L377.727,452.169L377.016,454.802L375.878,456.696L373.378,458.279L369.519,459.396L365.265,459.97L360.065,460.223L352.582,460.1L336.079,458.748L333.736,456.182L331.649,453.233L329.79,449.875L328.165,446.111L326.764,441.941L325.598,437.36L324.786,433.05L324.058,427.339L323.581,416.463L324.212,405.061L325.066,398.261L326.053,392.648L327.262,387.511L328.683,382.854L330.325,378.67L331.796,375.669L333.673,372.542L335.186,370.578L336.723,369.079L338.285,368.046L339.871,367.472L342.297,367.486L344.756,368.47L347.886,371.187L350.785,374.128L355.775,380.312L360.653,387.823Z" style="fill:none;fill-rule:nonzero;stroke:rgb(0,0,255);stroke-width:1px;"/>
        </g>
        <g transform="matrix(1,0,0,1,-0.159207,108.34)">
            <path d="M298.993,385.985L294.64,395.863L291.622,404.673L289.451,413.413L288.04,423.039L287.697,428.771L287.7,433.523L288.05,439.195L288.632,443.898L289.675,448.954L290.789,450.859L292.536,452.691L294.917,454.452L299.081,456.689L305.191,459.088L311.224,460.982L317.79,462.593L324.891,463.927L339.307,465.643L346.832,466.098L353.916,466.207L360.558,465.969L367.401,465.282L372.713,464.267L375.98,463.29L379.376,461.7L381.684,459.788L382.426,458.71L383.28,456.626L384.594,451.633L385.185,446.958L385.29,440.729L384.734,433.827L383.774,427.573L382.335,420.896L380.465,414.18L377.797,406.469L374.996,399.683L371.638,392.662L368.01,386.02L364.89,381.002L361.024,375.602L357.025,370.875L352.9,366.827L349.364,363.967L345.733,361.578L342.014,359.656L338.208,358.206L334.307,357.226L330.431,356.753L327.472,356.897L323.816,357.751L320.213,359.351L317.366,361.172L313.854,364.121L311.077,367.02L307.656,371.313L304.956,375.291L302.284,379.745L298.993,385.985Z" style="fill:none;fill-rule:nonzero;stroke:rgb(0,0,255);stroke-width:1px;"/>
        </g>
        <g transform="matrix(1,0,0,1,-0.159207,108.34)">
            <path d="M465.737,370.9L460.26,381.261L457.452,388.327L456.818,390.782L456.496,393.52L456.653,395.176L457.41,396.864L459.85,398.944L465.201,401.696L471.682,404.211L480.415,407.008L486.361,408.441L491.099,409.043L494.632,408.819L495.707,408.497L496.88,407.814L498.011,406.242L498.613,404.508L499.191,399.631L498.929,392.858L497.825,384.202L495.665,372.941L493.525,365.112L491.155,359.092L489.884,356.76L488.557,354.88L486.214,352.751L484.225,351.949L482.194,351.98L479.396,353.273L476.269,355.958L472.806,360.038L469.799,364.306L465.737,370.9Z" style="fill:none;fill-rule:nonzero;stroke:rgb(0,0,255);stroke-width:1px;"/>
        </g>
        <g transform="matrix(1,0,0,1,-0.159207,108.34)">
            <path d="M515.46,347.94L516.962,342.214L517,339.889L516.507,339.28L515.652,339.494L514.605,340.488L511.923,344.802L509.419,350.331L507.854,355.328L506.923,360.374L506.618,365.08L507.063,368.732L507.406,369.51L508.39,370.395L509.685,370.424L510.267,370.112L510.782,369.569L511.604,367.801L512.144,365.108L513.324,355.934L514.259,351.861L515.46,347.94Z" style="fill:none;fill-rule:nonzero;stroke:rgb(0,0,255);stroke-width:1px;"/>
        </g>
        <g transform="matrix(1,0,0,1,-0.159207,108.34)">
            <path d="M530.222,357.747C530.222,357.747 532.577,358.103 536.084,364.002C537.332,366.1 538.85,369.667 538.85,369.667L541.298,376.53L543.399,384.469L545.115,393.181L546.12,400.583L546.694,408.801L546.694,415.773L546.127,423.494L545.129,430.035C545.129,430.035 544.373,435.384 543.112,438.537" style="fill:none;fill-rule:nonzero;stroke:rgb(0,0,255);stroke-width:1px;"/>
        </g>
        <g transform="matrix(1,0,0,1,2.85535,101.105)">
            <path d="M532.746,360.599C536.596,363.005 539.466,369.665 542.627,378.942C544.191,383.529 545.596,388.175 546.777,392.875C548.632,400.257 550.023,413.493 550.023,413.493L550.023,420.465L549.456,428.186L548.458,434.727L546.578,442.5" style="fill:none;fill-rule:nonzero;stroke:rgb(0,0,255);stroke-width:1px;"/>
        </g>
        <g transform="matrix(1,0,0,1,-0.159207,108.34)">
            <path d="M566.492,454.729L566.163,449.154L565.316,447.123L564.503,446.857L563.75,447.645L563.092,449.483L561.888,456.57L560.876,459.718L558.796,463.188L555.564,466.403L549.303,470.675L540.255,475.749L529.095,481.152L516.93,486.39L501.968,491.891L494.702,494.08L487.933,495.75L481.585,496.923L473.328,498.037L465.169,498.786L456.394,499.287L443.071,499.567L428.532,499.357L413.944,498.723L397.066,497.567L375.164,495.54L356.696,493.449L339.717,491.089L326.645,488.799L319.12,487.157L312.838,485.466L308.3,483.925L304.371,482.15L299.126,478.21L298.03,476.873L295.919,473.49L292.172,465.647L290.929,463.717L289.878,462.744L289.024,462.733L288.446,463.556L288.264,466.126L289.286,472.048L290.817,476.904L292.084,479.587L293.846,482.517L296.601,485.732L299.798,487.84L305.573,490.393L312.145,492.567L319.978,494.608L332.045,497.06L347.42,499.441L363.909,501.412L384.047,503.278L404.998,504.781L424.032,505.667L440.308,505.954L455.995,505.677L466.626,505.075L476.284,504.133L484.971,502.855L492.373,501.325L500.102,499.22L509.29,496.139L519.108,492.276L528.486,488.13L539.32,482.871L547.906,478.224L554.727,473.966L559.787,470.101L562.423,467.453L565.05,463.125L566.065,459.386L566.492,454.729Z" style="fill:none;fill-rule:nonzero;stroke:rgb(0,0,255);stroke-width:1px;"/>
        </g>
        <g transform="matrix(1,0,0,1,-0.159207,108.34)">
            <path d="M502.602,478.869L505.357,474.278L505.816,472.471L505.62,471.522L505.095,471.351L504.307,471.487L503.257,471.939L500.945,473.329L499.223,474.67L497.353,476.901L496.453,479.166L496.505,480.035L496.894,480.721L497.615,481.229L499.163,481.435L500.823,480.648L502.602,478.869Z" style="fill:none;fill-rule:nonzero;stroke:rgb(0,0,255);stroke-width:1px;"/>
        </g>
        <g transform="matrix(1,0,0,1,-0.159207,108.34)">
            <path d="M457.865,485.427L460.281,486.247L461.251,486.247L462.063,485.974L462.722,485.427L463.205,484.534L463.212,483.557L462.746,482.5L461.135,480.819L458.478,479.495L456.16,478.869L452.094,478.736L451.993,479.481L452.385,480.486L454.003,482.615L455.747,484.146L457.865,485.427Z" style="fill:none;fill-rule:nonzero;stroke:rgb(0,0,255);stroke-width:1px;"/>
        </g>
        <g transform="matrix(1,0,0,1,-0.159207,108.34)">
            <path d="M484.929,533.018L481.557,536.061L478.913,538.862L474.172,545.147L470.149,552.326L467.999,557.27L466.482,561.479L465.082,566.192L463.765,571.76L462.27,581.382L461.626,592.458L462.032,604.052L463.499,615.891L465.912,627.043L468.909,636.529L471.077,641.922L473.094,646.243L475.597,650.935L478.083,654.986L480.678,658.645L483.381,661.916L486.197,664.791L489.117,667.277L492.146,669.367L495.868,671.328" style="fill:none;fill-rule:nonzero;stroke:rgb(0,0,255);stroke-width:1px;"/>
        </g>
        <g transform="matrix(1,0,0,1,-0.159207,108.34)">
            <path d="M490.931,680.989L485.608,680.849L481.144,680.275L477.001,679.273L472.449,677.509L469.011,675.569L465.302,672.764L461.027,668.758L457.364,664.672L452.494,658.292L448.239,651.835L443.386,643.455L438.68,634.253L435.416,626.9L432.989,620.268L431.396,614.36L430.636,609.087" style="fill:none;fill-rule:nonzero;stroke:rgb(0,0,255);stroke-width:1px;"/>
        </g>
        <g transform="matrix(1,0,0,1,-0.159207,108.34)">
            <path d="M423.546,613.457L424.785,619.774L426.774,626.031L430.094,634.131L434.53,643.245L440.199,653.53L445.098,661.373L449.934,668.107L454.706,673.73L458.243,677.221L462.326,680.51L466.433,682.975L470.94,684.897L475.846,686.27L481.151,687.093L486.855,687.369L492.916,687.103" style="fill:none;fill-rule:nonzero;stroke:rgb(0,0,255);stroke-width:1px;"/>
        </g>
        <g transform="matrix(1,0,0,1,-0.159207,108.34)">
            <path d="M490.665,685.1L491.127,685.888L491.992,686.609L494.926,687.856L499.471,688.84L507.416,689.698L513.432,689.866L517.585,689.418L518.961,688.962L519.868,688.353L520.404,687.054L519.998,684.26L518.877,681.487L517.06,678.139L513.646,672.907L511.118,669.549L508.831,667.011L506.786,665.291L505.557,664.598L504.433,664.269L503.32,664.311L502.08,664.749L500.095,666.149L497.955,668.446L495.661,671.636L492.776,676.528L491.358,679.673L490.612,682.323L490.49,683.819L490.665,685.1Z" style="fill:none;fill-rule:nonzero;stroke:rgb(0,0,255);stroke-width:1px;"/>
        </g>
        <g transform="matrix(1,0,0,1,-0.159207,108.34)">
            <path d="M515.964,676.374L519.07,675.373" style="fill:none;fill-rule:nonzero;stroke:rgb(0,0,255);stroke-width:1px;"/>
        </g>
        <g transform="matrix(1,0,0,1,-0.159207,108.34)">
            <path d="M521.927,680.327L518.832,681.395" style="fill:none;fill-rule:nonzero;stroke:rgb(0,0,255);stroke-width:1px;"/>
        </g>
        <g transform="matrix(1,0,0,1,-0.159207,108.34)">
            <path d="M542.632,670.152L544.831,668.611" style="fill:none;fill-rule:nonzero;stroke:rgb(0,0,255);stroke-width:1px;"/>
        </g>
        <g transform="matrix(1,0,0,1,-0.159207,108.34)">
            <path d="M540.836,664.71L540.037,665.267" style="fill:none;fill-rule:nonzero;stroke:rgb(0,0,255);stroke-width:1px;"/>
        </g>
        <g transform="matrix(1,0,0,1,-0.159207,108.34)">
            <path d="M531.725,656.632L529.795,656.888L527.831,658.11L525.828,660.295L523.79,663.443L521.083,668.867L519.707,672.456L519.07,675.331L519.059,676.85L519.374,678.055L520.449,679.378L522.253,680.492L525.796,681.721L529.312,682.446L535.24,683.139L539.551,683.297L542.783,683.066L544.943,682.442L545.784,681.809L546.162,681.028L546.015,678.608L544.299,673.716L541.697,668.306L538.731,663.117L536.651,660.214L534.078,657.665L532.873,656.961L531.725,656.632Z" style="fill:none;fill-rule:nonzero;stroke:rgb(0,0,255);stroke-width:1px;"/>
        </g>
        <g transform="matrix(1,0,0,1,-0.159207,108.34)">
            <path d="M543.795,653.221L541.771,657.623L540.797,661.531L540.871,664.948L541.302,666.472L541.883,667.228L543.777,668.257L545.724,668.867L552.979,670.145L564.654,669.749L565.018,668.264L564.752,666.055L563.859,663.124L562.343,659.468L560.266,655.228L558.151,651.597L556.075,648.841L554.716,647.486L553.375,646.516L552.052,645.935L550.749,645.742L549.548,646.043L548.252,646.939L546.859,648.435L543.795,653.221Z" style="fill:none;fill-rule:nonzero;stroke:rgb(0,0,255);stroke-width:1px;"/>
        </g>
        <g transform="matrix(1,0,0,1,-0.159207,108.34)">
            <path d="M508.898,584.87L505.483,590.689L502.805,595.935L501.194,599.72L499.842,603.936L499.23,607.581L499.335,610.911L500.133,614.704L501.177,617.305L503.158,620.457L505.82,623.241L509.157,625.657L513.17,627.709L519.595,629.95L524.126,630.885L527.862,630.962L530.811,630.184L532.337,629.19L533.3,628.08L534.82,624.694L535.913,618.783L536.273,610.757L535.902,600.617L534.803,589.166L533.339,581.183L532.099,576.963L531.035,574.379L529.435,571.7L528.094,570.271L527.134,569.596L525.6,568.99L524.511,568.864L522.456,569.312L519.497,571.252L516.1,574.733L512.273,579.75L508.898,584.87Z" style="fill:none;fill-rule:nonzero;stroke:rgb(0,0,255);stroke-width:1px;"/>
        </g>
        <g transform="matrix(1,0,0,1,-0.159207,108.34)">
            <path d="M364.62,656.607L372.474,649.919L378.774,643.578L384.562,636.774L390.427,628.609L400.319,624.883L410.246,620.499L418.93,616.066L428.112,610.698L437.678,604.258L446.996,596.978L449.867,594.342L451.657,592.304L452.245,591.281L452.224,590.248L451.271,589.937L450.182,590.15L446.908,591.586L442.171,594.366L431.858,601.142L424.232,605.732L415.548,610.425L406.643,614.69L397.515,618.527L389.104,621.616L380.518,624.358L370.762,627.001L359.69,629.428L348.877,631.235L338.341,632.429L329.096,632.979L319.089,633.007L309.354,632.422L299.9,631.224L290.663,629.396" style="fill:none;fill-rule:nonzero;stroke:rgb(0,0,255);stroke-width:1px;"/>
        </g>
        <g transform="matrix(1,0,0,1,-0.159207,108.34)">
            <path d="M288.765,636.627L298.212,638.511L308.489,639.796L319.131,640.374L330.129,640.244L341.492,639.408L354.298,637.688L366.126,635.423L377.99,632.481L374.32,637.331L369.782,642.548L365.597,646.747L361.196,650.644" style="fill:none;fill-rule:nonzero;stroke:rgb(0,0,255);stroke-width:1px;"/>
        </g>
        <g transform="matrix(1,0,0,1,-0.159207,108.34)">
            <path d="M347.14,653.484L343.67,657.402L342.539,659.213L341.814,660.921L341.489,662.536L341.569,664.045L342,665.288L342.777,666.31L344.693,667.792L347.515,669.217L354.224,671.454L358.776,672.543L362.376,673.142L365.699,673.181L367.082,672.638L367.754,671.202L367.803,668.734L367.229,665.232L366.031,660.697L363.731,654.591L362.152,651.863L360.425,649.839L359.196,648.879L357.897,648.235L356.507,648.018L354.956,648.235L353.24,648.89L351.37,649.986L347.14,653.484Z" style="fill:none;fill-rule:nonzero;stroke:rgb(0,0,255);stroke-width:1px;"/>
        </g>
        <g transform="matrix(1,0,0,1,-0.159207,108.34)">
            <path d="M341.489,662.732L340.207,663.19" style="fill:none;fill-rule:nonzero;stroke:rgb(0,0,255);stroke-width:1px;"/>
        </g>
        <g transform="matrix(1,0,0,1,-0.159207,108.34)">
            <path d="M341.706,669.087L344.987,667.96" style="fill:none;fill-rule:nonzero;stroke:rgb(0,0,255);stroke-width:1px;"/>
        </g>
        <g transform="matrix(1,0,0,1,-0.159207,108.34)">
            <path d="M333.627,653.876L331.299,653.736L328.774,654.499L326.053,656.163L323.133,658.729L320.419,661.825L318.721,664.665L318.038,667.249L318.311,669.43L319.411,671.199L321.428,672.932L323.28,674.067L326.824,675.74L331.358,677.407L335.595,678.657L338.705,679.2L340.68,679.039L341.37,678.542L341.902,677.407L342.301,674.154L341.804,669.581L340.844,665.291L339.542,661.275L337.598,657.255L335.984,655.235L334.836,654.366L333.627,653.876Z" style="fill:none;fill-rule:nonzero;stroke:rgb(0,0,255);stroke-width:1px;"/>
        </g>
        <g transform="matrix(1,0,0,1,-0.159207,108.34)">
            <path d="M318.252,666.044L315.279,666.044" style="fill:none;fill-rule:nonzero;stroke:rgb(0,0,255);stroke-width:1px;"/>
        </g>
        <g transform="matrix(1,0,0,1,-0.159207,108.34)">
            <path d="M315.605,670.4L318.872,670.502" style="fill:none;fill-rule:nonzero;stroke:rgb(0,0,255);stroke-width:1px;"/>
        </g>
        <g transform="matrix(1,0,0,1,-0.159207,108.34)">
            <path d="M308.832,654.139L306.08,653.932L303.191,654.499L301.195,655.305L298.09,657.154L294.868,659.843L292.599,662.536L291.727,664.223L291.384,666.601L291.993,668.411L293.481,670.351L295.848,672.428L299.094,674.634L303.219,676.945L308.23,679.207L311.077,680.054L313.139,680.173L314.081,679.851L314.694,679.14L315.468,676.36L315.601,670.33L315.034,664.167L314.197,660.435L313.006,657.556L312.012,656.107L310.86,655.035L308.832,654.139Z" style="fill:none;fill-rule:nonzero;stroke:rgb(0,0,255);stroke-width:1px;"/>
        </g>
        <g transform="matrix(1,0,0,1,-0.159207,108.34)">
            <path d="M300.719,655.553L300.159,653.242L300.092,651.236L300.383,649.149L301.031,646.985L303.069,642.937L304.35,641.291L306.234,639.576" style="fill:none;fill-rule:nonzero;stroke:rgb(0,0,255);stroke-width:1px;"/>
        </g>
        <g transform="matrix(1,0,0,1,-0.159207,108.34)">
            <path d="M292.669,662.438L289.244,661.051L286.415,659.535L284.076,657.854L281.888,655.574" style="fill:none;fill-rule:nonzero;stroke:rgb(0,0,255);stroke-width:1px;"/>
        </g>
        <g transform="matrix(1,0,0,1,-0.159207,108.34)">
            <path d="M278.522,662.571L280.778,664.43L284.304,666.465L288.67,668.236L292.704,669.448" style="fill:none;fill-rule:nonzero;stroke:rgb(0,0,255);stroke-width:1px;"/>
        </g>
        <g transform="matrix(1,0,0,1,-0.159207,108.34)">
            <path d="M267.99,679.294L272.388,673.163L277.714,664.115L281.958,655.42L285.295,647.213L288.169,638.644L290.827,628.7L292.914,618.307L294.427,607.602L295.309,597.101L295.558,586.831L295.173,576.802L294.15,567.008L292.298,556.51L289.444,545.547L288.019,541.299L286.716,538.27L285.54,536.46L284.493,535.865L283.897,536.12L283.334,537.304L283.257,541.394L283.971,546.562L286.072,557.214L287.101,563.899L287.928,571.637L288.411,580.468L288.457,587.429L288.155,595.483L287.48,603.642L286.426,611.906L284.962,620.425L283.127,628.682L280.932,636.631L278.372,644.275L275.452,651.607L271.733,659.489L268.042,666.167L264.176,672.256" style="fill:none;fill-rule:nonzero;stroke:rgb(0,0,255);stroke-width:1px;"/>
        </g>
        <g transform="matrix(1,0,0,1,-0.159207,108.34)">
            <path d="M258.98,669.094L256.35,669.217L253.833,670.372L251.43,672.561L249.14,675.786L247.537,678.909L246.245,682.817L245.922,686.424L246.125,688.119L246.549,689.379L247.859,691.147L249.977,692.772L252.905,694.25L256.637,695.577C256.637,695.577 257.576,695.901 258.062,695.987C266.945,697.548 270.395,696.775 270.395,696.775L270.882,695.91L271.145,694.656L270.994,690.993L269.541,684.246L267.699,678.524L266.148,675.17L263.809,671.829L262.524,670.645L261.165,669.781L258.98,669.094Z" style="fill:none;fill-rule:nonzero;stroke:rgb(0,0,255);stroke-width:1px;"/>
        </g>
        <g transform="matrix(1,0,0,1,-0.159207,108.34)">
            <path d="M245.957,684.729L244.445,685.149" style="fill:none;fill-rule:nonzero;stroke:rgb(0,0,255);stroke-width:1px;"/>
        </g>
        <g transform="matrix(1,0,0,1,-0.159207,108.34)">
            <path d="M245.135,690.986L247.256,690.472" style="fill:none;fill-rule:nonzero;stroke:rgb(0,0,255);stroke-width:1px;"/>
        </g>
        <g transform="matrix(1,0,0,1,-0.159207,108.34)">
            <path d="M517.165,392.284L516.895,400.835L517.018,410.069L517.589,418.893L518.559,427.031L519.805,433.887L521.328,439.206L522.746,442.347L523.524,443.551L524.774,444.889L526.255,445.771L527.498,446.143L531.497,446.328L536.767,445.439L540.984,444.406L548.981,441.335L554.846,438.579L559.471,435.676L562.861,432.626L564.678,430.081L565.704,427.44L566.814,421.067L567.347,414.572L567.336,408.906L566.783,402.18L565.848,396.318L564.213,389.364L562.35,383.306L559.633,376.121L556.229,368.631L553.053,362.706L549.849,357.723L546.617,353.679L543.357,350.576L540.073,348.412L538.087,347.568L535.426,346.966L532.975,346.959L530.863,347.495L528.899,348.57L527.078,350.181L525.408,352.331L524.252,354.295L522.841,357.383L521.573,361.008L519.487,369.87L518.145,379.391L517.165,392.284Z" style="fill:none;fill-rule:nonzero;stroke:rgb(0,0,255);stroke-width:1px;"/>
        </g>
        <g transform="matrix(0.722218,0,0,0.883577,150.426,155.081)">
            <path d="M552.476,440.137L559.471,435.676L562.861,432.626L564.678,430.081L565.704,427.44L566.814,421.067L567.347,414.572L567.336,408.906L566.783,402.18L565.848,396.318L564.213,389.364L562.35,383.306L559.633,376.121L556.229,368.631L553.053,362.706L549.849,357.723L546.617,353.679L543.357,350.576L540.073,348.412L538.087,347.568L535.426,346.966L532.975,346.959" style="fill:none;fill-rule:nonzero;stroke:rgb(0,0,255);stroke-width:1px;"/>
        </g>
        <g transform="matrix(0.722218,0,0,0.883577,150.426,155.081)">
            <path d="M525.634,351.906L524.252,354.295L522.841,357.383L521.573,361.008L519.487,369.87L518.145,379.391L517.165,392.284L516.895,400.835L517.018,410.069L517.589,418.893L518.559,427.031L519.805,433.887L521.328,439.206L522.746,442.347L523.524,443.551L524.774,444.889L526.255,445.771L527.498,446.143L531.497,446.328L536.767,445.439L543.489,443.612" style="fill:none;fill-rule:nonzero;stroke:rgb(0,0,255);stroke-width:1px;"/>
        </g>
        <g transform="matrix(1,0,0,1,-0.159207,108.34)">
            <path d="M527.526,290.772L528.272,286.034L528.717,281.248L528.976,269.101" style="fill:none;fill-rule:nonzero;stroke:rgb(0,0,255);stroke-width:1px;"/>
        </g>
        <g transform="matrix(1,0,0,1,-0.159207,108.34)">
            <path d="M140.8,194.744L135.401,190.178L128.685,185.73L121.125,181.865L112.707,178.615L107.486,177.085L103.459,176.175L95.797,175.18L92.166,175.1L88.707,175.313L86.171,175.719L84.771,176.273L84.498,176.605L84.956,178.475L89.05,185.629L90.976,189.988L92.691,195.482L93.703,200.546L94.358,206.866L94.435,213.624L93.945,220.831L92.881,228.478L91.511,235.383L89.382,243.854L84.235,259.958L80.093,271.254L75.646,282.554L64.952,307.664L60.792,319.573L58.292,328.075L56.233,336.437L54.615,344.666L53.564,351.753L52.706,360.71L52.409,370.462L52.734,379.058L53.613,387.48L55.056,395.73L57.055,403.808L59.615,411.711L62.511,418.945L66.632,427.293L71.944,435.848L77.386,442.904L83.447,449.35L89.932,455.033L96.662,459.746L103.641,463.49L108.864,465.856" style="fill:none;fill-rule:nonzero;stroke:rgb(0,0,255);stroke-width:1px;"/>
        </g>
        <g transform="matrix(1,0,0,1,-0.159207,108.34)">
            <path d="M103.887,470.435L92.142,465.391L85.681,461.553L79.669,457.068L74.108,451.938L68.992,446.164L64.885,440.578L60.613,433.589L56.341,424.958L53.022,416.596L50.084,407.366L47.808,398.093L46.183,388.712L45.213,379.223L44.898,369.622L45.237,359.908L46.102,351.073L47.682,341.15L49.916,331.118L52.804,320.974L55.214,313.809L58.362,305.552L71.717,275.162L78.447,258.106L81.511,249.141L83.902,241.091L85.765,233.643L87.337,225.425L88.265,217.721L88.546,210.525L88.178,203.841L87.166,197.668L85.783,192.783L83.927,188.273L81.595,184.137L75.838,175.884L74.865,173.657L74.791,172.669L74.998,172.134L76.08,171.181L78.048,170.393L83.542,169.413L89.894,169.101L97.552,169.686L104.6,171.017L111.978,173.111L120.127,176.189L126.808,179.4" style="fill:none;fill-rule:nonzero;stroke:rgb(0,0,255);stroke-width:1px;"/>
        </g>
        <g transform="matrix(1,0,0,1,-0.159207,108.34)">
            <path d="M131.829,182.32L136.462,185.506" style="fill:none;fill-rule:nonzero;stroke:rgb(0,0,255);stroke-width:1px;"/>
        </g>
        <g transform="matrix(1,0,0,1,-0.159207,108.34)">
            <path d="M135.397,173.923L132.939,171.819L132.127,171.538L131.465,171.619L130.912,172.232L130.649,173.37L130.677,175.03L131.857,182.509L126.787,179.238L125.876,172.683L125.876,171.367L126.342,168.096L127.042,166.482L128.054,165.323L128.748,164.941L130.47,164.826L132.645,165.565L136.01,167.76L135.268,167.161" style="fill:none;fill-rule:nonzero;stroke:rgb(0,0,255);stroke-width:1px;"/>
        </g>
        <g transform="matrix(1,0,0,1,-0.159207,108.34)">
            <path d="M85.741,177.066L87.895,175.891L85.992,178.457L90.208,175.923L86.982,180.059L93.361,175.807L88.258,181.903L95.372,176.052L89.333,184.2L98.601,176.963L90.388,185.418L101.968,176.969L91.466,188.141L104.869,177.958L92.872,191.229L108.45,179.376L93.82,194.268L112.404,180.539L94.902,197.048L115.27,180.996L95.053,199.905L118.14,181.919L95.594,202.873L120.912,182.85L95.713,206.36L122.996,184.168L96.105,209.703L125.399,185.328L95.867,212.666L127.903,186.514L96.11,215.751L130.925,188.443L95.746,219.115L132.955,190.26L95.743,222.11L135.225,192.161L94.543,225.677L137.822,193.59L93.921,229.21L140.338,196.688L93.181,231.799L142.541,199.036L93.211,234.689L145.084,201.911L92.355,237.453L146.647,203.724L91.504,241.329L148.545,205.743L90.121,244.677L150.234,207.592L89.849,247.097L151.763,209.61L89.296,249.1L153.362,211.76L88.461,251.841L154.787,213.983L87.833,254.859L156.201,216.878L86.885,258.059L157.58,219.79L85.777,261.23L158.879,222.332L84.271,264.551L160.837,224.507L83.28,267.154L161.868,228.971L82.395,270.11L163.405,232.105L80.929,272.882L164.927,236.03L79.988,276.103L165.632,239.037L78.931,278.889L166.691,242.313L77.522,281.824L167.837,245.341L75.719,284.782L168.986,249.38L74.597,287.943L169.487,253.246L73.861,291.453L170.143,256.646L72.64,294.555L171.408,260.007L71.222,297.796L172.649,263.113L70.162,301.604L173.364,267.144L68.71,304.619L173.667,270.81L66.878,307.997L174.796,274.131L65.913,311.056L175.292,277.781L64.56,313.962L176.347,280.889L63.433,316.926L177.22,284.561L61.976,320.142L178.216,287.802L61.442,323.114L178.843,290.158L60.462,326.461L179.816,293.092L60.211,329.888L180.482,296.931L58.838,333.997L181.299,300.272L58.168,337.019L182.313,303.417L57.108,340.587L183.746,306.746L56.6,344.037L184.51,309.509L56.96,347.748L185.676,311.971L56.377,352.208L186.565,315.477L55.684,356.577L187.688,319.231L54.948,360.569L189.466,322.946L54.978,363.86L191.299,325.584L54.63,366.492L192.414,328.303L54.597,368.893L193.857,331.288L54.456,372.294L195.756,333.47L54.629,376.294L196.537,336.548L55.017,380.386L198.011,338.635L55.397,383.547L200.221,340.92L56.136,387.189L201.77,342.771L56.406,390.82L204.198,345.185L57.079,394.259L206.267,347.449L57.513,397.737L208.237,348.97L58.506,401.633L210.057,351.241L60.254,405.782L212.409,352.699L61.38,408.715L214.155,354.096L62.192,412.704L216.353,355.863L63.995,415.848L218.273,357.254L65.549,419.186L220.487,358.668L68.435,421.029L222.008,360.027L71.752,423.263L223.93,360.825L75.31,424.841L223.571,363.091L77.728,427.008L220.322,367.077L81.496,428.668L216.638,370.835L84.391,429.965L213.877,374.319L88.614,431.227L210.62,377.735L92.89,432.74L207.269,381.423L96.273,434.096L203.027,385.231L100.323,434.872L198.877,389.252L104.567,435.883L194.759,393.528L109.146,436.55L188.415,398.674L113.799,437.117L184.077,402.883L118.276,437.426L178.694,407.113L123.266,438.156L172.582,412.408L127.696,438.229L162.742,420.116L132.251,438.091L152.574,427.773L136.168,438.241L143.238,435.776L139.299,438.602" style="fill:none;stroke:black;stroke-width:1px;stroke-linecap:round;stroke-linejoin:round;stroke-miterlimit:1.5;"/>
        </g>
        <g transform="matrix(-0.51921,0.912823,0.761402,0.433083,64.8267,99.8248)">
            <path d="M85.741,177.066L87.895,175.891L85.992,178.457L90.208,175.923L86.982,180.059L93.981,174.718L88.258,181.903L95.991,174.964L89.333,184.2L99.22,175.874L90.388,185.418L102.588,175.88L91.466,188.141L105.488,176.869L92.872,191.229L109.07,178.288L93.82,194.268L113.024,179.45L94.902,197.048L115.27,180.996L95.053,199.905L118.14,181.919L95.594,202.873L119.893,182.817L95.713,206.36L121.991,184.92L96.105,209.703L123.676,186.808L95.867,212.666L123.891,190.83L96.11,215.751L124.363,193.576L95.746,219.115L126.393,195.392L95.743,222.11L127.419,199.02L94.543,225.677L127.806,202.411L93.921,229.21L128.562,205.89L93.181,231.799L129.883,209.028L93.211,234.689L130.728,213.179L92.355,237.453L131.395,216.152L91.504,241.329L132.005,219.325L90.121,244.677L133.695,221.174L89.849,247.097L135.224,223.192L89.296,249.1L135.224,223.192L88.461,251.841L135.415,226.238L87.833,254.859L136.829,229.133L86.885,258.059L138.892,230.322L85.777,261.23L139.579,232.529L84.271,264.551L141.537,234.704L83.28,267.154L143.046,237.743L82.395,270.11L145.342,241.749L80.929,272.882L147.433,244.064L79.988,276.103L148.138,247.071L78.931,278.889L150.41,248.767L77.522,281.824L152.281,251.986L75.719,284.782L155.999,255.011L74.597,287.943L156.501,258.877L73.861,291.453L159.584,261.238L72.64,294.555L163.123,263.29L71.222,297.796L164.363,266.395L70.162,301.604L165.078,270.426L68.71,304.619L169.94,273.325L66.878,307.997L171.069,276.646L65.913,311.056L171.565,280.296L64.56,313.962L175.711,280.917L63.433,316.926L177.85,283.778L61.976,320.142L180.305,286.531L61.442,323.114L182.835,289.016L60.462,326.461L185.42,292.308L60.211,329.888L187.767,294.982L58.838,333.997L189.919,298.143L58.168,337.019L193.244,300.706L57.108,340.587L195.512,303.354L56.6,344.037L197.804,306.186L56.96,347.748L198.127,309.827L56.377,352.208L186.367,316.451L55.684,356.577L120.153,339.069L54.948,360.569L114.427,343.909L54.978,363.86L112.845,347.976L54.63,366.492L110.914,351.874L54.597,368.893L109.923,355.905L54.456,372.294L109.281,359.272L54.629,376.294L108.712,362.345L55.017,380.386L107.664,366.368L55.397,383.547L106.809,370.871L56.136,387.189L105.803,375.918L56.406,390.82L106.033,379.958L57.079,394.259L104.562,383.212L57.513,397.737L106.532,384.733L58.506,401.633L105.308,388.512L60.254,405.782L103.634,392.254L61.38,408.715L105.38,393.652L62.192,412.704L103.434,396.68L63.995,415.848L105.354,398.071L65.549,419.186L105.64,400.869L68.435,421.029L104.494,403.653L70.258,424.997L106.416,404.45L72.524,428.454L106.056,406.716L74.943,430.622L102.808,410.702L77.625,433.86L99.123,414.461L80.59,437.144" style="fill:none;stroke:black;stroke-width:1.03px;stroke-linecap:round;stroke-linejoin:round;stroke-miterlimit:1.5;"/>
        </g>
        <g transform="matrix(1,0,0,1,-0.159207,108.34)">
            <path d="M85.562,203.395L84.049,204.361L85.562,203.395Z" style="fill:none;stroke:black;stroke-width:1px;stroke-linecap:round;stroke-linejoin:round;stroke-miterlimit:1.5;"/>
        </g>
        <g transform="matrix(1,0,0,1,-0.159207,108.34)">
            <path d="M84.846,206.248L87.318,205.321L85.036,208.533L87.884,208.599L85.645,210.731L87.728,211.559L85.465,214.059L87.615,213.67L85.679,215.693L87.48,215.374L85.181,217.901L87.367,217.597L84.843,220.906L87.396,219.968L84.906,222.998L87.043,222.118L84.791,225.461L86.856,224.631L83.965,228.455L85.732,227.748L83.327,231.216L85.282,230.388L82.845,234.302L84.903,233.227L82.109,237.785L84.34,236.491L80.756,241.586L82.817,240.606L80.002,243.452L82.566,242.543L79.108,246.919L81.664,245.928L78.352,249.263L80.786,248.991L77.179,252.262L79.602,252.022L76.595,254.986L78.491,255.142L74.973,258.282L77.459,257.548L73.456,261.73L76.109,261.185L72,265.657L74.701,264.297L69.968,269.665L73.567,268.104L68.222,273.949L71.529,272.626L66.249,277.367L69.512,276.835L64.537,281.188L68.119,279.949L63.062,284.389L66.914,283.138L61.02,288.297L65.301,286.317L59.152,291.694L63.73,291.33L57.23,295.917L61.778,295.527L54.224,300.97L59.398,299.982L51.241,305.965L57.148,304.771L48.339,310.864L55.204,309.01L45.848,315.375L53.582,314.165L43.517,319.079L51.981,318.724L41.43,324.56L50.106,323.882L38.946,328.26L49.379,328.424L37.116,332.949L47.846,333.118L35.719,337.568L46.882,338.475L35.236,341.973L46.307,342.299L33.602,346.561L45.283,346.547L33.633,350.483L45.014,350.872L33.703,355.12L44.728,353.957L33.093,358.453L43.522,358.443L33.581,361.86L43.567,362.01L33.693,365.204L43.339,365.797L34.297,368.93L43.597,369.419L35.133,372.802L42.871,373.274L34.977,375.968L43.272,375.925L35.655,379.143L43.649,378.803L36.641,381.777L43.578,381.494L37.601,384.708L44.204,384.268L38.33,386.829L44.585,387.181L39.88,390.055L45.589,391.014L41.333,393.212L44.922,393.524L43.192,395.067L46.62,395.406L43.411,396.855L47.011,397.779L45.284,399.573L47.583,401.665L47.495,399.439L45.792,401.227L48.434,404.286" style="fill:none;stroke:black;stroke-width:1px;stroke-linecap:round;stroke-linejoin:round;stroke-miterlimit:1.5;"/>
        </g>
        <g transform="matrix(1,0,0,1,-0.159207,108.34)">
            <path d="M323.304,194.252L322.101,193.937L323.268,194.816L324.206,194.479L324.157,195.103L325.065,194.379L324.912,195.777L325.857,194.658L325.857,195.959L326.706,195.237L326.706,196.645L327.856,195.211L327.503,196.732L329.178,195.607L328.34,197.215L330.067,196.015L328.86,197.663L331.531,196.217L329.884,198.565L332.797,196.441L330.966,199.182L334.134,196.817L332.042,199.919L335.487,197.154L333.06,200.591L336.698,197.588L333.666,201.347L337.94,197.924L334.7,202.081L339.339,198.165L335.807,202.899L340.578,198.785L336.973,203.781L341.958,199.34L337.878,204.559L343.19,199.794L339.04,205.458L344.353,200.091L339.666,206.364L345.681,200.762L340.692,207.156L346.883,201.101L341.753,208.028L348.125,201.761L342.733,208.909L349.384,202.189L343.581,209.868L350.614,202.719L344.455,210.757L351.629,203.432L345.46,211.593L352.764,203.911L346.425,212.44L353.813,204.638L347.237,213.249L355.072,205.07L348.068,214.341L355.92,205.648L348.654,215.032L356.86,206.052L349.409,215.744L357.865,206.784L349.917,216.444L358.854,207.347L350.528,217.2L359.894,207.969L351.131,218.051L360.86,208.491L351.601,218.583L361.702,208.941L352.034,219.423L362.386,209.518L352.493,220.031L363.121,210.011L352.982,220.671L363.933,210.588L353.456,221.33L364.663,211.196L354.099,222.026L365.375,211.749L354.431,222.773L366.047,212.247L354.893,223.349L366.686,212.745L355.335,224.073L367.348,213.182L355.789,224.759L368.118,213.701L356.17,225.343L368.588,214.147L356.571,226.14L369.096,214.668L357.047,226.68L369.673,215.082L357.444,227.271L370.147,215.642L357.817,227.866L370.653,216.124L358.138,228.481L371.163,216.617L358.495,229.014L371.637,217.228L358.83,229.717L372.229,217.827L359.213,230.467L372.824,218.266L359.511,231.114L373.459,218.756L359.711,231.689L373.894,219.244L360.042,232.245L374.418,219.775L360.303,232.743L374.956,220.253L360.682,233.438L375.367,220.837L360.945,234.201L375.863,221.384L361.195,234.832L376.375,221.857L361.484,235.403L376.781,222.403L361.647,235.894L377.196,222.917L361.754,236.462L377.629,223.39L361.931,236.983L378.056,223.763L362.199,237.421L378.419,224.222L362.355,237.91L378.749,224.639L362.504,238.375L379.143,225.139L362.693,238.847L379.542,225.658L362.873,239.449L379.953,226.106L363.036,239.959L380.259,226.491L363.11,240.479L380.485,226.942L363.274,240.929L380.746,227.353L363.405,241.376L381.094,227.639L364.176,241.564L363.512,241.67L381.372,228.02L363.699,242.117L381.544,228.427L363.763,242.621L381.81,228.79L363.89,243.076L382.106,229.104L364.043,243.572L382.281,229.477L364.124,244.083L382.656,229.921L364.253,244.518L382.792,230.464L364.342,244.965L383.083,230.854L364.44,245.35L383.379,231.214L364.585,245.696L383.657,231.584L364.592,246.11L383.834,232.015L364.729,246.445L383.947,232.439L364.776,246.689L384.241,232.81L364.812,247.055L384.413,233.158L364.967,247.52L384.559,233.581L365.045,247.99L384.758,234.032L365.126,248.397L384.978,234.455L365.266,248.831L385.188,234.828L365.357,249.309L385.368,235.343L365.544,249.807L385.613,235.783L365.524,250.311L385.759,236.299L365.609,250.769L385.982,236.809L365.657,251.267L386.179,237.298L365.788,251.766L386.409,237.694L365.79,252.257L386.548,238.116L365.841,252.76L386.665,238.526L365.916,253.281L386.828,239.034L365.957,253.8L386.979,239.505L366.013,254.343L387.215,240.032L366.137,254.769L387.364,240.643L366.138,255.178L387.49,241.26L366.162,255.642L387.596,241.753L366.372,255.91L387.738,242.178L367,255.908L387.917,242.659L367.818,255.701L388.059,243.234L368.699,255.555L388.135,243.858L369.69,255.429L388.245,244.471L370.794,255.249L388.346,244.963L371.982,254.982L388.316,245.498L373.134,254.768L388.47,246.067L374.151,254.597L388.553,246.677L375.659,254.333L388.604,247.394L377.097,254.088L388.746,248.046L378.23,253.93L388.757,248.623L379.396,253.877L388.74,249.235L380.646,253.675L388.744,249.932L381.888,253.545L388.806,250.578L383.321,253.363L388.818,251.153L384.556,253.311L388.786,251.687L386.266,252.97L388.701,252.212L387.537,252.934L388.773,252.737L388.826,253.19L373.505,255.002L388.714,253.616" style="fill:none;stroke:black;stroke-width:1px;stroke-linecap:round;stroke-linejoin:round;stroke-miterlimit:1.5;"/>
        </g>
        <g transform="matrix(1,0,0,1,-0.159207,108.34)">
            <path d="M33.197,339.519L33.716,337.759L32.031,341.406L33.106,340.01L31.238,343.316L33.21,340.783L30.748,344.65L32.891,342.342L30.148,346.181L32.505,343.917L29.331,348.19L32.06,345.617L28.87,349.848L31.692,347.224L27.788,352.585L31.587,348.933L30.644,355.032L30.366,351.179L27.435,354.714L26.388,356.896L29.941,353.142L30.885,356.436L29.037,354.847L30.709,357.19L27.635,356.079L26.011,358.08L28.067,357.332L30.976,358.414L30.987,364.466L29.555,359.328L26.098,359.083L23.569,367.096L27.497,360.798L30.896,366.427L27.437,364.769L22.761,370.588L28.366,367.777L31.356,370.431L31.455,373.125L28.436,370.161L21.99,374.231L20.929,377.383L28.076,372.489L32.299,376.107L33.159,379.594L28.26,376.305L20.687,380.559L20.016,383.521L28.547,378.943L33.377,380.5L34.341,383.779L28.372,379.959L35.064,386.709L26.122,381.25L20.23,384.386L26.821,383.116L20.01,386.592L29.096,383.98L19.57,388.974L31.046,385.45L19.008,390.503L34.59,387.335L19.3,392.411L36.719,389.563L19.417,394.644L37.464,391.155L19.597,396.362L37.635,393.153L19.639,398.218L38.829,394.796L19.295,399.667L39.476,396.635L19.392,401.187L40.49,397.421L19.915,402.758L40.903,398.974L19.598,404.536L42.224,400.777L20.041,406.284L43.802,401.935L20.202,407.849L44.73,403.367L20.446,409.225L45.844,404.671L20.843,410.898L46.574,405.909L21.072,412.915L47.395,406.955L21.242,414.507L48.43,407.914L21.255,416.319L49.267,408.824L21.082,417.81L49.73,409.914L21.206,419.247L50.454,410.994L21.801,420.472L51.019,411.885L21.803,421.932L51.296,413.084L22.237,423.028L51.284,414.118L22.847,424.268L51.874,415.225L22.693,425.444L52.028,415.994L23.1,426.527L52.645,417.159L23.1,427.502L53.017,418.248L23.33,428.697L53.32,419.176L23.801,430.003L53.741,420.271L24.232,430.726L53.978,421.14L24.27,431.708L54.302,421.814L24.369,432.575L54.638,422.612L24.833,433.579L54.953,423.473L25.089,434.37L55.408,424.375L25.273,435.07L55.781,425.035L25.731,435.895L56.211,425.848L26.042,436.521L56.439,426.683L26.33,437.243L57.131,427.67L26.879,437.955L57.234,428.636L27.161,438.919L57.852,429.485L27.655,439.753L58.42,430.245L28.113,440.642L58.758,430.924L28.56,441.481L58.899,431.81L28.776,442.57L59.232,432.606L29.286,443.271L59.924,433.161L29.448,443.942L60.311,434.001L29.969,444.724L60.754,434.86L30.357,445.58L61.23,435.449L30.787,446.459L61.548,436.172L31.1,447.35L62.074,436.89L31.332,447.998L62.515,437.69L32.015,448.972L62.947,438.63L32.689,449.536L63.701,439.803L33.431,451.018L64.08,440.634L33.96,451.94L64.763,441.639L34.305,453.056L65.523,442.209L35.398,453.845L65.914,443.427L35.428,454.573L66.596,443.882L36.082,455.967L67.081,444.449L36.804,456.743L67.709,445.173L37.966,458.042L68.275,446.331L38.441,459.06L69.153,446.945L39.278,459.932L69.697,447.911L40.305,460.785L70.487,448.504L40.822,461.658L71.137,449.373L41.351,462.503L71.754,449.766L42.516,463.472L72.233,450.767L43.411,464.773L72.887,451.379L44.714,466.064L73.612,452.139L46.277,467.321L74.376,453.103L47.404,468.685L75.277,453.719L48.57,469.801L75.812,454.373L49.566,470.878L76.646,455.134L50.858,471.912L77.525,455.629L51.84,472.899L78.322,456.45L53.053,473.923L79.314,457.3L54.597,475.04L80.022,457.688L55.808,476.18L80.65,457.946L57.026,477.179L81.182,458.55L58.425,478.041L81.67,458.916L60.103,478.598L82.282,459.709L61.388,479.89L83.212,460.134L62.267,480.492L83.915,460.783L64.112,480.951L84.627,461.304L65.424,481.743L85.745,461.791L66.959,482.888L86.288,462.587L68.397,483.809L87.303,463.073L69.876,484.698L88.055,463.994L71.633,485.212L89.184,464.329L73.023,485.756L90.131,464.856L74.491,486.259L91.101,465.361L75.902,486.77L92.024,465.696L77.424,487.601L92.925,466.364L78.871,488.229L93.684,466.838L80.259,488.172L94.791,467.22L81.906,488.767L95.886,467.601L83.21,488.613L96.89,467.824L84.726,488.128L97.829,468.257L87.287,486.3L98.648,468.768L90.882,482.65L99.579,469.013L94.259,479.021L100.639,469.215L97.321,476.271L101.652,469.848L99.861,473.63L102.41,470.238L102.003,471.965L103.179,470.664" style="fill:none;stroke:black;stroke-width:1px;stroke-linecap:round;stroke-linejoin:round;stroke-miterlimit:1.5;"/>
        </g>
        <g transform="matrix(1,0,0,1,-0.159207,108.34)">
            <path d="M33.58,337.955C32.559,340.78 18.736,376.597 20.191,389.616C21.647,402.636 31.27,347.563 31.27,347.563C31.27,347.563 24.966,386.362 49.89,409.435" style="fill:none;stroke:black;stroke-width:1px;stroke-linecap:round;stroke-linejoin:round;stroke-miterlimit:1.5;"/>
        </g>
        <g transform="matrix(1,0,0,1,-0.159207,108.34)">
            <path d="M63.589,420.44C63.589,420.44 98.18,444.018 138.66,440.434C138.841,440.418 126.638,450.2 126.539,450.281C120.936,454.855 109.112,464.912 109.112,464.912C109.112,464.912 100.279,461.157 98.345,460.055C75.558,447.066 64.721,423.04 64.336,422.103C63.86,420.942 64.709,421.824 64.709,421.824L65.738,422.434L64.95,422.808L65.99,422.681L65.104,423.265L66.25,422.888L65.155,423.572L66.792,422.929L65.502,424.259L67.433,422.996L65.873,424.743L67.96,423.353L66.133,425.615L68.607,423.784L66.516,426.001L69.249,424.234L66.896,426.824L69.86,424.667L67.433,427.402L70.31,424.954L67.71,427.838L70.731,425.192L68.154,428.58L71.317,425.556L68.669,429.507L71.873,425.851L68.862,429.927L72.307,426.421L69.05,430.363L72.876,426.306L69.498,430.618L73.529,426.808L69.759,431.175L74.188,427.073L70.119,431.721L74.751,427.322L70.416,432.339L75.37,427.542L70.831,432.957L75.892,427.852L71.053,433.588L76.566,428.215L71.39,434.229L77.317,428.593L71.869,434.935L77.855,428.814L72.19,435.403L78.317,429.093L72.659,435.846L78.784,429.335L72.925,436.46L79.296,429.392L73.199,436.874L79.93,429.808L73.708,437.276L80.431,429.976L73.968,437.842L80.953,430.256L74.305,438.399L81.56,430.427L74.805,438.926L82.148,430.802L75.159,439.557L82.744,430.979L75.632,439.956L83.327,431.179L75.962,440.532L84.01,431.394L76.407,441.116L84.64,431.856L76.793,441.611L85.213,431.987L77.305,441.917L85.859,432.187L77.544,442.449L86.405,432.444L77.933,442.899L86.832,432.615L78.289,443.194L87.446,432.841L78.576,443.61L88.074,433.026L79.041,444.14L88.856,433.242L79.563,444.641L89.449,433.52L80.032,445.222L90.202,433.621L80.457,445.671L90.917,433.83L80.822,446.023L91.53,434.036L81.122,446.49L92.18,434.263L81.49,446.84L92.918,434.602L81.983,447.359L93.574,434.801L82.582,447.905L94.229,435.006L83.075,448.425L95.036,435.23L83.428,448.889L95.671,435.382L83.91,449.345L96.389,435.606L84.258,449.765L97.09,435.748L84.85,450.207L97.799,435.882L85.532,450.612L98.415,436.029L86.068,451.126L99.044,436.182L86.807,451.649L99.806,436.504L87.292,452.185L100.773,436.561L87.882,452.648L101.869,437.02L88.494,453.298L102.744,437.181L88.977,453.741L103.789,437.263L89.708,454.32L104.505,437.944L90.502,454.803L105.581,437.724L91.271,455.443L106.627,437.97L92.19,455.931L107.375,438.471L92.793,456.256L108.264,438.622L93.53,456.844L109.284,438.786L94.539,457.613L110.315,438.945L95.409,458.118L111.47,439.112L96.038,458.644L112.511,439.255L96.722,459.099L113.298,439.358L97.587,459.453L114.177,439.467L98.345,460.055L114.887,439.551L99.154,460.354L115.739,439.647L99.982,460.655L116.69,439.749L100.739,461.028L117.577,439.837L101.379,461.424L118.48,439.922L102.266,461.725L119.357,439.999L102.974,462.213L120.369,440.081L104.02,462.779L121.643,440.174L105.149,463.081L123.124,440.27L106.029,463.505L124.153,440.327L106.86,464.071L125.423,440.389L107.558,464.295L126.418,440.43L108.577,464.408L127.748,440.475L110.009,464.056L128.891,440.504L111.786,462.884L129.974,440.525L114.725,460.229L131.205,440.54L118.186,457.361L132.436,440.545L122.018,453.865L133.416,440.543L124.95,451.316L134.516,440.533L128.481,448.135L135.526,440.518L132.264,445.313L136.529,440.497L134.796,443.272L137.55,440.47" style="fill:none;stroke:black;stroke-width:1px;stroke-linecap:round;stroke-linejoin:round;stroke-miterlimit:1.5;"/>
        </g>
        <g transform="matrix(1,0,0,1,-0.159207,108.34)">
            <path d="M132.879,172.124L131.447,173.401L134.062,173.216L131.447,173.401L134.126,174.955L132.955,174.276L131.685,174.664L133.306,175.38L134.916,175.766L131.796,176.05L134.64,176.711L132.072,176.844L134.347,177.512L132.078,177.917L134.751,178.339L132.39,179.376L135.144,179.563L132.634,180.78L134.815,180.664L133.109,181.856L134.757,181.813L133.828,182.48L135.393,182.675L134.573,182.573L135.365,183.923" style="fill:none;stroke:black;stroke-width:1px;stroke-linecap:round;stroke-linejoin:round;stroke-miterlimit:1.5;"/>
        </g>
        <g transform="matrix(1,0,0,1,-0.159207,108.34)">
            <path d="M259.661,248.608L198.066,309.225L252.045,258.317L198.408,312.578L249.487,263.289L199.596,315.755L248.551,266.854L201.014,317.965L246.6,272.272L202.63,320.92L244.717,277.273L203.702,323.652L242.432,282.773L204.918,325.49L240.788,287.54L206.436,328.316L240.537,291.113L208.154,330.532L239.046,297.091L209.701,333.026L237.799,303.263L211.54,335.32L235.785,308.578L213.795,337.964L234.926,313.863L216.321,340.471L233.551,320.164L218.343,342.583L232.218,325.066L220.732,344.723L230.639,333.09L222.636,346.519L229.418,339.329L224.31,348.129L228.408,345.089L226.055,349.699L228.04,348.783L227.656,351.313" style="fill:none;stroke:black;stroke-width:1px;stroke-linecap:round;stroke-linejoin:round;stroke-miterlimit:1.5;"/>
        </g>
    </g>
    <g id="_11" serif:id="1" transform="matrix(1.18166,0,0,1.17233,-48.914,84.9265)">
        <g transform="matrix(0.843782,0,0,0.843782,41.8987,24.0504)">
            <path d="M145.239,445.544L178.961,419.17L143.617,447.716L181.959,419.075L142.243,450.249L184.136,419.111L141.695,452.112L185.578,418.993L141.257,453.718L187.049,419.029L140.462,455.219L188.711,419.232L140.014,456.615L190.16,419.37L139.626,457.948L191.658,419.346L139.242,459.146L193.19,419.44L138.867,460.544L194.621,419.517L139.206,461.884L195.939,419.718L139.472,462.948L197.158,420.05L140.371,463.913L198.261,420.302L141.322,464.765L199.336,420.675L142.525,465.74L200.555,420.82L143.617,466.361L201.512,421.125L144.626,466.911L202.44,421.409L145.417,467.744L203.245,421.698L146.619,468.163L204.267,422.114L147.87,468.592L205.143,422.549L148.887,469.093L206.112,423.361L150.286,469.708L206.632,424.359L151.381,470.4L206.867,425.566L152.627,470.911L206.374,427.75L153.819,471.324L205.662,429.881L154.936,472.002L205.428,431.23L156.131,472.626L204.714,433.108L157.423,473.15L204.158,434.996L158.578,473.77L203.053,437.151L159.538,474.628L202.271,439.151L161.322,474.767L201.266,441.497L162.6,475.548L200.061,443.892L163.879,475.872L198.903,446.19L165.293,476.394L197.71,448.453L166.802,476.951L196.509,450.827L168.183,477.316L195.102,453.601L169.486,477.813L193.958,456.239L170.894,478.531L191.429,460.394L171.998,478.843L189.129,464.161L173.474,479.051L187.013,467.604L174.898,479.24L184.745,471.233L176.594,479.465L180.386,476.556L178.279,479.125" style="fill:none;stroke:black;stroke-width:1px;stroke-linecap:round;stroke-linejoin:round;stroke-miterlimit:1.5;"/>
        </g>
        <g transform="matrix(0.843782,0,0,0.843782,41.8987,24.0504)">
            <path d="M128.181,539.842L129.09,542.515L126.007,538.448L128.478,544.769L124.07,537.379L127.941,547.356L121.734,536.31L127.44,549.815L119.206,535.501L126.495,551.903L116.027,534.548L125.819,554.244L113.011,534.264L125.118,556.903L110.306,533.456L124.13,558.959L107.339,533.019L123.125,561.288L104.52,533.195L122.196,563.636L102.226,532.947L121.357,566.797L99.494,532.47L120.14,568.767L96.899,532.633L118.961,571.15L94.242,532.538L117.64,573.341L91.016,531.792L116.547,575.832L87.407,531.683L115.713,577.803L85.077,531.62L114.485,579.398L83.327,532.894L113.332,581.135L81.436,534.313L112.45,582.716L79.91,535.88L110.867,584.393L78.534,537.072L109.579,586.176L77.595,539.016L108.133,587.48L76.132,540.518L106.258,587.973L75.258,541.991L103.987,587.881L74.172,543.758L100.592,586.838L73.281,545.118L97.4,585.209L72.276,546.693L93.865,583.05L71.447,548.752L90.842,581.617L70.595,550.715L86.5,578.465L69.914,552.573L82.543,575.466L69.106,554.647L77.909,571.824L68.747,557.218L72.847,567.182L69.244,561.787L69.384,558.764" style="fill:none;stroke:black;stroke-width:1px;stroke-linecap:round;stroke-linejoin:round;stroke-miterlimit:1.5;"/>
        </g>
        <g transform="matrix(0.843782,0,0,0.843782,41.8987,24.0504)">
            <path d="M217.537,552.918L195.843,568.247L187.181,579.099L220.745,551.271L187.157,581.493L224.173,550.216L187.418,583.97L227.668,548.743L187.633,586.512L231.104,548.432L188.269,588.745L233.189,550.126L188.614,590.381L234.542,552.654L190.058,592.667L234.82,555.627L191.086,594.684L235.686,558.356L192.081,596.579L236.107,561.424L193.325,598.752L236.085,564.931L194.607,600.921L236.385,568.251L195.677,603.345L236.354,571.918L196.574,605.307L236.351,574.687L197.934,606.899L236.352,577.544L199.162,608.748L236.581,580.356L200.329,610.608L236.425,583.1L201.676,612.525L236.117,586.102L203.158,614.107L235.963,589.26L204.208,615.863L235.596,592.33L205.36,617.739L235.798,595.17L207.036,619.686L235.281,598.056L208.509,621.565L234.815,601.369L209.88,623.331L234.326,605.277L210.93,624.811L234.177,608.25L212.329,626.073L233.678,611.316L213.439,627.669L233.136,613.85L214.761,629.093L232.707,617.684L216.162,630.98L231.932,620.69L217.848,632.359L231.212,623.149L218.809,633.503L230.754,626.281L220.745,634.494L229.153,629.245L222.053,635.659L227.986,631.882L225.275,635.435" style="fill:none;stroke:black;stroke-width:1px;stroke-linecap:round;stroke-linejoin:round;stroke-miterlimit:1.5;"/>
        </g>
        <g transform="matrix(0.843782,0,0,0.843782,41.8987,24.0504)">
            <path d="M522.369,569.914L526.351,569.854L521.052,570.732L527.862,570.855L519.719,571.795L528.85,572.005L518.773,573.055L529.47,573.216L517.341,574.566L530.078,574.369L515.899,575.965L530.746,575.79L515.053,577.29L531.034,577.066L514.037,578.57L531.605,578.584L513.205,579.745L532.251,580.041L512.241,581.052L532.512,581.521L511.447,582.49L532.919,582.912L510.42,583.568L532.995,584.166L509.708,585.089L533.579,585.544L508.905,586.383L533.647,587.382L508.166,587.812L533.842,588.73L507.251,588.94L534.147,590.419L506.495,590.526L534.237,591.875L505.815,591.934L534.343,593.304L504.888,593.47L534.511,594.949L504.108,595.146L534.563,596.428L503.355,596.62L534.645,598.113L502.658,598.016L534.596,599.832L502.135,599.82L534.945,601.036L501.53,601.401L535.063,602.476L500.926,602.664L535.14,604.596L500.674,603.978L534.814,605.751L500.35,605.709L535.169,606.988L500.222,606.969L535.18,608.178L500.103,608.255L535.506,609.559L500.121,609.777L535.08,610.823L500.236,611.042L535.097,612.125L500.649,612.362L535.257,613.439L500.624,613.646L535.255,614.725L501.128,615.047L535.289,616.163L501.524,616.451L534.959,617.704L502.229,618.016L534.927,619.326L503.388,619.287L534.664,620.731L504.129,620.705L534.376,621.806L505.407,621.878L534.278,623.432L506.971,622.879L533.993,624.759L508.179,624.12L533.35,626.122L509.951,625.217L532.82,627.385L512.643,626.693L531.752,628.275L516.395,628.038L530.7,629.107L520.38,629.394L529.159,629.895" style="fill:none;stroke:black;stroke-width:1px;stroke-linecap:round;stroke-linejoin:round;stroke-miterlimit:1.5;"/>
        </g>
        <g transform="matrix(0.843782,0,0,0.843782,41.8987,24.0504)">
            <path d="M479.809,353.65L482.961,352.299L478.323,354.864L484.245,352.875L477.151,355.97L485.785,353.999L476.212,357.427L487.188,355.149L474.972,358.7L488.264,356.165L474.125,360.243L489.192,357.4L472.671,361.863L490.242,359.178L471.972,363.599L490.79,361.187L470.798,364.997L491.521,362.649L469.675,366.546L492.045,364.011L468.617,368.091L492.644,365.787L468.189,369.393L493.36,367.491L466.947,371.418L493.884,369.491L465.256,372.978L493.821,371.083L464.294,374.572L494.437,372.68L464.277,376.073L495.06,373.944L463.45,377.61L495.073,375.461L462.954,378.991L495.574,377.066L462.262,380.272L495.86,378.729L461.459,381.1L496.053,380.261L460.969,382.114L496.24,381.415L460.408,383.514L496.63,382.76L459.743,384.467L496.998,383.914L459.408,385.422L496.962,385.122L459.023,386.606L496.99,386.222L458.733,387.978L497.683,387.528L458.05,389.168L497.545,388.768L457.709,390.333L497.768,389.908L457.75,391.568L497.774,391.222L457.268,392.707L497.88,392.894L457.289,393.574L497.889,394.123L457.62,394.775L497.975,395.307L458.386,395.872L498.2,396.576L459.397,396.891L498.525,397.8L460.494,397.907L498.287,399.014L461.703,398.603L498.061,400.05L463.054,399.303L498.088,400.872L464.727,400.343L497.985,401.882L466.547,401.479L497.935,403.154L468.809,402.416L497.525,404.304L471.887,403.493L497.156,405.657L475.036,404.62L496.598,406.422L478.439,405.535L495.923,407.177L481.394,406.589L494.739,407.997L484.879,407.471L492.178,408.563L493.448,407.928" style="fill:none;stroke:black;stroke-width:1px;stroke-linecap:round;stroke-linejoin:round;stroke-miterlimit:1.5;"/>
        </g>
        <g transform="matrix(0.843782,0,0,0.843782,41.8987,24.0504)">
            <path d="M396.939,341.414L403.234,337.001L396.087,342.591L404.569,336.589L395.301,343.636L405.605,336.673L394.349,344.611L406.423,337.09L393.569,345.521L407.084,337.994L392.882,346.405L407.484,338.615L392.228,347.282L407.968,339.227L391.82,348.173L408.491,339.934L391.673,348.839L408.919,340.523L391.298,349.685L409.362,341.163L391.158,350.388L409.736,341.88L391.183,351.006L410.156,342.548L391.095,351.585L410.557,343.001L391.348,352.431L410.686,343.634L391.705,353.086L410.863,344.322L392.049,353.762L411.236,344.947L392.355,354.561L411.581,345.46L392.572,355.292L411.709,346.238L393.029,355.627L412.044,346.616L393.635,356.218L412.391,347.398L393.813,357.046L412.39,348.189L394.231,357.657L412.866,348.988L394.774,358.262L413.025,349.797L395.271,358.964L413.437,350.395L395.68,359.665L413.648,351.146L396.377,360.43L413.933,352.05L396.928,361.173L414.289,352.685L397.502,362.079L414.507,353.479L398.022,362.884L414.88,354.366L398.6,363.542L414.979,355.136L399.093,364.213L415.305,355.927L399.809,364.955L415.694,356.563L400.345,365.764L415.836,357.396L400.838,366.551L415.872,358.28L401.54,367.259L416.122,359.228L401.932,367.855L416.309,360.287L402.522,368.466L416.307,361.261L403.006,369.046L416.083,362.078L403.624,369.485L415.503,363.204L404.209,370.267L415.046,364.128L404.768,370.819L413.945,365.672L405.447,371.343L412.89,367.253L406.137,371.755L411.328,368.907L407.062,372.019L409.912,370.562L408.436,371.782" style="fill:none;stroke:black;stroke-width:1px;stroke-linecap:round;stroke-linejoin:round;stroke-miterlimit:1.5;"/>
        </g>
        <g transform="matrix(0.843782,0,0,0.843782,41.8987,24.0504)">
            <path d="M412.962,313.078L412.767,315.101L414.422,310.348L413.277,316.819L416.182,309.096L414.386,318.604L417.98,307.62L415.494,319.963L419.86,305.774L416.787,321.496L421.834,304.247L418.101,322.959L423.847,302.951L419.495,324.322L426.236,301.439L420.628,325.793L428.377,300.052L422.551,326.716L429.942,298.845L423.908,327.841L431.737,297.633L425.085,328.722L433.54,296.482L426.584,329.43L435.395,295.264L428.002,330.591L436.901,294.194L429.488,331.556L439.083,293.59L430.716,332.332L441.554,292.119L432.046,332.932L443.936,290.776L433.507,333.496L446.175,289.401L434.825,334.889L448.224,288.603L436.274,335.509L450.245,287.473L437.611,336.424L452.518,286.671L439.198,336.604L454.293,285.963L440.445,337.706L456.267,285.083L442.023,338.101L458.192,283.863L443.205,338.496L460.373,283.159L444.583,339.118L462.752,282.593L446.11,339.463L464.905,281.642L447.629,339.918L466.725,281.496L449.066,339.936L468.569,280.606L450.439,339.957L470.251,279.924L452.078,340.175L472.051,280.29L453.938,339.627L473.889,279.826L456.035,338.797L475.509,279.837L458.333,336.674L476.954,280.216L460.572,334.14L478.646,279.755L463.059,330.606L480.051,280.317L465.494,327.26L480.912,281.942L468.244,322.517L481.129,284.252L471.038,316.975L481.118,287.529L474.411,309.889L481.033,291.088L477.059,303.85L479.839,296.237" style="fill:none;stroke:black;stroke-width:1px;stroke-linecap:round;stroke-linejoin:round;stroke-miterlimit:1.5;"/>
        </g>
        <g transform="matrix(0.843782,0,0,0.843782,41.8987,24.0504)">
            <path d="M256.676,273.436L255.641,276.182L256.632,276.122L255.227,277.601L256.734,277.757L254.408,279.134L256.329,279.281L253.721,281.344L255.696,281.422L252.914,284.107L255.626,283.792L252.646,286.434L255.617,285.752L251.693,288.977L255.52,288.187L250.895,291.967L255.263,291.322L250.351,294.451L255.082,294.148L249.187,297.667L254.855,296.453L248.642,300.813L255.175,299.511L247.864,304.46L255.138,302.697L246.765,308.005L254.926,305.892L246.166,310.761L254.547,309.432L245.138,313.643L254.925,312.328L244.674,316.629L254.859,315.476L243.747,319.534L255.244,317.731L242.894,321.843L255.472,320.381L242.138,325.159L255.732,323.296L241.748,328.053L255.914,325.886L241.068,331.192L256.382,329.295L240.248,333.838L256.557,332.047L240.076,336.594L256.542,335.456L239.955,339.212L256.653,338.516L239.551,342.854L256.898,341.841L238.329,346.054L257.105,345.192L238.098,349.272L257.447,347.985L237.147,352.197L257.24,350.595L236.56,354.828L257.532,352.992L236.335,357.35L257.783,355.753L235.968,360.267L257.976,358.353L235.994,363.151L258.401,361.147L235.327,366.092L258.574,364.211L235.302,368.648L258.693,366.806L234.946,371.358L259.555,369.655L234.368,373.896L258.897,372.78L233.981,376.384L258.754,375.675L233.579,378.402L258.866,377.899L233.361,380.973L258.607,380.463L233.066,383.591L258.5,383.095L232.378,385.919L258.366,385.807L232.265,388.576L257.741,388.351L232.106,390.967L257.177,390.385L232.033,393.201L256.566,393.06L231.476,395.342L256.292,395.276L231.174,397.529L255.378,397.457L231.207,400.013L254.689,400.147L231.256,402.387L253.543,402.223L230.594,404.076L252.592,404.596L230.604,405.933L251.325,406.76L230.294,407.72L250.338,408.665L229.362,409.779L248.168,410.659L228.462,411.525L247.106,412.689L229.173,413.241L245.626,414.413L230.097,415.262L242.75,416.036L232.476,417.006L240.477,417.649L234.411,418.753L238.9,418.72" style="fill:none;stroke:black;stroke-width:1px;stroke-linecap:round;stroke-linejoin:round;stroke-miterlimit:1.5;"/>
        </g>
        <g transform="matrix(5.05416,0,0,5.09437,-402.704,-340.174)">
            <g transform="matrix(12,0,0,12,111.78,71.627)">
                <rect x="0.08" y="-0.737" width="0.05" height="0.737" style="fill-rule:nonzero;"/>
            </g>
            <g transform="matrix(12,0,0,12,119.055,71.627)">
                <path d="M0.375,0.019C0.282,0.019 0.202,-0.019 0.137,-0.094C0.07,-0.17 0.037,-0.261 0.037,-0.368C0.037,-0.475 0.07,-0.566 0.137,-0.642C0.202,-0.718 0.282,-0.755 0.375,-0.755C0.452,-0.755 0.517,-0.735 0.57,-0.693C0.623,-0.653 0.656,-0.598 0.668,-0.529L0.619,-0.529C0.61,-0.581 0.582,-0.623 0.535,-0.657C0.49,-0.691 0.436,-0.708 0.375,-0.708C0.296,-0.708 0.228,-0.675 0.171,-0.609C0.115,-0.542 0.087,-0.461 0.087,-0.368C0.087,-0.274 0.115,-0.194 0.171,-0.127C0.228,-0.06 0.296,-0.027 0.375,-0.027C0.443,-0.027 0.499,-0.047 0.543,-0.087C0.588,-0.127 0.613,-0.18 0.619,-0.246L0.668,-0.246C0.662,-0.166 0.631,-0.101 0.578,-0.053C0.525,-0.005 0.457,0.019 0.375,0.019Z" style="fill-rule:nonzero;"/>
            </g>
            <g transform="matrix(12,0,0,12,127.358,71.627)">
                <path d="M0.129,-0L0.08,-0L0.08,-0.737L0.129,-0.737L0.129,-0.43C0.146,-0.465 0.171,-0.494 0.204,-0.516C0.236,-0.537 0.271,-0.548 0.309,-0.548C0.359,-0.548 0.402,-0.529 0.437,-0.492C0.473,-0.455 0.491,-0.411 0.491,-0.359L0.491,-0L0.441,-0L0.441,-0.349C0.441,-0.392 0.428,-0.429 0.402,-0.458C0.377,-0.489 0.346,-0.504 0.309,-0.504C0.269,-0.504 0.232,-0.489 0.199,-0.46C0.165,-0.431 0.142,-0.393 0.129,-0.345L0.129,-0Z" style="fill-rule:nonzero;"/>
            </g>
            <g transform="matrix(12,0,0,12,134.096,71.627)">
                <path d="M0.294,0.009C0.219,0.009 0.159,-0.016 0.114,-0.066C0.069,-0.116 0.046,-0.182 0.046,-0.265C0.046,-0.35 0.069,-0.419 0.114,-0.471C0.159,-0.522 0.219,-0.548 0.294,-0.548C0.369,-0.548 0.429,-0.522 0.475,-0.471C0.519,-0.419 0.542,-0.35 0.542,-0.265C0.542,-0.182 0.519,-0.116 0.475,-0.066C0.429,-0.016 0.369,0.009 0.294,0.009ZM0.294,-0.032C0.354,-0.032 0.402,-0.053 0.439,-0.096C0.474,-0.138 0.492,-0.194 0.492,-0.265C0.492,-0.337 0.474,-0.395 0.439,-0.439C0.402,-0.482 0.354,-0.504 0.294,-0.504C0.234,-0.504 0.186,-0.482 0.15,-0.439C0.114,-0.395 0.096,-0.337 0.096,-0.265C0.096,-0.194 0.114,-0.138 0.15,-0.096C0.186,-0.053 0.234,-0.032 0.294,-0.032Z" style="fill-rule:nonzero;"/>
            </g>
            <g transform="matrix(12,0,0,12,141.147,71.627)">
                <path d="M0.294,0.009C0.219,0.009 0.159,-0.016 0.114,-0.066C0.069,-0.116 0.046,-0.182 0.046,-0.265C0.046,-0.35 0.069,-0.419 0.114,-0.471C0.159,-0.522 0.219,-0.548 0.294,-0.548C0.369,-0.548 0.429,-0.522 0.475,-0.471C0.519,-0.419 0.542,-0.35 0.542,-0.265C0.542,-0.182 0.519,-0.116 0.475,-0.066C0.429,-0.016 0.369,0.009 0.294,0.009ZM0.294,-0.032C0.354,-0.032 0.402,-0.053 0.439,-0.096C0.474,-0.138 0.492,-0.194 0.492,-0.265C0.492,-0.337 0.474,-0.395 0.439,-0.439C0.402,-0.482 0.354,-0.504 0.294,-0.504C0.234,-0.504 0.186,-0.482 0.15,-0.439C0.114,-0.395 0.096,-0.337 0.096,-0.265C0.096,-0.194 0.114,-0.138 0.15,-0.096C0.186,-0.053 0.234,-0.032 0.294,-0.032Z" style="fill-rule:nonzero;"/>
            </g>
            <g transform="matrix(12,0,0,12,148.198,71.627)">
                <path d="M0.239,0.014C0.182,0.014 0.135,-0.003 0.096,-0.036C0.056,-0.069 0.036,-0.109 0.036,-0.157L0.082,-0.157C0.082,-0.121 0.097,-0.09 0.128,-0.065C0.159,-0.04 0.195,-0.027 0.239,-0.027C0.288,-0.027 0.328,-0.039 0.359,-0.061C0.389,-0.084 0.404,-0.114 0.404,-0.152C0.404,-0.18 0.388,-0.204 0.357,-0.224C0.325,-0.243 0.283,-0.255 0.23,-0.26C0.173,-0.265 0.129,-0.28 0.096,-0.307C0.062,-0.333 0.045,-0.366 0.045,-0.405C0.045,-0.449 0.062,-0.483 0.096,-0.507C0.13,-0.531 0.177,-0.543 0.239,-0.543C0.297,-0.543 0.344,-0.53 0.379,-0.504C0.414,-0.479 0.432,-0.444 0.432,-0.401L0.385,-0.401C0.379,-0.434 0.364,-0.459 0.338,-0.477C0.312,-0.495 0.279,-0.504 0.239,-0.504C0.194,-0.504 0.158,-0.495 0.132,-0.477C0.105,-0.459 0.092,-0.435 0.092,-0.405C0.092,-0.377 0.108,-0.353 0.14,-0.333C0.172,-0.314 0.214,-0.302 0.267,-0.297C0.323,-0.292 0.367,-0.275 0.401,-0.247C0.434,-0.219 0.451,-0.184 0.451,-0.142C0.451,-0.094 0.431,-0.057 0.393,-0.029C0.354,-0 0.303,0.014 0.239,0.014Z" style="fill-rule:nonzero;"/>
            </g>
            <g transform="matrix(12,0,0,12,154.041,71.627)">
                <path d="M0.283,0.019C0.212,0.019 0.155,-0.007 0.112,-0.058C0.069,-0.111 0.047,-0.179 0.047,-0.265C0.047,-0.35 0.069,-0.419 0.112,-0.471C0.155,-0.522 0.212,-0.548 0.283,-0.548C0.354,-0.548 0.412,-0.524 0.455,-0.477C0.498,-0.43 0.519,-0.367 0.519,-0.288L0.519,-0.265L0.097,-0.265C0.097,-0.193 0.114,-0.135 0.148,-0.092C0.182,-0.049 0.227,-0.027 0.283,-0.027C0.325,-0.027 0.364,-0.039 0.398,-0.061C0.432,-0.084 0.456,-0.114 0.47,-0.152L0.519,-0.152C0.511,-0.103 0.484,-0.062 0.44,-0.03C0.395,0.002 0.343,0.019 0.283,0.019ZM0.097,-0.312L0.47,-0.312L0.47,-0.33C0.465,-0.379 0.446,-0.421 0.41,-0.455C0.373,-0.488 0.331,-0.504 0.283,-0.504C0.235,-0.504 0.193,-0.487 0.158,-0.453C0.121,-0.419 0.101,-0.376 0.097,-0.325L0.097,-0.312Z" style="fill-rule:nonzero;"/>
            </g>
            <g transform="matrix(12,0,0,12,124.28,85.222)">
                <path d="M0.345,-0L0.288,-0L0.288,-0.32L0.005,-0.737L0.076,-0.737L0.316,-0.378L0.548,-0.737L0.619,-0.737L0.345,-0.32L0.345,-0Z" style="fill-rule:nonzero;"/>
            </g>
            <g transform="matrix(12,0,0,12,131.763,85.222)">
                <path d="M0.294,0.009C0.219,0.009 0.159,-0.016 0.114,-0.066C0.069,-0.116 0.046,-0.182 0.046,-0.265C0.046,-0.35 0.069,-0.419 0.114,-0.471C0.159,-0.522 0.219,-0.548 0.294,-0.548C0.369,-0.548 0.429,-0.522 0.475,-0.471C0.519,-0.419 0.542,-0.35 0.542,-0.265C0.542,-0.182 0.519,-0.116 0.475,-0.066C0.429,-0.016 0.369,0.009 0.294,0.009ZM0.294,-0.032C0.354,-0.032 0.402,-0.053 0.439,-0.096C0.474,-0.138 0.492,-0.194 0.492,-0.265C0.492,-0.337 0.474,-0.395 0.439,-0.439C0.402,-0.482 0.354,-0.504 0.294,-0.504C0.234,-0.504 0.186,-0.482 0.15,-0.439C0.114,-0.395 0.096,-0.337 0.096,-0.265C0.096,-0.194 0.114,-0.138 0.15,-0.096C0.186,-0.053 0.234,-0.032 0.294,-0.032Z" style="fill-rule:nonzero;"/>
            </g>
            <g transform="matrix(12,0,0,12,138.814,85.222)">
                <path d="M0.253,0.014C0.204,0.014 0.161,-0.002 0.125,-0.035C0.09,-0.067 0.072,-0.106 0.072,-0.152L0.072,-0.529L0.122,-0.529L0.122,-0.152C0.122,-0.118 0.135,-0.088 0.16,-0.063C0.186,-0.039 0.217,-0.027 0.253,-0.027C0.296,-0.027 0.335,-0.044 0.369,-0.077C0.403,-0.11 0.424,-0.152 0.434,-0.202L0.434,-0.529L0.483,-0.529L0.483,-0L0.434,-0L0.434,-0.093C0.419,-0.061 0.395,-0.035 0.361,-0.015C0.329,0.004 0.293,0.014 0.253,0.014Z" style="fill-rule:nonzero;"/>
            </g>
            <g transform="matrix(12,0,0,12,145.567,85.222)">
                <path d="M0.08,-0L0.08,-0.076L0.142,-0.076L0.142,-0L0.08,-0ZM0.081,-0.737L0.142,-0.737L0.142,-0.491L0.123,-0.207L0.099,-0.207L0.081,-0.491L0.081,-0.737Z" style="fill-rule:nonzero;"/>
            </g>
        </g>
    </g>
</svg>
