<?xml version="1.0" encoding="UTF-8" standalone="no"?>
<!DOCTYPE svg PUBLIC "-//W3C//DTD SVG 1.1//EN" "http://www.w3.org/Graphics/SVG/1.1/DTD/svg11.dtd">
<svg width="100%" height="100%" viewBox="0 0 241 341" version="1.1" xmlns="http://www.w3.org/2000/svg" xmlns:xlink="http://www.w3.org/1999/xlink" xml:space="preserve" xmlns:serif="http://www.serif.com/" style="fill-rule:evenodd;clip-rule:evenodd;stroke-linecap:round;stroke-linejoin:round;stroke-miterlimit:1.5;">
    <g transform="matrix(1,0,0,1,219.664,-0.454114)">
        <g id="frame" transform="matrix(0.405377,0,0,0.406616,-219.477,-0.567512)">
            <rect x="0.598" y="2.513" width="592.255" height="836.557" style="fill:rgb(235,235,235);"/>
        </g>
        <g id="spots" transform="matrix(1.18166,0,0,1.17233,-226.442,-165.995)">
            <g transform="matrix(0.342467,0,0,0.342467,5.85016,180.806)">
                <g>
                    <g>
                        <path d="M145.239,445.544L178.961,419.17L143.617,447.716L181.959,419.075L142.243,450.249L184.136,419.111L141.695,452.112L185.578,418.993L141.257,453.718L187.049,419.029L140.462,455.219L188.711,419.232L140.014,456.615L190.16,419.37L139.626,457.948L191.658,419.346L139.242,459.146L193.19,419.44L138.867,460.544L194.621,419.517L139.206,461.884L195.939,419.718L139.472,462.948L197.158,420.05L140.371,463.913L198.261,420.302L141.322,464.765L199.336,420.675L142.525,465.74L200.555,420.82L143.617,466.361L201.512,421.125L144.626,466.911L202.44,421.409L145.417,467.744L203.245,421.698L146.619,468.163L204.267,422.114L147.87,468.592L205.143,422.549L148.887,469.093L206.112,423.361L150.286,469.708L206.632,424.359L151.381,470.4L206.867,425.566L152.627,470.911L206.374,427.75L153.819,471.324L205.662,429.881L154.936,472.002L205.428,431.23L156.131,472.626L204.714,433.108L157.423,473.15L204.158,434.996L158.578,473.77L203.053,437.151L159.538,474.628L202.271,439.151L161.322,474.767L201.266,441.497L162.6,475.548L200.061,443.892L163.879,475.872L198.903,446.19L165.293,476.394L197.71,448.453L166.802,476.951L196.509,450.827L168.183,477.316L195.102,453.601L169.486,477.813L193.958,456.239L170.894,478.531L191.429,460.394L171.998,478.843L189.129,464.161L173.474,479.051L187.013,467.604L174.898,479.24L184.745,471.233L176.594,479.465L180.386,476.556L178.279,479.125" style="fill:none;stroke:black;stroke-width:1px;"/>
                        <path d="M128.181,539.842L129.09,542.515L126.007,538.448L128.478,544.769L124.07,537.379L127.941,547.356L121.734,536.31L127.44,549.815L119.206,535.501L126.495,551.903L116.027,534.548L125.819,554.244L113.011,534.264L125.118,556.903L110.306,533.456L124.13,558.959L107.339,533.019L123.125,561.288L104.52,533.195L122.196,563.636L102.226,532.947L121.357,566.797L99.494,532.47L120.14,568.767L96.899,532.633L118.961,571.15L94.242,532.538L117.64,573.341L91.016,531.792L116.547,575.832L87.407,531.683L115.713,577.803L85.077,531.62L114.485,579.398L83.327,532.894L113.332,581.135L81.436,534.313L112.45,582.716L79.91,535.88L110.867,584.393L78.534,537.072L109.579,586.176L77.595,539.016L108.133,587.48L76.132,540.518L106.258,587.973L75.258,541.991L103.987,587.881L74.172,543.758L100.592,586.838L73.281,545.118L97.4,585.209L72.276,546.693L93.865,583.05L71.447,548.752L90.842,581.617L70.595,550.715L86.5,578.465L69.914,552.573L82.543,575.466L69.106,554.647L77.909,571.824L68.747,557.218L72.847,567.182L69.244,561.787L69.384,558.764" style="fill:none;stroke:black;stroke-width:1px;"/>
                        <path d="M217.537,552.918L195.843,568.247L187.181,579.099L220.745,551.271L187.157,581.493L224.173,550.216L187.418,583.97L227.668,548.743L187.633,586.512L231.104,548.432L188.269,588.745L233.189,550.126L188.614,590.381L234.542,552.654L190.058,592.667L234.82,555.627L191.086,594.684L235.686,558.356L192.081,596.579L236.107,561.424L193.325,598.752L236.085,564.931L194.607,600.921L236.385,568.251L195.677,603.345L236.354,571.918L196.574,605.307L236.351,574.687L197.934,606.899L236.352,577.544L199.162,608.748L236.581,580.356L200.329,610.608L236.425,583.1L201.676,612.525L236.117,586.102L203.158,614.107L235.963,589.26L204.208,615.863L235.596,592.33L205.36,617.739L235.798,595.17L207.036,619.686L235.281,598.056L208.509,621.565L234.815,601.369L209.88,623.331L234.326,605.277L210.93,624.811L234.177,608.25L212.329,626.073L233.678,611.316L213.439,627.669L233.136,613.85L214.761,629.093L232.707,617.684L216.162,630.98L231.932,620.69L217.848,632.359L231.212,623.149L218.809,633.503L230.754,626.281L220.745,634.494L229.153,629.245L222.053,635.659L227.986,631.882L225.275,635.435" style="fill:none;stroke:black;stroke-width:1px;"/>
                        <path d="M522.369,569.914L526.351,569.854L521.052,570.732L527.862,570.855L519.719,571.795L528.85,572.005L518.773,573.055L529.47,573.216L517.341,574.566L530.078,574.369L515.899,575.965L530.746,575.79L515.053,577.29L531.034,577.066L514.037,578.57L531.605,578.584L513.205,579.745L532.251,580.041L512.241,581.052L532.512,581.521L511.447,582.49L532.919,582.912L510.42,583.568L532.995,584.166L509.708,585.089L533.579,585.544L508.905,586.383L533.647,587.382L508.166,587.812L533.842,588.73L507.251,588.94L534.147,590.419L506.495,590.526L534.237,591.875L505.815,591.934L534.343,593.304L504.888,593.47L534.511,594.949L504.108,595.146L534.563,596.428L503.355,596.62L534.645,598.113L502.658,598.016L534.596,599.832L502.135,599.82L534.945,601.036L501.53,601.401L535.063,602.476L500.926,602.664L535.14,604.596L500.674,603.978L534.814,605.751L500.35,605.709L535.169,606.988L500.222,606.969L535.18,608.178L500.103,608.255L535.506,609.559L500.121,609.777L535.08,610.823L500.236,611.042L535.097,612.125L500.649,612.362L535.257,613.439L500.624,613.646L535.255,614.725L501.128,615.047L535.289,616.163L501.524,616.451L534.959,617.704L502.229,618.016L534.927,619.326L503.388,619.287L534.664,620.731L504.129,620.705L534.376,621.806L505.407,621.878L534.278,623.432L506.971,622.879L533.993,624.759L508.179,624.12L533.35,626.122L509.951,625.217L532.82,627.385L512.643,626.693L531.752,628.275L516.395,628.038L530.7,629.107L520.38,629.394L529.159,629.895" style="fill:none;stroke:black;stroke-width:1px;"/>
                        <path d="M479.809,353.65L482.961,352.299L478.323,354.864L484.245,352.875L477.151,355.97L485.785,353.999L476.212,357.427L487.188,355.149L474.972,358.7L488.264,356.165L474.125,360.243L489.192,357.4L472.671,361.863L490.242,359.178L471.972,363.599L490.79,361.187L470.798,364.997L491.521,362.649L469.675,366.546L492.045,364.011L468.617,368.091L492.644,365.787L468.189,369.393L493.36,367.491L466.947,371.418L493.884,369.491L465.256,372.978L493.821,371.083L464.294,374.572L494.437,372.68L464.277,376.073L495.06,373.944L463.45,377.61L495.073,375.461L462.954,378.991L495.574,377.066L462.262,380.272L495.86,378.729L461.459,381.1L496.053,380.261L460.969,382.114L496.24,381.415L460.408,383.514L496.63,382.76L459.743,384.467L496.998,383.914L459.408,385.422L496.962,385.122L459.023,386.606L496.99,386.222L458.733,387.978L497.683,387.528L458.05,389.168L497.545,388.768L457.709,390.333L497.768,389.908L457.75,391.568L497.774,391.222L457.268,392.707L497.88,392.894L457.289,393.574L497.889,394.123L457.62,394.775L497.975,395.307L458.386,395.872L498.2,396.576L459.397,396.891L498.525,397.8L460.494,397.907L498.287,399.014L461.703,398.603L498.061,400.05L463.054,399.303L498.088,400.872L464.727,400.343L497.985,401.882L466.547,401.479L497.935,403.154L468.809,402.416L497.525,404.304L471.887,403.493L497.156,405.657L475.036,404.62L496.598,406.422L478.439,405.535L495.923,407.177L481.394,406.589L494.739,407.997L484.879,407.471L492.178,408.563L493.448,407.928" style="fill:none;stroke:black;stroke-width:1px;"/>
                        <path d="M396.939,341.414L403.234,337.001L396.087,342.591L404.569,336.589L395.301,343.636L405.605,336.673L394.349,344.611L406.423,337.09L393.569,345.521L407.084,337.994L392.882,346.405L407.484,338.615L392.228,347.282L407.968,339.227L391.82,348.173L408.491,339.934L391.673,348.839L408.919,340.523L391.298,349.685L409.362,341.163L391.158,350.388L409.736,341.88L391.183,351.006L410.156,342.548L391.095,351.585L410.557,343.001L391.348,352.431L410.686,343.634L391.705,353.086L410.863,344.322L392.049,353.762L411.236,344.947L392.355,354.561L411.581,345.46L392.572,355.292L411.709,346.238L393.029,355.627L412.044,346.616L393.635,356.218L412.391,347.398L393.813,357.046L412.39,348.189L394.231,357.657L412.866,348.988L394.774,358.262L413.025,349.797L395.271,358.964L413.437,350.395L395.68,359.665L413.648,351.146L396.377,360.43L413.933,352.05L396.928,361.173L414.289,352.685L397.502,362.079L414.507,353.479L398.022,362.884L414.88,354.366L398.6,363.542L414.979,355.136L399.093,364.213L415.305,355.927L399.809,364.955L415.694,356.563L400.345,365.764L415.836,357.396L400.838,366.551L415.872,358.28L401.54,367.259L416.122,359.228L401.932,367.855L416.309,360.287L402.522,368.466L416.307,361.261L403.006,369.046L416.083,362.078L403.624,369.485L415.503,363.204L404.209,370.267L415.046,364.128L404.768,370.819L413.945,365.672L405.447,371.343L412.89,367.253L406.137,371.755L411.328,368.907L407.062,372.019L409.912,370.562L408.436,371.782" style="fill:none;stroke:black;stroke-width:1px;"/>
                        <path d="M412.962,313.078L412.767,315.101L414.422,310.348L413.277,316.819L416.182,309.096L414.386,318.604L417.98,307.62L415.494,319.963L419.86,305.774L416.787,321.496L421.834,304.247L418.101,322.959L423.847,302.951L419.495,324.322L426.236,301.439L420.628,325.793L428.377,300.052L422.551,326.716L429.942,298.845L423.908,327.841L431.737,297.633L425.085,328.722L433.54,296.482L426.584,329.43L435.395,295.264L428.002,330.591L436.901,294.194L429.488,331.556L439.083,293.59L430.716,332.332L441.554,292.119L432.046,332.932L443.936,290.776L433.507,333.496L446.175,289.401L434.825,334.889L448.224,288.603L436.274,335.509L450.245,287.473L437.611,336.424L452.518,286.671L439.198,336.604L454.293,285.963L440.445,337.706L456.267,285.083L442.023,338.101L458.192,283.863L443.205,338.496L460.373,283.159L444.583,339.118L462.752,282.593L446.11,339.463L464.905,281.642L447.629,339.918L466.725,281.496L449.066,339.936L468.569,280.606L450.439,339.957L470.251,279.924L452.078,340.175L472.051,280.29L453.938,339.627L473.889,279.826L456.035,338.797L475.509,279.837L458.333,336.674L476.954,280.216L460.572,334.14L478.646,279.755L463.059,330.606L480.051,280.317L465.494,327.26L480.912,281.942L468.244,322.517L481.129,284.252L471.038,316.975L481.118,287.529L474.411,309.889L481.033,291.088L477.059,303.85L479.839,296.237" style="fill:none;stroke:black;stroke-width:1px;"/>
                        <path d="M256.676,273.436L255.641,276.182L256.632,276.122L255.227,277.601L256.734,277.757L254.408,279.134L256.329,279.281L253.721,281.344L255.696,281.422L252.914,284.107L255.626,283.792L252.646,286.434L255.617,285.752L251.693,288.977L255.52,288.187L250.895,291.967L255.263,291.322L250.351,294.451L255.082,294.148L249.187,297.667L254.855,296.453L248.642,300.813L255.175,299.511L247.864,304.46L255.138,302.697L246.765,308.005L254.926,305.892L246.166,310.761L254.547,309.432L245.138,313.643L254.925,312.328L244.674,316.629L254.859,315.476L243.747,319.534L255.244,317.731L242.894,321.843L255.472,320.381L242.138,325.159L255.732,323.296L241.748,328.053L255.914,325.886L241.068,331.192L256.382,329.295L240.248,333.838L256.557,332.047L240.076,336.594L256.542,335.456L239.955,339.212L256.653,338.516L239.551,342.854L256.898,341.841L238.329,346.054L257.105,345.192L238.098,349.272L257.447,347.985L237.147,352.197L257.24,350.595L236.56,354.828L257.532,352.992L236.335,357.35L257.783,355.753L235.968,360.267L257.976,358.353L235.994,363.151L258.401,361.147L235.327,366.092L258.574,364.211L235.302,368.648L258.693,366.806L234.946,371.358L259.555,369.655L234.368,373.896L258.897,372.78L233.981,376.384L258.754,375.675L233.579,378.402L258.866,377.899L233.361,380.973L258.607,380.463L233.066,383.591L258.5,383.095L232.378,385.919L258.366,385.807L232.265,388.576L257.741,388.351L232.106,390.967L257.177,390.385L232.033,393.201L256.566,393.06L231.476,395.342L256.292,395.276L231.174,397.529L255.378,397.457L231.207,400.013L254.689,400.147L231.256,402.387L253.543,402.223L230.594,404.076L252.592,404.596L230.604,405.933L251.325,406.76L230.294,407.72L250.338,408.665L229.362,409.779L248.168,410.659L228.462,411.525L247.106,412.689L229.173,413.241L245.626,414.413L230.097,415.262L242.75,416.036L232.476,417.006L240.477,417.649L234.411,418.753L238.9,418.72" style="fill:none;stroke:black;stroke-width:1px;"/>
                    </g>
                </g>
            </g>
        </g>
    </g>
</svg>
