<?xml version="1.0" encoding="UTF-8" standalone="no"?>
<!DOCTYPE svg PUBLIC "-//W3C//DTD SVG 1.1//EN" "http://www.w3.org/Graphics/SVG/1.1/DTD/svg11.dtd">
<svg width="100%" height="100%" viewBox="0 0 313 313" version="1.1" xmlns="http://www.w3.org/2000/svg" xmlns:xlink="http://www.w3.org/1999/xlink" xml:space="preserve" xmlns:serif="http://www.serif.com/" style="fill-rule:evenodd;clip-rule:evenodd;stroke-linejoin:round;stroke-miterlimit:2;">
    <g id="rect2288-4-5" transform="matrix(1,0,0,1,-1946.27,-1202.03)">
        <path d="M2258.77,1202.03L1946.27,1202.03L1946.27,1514.53L2258.77,1514.53L2258.77,1202.03ZM2014.86,1463.35C2010.83,1463.35 2007.55,1466.63 2007.55,1470.67C2007.55,1474.7 2010.83,1477.98 2014.86,1477.98C2018.89,1477.98 2022.17,1474.7 2022.17,1470.67C2022.17,1466.63 2018.89,1463.35 2014.86,1463.35ZM2037.44,1451.43C2033.41,1451.43 2030.13,1454.71 2030.13,1458.74C2030.13,1462.77 2033.41,1466.05 2037.44,1466.05C2041.47,1466.05 2044.75,1462.77 2044.75,1458.74C2044.75,1454.71 2041.47,1451.43 2037.44,1451.43ZM2201.12,1467.65C2205.15,1467.65 2208.43,1464.37 2208.43,1460.34C2208.43,1456.31 2205.15,1453.03 2201.12,1453.03C2197.09,1453.03 2193.8,1456.31 2193.8,1460.34C2193.8,1464.37 2197.09,1467.65 2201.12,1467.65ZM2174.24,1467.65C2178.27,1467.65 2181.55,1464.37 2181.55,1460.34C2181.55,1456.31 2178.27,1453.03 2174.24,1453.03C2170.21,1453.03 2166.93,1456.31 2166.93,1460.34C2166.93,1464.37 2170.21,1467.65 2174.24,1467.65ZM1992.23,1449.78C1988.2,1449.78 1984.92,1453.06 1984.92,1457.09C1984.92,1461.12 1988.2,1464.4 1992.23,1464.4C1996.27,1464.4 1999.55,1461.12 1999.55,1457.09C1999.55,1453.06 1996.27,1449.78 1992.23,1449.78ZM2220.65,1455.5C2224.68,1455.5 2227.96,1452.21 2227.96,1448.18C2227.96,1444.15 2224.68,1440.87 2220.65,1440.87C2216.62,1440.87 2213.34,1444.15 2213.34,1448.18C2213.34,1452.21 2216.62,1455.5 2220.65,1455.5ZM2152.34,1452.9C2156.37,1452.9 2159.65,1449.62 2159.65,1445.59C2159.65,1441.56 2156.37,1438.28 2152.34,1438.28C2148.3,1438.28 2145.02,1441.56 2145.02,1445.59C2145.02,1449.62 2148.3,1452.9 2152.34,1452.9ZM2042.68,1425.82C2038.65,1425.82 2035.37,1429.11 2035.37,1433.14C2035.37,1437.17 2038.65,1440.45 2042.68,1440.45C2046.72,1440.45 2050,1437.17 2050,1433.14C2050,1429.11 2046.72,1425.82 2042.68,1425.82ZM2132.87,1418.81C2128.84,1418.81 2125.55,1422.09 2125.55,1426.12C2125.55,1430.15 2128.84,1433.43 2132.87,1433.43C2136.9,1433.43 2140.18,1430.15 2140.18,1426.12C2140.18,1422.09 2136.9,1418.81 2132.87,1418.81ZM2054.9,1323.78C2054.9,1319.75 2051.62,1316.46 2047.59,1316.46C2043.56,1316.46 2040.27,1319.75 2040.27,1323.78C2040.27,1327.81 2043.56,1331.09 2047.59,1331.09C2051.62,1331.09 2054.9,1327.81 2054.9,1323.78ZM2021.78,1305.42C2017.75,1305.42 2014.47,1308.7 2014.47,1312.73C2014.47,1316.76 2017.75,1320.04 2021.78,1320.04C2025.81,1320.04 2029.1,1316.76 2029.1,1312.73C2029.1,1308.7 2025.81,1305.42 2021.78,1305.42ZM2118.24,1301.81C2118.24,1308.53 2123.71,1314 2130.43,1314C2137.15,1314 2142.62,1308.53 2142.62,1301.81L2142.62,1299.37L2118.27,1299.37L2118.27,1301.81L2118.24,1301.81ZM2205.99,1304.25L2201.12,1304.25L2201.12,1309.12L2205.99,1309.12L2205.99,1304.25ZM2006.26,1283.97C2002.23,1283.97 1998.95,1287.25 1998.95,1291.28C1998.95,1295.31 2002.23,1298.59 2006.26,1298.59C2010.29,1298.59 2013.57,1295.31 2013.57,1291.28C2013.57,1287.25 2010.29,1283.97 2006.26,1283.97ZM2213.3,1292.06L2208.43,1292.06L2208.43,1296.93L2213.3,1296.93L2213.3,1292.06ZM2198.68,1292.06L2193.8,1292.06L2193.8,1296.93L2198.68,1296.93L2198.68,1292.06ZM2184.05,1292.06L2179.18,1292.06L2179.18,1296.93L2184.05,1296.93L2184.05,1292.06ZM2220.62,1279.87L2215.74,1279.87L2215.74,1284.75L2220.62,1284.75L2220.62,1279.87ZM2205.99,1279.87L2201.12,1279.87L2201.12,1284.75L2205.99,1284.75L2205.99,1279.87ZM2008.32,1257.75C2004.29,1257.75 2001.01,1261.03 2001.01,1265.06C2001.01,1269.09 2004.29,1272.37 2008.32,1272.37C2012.35,1272.37 2015.63,1269.09 2015.63,1265.06C2015.63,1261.03 2012.35,1257.75 2008.32,1257.75ZM2213.3,1267.68L2208.43,1267.68L2208.43,1272.56L2213.3,1272.56L2213.3,1267.68ZM2198.68,1267.68L2193.8,1267.68L2193.8,1272.56L2198.68,1272.56L2198.68,1267.68ZM2220.62,1255.5L2215.74,1255.5L2215.74,1260.37L2220.62,1260.37L2220.62,1255.5ZM2028.15,1255.76C2032.18,1255.76 2035.46,1252.48 2035.46,1248.45C2035.46,1244.42 2032.18,1241.14 2028.15,1241.14C2024.12,1241.14 2020.84,1244.42 2020.84,1248.45C2020.84,1252.48 2024.12,1255.76 2028.15,1255.76ZM2053.63,1253.24C2057.66,1253.24 2060.94,1249.96 2060.94,1245.93C2060.94,1241.9 2057.66,1238.62 2053.63,1238.62C2049.6,1238.62 2046.32,1241.9 2046.32,1245.93C2046.32,1249.96 2049.6,1253.24 2053.63,1253.24Z" style="fill:rgb(84,109,255);fill-opacity:0.3;"/>
    </g>
</svg>
