<?xml version="1.0" encoding="UTF-8" standalone="no"?>
<!DOCTYPE svg PUBLIC "-//W3C//DTD SVG 1.1//EN" "http://www.w3.org/Graphics/SVG/1.1/DTD/svg11.dtd">
<svg width="100%" height="100%" viewBox="0 0 313 313" version="1.1" xmlns="http://www.w3.org/2000/svg" xmlns:xlink="http://www.w3.org/1999/xlink" xml:space="preserve" xmlns:serif="http://www.serif.com/" style="fill-rule:evenodd;clip-rule:evenodd;stroke-linejoin:round;stroke-miterlimit:2;">
    <g id="rect2288" transform="matrix(1,0,0,1,-1250.78,-1193.7)">
        <path d="M1563.28,1193.7L1250.78,1193.7L1250.78,1506.2L1563.28,1506.2L1563.28,1193.7ZM1461.68,1351.02C1461.68,1357.55 1463.81,1363.14 1467.84,1367.17L1479.75,1379.08C1482.15,1381.48 1485.22,1383.02 1488.53,1383.52C1497.42,1383.55 1503.15,1383.7 1514.12,1383.11C1514.12,1383.11 1516.4,1382.02 1518.09,1380.2C1519.31,1378.64 1520.09,1376.7 1520.09,1374.58L1520.09,1371.27C1520.09,1366.23 1516,1362.14 1510.93,1362.14L1509.87,1362.14C1504.5,1362.14 1500.12,1357.77 1500.12,1352.39C1500.12,1346.77 1504.68,1342.2 1510.31,1342.2L1513.84,1342.2C1528.09,1342.2 1539.68,1353.8 1539.68,1368.05L1539.68,1376.27C1540.26,1392.94 1528.84,1397.83 1528.84,1397.83C1524.34,1401.2 1518.75,1403.23 1512.72,1403.23L1491.03,1403.23C1481.56,1403.23 1472.68,1399.55 1466,1392.86L1447.12,1373.83C1447.12,1373.83 1444.2,1370.7 1442.25,1368.92L1442.22,1368.89L1442.22,1401.52C1442.22,1401.52 1438.7,1395.34 1433.48,1392.79C1428.02,1390.13 1422.7,1385.93 1422.7,1385.93C1422.7,1385.93 1422.62,1391.12 1417.9,1398.58C1415.64,1402.15 1413.09,1405.55 1409.81,1408.83L1399.25,1419.39C1395.47,1423.17 1393.47,1428.17 1393.59,1433.48C1393.81,1443.95 1402.81,1452.45 1413.65,1452.45C1418.25,1452.45 1422,1456.2 1422,1460.8L1422,1463.61C1422,1468.2 1418.25,1471.95 1413.65,1471.95L1412.97,1471.95C1402.53,1471.95 1392.75,1467.86 1385.37,1460.45C1378,1453.05 1374,1443.2 1374.09,1432.8C1374.15,1422.67 1378.59,1412.48 1386.25,1404.83L1395.18,1395.89C1398.84,1392.23 1400.84,1387.36 1400.84,1382.2L1400.84,1359.33L1395.97,1366.8L1361.93,1400.77C1359.51,1403.06 1356.95,1409.51 1356.9,1412.89L1356.82,1415.23C1356.83,1412.77 1354.47,1410.64 1352.97,1409.14L1341.62,1397.8C1343.78,1392.98 1346.56,1388.55 1349.56,1385.52L1385.75,1349.33C1385.75,1349.33 1382.94,1349.04 1378.87,1349.33L1320.03,1349.33C1315.9,1349.33 1312,1350.92 1309.09,1353.86L1298.47,1364.45C1296.75,1366.17 1295.53,1368.02 1294.84,1369.92C1292.22,1377.27 1295.03,1385.08 1301.65,1388.89C1304.97,1390.8 1306.93,1394.02 1306.97,1397.55L1309.4,1397.52L1306.97,1397.8C1307,1401.2 1305.28,1404.27 1302.37,1406.05C1299.43,1407.83 1295.87,1407.92 1292.81,1406.27C1280.68,1399.77 1273.47,1386.67 1274.43,1372.98C1275.03,1364.61 1278.87,1356.48 1285.28,1350.05L1295.25,1340.08C1301.84,1333.48 1310.62,1329.83 1319.97,1329.83C1319.97,1329.83 1375.53,1330.14 1388.93,1329.83C1396.25,1329.65 1400.29,1324.78 1400.29,1324.78L1384.28,1309.83C1378.19,1306.58 1369.4,1306.67 1367.43,1305.42L1388.84,1305.42C1391.5,1305.42 1394,1304.27 1395.72,1302.23L1399.15,1298.2C1400.75,1296.7 1401.65,1294.61 1401.65,1292.42L1401.65,1286.02C1401.65,1278.05 1406.53,1271.02 1414.03,1268.11C1416.09,1267.3 1418.43,1266.92 1421.03,1266.92L1423.72,1266.92C1429.33,1265.81 1431.11,1265.03 1434.97,1262.55L1457,1240.58C1463.72,1233.86 1472.65,1230.17 1482.15,1230.17L1502,1230.17C1511.5,1230.17 1520.43,1233.86 1527.15,1240.58L1529.09,1242.52C1535.97,1249.39 1539.78,1258.55 1539.78,1268.3L1539.78,1272.39C1539.78,1286.39 1531.9,1298.95 1519.28,1305.2C1515.34,1307.14 1510.78,1308.14 1505.75,1308.14L1472.78,1308.14C1466.65,1308.14 1461.65,1313.14 1461.65,1319.27L1461.68,1351.02Z" style="fill:rgb(7,232,0);fill-opacity:0.3;"/>
    </g>
</svg>
