<?xml version="1.0" encoding="UTF-8" standalone="no"?>
<!DOCTYPE svg PUBLIC "-//W3C//DTD SVG 1.1//EN" "http://www.w3.org/Graphics/SVG/1.1/DTD/svg11.dtd">
<svg width="100%" height="100%" viewBox="0 0 313 313" version="1.1" xmlns="http://www.w3.org/2000/svg" xmlns:xlink="http://www.w3.org/1999/xlink" xml:space="preserve" xmlns:serif="http://www.serif.com/" style="fill-rule:evenodd;clip-rule:evenodd;stroke-linejoin:round;stroke-miterlimit:2;">
    <g id="rect2288-4" transform="matrix(1,0,0,1,-1605.72,-1193.97)">
        <path d="M1918.22,1193.97L1605.72,1193.97L1605.72,1506.47L1918.22,1506.47L1918.22,1193.97ZM1677.88,1472.35C1663.07,1473.41 1649.16,1465.56 1642.44,1452.41C1640.88,1449.38 1641.03,1445.81 1642.82,1442.91C1644.6,1439.97 1647.75,1438.22 1651.19,1438.22L1651.5,1438.22C1655,1438.22 1658.19,1440.19 1659.66,1443.22C1662.38,1448.85 1668.13,1452.22 1675.1,1452.22C1684.78,1452.22 1692.38,1444.31 1692.38,1434.19L1692.38,1415.22C1692.38,1411.56 1693.15,1403.77 1696.54,1398L1706.92,1408.51C1711.89,1413.14 1711.77,1413.62 1711.82,1417.67L1711.85,1434.75C1711.85,1454.5 1696.94,1471 1677.88,1472.35ZM1837.94,1442.31C1833.38,1442.31 1829.07,1440.53 1825.85,1437.28L1803.41,1414.85L1803.38,1414.88C1803.38,1414.88 1797.25,1406.57 1797.1,1401.81C1792.19,1392.27 1784.62,1392.6 1777.69,1386.3L1777.69,1401.35L1777.63,1401.35L1777.63,1401.53C1777.47,1408.69 1781.19,1420.16 1788.38,1427.47L1812,1451.1C1818.91,1458 1828.13,1461.81 1837.91,1461.81L1857.97,1461.81C1871.97,1461.81 1884.57,1454 1890.82,1441.41C1892.28,1438.47 1892.1,1435.16 1890.35,1432.31C1888.53,1429.38 1885.38,1427.63 1881.94,1427.63C1878.35,1427.63 1874.97,1429.75 1873.13,1433.22C1870.16,1438.81 1864.35,1442.31 1858,1442.31L1837.94,1442.31ZM1675.28,1311.97L1667.44,1304.13C1658.94,1295.63 1654.22,1284.31 1654.19,1272.31C1654.16,1260.97 1658.66,1250.19 1666.88,1241.94C1675.69,1233.1 1688,1228.03 1700.66,1228.03L1714.32,1228.03C1719.69,1228.03 1724.07,1232.38 1724.07,1237.69C1724.07,1243.06 1719.69,1247.44 1714.32,1247.44L1699.41,1247.44C1691.91,1247.44 1684.85,1250.47 1680,1255.75C1675.38,1260.81 1673.16,1267.47 1673.78,1274.5C1674.32,1280.47 1677.16,1286.28 1681.75,1290.88L1689.07,1298.19C1693.57,1302.69 1699.41,1305.28 1705.69,1305.66L1705.69,1305.78C1726.52,1306.08 1736.06,1306.46 1743.13,1313.53L1754.85,1325.25L1707.25,1325.22C1695.16,1325.22 1683.82,1320.53 1675.28,1311.97Z" style="fill:rgb(232,38,0);fill-opacity:0.3;"/>
    </g>
</svg>
