<?xml version="1.0" encoding="UTF-8" standalone="no"?>
<!DOCTYPE svg PUBLIC "-//W3C//DTD SVG 1.1//EN" "http://www.w3.org/Graphics/SVG/1.1/DTD/svg11.dtd">
<svg width="100%" height="100%" viewBox="0 0 379 379" version="1.1" xmlns="http://www.w3.org/2000/svg" xmlns:xlink="http://www.w3.org/1999/xlink" xml:space="preserve" xmlns:serif="http://www.serif.com/" style="fill-rule:evenodd;clip-rule:evenodd;stroke-linejoin:round;stroke-miterlimit:2;">
    <g id="rect2030" transform="matrix(1,0,0,1,-1342.33,-1561.58)">
        <path d="M1720.64,1561.58L1342.33,1561.58L1342.33,1939.77L1720.64,1939.77L1720.64,1561.58ZM1551.69,1782.9C1542.34,1772.36 1532.24,1766.13 1521.65,1762.66C1521.65,1762.66 1537.78,1751.79 1546.43,1749.69C1559.11,1746.62 1576.36,1749.13 1576.36,1749.13C1576.36,1749.13 1568.76,1766.84 1628.5,1787.17C1629.21,1787.41 1624.95,1789.28 1624.95,1789.28C1624.95,1789.28 1653.03,1797.04 1641.29,1832.33C1641.25,1832.46 1661.94,1824.94 1659.31,1795.94C1656.97,1770.14 1632.79,1727.46 1563.63,1722.79C1527.98,1720.38 1475.62,1750.46 1434.93,1748.67C1383.14,1746.39 1354.32,1723.49 1354.32,1723.49C1354.32,1723.49 1389.08,1789.25 1494.97,1784.85C1522.15,1783.72 1551.69,1782.9 1551.69,1782.9Z" style="fill:rgb(245,0,0);fill-opacity:0.15;"/>
    </g>
</svg>
