<?xml version="1.0" encoding="UTF-8" standalone="no"?>
<!DOCTYPE svg PUBLIC "-//W3C//DTD SVG 1.1//EN" "http://www.w3.org/Graphics/SVG/1.1/DTD/svg11.dtd">
<svg width="100%" height="100%" viewBox="0 0 379 379" version="1.1" xmlns="http://www.w3.org/2000/svg" xmlns:xlink="http://www.w3.org/1999/xlink" xml:space="preserve" xmlns:serif="http://www.serif.com/" style="fill-rule:evenodd;clip-rule:evenodd;stroke-linejoin:round;stroke-miterlimit:2;">
    <g id="rect2030" transform="matrix(1,0,0,1,-100.044,-1518.83)">
        <path d="M478.349,1518.83L100.044,1518.83L100.044,1897.03L478.349,1897.03L478.349,1518.83ZM398.598,1788.9C398.598,1788.9 389.206,1759.48 333.217,1772.79C333.217,1772.79 401.402,1794.96 371.467,1872.02C371.467,1872.02 412.489,1867.58 417.478,1820.46C417.478,1820.46 482.892,1782.77 462.381,1715.14C441.87,1647.51 379.782,1614.8 330.445,1610.92C330.445,1610.92 316.587,1566.02 342.641,1543.84C342.641,1543.84 270.021,1565.46 263.923,1603.16C263.923,1603.16 146.955,1603.16 112.031,1680.77C113.299,1681.42 142.184,1708.59 206.527,1705.41C229.105,1704.3 258.59,1691.66 289.361,1683.8C308.562,1678.89 325.617,1679.42 340.367,1682.23C358.959,1685.77 373.843,1693.16 384.208,1700.49C421.902,1727.13 428.389,1775.71 398.598,1788.9ZM278.98,1719.72C278.98,1719.72 295.742,1723.05 313.481,1745.78C316.112,1749.15 324.584,1752.81 328.445,1754.4C350.616,1763.55 386.613,1744.56 386.613,1744.56C386.613,1744.56 330.695,1727.23 333.975,1706.11C323.723,1705.34 313.577,1704.79 305.118,1706.68C295.067,1708.93 286.638,1713.92 278.98,1719.72Z" style="fill:rgb(0,11,255);fill-opacity:0.29;"/>
    </g>
</svg>
