<?xml version="1.0" encoding="UTF-8" standalone="no"?>
<!DOCTYPE svg PUBLIC "-//W3C//DTD SVG 1.1//EN" "http://www.w3.org/Graphics/SVG/1.1/DTD/svg11.dtd">
<svg width="100%" height="100%" viewBox="0 0 237 237" version="1.1" xmlns="http://www.w3.org/2000/svg" xmlns:xlink="http://www.w3.org/1999/xlink" xml:space="preserve" xmlns:serif="http://www.serif.com/" style="fill-rule:evenodd;clip-rule:evenodd;stroke-linejoin:round;stroke-miterlimit:2;">
    <g id="rect2288-4-2-6" transform="matrix(1,0,0,1,-1143.87,-1248.94)">
        <path d="M1143.87,1485.16L1380.09,1485.16L1380.09,1248.94L1143.87,1248.94L1143.87,1485.16ZM1308.86,1455.56C1305.42,1455.56 1302.3,1454.63 1299.17,1452.44L1264.8,1427.44C1262.92,1425.88 1260.11,1425.88 1258.23,1427.44L1223.55,1452.44C1217.61,1456.81 1210.11,1456.81 1204.48,1452.44C1198.55,1448.06 1196.36,1441.19 1198.55,1434.31L1211.67,1394C1212.3,1391.81 1211.67,1389.31 1209.48,1387.75L1175.73,1363.38C1169.8,1359.31 1167.61,1352.13 1169.8,1345.25C1171.98,1338.38 1178.23,1334 1185.42,1334L1227.61,1334C1230.11,1334 1231.98,1332.44 1232.92,1330.25L1246.36,1289.63C1248.55,1282.75 1254.8,1278.38 1261.98,1278.38C1269.17,1278.38 1275.42,1282.75 1277.61,1289.63L1290.73,1330.25C1291.36,1332.44 1293.55,1334 1296.05,1334L1338.55,1334C1345.73,1334 1351.98,1338.38 1354.17,1345.25C1356.36,1352.13 1354.17,1359.31 1348.23,1363.38L1314.17,1387.75C1312.3,1389.31 1311.36,1391.81 1311.98,1394L1324.48,1434.31C1326.67,1441.19 1324.48,1448.38 1318.55,1452.44C1315.42,1454.63 1312.3,1455.56 1308.86,1455.56Z" style="fill:rgb(255,253,84);fill-opacity:0.3;"/>
    </g>
</svg>
