<?xml version="1.0" encoding="UTF-8" standalone="no"?>
<!DOCTYPE svg PUBLIC "-//W3C//DTD SVG 1.1//EN" "http://www.w3.org/Graphics/SVG/1.1/DTD/svg11.dtd">
<svg width="100%" height="100%" viewBox="0 0 237 237" version="1.1" xmlns="http://www.w3.org/2000/svg" xmlns:xlink="http://www.w3.org/1999/xlink" xml:space="preserve" xmlns:serif="http://www.serif.com/" style="fill-rule:evenodd;clip-rule:evenodd;stroke-linejoin:round;stroke-miterlimit:2;">
    <g transform="matrix(1,0,0,1,-837.745,-1251.84)">
        <path id="rect2288-4-2-6" d="M837.745,1488.07L1073.96,1488.07L1073.96,1251.85L837.745,1251.85L837.745,1488.07ZM976.599,1397.8C978.749,1396.7 981.387,1397.55 982.485,1399.7C983.583,1401.85 982.729,1404.49 980.578,1405.59C978.428,1406.69 975.79,1405.83 974.692,1403.68C973.594,1401.53 974.448,1398.89 976.599,1397.8ZM932.211,1397.74C934.362,1396.64 936.999,1397.5 938.097,1399.65C939.195,1401.8 938.341,1404.44 936.191,1405.54C934.04,1406.63 931.403,1405.78 930.305,1403.63C929.206,1401.48 930.061,1398.84 932.211,1397.74ZM988.092,1358.77C990.242,1357.68 992.88,1358.53 993.978,1360.68C995.076,1362.83 994.222,1365.47 992.071,1366.57C989.921,1367.66 987.283,1366.81 986.185,1364.66C985.087,1362.51 985.941,1359.87 988.092,1358.77ZM919.639,1358.71C921.789,1357.61 924.427,1358.46 925.525,1360.61C926.623,1362.77 925.769,1365.4 923.618,1366.5C921.468,1367.6 918.831,1366.74 917.732,1364.59C916.634,1362.44 917.488,1359.81 919.639,1358.71ZM954.016,1334.32C956.166,1333.22 958.804,1334.08 959.902,1336.23C961,1338.38 960.146,1341.02 957.995,1342.11C955.845,1343.21 953.207,1342.36 952.109,1340.21C951.011,1338.06 951.865,1335.42 954.016,1334.32Z" style="fill:rgb(255,84,235);fill-opacity:0.31;"/>
    </g>
</svg>
