<?xml version="1.0" encoding="UTF-8" standalone="no"?>
<!DOCTYPE svg PUBLIC "-//W3C//DTD SVG 1.1//EN" "http://www.w3.org/Graphics/SVG/1.1/DTD/svg11.dtd">
<svg width="100%" height="100%" viewBox="0 0 1440 810" version="1.1" xmlns="http://www.w3.org/2000/svg" xmlns:xlink="http://www.w3.org/1999/xlink" xml:space="preserve" xmlns:serif="http://www.serif.com/" style="fill-rule:evenodd;clip-rule:evenodd;">
    <g id="_1" serif:id="1">
        <path d="M549.789,148.002L548.129,158.496L547.304,166.288L547.634,198.047L547.259,231.832L546.573,253.433L545.408,276.926L544.287,322.859L542.952,351.97L543.19,350.282L542.937,352.652L543.154,355.483L544.097,360.737L546.35,368.584L548.431,373.617L552.336,380.935L555.495,385.709L559.172,390.339L564.912,396.583L569.484,400.799L577.278,406.864L576.986,406.649L590.139,419.367L608.058,434.885L609.614,436.575L609.466,436.414L612.336,440.315L614.651,444.355L615.282,446.321L615.336,447.734L615.08,449.127L614.529,450.434L613.707,451.586L612.05,452.919L609.575,453.728L594.029,455.472L593.38,455.871L592.739,456.845L592.12,458.381L590.987,463.03L590.495,466.063L589.706,473.28L589.226,481.581L589.092,490.355L589.555,502.977L590.271,510.124L591.254,515.636L591.821,517.652L592.427,519.127L593.058,520.037L593.705,520.369L650.481,527.174L690.581,520.861L691.024,520.61L691.46,519.784L692.285,516.493L693,511.24L693.763,500.548L694.016,492.267L693.974,479.523L693.666,471.651L693.155,464.913L692.477,459.779L692.087,457.935L691.243,455.867L683.811,454.357L681.587,452.797L680.806,451.768L679.928,449.347L679.978,447.155L681.504,442.052L682.479,437.53L683.058,432.62L683.621,395.66L683.232,393.427L682.38,391.226L681.077,389.09L679.337,387.05L677.187,385.136L674.655,383.378L668.523,380.012L666.429,378.542" style="fill:none;fill-rule:nonzero;stroke:rgb(0,0,255);stroke-width:1px;"/>
        <path d="M674.608,373.505L679.5,373.228L682.4,372.672L833.387,335.696" style="fill:none;fill-rule:nonzero;stroke:rgb(0,0,255);stroke-width:1px;"/>
        <path d="M827.096,330.838L824.201,330.552L822.46,329.901L821.084,329.075L819.425,327.581L821.619,326.61L818.209,327.942L816.31,328.18L814.441,328.049L811.715,327.165L810.36,326.309L808.829,324.878" style="fill:none;fill-rule:nonzero;stroke:rgb(0,0,255);stroke-width:1px;"/>
        <path d="M812.253,323.077L814.624,321.215L812.637,322.808L810.335,324.264L807.366,325.31L805.48,325.517L802.648,325.112L800.941,324.404L799.604,323.522L798.185,322.16" style="fill:none;fill-rule:nonzero;stroke:rgb(0,0,255);stroke-width:1px;"/>
        <path d="M794.945,314.856L794.098,314.931L794.413,314.477L794.608,314.886L794.069,314.842L794.42,314.985L795.737,314.61L798.056,313.045L796.923,311.474L793.649,315.287L791.368,317.272L788.494,319.058L786.642,319.75L784.754,320.077L781.902,319.913L780.179,319.322L778.824,318.554L776.785,316.695" style="fill:none;fill-rule:nonzero;stroke:rgb(0,0,255);stroke-width:1px;"/>
        <path d="M783.769,311.567L783.914,312.171L783.314,312.047L784.075,312.17L784.963,311.9L784.823,311.975L787.127,310.447L786.401,308.325L783.769,311.567L780.374,314.698L777.523,316.427L774.637,317.309L771.958,317.327L769.285,316.554L767.95,315.751L766.058,313.955" style="fill:none;fill-rule:nonzero;stroke:rgb(0,0,255);stroke-width:1px;"/>
        <path d="M762.89,306.653L763.766,306.225L762.516,306.736L761.606,306.518L762.435,306.715L762.499,306.255L762.739,306.662L762.211,306.754L761.745,306.634L761.818,306.272L759.374,308.669L756.539,310.628L754.699,311.413L752.648,311.906L749.993,311.861L748.272,311.353L746.1,310.107L744.482,308.471L741.233,309.215" style="fill:none;fill-rule:nonzero;stroke:rgb(0,0,255);stroke-width:1px;"/>
        <path d="M755.285,311.203L757.04,312.942L758.355,313.771L760.044,314.421L761.833,314.702L764.687,314.427L767.596,313.259L770.452,311.248L772.711,309.039L774.833,306.488L776.164,307.843L774.347,309.129L773.16,309.471L772.473,309.287L773.288,309.445L773.082,308.604L773.874,309.317L774.712,308.894L777.262,306.792" style="fill:none;fill-rule:nonzero;stroke:rgb(0,0,255);stroke-width:1px;"/>
        <path d="M787.507,319.435L788.817,320.721L791.039,322.083L792.781,322.645L795.667,322.741L797.569,322.382L800.558,321.053L803.474,318.902L806.417,315.804L807.137,316.979L807.709,316.583L806.173,317.419L805.267,317.663L804.865,317.551L805.084,317.564L805.022,317.384L804.929,317.628L805.72,317.541" style="fill:none;fill-rule:nonzero;stroke:rgb(0,0,255);stroke-width:1px;"/>
        <path d="M843.991,343.883L682.26,383.2L679.349,383.753L675.596,384.032" style="fill:none;fill-rule:nonzero;stroke:rgb(0,0,255);stroke-width:1px;"/>
        <path d="M681.599,362.681L681.581,360.039L680.975,357.407L679.788,354.829L678.039,352.352L675.755,350.021L672.974,347.875L669.743,345.956L648.668,335.562L642.329,331.929L639.449,329.77" style="fill:none;fill-rule:nonzero;stroke:rgb(0,0,255);stroke-width:1px;"/>
        <path d="M626.948,305.687L627.987,300.971L627.812,303.27L629.813,295.97L632.229,288.865L636.775,278.53L641.912,269.603L645.157,264.919L648.677,260.434L652.658,255.952" style="fill:none;fill-rule:nonzero;stroke:rgb(0,0,255);stroke-width:1px;"/>
        <path d="M655.678,252.894L658.825,249.97L665.488,244.495" style="fill:none;fill-rule:nonzero;stroke:rgb(0,0,255);stroke-width:1px;"/>
        <path d="M669.002,241.933L676.352,237.176L680.168,234.992L696.585,226.225L713.198,217.834L729.998,209.825L743.684,203.683L764.14,194.974L781.466,188.144L798.953,181.719L816.596,175.705" style="fill:none;fill-rule:nonzero;stroke:rgb(0,0,255);stroke-width:1px;"/>
        <path d="M840.794,171.352L845.614,169.535L852.949,167.24L856.567,166.425L860.141,166.028L863.603,166.058L866.886,166.515L869.927,167.392L872.665,168.672L875.048,170.333L876.143,171.446L876.131,170.864L879.407,226.538L879.274,224.282L876.092,226.81" style="fill:none;fill-rule:nonzero;stroke:rgb(0,0,255);stroke-width:1px;"/>
        <path d="M869.105,227.777L868.314,213.578L868.279,210.836L868.797,208.083L869.861,205.367L871.457,202.734L873.557,200.232L876.129,197.903L877.647,196.834" style="fill:none;fill-rule:nonzero;stroke:rgb(0,0,255);stroke-width:1px;"/>
        <path d="M876.776,182.119L864.426,185.596L853.095,189.376L841.824,193.709" style="fill:none;fill-rule:nonzero;stroke:rgb(0,0,255);stroke-width:1px;"/>
        <path d="M844.772,225.342L849.908,223.009L859.523,219.137L868.448,215.988" style="fill:none;fill-rule:nonzero;stroke:rgb(0,0,255);stroke-width:1px;"/>
        <path d="M845.782,228.431L850.921,226.097L860.398,222.281L868.637,219.373L868.67,219.979L859.783,223.115L850.349,226.913L845.957,228.908L846.368,230.009L845.405,227.399L843.899,222.047L843.354,219.375L842.784,214.56L839.899,151.909L840.032,149.945L840.603,147.923L841.591,145.913L842.962,143.982L844.671,142.194L846.656,140.777L848.883,139.908L851.205,139.601L853.5,139.799L856.256,140.563L859.767,142.472L861.469,144.197L862.074,145.116L876.131,170.864" style="fill:none;fill-rule:nonzero;stroke:rgb(0,0,255);stroke-width:1px;"/>
        <path d="M935.695,145.057L935.14,138.381L934.547,135.782L933.395,133.294L931.103,129.797L928.426,126.429L925.376,123.208L921.969,120.153L918.22,117.28L912.615,113.851L906.305,111.006L899.405,108.809L892.045,107.328L884.38,106.618L876.585,106.706L872.69,107.053L865.024,108.356L861.306,109.315L843.338,114.619L834.943,117.317L820.004,122.73L811.325,126.178L795.851,132.947L780.705,140.378L751.138,155.998L734.334,164.169L723.109,169.279L700.811,178.61L661.581,193.39L654.334,196.698L646.085,201.237L638.144,206.549L634.49,209.354L627.779,215.225L625.912,219.823L624.615,224.488L623.891,229.19L623.349,242.788L624.01,249.841" style="fill:none;fill-rule:nonzero;stroke:rgb(0,0,255);stroke-width:1px;"/>
        <path d="M623.375,241.957L623.613,241.121L624.04,242.095L624.245,244.012L624.321,243.035L622.467,294.509L622.505,294.193L621.033,308.984" style="fill:none;fill-rule:nonzero;stroke:rgb(0,0,255);stroke-width:1px;"/>
        <path d="M622.974,279.484L612.906,279.484" style="fill:none;fill-rule:nonzero;stroke:rgb(0,0,255);stroke-width:1px;"/>
        <path d="M612.384,265.074L612.936,262.473L614.344,260.795L615.574,260.263L616.877,260.156L623.643,260.171" style="fill:none;fill-rule:nonzero;stroke:rgb(0,0,255);stroke-width:1px;"/>
        <path d="M672.896,299.539L669.983,300.873L667.986,302.177L666.246,303.88L665.072,305.757L664.505,307.739L664.517,311.921L665.195,313.896L666.466,315.76L668.282,317.447L670.578,318.899L674.259,320.797L676.771,321.635L679.511,322.128L682.349,322.253L685.157,322.006L687.803,321.396L690.167,320.453L694.308,318.29L696.321,316.727L697.813,314.953L698.727,313.031L699.029,311.031L699.046,308.864L698.723,306.854L697.784,304.91L696.26,303.101L694.207,301.496L692.906,300.8" style="fill:none;fill-rule:nonzero;stroke:rgb(0,0,255);stroke-width:1px;"/>
        <path d="M688.82,299.124L685.684,298.446L682.402,298.144L679.096,298.23" style="fill:none;fill-rule:nonzero;stroke:rgb(0,0,255);stroke-width:1px;"/>
        <path d="M664.461,309.907L665.029,307.926L666.204,306.05L667.945,304.349L670.19,302.885L672.859,301.712L675.853,300.875L679.064,300.404L682.373,300.318L685.657,300.62L688.796,301.298L691.674,302.327L694.187,303.668L696.242,305.273L697.766,307.079L698.705,309.023L699.029,311.031" style="fill:none;fill-rule:nonzero;stroke:rgb(0,0,255);stroke-width:1px;"/>
        <path d="M700.493,321.901L708.201,320.536L707.61,318.66L708.234,320.677L708.486,322.965L708.306,366.328" style="fill:none;fill-rule:nonzero;stroke:rgb(0,0,255);stroke-width:1px;"/>
        <path d="M681.833,345.711L684.071,346.401L687.2,346.55L690.08,345.829L691.221,345.184L692.075,344.395L692.593,343.504L700.598,321.616L701.121,320.706L701.981,319.897L703.127,319.232L738.32,309.881L745.724,308.187L753.109,306.991L760.436,306.305L767.662,306.132L774.747,306.477L781.651,307.342L788.332,308.725L794.752,310.621L800.871,313.024L806.653,315.923L812.06,319.304L897.305,385.045L896.314,384.28L904.445,390.945" style="fill:none;fill-rule:nonzero;stroke:rgb(0,0,255);stroke-width:1px;"/>
        <path d="M907.688,384.412L908.078,381.457L909.105,378.512L910.756,375.626L913.008,372.844L915.828,370.212L919.175,367.774L921.233,366.587" style="fill:none;fill-rule:nonzero;stroke:rgb(0,0,255);stroke-width:1px;"/>
        <path d="M915.665,367.863L919.478,365.151L918.809,363.821L918.792,362.459L919.371,361.234L920.993,359.864L923.175,359.013L934.947,356.192L944.265,354.788L950.27,354.378L955.274,354.335L964.299,354.948L969.04,355.657L974.173,356.764L980.579,358.72L985.145,360.63L989.283,362.825L992.936,365.285L996.064,367.982L998.633,370.88L1000.62,373.945L1007.9,387.527L1008.45,389.159L1008.39,390.858L1007.73,392.551L1006.5,394.168L1004.75,395.641L1003.32,396.428L1001.62,396.999L999.779,397.315L997.909,397.354L996.138,397.114L990.101,395.763L987.525,394.683L986.687,393.892L986.218,392.987L985.865,389.221L985.265,390.173L982.01,393.782L981.508,391.148L980.344,388.613L978.54,386.231L976.13,384.05L973.16,382.118L969.691,380.477L965.795,379.163L961.552,378.202L957.565,377.684L952.388,377.42L947.662,377.617L942.971,378.202L938.415,379.163L934.091,380.477L930.088,382.118L926.49,384.05L923.369,386.231L920.789,388.613L918.801,391.148L917.441,393.782L916.736,396.461L916.694,399.129L916.678,398.896L915.017,397.782L912.386,395.437L910.307,392.888L908.815,390.173L907.937,387.333L907.533,382.075L907.923,379.117L908.948,376.17L910.598,373.281L912.848,370.497" style="fill:none;fill-rule:nonzero;stroke:rgb(0,0,255);stroke-width:1px;"/>
        <path d="M918.981,381.271L918.181,382.297L916.828,384.939L916.125,387.626L916.084,390.303L916.694,399.129L917.313,401.734L918.578,404.222L920.458,406.545L922.915,408.656L925.897,410.517L936.547,415.808L939.056,417.014L941.963,417.908L945.164,418.457L948.545,418.642L951.988,418.457L955.37,417.908L958.571,417.014L961.478,415.808L963.986,414.328L974.84,406.545L977.477,404.222L979.55,401.734L981.017,399.129L981.844,396.461L982.01,393.782L981.196,384.939L980.693,382.297" style="fill:none;fill-rule:nonzero;stroke:rgb(0,0,255);stroke-width:1px;"/>
        <path d="M981.814,391.658L982.937,389L983.448,386.249L983.309,383.515L982.52,380.847L981.091,378.296L979.046,375.911L976.422,373.74L973.266,371.823L969.637,370.2L965.178,368.81L961.24,367.957L956.634,367.381L951.874,367.188L947.05,367.381L942.259,367.957L937.592,368.903L933.14,370.2L928.987,371.823L925.213,373.74L921.888,375.911L919.075,378.296L916.514,381.346L915.173,383.515L914.152,386.249L913.777,389L914.048,391.713L914.959,394.341L916.539,396.89L916.355,398.68L911.87,399.995L904.88,401.474L897.797,402.413L890.664,402.808L883.521,402.656L876.411,401.957L869.375,400.717L862.456,398.942L855.692,396.641L849.125,393.831L842.792,390.527L836.732,386.747L831.578,382.956" style="fill:none;fill-rule:nonzero;stroke:rgb(0,0,255);stroke-width:1px;"/>
        <path d="M839.756,381.59L839.276,381.308L838.733,380.541L838.151,379.32L864.889,374.841L876.298,368.826" style="fill:none;fill-rule:nonzero;stroke:rgb(0,0,255);stroke-width:1px;"/>
        <path d="M840.699,378.893L840.463,380.687L840.157,381.38L839.756,381.59L710.186,403.253L709.556,403.001L708.872,402.271L708.161,401.092L683.499,405.223" style="fill:none;fill-rule:nonzero;stroke:rgb(0,0,255);stroke-width:1px;"/>
        <path d="M678.773,416.708L675.437,413.17L669.157,408.596L662.593,402.455L660.635,400.115L659.183,397.653L658.259,395.105L657.882,392.51L658.06,389.905L658.793,387.332L660.073,384.83L661.882,382.438L664.197,380.194L666.983,378.133L673.314,374.486L676,372.449L678.206,370.212L679.895,367.811L681.033,365.286L681.599,362.681L681.946,332.842L681.332,330.179L680.141,327.573L678.39,325.071L676.107,322.717L673.331,320.553L670.108,318.62L666.496,316.952L662.557,315.582L655.003,313.544L647.213,311.854L639.237,310.525L631.127,309.566L622.935,308.984L611.632,308.866L610.328,308.506L608.142,307.152L606.725,305.127L606.371,303.94L606.859,265.527L606.935,236.299L606.698,206.832L606.095,171.626L606.566,166.367L606.964,162.94L607.811,159.231L608.608,156.27L610.697,150.57L612.592,149.075L614.661,147.979L616.85,147.308L619.097,147.083L693.26,147.084" style="fill:none;fill-rule:nonzero;stroke:rgb(0,0,255);stroke-width:1px;"/>
        <path d="M701.477,154.883L704.466,151.238L707.885,146.173L710.819,140.813L713.385,134.761" style="fill:none;fill-rule:nonzero;stroke:rgb(0,0,255);stroke-width:1px;"/>
        <path d="M734.612,146.836L734.48,149.151L733.126,150.635L699.539,179.105" style="fill:none;fill-rule:nonzero;stroke:rgb(0,0,255);stroke-width:1px;"/>
        <path d="M703.838,177.397L739.134,147.416L746.165,140.621L748.058,138.053L748.357,135.206L733.665,85.268L719.233,89.513" style="fill:none;fill-rule:nonzero;stroke:rgb(0,0,255);stroke-width:1px;"/>
        <path d="M716.399,88.782L717.011,87.106L717.659,86.359L719.403,85.312L730.352,83.579L732.494,82.68L734.15,80.918L734.678,79.792L734.984,77.306L734.74,76.058L734.036,74.304L733.203,73.178L732.125,72.245L730.85,71.548L710.32,62.974" style="fill:none;fill-rule:nonzero;stroke:rgb(0,0,255);stroke-width:1px;"/>
        <path d="M713.953,73.82L715.172,80.196L715.787,87.185L715.793,93.152L715.193,99.616L713.988,105.995L712.191,112.234L709.817,118.277L706.888,124.07L697.982,138.114L693.26,147.084L690.515,155.237L688.203,163.393L686.309,171.52L684.819,179.585L684.081,184.938" style="fill:none;fill-rule:nonzero;stroke:rgb(0,0,255);stroke-width:1px;"/>
        <path d="M688.557,183.293L689.999,178.737L692.43,172.355L695.225,166.125L698.377,160.069L701.88,154.208L709.137,143.384L712.059,137.91L714.467,132.191L716.34,126.276L717.663,120.215L718.424,114.056L718.617,107.855L718.24,101.662L715.172,80.196L713.953,73.82L712.142,67.585L709.756,61.547L706.814,55.76L703.343,50.273L699.372,45.137L694.938,40.394L690.08,36.089L684.838,32.258L679.262,28.934L673.397,26.147L667.298,23.923L661.017,22.28L654.61,21.232L648.133,20.79L641.643,20.956L635.197,21.73L628.852,23.105L622.664,25.067L616.687,27.602L610.973,30.685L605.574,34.29L600.536,38.385L595.904,42.935L582.113,58.668L578.736,63.332L577.283,65.821L574.895,71.015L573.27,76.298L572.394,81.661L572.236,84.372L572.495,89.787L573.545,95.096L574.376,97.67L580.754,112.559L586.952,129.685L589.009,134.016L591.48,138.129L594.398,141.93L597.782,145.26L601.671,147.95L603.803,148.991L608.343,150.32L610.697,150.57" style="fill:none;fill-rule:nonzero;stroke:rgb(0,0,255);stroke-width:1px;"/>
        <path d="M627.608,93.53L627.011,90.245L627.011,86.771L627.632,83.351L628.853,80.098L630.635,77.114L632.922,74.498L635.639,72.331L638.699,70.684L642.004,69.61L645.448,69.143L648.92,69.299L652.307,70.073L655.503,71.438L658.403,73.353L660.915,75.755L662.958,78.566L664.466,81.697L665.35,84.899L664.406,81.352L662.897,78.218L660.852,75.404L658.338,73L655.435,71.084L652.235,69.716L648.844,68.942L645.368,68.786L641.921,69.253L638.612,70.328L635.549,71.977L632.829,74.146L630.54,76.766L628.756,79.752L627.533,83.009L626.912,86.432L626.912,89.911L627.533,93.334L628.756,96.59L630.54,99.577L632.829,102.197L635.549,104.366L638.612,106.015L641.921,107.09L645.368,107.557L648.844,107.4L652.235,106.626L655.435,105.259L658.338,103.343L660.852,100.938L662.897,98.124L664.406,94.99L665.332,91.636L665.458,90.239L665.644,88.172L665.332,84.706" style="fill:none;fill-rule:nonzero;stroke:rgb(0,0,255);stroke-width:1px;"/>
        <path d="M663.04,90.006L655.997,77.808L638.651,77.808" style="fill:none;fill-rule:nonzero;stroke:rgb(0,0,255);stroke-width:1px;"/>
        <path d="M637.524,73.277L655.111,73.277L655.997,77.808" style="fill:none;fill-rule:nonzero;stroke:rgb(0,0,255);stroke-width:1px;"/>
        <path d="M655.111,73.277L663.904,88.508L655.111,103.739L637.524,103.739L635.96,101.029L628.731,88.508L637.524,73.277L638.651,77.808L630.602,91.748" style="fill:none;fill-rule:nonzero;stroke:rgb(0,0,255);stroke-width:1px;"/>
        <path d="M600.155,68.431L598.946,70.993L597.099,76.37L595.856,81.919L595.23,87.571L595.23,93.257L595.856,98.908L597.099,104.457L598.878,109.64L599.948,109.511L602.475,114.503L605.535,119.187L609.092,123.506L613.103,127.408L617.518,130.845L622.286,133.775L627.346,136.163L632.639,137.98L638.099,139.204L643.66,139.819L649.256,139.819L654.817,139.204L660.277,137.98L665.569,136.163L670.629,133.775L675.396,130.845L679.812,127.408L683.822,123.506L687.38,119.187L690.44,114.503L692.967,109.511L694.929,104.27L696.302,98.846L697.071,93.303L697.157,90.209L697.225,87.71L696.763,82.133L695.69,76.642L694.02,71.302L691.772,66.178L688.975,61.331L685.661,56.823L681.871,52.706L677.651,49.031L673.053,45.843L668.132,43.18L662.948,41.075L657.564,39.552L652.045,38.631L646.457,38.323L640.871,38.631L638.873,38.964L635.351,39.552L629.967,41.075L624.783,43.18L619.862,45.843L615.264,49.031L611.044,52.706L607.254,56.823L603.941,61.331L601.143,66.178L598.63,72.15L597.225,76.642L596.152,82.133L595.69,87.71L595.844,93.303L596.613,98.846L597.986,104.27L600.444,110.73L602.96,115.703L606.007,120.368L609.551,124.669L613.544,128.555L617.942,131.977L622.689,134.895L627.728,137.273L632.999,139.082L638.437,140.301L643.975,140.914L649.547,140.914L655.086,140.301L660.524,139.082L665.794,137.273L670.833,134.895L675.581,131.977L679.978,128.555L683.972,124.669L687.515,120.368L690.563,115.703L693.078,110.73L695.033,105.511L696.401,100.11L697.165,94.59L697.225,87.71" style="fill:none;fill-rule:nonzero;stroke:rgb(0,0,255);stroke-width:1px;"/>
        <path d="M698.048,84.683L697.121,79.127L695.574,73.656L693.434,68.388L690.728,63.387L687.488,58.715L683.754,54.427L678.635,49.888" style="fill:none;fill-rule:nonzero;stroke:rgb(0,0,255);stroke-width:1px;"/>
        <path d="M636.061,39.434L642.392,38.477L648.084,38.319L653.759,38.789L659.347,39.881L664.781,41.581L669.996,43.868L674.927,46.715L679.515,50.087L680.888,51.35L683.704,53.944L687.443,58.238L690.688,62.917L693.398,67.924L695.54,73.199L697.09,78.679L698.027,84.295L698.341,89.98L698.027,95.666L697.09,101.281L695.54,106.761L693.398,112.036L690.688,117.043L687.443,121.723L686.069,123.301L683.704,126.016L679.515,129.873L674.927,133.245L669.996,136.092L664.781,138.38L659.347,140.079L653.759,141.171L648.084,141.641L642.392,141.484L636.752,140.702L631.233,139.304L625.901,137.308L620.82,134.737L616.053,131.623L611.658,128.003L607.688,123.921L604.19,119.428L601.209,114.578L598.878,109.64L596.93,104.042L595.685,98.486L595.058,92.827L595.058,87.133L595.685,81.474L596.93,75.918L598.778,70.532L601.209,65.383L604.19,60.532L607.688,56.039L611.658,51.958L616.053,48.338L620.82,45.224L625.901,42.652L631.233,40.656L633.278,40.138" style="fill:none;fill-rule:nonzero;stroke:rgb(0,0,255);stroke-width:1px;"/>
        <path d="M577.283,65.821L571.408,77.997L568.298,85.104L562.436,100.167L557.347,115.774L554.845,124.67L552.706,133.315L549.789,148.002" style="fill:none;fill-rule:nonzero;stroke:rgb(0,0,255);stroke-width:1px;"/>
        <path d="M546.581,253.241L545.735,253.896L544.726,255.232L543.831,257.058L542.429,261.094L541.579,265.28" style="fill:none;fill-rule:nonzero;stroke:rgb(0,0,255);stroke-width:1px;"/>
        <path d="M541.975,269.611L541.967,268.465L541.717,268.022L541.969,268.044L541.307,267.986L541.579,265.28L541.307,267.986L541.982,267.917L541.982,270.463L541.307,271.269L541.703,274.847L542.704,279.128L544.57,283.87L545.279,284.877" style="fill:none;fill-rule:nonzero;stroke:rgb(0,0,255);stroke-width:1px;"/>
        <path d="M544.14,326.64L542.295,327.343L540.936,328.391L539.9,329.758L538.974,331.72L537.534,335.866L536.795,339.369L536.384,342.901L537.061,343.079L537.053,344.822L536.907,343.05L537.061,345.695L536.384,346.274L537.234,352.107L537.824,354.284L539.741,359.164L540.936,360.835L542.572,362.081L544.655,362.8" style="fill:none;fill-rule:nonzero;stroke:rgb(0,0,255);stroke-width:1px;"/>
        <path d="M506.907,444.689L524.195,444.719L536.82,448.687L551.795,454.088L560.746,458.204L563.401,459.795L565.688,461.547" style="fill:none;fill-rule:nonzero;stroke:rgb(0,0,255);stroke-width:1px;"/>
        <path d="M564.276,470.399L561.455,471.901L558.314,473.203L551.527,475.393L544.735,477.144L531.365,479.927L517.398,482.249L499.799,482.188" style="fill:none;fill-rule:nonzero;stroke:rgb(0,0,255);stroke-width:1px;"/>
        <path d="M497.791,470.296L542.855,470.426L544.389,461.393L499.518,461.282" style="fill:none;fill-rule:nonzero;stroke:rgb(0,0,255);stroke-width:1px;"/>
        <path d="M500.733,467.275L499.518,461.282L497.791,470.296L499.964,470.302L500.733,467.275L543.417,467.393" style="fill:none;fill-rule:nonzero;stroke:rgb(0,0,255);stroke-width:1px;"/>
        <path d="M543.217,509.039L500.733,508.844L500.186,507.073L500.733,508.844L499.518,515.35L497.791,507.063L542.855,507.266L544.389,515.568L499.518,515.35" style="fill:none;fill-rule:nonzero;stroke:rgb(0,0,255);stroke-width:1px;"/>
        <path d="M490.004,513.34L484.612,513.313L482.063,510.716L482.063,510.304L481.34,509.648L480.651,508.44L480.013,506.707L479.442,504.489L478.56,498.832L478.097,492.053L480.044,492.17L480.044,484.959L486.312,484.858L478.01,484.846L480.044,484.959" style="fill:none;fill-rule:nonzero;stroke:rgb(0,0,255);stroke-width:1px;"/>
        <path d="M486.3,492.195L478.01,492.047L478.01,484.846L478.56,477.841L479.442,471.83L480.651,467.395L481.34,465.911L482.063,464.966L482.063,464.554L484.612,461.975L486.065,461.774L490.364,461.785L490.245,461.99L484.612,461.975" style="fill:none;fill-rule:nonzero;stroke:rgb(0,0,255);stroke-width:1px;"/>
        <path d="M482.063,464.966L488.917,464.984" style="fill:none;fill-rule:nonzero;stroke:rgb(0,0,255);stroke-width:1px;"/>
        <path d="M504.365,447.305L499.679,452.485L495.687,457.659L494.051,460.309L492.751,463.046L491.705,467.337L491.95,471.116L492.652,473.321L493.66,475.344L496.385,478.98L499.799,482.188L499.799,496.593" style="fill:none;fill-rule:nonzero;stroke:rgb(0,0,255);stroke-width:1px;"/>
        <path d="M488.635,510.335L482.063,510.304" style="fill:none;fill-rule:nonzero;stroke:rgb(0,0,255);stroke-width:1px;"/>
        <path d="M501.953,526.054L497.577,521.149L494.051,516.214L492.265,512.357L491.705,509.713L491.95,506.279L492.652,504.302L493.66,502.505L496.385,499.328L499.799,496.593L517.398,496.664L531.365,498.75L544.735,501.275L551.527,502.871L558.314,504.873L561.455,506.066L564.276,507.443" style="fill:none;fill-rule:nonzero;stroke:rgb(0,0,255);stroke-width:1px;"/>
        <path d="M565.688,515.578L563.401,517.192L560.746,518.657L551.795,522.457L536.82,527.461L524.195,531.152L506.907,531.056" style="fill:none;fill-rule:nonzero;stroke:rgb(0,0,255);stroke-width:1px;"/>
        <path d="M591.668,517.106L580.862,517.053L525.062,531.368L507.815,531.271L506.907,531.056L490.244,513.704L489.498,512.567L488.156,508.701L487.111,502.996L486.457,495.938L486.251,488.141L486.515,480.293L487.222,473.083L488.31,467.139L489.68,462.968L490.435,461.661L506.907,444.689L507.815,444.086L525.931,444.024L581.513,458.702L592.021,458.727" style="fill:none;fill-rule:nonzero;stroke:rgb(0,0,255);stroke-width:1px;"/>
        <path d="M619.243,446.693L623.063,449.723" style="fill:none;fill-rule:nonzero;stroke:rgb(0,0,255);stroke-width:1px;"/>
        <path d="M623.063,449.723L633.659,459.419L632.8,458.635L633.642,459.434L630.218,458.351L633.642,459.434" style="fill:none;fill-rule:nonzero;stroke:rgb(0,0,255);stroke-width:1px;"/>
        <path d="M690.803,455.687L690.36,456.088L689.924,457.067L689.501,458.61L688.394,466.327L687.857,473.575L687.454,486.3L687.59,499.356L688.242,510.577L689.298,518.135L689.711,519.616L690.141,520.529L690.581,520.861" style="fill:none;fill-rule:nonzero;stroke:rgb(0,0,255);stroke-width:1px;"/>
        <path d="M690.645,504.53L690.96,504.377L691.268,503.642L691.821,500.565L692.429,489.883L692.399,483.788L691.939,476.067L691.416,472.928L691.115,472.158L690.803,471.967L690.185,473.339L689.654,476.866L689.135,488.146L689.543,499.487L690.041,503.082L690.645,504.53Z" style="fill:none;fill-rule:nonzero;stroke:rgb(0,0,255);stroke-width:1px;"/>
        <path d="M677.827,417.339L673.577,414.035L671.066,412.586" style="fill:none;fill-rule:nonzero;stroke:rgb(0,0,255);stroke-width:1px;"/>
        <path d="M659.579,361.128L659.216,359.561L658.271,358.07L656.794,356.73L654.855,355.608L652.553,354.763L650.003,354.239L647.336,354.061L644.687,354.239L642.19,354.763L639.973,355.608L638.146,356.73L636.803,358.07L636.007,359.561L635.801,361.128L636.19,362.692L637.153,364.173L638.642,365.5L640.58,366.606L642.87,367.437L645.398,367.952L648.04,368.127L650.665,367.952L653.142,367.437L655.349,366.606L657.176,365.5L658.532,364.173L659.347,362.692L659.579,361.128Z" style="fill:none;fill-rule:nonzero;stroke:rgb(0,0,255);stroke-width:1px;"/>
        <path d="M657.335,358.405L657.961,357.788L657.343,357.228L656.57,358.466L655.177,359.645L653.326,360.572L655.512,359.513L653.326,360.572L651.133,361.19L648.734,361.462L646.28,361.371L643.922,360.923L641.806,360.143L640.066,359.083L638.81,357.805L638.252,356.665L637.593,357.281L638.846,358.405L641.806,360.143" style="fill:none;fill-rule:nonzero;stroke:rgb(0,0,255);stroke-width:1px;"/>
        <path d="M674.259,320.797L672.088,319.652L670.361,318.251L669.158,316.661L668.537,314.953L668.531,313.208L669.139,311.506L670.337,309.929L672.069,308.549L674.256,307.435L676.794,306.639L679.564,306.199L682.433,306.136L685.268,306.454L687.931,307.136L690.297,308.152L692.255,309.45L693.714,310.97L694.607,312.64L694.892,314.381L694.56,316.109L693.627,317.746L692.14,319.217L690.167,320.453" style="fill:none;fill-rule:nonzero;stroke:rgb(0,0,255);stroke-width:1px;"/>
        <path d="M811.03,408.918L805.629,404.428L800.487,399.644L795.618,394.582L791.363,389.673L797.32,396.918L801.529,401.117L810.519,408.895L811.03,408.918L814.121,407.012L817.46,405.586L820.975,404.672L824.586,404.29L828.214,404.45L831.778,405.147L835.199,406.366L838.4,408.08L841.312,410.25L843.868,412.829L846.013,415.76L847.698,418.976L848.886,422.408L849.551,425.977L849.678,429.606L856.959,431.792L863.245,433.237L870.159,434.482L877.132,435.34L878.701,432.065L880.74,429.061L883.202,426.392L886.035,424.118L889.174,422.291L892.55,420.951L896.086,420.127L899.708,419.839L903.331,420.091L906.877,420.879L910.266,422.185L913.423,423.98L916.279,426.224L918.77,428.868L920.839,431.853L927.588,429.899L934.218,427.573L940.708,424.883L947.039,421.836L946.627,418.537L963.936,413.11L963.986,414.328L966.005,412.631L967.46,410.772L968.298,408.821L968.485,406.846L968.011,404.919L966.892,403.111L965.165,401.488L962.892,400.11L960.155,399.029L957.054,398.284L953.702,397.904L950.224,397.904L946.747,398.284L943.4,399.029L940.307,400.11L937.58,401.488L935.318,403.111L933.602,404.919L932.494,406.846L932.029,408.821L932.224,410.772L933.067,412.631L934.526,414.328L936.547,415.808" style="fill:none;fill-rule:nonzero;stroke:rgb(0,0,255);stroke-width:1px;"/>
        <path d="M947.259,400.105L948.674,417.861L934.978,413.11L936.46,403.51L951.838,398.66L965.618,403.51L963.936,413.11L963.041,402.603" style="fill:none;fill-rule:nonzero;stroke:rgb(0,0,255);stroke-width:1px;"/>
        <path d="M984.242,395.771L988.403,399.26L993.585,404.299L998.381,409.706L1002.76,415.45L1006.72,421.503L1010.21,427.829L1013.22,434.396L1017.28,444.886L1020.82,455.562L1023.83,466.4L1026.31,477.372L1027.6,484.76L1029.63,499.614L1030.46,510.83L1030.75,522.074L1030.48,533.318L1005.36,720.924L1005.05,724.946L1005.21,729.005L1005.84,733.053L1006.92,737.043L1008.44,740.927L1010.39,744.659L1012.74,748.193L1015.46,751.49" style="fill:none;fill-rule:nonzero;stroke:rgb(0,0,255);stroke-width:1px;"/>
        <path d="M1018.53,754.508L1047.9,535.226L1048.22,524.275L1048.05,513.32L1047.39,502.383L1046.25,491.486L1043.96,477.259L1042.52,469.899L1039.93,459.251L1036.88,448.729L1033.36,438.353L1029.38,428.143L1026.06,420.88L1022.25,413.864L1017.95,407.129L1013.2,400.71L1006.96,393.563" style="fill:none;fill-rule:nonzero;stroke:rgb(0,0,255);stroke-width:1px;"/>
        <path d="M1008.45,389.159L1004.79,353.207L1004.26,351.626L997.034,337.878L994.76,334.37L991.745,331.087L988.032,328.078L985.687,326.552L981.268,324.184L976.061,322.063L970.385,320.362L961.111,318.65L970.098,336.013" style="fill:none;fill-rule:nonzero;stroke:rgb(0,0,255);stroke-width:1px;"/>
        <path d="M961.191,318.658L962.448,317.345L963.782,316.984L964.507,319.142L964.134,317.373L958.594,306.495" style="fill:none;fill-rule:nonzero;stroke:rgb(0,0,255);stroke-width:1px;"/>
        <path d="M960.319,309.692L956.502,302.616L948.207,288.912L947.539,287.27L945.267,260.228" style="fill:none;fill-rule:nonzero;stroke:rgb(0,0,255);stroke-width:1px;"/>
        <path d="M919.344,264.362L913.613,262.104" style="fill:none;fill-rule:nonzero;stroke:rgb(0,0,255);stroke-width:1px;"/>
        <path d="M846.582,268.406L846.311,266.43L846.545,269.634L846.582,268.406Z" style="fill:none;fill-rule:nonzero;stroke:rgb(0,0,255);stroke-width:1px;"/>
        <path d="M938.045,370.207L942.27,369.311L946.946,368.723" style="fill:none;fill-rule:nonzero;stroke:rgb(0,0,255);stroke-width:1px;"/>
        <path d="M956.306,368.723L960.793,369.311L964.121,370.068" style="fill:none;fill-rule:nonzero;stroke:rgb(0,0,255);stroke-width:1px;"/>
        <path d="M1010.93,369.164L1016.18,368.504L1019.01,367.603L1021.62,366.184L1023.91,364.297L1025.8,362.011L1027.23,359.408L1028.13,356.583L1028.49,353.637L1028.28,350.678L1027.52,347.81L1026.22,345.14L1024.45,342.763L1022.25,340.765L1019.72,339.218L1016.94,338.179L1014.01,337.684L1012.81,337.711L1011.5,339.905L1011.68,339.604L1013.13,339.455L1015.9,339.732L1018.56,340.562L1020.99,341.908L1023.11,343.717L1024.81,345.914L1026.04,348.41L1026.74,351.102L1026.89,353.88L1026.47,356.63L1025.51,359.24L1024.04,361.602L1022.12,363.62L1019.84,365.212L1017.28,366.313L1014.56,366.876L1011.78,366.88L1009.05,366.323L1005.98,364.874L1006.23,367.291L1007.41,367.867L1010.28,368.638L1013.24,368.853L1016.18,368.504" style="fill:none;fill-rule:nonzero;stroke:rgb(0,0,255);stroke-width:1px;"/>
        <path d="M1009.93,381.677L1007.69,381.714L1010.19,381.656L1013.88,381.065L1017.47,379.979L1020.87,378.42L1024.02,376.416L1026.88,374.003L1029.39,371.225L1031.49,368.135L1033.16,364.789L1034.36,361.246L1047.43,311.944" style="fill:none;fill-rule:nonzero;stroke:rgb(0,0,255);stroke-width:1px;"/>
        <path d="M1057.58,317.362L1060.91,321.941L1062.92,325.13L1064.47,328.562L1065.53,332.173L1066.1,335.896L1066.15,339.661L1065.69,343.398L1064.72,347.038L1063.27,350.512L1061.36,353.756L1060.19,355.234" style="fill:none;fill-rule:nonzero;stroke:rgb(0,0,255);stroke-width:1px;"/>
        <path d="M1042.4,330.929L1043.17,342.659L1044.5,355.169L1046.31,367.619L1048.6,379.989L1052.68,397.169L1054.62,404.415L1058.34,416.434L1062.53,428.298L1073.6,456.771L1080.54,473.347L1087.97,489.707L1095.91,505.832L1104.33,521.71L1116.42,542.558L1122.59,552.662L1132.42,567.709L1142.71,582.449L1153.44,596.872L1164.6,610.962L1176.19,624.707L1188.19,638.093L1195.42,645.68L1200.59,651.11L1213.38,663.744L1226.56,675.984" style="fill:none;fill-rule:nonzero;stroke:rgb(0,0,255);stroke-width:1px;"/>
        <path d="M1194.28,683.377L1191.09,680.935L1173.64,692.591L1155.91,703.829L1137.92,714.643L1119.69,725.026L1106.48,732.137L1082.5,744.479L1079.69,745.588L1076.73,746.221L1073.71,746.359L1070.7,746L1067.8,745.151L1065.07,743.838L1048.87,734.317L1046.37,732.545L1044.19,730.379L1042.4,727.882L1041.06,725.122L1040.19,722.176L1039.83,719.128L1039.98,716.062L1053.29,616.688L1053.9,614.046L1054.99,611.565L1056.53,609.332L1058.46,607.426L1060.71,605.913L1063.21,604.847L1065.86,604.266L1068.57,604.19L1071.25,604.622L1073.8,605.547L1076.13,606.931L1078.16,608.727L1082.31,614.287L1085.2,617.368L1088.45,620.063L1092.01,622.332L1095.83,624.138L1099.84,625.454L1103.99,626.257L1108.2,626.537L1112.42,626.289L1116.57,625.517L1120.6,624.231L1124.43,622.454L1130.63,618.641L1133.49,617.528L1136.49,616.906L1139.55,616.79L1142.59,617.186L1144.9,617.891L1148.26,619.449L1150.73,621.254L1152.87,623.447L1162.17,634.437L1171.72,645.206L1181.52,655.745L1191.58,666.049L1189.88,666.571L1186.99,666.946L1183.5,667.944L1180.19,669.451L1177.14,671.431L1174.42,673.843L1172.1,676.632L1170.21,679.736L1168.8,683.085L1167.91,686.607L1167.55,690.222L1167.73,693.725" style="fill:none;fill-rule:nonzero;stroke:rgb(0,0,255);stroke-width:1px;"/>
        <path d="M1188.96,679.675L1191.09,680.935L1192.02,678.044L1192.54,675.051L1192.64,672.015L1192.32,668.995L1191.58,666.049L1189.45,664.856" style="fill:none;fill-rule:nonzero;stroke:rgb(0,0,255);stroke-width:1px;"/>
        <path d="M1174.22,648.986L1171.08,652.697L1166.06,657.783L1160.67,662.471L1154.93,666.731L1148.88,670.54L1142.56,673.876L1136,676.718L1129.24,679.049L1122.33,680.857L1115.29,682.13L1108.18,682.861L1101.04,683.046L1093.9,682.684L1086.81,681.776L1079.81,680.329L1072.94,678.35L1066.24,675.852L1059.75,672.848L1053.51,669.358L1046.84,664.838" style="fill:none;fill-rule:nonzero;stroke:rgb(0,0,255);stroke-width:1px;"/>
        <path d="M1043.56,689.348L1044.96,689.093L1048.59,688.98L1052.2,689.408L1055.7,690.368L1059.03,691.837L1062.1,693.783L1064.84,696.164L1067.2,698.927L1069.12,702.008L1070.57,705.342L1071.5,708.853L1071.9,712.463L1078.77,713.957L1085.71,715.067L1092.71,715.79L1099.73,716.124L1101.05,712.739L1102.85,709.589L1105.11,706.742L1107.76,704.263L1110.76,702.205L1114.03,700.615L1117.49,699.527L1121.08,698.968L1124.72,698.948L1128.32,699.467L1131.8,700.516L1135.08,702.07L1138.1,704.095L1140.78,706.545L1142.88,709.121" style="fill:none;fill-rule:nonzero;stroke:rgb(0,0,255);stroke-width:1px;"/>
        <path d="M1074.39,713.003L1071.68,713.735L1067.87,714.236L1064.03,714.231L1060.22,713.719L1056.52,712.708L1052.98,711.217L1049.66,709.272L1046.64,706.907" style="fill:none;fill-rule:nonzero;stroke:rgb(0,0,255);stroke-width:1px;"/>
        <path d="M1041.94,701.468L1043.95,704.162L1046.64,706.907L1045.08,705.312L1047.28,707.036L1050.57,708.967L1054.09,710.447L1057.76,711.45L1061.54,711.959L1065.35,711.964L1069.13,711.466L1071.71,710.77" style="fill:none;fill-rule:nonzero;stroke:rgb(0,0,255);stroke-width:1px;"/>
        <path d="M1044.09,730.244L1047.4,732.813L1063.52,742.291L1066.24,743.598L1069.13,744.443L1072.12,744.8L1075.12,744.663L1078.07,744.033L1080.87,742.928L1099.49,733.467L1117.89,723.566L1136.04,713.229L1156.64,700.758L1171.59,691.278L1188.96,679.675L1189.89,676.796L1190.41,673.818L1190.51,670.795L1190.18,667.789L1189.45,664.856L1179.44,654.599L1169.68,644.108L1160.17,633.389L1150.57,622.034L1148.43,620.136L1145.59,618.167" style="fill:none;fill-rule:nonzero;stroke:rgb(0,0,255);stroke-width:1px;"/>
        <path d="M1149.55,621.131L1147.68,623.862L1144.18,627.99L1140.3,631.751L1136.06,635.105L1131.5,638.021L1126.68,640.468L1121.64,642.425L1116.43,643.868L1113.42,644.414L1108.03,645.068L1102.6,645.183L1100.29,645.014L1097.19,644.756L1091.85,643.793L1086.62,642.303L1081.58,640.301L1076.75,637.806L1073.91,636.032L1069.52,632.852L1065.47,629.251L1061.8,625.265L1058.54,620.933L1055.73,616.298L1054.26,613.226" style="fill:none;fill-rule:nonzero;stroke:rgb(0,0,255);stroke-width:1px;"/>
        <path d="M1079.13,605.273L1076.57,603.557L1073.74,602.318L1070.74,601.594L1067.65,601.409L1064.59,601.765L1061.63,602.653L1058.88,604.045L1056.41,605.9L1054.3,608.158L1052.63,610.749L1051.43,613.594L1050.76,616.605L1037.43,716.131L1037.24,719.264L1037.51,722.392L1038.24,725.446L1039.4,728.362L1040.98,731.076L1042.94,733.532L1045.23,735.675L1047.82,737.461L1064.04,746.996L1066.75,748.344L1069.63,749.296L1072.62,749.833L1075.64,749.944L1078.66,749.627L1081.6,748.889L1084.4,747.745L1103.34,738.123L1122.04,728.051L1146.92,713.666L1158.69,706.579L1176.62,695.191L1194.28,683.377L1195.38,680.4L1196.1,677.306L1196.42,674.146L1196.33,670.972L1195.84,667.834L1194.96,664.784L1184.81,654.4L1174.91,643.776L1165.27,632.918L1155.89,621.833L1153.63,619.481L1151.04,617.5L1148.17,615.935L1145.11,614.822L1141.9,614.186L1138.64,614.044L1135.4,614.398L1132.25,615.239" style="fill:none;fill-rule:nonzero;stroke:rgb(0,0,255);stroke-width:1px;"/>
        <path d="M1153.05,624.965L1150.78,628.085L1146.99,632.354L1142.8,636.236L1138.26,639.696L1133.41,642.702L1128.28,645.226L1122.94,647.243L1117.43,648.737L1111.8,649.691L1106.11,650.097L1100.4,649.953L1094.73,649.258L1089.15,648.02L1083.72,646.25L1078.49,643.964L1073.5,641.185L1068.81,637.937L1064.44,634.252L1060.46,630.163L1056.89,625.709L1052.93,619.349L1053.28,616.801L1056.39,622.311L1059.69,626.896L1063.43,631.136L1067.56,634.991L1072.05,638.422L1076.85,641.396L1081.92,643.886L1087.22,645.867L1092.68,647.321L1098.26,648.232L1103.9,648.592L1109.54,648.398L1115.14,647.652L1120.65,646.361L1125.99,644.536L1131.14,642.197L1136.03,639.365L1140.61,636.068L1144.86,632.337L1148.71,628.208L1152.08,623.811L1150.91,622.43L1147.18,627.4L1143.34,631.514L1139.11,635.231L1134.54,638.517L1129.67,641.339L1124.54,643.67L1119.21,645.487L1113.73,646.773L1108.15,647.517L1102.53,647.71L1096.91,647.351L1091.35,646.443L1085.91,644.995L1080.63,643.021L1075.58,640.54L1071.58,638.061" style="fill:none;fill-rule:nonzero;stroke:rgb(0,0,255);stroke-width:1px;"/>
        <path d="M1083.44,612.855L1087.2,616.853L1090.57,619.481L1089.34,620.747L1092.01,622.332L1092.27,620.562L1095.81,622.371L1099.56,623.736L1103.47,624.627L1108.52,625.094L1104.51,624.827L1100.56,624.061L1096.73,622.808L1093.09,621.087L1091.03,619.774L1086.6,616.358L1083.85,613.424L1081.49,610.169L1079.8,607.007L1077.81,601.312L1077,597.213L1076.74,593.045L1077.01,588.877L1077.83,584.781L1079.17,580.825L1081.01,577.075L1083.32,573.597L1086.06,570.447L1089.19,567.679L1092.65,565.34L1096.39,563.47L1100.34,562.099L1104.43,561.251L1108.6,560.94L1112.77,561.173L1116.88,561.943L1120.85,563.239L1124.62,565.039L1128.13,567.313L1131.31,570.021L1134.12,573.119L1136.5,576.554L1138.41,580.268L1139.83,584.198L1140.72,588.279L1141.08,592.441L1140.89,596.614L1140.17,600.728L1138.91,604.712L1137.15,608.501L1134.92,612.03L1132.25,615.239L1131.07,616.232L1127.38,619.068L1123.98,621.203L1120.33,622.897L1116.49,624.122L1112.54,624.857L1107.48,625.025L1111.58,624.909L1115.73,624.242L1119.76,623.04L1123.59,621.323L1127.17,619.119L1130.43,616.467L1133.32,613.412L1135.79,610.007L1137.78,606.309L1139.28,602.382L1140.25,598.294L1140.68,594.113L1140.56,589.912L1139.89,585.763L1138.69,581.736L1136.97,577.901L1134.76,574.322L1132.11,571.062L1129.05,568.176L1125.64,565.713L1122.63,564.086L1119.72,562.87" style="fill:none;fill-rule:nonzero;stroke:rgb(0,0,255);stroke-width:1px;"/>
        <path d="M1112.99,569.589L1116.21,570.586L1119.45,572.162L1122.11,574.007L1125.01,576.692L1127.21,579.54L1128.95,582.689L1130.19,586.068L1130.9,589.595L1131.06,593.19L1130.67,596.766L1129.74,600.242L1128.29,603.533L1126.35,606.566L1123.98,609.266L1121.21,611.572L1118.13,613.43L1114.8,614.795L1111.3,615.636L1109.66,615.773L1107.19,615.897L1104.12,615.681L1100.36,614.783L1097.27,613.559L1094.16,611.739L1093.11,610.885L1091.37,609.467L1088.96,606.797L1086.98,603.789L1085.49,600.515L1084.48,596.793L1084.08,593.481L1084.19,589.886L1084.85,586.349L1086.05,582.956L1087.75,579.785L1089.91,576.911L1092.49,574.4L1095.48,572.283L1096.93,571.55L1098.63,570.695L1102.06,569.588L1105.61,569.018L1109.21,568.995L1110.62,569.204" style="fill:none;fill-rule:nonzero;stroke:rgb(0,0,255);stroke-width:1px;"/>
        <path d="M1106.66,581.915L1116.25,586.41L1106.68,581.9L1098,587.925L1098.87,598.46L1108.44,602.971" style="fill:none;fill-rule:nonzero;stroke:rgb(0,0,255);stroke-width:1px;"/>
        <path d="M1104.97,601.175L1108.44,602.971L1117.13,596.946" style="fill:none;fill-rule:nonzero;stroke:rgb(0,0,255);stroke-width:1px;"/>
        <path d="M1113.58,595.205L1104.97,601.175L1098.86,598.295" style="fill:none;fill-rule:nonzero;stroke:rgb(0,0,255);stroke-width:1px;"/>
        <path d="M1112.71,584.765L1113.58,595.205L1117.13,596.946L1116.25,586.41" style="fill:none;fill-rule:nonzero;stroke:rgb(0,0,255);stroke-width:1px;"/>
        <path d="M1136.66,586.757L1137.25,590.728L1137.28,594.74L1136.75,598.718L1135.66,602.582L1134.06,606.259L1131.95,609.676L1129.39,612.767L1126.43,615.471L1123.12,617.737L1119.52,619.519L1115.71,620.784L1111.76,621.507L1107.75,621.673L1103.75,621.28L1099.85,620.335L1096.12,618.856L1091.86,616.28L1089.45,614.423L1086.64,611.555L1084.26,608.324L1082.35,604.794L1080.95,601.032L1080.09,597.113L1079.78,593.113L1080.03,589.108L1080.84,585.178L1082.19,581.399L1084.05,577.843L1086.38,574.582L1089.15,571.677L1092.3,569.186L1095.76,567.156L1099.48,565.628L1103.37,564.632L1107.36,564.186L1111.37,564.299L1115.33,564.971L1119.47,566.338L1122.77,567.92L1126.12,570.142L1129.12,572.807L1131.72,575.863L1133.87,579.253L1135.53,582.908L1136.66,586.757Z" style="fill:none;fill-rule:nonzero;stroke:rgb(0,0,255);stroke-width:1px;"/>
        <path d="M1155.95,573.759L1153.51,567.607L1150.94,562.849L1149.27,560.264L1146.01,555.924L1144.45,554.216L1142.33,551.932L1138.76,548.759" style="fill:none;fill-rule:nonzero;stroke:rgb(0,0,255);stroke-width:1px;"/>
        <path d="M1132.66,539.038L1138.34,542.467L1142.88,545.937L1147.06,549.829L1150.84,554.105L1154.19,558.726L1157.08,563.65L1159.49,568.829L1161.38,574.215L1162.74,579.759L1163.3,583.633" style="fill:none;fill-rule:nonzero;stroke:rgb(0,0,255);stroke-width:1px;"/>
        <path d="M1161.44,581.171L1160.07,575.147L1158.25,569.801L1155.9,564.661L1153.07,559.774L1149.77,555.188L1146.03,550.948L1141.9,547.093L1137.41,543.663L1134.38,541.79L1134.82,542.478L1140.39,546.579L1144.51,550.419L1148.23,554.644L1151.52,559.213L1154.34,564.083L1156.68,569.205L1158.5,574.531L1159.44,578.543" style="fill:none;fill-rule:nonzero;stroke:rgb(0,0,255);stroke-width:1px;"/>
        <path d="M1191.18,617.645L1193.56,608.669L1194.74,601.622L1195.37,594.504L1195.46,587.359L1195,580.228L1193.99,573.153L1192.44,566.176L1190.37,559.337L1187.78,552.677L1184.68,546.235L1181.1,540.049L1177.06,534.155L1172.58,528.587L1167.68,523.378L1162.4,518.559L1156.77,514.158L1150.81,510.201L1144.57,506.711L1138.09,503.71L1131.39,501.212L1124.52,499.235L1117.52,497.79L1108.92,496.808" style="fill:none;fill-rule:nonzero;stroke:rgb(0,0,255);stroke-width:1px;"/>
        <path d="M1125.21,479.57L1129.61,477.089L1132.62,474.696L1135.31,471.941L1137.63,468.867L1140.11,469.251L1146.76,471.546L1153.26,474.207L1159.61,477.225L1165.78,480.591L1165.15,484.168L1165.06,487.799L1165.5,491.405L1166.48,494.903L1167.97,498.218L1169.93,501.275L1172.33,504.007L1175.11,506.352L1178.2,508.259L1181.54,509.685L1185.06,510.599L1188.68,510.98L1192.31,510.82L1195.87,510.122L1199.3,508.901" style="fill:none;fill-rule:nonzero;stroke:rgb(0,0,255);stroke-width:1px;"/>
        <path d="M1186.44,510.744L1189.1,510.479L1192.85,509.613L1196.46,508.28L1199.3,508.901L1203.65,514.424L1207.68,520.178L1211.39,526.148L1214.77,532.316L1212.3,534.983L1210.25,537.986L1208.68,541.26L1207.61,544.732L1207.07,548.324L1207.07,551.957L1207.6,555.55L1208.67,559.023L1210.24,562.299L1212.28,565.305L1214.75,567.975L1217.59,570.249L1220.73,572.077L1224.11,573.417L1222.36,572.724L1224.64,573.229L1227.65,574.241L1228.32,581.237L1228.6,588.258L1228.49,595.285L1228,602.294L1224.48,603.203L1221.13,604.625L1218.03,606.528L1215.26,608.87L1212.86,611.598L1210.89,614.653L1209.4,617.966L1208.42,621.464L1207.97,625.069L1208.06,628.7L1208.69,632.279L1209.85,635.723L1211.5,638.959L1212.58,640.466" style="fill:none;fill-rule:nonzero;stroke:rgb(0,0,255);stroke-width:1px;"/>
        <path d="M1140.11,469.251L1137.89,472.127L1135.27,474.642L1132.3,476.739L1129.05,478.372L1125.6,479.503L1122.02,480.11L1118.38,480.179L1114.78,479.705L1111.29,478.703L1107.98,477.191L1104.94,475.207L1102.22,472.792L1099.9,470L1098.01,466.895L1096.61,463.543L1093.37,463.612L1093.44,463.771L1096.61,463.543" style="fill:none;fill-rule:nonzero;stroke:rgb(0,0,255);stroke-width:1px;"/>
        <path d="M1063.59,407.284L1066.56,388.024L1064.72,387.74" style="fill:none;fill-rule:nonzero;stroke:rgb(0,0,255);stroke-width:1px;"/>
        <path d="M1010.34,346.183L1007.89,345.87L1001.07,345.561L1001.35,346.082L1002.17,346.2L1001.52,346.41L1001.75,346.842L1007.89,346.549L1010.34,346.183L1010.41,343.789L1010.74,342.089L1010.64,342.392L1011.7,339.561L1018.83,329.192L1022.68,322.242" style="fill:none;fill-rule:nonzero;stroke:rgb(0,0,255);stroke-width:1px;"/>
        <path d="M1024.94,293.957L1025.51,292.791L1027.31,295.26L1028.83,296.879L1030.8,298.473L1033.05,299.826L1030.4,307.054L1027.75,313.087L1021.08,325.178L1027.2,323.207L1030.65,321.803L1038.5,317.851L1046.44,312.66L1053.41,307.116L1057.08,303.779L1062.17,298.616L1067,293.059L1071.52,287.183L1075.63,281.056L1078.72,275.865L1080.17,272.04L1081.27,263.788L1081.72,258.085L1081.82,251.865L1081.45,245.206L1080.49,238.192L1079.77,234.585L1077.78,227.258L1075.8,221.529L1072.65,214.325L1070.8,210.777L1066.56,203.881L1063.07,198.854L1057.27,191.834L1053.77,188.132L1047.3,181.977L1043.51,178.732L1036.74,173.426L1028.9,167.806L1006.67,153.36L1003.6,151.928L999.968,150.594L990.918,148.277L982.439,146.894L975.922,146.165L960.68,145.229L951.899,145.046L920.748,145.091L922.178,146.075L917.675,142.975L912.77,140.141L907.498,137.595L901.892,135.356L895.991,133.442L889.838,131.867L883.474,130.64L875.043,129.743L866.427,129.749L862.112,130.094L853.61,131.466L849.484,132.487L846.4,133.602L843.968,134.827L841.744,136.277L839.851,137.849L838.269,139.56L837.044,141.381L836.276,143.209L835.982,144.935L835.868,149.078L835.906,159.437L836.445,163.287L837.667,169.177L835.472,169.787L837.667,169.177L839.18,194.95L841.49,222.409L841.967,224.665L842.959,226.772L844.437,228.573L846.273,229.967L848.44,230.939L850.932,231.472L853.592,231.489L856.232,231.018L868.912,227.807L874.594,226.932L880.358,226.46L886.124,226.398L891.659,226.731L896.843,227.407L901.642,228.373L906.029,229.573L912.271,231.746L918.143,234.26L923.603,237.093L928.61,240.22L928.815,240.972L963.543,240.931L992.216,241.649L1004.74,242.369L1016.11,243.306L1026.37,244.441L1039.76,246.476L1047.42,248.027L1057.14,250.598L1064.9,253.408L1070.86,256.398L1075.21,259.508L1077.31,261.619L1078.83,263.742L1079.82,265.862L1080.34,267.961L1080.44,270.025L1080.17,272.04" style="fill:none;fill-rule:nonzero;stroke:rgb(0,0,255);stroke-width:1px;"/>
        <path d="M1057.8,303.065L1057.52,313.764L1057.73,326.718L1058.49,339.653L1059.8,352.542L1061.65,365.366L1064.05,378.098L1066.98,390.718L1070.45,403.202L1074.45,415.528L1078.96,427.673L1090.79,457.669L1097.61,473.378L1104.89,488.876L1108.92,496.808L1112.64,504.15L1120.84,519.186L1129.49,533.971L1138.58,548.491L1148.09,562.733L1158.03,576.685L1168.38,590.334L1179.14,603.668L1190.29,616.675L1201.83,629.344L1213.74,641.662L1216.79,645.125L1220.7,651.173L1221.78,653.362L1223.53,657.908L1224.8,662.467L1225.72,667.014L1226.3,671.485L1226.56,675.984L1226.08,681.012L1225.13,685.975L1223.74,690.83L1222.28,694.504L1220.43,697.999L1218.21,701.276L1215.66,704.295L1212.79,707.022L1209.65,709.427L1193.25,720.379L1176.61,730.976L1159.75,741.212L1142.67,751.085L1125.39,760.587L1107.91,769.716L1090.24,778.467L1086.07,780.17L1081.72,781.35L1077.26,781.99L1072.76,782.08L1068.27,781.618L1063.88,780.613L1059.64,779.078L1055.63,777.036L1024.02,758.456L1020.28,755.936L1015.46,751.49L1012.05,747.475L1009.53,744.018L1007.44,740.291L1005.8,736.346L1004.63,732.235L1003.94,728.015L1003.76,723.746L1004.08,719.484L1029.09,532.733L1029.36,521.54L1029.07,510.348L1027.82,495.755L1026.86,488.071L1024.94,477.042L1022.47,466.12L1019.48,455.332L1015.95,444.704L1011.91,434.262L1008.91,427.726L1005.43,421.428L1001.5,415.403L997.137,409.684L992.363,404.303L987.205,399.286L983.284,395.999L981.852,396.338L987.92,394.9L986.218,392.987L986.142,392.02L987.676,388.238L988.291,385.393L988.3,382.554L987.698,379.763L986.491,377.063L984.696,374.499L982.336,372.11L979.446,369.934L976.069,368.007L972.257,366.361L968.069,365.023L964.606,364.246L958.832,363.353L953.93,363.049L948.944,363.109L943.952,363.53L939.033,364.306L934.268,365.424L928.159,367.307L924.802,367.532L923.195,367.303L920.545,366.224L919.426,365.098L915.703,356.055L915.631,354.674L916.556,352.955L917.815,351.984L920.068,351.101L904.283,354.954L898.457,356.959L894.787,358.96L891.575,361.709L890.008,363.956L889.523,365.123L889.319,366.947L902.923,389.382L904.445,390.945L908.24,393.816L913.688,396.597" style="fill:none;fill-rule:nonzero;stroke:rgb(0,0,255);stroke-width:1px;"/>
        <path d="M870.159,434.482L863.245,433.237L856.411,431.61L849.678,429.606" style="fill:none;fill-rule:nonzero;stroke:rgb(0,0,255);stroke-width:1px;"/>
        <path d="M984.98,542.366L982.526,548.949L980.442,555.657L978.734,562.472L977.408,569.369" style="fill:none;fill-rule:nonzero;stroke:rgb(0,0,255);stroke-width:1px;"/>
        <path d="M980.381,571.049L982.777,572.879L986.094,576.261" style="fill:none;fill-rule:nonzero;stroke:rgb(0,0,255);stroke-width:1px;"/>
        <path d="M977.949,613.207L979.445,620.071L981.32,626.842L983.569,633.497L986.185,640.018" style="fill:none;fill-rule:nonzero;stroke:rgb(0,0,255);stroke-width:1px;"/>
        <path d="M1012.5,656.62L1010.67,652.31L1008.67,649.278L1006.24,646.578L1003.43,644.268L1000.32,642.401L996.958,641.018L993.43,640.148L989.812,639.813L986.185,640.018L984.626,638.613L980.417,627.492L978.711,621.795L977.949,613.207L981.067,611.344L983.874,609.038L986.307,606.342L988.311,603.314L989.843,600.02L990.868,596.536L991.363,592.939L991.319,589.307L990.734,585.723L989.624,582.265L988.011,579.01L985.933,576.031L983.435,573.393L980.572,571.157L975.902,568.387L977,562.543L980.021,551.044L984.98,542.366L988.611,542.485L992.219,542.063L995.725,541.108L999.05,539.644L1002.12,537.702L1004.87,535.325L1007.23,532.567L1009.15,529.488L1010.6,526.157L1011.54,522.647" style="fill:none;fill-rule:nonzero;stroke:rgb(0,0,255);stroke-width:1px;"/>
        <path d="M1010.71,525.746L1011.1,522.977L1011.14,519.129L1010.69,515.307L1009.77,511.571L1008.38,507.983L1006.54,504.6L1010.63,500.277L1019.39,492.236L1026.83,487.886L1026.89,488.312L1023.59,490.786L1018.2,495.304L1013.08,500.113L1008.23,505.199L1006.54,504.6L1008.23,505.199L1009.93,508.411L1011.13,511.84L1011.8,515.409L1011.94,519.038L1011.54,522.647L1009.27,516.08L1006.44,509.343L1003.19,502.794L964.499,430.411L961.985,425.21L957.729,417.25L958.368,417.071L1004.43,503.228L1007.68,509.806L1011,517.921" style="fill:none;fill-rule:nonzero;stroke:rgb(0,0,255);stroke-width:1px;"/>
        <path d="M1036.27,533.95L1030.48,533.318L1029.11,531.785L1024.46,538.134L1020.73,544.229L1017.48,550.592L1014.73,557.186L1012.49,563.969L1010.78,570.905L1009.61,577.952L1008.97,585.067L1008.89,592.211L1009.35,599.339L1010.35,606.412L1011.9,613.388L1013.97,620.225L1016.5,626.722" style="fill:none;fill-rule:nonzero;stroke:rgb(0,0,255);stroke-width:1px;"/>
        <path d="M1004.27,730.018L997.156,740.255L995.975,739.434L1007.81,648.322L1006.6,646.974L995.808,730.039L995.975,739.434L997.156,740.255L996.755,742.93L996.864,743.877L997.181,744.545L1000.28,748.3L1004.71,752.024L1014.44,759.254L1031.82,771.347L1035.92,765.45" style="fill:none;fill-rule:nonzero;stroke:rgb(0,0,255);stroke-width:1px;"/>
        <path d="M717.643,171.664L715.61,167.437L714.18,168.646L716.03,172.349" style="fill:none;fill-rule:nonzero;stroke:rgb(0,0,255);stroke-width:1px;"/>
        <path d="M697.946,160.898L701.518,157.326L705.489,152.544L709.002,147.416L712.027,141.986L714.537,136.299L716.513,130.405L717.936,124.354L718.795,118.197L719.082,111.988L718.795,105.779L718.256,101.912" style="fill:none;fill-rule:nonzero;stroke:rgb(0,0,255);stroke-width:1px;"/>
        <path d="M721.82,88.037L720.024,88.885L718.428,90.415L717.334,92.846L717.191,94.318L717.985,93.31L718.152,90.89L734.612,146.836L748.357,135.206" style="fill:none;fill-rule:nonzero;stroke:rgb(0,0,255);stroke-width:1px;"/>
        <path d="M733.881,86.003L734.601,84.282L734.963,78.57" style="fill:none;fill-rule:nonzero;stroke:rgb(0,0,255);stroke-width:1px;"/>
    </g>
</svg>
