<?xml version="1.0" encoding="UTF-8" standalone="no"?>
<!DOCTYPE svg PUBLIC "-//W3C//DTD SVG 1.1//EN" "http://www.w3.org/Graphics/SVG/1.1/DTD/svg11.dtd">
<svg width="100%" height="100%" viewBox="0 0 458 496" version="1.1" xmlns="http://www.w3.org/2000/svg" xmlns:xlink="http://www.w3.org/1999/xlink" xml:space="preserve" xmlns:serif="http://www.serif.com/" style="fill-rule:evenodd;clip-rule:evenodd;stroke-linejoin:round;stroke-miterlimit:2;">
    <g transform="matrix(1,0,0,1,-9.08222,-14.9934)">
        <g transform="matrix(1,0,0,1,-171,-52)">
            <path d="M628.899,201.375C628.899,140.715 598.303,76.523 407.221,76.213C236.824,75.936 189.265,140.715 189.265,201.375L189.265,436.536C189.265,497.196 254.576,555.799 411.778,553.721C569.102,551.641 628.899,497.196 628.899,436.536L628.899,201.375ZM515.736,329.184C520.963,329.184 525.206,333.583 525.206,339.001C525.206,344.42 520.963,348.819 515.736,348.819C510.509,348.819 506.266,344.42 506.266,339.001C506.266,333.583 510.509,329.184 515.736,329.184ZM311.331,329.06C316.558,329.06 320.801,333.459 320.801,338.877C320.801,344.296 316.558,348.695 311.331,348.695C306.104,348.695 301.861,344.296 301.861,338.877C301.861,333.459 306.104,329.06 311.331,329.06Z" style="fill:rgb(255,224,133);"/>
        </g>
        <g transform="matrix(0.977946,0,0,1,-156.887,-50.0008)">
            <path d="M638.364,199.376C638.364,172.945 632.667,145.976 612.502,123.014C583.681,90.195 523.669,64.907 401.989,64.714C218.733,64.423 169.388,135.577 169.388,199.376C169.388,199.376 169.388,434.537 169.388,434.537C169.388,467.759 187.227,500.695 227.524,524.763C265.425,547.401 323.958,562.291 406.761,561.221C489.575,560.15 546.644,545.26 583.085,523.172C621.936,499.624 638.364,467.828 638.364,434.537C638.364,434.537 638.364,199.376 638.364,199.376ZM618.936,199.376L618.936,434.537C618.936,461.907 604.791,487.663 572.851,507.022C538.502,527.842 484.562,541.214 406.505,542.223C328.56,543.231 273.327,529.858 237.65,508.549C204.367,488.67 188.816,461.976 188.816,434.537L188.816,199.376C188.816,141.843 236.699,83.451 401.957,83.714C514.751,83.893 571.047,104.971 597.763,135.392C614.622,154.59 618.936,177.279 618.936,199.376Z" style="fill:rgb(36,36,36);"/>
        </g>
        <g transform="matrix(1,0,0,1,-171,-52)">
            <path d="M302.282,316.541C318.896,316.541 332.384,330.115 332.384,346.834C332.384,363.554 318.896,377.128 302.282,377.128C285.669,377.128 272.181,363.554 272.181,346.834C272.181,330.115 285.669,316.541 302.282,316.541ZM311.331,329.06C316.558,329.06 320.801,333.459 320.801,338.877C320.801,344.296 316.558,348.695 311.331,348.695C306.104,348.695 301.861,344.296 301.861,338.877C301.861,333.459 306.104,329.06 311.331,329.06Z" style="fill:rgb(36,36,36);"/>
        </g>
        <g transform="matrix(1,0,0,1,-177.977,-65.7786)">
            <ellipse cx="272.425" cy="422.704" rx="35.247" ry="33.319" style="fill:rgb(255,191,0);"/>
        </g>
        <g transform="matrix(1,0,0,1,102.509,-66.4037)">
            <ellipse cx="272.425" cy="422.704" rx="35.247" ry="33.319" style="fill:rgb(255,191,0);"/>
        </g>
        <g transform="matrix(1,0,0,1,-171,-52)">
            <path d="M506.687,316.665C523.301,316.665 536.789,330.239 536.789,346.958C536.789,363.678 523.301,377.252 506.687,377.252C490.074,377.252 476.586,363.678 476.586,346.958C476.586,330.239 490.074,316.665 506.687,316.665ZM515.736,329.184C520.963,329.184 525.206,333.583 525.206,339.001C525.206,344.42 520.963,348.819 515.736,348.819C510.509,348.819 506.266,344.42 506.266,339.001C506.266,333.583 510.509,329.184 515.736,329.184Z" style="fill:rgb(36,36,36);"/>
        </g>
        <g transform="matrix(1,0,0,1,-171,-52)">
            <path d="M247.099,147.876C247.099,147.876 323.057,168.772 415.074,167.451C543.116,165.612 580.62,139.745 580.62,139.745C580.62,139.745 532.955,175.677 415.297,176.027C305.326,176.354 247.099,147.876 247.099,147.876Z" style="fill:rgb(36,36,36);"/>
        </g>
        <g id="mouth" transform="matrix(1,0,0,1,-171,-52)">
            <path d="M371.64,437.465C371.935,425.859 425.048,409.731 450.892,436.783C454.104,488.624 417.974,494.798 413.305,495.548C408.636,496.298 370.231,492.875 371.64,437.465Z" style="fill:rgb(36,36,36);"/>
        </g>
    </g>
</svg>
