<?xml version="1.0" encoding="UTF-8" standalone="no"?>
<!DOCTYPE svg PUBLIC "-//W3C//DTD SVG 1.1//EN" "http://www.w3.org/Graphics/SVG/1.1/DTD/svg11.dtd">
<svg width="100%" height="100%" viewBox="0 0 1374 1487" version="1.1" xmlns="http://www.w3.org/2000/svg" xmlns:xlink="http://www.w3.org/1999/xlink" xml:space="preserve" xmlns:serif="http://www.serif.com/" style="fill-rule:evenodd;clip-rule:evenodd;stroke-linejoin:round;stroke-miterlimit:2;">
    <g>
        <g id="_-242424" serif:id="#242424">
            <path d="M705.644,326.881C1058.62,325.832 1201.61,218.108 1201.61,218.108C1201.61,218.108 1089.1,295.657 704.975,301.17C428.924,305.131 201.05,242.485 201.05,242.485C201.05,242.485 375.731,327.861 705.644,326.881Z" style="fill:none;stroke:rgb(36,36,36);stroke-width:1px;"/>
            <path d="M350.702,290.108C356.532,291.451 362.528,292.786 368.69,294.108L514.792,294.108C500.577,292.887 486.68,291.545 473.136,290.108L350.702,290.108C344.937,288.78 339.335,287.445 333.897,286.108L438.207,286.108C427.708,284.818 417.465,283.48 407.498,282.108L318.117,282.108C312.993,280.77 308.035,279.434 303.242,278.108L379.775,278.108C371.035,276.788 362.546,275.451 354.327,274.108L289.18,274.108C284.559,272.757 280.117,271.422 275.855,270.108L330.697,270.108C323.037,268.766 315.66,267.429 308.581,266.108L263.209,266.108C258.994,264.74 254.99,263.404 251.198,262.108L287.763,262.108C280.836,260.738 274.272,259.4 268.09,258.108L239.79,258.108C235.89,256.705 232.282,255.367 228.966,254.108L249.459,254.108C242.968,252.676 237.073,251.335 231.81,250.108C225.252,248.58 219.674,247.231 215.142,246.108C205.936,243.828 201.05,242.485 201.05,242.485" style="fill:none;fill-rule:nonzero;stroke:rgb(36,36,36);stroke-width:1px;stroke-linejoin:miter;stroke-miterlimit:10;"/>
            <path d="M646.067,326.108C665.326,326.67 685.187,326.942 705.644,326.881C721.559,326.834 737.047,326.569 752.114,326.108L646.067,326.108C618.913,325.315 592.954,323.944 568.205,322.108L825.767,322.108C840.369,320.954 854.501,319.613 868.171,318.108L522.801,318.108C510.746,316.875 499.02,315.536 487.623,314.108L900.743,314.108C910.033,312.846 919.087,311.51 927.909,310.108L458.079,310.108C449.247,308.822 440.637,307.486 432.25,306.108L951.516,306.108C958.693,304.815 965.702,303.479 972.544,302.108L409.118,302.108C401.919,300.8 394.902,299.464 388.067,298.108L570.238,298.108C613.204,300.611 658.404,301.838 704.975,301.17C739.041,300.681 770.971,299.626 800.875,298.108L991.59,298.108C997.545,296.799 1003.36,295.464 1009.05,294.108L862.891,294.108C878.268,292.894 893.015,291.554 907.153,290.108L1025.19,290.108C1030.32,288.789 1035.33,287.455 1040.21,286.108L942.674,286.108C953.053,284.828 963.061,283.491 972.706,282.108L1054.28,282.108C1058.8,280.782 1063.21,279.447 1067.51,278.108L998.864,278.108C1006.88,276.802 1014.62,275.467 1022.09,274.108L1079.99,274.108C1084.03,272.775 1087.97,271.441 1091.8,270.108L1042.98,270.108C1049.55,268.788 1055.87,267.452 1061.96,266.108L1103,266.108C1106.65,264.768 1110.2,263.434 1113.64,262.108L1079.33,262.108C1084.87,260.776 1090.19,259.441 1095.3,258.108L1123.77,258.108C1127.1,256.761 1130.32,255.426 1133.42,254.108L1110.04,254.108C1114.8,252.765 1119.35,251.43 1123.7,250.108L1142.62,250.108C1145.67,248.751 1148.6,247.416 1151.4,246.108L1136.36,246.108C1140.5,244.751 1144.42,243.415 1148.12,242.108C1151.99,240.741 1155.62,239.405 1159.03,238.108C1162.66,236.728 1166.03,235.391 1169.14,234.108C1172.55,232.707 1175.66,231.37 1178.49,230.108C1181.71,228.671 1184.56,227.332 1187.06,226.108C1190.18,224.584 1192.76,223.239 1194.84,222.108C1199.49,219.571 1201.61,218.108 1201.61,218.108" style="fill:none;fill-rule:nonzero;stroke:rgb(36,36,36);stroke-width:1px;stroke-linejoin:miter;stroke-miterlimit:10;"/>
            <path d="M705.644,326.881C1058.62,325.832 1201.61,218.108 1201.61,218.108C1201.61,218.108 1089.1,295.657 704.975,301.17C428.924,305.131 201.05,242.485 201.05,242.485C201.05,242.485 375.731,327.861 705.644,326.881Z" style="fill:none;stroke:rgb(36,36,36);stroke-width:1px;"/>
            <path d="M276.296,838.958C276.296,889.084 316.76,929.779 366.599,929.779C416.441,929.779 456.905,889.084 456.905,838.958C456.905,788.834 416.441,748.14 366.599,748.14C316.76,748.14 276.296,788.834 276.296,838.958ZM393.746,785.671C409.427,785.671 422.156,798.86 422.156,815.103C422.156,831.349 409.427,844.537 393.746,844.537C378.065,844.537 365.336,831.349 365.336,815.103C365.336,798.86 378.065,785.671 393.746,785.671Z" style="fill:none;stroke:rgb(36,36,36);stroke-width:1px;"/>
            <path d="M889.511,839.329C889.511,889.456 929.975,930.15 979.814,930.15C1029.66,930.15 1070.12,889.456 1070.12,839.329C1070.12,789.206 1029.66,748.511 979.814,748.511C929.975,748.511 889.511,789.206 889.511,839.329ZM1006.96,786.043C1022.64,786.043 1035.37,799.231 1035.37,815.474C1035.37,831.72 1022.64,844.909 1006.96,844.909C991.28,844.909 978.551,831.72 978.551,815.474C978.551,799.231 991.28,786.043 1006.96,786.043Z" style="fill:none;stroke:rgb(36,36,36);stroke-width:1px;"/>
            <path d="M280.442,844.14C280.518,845.483 280.623,846.817 280.757,848.14L388.951,848.14C385.023,847.495 381.219,846.092 377.824,844.14L280.442,844.14C280.367,842.816 280.321,841.483 280.304,840.14L372.285,840.14C371.764,839.671 371.263,839.187 370.783,838.69C370.014,837.893 369.279,837.041 368.583,836.14L280.339,836.14C280.38,834.796 280.45,833.463 280.549,832.14L365.93,832.14C365.206,830.861 364.554,829.523 363.984,828.14L280.938,828.14C281.1,826.795 281.292,825.461 281.513,824.14L362.605,824.14C362.237,822.828 361.945,821.492 361.733,820.14L282.279,820.14C282.57,818.793 282.892,817.46 283.245,816.14L361.353,816.14C361.342,815.794 361.336,815.449 361.336,815.103C361.336,814.113 361.383,813.124 361.475,812.14L284.419,812.14C284.851,810.791 285.315,809.457 285.812,808.14L362.091,808.14C362.384,806.782 362.757,805.445 363.203,804.14L287.436,804.14C288.025,802.788 288.649,801.454 289.306,800.14L364.845,800.14C365.519,798.744 366.277,797.405 367.107,796.14L291.441,796.14C292.211,794.784 293.018,793.45 293.861,792.14L370.2,792.14C370.392,791.929 370.586,791.722 370.783,791.518C371.953,790.306 373.251,789.174 374.652,788.14L296.594,788.14C295.645,789.448 294.734,790.782 293.861,792.14" style="fill:none;fill-rule:nonzero;stroke:rgb(36,36,36);stroke-width:1px;stroke-linejoin:miter;stroke-miterlimit:10;"/>
            <path d="M893.657,844.511C893.733,845.855 893.838,847.189 893.972,848.511L1002.17,848.511C998.237,847.866 994.434,846.464 991.039,844.511L893.657,844.511C893.582,843.188 893.536,841.854 893.519,840.511L985.5,840.511C984.979,840.042 984.478,839.559 983.998,839.062C983.229,838.265 982.494,837.413 981.798,836.511L893.554,836.511C893.595,835.168 893.665,833.835 893.764,832.511L979.145,832.511C978.421,831.233 977.769,829.895 977.199,828.511L894.153,828.511C894.315,827.167 894.507,825.833 894.728,824.511L975.82,824.511C975.452,823.2 975.16,821.863 974.948,820.511L895.494,820.511C895.785,819.165 896.107,817.831 896.46,816.511L974.568,816.511C974.557,816.166 974.551,815.82 974.551,815.474C974.551,814.484 974.598,813.495 974.69,812.511L897.634,812.511C898.066,811.163 898.53,809.829 899.027,808.511L975.306,808.511C975.599,807.154 975.972,805.816 976.418,804.511L900.651,804.511C901.24,803.16 901.864,801.826 902.521,800.511L978.06,800.511C978.734,799.116 979.492,797.777 980.322,796.511L904.656,796.511C905.426,795.156 906.233,793.822 907.076,792.511L983.415,792.511C983.607,792.301 983.801,792.093 983.998,791.89C985.168,790.678 986.466,789.545 987.867,788.511L909.809,788.511C908.86,789.82 907.949,791.153 907.076,792.511" style="fill:none;fill-rule:nonzero;stroke:rgb(36,36,36);stroke-width:1px;stroke-linejoin:miter;stroke-miterlimit:10;"/>
            <path d="M383.599,924.14C378.132,925.218 372.455,925.779 366.599,925.779C360.744,925.779 355.067,925.218 349.601,924.14L383.599,924.14C388.393,923.194 393.026,921.851 397.476,920.14L335.725,920.14C332.694,918.974 329.748,917.638 326.894,916.14L406.307,916.14C408.645,914.913 410.921,913.578 413.132,912.14L320.069,912.14C318.138,910.884 316.257,909.549 314.428,908.14L418.773,908.14C420.424,906.867 422.033,905.533 423.598,904.14L309.603,904.14C308.233,902.919 306.896,901.654 305.595,900.345C305.527,900.277 305.459,900.208 305.391,900.14L427.81,900.14C429.094,898.841 430.335,897.507 431.532,896.14L301.669,896.14C300.528,894.836 299.427,893.503 298.367,892.14L434.834,892.14C435.85,890.833 436.828,889.499 437.767,888.14L295.435,888.14C294.531,886.83 293.664,885.497 292.834,884.14L440.368,884.14C441.17,882.828 441.937,881.494 442.668,880.14L290.534,880.14C289.825,878.826 289.15,877.492 288.51,876.14L444.692,876.14C445.314,874.824 445.904,873.491 446.46,872.14L286.742,872.14C286.2,870.823 285.691,869.489 285.214,868.14L447.988,868.14C448.453,866.822 448.887,865.488 449.289,864.14L283.912,864.14C283.519,862.82 283.156,861.487 282.825,860.14L450.377,860.14C450.701,858.819 450.996,857.486 451.26,856.14L281.942,856.14C281.683,854.818 281.454,853.485 281.255,852.14L451.947,852.14C452.142,850.818 452.308,849.484 452.445,848.14L398.542,848.14C402.47,847.495 406.274,846.092 409.669,844.14L452.76,844.14C452.835,842.816 452.881,841.483 452.898,840.14L415.207,840.14C415.729,839.671 416.23,839.187 416.71,838.69C417.479,837.893 418.214,837.041 418.91,836.14L452.863,836.14C452.822,834.796 452.751,833.463 452.653,832.14L421.562,832.14C422.287,830.861 422.939,829.523 423.509,828.14L452.263,828.14C452.102,826.795 451.91,825.461 451.689,824.14L424.888,824.14C425.255,822.828 425.548,821.492 425.759,820.14L450.923,820.14C450.632,818.793 450.309,817.46 449.957,816.14L426.139,816.14C426.151,815.794 426.156,815.449 426.156,815.103C426.156,814.113 426.109,813.124 426.018,812.14L448.783,812.14C448.351,810.791 447.886,809.457 447.39,808.14L425.401,808.14C425.109,806.782 424.736,805.445 424.289,804.14L445.766,804.14C445.176,802.788 444.552,801.454 443.895,800.14L422.647,800.14C421.974,798.744 421.216,797.405 420.385,796.14L441.761,796.14C440.99,794.784 440.183,793.45 439.34,792.14L417.293,792.14L416.71,791.518C415.54,790.306 414.242,789.174 412.841,788.14L436.608,788.14C435.621,786.779 434.594,785.445 433.529,784.14L405.752,784.14C401.97,782.571 397.863,781.671 393.746,781.671C389.63,781.671 385.523,782.571 381.741,784.14L299.672,784.14C300.786,782.775 301.943,781.441 303.14,780.14L430.062,780.14C429.261,779.27 428.443,778.414 427.607,777.573C427.126,777.089 426.64,776.611 426.149,776.14L307.052,776.14C308.493,774.754 309.975,773.42 311.497,772.14L421.705,772.14C420.042,770.741 418.332,769.407 416.576,768.14L316.625,768.14C318.591,766.72 320.614,765.386 322.691,764.14L410.51,764.14C408.082,762.683 405.581,761.348 403.01,760.14L330.19,760.14C333.482,758.593 336.887,757.255 340.395,756.14L392.805,756.14C384.596,753.53 375.82,752.14 366.599,752.14C357.38,752.14 348.604,753.53 340.395,756.14" style="fill:none;fill-rule:nonzero;stroke:rgb(36,36,36);stroke-width:1px;stroke-linejoin:miter;stroke-miterlimit:10;"/>
            <path d="M996.814,924.511C991.347,925.589 985.67,926.15 979.814,926.15C973.959,926.15 968.282,925.589 962.816,924.511L996.814,924.511C1001.61,923.566 1006.24,922.223 1010.69,920.511L948.94,920.511C945.909,919.346 942.963,918.009 940.109,916.511L1019.52,916.511C1021.86,915.285 1024.14,913.95 1026.35,912.511L933.284,912.511C931.353,911.256 929.472,909.921 927.643,908.511L1031.99,908.511C1033.64,907.239 1035.25,905.904 1036.81,904.511L922.818,904.511C921.448,903.291 920.111,902.026 918.81,900.717L918.606,900.511L1041.03,900.511C1042.31,899.212 1043.55,897.879 1044.75,896.511L914.884,896.511C913.743,895.208 912.642,893.875 911.582,892.511L1048.05,892.511C1049.07,891.205 1050.04,889.871 1050.98,888.511L908.65,888.511C907.746,887.202 906.879,885.868 906.049,884.511L1053.58,884.511C1054.38,883.2 1055.15,881.866 1055.88,880.511L903.749,880.511C903.04,879.198 902.365,877.864 901.725,876.511L1057.91,876.511C1058.53,875.196 1059.12,873.863 1059.67,872.511L899.957,872.511C899.415,871.195 898.906,869.861 898.429,868.511L1061.2,868.511C1061.67,867.193 1062.1,865.86 1062.5,864.511L897.127,864.511C896.734,863.192 896.371,861.859 896.04,860.511L1063.59,860.511C1063.92,859.191 1064.21,857.858 1064.47,856.511L895.157,856.511C894.898,855.19 894.669,853.857 894.47,852.511L1065.16,852.511C1065.36,851.189 1065.52,849.856 1065.66,848.511L1011.76,848.511C1015.69,847.866 1019.49,846.464 1022.88,844.511L1065.97,844.511C1066.05,843.188 1066.1,841.854 1066.11,840.511L1028.42,840.511C1028.94,840.042 1029.44,839.559 1029.92,839.062C1030.69,838.265 1031.43,837.413 1032.12,836.511L1066.08,836.511C1066.04,835.168 1065.97,833.835 1065.87,832.511L1034.78,832.511C1035.5,831.233 1036.15,829.895 1036.72,828.511L1065.48,828.511C1065.32,827.167 1065.12,825.833 1064.9,824.511L1038.1,824.511C1038.47,823.2 1038.76,821.863 1038.97,820.511L1064.14,820.511C1063.85,819.165 1063.52,817.831 1063.17,816.511L1039.35,816.511C1039.37,816.166 1039.37,815.82 1039.37,815.474C1039.37,814.484 1039.32,813.495 1039.23,812.511L1062,812.511C1061.57,811.163 1061.1,809.829 1060.61,808.511L1038.62,808.511C1038.32,807.154 1037.95,805.816 1037.5,804.511L1058.98,804.511C1058.39,803.16 1057.77,801.826 1057.11,800.511L1035.86,800.511C1035.19,799.116 1034.43,797.777 1033.6,796.511L1054.98,796.511C1054.2,795.156 1053.4,793.822 1052.56,792.511L1030.51,792.511C1030.32,792.301 1030.12,792.093 1029.92,791.89C1028.76,790.678 1027.46,789.545 1026.06,788.511L1049.82,788.511C1048.84,787.15 1047.81,785.817 1046.74,784.511L1018.97,784.511C1015.19,782.943 1011.08,782.043 1006.96,782.043C1002.85,782.043 998.738,782.943 994.956,784.511L912.887,784.511C914.001,783.147 915.158,781.813 916.355,780.511L1043.28,780.511C1042.48,779.641 1041.66,778.786 1040.82,777.945C1040.34,777.461 1039.86,776.983 1039.36,776.511L920.267,776.511C921.708,775.125 923.19,773.791 924.712,772.511L1034.92,772.511C1033.26,771.113 1031.55,769.778 1029.79,768.511L929.84,768.511C931.806,767.092 933.829,765.757 935.906,764.511L1023.73,764.511C1021.3,763.055 1018.8,761.719 1016.23,760.511L943.405,760.511C946.697,758.964 950.102,757.627 953.61,756.511L1006.02,756.511C997.811,753.902 989.035,752.511 979.814,752.511C970.595,752.511 961.819,753.902 953.61,756.511" style="fill:none;fill-rule:nonzero;stroke:rgb(36,36,36);stroke-width:1px;stroke-linejoin:miter;stroke-miterlimit:10;"/>
            <path d="M1374.95,1107.88C1374.95,1207.69 1326.75,1303.01 1212.77,1373.61C1105.86,1439.83 938.426,1484.47 695.463,1487.68C452.533,1490.89 280.806,1446.25 169.611,1378.38C51.386,1306.22 -0.951,1207.48 -0.951,1107.88L-0.951,402.874C-0.951,211.606 143.82,-1.712 681.463,-0.84C1038.45,-0.261 1214.52,75.552 1299.07,173.942C1358.24,242.782 1374.95,323.635 1374.95,402.874L1374.95,1107.88ZM1255.83,211.051C1177.45,119.85 1012.29,56.658 681.369,56.122C196.529,55.333 56.048,230.391 56.048,402.874L56.048,1107.88C56.048,1190.14 101.672,1270.17 199.319,1329.77C303.989,1393.65 466.034,1433.75 694.712,1430.72C923.719,1427.7 1081.97,1387.61 1182.74,1325.19C1276.45,1267.15 1317.95,1189.94 1317.95,1107.88L1317.95,402.874C1317.95,336.628 1305.29,268.607 1255.83,211.051Z" style="fill:none;stroke:rgb(36,36,36);stroke-width:1px;"/>
            <path d="M702.82,1280.19C701.219,1280.5 699.939,1280.7 699.034,1280.85C696.772,1281.21 691.665,1281.23 684.75,1280.19L702.82,1280.19C706.487,1279.49 711.838,1278.29 718.225,1276.19L667.933,1276.19C664.543,1275.1 660.996,1273.78 657.351,1272.19L728.824,1272.19C731.561,1271.02 734.398,1269.69 737.298,1268.19L649.064,1268.19C646.771,1266.97 644.456,1265.64 642.133,1264.19L744.45,1264.19C746.507,1262.95 748.581,1261.62 750.662,1260.19L636.138,1260.19C635.014,1259.39 633.89,1258.56 632.769,1257.7C632.126,1257.2 631.485,1256.7 630.845,1256.19L756.155,1256.19C757.798,1254.92 759.439,1253.59 761.072,1252.19L626.104,1252.19C624.665,1250.91 623.236,1249.58 621.822,1248.19L765.517,1248.19C766.881,1246.9 768.233,1245.57 769.57,1244.19L617.931,1244.19C616.734,1242.9 615.549,1241.57 614.38,1240.19L773.278,1240.19C774.425,1238.9 775.558,1237.56 776.676,1236.19L611.127,1236.19C610.117,1234.89 609.121,1233.56 608.139,1232.19L779.798,1232.19C780.77,1230.89 781.728,1229.56 782.67,1228.19L605.389,1228.19C604.53,1226.89 603.684,1225.56 602.853,1224.19L785.314,1224.19C786.14,1222.89 786.952,1221.55 787.749,1220.19L600.513,1220.19C599.778,1218.88 599.057,1217.55 598.35,1216.19L789.993,1216.19C790.696,1214.88 791.386,1213.55 792.06,1212.19L596.352,1212.19C595.724,1210.88 595.109,1209.55 594.506,1208.19L793.963,1208.19C794.561,1206.88 795.145,1205.55 795.714,1204.19L592.801,1204.19C592.264,1202.88 591.739,1201.55 591.227,1200.19L797.322,1200.19C797.827,1198.88 798.319,1197.55 798.797,1196.19L589.776,1196.19C589.319,1194.88 588.873,1193.54 588.44,1192.19L800.147,1192.19C800.57,1190.88 800.981,1189.54 801.378,1188.19L587.212,1188.19C586.825,1186.88 586.45,1185.54 586.086,1184.19L802.499,1184.19C802.849,1182.88 803.188,1181.54 803.514,1180.19L585.056,1180.19C584.732,1178.87 584.42,1177.54 584.118,1176.19L804.429,1176.19C804.714,1174.87 804.988,1173.54 805.249,1172.19L583.266,1172.19C582.999,1170.87 582.743,1169.54 582.497,1168.19L805.98,1168.19C806.206,1166.87 806.421,1165.54 806.624,1164.19L581.806,1164.19C581.591,1162.87 581.385,1161.54 581.19,1160.19L807.187,1160.19C807.359,1158.87 807.521,1157.54 807.671,1156.19L580.645,1156.19C580.477,1154.87 580.319,1153.54 580.17,1152.19L808.08,1152.19C808.203,1150.87 808.315,1149.54 808.417,1148.19L579.759,1148.19C579.634,1146.87 579.519,1145.54 579.412,1144.19L808.685,1144.19C808.763,1142.87 808.83,1141.54 808.887,1140.19L579.125,1140.19C579.04,1138.87 578.964,1137.54 578.896,1136.19L809.026,1136.19C809.061,1134.87 809.087,1133.54 809.103,1132.19L578.724,1132.19C578.676,1130.87 578.636,1129.54 578.605,1128.19L809.12,1128.19C809.117,1126.87 809.104,1125.54 809.081,1124.19L578.538,1124.19C578.527,1123.09 578.521,1121.98 578.521,1120.86L578.521,1120.86C578.521,1120.63 578.521,1120.41 578.522,1120.19L808.987,1120.19C808.947,1118.87 808.897,1117.54 808.839,1116.19L578.554,1116.19C578.572,1114.87 578.599,1113.54 578.633,1112.19L808.64,1112.19C808.605,1111.57 808.569,1110.95 808.53,1110.33C807.833,1109.61 807.129,1108.89 806.419,1108.19L578.914,1108.19C579.231,1106.87 579.839,1105.54 580.723,1104.19L802.176,1104.19C800.643,1102.81 799.083,1101.48 797.499,1100.19L584.117,1100.19C585.486,1098.87 587.099,1097.53 588.943,1096.19L792.305,1096.19C790.396,1094.8 788.455,1093.46 786.485,1092.19L595.071,1092.19C597.309,1090.86 599.753,1089.53 602.391,1088.19L779.881,1088.19C777.375,1086.77 774.83,1085.44 772.249,1084.19L611.007,1084.19C614.306,1082.79 617.79,1081.45 621.439,1080.19L763.186,1080.19C759.481,1078.71 755.717,1077.38 751.907,1076.19L634.474,1076.19C640.113,1074.67 646.034,1073.32 652.183,1072.19L736.402,1072.19C723.034,1069.41 709.319,1068.19 695.75,1068.19L695.75,1068.19" style="fill:none;fill-rule:nonzero;stroke:rgb(36,36,36);stroke-width:1px;stroke-linejoin:miter;stroke-miterlimit:10;"/>
            <path d="M699.668,1284.8C713.675,1282.55 822.065,1264.04 812.429,1108.62C734.897,1027.52 575.558,1075.87 574.673,1110.67C570.446,1276.79 685.661,1287.05 699.668,1284.8Z" style="fill:none;stroke:rgb(36,36,36);stroke-width:1px;"/>
            <path d="M694.765,1434.72C727.577,1434.28 758.953,1433.08 788.93,1431.16L1074.81,1431.16C1078.91,1429.84 1082.96,1428.51 1086.96,1427.16L839.041,1427.16C851.519,1425.95 863.731,1424.62 875.68,1423.16L1098.48,1423.16C1102.17,1421.84 1105.81,1420.51 1109.42,1419.16L905.474,1419.16C914.104,1417.89 922.587,1416.56 930.924,1415.16L1119.83,1415.16C1123.18,1413.84 1126.49,1412.51 1129.77,1411.16L953.299,1411.16C960.083,1409.87 966.765,1408.54 973.347,1407.16L1139.26,1407.16C1142.32,1405.84 1145.34,1404.5 1148.34,1403.16L991.553,1403.16C997.198,1401.86 1002.76,1400.53 1008.25,1399.16L1157.04,1399.16C1159.85,1397.84 1162.63,1396.5 1165.38,1395.16L1023.69,1395.16C1028.55,1393.85 1033.33,1392.52 1038.06,1391.16L1173.39,1391.16C1175.99,1389.83 1178.56,1388.5 1181.09,1387.16L1051.49,1387.16C1055.74,1385.85 1059.94,1384.51 1064.1,1383.16L1188.5,1383.16C1190.91,1381.83 1193.29,1380.5 1195.64,1379.16L1075.97,1379.16C1079.77,1377.84 1083.51,1376.51 1087.2,1375.16L1202.51,1375.16C1204.74,1373.83 1206.95,1372.5 1209.13,1371.16L1097.84,1371.16C1101.25,1369.84 1104.62,1368.51 1107.94,1367.16L1215.55,1367.16C1217.64,1365.83 1219.71,1364.5 1221.76,1363.16L1117.56,1363.16C1120.65,1361.84 1123.7,1360.51 1126.72,1359.16L1227.76,1359.16C1229.71,1357.83 1231.64,1356.5 1233.56,1355.16L1135.46,1355.16C1138.28,1353.84 1141.07,1352.5 1143.82,1351.16L1239.16,1351.16C1240.99,1349.83 1242.79,1348.5 1244.58,1347.16L1151.82,1347.16C1154.41,1345.84 1156.96,1344.5 1159.48,1343.16L1249.82,1343.16C1251.52,1341.83 1253.21,1340.5 1254.88,1339.16L1166.83,1339.16C1169.21,1337.83 1171.56,1336.5 1173.88,1335.16L1259.79,1335.16C1261.38,1333.83 1262.97,1332.5 1264.53,1331.16L1180.65,1331.16C1182.06,1330.31 1183.46,1329.45 1184.85,1328.59C1185.62,1328.12 1186.38,1327.64 1187.14,1327.16L1269.12,1327.16C1270.62,1325.83 1272.1,1324.5 1273.56,1323.16L1193.35,1323.16C1195.36,1321.83 1197.35,1320.5 1199.31,1319.16L1277.86,1319.16C1279.26,1317.83 1280.65,1316.5 1282.02,1315.16L1205.05,1315.16C1206.91,1313.83 1208.75,1312.5 1210.56,1311.16L1286.04,1311.16C1287.36,1309.83 1288.66,1308.49 1289.94,1307.16L1215.87,1307.16C1217.6,1305.83 1219.3,1304.5 1220.98,1303.16L1293.71,1303.16C1294.94,1301.83 1296.15,1300.49 1297.35,1299.16L1225.9,1299.16C1227.5,1297.83 1229.08,1296.5 1230.64,1295.16L1300.88,1295.16C1302.03,1293.83 1303.17,1292.49 1304.29,1291.16L1235.2,1291.16C1236.69,1289.83 1238.15,1288.5 1239.6,1287.16L1307.59,1287.16C1308.67,1285.83 1309.73,1284.49 1310.78,1283.16L1243.83,1283.16C1245.21,1281.83 1246.57,1280.5 1247.91,1279.16L1313.86,1279.16C1314.87,1277.83 1315.86,1276.49 1316.84,1275.16L1251.83,1275.16C1253.11,1273.83 1254.37,1272.5 1255.62,1271.16L1319.71,1271.16C1320.65,1269.83 1321.58,1268.49 1322.49,1267.16L1259.26,1267.16C1260.44,1265.83 1261.61,1264.5 1262.76,1263.16L1325.17,1263.16C1326.05,1261.83 1326.91,1260.49 1327.76,1259.16L1266.14,1259.16C1267.24,1257.83 1268.32,1256.49 1269.38,1255.16L1330.25,1255.16C1331.07,1253.83 1331.87,1252.49 1332.65,1251.16L1272.5,1251.16C1273.52,1249.83 1274.52,1248.49 1275.51,1247.16L1334.97,1247.16C1335.73,1245.83 1336.47,1244.49 1337.2,1243.16L1278.39,1243.16C1279.33,1241.83 1280.25,1240.49 1281.16,1239.16L1339.34,1239.16C1340.04,1237.83 1340.73,1236.49 1341.4,1235.16L1283.82,1235.16C1284.68,1233.83 1285.53,1232.49 1286.37,1231.16L1343.38,1231.16C1344.03,1229.83 1344.66,1228.49 1345.28,1227.16L1288.81,1227.16C1289.61,1225.83 1290.39,1224.49 1291.15,1223.16L1347.1,1223.16C1347.69,1221.83 1348.27,1220.49 1348.84,1219.16L1293.39,1219.16C1294.12,1217.83 1294.84,1216.49 1295.54,1215.16L1350.51,1215.16C1351.06,1213.83 1351.59,1212.49 1352.11,1211.16L1297.58,1211.16C1298.25,1209.83 1298.9,1208.49 1299.53,1207.16L1353.63,1207.16C1354.12,1205.83 1354.61,1204.49 1355.08,1203.16L1301.39,1203.16C1302,1201.83 1302.59,1200.49 1303.16,1199.16L1356.46,1199.16C1356.9,1197.83 1357.34,1196.49 1357.77,1195.16L1304.84,1195.16C1305.38,1193.83 1305.91,1192.49 1306.43,1191.16L1359.01,1191.16C1359.41,1189.83 1359.8,1188.49 1360.18,1187.16L1307.94,1187.16C1308.42,1185.83 1308.9,1184.49 1309.36,1183.16L1361.29,1183.16C1361.65,1181.83 1362,1180.49 1362.34,1179.16L1310.7,1179.16C1311.13,1177.83 1311.55,1176.49 1311.96,1175.16L1363.32,1175.16C1363.63,1173.83 1363.94,1172.49 1364.23,1171.16L1313.13,1171.16C1313.51,1169.83 1313.88,1168.49 1314.23,1167.16L1365.09,1167.16C1365.36,1165.82 1365.63,1164.49 1365.88,1163.16L1315.26,1163.16C1315.58,1161.83 1315.9,1160.49 1316.2,1159.16L1366.61,1159.16C1366.85,1157.82 1367.07,1156.49 1367.29,1155.16L1317.07,1155.16C1317.35,1153.83 1317.61,1152.49 1317.87,1151.16L1367.9,1151.16C1368.09,1149.82 1368.28,1148.49 1368.45,1147.16L1318.59,1147.16C1318.82,1145.82 1319.03,1144.49 1319.24,1143.16L1368.95,1143.16C1369.11,1141.82 1369.26,1140.49 1369.39,1139.16L1319.81,1139.16C1319.99,1137.82 1320.16,1136.49 1320.32,1135.16L1369.78,1135.16C1369.9,1133.82 1370.01,1132.49 1370.11,1131.16L1320.76,1131.16C1320.89,1129.82 1321.01,1128.49 1321.12,1127.16L1370.38,1127.16C1370.46,1125.82 1370.54,1124.49 1370.6,1123.16L1321.42,1123.16C1321.51,1121.82 1321.59,1120.49 1321.66,1119.16L1370.77,1119.16C1370.81,1117.82 1370.85,1116.49 1370.88,1115.16L1321.82,1115.16C1321.87,1113.82 1321.9,1112.49 1321.92,1111.16L1370.94,1111.16C1370.95,1110.29 1370.95,1109.42 1370.95,1108.56L1370.95,1108.56C1370.95,1108.33 1370.95,1108.11 1370.95,1107.88L1370.95,1107.16L1321.95,1107.16L1321.95,1103.16L1370.95,1103.16L1370.95,1099.16L1321.95,1099.16L1321.95,1095.16L1370.95,1095.16L1370.95,1091.16L1321.95,1091.16L1321.95,1087.16L1370.95,1087.16L1370.95,1083.16L1321.95,1083.16L1321.95,1079.16L1370.95,1079.16L1370.95,1075.16L1321.95,1075.16L1321.95,1071.16L1370.95,1071.16L1370.95,1067.16L1321.95,1067.16L1321.95,1063.16L1370.95,1063.16L1370.95,1059.16L1321.95,1059.16L1321.95,1055.16L1370.95,1055.16L1370.95,1051.16L1321.95,1051.16L1321.95,1047.16L1370.95,1047.16L1370.95,1043.16L1321.95,1043.16L1321.95,1039.16L1370.95,1039.16L1370.95,1035.16L1321.95,1035.16L1321.95,1031.16L1370.95,1031.16L1370.95,1027.16L1321.95,1027.16L1321.95,1023.16L1370.95,1023.16L1370.95,1019.16L1321.95,1019.16L1321.95,1015.16L1370.95,1015.16L1370.95,1011.16L1321.95,1011.16L1321.95,1007.16L1370.95,1007.16L1370.95,1003.16L1321.95,1003.16L1321.95,999.156L1370.95,999.156L1370.95,995.156L1321.95,995.156L1321.95,991.156L1370.95,991.156L1370.95,987.156L1321.95,987.156L1321.95,983.156L1370.95,983.156L1370.95,979.156L1321.95,979.156L1321.95,975.156L1370.95,975.156L1370.95,971.156L1321.95,971.156L1321.95,967.156L1370.95,967.156L1370.95,963.156L1321.95,963.156L1321.95,959.156L1370.95,959.156L1370.95,955.156L1321.95,955.156L1321.95,951.156L1370.95,951.156L1370.95,947.156L1321.95,947.156L1321.95,943.156L1370.95,943.156L1370.95,939.156L1321.95,939.156L1321.95,935.156L1370.95,935.156L1370.95,931.156L1321.95,931.156L1321.95,927.156L1370.95,927.156L1370.95,923.156L1321.95,923.156L1321.95,919.156L1370.95,919.156L1370.95,915.156L1321.95,915.156L1321.95,911.156L1370.95,911.156L1370.95,907.156L1321.95,907.156L1321.95,903.156L1370.95,903.156L1370.95,899.156L1321.95,899.156L1321.95,895.156L1370.95,895.156L1370.95,891.156L1321.95,891.156L1321.95,887.156L1370.95,887.156L1370.95,883.156L1321.95,883.156L1321.95,879.156L1370.95,879.156L1370.95,875.156L1321.95,875.156L1321.95,871.156L1370.95,871.156L1370.95,867.156L1321.95,867.156L1321.95,863.156L1370.95,863.156L1370.95,859.156L1321.95,859.156L1321.95,855.156L1370.95,855.156L1370.95,851.156L1321.95,851.156L1321.95,847.156L1370.95,847.156L1370.95,843.156L1321.95,843.156L1321.95,839.156L1370.95,839.156L1370.95,835.156L1321.95,835.156L1321.95,831.156L1370.95,831.156L1370.95,827.156L1321.95,827.156L1321.95,823.156L1370.95,823.156L1370.95,819.156L1321.95,819.156L1321.95,815.156L1370.95,815.156L1370.95,811.156L1321.95,811.156L1321.95,807.156L1370.95,807.156L1370.95,803.156L1321.95,803.156L1321.95,799.156L1370.95,799.156L1370.95,795.156L1321.95,795.156L1321.95,791.156L1370.95,791.156L1370.95,787.156L1321.95,787.156L1321.95,783.156L1370.95,783.156L1370.95,779.156L1321.95,779.156L1321.95,775.156L1370.95,775.156L1370.95,771.156L1321.95,771.156L1321.95,767.156L1370.95,767.156L1370.95,763.156L1321.95,763.156L1321.95,759.156L1370.95,759.156L1370.95,755.156L1321.95,755.156L1321.95,751.156L1370.95,751.156L1370.95,747.156L1321.95,747.156L1321.95,743.156L1370.95,743.156L1370.95,739.156L1321.95,739.156L1321.95,735.156L1370.95,735.156L1370.95,731.156L1321.95,731.156L1321.95,727.156L1370.95,727.156L1370.95,723.156L1321.95,723.156L1321.95,719.156L1370.95,719.156L1370.95,715.156L1321.95,715.156L1321.95,711.156L1370.95,711.156L1370.95,707.156L1321.95,707.156L1321.95,703.156L1370.95,703.156L1370.95,699.156L1321.95,699.156L1321.95,695.156L1370.95,695.156L1370.95,691.156L1321.95,691.156L1321.95,687.156L1370.95,687.156L1370.95,683.156L1321.95,683.156L1321.95,679.156L1370.95,679.156L1370.95,675.156L1321.95,675.156L1321.95,671.156L1370.95,671.156L1370.95,667.156L1321.95,667.156L1321.95,663.156L1370.95,663.156L1370.95,659.156L1321.95,659.156L1321.95,655.156L1370.95,655.156L1370.95,651.156L1321.95,651.156L1321.95,647.156L1370.95,647.156L1370.95,643.156L1321.95,643.156L1321.95,639.156L1370.95,639.156L1370.95,635.156L1321.95,635.156L1321.95,631.156L1370.95,631.156L1370.95,627.156L1321.95,627.156L1321.95,623.156L1370.95,623.156L1370.95,619.156L1321.95,619.156L1321.95,615.156L1370.95,615.156L1370.95,611.156L1321.95,611.156L1321.95,607.156L1370.95,607.156L1370.95,603.156L1321.95,603.156L1321.95,599.156L1370.95,599.156L1370.95,595.156L1321.95,595.156L1321.95,591.156L1370.95,591.156L1370.95,587.156L1321.95,587.156L1321.95,583.156L1370.95,583.156L1370.95,579.156L1321.95,579.156L1321.95,575.156L1370.95,575.156L1370.95,571.156L1321.95,571.156L1321.95,567.156L1370.95,567.156L1370.95,563.156L1321.95,563.156L1321.95,559.156L1370.95,559.156L1370.95,555.156L1321.95,555.156L1321.95,551.156L1370.95,551.156L1370.95,547.156L1321.95,547.156L1321.95,543.156L1370.95,543.156L1370.95,539.156L1321.95,539.156L1321.95,535.156L1370.95,535.156L1370.95,531.156L1321.95,531.156L1321.95,527.156L1370.95,527.156L1370.95,523.156L1321.95,523.156L1321.95,519.156L1370.95,519.156L1370.95,515.156L1321.95,515.156L1321.95,511.156L1370.95,511.156L1370.95,507.156L1321.95,507.156L1321.95,503.156L1370.95,503.156L1370.95,499.156L1321.95,499.156L1321.95,495.156L1370.95,495.156L1370.95,491.156L1321.95,491.156L1321.95,487.156L1370.95,487.156L1370.95,483.156L1321.95,483.156L1321.95,479.156L1370.95,479.156L1370.95,475.156L1321.95,475.156L1321.95,471.156L1370.95,471.156L1370.95,467.156L1321.95,467.156L1321.95,463.156L1370.95,463.156L1370.95,459.156L1321.95,459.156L1321.95,455.156L1370.95,455.156L1370.95,451.156L1321.95,451.156L1321.95,447.156L1370.95,447.156L1370.95,443.156L1321.95,443.156L1321.95,439.156L1370.95,439.156L1370.95,435.156L1321.95,435.156L1321.95,431.156L1370.95,431.156L1370.95,427.156L1321.95,427.156L1321.95,423.156L1370.95,423.156L1370.95,419.156L1321.95,419.156L1321.95,415.156L1370.95,415.156L1370.95,411.156L1321.95,411.156L1321.95,407.156L1370.95,407.156L1370.95,403.156L1321.95,403.156L1321.95,402.874C1321.95,401.636 1321.94,400.396 1321.93,399.156L1370.94,399.156C1370.93,397.823 1370.92,396.489 1370.9,395.156L1321.89,395.156C1321.87,393.824 1321.84,392.49 1321.81,391.156L1370.83,391.156C1370.8,389.823 1370.77,388.489 1370.73,387.156L1321.69,387.156C1321.64,385.823 1321.59,384.49 1321.54,383.156L1370.61,383.156C1370.56,381.823 1370.5,380.489 1370.44,379.156L1321.35,379.156C1321.28,377.823 1321.21,376.49 1321.12,375.156L1370.25,375.156C1370.18,373.822 1370.11,372.489 1370.03,371.156L1320.86,371.156C1320.77,369.823 1320.66,368.49 1320.56,367.156L1369.76,367.156C1369.67,365.822 1369.57,364.489 1369.47,363.156L1320.21,363.156C1320.09,361.823 1319.96,360.489 1319.82,359.156L1369.14,359.156C1369.02,357.822 1368.9,356.489 1368.77,355.156L1319.39,355.156C1319.24,353.822 1319.09,352.489 1318.92,351.156L1368.37,351.156C1368.22,349.822 1368.08,348.489 1367.92,347.156L1318.4,347.156C1318.22,345.822 1318.03,344.489 1317.83,343.156L1367.44,343.156C1367.27,341.822 1367.1,340.489 1366.91,339.156L1317.22,339.156C1317,337.822 1316.78,336.489 1316.55,335.156L1366.35,335.156C1366.15,333.822 1365.95,332.489 1365.74,331.156L1315.84,331.156C1315.59,329.822 1315.33,328.488 1315.07,327.156L1365.09,327.156C1364.87,325.822 1364.64,324.488 1364.4,323.156L1314.24,323.156C1313.96,321.822 1313.67,320.488 1313.37,319.156L1363.66,319.156C1363.41,317.822 1363.14,316.488 1362.88,315.156L1312.43,315.156C1312.11,313.821 1311.78,312.488 1311.44,311.156L1362.04,311.156C1361.76,309.821 1361.46,308.488 1361.16,307.156L1310.38,307.156C1310.02,305.821 1309.65,304.488 1309.27,303.156L1360.23,303.156C1359.91,301.821 1359.58,300.488 1359.25,299.156L1308.09,299.156C1307.68,297.821 1307.27,296.488 1306.84,295.156L1358.21,295.156C1357.86,293.821 1357.5,292.488 1357.12,291.156L1305.53,291.156C1305.08,289.821 1304.62,288.487 1304.15,287.156L1355.98,287.156C1355.59,285.821 1355.19,284.488 1354.78,283.156L1302.69,283.156C1302.2,281.82 1301.69,280.487 1301.16,279.156L1353.53,279.156C1353.1,277.821 1352.66,276.488 1352.21,275.156L1299.56,275.156C1299.01,273.82 1298.45,272.487 1297.88,271.156L1350.84,271.156C1350.37,269.821 1349.89,268.487 1349.4,267.156L1296.11,267.156C1295.51,265.82 1294.89,264.486 1294.27,263.156L1347.9,263.156C1347.39,261.821 1346.87,260.487 1346.33,259.156L1292.33,259.156C1291.67,257.82 1291,256.486 1290.31,255.156L1344.7,255.156C1344.15,253.82 1343.58,252.487 1343,251.156L1288.19,251.156C1287.47,249.819 1286.73,248.486 1285.98,247.156L1341.23,247.156C1340.63,245.82 1340.01,244.487 1339.39,243.156L1283.67,243.156C1282.88,241.819 1282.07,240.485 1281.25,239.156L1337.47,239.156C1336.82,237.82 1336.15,236.487 1335.48,235.156L1278.73,235.156C1277.87,233.818 1277,232.485 1276.1,231.156L1333.41,231.156C1332.7,229.82 1331.99,228.487 1331.26,227.156L1273.36,227.156C1272.42,225.818 1271.47,224.485 1270.5,223.156L1329.03,223.156C1328.27,221.82 1327.49,220.486 1326.71,219.156L1267.51,219.156C1266.49,217.818 1265.45,216.484 1264.39,215.156L1324.3,215.156C1323.48,213.819 1322.65,212.486 1321.81,211.156L1261.15,211.156C1260.39,210.25 1259.63,209.346 1258.87,208.444C1258.5,208.014 1258.12,207.585 1257.75,207.156L1319.22,207.156C1318.34,205.819 1317.44,204.486 1316.54,203.156L1254.18,203.156C1252.96,201.816 1251.72,200.483 1250.46,199.156L1313.76,199.156C1312.81,197.819 1311.85,196.486 1310.87,195.156L1246.58,195.156C1245.26,193.816 1243.91,192.483 1242.55,191.156L1307.89,191.156C1306.87,189.819 1305.84,188.485 1304.79,187.156L1238.34,187.156C1236.9,185.815 1235.44,184.482 1233.95,183.156L1301.59,183.156C1300.5,181.818 1299.39,180.485 1298.27,179.156L1229.38,179.156C1227.82,177.815 1226.23,176.481 1224.61,175.156L1294.84,175.156C1293.68,173.818 1292.5,172.485 1291.31,171.156L1219.64,171.156C1217.94,169.814 1216.21,168.481 1214.45,167.156L1287.64,167.156C1286.4,165.818 1285.13,164.485 1283.85,163.156L1209.03,163.156C1207.17,161.813 1205.29,160.48 1203.37,159.156L1279.91,159.156C1278.58,157.818 1277.21,156.484 1275.84,155.156L1197.46,155.156C1195.43,153.812 1193.37,152.479 1191.27,151.156L1271.61,151.156C1270.17,149.817 1268.7,148.484 1267.22,147.156L1184.8,147.156C1182.58,145.811 1180.32,144.478 1178.02,143.156L1262.67,143.156C1261.12,141.817 1259.55,140.483 1257.95,139.156L1170.92,139.156C1168.47,137.81 1165.98,136.477 1163.46,135.156L1253.05,135.156C1251.38,133.816 1249.69,132.483 1247.97,131.156L1155.63,131.156C1152.92,129.808 1150.17,128.475 1147.39,127.156L1242.69,127.156C1240.88,125.815 1239.06,124.482 1237.2,123.156L1138.71,123.156C1135.7,121.807 1132.65,120.473 1129.55,119.156L1231.5,119.156C1229.55,117.815 1227.58,116.481 1225.57,115.156L1119.87,115.156C1116.51,113.804 1113.09,112.471 1109.62,111.156L1219.4,111.156C1217.29,109.814 1215.15,108.48 1212.98,107.156L1098.74,107.156C1094.93,105.801 1091.07,104.468 1087.15,103.156L1206.29,103.156C1204,101.813 1201.68,100.479 1199.32,99.156L1074.77,99.156C1070.42,97.797 1065.99,96.463 1061.5,95.156L1192.04,95.156C1189.55,93.812 1187.01,92.478 1184.44,91.156L1047.2,91.156C1042.13,89.791 1036.97,88.457 1031.72,87.156L1176.5,87.156C1173.77,85.81 1171,84.477 1168.19,83.156L1014.85,83.156C1008.78,81.781 1002.59,80.447 996.294,79.156L1159.47,79.156C1156.47,77.809 1153.42,76.475 1150.33,75.156L975.672,75.156C968.077,73.764 960.325,72.43 952.412,71.156L1140.72,71.156C1137.39,69.806 1134.02,68.473 1130.6,67.156L925.62,67.156C915.257,65.726 904.636,64.392 893.752,63.156L1119.92,63.156C1116.21,61.804 1112.45,60.47 1108.63,59.156L853.639,59.156C867.392,60.346 880.76,61.681 893.752,63.156" style="fill:none;fill-rule:nonzero;stroke:rgb(36,36,36);stroke-width:1px;stroke-linejoin:miter;stroke-miterlimit:10;"/>
            <path d="M621.13,1483.16C645.102,1483.84 669.858,1484.03 695.41,1483.68C704.475,1483.56 713.433,1483.39 722.286,1483.16L621.13,1483.16C594.942,1482.41 569.689,1481.06 545.354,1479.16L805.072,1479.16C820.892,1478.02 836.328,1476.68 851.385,1475.16L502.791,1475.16C491.773,1473.94 480.959,1472.61 470.346,1471.16L886.554,1471.16C896.423,1469.91 906.117,1468.57 915.64,1467.16L443.425,1467.16C435.539,1465.89 427.772,1464.56 420.122,1463.16L940.742,1463.16C948.264,1461.88 955.673,1460.54 962.97,1459.16L399.429,1459.16C393.114,1457.87 386.884,1456.53 380.736,1455.16L982.998,1455.16C989.173,1453.86 995.263,1452.53 1001.27,1451.16L363.64,1451.16C358.315,1449.86 353.054,1448.52 347.859,1447.16L1018.1,1447.16C1023.37,1445.85 1028.57,1444.52 1033.71,1443.16L333.184,1443.16C328.555,1441.85 323.98,1440.52 319.459,1439.16L1048.28,1439.16C1052.89,1437.85 1057.44,1436.51 1061.94,1435.16L306.56,1435.16C302.458,1433.85 298.401,1432.51 294.39,1431.16L560.72,1431.16C545.023,1430.06 529.715,1428.72 514.79,1427.16L282.869,1427.16C279.183,1425.84 275.537,1424.51 271.931,1423.16L481.1,1423.16C471.777,1421.91 462.615,1420.58 453.613,1419.16L261.52,1419.16C258.175,1417.84 254.865,1416.51 251.591,1415.16L430.061,1415.16C423.036,1413.88 416.113,1412.55 409.294,1411.16L242.102,1411.16C239.042,1409.84 236.014,1408.5 233.019,1407.16L390.635,1407.16C384.895,1405.86 379.232,1404.53 373.646,1403.16L224.313,1403.16C221.497,1401.84 218.712,1400.5 215.955,1399.16L358.021,1399.16C353.133,1397.85 348.306,1396.52 343.54,1395.16L207.925,1395.16C205.322,1393.83 202.747,1392.5 200.199,1391.16L330.037,1391.16C325.768,1389.85 321.55,1388.52 317.383,1387.16L192.76,1387.16C190.345,1385.83 187.956,1384.5 185.592,1383.16L305.475,1383.16C301.683,1381.84 297.934,1380.51 294.23,1379.16L178.679,1379.16C176.431,1377.83 174.207,1376.5 172.007,1375.16L283.58,1375.16C280.17,1373.84 276.8,1372.51 273.468,1371.16L165.526,1371.16C163.415,1369.83 161.327,1368.5 159.26,1367.16L263.845,1367.16C260.752,1365.84 257.693,1364.51 254.67,1363.16L153.2,1363.16C151.225,1361.83 149.271,1360.5 147.338,1359.16L245.908,1359.16C243.082,1357.84 240.289,1356.5 237.527,1355.16L141.665,1355.16C139.814,1353.83 137.983,1352.5 136.173,1351.16L229.501,1351.16C226.907,1349.84 224.341,1348.5 221.805,1347.16L130.855,1347.16C129.119,1345.83 127.402,1344.5 125.704,1343.16L214.419,1343.16C212.027,1341.83 209.662,1340.5 207.324,1339.16L120.715,1339.16C119.085,1337.83 117.474,1336.5 115.881,1335.16L200.502,1335.16C199.407,1334.5 198.318,1333.84 197.235,1333.18C196.137,1332.51 195.045,1331.84 193.96,1331.16L111.196,1331.16C109.666,1329.83 108.152,1328.5 106.656,1327.16L187.686,1327.16C185.649,1325.83 183.636,1324.5 181.647,1323.16L102.257,1323.16C100.819,1321.83 99.397,1320.5 97.993,1319.16L175.83,1319.16C173.939,1317.83 172.07,1316.5 170.224,1315.16L93.86,1315.16C92.508,1313.83 91.173,1312.49 89.854,1311.16L164.82,1311.16C163.062,1309.83 161.325,1308.5 159.609,1307.16L85.972,1307.16C84.702,1305.83 83.448,1304.49 82.209,1303.16L154.582,1303.16C152.945,1301.83 151.328,1300.5 149.732,1299.16L78.564,1299.16C77.372,1297.83 76.195,1296.49 75.032,1295.16L145.052,1295.16C143.527,1293.83 142.022,1292.5 140.535,1291.16L71.611,1291.16C70.492,1289.83 69.387,1288.49 68.297,1287.16L136.176,1287.16C134.755,1285.83 133.353,1284.5 131.969,1283.16L65.089,1283.16C64.039,1281.83 63.004,1280.49 61.983,1279.16L127.908,1279.16C126.584,1277.83 125.278,1276.5 123.989,1275.16L58.977,1275.16C57.994,1273.83 57.024,1272.49 56.069,1271.16L120.208,1271.16C118.975,1269.83 117.758,1268.5 116.559,1267.16L53.256,1267.16C52.337,1265.83 51.43,1264.49 50.537,1263.16L113.04,1263.16C111.892,1261.83 110.761,1260.49 109.646,1259.16L47.91,1259.16C47.051,1257.83 46.205,1256.49 45.372,1255.16L106.374,1255.16C105.307,1253.83 104.256,1252.49 103.221,1251.16L42.923,1251.16C42.122,1249.83 41.334,1248.49 40.559,1247.16L100.184,1247.16C99.194,1245.83 98.219,1244.49 97.259,1243.16L38.28,1243.16C37.536,1241.83 36.804,1240.49 36.084,1239.16L94.445,1239.16C93.527,1237.83 92.625,1236.49 91.738,1235.16L33.969,1235.16C33.279,1233.83 32.601,1232.49 31.935,1231.16L89.136,1231.16C88.288,1229.83 87.456,1228.49 86.637,1227.16L29.979,1227.16C29.341,1225.83 28.715,1224.49 28.101,1223.16L84.239,1223.16C83.458,1221.83 82.692,1220.49 81.94,1219.16L26.299,1219.16C25.711,1217.83 25.136,1216.49 24.571,1215.16L79.737,1215.16C79.02,1213.83 78.317,1212.49 77.629,1211.16L22.918,1211.16C22.38,1209.83 21.853,1208.49 21.337,1207.16L75.614,1207.16C74.96,1205.83 74.319,1204.49 73.691,1203.16L19.828,1203.16C19.338,1201.83 18.858,1200.49 18.39,1199.16L71.859,1199.16C71.264,1197.83 70.682,1196.49 70.114,1195.16L17.021,1195.16C16.577,1193.82 16.144,1192.49 15.721,1191.16L68.457,1191.16C67.92,1189.83 67.397,1188.49 66.886,1187.16L14.489,1187.16C14.09,1185.82 13.702,1184.49 13.324,1183.16L65.4,1183.16C64.919,1181.83 64.451,1180.49 63.997,1179.16L12.225,1179.16C11.871,1177.82 11.526,1176.49 11.192,1175.16L62.677,1175.16C62.251,1173.83 61.838,1172.49 61.438,1171.16L10.224,1171.16C9.912,1169.82 9.611,1168.49 9.32,1167.16L60.279,1167.16C59.907,1165.82 59.547,1164.49 59.2,1163.16L8.479,1163.16C8.209,1161.82 7.95,1160.49 7.7,1159.16L58.2,1159.16C57.88,1157.82 57.573,1156.49 57.278,1155.16L6.984,1155.16C6.756,1153.82 6.538,1152.49 6.33,1151.16L56.432,1151.16C56.164,1149.82 55.907,1148.49 55.663,1147.16L5.736,1147.16C5.549,1145.82 5.371,1144.49 5.203,1143.16L54.97,1143.16C54.752,1141.82 54.546,1140.49 54.352,1139.16L4.73,1139.16C4.583,1137.82 4.445,1136.49 4.317,1135.16L53.808,1135.16C53.639,1133.82 53.483,1132.49 53.338,1131.16L3.962,1131.16C3.854,1129.82 3.755,1128.49 3.666,1127.16L52.942,1127.16C52.822,1125.82 52.714,1124.49 52.618,1123.16L3.428,1123.16C3.359,1121.82 3.299,1120.49 3.248,1119.16L52.368,1119.16C52.296,1117.82 52.237,1116.49 52.189,1115.16L3.126,1115.16C3.095,1113.82 3.073,1112.49 3.061,1111.16L52.082,1111.16C52.063,1110.07 52.051,1108.98 52.048,1107.88L52.048,1107.16L3.049,1107.16L3.049,1103.16L52.048,1103.16L52.048,1099.16L3.049,1099.16L3.049,1095.16L52.048,1095.16L52.048,1091.16L3.049,1091.16L3.049,1087.16L52.048,1087.16L52.048,1083.16L3.049,1083.16L3.049,1079.16L52.048,1079.16L52.048,1075.16L3.049,1075.16L3.049,1071.16L52.048,1071.16L52.048,1067.16L3.049,1067.16L3.049,1063.16L52.048,1063.16L52.048,1059.16L3.049,1059.16L3.049,1055.16L52.048,1055.16L52.048,1051.16L3.049,1051.16L3.049,1047.16L52.048,1047.16L52.048,1043.16L3.049,1043.16L3.049,1039.16L52.048,1039.16L52.048,1035.16L3.049,1035.16L3.049,1031.16L52.048,1031.16L52.048,1027.16L3.049,1027.16L3.049,1023.16L52.048,1023.16L52.048,1019.16L3.049,1019.16L3.049,1015.16L52.048,1015.16L52.048,1011.16L3.049,1011.16L3.049,1007.16L52.048,1007.16L52.048,1003.16L3.049,1003.16L3.049,999.156L52.048,999.156L52.048,995.156L3.049,995.156L3.049,991.156L52.048,991.156L52.048,987.156L3.049,987.156L3.049,983.156L52.048,983.156L52.048,979.156L3.049,979.156L3.049,975.156L52.048,975.156L52.048,971.156L3.049,971.156L3.049,967.156L52.048,967.156L52.048,963.156L3.049,963.156L3.049,959.156L52.048,959.156L52.048,955.156L3.049,955.156L3.049,951.156L52.048,951.156L52.048,947.156L3.049,947.156L3.049,943.156L52.048,943.156L52.048,939.156L3.049,939.156L3.049,935.156L52.048,935.156L52.048,931.156L3.049,931.156L3.049,927.156L52.048,927.156L52.048,923.156L3.049,923.156L3.049,919.156L52.048,919.156L52.048,915.156L3.049,915.156L3.049,911.156L52.048,911.156L52.048,907.156L3.049,907.156L3.049,903.156L52.048,903.156L52.048,899.156L3.049,899.156L3.049,895.156L52.048,895.156L52.048,891.156L3.049,891.156L3.049,887.156L52.048,887.156L52.048,883.156L3.049,883.156L3.049,879.156L52.048,879.156L52.048,875.156L3.049,875.156L3.049,871.156L52.048,871.156L52.048,867.156L3.049,867.156L3.049,863.156L52.048,863.156L52.048,859.156L3.049,859.156L3.049,855.156L52.048,855.156L52.048,851.156L3.049,851.156L3.049,847.156L52.048,847.156L52.048,843.156L3.049,843.156L3.049,839.156L52.048,839.156L52.048,835.156L3.049,835.156L3.049,831.156L52.048,831.156L52.048,827.156L3.049,827.156L3.049,823.156L52.048,823.156L52.048,819.156L3.049,819.156L3.049,815.156L52.048,815.156L52.048,811.156L3.049,811.156L3.049,807.156L52.048,807.156L52.048,803.156L3.049,803.156L3.049,799.156L52.048,799.156L52.048,795.156L3.049,795.156L3.049,791.156L52.048,791.156L52.048,787.156L3.049,787.156L3.049,783.156L52.048,783.156L52.048,779.156L3.049,779.156L3.049,775.156L52.048,775.156L52.048,771.156L3.049,771.156L3.049,767.156L52.048,767.156L52.048,763.156L3.049,763.156L3.049,759.156L52.048,759.156L52.048,755.156L3.049,755.156L3.049,751.156L52.048,751.156L52.048,747.156L3.049,747.156L3.049,743.156L52.048,743.156L52.048,739.156L3.049,739.156L3.049,735.156L52.048,735.156L52.048,731.156L3.049,731.156L3.049,727.156L52.048,727.156L52.048,723.156L3.049,723.156L3.049,719.156L52.048,719.156L52.048,715.156L3.049,715.156L3.049,711.156L52.048,711.156L52.048,707.156L3.049,707.156L3.049,703.156L52.048,703.156L52.048,699.156L3.049,699.156L3.049,695.156L52.048,695.156L52.048,691.156L3.049,691.156L3.049,687.156L52.048,687.156L52.048,683.156L3.049,683.156L3.049,679.156L52.048,679.156L52.048,675.156L3.049,675.156L3.049,671.156L52.048,671.156L52.048,667.156L3.049,667.156L3.049,663.156L52.048,663.156L52.048,659.156L3.049,659.156L3.049,655.156L52.048,655.156L52.048,651.156L3.049,651.156L3.049,647.156L52.048,647.156L52.048,643.156L3.049,643.156L3.049,639.156L52.048,639.156L52.048,635.156L3.049,635.156L3.049,631.156L52.048,631.156L52.048,627.156L3.049,627.156L3.049,623.156L52.048,623.156L52.048,619.156L3.049,619.156L3.049,615.156L52.048,615.156L52.048,611.156L3.049,611.156L3.049,607.156L52.048,607.156L52.048,603.156L3.049,603.156L3.049,599.156L52.048,599.156L52.048,595.156L3.049,595.156L3.049,591.156L52.048,591.156L52.048,587.156L3.049,587.156L3.049,583.156L52.048,583.156L52.048,579.156L3.049,579.156L3.049,575.156L52.048,575.156L52.048,571.156L3.049,571.156L3.049,567.156L52.048,567.156L52.048,563.156L3.049,563.156L3.049,559.156L52.048,559.156L52.048,555.156L3.049,555.156L3.049,551.156L52.048,551.156L52.048,547.156L3.049,547.156L3.049,543.156L52.048,543.156L52.048,539.156L3.049,539.156L3.049,535.156L52.048,535.156L52.048,531.156L3.049,531.156L3.049,527.156L52.048,527.156L52.048,523.156L3.049,523.156L3.049,519.156L52.048,519.156L52.048,515.156L3.049,515.156L3.049,511.156L52.048,511.156L52.048,507.156L3.049,507.156L3.049,503.156L52.048,503.156L52.048,499.156L3.049,499.156L3.049,495.156L52.048,495.156L52.048,491.156L3.049,491.156L3.049,487.156L52.048,487.156L52.048,483.156L3.049,483.156L3.049,479.156L52.048,479.156L52.048,475.156L3.049,475.156L3.049,471.156L52.048,471.156L52.048,467.156L3.049,467.156L3.049,463.156L52.048,463.156L52.048,459.156L3.049,459.156L3.049,455.156L52.048,455.156L52.048,451.156L3.049,451.156L3.049,447.156L52.048,447.156L52.048,443.156L3.049,443.156L3.049,439.156L52.048,439.156L52.048,435.156L3.049,435.156L3.049,431.156L52.048,431.156L52.048,427.156L3.049,427.156L3.049,423.156L52.048,423.156L52.048,419.156L3.049,419.156L3.049,415.156L52.048,415.156L52.048,411.156L3.049,411.156L3.049,407.156L52.048,407.156L52.048,403.156L3.049,403.156L3.049,402.874C3.048,401.636 3.052,400.396 3.063,399.156L52.076,399.156C52.094,397.823 52.12,396.49 52.155,395.156L3.119,395.156C3.145,393.823 3.178,392.49 3.218,391.156L52.285,391.156C52.337,389.823 52.398,388.489 52.467,387.156L3.36,387.156C3.414,385.823 3.476,384.49 3.546,383.156L52.701,383.156C52.788,381.823 52.884,380.489 52.988,379.156L3.776,379.156C3.86,377.823 3.952,376.49 4.051,375.156L53.328,375.156C53.451,373.823 53.582,372.489 53.723,371.156L4.371,371.156C4.485,369.823 4.607,368.49 4.736,367.156L54.172,367.156C54.33,365.822 54.499,364.489 54.676,363.156L5.148,363.156C5.293,361.823 5.445,360.489 5.606,359.156L55.236,359.156C55.432,357.822 55.638,356.489 55.853,355.156L6.111,355.156C6.288,353.823 6.472,352.489 6.664,351.156L56.528,351.156C56.763,349.822 57.007,348.489 57.261,347.156L7.266,347.156C7.475,345.823 7.691,344.489 7.916,343.156L58.053,343.156C58.328,341.822 58.612,340.488 58.906,339.156L8.616,339.156C8.858,337.822 9.108,336.489 9.366,335.156L59.819,335.156C60.135,333.822 60.46,332.488 60.795,331.156L10.167,331.156C10.443,329.822 10.727,328.489 11.02,327.156L61.834,327.156C62.191,325.821 62.558,324.488 62.937,323.156L11.925,323.156C12.235,321.822 12.555,320.489 12.883,319.156L64.105,319.156C64.505,317.821 64.917,316.488 65.339,315.156L13.895,315.156C14.241,313.822 14.597,312.489 14.961,311.156L66.641,311.156C67.087,309.821 67.544,308.488 68.012,307.156L16.083,307.156C16.467,305.822 16.86,304.488 17.262,303.156L69.453,303.156C69.946,301.821 70.45,300.487 70.966,299.156L18.497,299.156C18.919,297.822 19.351,296.488 19.791,295.156L72.552,295.156C73.093,293.821 73.647,292.487 74.212,291.156L21.144,291.156C21.606,289.821 22.077,288.488 22.558,287.156L75.948,287.156C76.541,285.82 77.146,284.487 77.763,283.156L24.032,283.156C24.535,281.821 25.047,280.488 25.569,279.156L79.657,279.156C80.303,277.82 80.961,276.487 81.632,275.156L27.17,275.156C27.715,273.821 28.27,272.488 28.835,271.156L83.69,271.156C84.392,269.82 85.107,268.486 85.834,267.156L30.566,267.156C31.155,265.821 31.754,264.488 32.364,263.156L88.066,263.156C88.826,261.82 89.6,260.486 90.387,259.156L34.231,259.156C34.866,257.821 35.511,256.487 36.168,255.156L92.8,255.156C93.622,253.819 94.457,252.486 95.307,251.156L38.176,251.156C38.858,249.821 39.552,248.487 40.256,247.156L97.912,247.156C98.799,245.819 99.7,244.486 100.616,243.156L42.412,243.156C43.144,241.82 43.888,240.487 44.643,239.156L103.423,239.156C104.379,237.819 105.35,236.485 106.336,235.156L46.952,235.156C47.736,233.82 48.532,232.487 49.34,231.156L109.358,231.156C110.387,229.818 111.432,228.485 112.492,227.156L51.81,227.156C52.649,225.82 53.5,224.487 54.363,223.156L115.743,223.156C116.85,221.818 117.974,220.485 119.113,219.156L57.002,219.156C57.898,217.82 58.806,216.486 59.728,215.156L122.608,215.156C123.799,213.817 125.006,212.484 126.231,211.156L62.543,211.156C63.499,209.819 64.468,208.486 65.451,207.156L129.987,207.156C131.267,205.817 132.565,204.484 133.881,203.156L68.453,203.156C69.472,201.819 70.505,200.486 71.552,199.156L137.919,199.156C139.296,197.817 140.691,196.483 142.106,195.156L74.751,195.156C75.837,193.819 76.937,192.486 78.052,191.156L146.448,191.156C147.93,189.816 149.431,188.483 150.952,187.156L81.459,187.156C82.616,185.819 83.788,184.485 84.975,183.156L155.626,183.156C157.221,181.815 158.838,180.482 160.475,179.156L88.602,179.156C89.835,177.818 91.082,176.485 92.346,175.156L165.51,175.156C167.231,173.815 168.974,172.481 170.74,171.156L96.208,171.156C97.521,169.818 98.849,168.485 100.194,167.156L176.173,167.156C178.031,165.814 179.914,164.48 181.82,163.156L104.307,163.156C105.706,161.818 107.121,160.484 108.552,159.156L187.695,159.156C189.706,157.813 191.743,156.48 193.807,155.156L112.934,155.156C114.424,153.817 115.932,152.484 117.457,151.156L200.17,151.156C202.351,149.812 204.561,148.479 206.799,147.156L122.127,147.156C123.716,145.817 125.324,144.483 126.95,143.156L213.71,143.156C216.083,141.811 218.487,140.478 220.922,139.156L131.932,139.156C133.628,137.816 135.343,136.483 137.078,135.156L228.455,135.156C231.047,133.81 233.673,132.476 236.332,131.156L142.397,131.156C144.21,129.815 146.043,128.482 147.897,127.156L244.579,127.156C247.424,125.808 250.305,124.475 253.225,123.156L153.586,123.156C155.526,121.815 157.489,120.481 159.473,119.156L262.303,119.156C265.444,117.806 268.627,116.472 271.852,115.156L165.569,115.156C167.651,113.814 169.756,112.48 171.885,111.156L281.917,111.156C285.415,109.803 288.959,108.47 292.551,107.156L178.432,107.156C180.671,105.813 182.935,104.479 185.224,103.156L303.815,103.156C307.751,101.8 311.74,100.466 315.785,99.156L192.275,99.156C194.69,97.812 197.133,96.478 199.602,95.156L328.551,95.156C333.045,93.794 337.603,92.461 342.227,91.156L207.223,91.156C209.837,89.811 212.482,88.477 215.156,87.156L356.954,87.156C362.194,85.787 367.515,84.453 372.917,83.156L223.425,83.156C226.269,81.809 229.146,80.476 232.055,79.156L390.362,79.156C396.679,77.775 403.102,76.441 409.632,75.156L241.075,75.156C244.185,73.807 247.332,72.474 250.515,71.156L431.224,71.156C439.301,69.75 447.531,68.416 455.919,67.156L260.415,67.156C263.842,65.805 267.309,64.471 270.817,63.156L485.067,63.156C496.897,61.682 509.018,60.347 521.436,59.156L281.773,59.156C285.582,57.802 289.438,56.468 293.341,55.156L573.041,55.156C607.104,53.112 643.184,52.071 681.376,52.122C722.054,52.204 760.25,53.237 796.107,55.156L1096.65,55.156C1092.47,53.8 1088.22,52.467 1083.91,51.156L305.594,51.156C309.88,49.798 314.221,48.464 318.618,47.156L1070.32,47.156C1065.53,45.795 1060.67,44.462 1055.74,43.156L332.521,43.156C337.426,41.792 342.398,40.458 347.437,39.156L1040.02,39.156C1034.44,37.788 1028.76,36.455 1022.98,35.156L363.54,35.156C369.296,33.783 375.136,32.449 381.06,31.156L1004.35,31.156C997.619,29.777 990.763,28.443 983.783,27.156L400.312,27.156C407.344,25.767 414.489,24.434 421.75,23.156L960.76,23.156C952.183,21.755 943.43,20.421 934.497,19.156L446.072,19.156C455.352,17.734 464.81,16.399 474.45,15.156L903.675,15.156C891.346,13.696 878.696,12.361 865.717,11.156L509.171,11.156C524.401,9.604 540.053,8.268 556.139,7.156L813.969,7.156C772.86,4.588 728.76,3.215 681.456,3.16C637.019,3.073 595.296,4.449 556.139,7.156" style="fill:none;fill-rule:nonzero;stroke:rgb(36,36,36);stroke-width:1px;stroke-linejoin:miter;stroke-miterlimit:10;"/>
        </g>
    </g>
</svg>
