<?xml version="1.0" encoding="UTF-8" standalone="no"?>
<!DOCTYPE svg PUBLIC "-//W3C//DTD SVG 1.1//EN" "http://www.w3.org/Graphics/SVG/1.1/DTD/svg11.dtd">
<svg width="100%" height="100%" viewBox="0 0 1374 1487" version="1.1" xmlns="http://www.w3.org/2000/svg" xmlns:xlink="http://www.w3.org/1999/xlink" xml:space="preserve" xmlns:serif="http://www.serif.com/" style="fill-rule:evenodd;clip-rule:evenodd;stroke-linejoin:round;stroke-miterlimit:2;">
    <rect x="0.584" y="2.062" width="1373.57" height="1482.77" style="fill:rgb(235,235,235);"/>
    <g>
        <g id="_-ffe085" serif:id="#ffe085">
            <path d="M1255.83,211.051C1177.45,119.85 1012.29,56.658 681.369,56.122C196.529,55.333 56.048,230.391 56.048,402.874L56.048,1107.88C56.048,1190.14 101.672,1270.17 199.319,1329.77C303.989,1393.65 466.034,1433.75 694.712,1430.72C923.719,1427.7 1081.97,1387.61 1182.74,1325.19C1276.45,1267.15 1317.95,1189.94 1317.95,1107.88L1317.95,402.874C1317.95,336.628 1305.29,268.607 1255.83,211.051ZM366.599,748.14C416.441,748.14 456.905,788.834 456.905,838.958C456.905,889.084 416.441,929.779 366.599,929.779C316.76,929.779 276.296,889.084 276.296,838.958C276.296,788.834 316.76,748.14 366.599,748.14ZM150.356,1025.11C150.356,969.939 197.698,925.217 256.097,925.217C314.496,925.217 361.838,969.939 361.838,1025.11C361.838,1080.27 314.496,1125 256.097,1125C197.698,1125 150.356,1080.27 150.356,1025.11ZM991.814,1023.23C991.814,968.065 1039.16,923.343 1097.56,923.343C1155.95,923.343 1203.3,968.065 1203.3,1023.23C1203.3,1078.4 1155.95,1123.12 1097.56,1123.12C1039.16,1123.12 991.814,1078.4 991.814,1023.23ZM979.814,748.511C1029.66,748.511 1070.12,789.206 1070.12,839.329C1070.12,889.456 1029.66,930.15 979.814,930.15C929.975,930.15 889.511,889.456 889.511,839.329C889.511,789.206 929.975,748.511 979.814,748.511ZM201.05,242.485C201.05,242.485 428.924,305.131 704.975,301.17C1089.1,295.657 1201.61,218.108 1201.61,218.108C1201.61,218.108 1058.62,325.832 705.644,326.881C375.731,327.861 201.05,242.485 201.05,242.485ZM574.673,1110.67C575.558,1075.87 734.897,1027.52 812.429,1108.62C822.065,1264.04 713.675,1282.55 699.668,1284.8C685.661,1287.05 570.446,1276.79 574.673,1110.67Z" style="fill:none;stroke:rgb(255,224,133);stroke-width:1px;"/>
            <path d="M121.735,228.118C120.627,229.447 119.537,230.78 118.463,232.118L1163.72,232.118C1167.2,230.725 1170.39,229.388 1173.31,228.118L121.735,228.118C122.85,226.78 123.982,225.446 125.131,224.118L1182.13,224.118C1185.26,222.633 1187.92,221.291 1190.16,220.118L128.657,220.118C129.859,218.779 131.078,217.446 132.316,216.118L1197.29,216.118C1198.68,215.272 1199.34,214.815 1199.34,214.815" style="fill:none;fill-rule:nonzero;stroke:rgb(255,224,133);stroke-width:1px;stroke-linejoin:miter;stroke-miterlimit:10;"/>
            <path d="M752.814,296.118C737.342,296.594 721.381,296.949 704.918,297.171C673.26,297.634 642.238,297.218 612.124,296.118L752.814,296.118C782.524,295.204 810.432,293.842 836.626,292.118L539.702,292.118C523.681,290.939 508.019,289.594 492.766,288.118L887.765,288.118C901.357,286.878 914.414,285.54 926.954,284.118L454.998,284.118C443.877,282.839 433.02,281.5 422.447,280.118L959.334,280.118C968.946,278.829 978.215,277.493 987.149,276.118L393.402,276.118C384.325,274.804 375.499,273.467 366.94,272.118L1011.62,272.118C1019.17,270.808 1026.46,269.472 1033.48,268.118L342.498,268.118C334.623,266.781 327.021,265.444 319.707,264.118L1053.25,264.118C1059.48,262.794 1065.48,261.459 1071.26,260.118L298.31,260.118C291.24,258.756 284.506,257.418 278.128,256.118L1087.78,256.118C1093.06,254.783 1098.13,253.448 1102.99,252.118L259.034,252.118C252.483,250.708 246.444,249.368 240.945,248.118L1117.05,248.118C1121.6,246.771 1125.94,245.435 1130.07,244.118L223.83,244.118C216.819,242.431 211.415,241.065 207.75,240.118L1142.14,240.118C1146.11,238.755 1149.84,237.419 1153.35,236.118L115.311,236.118C114.284,237.447 113.273,238.78 112.277,240.118L201.547,240.118L200.035,244.118L109.357,244.118C108.404,245.447 107.468,246.781 106.546,248.118L203.737,248.118C206.001,249.125 209.127,250.478 213.109,252.118L103.842,252.118C102.961,253.448 102.095,254.781 101.243,256.118L223.13,256.118C226.344,257.364 229.881,258.702 233.738,260.118L98.744,260.118C97.93,261.448 97.13,262.781 96.344,264.118L244.925,264.118C248.629,265.408 252.555,266.744 256.703,268.118L94.04,268.118C93.29,269.448 92.553,270.781 91.829,272.118L269.097,272.118C273.263,273.429 277.614,274.764 282.147,276.118L89.709,276.118C89.019,277.448 88.342,278.782 87.678,280.118L295.905,280.118C300.582,281.442 305.426,282.777 310.436,284.118L85.734,284.118C85.101,285.449 84.482,286.782 83.874,288.118L325.825,288.118C331.113,289.453 336.564,290.788 342.177,292.118L82.097,292.118C81.519,293.449 80.954,294.782 80.401,296.118L359.631,296.118C365.708,297.464 371.953,298.799 378.367,300.118L78.784,300.118C78.258,301.449 77.745,302.782 77.244,304.118L398.626,304.118C405.812,305.478 413.186,306.814 420.75,308.118L75.779,308.118C75.305,309.449 74.841,310.783 74.389,312.118L445.235,312.118C454.208,313.504 463.419,314.841 472.868,316.118L73.072,316.118C72.645,317.449 72.23,318.783 71.825,320.118L505.023,320.118C517.815,321.573 530.995,322.914 544.562,324.118L70.649,324.118C70.269,325.45 69.899,326.783 69.541,328.118L600.091,328.118C633.302,329.966 668.5,330.968 705.656,330.881C737.127,330.752 766.939,329.781 795.14,328.118L1307.37,328.118C1307.11,326.783 1306.84,325.45 1306.56,324.118L847.287,324.118C859.917,322.918 872.178,321.579 884.076,320.118L1305.68,320.118C1305.38,318.783 1305.07,317.45 1304.75,316.118L913.776,316.118C922.441,314.845 930.895,313.509 939.139,312.118L1303.75,312.118C1303.41,310.783 1303.06,309.449 1302.7,308.118L961.489,308.118C968.345,306.82 975.042,305.485 981.583,304.118L1301.57,304.118C1301.19,302.783 1300.79,301.449 1300.38,300.118L999.904,300.118C1005.66,298.806 1011.28,297.471 1016.78,296.118L1299.12,296.118C1298.69,294.782 1298.24,293.449 1297.79,292.118L1032.44,292.118C1037.43,290.797 1042.31,289.463 1047.07,288.118L1296.38,288.118C1295.89,286.782 1295.4,285.449 1294.89,284.118L1060.8,284.118C1065.22,282.79 1069.53,281.456 1073.74,280.118L1293.33,280.118C1292.79,278.782 1292.24,277.448 1291.68,276.118L1085.96,276.118C1089.93,274.784 1093.79,273.449 1097.55,272.118L1289.95,272.118C1289.36,270.782 1288.75,269.448 1288.13,268.118L1108.55,268.118C1112.15,266.777 1115.64,265.443 1119.02,264.118L1286.22,264.118C1285.57,262.781 1284.9,261.448 1284.22,260.118L1128.99,260.118C1132.28,258.769 1135.44,257.435 1138.5,256.118L1282.12,256.118C1281.4,254.781 1280.66,253.448 1279.91,252.118L1147.57,252.118C1150.58,250.759 1153.47,249.424 1156.23,248.118L1277.61,248.118C1276.82,246.781 1276.02,245.447 1275.19,244.118L1164.48,244.118C1167.26,242.741 1169.88,241.406 1172.36,240.118L1272.67,240.118C1271.8,238.78 1270.92,237.447 1270.03,236.118L1179.85,236.118C1182.43,234.703 1184.8,233.366 1186.96,232.118L1267.26,232.118C1266.32,230.78 1265.35,229.447 1264.37,228.118L1193.67,228.118C1196.26,226.53 1198.35,225.184 1199.95,224.118L1261.35,224.118C1260.32,222.779 1259.27,221.446 1258.2,220.118L1203.17,220.118L1200.28,216.118L1254.9,216.118C1254.21,215.296 1253.51,214.476 1252.8,213.659C1252.36,213.144 1251.91,212.631 1251.47,212.118L136.113,212.118C137.407,210.779 138.721,209.446 140.053,208.118L1247.92,208.118C1246.7,206.778 1245.47,205.445 1244.21,204.118L144.141,204.118C145.536,202.779 146.95,201.445 148.384,200.118L1240.35,200.118C1239.03,198.778 1237.68,197.444 1236.32,196.118L152.787,196.118C154.29,194.778 155.813,193.445 157.358,192.118L1232.12,192.118C1230.68,190.777 1229.21,189.444 1227.73,188.118L162.102,188.118C163.721,186.778 165.363,185.444 167.027,184.118L1223.15,184.118C1221.59,182.776 1219.99,181.443 1218.38,180.118L172.143,180.118C173.89,178.777 175.662,177.443 177.457,176.118L1213.39,176.118C1211.68,174.776 1209.94,173.442 1208.17,172.118L182.979,172.118C184.867,170.776 186.78,169.443 188.719,168.118L1202.73,168.118C1200.86,166.775 1198.96,165.441 1197.03,164.118L194.69,164.118C196.736,162.775 198.808,161.441 200.906,160.118L1191.07,160.118C1189.02,158.774 1186.93,157.44 1184.82,156.118L207.381,156.118C209.602,154.774 211.852,153.44 214.131,152.118L1178.28,152.118C1176.03,150.773 1173.74,149.439 1171.41,148.118L221.173,148.118C223.593,146.773 226.045,145.439 228.528,144.118L1164.21,144.118C1161.72,142.771 1159.2,141.438 1156.63,140.118L236.218,140.118C238.867,138.771 241.55,137.438 244.268,136.118L1148.66,136.118C1145.9,134.77 1143.1,133.436 1140.26,132.118L252.706,132.118C255.62,130.769 258.572,129.436 261.564,128.118L1131.39,128.118C1128.31,126.768 1125.19,125.434 1122.01,124.118L270.88,124.118C274.108,122.767 277.381,121.433 280.697,120.118L1112.07,120.118C1108.61,118.765 1105.09,117.431 1101.52,116.118L291.064,116.118C294.674,114.764 298.334,113.43 302.043,112.118L1090.28,112.118C1086.35,110.761 1082.34,109.428 1078.28,108.118L313.704,108.118C317.789,106.76 321.932,105.426 326.134,104.118L1065.4,104.118C1060.86,102.756 1056.24,101.423 1051.55,100.118L339.438,100.118C344.139,98.754 348.91,97.42 353.753,96.118L1036.54,96.118C1031.19,94.749 1025.74,93.416 1020.2,92.118L369.249,92.118C374.795,90.745 380.431,89.411 386.156,88.118L1002.25,88.118C995.743,86.738 989.106,85.404 982.339,84.118L404.788,84.118C411.603,82.729 418.539,81.395 425.597,80.118L959.943,80.118C951.573,78.715 943.015,77.382 934.265,76.118L449.277,76.118C458.324,74.696 467.562,73.361 476.994,72.118L903.963,72.118C891.796,70.657 879.284,69.322 866.417,68.118L511.026,68.118C525.978,66.566 541.381,65.23 557.246,64.118L814.861,64.118C773.706,61.547 729.289,60.18 681.363,60.122C637.147,60.036 595.829,61.413 557.246,64.118" style="fill:none;fill-rule:nonzero;stroke:rgb(255,224,133);stroke-width:1px;stroke-linejoin:miter;stroke-miterlimit:10;"/>
            <path d="M349.184,932.118C344.221,931.166 339.377,929.82 334.696,928.118L295.283,928.118C298.57,929.311 301.785,930.648 304.913,932.118L349.184,932.118C354.857,933.206 360.684,933.779 366.599,933.779C372.515,933.779 378.343,933.206 384.015,932.118L960.561,932.118C955.885,931.124 951.32,929.779 946.906,928.118L398.504,928.118C401.72,926.948 404.859,925.611 407.906,924.118L937.76,924.118C935.297,922.884 932.896,921.549 930.565,920.118L415.24,920.118C417.327,918.859 419.359,917.524 421.33,916.118L924.568,916.118C922.803,914.841 921.087,913.506 919.423,912.118L426.545,912.118C428.106,910.831 429.621,909.497 431.087,908.118L914.936,908.118C914.328,907.539 913.728,906.952 913.137,906.358C912.408,905.624 911.69,904.878 910.984,904.118L435.085,904.118C436.301,902.823 437.484,901.489 438.63,900.118L907.478,900.118C906.401,898.816 905.357,897.482 904.346,896.118L441.793,896.118C442.77,894.812 443.715,893.478 444.627,892.118L901.541,892.118C900.672,890.808 899.834,889.475 899.026,888.118L447.168,888.118C447.957,886.806 448.716,885.472 449.444,884.118L896.774,884.118C896.074,882.803 895.403,881.469 894.762,880.118L451.477,880.118C452.109,878.801 452.712,877.467 453.285,876.118L892.975,876.118C892.421,874.799 891.895,873.465 891.399,872.118L454.88,872.118C455.373,870.798 455.838,869.464 456.274,868.118L890.023,868.118C889.601,866.796 889.207,865.462 888.841,864.118L457.474,864.118C457.84,862.795 458.178,861.461 458.488,860.118L887.844,860.118C887.544,858.794 887.272,857.46 887.028,856.118L459.32,856.118C459.566,854.793 459.785,853.459 459.975,852.118L886.39,852.118C886.207,850.792 886.052,849.458 885.926,848.118L460.455,848.118C460.586,846.791 460.688,845.457 460.763,844.118L885.634,844.118C885.566,842.79 885.526,841.456 885.515,840.118L460.898,840.118C460.903,839.732 460.905,839.345 460.905,838.958C460.905,838.009 460.891,837.062 460.862,836.118L885.567,836.118C885.613,834.779 885.688,833.446 885.79,832.118L460.654,832.118C460.556,830.778 460.429,829.445 460.275,828.118L886.186,828.118C886.348,826.777 886.538,825.444 886.756,824.118L459.721,824.118C459.506,822.776 459.263,821.443 458.992,820.118L887.501,820.118C887.781,818.775 888.09,817.442 888.426,816.118L458.084,816.118C457.749,814.774 457.385,813.44 456.993,812.118L889.535,812.118C889.939,810.773 890.372,809.439 890.833,808.118L455.712,808.118C455.248,806.771 454.756,805.438 454.235,804.118L892.329,804.118C892.868,802.769 893.436,801.436 894.032,800.118L452.552,800.118C451.948,798.768 451.314,797.434 450.651,796.118L895.954,796.118C896.642,794.765 897.361,793.431 898.109,792.118L448.518,792.118C447.754,790.763 446.959,789.429 446.133,788.118L900.518,788.118C901.382,786.759 902.278,785.425 903.205,784.118L443.473,784.118C442.517,782.756 441.527,781.422 440.506,780.118L906.203,780.118C907.286,778.75 908.404,777.416 909.555,776.118L437.189,776.118C435.984,774.744 434.741,773.41 433.464,772.118L913.322,772.118C914.697,770.743 916.119,769.409 917.587,768.118L429.249,768.118C427.697,766.735 426.094,765.401 424.443,764.118L922.455,764.118C924.277,762.721 926.155,761.386 928.086,760.118L418.892,760.118C416.769,758.702 414.583,757.367 412.339,756.118L934.751,756.118C937.421,754.66 940.171,753.323 942.989,752.118L404.284,752.118C407.04,753.329 409.728,754.665 412.339,756.118" style="fill:none;fill-rule:nonzero;stroke:rgb(255,224,133);stroke-width:1px;stroke-linejoin:miter;stroke-miterlimit:10;"/>
            <path d="M570.599,1120.12C570.607,1121.46 570.623,1122.8 570.647,1124.12L289.184,1124.12C292.998,1122.97 296.726,1121.63 300.353,1120.12L570.599,1120.12C570.591,1118.8 570.591,1117.46 570.599,1116.12L308.916,1116.12C311.332,1114.86 313.692,1113.53 315.99,1112.12L570.645,1112.12C570.654,1111.6 570.664,1111.09 570.675,1110.57C570.743,1109.76 570.877,1108.94 571.075,1108.12L322.048,1108.12C323.86,1106.83 325.625,1105.5 327.341,1104.12L572.513,1104.12C573.144,1102.79 573.927,1101.45 574.852,1100.12L332.025,1100.12C332.56,1099.63 333.09,1099.14 333.614,1098.65C334.49,1097.82 335.352,1096.98 336.199,1096.12L578.055,1096.12C579.281,1094.77 580.644,1093.43 582.134,1092.12L339.944,1092.12C341.101,1090.81 342.227,1089.48 343.319,1088.12L587.149,1088.12C589.045,1086.75 591.078,1085.41 593.236,1084.12L346.371,1084.12C347.322,1082.81 348.243,1081.47 349.133,1080.12L600.654,1080.12C603.469,1078.74 606.462,1077.4 609.612,1076.12L351.633,1076.12C352.414,1074.8 353.166,1073.47 353.89,1072.12L620.406,1072.12C624.681,1070.68 629.161,1069.34 633.808,1068.12L355.921,1068.12C356.555,1066.8 357.161,1065.46 357.739,1064.12L651.912,1064.12C655.972,1063.39 660.11,1062.75 664.305,1062.22C686.386,1059.41 710.554,1059.56 734.099,1064.12L996.74,1064.12C996.142,1062.8 995.572,1061.46 995.03,1060.12L359.356,1060.12C359.858,1058.8 360.333,1057.46 360.78,1056.12L993.516,1056.12C993.048,1054.8 992.606,1053.46 992.192,1052.12L362.018,1052.12C362.398,1050.79 362.751,1049.46 363.076,1048.12L991.05,1048.12C990.702,1046.79 990.38,1045.46 990.086,1044.12L363.958,1044.12C364.222,1042.79 364.459,1041.46 364.669,1040.12L989.295,1040.12C989.062,1038.79 988.855,1037.46 988.675,1036.12L365.21,1036.12C365.362,1034.79 365.487,1033.46 365.584,1032.12L988.223,1032.12C988.101,1030.79 988.006,1029.46 987.938,1028.12L365.791,1028.12C365.823,1027.12 365.838,1026.11 365.838,1025.11C365.838,1024.78 365.837,1024.45 365.833,1024.12L987.818,1024.12C987.816,1023.82 987.814,1023.53 987.814,1023.23C987.814,1022.19 987.831,1021.15 987.865,1020.12L365.71,1020.12C365.64,1018.78 365.544,1017.45 365.42,1016.12L988.076,1016.12C988.175,1014.78 988.301,1013.45 988.454,1012.12L364.964,1012.12C364.783,1010.78 364.574,1009.44 364.339,1008.12L989,1008.12C989.211,1006.78 989.45,1005.44 989.715,1004.12L363.544,1004.12C363.248,1002.78 362.925,1001.44 362.575,1000.12L990.602,1000.12C990.929,998.775 991.283,997.442 991.664,996.118L361.429,996.118C361.013,994.774 360.57,993.44 360.1,992.118L992.907,992.118C993.356,990.773 993.832,989.44 994.336,988.118L358.581,988.118C358.037,986.771 357.465,985.438 356.866,984.118L995.958,984.118C996.538,982.77 997.146,981.437 997.782,980.118L354.944,980.118C354.259,978.768 353.545,977.434 352.803,976.118L999.819,976.118C1000.54,974.767 1001.3,973.433 1002.08,972.118L350.429,972.118C349.583,970.764 348.707,969.43 347.802,968.118L1004.59,968.118C1005.48,966.762 1006.4,965.429 1007.36,964.118L344.901,964.118C343.864,962.758 342.794,961.424 341.694,960.118L1010.42,960.118C1011.51,958.755 1012.64,957.422 1013.8,956.118L338.142,956.118C336.862,954.748 335.545,953.414 334.194,952.118L1017.56,952.118C1018.37,951.295 1019.2,950.486 1020.04,949.692C1020.6,949.162 1021.17,948.637 1021.74,948.118L329.778,948.118C328.169,946.741 326.511,945.407 324.809,944.118L1026.44,944.118C1028.16,942.736 1029.93,941.402 1031.75,940.118L319.161,940.118C317.044,938.717 314.87,937.382 312.642,936.118L1037.83,936.118C1040.14,934.706 1042.51,933.371 1044.94,932.118L999.069,932.118C1003.75,931.124 1008.31,929.779 1012.72,928.118L1053.55,928.118C1057.21,926.6 1060.97,925.263 1064.81,924.118L1021.87,924.118C1024.33,922.884 1026.74,921.549 1029.07,920.118L1084.26,920.118C1088.63,919.607 1093.07,919.343 1097.56,919.343" style="fill:none;fill-rule:nonzero;stroke:rgb(255,224,133);stroke-width:1px;stroke-linejoin:miter;stroke-miterlimit:10;"/>
            <path d="M1097.56,1127.12C1088.63,1127.12 1079.89,1126.08 1071.49,1124.12L816.948,1124.12C816.937,1122.8 816.917,1121.46 816.889,1120.12L1058.09,1120.12C1054.82,1118.92 1051.63,1117.59 1048.52,1116.12L816.778,1116.12C816.733,1114.8 816.68,1113.46 816.617,1112.12L1040.83,1112.12C1038.61,1110.85 1036.44,1109.52 1034.34,1108.12L816.407,1108.12L816.337,1106.91L815.321,1105.86C814.751,1105.27 814.177,1104.69 813.599,1104.12L1028.71,1104.12C1027.01,1102.83 1025.36,1101.5 1023.75,1100.12L809.387,1100.12C807.875,1098.74 806.338,1097.41 804.777,1096.12L1019.35,1096.12C1018,1094.82 1016.69,1093.49 1015.41,1092.12L799.702,1092.12C797.857,1090.73 795.982,1089.4 794.08,1088.12L1011.87,1088.12C1010.77,1086.81 1009.71,1085.48 1008.67,1084.12L787.793,1084.12C785.454,1082.71 783.08,1081.38 780.675,1080.12L1005.78,1080.12C1004.88,1078.81 1004,1077.47 1003.16,1076.12L772.472,1076.12C769.276,1074.68 766.035,1073.34 762.758,1072.12L1000.79,1072.12C1000.05,1070.8 999.339,1069.47 998.656,1068.12L750.696,1068.12C754.761,1069.3 758.786,1070.63 762.758,1072.12" style="fill:none;fill-rule:nonzero;stroke:rgb(255,224,133);stroke-width:1px;stroke-linejoin:miter;stroke-miterlimit:10;"/>
            <path d="M139.768,1280.12C141.198,1281.46 142.648,1282.79 144.117,1284.12L667.07,1284.12C663.476,1283.02 659.724,1281.7 655.878,1280.12L139.768,1280.12C138.351,1278.79 136.953,1277.46 135.575,1276.12L647.13,1276.12C644.711,1274.9 642.273,1273.57 639.831,1272.12L131.535,1272.12C130.219,1270.79 128.921,1269.46 127.642,1268.12L633.535,1268.12C631.681,1266.86 629.832,1265.53 627.993,1264.12L123.892,1264.12C122.669,1262.79 121.465,1261.46 120.279,1260.12L623.054,1260.12C621.561,1258.84 620.078,1257.51 618.606,1256.12L116.802,1256.12C115.668,1254.79 114.553,1253.46 113.454,1252.12L614.568,1252.12C613.326,1250.83 612.095,1249.5 610.877,1248.12L110.234,1248.12C109.185,1246.79 108.152,1245.46 107.137,1244.12L607.489,1244.12C606.435,1242.82 605.394,1241.49 604.366,1240.12L104.16,1240.12C103.191,1238.79 102.238,1237.45 101.301,1236.12L601.479,1236.12C600.576,1234.82 599.684,1233.48 598.806,1232.12L98.556,1232.12C97.663,1230.79 96.785,1229.45 95.924,1228.12L596.326,1228.12C595.546,1226.81 594.778,1225.48 594.023,1224.12L93.4,1224.12C92.579,1222.79 91.774,1221.45 90.984,1220.12L591.882,1220.12C591.206,1218.81 590.542,1217.48 589.891,1216.12L88.672,1216.12C87.921,1214.79 87.184,1213.45 86.463,1212.12L588.04,1212.12C587.454,1210.81 586.88,1209.47 586.318,1208.12L84.354,1208.12C83.669,1206.79 82.999,1205.45 82.344,1204.12L584.719,1204.12C584.213,1202.8 583.717,1201.47 583.234,1200.12L80.431,1200.12C79.81,1198.79 79.204,1197.45 78.613,1196.12L581.856,1196.12C581.42,1194.8 580.995,1193.47 580.581,1192.12L76.888,1192.12C76.329,1190.79 75.785,1189.45 75.254,1188.12L579.402,1188.12C579.029,1186.8 578.666,1185.47 578.314,1184.12L73.712,1184.12C73.213,1182.79 72.729,1181.45 72.258,1180.12L577.314,1180.12C576.998,1178.8 576.692,1177.47 576.396,1176.12L70.891,1176.12C70.451,1174.79 70.025,1173.45 69.611,1172.12L575.558,1172.12C575.295,1170.8 575.04,1169.47 574.796,1168.12L68.417,1168.12C68.033,1166.79 67.663,1165.45 67.306,1164.12L574.106,1164.12C573.891,1162.8 573.684,1161.46 573.487,1160.12L66.277,1160.12C65.949,1158.79 65.633,1157.45 65.331,1156.12L572.934,1156.12C572.762,1154.8 572.599,1153.46 572.445,1152.12L64.466,1152.12C64.191,1150.79 63.929,1149.45 63.68,1148.12L572.019,1148.12C571.888,1146.8 571.766,1145.46 571.652,1144.12L62.973,1144.12C62.751,1142.79 62.542,1141.45 62.345,1140.12L571.343,1140.12C571.25,1138.8 571.166,1137.46 571.09,1136.12L61.794,1136.12C61.623,1134.79 61.465,1133.45 61.32,1132.12L570.89,1132.12C570.833,1130.8 570.784,1129.46 570.743,1128.12L270.249,1128.12C265.602,1128.7 260.876,1129 256.097,1129C251.319,1129 246.593,1128.7 241.945,1128.12L60.921,1128.12C60.801,1126.79 60.694,1125.45 60.598,1124.12L223.01,1124.12C219.197,1122.97 215.468,1121.63 211.842,1120.12L60.35,1120.12C60.28,1118.79 60.222,1117.45 60.176,1116.12L203.279,1116.12C200.862,1114.86 198.502,1113.53 196.204,1112.12L60.075,1112.12C60.054,1110.79 60.044,1109.45 60.047,1108.12L190.147,1108.12C188.335,1106.83 186.569,1105.5 184.853,1104.12L60.048,1104.12L60.048,1100.12L180.17,1100.12C179.634,1099.63 179.104,1099.14 178.58,1098.65C177.704,1097.82 176.843,1096.98 175.995,1096.12L60.048,1096.12L60.048,1092.12L172.251,1092.12C171.093,1090.81 169.968,1089.48 168.875,1088.12L60.048,1088.12L60.048,1084.12L165.824,1084.12C164.873,1082.81 163.951,1081.47 163.061,1080.12L60.048,1080.12L60.048,1076.12L160.562,1076.12C159.781,1074.8 159.028,1073.47 158.305,1072.12L60.048,1072.12L60.048,1068.12L156.274,1068.12C155.64,1066.8 155.034,1065.46 154.456,1064.12L60.048,1064.12L60.048,1060.12L152.839,1060.12C152.337,1058.8 151.862,1057.46 151.415,1056.12L60.048,1056.12L60.048,1052.12L150.177,1052.12C149.797,1050.79 149.444,1049.46 149.119,1048.12L60.048,1048.12L60.048,1044.12L148.236,1044.12C147.972,1042.79 147.735,1041.46 147.526,1040.12L60.048,1040.12L60.048,1036.12L146.985,1036.12C146.833,1034.79 146.708,1033.46 146.611,1032.12L60.048,1032.12L60.048,1028.12L146.403,1028.12C146.372,1027.12 146.356,1026.11 146.356,1025.11C146.356,1024.78 146.358,1024.45 146.361,1024.12L60.048,1024.12L60.048,1020.12L146.485,1020.12C146.554,1018.78 146.651,1017.45 146.775,1016.12L60.048,1016.12L60.048,1012.12L147.231,1012.12C147.412,1010.78 147.621,1009.44 147.856,1008.12L60.048,1008.12L60.048,1004.12L148.651,1004.12C148.946,1002.78 149.27,1001.44 149.62,1000.12L60.048,1000.12L60.048,996.118L150.766,996.118C151.182,994.774 151.625,993.44 152.095,992.118L60.048,992.118L60.048,988.118L153.613,988.118C154.157,986.771 154.729,985.438 155.329,984.118L60.048,984.118L60.048,980.118L157.251,980.118C157.936,978.768 158.65,977.434 159.392,976.118L60.048,976.118L60.048,972.118L161.766,972.118C162.611,970.764 163.487,969.43 164.392,968.118L60.048,968.118L60.048,964.118L167.294,964.118C168.331,962.758 169.4,961.424 170.501,960.118L60.048,960.118L60.048,956.118L174.052,956.118C175.333,954.748 176.65,953.414 178.001,952.118L60.048,952.118L60.048,948.118L182.416,948.118C184.026,946.741 185.684,945.407 187.386,944.118L60.048,944.118L60.048,940.118L193.033,940.118C195.15,938.717 197.325,937.382 199.553,936.118L60.048,936.118L60.048,932.118L207.281,932.118C210.41,930.648 213.624,929.311 216.912,928.118L60.048,928.118L60.048,924.118L230.48,924.118C238.738,922.226 247.328,921.217 256.097,921.217C264.866,921.217 273.457,922.226 281.715,924.118L325.295,924.118C322.785,922.888 320.337,921.552 317.96,920.118L60.048,920.118L60.048,916.118L311.871,916.118C310.082,914.842 308.342,913.507 306.657,912.118L60.048,912.118L60.048,908.118L302.114,908.118C301.37,907.419 300.64,906.708 299.922,905.986C299.312,905.373 298.71,904.75 298.117,904.118L60.048,904.118L60.048,900.118L294.572,900.118C293.484,898.817 292.429,897.483 291.408,896.118L60.048,896.118L60.048,892.118L288.574,892.118C287.697,890.809 286.849,889.475 286.034,888.118L60.048,888.118L60.048,884.118L283.757,884.118C283.05,882.803 282.372,881.469 281.724,880.118L60.048,880.118L60.048,876.118L279.917,876.118C279.356,874.799 278.824,873.466 278.321,872.118L60.048,872.118L60.048,868.118L276.928,868.118C276.5,866.796 276.099,865.463 275.728,864.118L60.048,864.118L60.048,860.118L274.714,860.118C274.409,858.794 274.131,857.46 273.882,856.118L60.048,856.118L60.048,852.118L273.227,852.118C273.039,850.792 272.878,849.458 272.747,848.118L60.048,848.118L60.048,844.118L272.439,844.118C272.366,842.79 272.32,841.456 272.304,840.118L60.048,840.118L60.048,836.118L272.34,836.118C272.38,834.779 272.45,833.446 272.547,832.118L60.048,832.118L60.048,828.118L272.927,828.118C273.083,826.777 273.268,825.444 273.48,824.118L60.048,824.118L60.048,820.118L274.209,820.118C274.484,818.775 274.787,817.442 275.117,816.118L60.048,816.118L60.048,812.118L276.209,812.118C276.607,810.773 277.035,809.439 277.49,808.118L60.048,808.118L60.048,804.118L278.967,804.118C279.499,802.769 280.06,801.436 280.65,800.118L60.048,800.118L60.048,796.118L282.55,796.118C283.232,794.765 283.943,793.432 284.684,792.118L60.048,792.118L60.048,788.118L287.068,788.118C287.923,786.76 288.81,785.426 289.728,784.118L60.048,784.118L60.048,780.118L292.695,780.118C293.767,778.751 294.873,777.417 296.012,776.118L60.048,776.118L60.048,772.118L299.737,772.118L299.922,771.932C301.223,770.624 302.567,769.351 303.952,768.118L60.048,768.118L60.048,764.118L308.758,764.118C310.554,762.722 312.406,761.388 314.309,760.118L60.048,760.118L60.048,756.118L320.862,756.118C323.473,754.665 326.161,753.329 328.917,752.118L60.048,752.118L60.048,756.118" style="fill:none;fill-rule:nonzero;stroke:rgb(255,224,133);stroke-width:1px;stroke-linejoin:miter;stroke-miterlimit:10;"/>
            <path d="M773.398,1424.12C748.15,1425.49 721.912,1426.37 694.659,1426.73C652.235,1427.3 612.133,1426.39 574.288,1424.12L773.398,1424.12C792.619,1423.07 811.266,1421.73 829.35,1420.12L523.321,1420.12C511.202,1418.93 499.339,1417.6 487.728,1416.12L868.241,1416.12C878.79,1414.88 889.131,1413.55 899.268,1412.12L459.216,1412.12C451.019,1410.86 442.956,1409.53 435.027,1408.12L925.497,1408.12C933.259,1406.85 940.893,1405.51 948.401,1404.12L413.834,1404.12C407.424,1402.83 401.105,1401.5 394.878,1400.12L968.824,1400.12C975.077,1398.83 981.237,1397.49 987.305,1396.12L377.677,1396.12C372.347,1394.82 367.088,1393.49 361.899,1392.12L1004.21,1392.12C1009.48,1390.82 1014.67,1389.48 1019.8,1388.12L347.308,1388.12C342.724,1386.81 338.197,1385.48 333.727,1384.12L1034.27,1384.12C1038.84,1382.81 1043.34,1381.48 1047.78,1380.12L321.02,1380.12C316.991,1378.81 313.01,1377.48 309.077,1376.12L1060.45,1376.12C1064.47,1374.81 1068.44,1373.47 1072.37,1372.12L297.813,1372.12C294.219,1370.81 290.666,1369.47 287.155,1368.12L1083.62,1368.12C1087.21,1366.8 1090.76,1365.47 1094.27,1364.12L277.045,1364.12C273.803,1362.8 270.599,1361.47 267.432,1360.12L1104.37,1360.12C1107.61,1358.8 1110.81,1357.47 1113.98,1356.12L258.273,1356.12C255.326,1354.8 252.412,1353.47 249.531,1352.12L1123.12,1352.12C1126.07,1350.8 1128.97,1349.47 1131.85,1348.12L241.175,1348.12C238.479,1346.8 235.813,1345.46 233.177,1344.12L1140.18,1344.12C1142.87,1342.8 1145.53,1341.46 1148.15,1340.12L225.512,1340.12C223.033,1338.8 220.582,1337.46 218.159,1336.12L1155.78,1336.12C1158.25,1334.8 1160.69,1333.46 1163.1,1332.12L211.097,1332.12C208.809,1330.8 206.546,1329.46 204.31,1328.12L1170.11,1328.12C1172.38,1326.8 1174.63,1325.46 1176.85,1324.12L197.758,1324.12C195.626,1322.79 193.519,1321.46 191.438,1320.12L1183.33,1320.12C1185.44,1318.79 1187.53,1317.46 1189.59,1316.12L185.358,1316.12C183.382,1314.79 181.431,1313.46 179.505,1312.12L1195.6,1312.12C1197.55,1310.79 1199.47,1309.46 1201.37,1308.12L173.869,1308.12C172.036,1306.79 170.227,1305.46 168.44,1304.12L1206.91,1304.12C1208.71,1302.79 1210.49,1301.46 1212.25,1300.12L163.21,1300.12C161.508,1298.79 159.828,1297.46 158.17,1296.12L1217.37,1296.12C1219.04,1294.79 1220.68,1293.46 1222.3,1292.12L153.312,1292.12C151.731,1290.79 150.17,1289.46 148.63,1288.12L684.882,1288.12C692.281,1289.17 697.799,1289.15 700.302,1288.75C701.157,1288.61 702.38,1288.41 703.92,1288.12L1227.05,1288.12C1228.59,1286.79 1230.11,1285.46 1231.61,1284.12L719.55,1284.12C722.924,1283.04 726.593,1281.72 730.463,1280.12L1235.99,1280.12C1237.42,1278.79 1238.82,1277.46 1240.21,1276.12L739.247,1276.12C741.688,1274.9 744.176,1273.57 746.691,1272.12L1244.27,1272.12C1245.59,1270.79 1246.88,1269.46 1248.16,1268.12L753.173,1268.12C755.084,1266.86 757.002,1265.53 758.916,1264.12L1251.91,1264.12C1253.13,1262.79 1254.33,1261.46 1255.52,1260.12L764.065,1260.12C765.234,1259.16 766.399,1258.17 767.558,1257.15C767.945,1256.81 768.332,1256.47 768.719,1256.12L1258.98,1256.12C1260.1,1254.79 1261.21,1253.46 1262.3,1252.12L772.943,1252.12C774.239,1250.83 775.525,1249.5 776.798,1248.12L1265.49,1248.12C1266.53,1246.79 1267.55,1245.46 1268.55,1244.12L780.332,1244.12C781.429,1242.82 782.513,1241.49 783.584,1240.12L1271.49,1240.12C1272.45,1238.79 1273.38,1237.46 1274.31,1236.12L786.585,1236.12C787.522,1234.82 788.447,1233.48 789.358,1232.12L1277,1232.12C1277.88,1230.79 1278.74,1229.45 1279.58,1228.12L791.926,1228.12C792.732,1226.81 793.525,1225.48 794.305,1224.12L1282.05,1224.12C1282.85,1222.79 1283.64,1221.45 1284.41,1220.12L796.51,1220.12C797.205,1218.81 797.887,1217.48 798.555,1216.12L1286.66,1216.12C1287.39,1214.79 1288.1,1213.45 1288.8,1212.12L800.451,1212.12C801.049,1210.81 801.634,1209.47 802.207,1208.12L1290.85,1208.12C1291.51,1206.79 1292.16,1205.45 1292.79,1204.12L803.832,1204.12C804.345,1202.81 804.845,1201.47 805.334,1200.12L1294.64,1200.12C1295.24,1198.79 1295.82,1197.45 1296.39,1196.12L806.72,1196.12C807.157,1194.8 807.582,1193.47 807.996,1192.12L1298.05,1192.12C1298.58,1190.79 1299.1,1189.45 1299.61,1188.12L809.168,1188.12C809.537,1186.8 809.895,1185.47 810.241,1184.12L1301.09,1184.12C1301.56,1182.79 1302.03,1181.45 1302.47,1180.12L811.219,1180.12C811.527,1178.8 811.823,1177.47 812.108,1176.12L1303.78,1176.12C1304.19,1174.79 1304.6,1173.45 1304.99,1172.12L812.911,1172.12C813.162,1170.8 813.402,1169.47 813.632,1168.12L1306.12,1168.12C1306.49,1166.79 1306.84,1165.45 1307.17,1164.12L814.273,1164.12C814.473,1162.8 814.661,1161.46 814.839,1160.12L1308.14,1160.12C1308.45,1158.79 1308.75,1157.45 1309.03,1156.12L815.333,1156.12C815.484,1154.8 815.625,1153.46 815.756,1152.12L1309.85,1152.12C1310.1,1150.79 1310.35,1149.45 1310.58,1148.12L816.111,1148.12C816.217,1146.8 816.314,1145.46 816.401,1144.12L1311.24,1144.12C1311.45,1142.79 1311.64,1141.45 1311.83,1140.12L816.628,1140.12C816.693,1138.8 816.749,1137.46 816.795,1136.12L1312.34,1136.12C1312.5,1134.79 1312.64,1133.45 1312.78,1132.12L816.902,1132.12C816.928,1130.8 816.945,1129.46 816.952,1128.12L1313.15,1128.12C1313.26,1126.79 1313.36,1125.45 1313.44,1124.12L1123.62,1124.12C1128.2,1123.05 1132.68,1121.71 1137.02,1120.12L1313.67,1120.12C1313.74,1118.79 1313.79,1117.45 1313.83,1116.12L1146.59,1116.12C1149.22,1114.88 1151.78,1113.54 1154.28,1112.12L1313.93,1112.12C1313.94,1110.94 1313.95,1109.77 1313.95,1108.59L1313.95,1108.59C1313.95,1108.43 1313.95,1108.28 1313.95,1108.12L1160.78,1108.12C1162.7,1106.84 1164.58,1105.5 1166.4,1104.12L1313.95,1104.12L1313.95,1100.12L1171.36,1100.12C1172.63,1099.03 1173.87,1097.91 1175.07,1096.77C1175.3,1096.56 1175.53,1096.34 1175.76,1096.12L1313.95,1096.12L1313.95,1092.12L1179.7,1092.12C1180.91,1090.82 1182.09,1089.48 1183.24,1088.12L1313.95,1088.12L1313.95,1084.12L1186.44,1084.12C1187.43,1082.81 1188.4,1081.47 1189.33,1080.12L1313.95,1080.12L1313.95,1076.12L1191.95,1076.12C1192.77,1074.8 1193.56,1073.47 1194.32,1072.12L1313.95,1072.12L1313.95,1068.12L1196.45,1068.12C1197.12,1066.8 1197.76,1065.47 1198.37,1064.12L1313.95,1064.12L1313.95,1060.12L1200.08,1060.12C1200.61,1058.8 1201.12,1057.46 1201.59,1056.12L1313.95,1056.12L1313.95,1052.12L1202.92,1052.12C1203.33,1050.79 1203.71,1049.46 1204.06,1048.12L1313.95,1048.12L1313.95,1044.12L1205.03,1044.12C1205.32,1042.79 1205.58,1041.46 1205.82,1040.12L1313.95,1040.12L1313.95,1036.12L1206.43,1036.12C1206.61,1034.79 1206.76,1033.46 1206.89,1032.12L1313.95,1032.12L1313.95,1028.12L1207.17,1028.12C1207.24,1026.79 1207.28,1025.46 1207.29,1024.12L1313.95,1024.12L1313.95,1020.12L1207.25,1020.12C1207.2,1018.78 1207.13,1017.45 1207.03,1016.12L1313.95,1016.12L1313.95,1012.12L1206.66,1012.12C1206.5,1010.78 1206.32,1009.45 1206.11,1008.12L1313.95,1008.12L1313.95,1004.12L1205.4,1004.12C1205.13,1002.78 1204.83,1001.44 1204.51,1000.12L1313.95,1000.12L1313.95,996.118L1203.45,996.118C1203.06,994.774 1202.64,993.441 1202.2,992.118L1313.95,992.118L1313.95,988.118L1200.78,988.118C1200.26,986.772 1199.72,985.438 1199.15,984.118L1313.95,984.118L1313.95,980.118L1197.33,980.118C1196.68,978.769 1196,977.435 1195.29,976.118L1313.95,976.118L1313.95,972.118L1193.03,972.118C1192.22,970.765 1191.39,969.431 1190.52,968.118L1313.95,968.118L1313.95,964.118L1187.75,964.118C1186.77,962.759 1185.75,961.425 1184.69,960.118L1313.95,960.118L1313.95,956.118L1181.31,956.118C1180.09,954.751 1178.84,953.417 1177.56,952.118L1313.95,952.118L1313.95,948.118L1173.37,948.118C1171.85,946.744 1170.28,945.41 1168.67,944.118L1313.95,944.118L1313.95,940.118L1163.36,940.118C1161.39,938.724 1159.36,937.39 1157.28,936.118L1313.95,936.118L1313.95,932.118L1150.17,932.118C1147.38,930.673 1144.5,929.338 1141.56,928.118L1313.95,928.118L1313.95,924.118L1130.3,924.118C1124.02,922.25 1117.51,920.897 1110.85,920.118L1313.95,920.118L1313.95,916.118L1035.06,916.118C1036.83,914.841 1038.55,913.506 1040.21,912.118L1313.95,912.118L1313.95,908.118L1044.69,908.118C1045.3,907.539 1045.9,906.952 1046.5,906.358C1047.22,905.624 1047.94,904.878 1048.65,904.118L1313.95,904.118L1313.95,900.118L1052.15,900.118C1053.23,898.816 1054.28,897.482 1055.29,896.118L1313.95,896.118L1313.95,892.118L1058.09,892.118C1058.96,890.808 1059.8,889.475 1060.61,888.118L1313.95,888.118L1313.95,884.118L1062.86,884.118C1063.56,882.803 1064.23,881.469 1064.87,880.118L1313.95,880.118L1313.95,876.118L1066.66,876.118C1067.21,874.799 1067.74,873.465 1068.23,872.118L1313.95,872.118L1313.95,868.118L1069.61,868.118C1070.03,866.796 1070.42,865.462 1070.79,864.118L1313.95,864.118L1313.95,860.118L1071.79,860.118C1072.09,858.794 1072.36,857.46 1072.6,856.118L1313.95,856.118L1313.95,852.118L1073.24,852.118C1073.42,850.792 1073.58,849.458 1073.71,848.118L1313.95,848.118L1313.95,844.118L1074,844.118C1074.07,842.79 1074.11,841.456 1074.12,840.118L1313.95,840.118L1313.95,836.118L1074.07,836.118C1074.02,834.779 1073.94,833.446 1073.84,832.118L1313.95,832.118L1313.95,828.118L1073.45,828.118C1073.28,826.777 1073.09,825.444 1072.88,824.118L1313.95,824.118L1313.95,820.118L1072.13,820.118C1071.85,818.775 1071.54,817.442 1071.21,816.118L1313.95,816.118L1313.95,812.118L1070.1,812.118C1069.69,810.773 1069.26,809.439 1068.8,808.118L1313.95,808.118L1313.95,804.118L1067.3,804.118C1066.76,802.769 1066.2,801.436 1065.6,800.118L1313.95,800.118L1313.95,796.118L1063.68,796.118C1062.99,794.765 1062.27,793.431 1061.52,792.118L1313.95,792.118L1313.95,788.118L1059.11,788.118C1058.25,786.759 1057.35,785.425 1056.43,784.118L1313.95,784.118L1313.95,780.118L1053.43,780.118C1052.35,778.75 1051.23,777.416 1050.08,776.118L1313.95,776.118L1313.95,772.118L1046.31,772.118C1044.93,770.743 1043.51,769.409 1042.05,768.118L1313.95,768.118L1313.95,764.118L1037.18,764.118C1035.35,762.721 1033.48,761.386 1031.55,760.118L1313.95,760.118L1313.95,756.118L1024.88,756.118C1022.21,754.66 1019.46,753.323 1016.64,752.118L1313.95,752.118L1313.95,748.118L1005.39,748.118C997.205,745.777 988.606,744.511 979.814,744.511C971.023,744.511 962.425,745.777 954.242,748.118L393.439,748.118C384.879,745.539 375.846,744.14 366.599,744.14C357.354,744.14 348.321,745.539 339.761,748.118L60.048,748.118L60.048,744.118L1313.95,744.118L1313.95,740.118L60.048,740.118L60.048,736.118L1313.95,736.118L1313.95,732.118L60.048,732.118L60.048,728.118L1313.95,728.118L1313.95,724.118L60.048,724.118L60.048,720.118L1313.95,720.118L1313.95,716.118L60.048,716.118L60.048,712.118L1313.95,712.118L1313.95,708.118L60.048,708.118L60.048,704.118L1313.95,704.118L1313.95,700.118L60.048,700.118L60.048,696.118L1313.95,696.118L1313.95,692.118L60.048,692.118L60.048,688.118L1313.95,688.118L1313.95,684.118L60.048,684.118L60.048,680.118L1313.95,680.118L1313.95,676.118L60.048,676.118L60.048,672.118L1313.95,672.118L1313.95,668.118L60.048,668.118L60.048,664.118L1313.95,664.118L1313.95,660.118L60.048,660.118L60.048,656.118L1313.95,656.118L1313.95,652.118L60.048,652.118L60.048,648.118L1313.95,648.118L1313.95,644.118L60.048,644.118L60.048,640.118L1313.95,640.118L1313.95,636.118L60.048,636.118L60.048,632.118L1313.95,632.118L1313.95,628.118L60.048,628.118L60.048,624.118L1313.95,624.118L1313.95,620.118L60.048,620.118L60.048,616.118L1313.95,616.118L1313.95,612.118L60.048,612.118L60.048,608.118L1313.95,608.118L1313.95,604.118L60.048,604.118L60.048,600.118L1313.95,600.118L1313.95,596.118L60.048,596.118L60.048,592.118L1313.95,592.118L1313.95,588.118L60.048,588.118L60.048,584.118L1313.95,584.118L1313.95,580.118L60.048,580.118L60.048,576.118L1313.95,576.118L1313.95,572.118L60.048,572.118L60.048,568.118L1313.95,568.118L1313.95,564.118L60.048,564.118L60.048,560.118L1313.95,560.118L1313.95,556.118L60.048,556.118L60.048,552.118L1313.95,552.118L1313.95,548.118L60.048,548.118L60.048,544.118L1313.95,544.118L1313.95,540.118L60.048,540.118L60.048,536.118L1313.95,536.118L1313.95,532.118L60.048,532.118L60.048,528.118L1313.95,528.118L1313.95,524.118L60.048,524.118L60.048,520.118L1313.95,520.118L1313.95,516.118L60.048,516.118L60.048,512.118L1313.95,512.118L1313.95,508.118L60.048,508.118L60.048,504.118L1313.95,504.118L1313.95,500.118L60.048,500.118L60.048,496.118L1313.95,496.118L1313.95,492.118L60.048,492.118L60.048,488.118L1313.95,488.118L1313.95,484.118L60.048,484.118L60.048,480.118L1313.95,480.118L1313.95,476.118L60.048,476.118L60.048,472.118L1313.95,472.118L1313.95,468.118L60.048,468.118L60.048,464.118L1313.95,464.118L1313.95,460.118L60.048,460.118L60.048,456.118L1313.95,456.118L1313.95,452.118L60.048,452.118L60.048,448.118L1313.95,448.118L1313.95,444.118L60.048,444.118L60.048,440.118L1313.95,440.118L1313.95,436.118L60.048,436.118L60.048,432.118L1313.95,432.118L1313.95,428.118L60.048,428.118L60.048,424.118L1313.95,424.118L1313.95,420.118L60.048,420.118L60.048,416.118L1313.95,416.118L1313.95,412.118L60.048,412.118L60.048,408.118L1313.95,408.118L1313.95,404.118L60.048,404.118L60.048,402.874C60.046,401.956 60.049,401.037 60.055,400.118L1313.94,400.118C1313.94,398.785 1313.93,397.451 1313.91,396.118L60.109,396.118C60.135,394.784 60.17,393.451 60.214,392.118L1313.84,392.118C1313.82,390.785 1313.78,389.451 1313.74,388.118L60.372,388.118C60.433,386.784 60.503,385.451 60.582,384.118L1313.61,384.118C1313.56,382.784 1313.5,381.451 1313.44,380.118L60.846,380.118C60.943,378.784 61.049,377.451 61.164,376.118L1313.23,376.118C1313.16,374.784 1313.08,373.451 1312.99,372.118L61.538,372.118C61.671,370.784 61.815,369.45 61.967,368.118L1312.7,368.118C1312.6,366.784 1312.49,365.451 1312.38,364.118L62.453,364.118C62.625,362.784 62.806,361.45 62.997,360.118L1312.01,360.118C1311.88,358.784 1311.74,357.451 1311.6,356.118L63.6,356.118C63.811,354.784 64.031,353.45 64.262,352.118L1311.14,352.118C1310.98,350.784 1310.81,349.45 1310.64,348.118L64.984,348.118C65.236,346.783 65.497,345.45 65.768,344.118L1310.09,344.118C1309.89,342.784 1309.69,341.45 1309.49,340.118L66.615,340.118C66.908,338.783 67.211,337.45 67.525,336.118L1308.84,336.118C1308.61,334.783 1308.37,333.45 1308.13,332.118L68.5,332.118C68.164,333.45 67.839,334.783 67.525,336.118" style="fill:none;fill-rule:nonzero;stroke:rgb(255,224,133);stroke-width:1px;stroke-linejoin:miter;stroke-miterlimit:10;"/>
        </g>
    </g>
</svg>
