<?xml version="1.0" encoding="UTF-8" standalone="no"?>
<!DOCTYPE svg PUBLIC "-//W3C//DTD SVG 1.1//EN" "http://www.w3.org/Graphics/SVG/1.1/DTD/svg11.dtd">
<svg width="100%" height="100%" viewBox="0 0 1374 1487" version="1.1" xmlns="http://www.w3.org/2000/svg" xmlns:xlink="http://www.w3.org/1999/xlink" xml:space="preserve" xmlns:serif="http://www.serif.com/" style="fill-rule:evenodd;clip-rule:evenodd;stroke-miterlimit:10;">
    <rect x="0.584" y="2.062" width="1373.57" height="1482.77" style="fill:rgb(235,235,235);"/>
    <g>
        <g id="_-ffbf00" serif:id="#ffbf00">
            <path d="M1169.4,955.343C1169.46,955.398 1169.52,955.453 1169.58,955.508C1170.9,956.757 1172.19,958.035 1173.43,959.343L1021.68,959.343C1022.93,958.035 1024.21,956.757 1025.53,955.508C1025.59,955.453 1025.65,955.398 1025.71,955.343L1169.4,955.343C1167.94,953.966 1166.43,952.632 1164.89,951.343L1030.22,951.343C1031.87,949.957 1033.58,948.623 1035.32,947.343L1159.79,947.343C1157.89,945.944 1155.93,944.609 1153.93,943.343L1041.18,943.343C1043.43,941.923 1045.73,940.589 1048.09,939.343L1147.02,939.343C1144.26,937.886 1141.42,936.55 1138.51,935.343L1056.6,935.343C1060.33,933.795 1064.18,932.458 1068.14,931.343L1126.98,931.343C1117.71,928.732 1107.86,927.343 1097.56,927.343C1087.25,927.343 1077.4,928.732 1068.14,931.343" style="fill:none;fill-rule:nonzero;stroke:rgb(255,191,0);stroke-width:1px;"/>
            <path d="M1068.93,1115.34C1077.96,1117.81 1087.54,1119.12 1097.56,1119.12C1107.57,1119.12 1117.15,1117.81 1126.18,1115.34L1068.93,1115.34C1064.88,1114.24 1060.95,1112.9 1057.14,1111.34L1137.97,1111.34C1140.92,1110.14 1143.8,1108.8 1146.6,1107.34L1048.51,1107.34C1046.13,1106.1 1043.8,1104.76 1041.53,1103.34L1153.58,1103.34C1155.6,1102.08 1157.57,1100.74 1159.49,1099.34L1035.62,1099.34C1033.86,1098.06 1032.15,1096.73 1030.48,1095.34L1164.63,1095.34C1166.18,1094.05 1167.69,1092.72 1169.17,1091.34L1025.94,1091.34L1025.53,1090.96C1024.28,1089.78 1023.07,1088.57 1021.89,1087.34L1173.22,1087.34C1174.47,1086.04 1175.68,1084.7 1176.85,1083.34L1018.26,1083.34C1017.13,1082.04 1016.05,1080.7 1015,1079.34L1180.12,1079.34C1181.13,1078.03 1182.1,1076.7 1183.04,1075.34L1012.07,1075.34C1011.16,1074.03 1010.28,1072.7 1009.44,1071.34L1185.67,1071.34C1186.48,1070.03 1187.26,1068.69 1188.01,1067.34L1007.1,1067.34C1006.37,1066.03 1005.68,1064.69 1005.02,1063.34L1190.1,1063.34C1190.74,1062.03 1191.35,1060.69 1191.93,1059.34L1003.18,1059.34C1002.61,1058.02 1002.07,1056.69 1001.57,1055.34L1193.55,1055.34C1194.04,1054.02 1194.51,1052.69 1194.94,1051.34L1000.17,1051.34C999.746,1050.02 999.351,1048.69 998.986,1047.34L1196.12,1047.34C1196.48,1046.02 1196.81,1044.69 1197.11,1043.34L997.999,1043.34C997.705,1042.02 997.439,1040.69 997.203,1039.34L1197.91,1039.34C1198.14,1038.02 1198.34,1036.69 1198.52,1035.34L996.592,1035.34C996.42,1034.02 996.276,1032.69 996.16,1031.34L1198.95,1031.34C1199.06,1030.02 1199.15,1028.68 1199.21,1027.34L995.903,1027.34C995.845,1026.02 995.816,1024.68 995.814,1023.34L1199.3,1023.34L1199.3,1023.23C1199.3,1021.93 1199.27,1020.63 1199.22,1019.34L995.893,1019.34C995.948,1018 996.031,1016.67 996.142,1015.34L1198.97,1015.34C1198.86,1014 1198.72,1012.67 1198.55,1011.34L996.564,1011.34C996.736,1010 996.936,1008.67 997.165,1007.34L1197.95,1007.34C1197.71,1006 1197.45,1004.67 1197.16,1003.34L997.95,1003.34C998.246,1002 998.572,1000.66 998.926,999.343L1196.18,999.343C1195.82,997.997 1195.43,996.663 1195.01,995.343L1000.1,995.343C1000.53,993.996 1000.99,992.662 1001.48,991.343L1193.63,991.343C1193.13,989.995 1192.59,988.661 1192.03,987.343L1003.08,987.343C1003.66,985.994 1004.27,984.66 1004.91,983.343L1190.2,983.343C1189.55,981.992 1188.86,980.659 1188.13,979.343L1006.98,979.343C1007.72,977.991 1008.5,976.657 1009.31,975.343L1185.8,975.343C1184.97,973.989 1184.1,972.655 1183.2,971.343L1011.92,971.343C1012.85,969.987 1013.82,968.653 1014.83,967.343L1180.29,967.343C1179.24,965.984 1178.16,964.651 1177.04,963.343L1018.07,963.343C1016.95,964.651 1015.87,965.984 1014.83,967.343" style="fill:none;fill-rule:nonzero;stroke:rgb(255,191,0);stroke-width:1px;"/>
            <path d="M227.471,1117.22C236.501,1119.68 246.086,1121 256.097,1121C266.109,1121 275.693,1119.68 284.723,1117.22L227.471,1117.22C223.426,1116.11 219.492,1114.77 215.68,1113.22L296.515,1113.22C299.465,1112.01 302.342,1110.68 305.14,1109.22L207.054,1109.22C204.669,1107.97 202.341,1106.64 200.074,1105.22L312.121,1105.22C314.14,1103.95 316.112,1102.62 318.033,1101.22L194.162,1101.22C192.406,1099.94 190.693,1098.6 189.023,1097.22L323.172,1097.22C324.723,1095.93 326.237,1094.59 327.711,1093.22L184.484,1093.22L184.074,1092.83C182.826,1091.65 181.612,1090.45 180.432,1089.22L331.762,1089.22C333.013,1087.91 334.224,1086.58 335.395,1085.22L176.799,1085.22C175.674,1083.91 174.587,1082.58 173.537,1081.22L338.657,1081.22C339.67,1079.91 340.646,1078.57 341.586,1077.22L170.609,1077.22C169.7,1075.9 168.825,1074.57 167.985,1073.22L344.209,1073.22C345.024,1071.9 345.806,1070.57 346.553,1069.22L165.641,1069.22C164.914,1067.9 164.219,1066.57 163.558,1065.22L348.637,1065.22C349.282,1063.9 349.896,1062.57 350.477,1061.22L161.717,1061.22C161.149,1059.9 160.612,1058.57 160.107,1057.22L352.088,1057.22C352.583,1055.9 353.048,1054.56 353.481,1053.22L158.714,1053.22C158.288,1051.9 157.893,1050.56 157.528,1049.22L354.667,1049.22C355.025,1047.89 355.354,1046.56 355.654,1045.22L156.541,1045.22C156.247,1043.89 155.981,1042.56 155.745,1041.22L356.449,1041.22C356.682,1039.89 356.885,1038.56 357.06,1037.22L155.134,1037.22C154.962,1035.89 154.818,1034.56 154.702,1033.22L357.492,1033.22C357.606,1031.89 357.692,1030.56 357.75,1029.22L154.445,1029.22C154.387,1027.89 154.358,1026.56 154.356,1025.22L357.838,1025.22L357.838,1025.11C357.838,1023.8 357.812,1022.5 357.759,1021.22L154.435,1021.22C154.49,1019.87 154.573,1018.54 154.684,1017.22L357.511,1017.22C357.399,1015.87 357.258,1014.54 357.089,1013.22L155.106,1013.22C155.278,1011.87 155.478,1010.54 155.707,1009.22L356.488,1009.22C356.255,1007.87 355.993,1006.54 355.702,1005.22L156.492,1005.22C156.788,1003.87 157.114,1002.54 157.468,1001.22L354.726,1001.22C354.365,999.871 353.973,998.537 353.552,997.217L158.643,997.217C159.073,995.87 159.533,994.536 160.024,993.217L352.17,993.217C351.669,991.869 351.136,990.535 350.572,989.217L161.623,989.217C162.2,987.868 162.809,986.534 163.45,985.217L348.745,985.217C348.088,983.866 347.397,982.533 346.675,981.217L165.52,981.217C166.262,979.865 167.039,978.531 167.849,977.217L344.346,977.217C343.511,975.863 342.642,974.529 341.738,973.217L170.457,973.217C171.391,971.861 172.361,970.527 173.368,969.217L338.827,969.217C337.784,967.859 336.703,966.525 335.584,965.217L176.61,965.217C177.774,963.856 178.978,962.522 180.222,961.217L331.973,961.217C330.728,959.91 329.443,958.631 328.121,957.382L327.946,957.217L184.249,957.217C185.714,955.84 187.217,954.506 188.759,953.217L323.436,953.217C321.778,951.831 320.077,950.497 318.334,949.217L193.86,949.217C195.766,947.818 197.721,946.483 199.724,945.217L312.471,945.217C310.226,943.797 307.921,942.463 305.56,941.217L206.634,941.217C209.396,939.76 212.234,938.425 215.145,937.217L297.05,937.217C293.321,935.67 289.473,934.332 285.517,933.217L226.678,933.217C235.939,930.606 245.792,929.217 256.097,929.217C266.403,929.217 276.256,930.606 285.517,933.217" style="fill:none;fill-rule:nonzero;stroke:rgb(255,191,0);stroke-width:1px;"/>
            <path d="M1097.56,1123.12C1155.95,1123.12 1203.3,1078.4 1203.3,1023.23C1203.3,968.065 1155.95,923.343 1097.56,923.343C1039.16,923.343 991.814,968.065 991.814,1023.23C991.814,1078.4 1039.16,1123.12 1097.56,1123.12Z" style="fill:none;stroke:rgb(255,191,0);stroke-width:1px;stroke-linejoin:round;stroke-miterlimit:2;"/>
            <path d="M256.097,1125C314.496,1125 361.838,1080.27 361.838,1025.11C361.838,969.939 314.496,925.217 256.097,925.217C197.698,925.217 150.356,969.939 150.356,1025.11C150.356,1080.27 197.698,1125 256.097,1125Z" style="fill:none;stroke:rgb(255,191,0);stroke-width:1px;stroke-linejoin:round;stroke-miterlimit:2;"/>
        </g>
    </g>
</svg>
