<?xml version="1.0" encoding="UTF-8" standalone="no"?>
<!DOCTYPE svg PUBLIC "-//W3C//DTD SVG 1.1//EN" "http://www.w3.org/Graphics/SVG/1.1/DTD/svg11.dtd">
<svg width="100%" height="100%" viewBox="0 0 426 600" version="1.1" xmlns="http://www.w3.org/2000/svg" xmlns:xlink="http://www.w3.org/1999/xlink" xml:space="preserve" xmlns:serif="http://www.serif.com/" style="fill-rule:evenodd;clip-rule:evenodd;stroke-linecap:round;stroke-linejoin:round;stroke-miterlimit:1.5;">
    <g transform="matrix(1.37606,0,0,1.37606,-35.6711,-107.23)">
        <g transform="matrix(1,0,0,1,-17.0682,-0.538785)">
            <path d="M233.977,230.446C233.977,230.446 242.247,240.724 258.621,238.903" style="fill:none;stroke:black;stroke-width:0.73px;"/>
        </g>
        <g transform="matrix(0.20261,0,0,0.20261,84.0655,259.04)">
            <path d="M324.018,420.336C324.018,420.336 328.8,437.8 329.7,441.9C330.8,447.1 332.5,452.5 325.6,452.6C325.1,451.8 320.3,444.5 321.2,444.5C321.2,441.5 317.5,431.8 315.3,428.7C312.4,424.6 307,429.3 302.8,427.6C301,424 288.8,423.2 284.4,423.2C285.1,425.9 287.1,426.8 287.3,429.8C283.7,431.3 281.6,432.9 277.9,432.4C271.5,431.5 272.3,426.5 265.2,427.2C253.9,428.3 246.1,437.7 246.1,448.9C244.8,448.9 244.8,470.9 246.1,470.9C246.1,477.1 251.2,481.6 251.2,486.3C256.2,486.3 261.8,497.3 266.7,497.3C267.3,501.2 264.2,501.8 272.6,501.7C272.6,501.3 277.1,498.9 277.7,495.8C271.9,494.4 277.7,487 281.4,485.5C281.4,490.7 288.7,483.8 288.7,483.3C289.5,483 296.8,480.4 296.8,480.4C296.8,474.5 302.3,481 298.3,483.3C294.3,483.3 294.6,489.9 292.4,489.9C291.5,494.6 289.6,498.7 288.5,503.3C287.1,509 291.7,509.5 290.2,514.8C296,515.9 302,514.8 307.9,514.8C307.9,513.8 307.7,512.7 307.2,511.9C315.7,511.9 307.9,528 313.1,528C313.1,534.1 316,538.8 316,542.7C320,545.3 322.4,548.9 321.1,553.7C326,554.3 336.5,555.6 336.5,549.3C343.9,549.3 344.5,554.4 343.9,559.6C358.7,559.6 349.4,544.9 355.6,544.9C356.2,542.5 357.2,542.1 358.6,543.6C361.6,545.2 363.9,540.6 366.3,539.1C367.1,538.6 369.8,537 370.3,537C372.4,538.3 372.6,537.9 373.5,539.3C377.5,539.3 381.6,537 385.1,534.6C390.4,535.2 388.7,546.6 398.6,547.3C402.6,547.6 411.8,548.7 415.2,546.3C416.1,545.7 419.2,548.3 419.5,549.4C422.8,549.4 422.6,552.3 424,552.2C424.3,552.8 424.8,553.1 425.5,552.9C425.9,554.2 428.6,554.5 429.9,558C429.9,561.2 436.5,561.7 436.5,563.8C441.2,566.2 434.9,566.8 442.2,569C446.2,570.3 449.9,572.3 454.2,572.6C455.6,567.4 460,573.3 462.3,573.3C463.5,575.7 464.1,573.9 465.2,576.2C472,581.9 467.5,579.7 470.3,585.8C473.6,587.9 474.6,595.4 475.5,599.7C472.9,599.7 474.7,609.8 474.7,610.7C471.5,610.7 482.8,616.7 482.8,609.2C487.5,610 490.5,615 493.8,615C491.9,619.4 498.9,622.8 498.9,615.8C505.9,616.5 504,626.9 503.3,630.5C508.5,630.5 510,627.6 514.4,627.1C519.2,624.1 524.5,621.9 530.5,621.9C547.4,621.9 561.1,635.6 561.1,652.5C561.1,667.8 549.7,679.8 535.1,682.2C533.1,684.4 531.4,686.4 531.2,686.4C531.2,687.9 530.9,702.5 530.4,702.5C530.4,705.4 528.2,721.6 526,721.6C526,729.9 520.6,731.4 518.6,739.2C514.1,742.5 502,748 500.2,751.7C496.7,751.7 494.2,754.6 490.6,754.6C490.1,755.6 482.6,762.7 484,762.7C483.4,767.9 484.4,780.2 481.6,783.6C479.7,785.9 477,785.6 478.2,789.2C474.1,789.2 478.4,792.1 471.9,792.1C467.8,792.1 460.5,797.9 460.3,802.9C460,809 458.4,813.3 453.2,817C453.2,819.1 443.6,819.7 443.6,825.1C444.5,825.1 443.6,835.1 443.6,836.1C440.8,836 433.8,838.9 432.6,841.2C423,841.2 424.1,842.2 417.9,846.3C417.9,847.6 417,852.1 415.7,852.1C415.7,859.5 410.4,852.8 406.1,856.5C407.8,856.5 409.9,863.8 409,863.8C409,870.3 405,870.8 400.9,875.6C399,876.9 397.1,882.2 395.8,882.2C395.8,886.5 393.6,890.5 393.6,894.7C394.5,894.7 393.7,896.6 394.3,898.3C396.4,897.7 396.4,895.4 397.2,895.4C397.2,891.7 403,897.6 399.4,897.6C396.4,902.2 393.1,902.3 391.3,908.6C389.5,908.6 387.9,910.4 386.5,912.5C422.6,922.3 460.4,928.1 499.7,928.1C650.5,928.1 782.9,850.1 859.3,732.3C859.8,721.5 861.4,711.1 862.6,707.5C865.6,709.7 867.8,713.8 870,707.5C864.7,706.5 866,704.6 867.8,700.2C869.8,701.4 873.477,702.835 876.777,702.635" style="fill:none;fill-rule:nonzero;stroke:black;stroke-width:3.59px;stroke-linecap:butt;stroke-miterlimit:2;"/>
            <path d="M879.906,696.876C876.906,694.576 881.196,688.651 882.696,691.651" style="fill:none;fill-rule:nonzero;stroke:black;stroke-width:3.59px;stroke-linecap:butt;stroke-miterlimit:2;"/>
            <path d="M884.966,687.068C884.666,686.968 884.5,687.1 884,687C884,684.3 884.5,684.7 886.2,683.3C886.2,683.6 886.2,683.6 886.3,683.8C913,627.8 928.5,565.5 928.5,499.3C928.5,497.1 926.04,458.269 913.94,419.873" style="fill:none;fill-rule:nonzero;stroke:black;stroke-width:3.59px;stroke-linecap:butt;stroke-miterlimit:2;"/>
            <path d="M927.823,495.05C927.023,498.05 925.9,499.1 923.8,499.9" style="fill:none;fill-rule:nonzero;stroke:black;stroke-width:3.59px;stroke-linecap:butt;stroke-miterlimit:2;"/>
            <path d="M923.8,499.9C923.8,501.8 901.9,511.4 903.2,515.3C899.3,515.3 885.8,519.2 883.3,524.1" style="fill:none;fill-rule:nonzero;stroke:black;stroke-width:3.59px;stroke-linecap:butt;stroke-miterlimit:2;"/>
            <path d="M866.7,541.8C867,544.3 861,545.4 868.8,546C869.9,546.1 876.9,545.9 876.9,544.6C883.3,544.6 892,543.7 898.2,541.6C898.2,551.1 890.2,556.4 891.6,565.8C886.3,565.8 888.6,571.3 888.6,573.1C885.2,575.2 884.6,579.1 880.5,581.2C880.5,585.5 870.9,592.5 868.1,596.1C864.9,600.2 855.3,607.2 854.1,612.4C854.4,611.2 836.6,631 840.7,631C840.7,634.7 835.7,664 842.2,664C842.2,666.6 847.7,691.2 844.4,691.2C844.4,699.1 839.3,703.9 839.3,710.2C836.8,711.9 833.2,712.9 832,715.4C827.5,715.4 825.3,725 823.2,725C823.2,735.2 820.2,742.8 820.2,754.3C821,754.3 814.3,770.8 814.3,771.9C808.9,775.5 795.2,788.6 795.2,795.4C795.2,795.4 785.6,808.8 784.2,810.8C781.3,810.8 759.1,815 759.1,816.7C754.4,816.7 742.2,820.4 739.3,816C739.3,811.3 736.8,805.4 736.4,799.1C734.1,799.1 733.8,789.6 731.3,789.6C731.3,787.6 717.2,759.5 719.5,759.5C719.5,756.6 717,747 716.6,747C716.6,736.9 709.2,728.5 709.2,719.1C707,719.1 702.5,698.6 704.8,698.6C704.8,687.8 708.6,680.8 710.1,668.8C711.8,655.7 709.3,647.7 707,638.4C705.7,638.4 701.5,631.4 701.1,629.6C695.2,625.7 693,617.9 693,610.6C696.9,606.2 698.4,589.6 697.4,584.2C690,580.7 687,582 679,582C674.3,572.5 642.4,578.4 633.3,578.4C633.3,583.6 611.1,577.4 609,573.3C603.6,573.3 592.8,561.8 592.8,556.4C586.9,552.4 577.4,532.8 577.4,526.3C572.3,523.7 573.8,513.8 576.6,513.8C577.3,511 574.8,502.3 573.6,498.2C572.7,495.1 576.6,491.8 576.6,488.1C576.6,477.9 576.8,473.2 582.6,462.2C584.4,458.8 586.7,455.6 588.4,451.3C591.5,443.6 592.4,450.9 596.5,444.1C600.5,442.1 602.7,435.6 606.8,432.4C608.6,430 606.951,426.582 605.151,424.782" style="fill:none;fill-rule:nonzero;stroke:black;stroke-width:3.59px;stroke-linecap:butt;stroke-miterlimit:2;"/>
            <g transform="matrix(4.9356,0,0,4.9356,-414.913,-1278.52)">
                <path d="M199.863,344.997L225.313,345.313" style="fill:none;stroke:black;stroke-width:0.73px;"/>
            </g>
            <g transform="matrix(4.9356,0,0,4.9356,-414.913,-1278.52)">
                <path d="M204.561,334.731L216.122,334.421" style="fill:none;stroke:black;stroke-width:0.73px;"/>
            </g>
        </g>
        <g transform="matrix(1,0,0,1,-17.0682,-0.538785)">
            <path d="M171.87,253.858C171.87,253.858 171.091,238.195 167.093,229.732C200.406,268.47 227.584,242.356 243.017,251.589C251.991,237.504 268.573,236.567 275.26,233.079C287.018,226.947 294.197,216.102 294.197,216.102L287.477,248.194L283.939,250.9" style="fill:none;stroke:black;stroke-width:0.73px;"/>
        </g>
        <path d="M265.471,272.707C265.471,272.707 265.466,280.422 266.415,282.25" style="fill:none;stroke:black;stroke-width:0.65px;"/>
        <g transform="matrix(1,0,0,1,-17.0682,-0.538785)">
            <path d="M223.019,250.299L222.128,239.959" style="fill:none;stroke:black;stroke-width:0.73px;"/>
        </g>
        <g transform="matrix(1,0,0,1,-17.0682,-0.538785)">
            <path d="M195.036,239.686L194.138,249.438" style="fill:none;stroke:black;stroke-width:0.73px;"/>
        </g>
        <g transform="matrix(1,0,0,1,-17.0682,-0.538785)">
            <path d="M201.795,251.244L210.225,246.529L216.834,251.233" style="fill:none;stroke:black;stroke-width:0.73px;"/>
        </g>
        <path d="M106.013,238.65L79.458,238.891C79.458,238.891 78.637,238.802 78.665,239.553C78.756,242.031 78.876,250.73 79.05,252.836C79.082,253.224 79.481,253.654 79.87,253.668C85.725,253.877 101.332,253.848 101.332,253.848L85.229,253.89L85.784,283.881" style="fill:none;stroke:black;stroke-width:0.73px;"/>
        <path d="M86.08,299.846L86.763,336.734C86.763,336.734 86.729,361.705 99.849,361.61" style="fill:none;stroke:black;stroke-width:0.73px;"/>
        <path d="M265.716,344.552C265.716,344.552 271.988,344.912 271.708,341.25C271.428,337.587 269.291,337.747 268.815,337.628" style="fill:none;stroke:black;stroke-width:0.73px;"/>
        <g transform="matrix(1,0,0,1,66.112,-1.37598)">
            <g transform="matrix(1,0,0,1,-157.858,-5.74547)">
                <path d="M322.627,326.443C323.375,319.607 326.851,284.919 345.72,284.054C364.59,283.189 375.709,317.019 355.535,354.794C355.31,355.214 359.86,368.989 351.841,374.577C346.275,378.456 334.237,375.738 332.876,369.326" style="fill:none;stroke:black;stroke-width:0.73px;"/>
            </g>
            <g transform="matrix(1,0,0,1,-157.858,-5.74547)">
                <path d="M329.71,370.407C329.71,370.407 321.961,345.326 330.371,339.207C332.792,337.445 334.183,344.66 334.183,344.66C334.183,344.66 332.021,291.701 351.268,293.585C374.734,295.881 356.472,349.612 352.443,353.629C348.433,357.627 336.308,358.285 336.308,358.285C336.308,358.285 345.283,361.102 353.337,361.568C355.372,375.402 339.768,375.185 336.044,369.53C334.019,367.281 333.668,360.352 333.668,360.352" style="fill:none;stroke:black;stroke-width:0.73px;"/>
            </g>
            <g transform="matrix(1,0,0,1,-157.858,-5.74547)">
                <path d="M338.548,286.31C338.548,286.31 321.308,256.162 296.997,297.688" style="fill:none;stroke:black;stroke-width:0.73px;"/>
            </g>
            <g transform="matrix(1,0,0,1,-157.858,-5.74547)">
                <path d="M306.219,339.473C306.219,339.473 329.103,365.583 329.396,370.278" style="fill:none;stroke:black;stroke-width:0.73px;"/>
            </g>
        </g>
        <g>
            <g transform="matrix(1,0,0,1,-157.858,-5.74547)">
                <path d="M322.627,326.443C323.375,319.607 326.851,284.919 345.72,284.054C364.59,283.189 375.709,317.019 355.535,354.794C355.31,355.214 359.86,368.989 351.841,374.577C346.275,378.456 333.069,375.563 331.708,369.15" style="fill:none;stroke:black;stroke-width:0.73px;"/>
            </g>
            <g transform="matrix(1,0,0,1,-157.858,-5.74547)">
                <path d="M329.442,370.312C329.442,370.312 321.961,345.326 330.371,339.207C332.792,337.445 334.183,344.66 334.183,344.66C334.183,344.66 332.021,291.701 351.268,293.585C374.734,295.881 356.472,349.612 352.443,353.629C348.433,357.627 336.308,358.285 336.308,358.285C336.308,358.285 343.068,362.251 353.337,361.568C356.031,370.343 344.352,378.585 336.044,369.53C334.924,368.377 333.607,364.803 333.607,364.803" style="fill:none;stroke:black;stroke-width:0.73px;"/>
            </g>
            <g transform="matrix(1,0,0,1,-157.858,-5.74547)">
                <path d="M338.548,286.31C338.548,286.31 321.308,256.162 296.997,297.688" style="fill:none;stroke:black;stroke-width:0.73px;"/>
            </g>
            <g transform="matrix(1,0,0,1,-157.858,-5.74547)">
                <path d="M306.219,339.473C306.219,339.473 329.103,365.583 329.396,370.278" style="fill:none;stroke:black;stroke-width:0.73px;"/>
            </g>
            <path d="M148.361,333.727L98.865,332.715C98.865,332.715 94.153,332.576 94.1,337.715C94.05,342.596 95.946,344.087 100.665,344.068C104.584,344.053 157.213,344.111 157.213,344.111" style="fill:none;stroke:black;stroke-width:0.73px;"/>
        </g>
        <g transform="matrix(1,0,0,1,-157.858,-5.74547)">
            <path d="M281.415,331.865C275.015,331.607 237.844,328.044 240.32,278.316C242.795,305.475 280.363,315.043 293.938,287.44" style="fill:none;stroke:black;stroke-width:0.73px;"/>
        </g>
        <g transform="matrix(1,0,0,1,-157.858,-5.74547)">
            <path d="M281.415,331.865L281.46,338.881" style="fill:none;stroke:black;stroke-width:0.73px;"/>
        </g>
        <g transform="matrix(1,0,0,1,-17.0682,-0.538785)">
            <path d="M170.746,219.351C148.375,221.29 120.454,228.346 118.599,251.859C116.478,280.181 145.508,280.365 145.508,280.365" style="fill:none;stroke:black;stroke-width:0.73px;"/>
        </g>
        <g transform="matrix(1,0,0,1,-17.0682,-0.538785)">
            <path d="M241.161,135.346C241.161,135.346 234.473,159.68 194.284,155.8C154.095,151.92 135.305,182.899 135.434,189.484C135.563,196.069 138.861,206.37 150.993,206.423" style="fill:none;stroke:black;stroke-width:0.73px;"/>
        </g>
        <g transform="matrix(1,0,0,1,-17.0682,-0.538785)">
            <path d="M190.035,162.7C182.985,164.128 136.055,187.698 152.402,200.963" style="fill:none;stroke:black;stroke-width:0.73px;"/>
        </g>
        <g transform="matrix(1,0,0,1,-17.0682,-0.538785)">
            <path d="M228.73,151.232C233.861,154.606 254.953,174.359 247.946,199.069" style="fill:none;stroke:black;stroke-width:0.73px;"/>
        </g>
        <g transform="matrix(1,0,0,1,-17.0682,-0.538785)">
            <path d="M242.326,218.38C242.326,218.38 233.51,242.092 203.143,239.581C172.551,234.285 170.19,215.247 170.19,215.247C170.19,215.247 162.011,221.559 155.16,212.7C148.31,203.84 153.775,198.116 160.417,198.009" style="fill:none;stroke:black;stroke-width:0.73px;"/>
        </g>
        <g transform="matrix(0.901456,0,0,0.897717,-10.2346,22.5249)">
            <ellipse cx="212.302" cy="182.351" rx="4.114" ry="4.108" style="fill:none;stroke:black;stroke-width:0.73px;"/>
        </g>
        <g transform="matrix(0.821129,0,0,0.818481,41.3798,26.3378)">
            <ellipse cx="212.302" cy="182.351" rx="4.114" ry="4.108" style="fill:none;stroke:black;stroke-width:0.8px;"/>
        </g>
        <g transform="matrix(1,0,0,1,-17.0682,-0.538785)">
            <path d="M189.939,162.497C189.939,162.497 150.371,180.114 156.841,197.613" style="fill:none;stroke:black;stroke-width:0.73px;"/>
        </g>
        <g transform="matrix(1,0,0,1,-17.0682,-0.538785)">
            <path d="M169.368,185.426L162.214,189.033" style="fill:none;stroke:black;stroke-width:0.73px;"/>
        </g>
        <g transform="matrix(1,0,0,1,-17.0682,-0.538785)">
            <path d="M170.353,190.24L163.879,193.284" style="fill:none;stroke:black;stroke-width:0.73px;"/>
        </g>
        <g transform="matrix(1,0,0,1,-17.0682,-0.538785)">
            <path d="M186.007,175.981C185.378,173.753 187.487,165.092 196.754,167.358" style="fill:none;stroke:black;stroke-width:0.73px;"/>
        </g>
        <g transform="matrix(0.626204,0.893975,-0.827365,0.579546,127.464,-122.054)">
            <path d="M284.067,206.691L302.877,228.251L311.986,216.697C311.986,216.697 312.145,216.555 312.005,216.411L293.209,197.421C293.209,197.421 294.637,193.444 293.056,189.419" style="fill:none;stroke:black;stroke-width:0.69px;"/>
        </g>
        <g transform="matrix(0.67324,0.961123,-0.972067,0.680906,140.111,-161.34)">
            <path d="M296.751,190.069C302.05,187.813 303.937,175.578 308.156,176.873C312.426,180.327 307.562,186.057 306.717,188.355C311.271,185.469 313.16,176.503 316.487,178.833C319.244,180.764 317.793,185.028 315.786,188.793" style="fill:none;stroke:black;stroke-width:0.62px;"/>
        </g>
        <g transform="matrix(0.760037,1.08504,-1.14368,0.801116,143.049,-223.916)">
            <path d="M317.531,187.644C318.938,185.445 320.38,183.825 321.98,185.109C322.281,185.351 322.152,185.342 322.319,185.704" style="fill:none;stroke:black;stroke-width:0.53px;"/>
        </g>
        <g transform="matrix(0.996973,1.42329,-1.90441,1.33399,235.695,-443.81)">
            <path d="M311.702,208.418C311.073,209.05 310.035,209.714 309.382,209.781" style="fill:none;stroke:black;stroke-width:0.35px;"/>
        </g>
        <g transform="matrix(0.699792,0.714347,-0.714347,0.699792,78.7982,-97.5315)">
            <path d="M288.326,204.701L298.504,196.225C298.504,196.225 298.758,195.979 298.865,196.047C298.972,196.115 299.708,197.093 299.708,197.093" style="fill:none;stroke:black;stroke-width:0.73px;"/>
        </g>
        <g transform="matrix(1,0,0,1,-17.0682,-0.538785)">
            <path d="M227.103,160.479C227.657,159.143 232.282,155.33 237.247,159.473" style="fill:none;stroke:black;stroke-width:0.73px;"/>
        </g>
        <g transform="matrix(1,0,0,1,-17.0682,-0.538785)">
            <path d="M220.535,187.535C224.283,187.933 228.508,193.424 224.018,197.505" style="fill:none;stroke:black;stroke-width:0.73px;"/>
        </g>
        <g transform="matrix(1,0,0,1,-17.0682,-0.538785)">
            <path d="M200.476,105.631C200.476,105.631 216.3,144.634 229.256,148.659" style="fill:none;stroke:black;stroke-width:0.73px;"/>
        </g>
        <g transform="matrix(1,0,0,1,-17.0682,-0.538785)">
            <path d="M200.476,105.631C200.476,105.631 181.247,98.564 155.414,113.524C152.875,115.011 134.423,123.161 125.88,147.308C142.756,166.999 142.293,171.813 142.886,174.774" style="fill:none;stroke:black;stroke-width:0.73px;"/>
        </g>
        <g transform="matrix(1,0,0,1,-17.0682,-0.538785)">
            <path d="M142.886,174.774C142.886,174.774 172.382,127.969 214.515,133.983" style="fill:none;stroke:black;stroke-width:0.73px;"/>
        </g>
        <g transform="matrix(1,0,0,1,-17.0682,-0.538785)">
            <path d="M182.549,106.337C182.549,106.337 200.095,146.934 206.837,148.878C213.578,150.821 224.582,148.327 224.582,148.327C224.582,148.327 221.481,153.616 199.254,153.368C177.028,153.12 174.632,154.834 174.632,154.834C174.632,154.834 151.474,119.145 151.412,118.57C168.66,106.497 182.549,106.337 182.549,106.337Z" style="fill:none;stroke:black;stroke-width:0.73px;"/>
        </g>
        <g transform="matrix(1,0,0,1,-17.0682,-0.538785)">
            <path d="M131.868,141.432L129.365,146.718C129.365,146.718 144.139,166.013 144.576,168.336C145.012,170.659 147.354,152.388 131.868,141.432Z" style="fill:none;stroke:black;stroke-width:0.73px;"/>
        </g>
        <g transform="matrix(1,0,0,1,-17.0682,-0.538785)">
            <path d="M221.059,200.254C221.059,200.254 224.634,194.771 232.472,197.237C240.309,199.703 257.486,205.352 259.019,190.659C258.135,228.933 225.64,216.839 225.865,216.602C226.091,216.364 206.035,240.555 187.744,222.584C181.406,216.768 179.211,209.462 179.211,209.462C179.211,209.462 187.438,218.653 195.908,215.786C201.083,213.466 201.677,201.498 214.535,201.076" style="fill:none;stroke:black;stroke-width:0.73px;"/>
        </g>
        <g transform="matrix(1,0,0,1,-17.0682,-0.538785)">
            <path d="M218.672,154.794C208.879,161.289 184.767,156.803 165.99,164.179C163.678,165.897 141.496,176.378 139.347,192.867C138.103,203.553 151.055,204.834 151.055,204.834" style="fill:none;stroke:black;stroke-width:0.73px;"/>
        </g>
        <g transform="matrix(0.932689,0,0,0.932689,2.32093,16.1268)">
            <g transform="matrix(0.578549,0.728647,-0.644358,0.511623,218.278,-69.0513)">
                <path d="M311.953,170.511C311.953,170.511 321.907,167.23 322.693,175.799C326.999,174.977 331.148,177.565 331.157,184.461C332.356,184.314 335.322,187.987 335.161,191.983C333.69,198.364 327.371,210.209 318.666,209.296" style="fill:none;stroke:black;stroke-width:0.89px;"/>
            </g>
            <g transform="matrix(0.578549,0.728647,-0.644358,0.511623,218.278,-69.0513)">
                <path d="M318.666,209.296C316.829,208.91 316,207.46 316.501,206.959" style="fill:none;stroke:black;stroke-width:0.89px;"/>
            </g>
            <g transform="matrix(0.578549,0.728647,-0.644358,0.511623,218.278,-69.0513)">
                <path d="M324.955,198.048C322.263,202.219 316.008,209.552 312.233,207.487C308.457,205.423 317.126,192.96 317.126,192.96C317.126,192.96 312.038,205.758 305.795,202.359C301.334,199.93 310.784,189.147 313.069,180.105" style="fill:none;stroke:black;stroke-width:0.89px;"/>
            </g>
        </g>
        <g transform="matrix(1,0,0,1,-17.0682,-0.538785)">
            <path d="M228.797,234.881C231.963,237.188 232.209,243.472 230.601,249.455" style="fill:none;stroke:black;stroke-width:0.73px;"/>
        </g>
        <g transform="matrix(1,0,0,1,-17.0682,-0.538785)">
            <path d="M182.025,231.824C179.125,235.658 179.85,240.311 180.834,242.705" style="fill:none;stroke:black;stroke-width:0.73px;"/>
        </g>
        <path d="M190.151,446.938C190.151,446.938 179.741,451.298 187.278,459.535C194.816,467.771 202.982,472.52 202.982,472.52L131.03,472.212C131.03,472.212 145.615,466.239 145.239,453.26C144.864,440.28 122.291,432.583 111.969,421.312C104.253,412.888 95.835,406.327 93.804,359.387" style="fill:none;stroke:black;stroke-width:0.73px;"/>
        <path d="M98.624,253.942L98.83,295.653" style="fill:none;stroke:black;stroke-width:0.73px;"/>
        <path d="M98.788,317.284C98.802,326.084 99.415,331.151 100.315,332.675" style="fill:none;stroke:black;stroke-width:0.73px;"/>
        <g transform="matrix(1.10249,0,0,1.39857,-16.8999,-188.214)">
            <path d="M134.209,472.219L130.695,472.222C130.695,472.222 125.312,472.027 125.377,476.808C125.447,482.005 131.053,481.678 131.053,481.678L203.312,482.083C203.312,482.083 208.701,482.619 208.785,476.944C208.849,472.675 203.148,472.554 203.148,472.554" style="fill:none;stroke:black;stroke-width:0.58px;"/>
        </g>
        <path d="M207.068,472.686L202.984,472.512" style="fill:none;stroke:black;stroke-width:0.65px;"/>
        <g transform="matrix(1,0,0,1,-17.0682,-0.538785)">
            <path d="M151.014,253.697C151.014,253.697 145.518,253.555 144.834,250.504" style="fill:none;stroke:black;stroke-width:0.73px;"/>
        </g>
        <path d="M274.139,315.999C274.139,315.999 274.121,324.718 275.355,326.432C273.859,327.264 271.912,327.428 271.912,327.428" style="fill:none;stroke:black;stroke-width:0.65px;"/>
        <path d="M162.288,443.702C162.288,443.702 87.585,427.262 101.54,343.888" style="fill:none;stroke:black;stroke-width:0.65px;"/>
        <path d="M258.207,407.38C258.207,407.38 262.308,400.714 263.717,397.507" style="fill:none;stroke:black;stroke-width:0.65px;"/>
    </g>
</svg>
